G04 PROTEUS GERBER X2 FILE*
%TF.GenerationSoftware,Labcenter,Proteus,8.6-SP2-Build23525*%
%TF.CreationDate,2019-12-11T18:48:13+00:00*%
%TF.FileFunction,AssemblyDrawing,Bot*%
%TF.FilePolarity,Positive*%
%TF.Part,Single*%
%FSLAX45Y45*%
%MOMM*%
G01*
%TA.AperFunction,Material*%
%ADD18C,0.152400*%
%ADD22C,0.330200*%
%ADD23C,0.431800*%
%TA.AperFunction,Profile*%
%ADD14C,0.203200*%
%TD.AperFunction*%
D18*
X+3092161Y-6414461D02*
X+3092161Y-5431481D01*
X+8690321Y-5431481D01*
X+8690321Y-6414461D01*
X+3092161Y-6414461D01*
X+3092161Y-5431481D01*
X+8690321Y-5431481D01*
X+8690321Y-6414461D01*
X+3092161Y-6414461D01*
D22*
X+7806401Y-6022031D02*
X+8004521Y-6022031D01*
X+8004521Y-5823911D01*
X+7806401Y-5823911D01*
X+8004521Y-5922971D02*
X+7872441Y-5922971D01*
X+7740361Y-6022031D02*
X+7740361Y-5823911D01*
X+7542241Y-6022031D01*
X+7542241Y-5823911D01*
X+7278081Y-5989011D02*
X+7311101Y-6022031D01*
X+7410161Y-6022031D01*
X+7476201Y-5955991D01*
X+7476201Y-5889951D01*
X+7410161Y-5823911D01*
X+7311101Y-5823911D01*
X+7278081Y-5856931D01*
X+7212041Y-5889951D02*
X+7146001Y-5823911D01*
X+7079961Y-5823911D01*
X+7013921Y-5889951D01*
X+7013921Y-5955991D01*
X+7079961Y-6022031D01*
X+7146001Y-6022031D01*
X+7212041Y-5955991D01*
X+7212041Y-5889951D01*
X+6947881Y-6022031D02*
X+6947881Y-5823911D01*
X+6815801Y-5823911D01*
X+6749761Y-5889951D01*
X+6749761Y-5955991D01*
X+6815801Y-6022031D01*
X+6947881Y-6022031D01*
X+6485601Y-6022031D02*
X+6683721Y-6022031D01*
X+6683721Y-5823911D01*
X+6485601Y-5823911D01*
X+6683721Y-5922971D02*
X+6551641Y-5922971D01*
X+6419561Y-6022031D02*
X+6419561Y-5823911D01*
X+6254461Y-5823911D01*
X+6221441Y-5856931D01*
X+6221441Y-5889951D01*
X+6254461Y-5922971D01*
X+6419561Y-5922971D01*
X+6254461Y-5922971D02*
X+6221441Y-5955991D01*
X+6221441Y-6022031D01*
X+6155401Y-5989011D02*
X+6122381Y-6022031D01*
X+5990301Y-6022031D01*
X+5957281Y-5989011D01*
X+5957281Y-5955991D01*
X+5990301Y-5922971D01*
X+6122381Y-5922971D01*
X+6155401Y-5889951D01*
X+6155401Y-5856931D01*
X+6122381Y-5823911D01*
X+5990301Y-5823911D01*
X+5957281Y-5856931D01*
X+5627081Y-6022031D02*
X+5627081Y-5889951D01*
X+5561041Y-5823911D01*
X+5495001Y-5823911D01*
X+5428961Y-5889951D01*
X+5428961Y-6022031D01*
X+5627081Y-5955991D02*
X+5428961Y-5955991D01*
X+5362921Y-6022031D02*
X+5362921Y-5823911D01*
X+5197821Y-5823911D01*
X+5164801Y-5856931D01*
X+5164801Y-5889951D01*
X+5197821Y-5922971D01*
X+5362921Y-5922971D01*
X+5197821Y-5922971D02*
X+5164801Y-5955991D01*
X+5164801Y-6022031D01*
X+5098761Y-6022031D02*
X+5098761Y-5823911D01*
X+4966681Y-5823911D01*
X+4900641Y-5889951D01*
X+4900641Y-5955991D01*
X+4966681Y-6022031D01*
X+5098761Y-6022031D01*
X+4834601Y-5823911D02*
X+4834601Y-5989011D01*
X+4801581Y-6022031D01*
X+4669501Y-6022031D01*
X+4636481Y-5989011D01*
X+4636481Y-5823911D01*
X+4537421Y-5823911D02*
X+4405341Y-5823911D01*
X+4471381Y-5823911D02*
X+4471381Y-6022031D01*
X+4537421Y-6022031D02*
X+4405341Y-6022031D01*
X+4306281Y-6022031D02*
X+4306281Y-5823911D01*
X+4108161Y-6022031D01*
X+4108161Y-5823911D01*
X+4042121Y-5889951D02*
X+3976081Y-5823911D01*
X+3910041Y-5823911D01*
X+3844001Y-5889951D01*
X+3844001Y-5955991D01*
X+3910041Y-6022031D01*
X+3976081Y-6022031D01*
X+4042121Y-5955991D01*
X+4042121Y-5889951D01*
D18*
X-2817839Y-6417361D02*
X-2817839Y-5434381D01*
X+2780321Y-5434381D01*
X+2780321Y-6417361D01*
X-2817839Y-6417361D01*
X-2817839Y-5434381D01*
X+2780321Y-5434381D01*
X+2780321Y-6417361D01*
X-2817839Y-6417361D01*
D23*
X+2053881Y-5796331D02*
X+2053881Y-6055411D01*
X+1794801Y-6055411D01*
X+1449361Y-6055411D02*
X+1708441Y-6055411D01*
X+1708441Y-5796331D01*
X+1449361Y-5796331D01*
X+1708441Y-5925871D02*
X+1535721Y-5925871D01*
X+1363001Y-6055411D02*
X+1363001Y-5796331D01*
X+1190281Y-5796331D01*
X+1103921Y-5882691D01*
X+1103921Y-5969051D01*
X+1190281Y-6055411D01*
X+1363001Y-6055411D01*
X+1017561Y-6012231D02*
X+974381Y-6055411D01*
X+801661Y-6055411D01*
X+758481Y-6012231D01*
X+758481Y-5969051D01*
X+801661Y-5925871D01*
X+974381Y-5925871D01*
X+1017561Y-5882691D01*
X+1017561Y-5839511D01*
X+974381Y-5796331D01*
X+801661Y-5796331D01*
X+758481Y-5839511D01*
X+326681Y-6055411D02*
X+326681Y-5882691D01*
X+240321Y-5796331D01*
X+153961Y-5796331D01*
X+67601Y-5882691D01*
X+67601Y-6055411D01*
X+326681Y-5969051D02*
X+67601Y-5969051D01*
X-18759Y-6055411D02*
X-18759Y-5796331D01*
X-234659Y-5796331D01*
X-277839Y-5839511D01*
X-277839Y-5882691D01*
X-234659Y-5925871D01*
X-18759Y-5925871D01*
X-234659Y-5925871D02*
X-277839Y-5969051D01*
X-277839Y-6055411D01*
X-364199Y-6055411D02*
X-364199Y-5796331D01*
X-536919Y-5796331D01*
X-623279Y-5882691D01*
X-623279Y-5969051D01*
X-536919Y-6055411D01*
X-364199Y-6055411D01*
X-709639Y-5796331D02*
X-709639Y-6012231D01*
X-752819Y-6055411D01*
X-925539Y-6055411D01*
X-968719Y-6012231D01*
X-968719Y-5796331D01*
X-1098259Y-5796331D02*
X-1270979Y-5796331D01*
X-1184619Y-5796331D02*
X-1184619Y-6055411D01*
X-1098259Y-6055411D02*
X-1270979Y-6055411D01*
X-1400519Y-6055411D02*
X-1400519Y-5796331D01*
X-1659599Y-6055411D01*
X-1659599Y-5796331D01*
X-1745959Y-5882691D02*
X-1832319Y-5796331D01*
X-1918679Y-5796331D01*
X-2005039Y-5882691D01*
X-2005039Y-5969051D01*
X-1918679Y-6055411D01*
X-1832319Y-6055411D01*
X-1745959Y-5969051D01*
X-1745959Y-5882691D01*
D18*
X-8709839Y-6407361D02*
X-8709839Y-5424381D01*
X-3111679Y-5424381D01*
X-3111679Y-6407361D01*
X-8709839Y-6407361D01*
X-8709839Y-5424381D01*
X-3111679Y-5424381D01*
X-3111679Y-6407361D01*
X-8709839Y-6407361D01*
D22*
X-8024039Y-5849831D02*
X-7991019Y-5816811D01*
X-7858939Y-5816811D01*
X-7825919Y-5849831D01*
X-7825919Y-5882851D01*
X-7858939Y-5915871D01*
X-7991019Y-5915871D01*
X-8024039Y-5948891D01*
X-8024039Y-5981911D01*
X-7991019Y-6014931D01*
X-7858939Y-6014931D01*
X-7825919Y-5981911D01*
X-7759879Y-6014931D02*
X-7759879Y-5816811D01*
X-7660819Y-5915871D01*
X-7561759Y-5816811D01*
X-7561759Y-6014931D01*
X-7462699Y-6014931D02*
X-7330619Y-6014931D01*
X-7396659Y-6014931D02*
X-7396659Y-5816811D01*
X-7462699Y-5816811D02*
X-7330619Y-5816811D01*
X-7231559Y-6014931D02*
X-7033439Y-6014931D01*
X-7132499Y-6014931D02*
X-7132499Y-5816811D01*
X-6769279Y-5849831D02*
X-6802299Y-5816811D01*
X-6901359Y-5816811D01*
X-6967399Y-5882851D01*
X-6967399Y-5948891D01*
X-6901359Y-6014931D01*
X-6802299Y-6014931D01*
X-6769279Y-5981911D01*
X-6703239Y-5816811D02*
X-6703239Y-6014931D01*
X-6505119Y-6014931D02*
X-6505119Y-5816811D01*
X-6703239Y-5915871D02*
X-6505119Y-5915871D01*
X-6240959Y-5816811D02*
X-6439079Y-5816811D01*
X-6439079Y-6014931D01*
X-6240959Y-6014931D01*
X-6439079Y-5915871D02*
X-6306999Y-5915871D01*
X-6174919Y-5849831D02*
X-6141899Y-5816811D01*
X-6009819Y-5816811D01*
X-5976799Y-5849831D01*
X-5976799Y-5882851D01*
X-6009819Y-5915871D01*
X-6141899Y-5915871D01*
X-6174919Y-5948891D01*
X-6174919Y-5981911D01*
X-6141899Y-6014931D01*
X-6009819Y-6014931D01*
X-5976799Y-5981911D01*
X-5646599Y-5816811D02*
X-5646599Y-5948891D01*
X-5580559Y-6014931D01*
X-5514519Y-6014931D01*
X-5448479Y-5948891D01*
X-5448479Y-5816811D01*
X-5646599Y-5882851D02*
X-5448479Y-5882851D01*
X-5382439Y-5816811D02*
X-5382439Y-6014931D01*
X-5217339Y-6014931D01*
X-5184319Y-5981911D01*
X-5184319Y-5948891D01*
X-5217339Y-5915871D01*
X-5382439Y-5915871D01*
X-5217339Y-5915871D02*
X-5184319Y-5882851D01*
X-5184319Y-5816811D01*
X-5118279Y-5816811D02*
X-5118279Y-6014931D01*
X-4986199Y-6014931D01*
X-4920159Y-5948891D01*
X-4920159Y-5882851D01*
X-4986199Y-5816811D01*
X-5118279Y-5816811D01*
X-4854119Y-6014931D02*
X-4854119Y-5849831D01*
X-4821099Y-5816811D01*
X-4689019Y-5816811D01*
X-4655999Y-5849831D01*
X-4655999Y-6014931D01*
X-4556939Y-6014931D02*
X-4424859Y-6014931D01*
X-4490899Y-6014931D02*
X-4490899Y-5816811D01*
X-4556939Y-5816811D02*
X-4424859Y-5816811D01*
X-4325799Y-5816811D02*
X-4325799Y-6014931D01*
X-4127679Y-5816811D01*
X-4127679Y-6014931D01*
X-4061639Y-5948891D02*
X-3995599Y-6014931D01*
X-3929559Y-6014931D01*
X-3863519Y-5948891D01*
X-3863519Y-5882851D01*
X-3929559Y-5816811D01*
X-3995599Y-5816811D01*
X-4061639Y-5882851D01*
X-4061639Y-5948891D01*
D14*
X-9154259Y-6501741D02*
X+9135741Y-6501741D01*
X+9135741Y+6498259D01*
X-9154259Y+6498259D01*
X-9154259Y-6501741D01*
M02*
