G04 PROTEUS GERBER X2 FILE*
%TF.GenerationSoftware,Labcenter,Proteus,8.6-SP2-Build23525*%
%TF.CreationDate,2019-12-11T18:48:13+00:00*%
%TF.FileFunction,Legend,Top*%
%TF.FilePolarity,Positive*%
%TF.Part,Single*%
%FSLAX45Y45*%
%MOMM*%
G01*
%TA.AperFunction,Material*%
%ADD15C,0.508000*%
%ADD16C,0.203200*%
%ADD17C,0.031750*%
%TA.AperFunction,Profile*%
%ADD14C,0.203200*%
%TA.AperFunction,Material*%
%ADD18C,0.152400*%
%TD.AperFunction*%
D15*
X+3516341Y-4933641D02*
X+3516210Y-4930483D01*
X+3515144Y-4924165D01*
X+3512913Y-4917847D01*
X+3509268Y-4911529D01*
X+3503693Y-4905290D01*
X+3497375Y-4900694D01*
X+3491057Y-4897761D01*
X+3484739Y-4896099D01*
X+3478421Y-4895541D01*
X+3478241Y-4895541D01*
X+3440141Y-4933641D02*
X+3440272Y-4930483D01*
X+3441338Y-4924165D01*
X+3443569Y-4917847D01*
X+3447214Y-4911529D01*
X+3452789Y-4905290D01*
X+3459107Y-4900694D01*
X+3465425Y-4897761D01*
X+3471743Y-4896099D01*
X+3478061Y-4895541D01*
X+3478241Y-4895541D01*
X+3440141Y-4933641D02*
X+3440272Y-4936799D01*
X+3441338Y-4943117D01*
X+3443569Y-4949435D01*
X+3447214Y-4955753D01*
X+3452789Y-4961992D01*
X+3459107Y-4966588D01*
X+3465425Y-4969521D01*
X+3471743Y-4971183D01*
X+3478061Y-4971741D01*
X+3478241Y-4971741D01*
X+3516341Y-4933641D02*
X+3516210Y-4936799D01*
X+3515144Y-4943117D01*
X+3512913Y-4949435D01*
X+3509268Y-4955753D01*
X+3503693Y-4961992D01*
X+3497375Y-4966588D01*
X+3491057Y-4969521D01*
X+3484739Y-4971183D01*
X+3478421Y-4971741D01*
X+3478241Y-4971741D01*
D16*
X+7240291Y-4681921D02*
X+7373641Y-4681921D01*
X+7373641Y-4803841D01*
X+7240291Y-4803841D01*
X+7373641Y-4742881D02*
X+7284741Y-4742881D01*
X+7195841Y-4681921D02*
X+7195841Y-4803841D01*
X+7062491Y-4681921D01*
X+7062491Y-4803841D01*
X+6884691Y-4702241D02*
X+6906916Y-4681921D01*
X+6973591Y-4681921D01*
X+7018041Y-4722561D01*
X+7018041Y-4763201D01*
X+6973591Y-4803841D01*
X+6906916Y-4803841D01*
X+6884691Y-4783521D01*
X+6840241Y-4763201D02*
X+6795791Y-4803841D01*
X+6751341Y-4803841D01*
X+6706891Y-4763201D01*
X+6706891Y-4722561D01*
X+6751341Y-4681921D01*
X+6795791Y-4681921D01*
X+6840241Y-4722561D01*
X+6840241Y-4763201D01*
X+6662441Y-4681921D02*
X+6662441Y-4803841D01*
X+6573541Y-4803841D01*
X+6529091Y-4763201D01*
X+6529091Y-4722561D01*
X+6573541Y-4681921D01*
X+6662441Y-4681921D01*
X+6351291Y-4681921D02*
X+6484641Y-4681921D01*
X+6484641Y-4803841D01*
X+6351291Y-4803841D01*
X+6484641Y-4742881D02*
X+6395741Y-4742881D01*
X+6306841Y-4681921D02*
X+6306841Y-4803841D01*
X+6195716Y-4803841D01*
X+6173491Y-4783521D01*
X+6173491Y-4763201D01*
X+6195716Y-4742881D01*
X+6306841Y-4742881D01*
X+6195716Y-4742881D02*
X+6173491Y-4722561D01*
X+6173491Y-4681921D01*
X+6129041Y-4702241D02*
X+6106816Y-4681921D01*
X+6017916Y-4681921D01*
X+5995691Y-4702241D01*
X+5995691Y-4722561D01*
X+6017916Y-4742881D01*
X+6106816Y-4742881D01*
X+6129041Y-4763201D01*
X+6129041Y-4783521D01*
X+6106816Y-4803841D01*
X+6017916Y-4803841D01*
X+5995691Y-4783521D01*
X+5773441Y-4681921D02*
X+5773441Y-4763201D01*
X+5728991Y-4803841D01*
X+5684541Y-4803841D01*
X+5640091Y-4763201D01*
X+5640091Y-4681921D01*
X+5773441Y-4722561D02*
X+5640091Y-4722561D01*
X+5595641Y-4681921D02*
X+5595641Y-4803841D01*
X+5484516Y-4803841D01*
X+5462291Y-4783521D01*
X+5462291Y-4763201D01*
X+5484516Y-4742881D01*
X+5595641Y-4742881D01*
X+5484516Y-4742881D02*
X+5462291Y-4722561D01*
X+5462291Y-4681921D01*
X+5417841Y-4681921D02*
X+5417841Y-4803841D01*
X+5328941Y-4803841D01*
X+5284491Y-4763201D01*
X+5284491Y-4722561D01*
X+5328941Y-4681921D01*
X+5417841Y-4681921D01*
X+5240041Y-4803841D02*
X+5240041Y-4702241D01*
X+5217816Y-4681921D01*
X+5128916Y-4681921D01*
X+5106691Y-4702241D01*
X+5106691Y-4803841D01*
X+5040016Y-4803841D02*
X+4951116Y-4803841D01*
X+4995566Y-4803841D02*
X+4995566Y-4681921D01*
X+5040016Y-4681921D02*
X+4951116Y-4681921D01*
X+4884441Y-4681921D02*
X+4884441Y-4803841D01*
X+4751091Y-4681921D01*
X+4751091Y-4803841D01*
X+4706641Y-4763201D02*
X+4662191Y-4803841D01*
X+4617741Y-4803841D01*
X+4573291Y-4763201D01*
X+4573291Y-4722561D01*
X+4617741Y-4681921D01*
X+4662191Y-4681921D01*
X+4706641Y-4722561D01*
X+4706641Y-4763201D01*
D15*
X-2393659Y-4936541D02*
X-2393790Y-4933383D01*
X-2394856Y-4927065D01*
X-2397087Y-4920747D01*
X-2400732Y-4914429D01*
X-2406307Y-4908190D01*
X-2412625Y-4903594D01*
X-2418943Y-4900661D01*
X-2425261Y-4898999D01*
X-2431579Y-4898441D01*
X-2431759Y-4898441D01*
X-2469859Y-4936541D02*
X-2469728Y-4933383D01*
X-2468662Y-4927065D01*
X-2466431Y-4920747D01*
X-2462786Y-4914429D01*
X-2457211Y-4908190D01*
X-2450893Y-4903594D01*
X-2444575Y-4900661D01*
X-2438257Y-4898999D01*
X-2431939Y-4898441D01*
X-2431759Y-4898441D01*
X-2469859Y-4936541D02*
X-2469728Y-4939699D01*
X-2468662Y-4946017D01*
X-2466431Y-4952335D01*
X-2462786Y-4958653D01*
X-2457211Y-4964892D01*
X-2450893Y-4969488D01*
X-2444575Y-4972421D01*
X-2438257Y-4974083D01*
X-2431939Y-4974641D01*
X-2431759Y-4974641D01*
X-2393659Y-4936541D02*
X-2393790Y-4939699D01*
X-2394856Y-4946017D01*
X-2397087Y-4952335D01*
X-2400732Y-4958653D01*
X-2406307Y-4964892D01*
X-2412625Y-4969488D01*
X-2418943Y-4972421D01*
X-2425261Y-4974083D01*
X-2431579Y-4974641D01*
X-2431759Y-4974641D01*
D16*
X+970041Y-4707741D02*
X+970041Y-4585821D01*
X+836691Y-4585821D01*
X+658891Y-4585821D02*
X+792241Y-4585821D01*
X+792241Y-4707741D01*
X+658891Y-4707741D01*
X+792241Y-4646781D02*
X+703341Y-4646781D01*
X+614441Y-4585821D02*
X+614441Y-4707741D01*
X+525541Y-4707741D01*
X+481091Y-4667101D01*
X+481091Y-4626461D01*
X+525541Y-4585821D01*
X+614441Y-4585821D01*
X+436641Y-4606141D02*
X+414416Y-4585821D01*
X+325516Y-4585821D01*
X+303291Y-4606141D01*
X+303291Y-4626461D01*
X+325516Y-4646781D01*
X+414416Y-4646781D01*
X+436641Y-4667101D01*
X+436641Y-4687421D01*
X+414416Y-4707741D01*
X+325516Y-4707741D01*
X+303291Y-4687421D01*
X+81041Y-4585821D02*
X+81041Y-4667101D01*
X+36591Y-4707741D01*
X-7859Y-4707741D01*
X-52309Y-4667101D01*
X-52309Y-4585821D01*
X+81041Y-4626461D02*
X-52309Y-4626461D01*
X-96759Y-4585821D02*
X-96759Y-4707741D01*
X-207884Y-4707741D01*
X-230109Y-4687421D01*
X-230109Y-4667101D01*
X-207884Y-4646781D01*
X-96759Y-4646781D01*
X-207884Y-4646781D02*
X-230109Y-4626461D01*
X-230109Y-4585821D01*
X-274559Y-4585821D02*
X-274559Y-4707741D01*
X-363459Y-4707741D01*
X-407909Y-4667101D01*
X-407909Y-4626461D01*
X-363459Y-4585821D01*
X-274559Y-4585821D01*
X-452359Y-4707741D02*
X-452359Y-4606141D01*
X-474584Y-4585821D01*
X-563484Y-4585821D01*
X-585709Y-4606141D01*
X-585709Y-4707741D01*
X-652384Y-4707741D02*
X-741284Y-4707741D01*
X-696834Y-4707741D02*
X-696834Y-4585821D01*
X-652384Y-4585821D02*
X-741284Y-4585821D01*
X-807959Y-4585821D02*
X-807959Y-4707741D01*
X-941309Y-4585821D01*
X-941309Y-4707741D01*
X-985759Y-4667101D02*
X-1030209Y-4707741D01*
X-1074659Y-4707741D01*
X-1119109Y-4667101D01*
X-1119109Y-4626461D01*
X-1074659Y-4585821D01*
X-1030209Y-4585821D01*
X-985759Y-4626461D01*
X-985759Y-4667101D01*
D15*
X-8285659Y-4926541D02*
X-8285790Y-4923383D01*
X-8286856Y-4917065D01*
X-8289087Y-4910747D01*
X-8292732Y-4904429D01*
X-8298307Y-4898190D01*
X-8304625Y-4893594D01*
X-8310943Y-4890661D01*
X-8317261Y-4888999D01*
X-8323579Y-4888441D01*
X-8323759Y-4888441D01*
X-8361859Y-4926541D02*
X-8361728Y-4923383D01*
X-8360662Y-4917065D01*
X-8358431Y-4910747D01*
X-8354786Y-4904429D01*
X-8349211Y-4898190D01*
X-8342893Y-4893594D01*
X-8336575Y-4890661D01*
X-8330257Y-4888999D01*
X-8323939Y-4888441D01*
X-8323759Y-4888441D01*
X-8361859Y-4926541D02*
X-8361728Y-4929699D01*
X-8360662Y-4936017D01*
X-8358431Y-4942335D01*
X-8354786Y-4948653D01*
X-8349211Y-4954892D01*
X-8342893Y-4959488D01*
X-8336575Y-4962421D01*
X-8330257Y-4964083D01*
X-8323939Y-4964641D01*
X-8323759Y-4964641D01*
X-8285659Y-4926541D02*
X-8285790Y-4929699D01*
X-8286856Y-4936017D01*
X-8289087Y-4942335D01*
X-8292732Y-4948653D01*
X-8298307Y-4954892D01*
X-8304625Y-4959488D01*
X-8310943Y-4962421D01*
X-8317261Y-4964083D01*
X-8323579Y-4964641D01*
X-8323759Y-4964641D01*
D16*
X-4706109Y-4635391D02*
X-4728334Y-4615071D01*
X-4817234Y-4615071D01*
X-4839459Y-4635391D01*
X-4839459Y-4655711D01*
X-4817234Y-4676031D01*
X-4728334Y-4676031D01*
X-4706109Y-4696351D01*
X-4706109Y-4716671D01*
X-4728334Y-4736991D01*
X-4817234Y-4736991D01*
X-4839459Y-4716671D01*
X-4883909Y-4736991D02*
X-4883909Y-4615071D01*
X-4950584Y-4676031D01*
X-5017259Y-4615071D01*
X-5017259Y-4736991D01*
X-5083934Y-4736991D02*
X-5172834Y-4736991D01*
X-5128384Y-4736991D02*
X-5128384Y-4615071D01*
X-5083934Y-4615071D02*
X-5172834Y-4615071D01*
X-5239509Y-4736991D02*
X-5372859Y-4736991D01*
X-5306184Y-4736991D02*
X-5306184Y-4615071D01*
X-5550659Y-4635391D02*
X-5528434Y-4615071D01*
X-5461759Y-4615071D01*
X-5417309Y-4655711D01*
X-5417309Y-4696351D01*
X-5461759Y-4736991D01*
X-5528434Y-4736991D01*
X-5550659Y-4716671D01*
X-5595109Y-4615071D02*
X-5595109Y-4736991D01*
X-5728459Y-4736991D02*
X-5728459Y-4615071D01*
X-5595109Y-4676031D02*
X-5728459Y-4676031D01*
X-5906259Y-4615071D02*
X-5772909Y-4615071D01*
X-5772909Y-4736991D01*
X-5906259Y-4736991D01*
X-5772909Y-4676031D02*
X-5861809Y-4676031D01*
X-5950709Y-4635391D02*
X-5972934Y-4615071D01*
X-6061834Y-4615071D01*
X-6084059Y-4635391D01*
X-6084059Y-4655711D01*
X-6061834Y-4676031D01*
X-5972934Y-4676031D01*
X-5950709Y-4696351D01*
X-5950709Y-4716671D01*
X-5972934Y-4736991D01*
X-6061834Y-4736991D01*
X-6084059Y-4716671D01*
X-6306309Y-4615071D02*
X-6306309Y-4696351D01*
X-6350759Y-4736991D01*
X-6395209Y-4736991D01*
X-6439659Y-4696351D01*
X-6439659Y-4615071D01*
X-6306309Y-4655711D02*
X-6439659Y-4655711D01*
X-6484109Y-4615071D02*
X-6484109Y-4736991D01*
X-6595234Y-4736991D01*
X-6617459Y-4716671D01*
X-6617459Y-4696351D01*
X-6595234Y-4676031D01*
X-6484109Y-4676031D01*
X-6595234Y-4676031D02*
X-6617459Y-4655711D01*
X-6617459Y-4615071D01*
X-6661909Y-4615071D02*
X-6661909Y-4736991D01*
X-6750809Y-4736991D01*
X-6795259Y-4696351D01*
X-6795259Y-4655711D01*
X-6750809Y-4615071D01*
X-6661909Y-4615071D01*
X-6839709Y-4736991D02*
X-6839709Y-4635391D01*
X-6861934Y-4615071D01*
X-6950834Y-4615071D01*
X-6973059Y-4635391D01*
X-6973059Y-4736991D01*
X-7039734Y-4736991D02*
X-7128634Y-4736991D01*
X-7084184Y-4736991D02*
X-7084184Y-4615071D01*
X-7039734Y-4615071D02*
X-7128634Y-4615071D01*
X-7195309Y-4615071D02*
X-7195309Y-4736991D01*
X-7328659Y-4615071D01*
X-7328659Y-4736991D01*
X-7373109Y-4696351D02*
X-7417559Y-4736991D01*
X-7462009Y-4736991D01*
X-7506459Y-4696351D01*
X-7506459Y-4655711D01*
X-7462009Y-4615071D01*
X-7417559Y-4615071D01*
X-7373109Y-4655711D01*
X-7373109Y-4696351D01*
X+2918241Y-3577041D02*
X+2918241Y+6328959D01*
X+8252241Y-3284941D02*
X+8252241Y+6328959D01*
X+2918241Y-3577041D02*
X+3172241Y-3577041D01*
X+3426241Y-3831041D02*
X+3172241Y-3577041D01*
X+3426241Y-3831041D02*
X+6728241Y-3831041D01*
X+6982241Y-3577041D01*
X+7998241Y-3577041D01*
X+2918241Y+6328959D02*
X+8252241Y+6328959D01*
X+8252241Y-3284941D02*
X+7998241Y-3577041D01*
X+7871241Y-148041D02*
X+8125241Y-148041D01*
X+8125241Y+1883959D01*
X+7871241Y+1883959D01*
X+7871241Y-148041D01*
X+7871241Y-2446741D02*
X+8125241Y-2446741D01*
X+8125241Y-414741D01*
X+7871241Y-414741D01*
X+7871241Y-2446741D01*
X+3807241Y-3411941D02*
X+8125241Y-3411941D01*
X+8125241Y-2903941D01*
X+3807241Y-2903941D01*
X+3807241Y-3411941D01*
X+3553241Y-3411941D02*
X+3807241Y-3411941D01*
X+3807241Y-2903941D01*
X+3553241Y-2903941D01*
X+3553241Y-3411941D01*
X+3045241Y-2954741D02*
X+3299241Y-2954741D01*
X+3299241Y-922741D01*
X+3045241Y-922741D01*
X+3045241Y-2954741D01*
X+3045241Y-656041D02*
X+3299241Y-656041D01*
X+3299241Y+1375959D01*
X+3045241Y+1375959D01*
X+3045241Y-656041D01*
X+7871241Y+2010959D02*
X+8125241Y+2010959D01*
X+8125241Y+4550959D01*
X+7871241Y+4550959D01*
X+7871241Y+2010959D01*
X+3045241Y+1617259D02*
X+3299241Y+1617259D01*
X+3299241Y+3649259D01*
X+3045241Y+3649259D01*
X+3045241Y+1617259D01*
X+3350041Y-102321D02*
X+3350041Y-10881D01*
X+3394491Y+34839D01*
X+3438941Y+34839D01*
X+3483391Y-10881D01*
X+3483391Y-102321D01*
X+3350041Y-56601D02*
X+3483391Y-56601D01*
X+3661191Y+34839D02*
X+3550066Y+34839D01*
X+3550066Y-10881D01*
X+3638966Y-10881D01*
X+3661191Y-33741D01*
X+3661191Y-79461D01*
X+3638966Y-102321D01*
X+3572291Y-102321D01*
X+3550066Y-79461D01*
X+3350041Y+151679D02*
X+3350041Y+243119D01*
X+3394491Y+288839D01*
X+3438941Y+288839D01*
X+3483391Y+243119D01*
X+3483391Y+151679D01*
X+3350041Y+197399D02*
X+3483391Y+197399D01*
X+3661191Y+197399D02*
X+3527841Y+197399D01*
X+3616741Y+288839D01*
X+3616741Y+151679D01*
X+3337341Y+392979D02*
X+3337341Y+484419D01*
X+3381791Y+530139D01*
X+3426241Y+530139D01*
X+3470691Y+484419D01*
X+3470691Y+392979D01*
X+3337341Y+438699D02*
X+3470691Y+438699D01*
X+3537366Y+507279D02*
X+3559591Y+530139D01*
X+3626266Y+530139D01*
X+3648491Y+507279D01*
X+3648491Y+484419D01*
X+3626266Y+461559D01*
X+3648491Y+438699D01*
X+3648491Y+415839D01*
X+3626266Y+392979D01*
X+3559591Y+392979D01*
X+3537366Y+415839D01*
X+3581816Y+461559D02*
X+3626266Y+461559D01*
X+3337341Y+646979D02*
X+3337341Y+738419D01*
X+3381791Y+784139D01*
X+3426241Y+784139D01*
X+3470691Y+738419D01*
X+3470691Y+646979D01*
X+3337341Y+692699D02*
X+3470691Y+692699D01*
X+3537366Y+761279D02*
X+3559591Y+784139D01*
X+3626266Y+784139D01*
X+3648491Y+761279D01*
X+3648491Y+738419D01*
X+3626266Y+715559D01*
X+3559591Y+715559D01*
X+3537366Y+692699D01*
X+3537366Y+646979D01*
X+3648491Y+646979D01*
X+3337341Y+926379D02*
X+3337341Y+1017819D01*
X+3381791Y+1063539D01*
X+3426241Y+1063539D01*
X+3470691Y+1017819D01*
X+3470691Y+926379D01*
X+3337341Y+972099D02*
X+3470691Y+972099D01*
X+3559591Y+1017819D02*
X+3604041Y+1063539D01*
X+3604041Y+926379D01*
X+3337341Y+1180379D02*
X+3337341Y+1271819D01*
X+3381791Y+1317539D01*
X+3426241Y+1317539D01*
X+3470691Y+1271819D01*
X+3470691Y+1180379D01*
X+3337341Y+1226099D02*
X+3470691Y+1226099D01*
X+3515141Y+1203239D02*
X+3515141Y+1294679D01*
X+3537366Y+1317539D01*
X+3626266Y+1317539D01*
X+3648491Y+1294679D01*
X+3648491Y+1203239D01*
X+3626266Y+1180379D01*
X+3537366Y+1180379D01*
X+3515141Y+1203239D01*
X+3515141Y+1180379D02*
X+3648491Y+1317539D01*
X+3337341Y+1812839D02*
X+3337341Y+1744259D01*
X+3404016Y+1675679D01*
X+3470691Y+1744259D01*
X+3470691Y+1812839D01*
X+3581816Y+1767119D02*
X+3581816Y+1675679D01*
X+3581816Y+1812839D02*
X+3581816Y+1812839D01*
X+3692941Y+1675679D02*
X+3692941Y+1767119D01*
X+3692941Y+1744259D02*
X+3715166Y+1767119D01*
X+3804066Y+1767119D01*
X+3826291Y+1744259D01*
X+3826291Y+1675679D01*
X+3426241Y+1975399D02*
X+3470691Y+1975399D01*
X+3470691Y+1929679D01*
X+3381791Y+1929679D01*
X+3337341Y+1975399D01*
X+3337341Y+2021119D01*
X+3381791Y+2066839D01*
X+3448466Y+2066839D01*
X+3470691Y+2043979D01*
X+3515141Y+1929679D02*
X+3515141Y+2066839D01*
X+3648491Y+1929679D01*
X+3648491Y+2066839D01*
X+3692941Y+1929679D02*
X+3692941Y+2066839D01*
X+3781841Y+2066839D01*
X+3826291Y+2021119D01*
X+3826291Y+1975399D01*
X+3781841Y+1929679D01*
X+3692941Y+1929679D01*
X+3426241Y+2229399D02*
X+3470691Y+2229399D01*
X+3470691Y+2183679D01*
X+3381791Y+2183679D01*
X+3337341Y+2229399D01*
X+3337341Y+2275119D01*
X+3381791Y+2320839D01*
X+3448466Y+2320839D01*
X+3470691Y+2297979D01*
X+3515141Y+2183679D02*
X+3515141Y+2320839D01*
X+3648491Y+2183679D01*
X+3648491Y+2320839D01*
X+3692941Y+2183679D02*
X+3692941Y+2320839D01*
X+3781841Y+2320839D01*
X+3826291Y+2275119D01*
X+3826291Y+2229399D01*
X+3781841Y+2183679D01*
X+3692941Y+2183679D01*
X+3470691Y+2587539D02*
X+3359566Y+2587539D01*
X+3359566Y+2541819D01*
X+3448466Y+2541819D01*
X+3470691Y+2518959D01*
X+3470691Y+2473239D01*
X+3448466Y+2450379D01*
X+3381791Y+2450379D01*
X+3359566Y+2473239D01*
X+3515141Y+2587539D02*
X+3515141Y+2518959D01*
X+3581816Y+2450379D01*
X+3648491Y+2518959D01*
X+3648491Y+2587539D01*
X+3359566Y+2818679D02*
X+3381791Y+2841539D01*
X+3448466Y+2841539D01*
X+3470691Y+2818679D01*
X+3470691Y+2795819D01*
X+3448466Y+2772959D01*
X+3470691Y+2750099D01*
X+3470691Y+2727239D01*
X+3448466Y+2704379D01*
X+3381791Y+2704379D01*
X+3359566Y+2727239D01*
X+3404016Y+2772959D02*
X+3448466Y+2772959D01*
X+3581816Y+2727239D02*
X+3604041Y+2727239D01*
X+3604041Y+2704379D01*
X+3581816Y+2704379D01*
X+3581816Y+2727239D01*
X+3715166Y+2818679D02*
X+3737391Y+2841539D01*
X+3804066Y+2841539D01*
X+3826291Y+2818679D01*
X+3826291Y+2795819D01*
X+3804066Y+2772959D01*
X+3826291Y+2750099D01*
X+3826291Y+2727239D01*
X+3804066Y+2704379D01*
X+3737391Y+2704379D01*
X+3715166Y+2727239D01*
X+3759616Y+2772959D02*
X+3804066Y+2772959D01*
X+3870741Y+2841539D02*
X+3870741Y+2772959D01*
X+3937416Y+2704379D01*
X+4004091Y+2772959D01*
X+4004091Y+2841539D01*
X+3483391Y+2932979D02*
X+3350041Y+2932979D01*
X+3350041Y+3070139D01*
X+3483391Y+3070139D01*
X+3350041Y+3001559D02*
X+3438941Y+3001559D01*
X+3527841Y+2932979D02*
X+3527841Y+3070139D01*
X+3638966Y+3070139D01*
X+3661191Y+3047279D01*
X+3661191Y+3024419D01*
X+3638966Y+3001559D01*
X+3527841Y+3001559D01*
X+3638966Y+3001559D02*
X+3661191Y+2978699D01*
X+3661191Y+2932979D01*
X+3705641Y+2955839D02*
X+3727866Y+2932979D01*
X+3816766Y+2932979D01*
X+3838991Y+2955839D01*
X+3838991Y+2978699D01*
X+3816766Y+3001559D01*
X+3727866Y+3001559D01*
X+3705641Y+3024419D01*
X+3705641Y+3047279D01*
X+3727866Y+3070139D01*
X+3816766Y+3070139D01*
X+3838991Y+3047279D01*
X+4016791Y+2932979D02*
X+3883441Y+2932979D01*
X+3883441Y+3070139D01*
X+4016791Y+3070139D01*
X+3883441Y+3001559D02*
X+3972341Y+3001559D01*
X+4061241Y+3070139D02*
X+4194591Y+3070139D01*
X+4127916Y+3070139D02*
X+4127916Y+2932979D01*
X+3372266Y+3336839D02*
X+3461166Y+3336839D01*
X+3416716Y+3336839D02*
X+3416716Y+3199679D01*
X+3372266Y+3199679D02*
X+3461166Y+3199679D01*
X+3527841Y+3291119D02*
X+3572291Y+3336839D01*
X+3616741Y+3336839D01*
X+3661191Y+3291119D01*
X+3661191Y+3245399D01*
X+3616741Y+3199679D01*
X+3572291Y+3199679D01*
X+3527841Y+3245399D01*
X+3527841Y+3291119D01*
X+3705641Y+3199679D02*
X+3705641Y+3336839D01*
X+3816766Y+3336839D01*
X+3838991Y+3313979D01*
X+3838991Y+3291119D01*
X+3816766Y+3268259D01*
X+3705641Y+3268259D01*
X+3816766Y+3268259D02*
X+3838991Y+3245399D01*
X+3838991Y+3199679D01*
X+4016791Y+3199679D02*
X+3883441Y+3199679D01*
X+3883441Y+3336839D01*
X+4016791Y+3336839D01*
X+3883441Y+3268259D02*
X+3972341Y+3268259D01*
X+4061241Y+3199679D02*
X+4061241Y+3336839D01*
X+4194591Y+3336839D01*
X+4061241Y+3268259D02*
X+4150141Y+3268259D01*
X+3350041Y-635721D02*
X+3350041Y-544281D01*
X+3394491Y-498561D01*
X+3438941Y-498561D01*
X+3483391Y-544281D01*
X+3483391Y-635721D01*
X+3350041Y-590001D02*
X+3483391Y-590001D01*
X+3550066Y-498561D02*
X+3661191Y-498561D01*
X+3661191Y-521421D01*
X+3550066Y-635721D01*
X+3350041Y-2362921D02*
X+3350041Y-2271481D01*
X+3394491Y-2225761D01*
X+3438941Y-2225761D01*
X+3483391Y-2271481D01*
X+3483391Y-2362921D01*
X+3350041Y-2317201D02*
X+3483391Y-2317201D01*
X+3572291Y-2271481D02*
X+3616741Y-2225761D01*
X+3616741Y-2362921D01*
X+3727866Y-2248621D02*
X+3750091Y-2225761D01*
X+3816766Y-2225761D01*
X+3838991Y-2248621D01*
X+3838991Y-2271481D01*
X+3816766Y-2294341D01*
X+3838991Y-2317201D01*
X+3838991Y-2340061D01*
X+3816766Y-2362921D01*
X+3750091Y-2362921D01*
X+3727866Y-2340061D01*
X+3772316Y-2294341D02*
X+3816766Y-2294341D01*
X+3350041Y-2108921D02*
X+3350041Y-2017481D01*
X+3394491Y-1971761D01*
X+3438941Y-1971761D01*
X+3483391Y-2017481D01*
X+3483391Y-2108921D01*
X+3350041Y-2063201D02*
X+3483391Y-2063201D01*
X+3572291Y-2017481D02*
X+3616741Y-1971761D01*
X+3616741Y-2108921D01*
X+3727866Y-1994621D02*
X+3750091Y-1971761D01*
X+3816766Y-1971761D01*
X+3838991Y-1994621D01*
X+3838991Y-2017481D01*
X+3816766Y-2040341D01*
X+3750091Y-2040341D01*
X+3727866Y-2063201D01*
X+3727866Y-2108921D01*
X+3838991Y-2108921D01*
X+3337341Y-1867621D02*
X+3337341Y-1776181D01*
X+3381791Y-1730461D01*
X+3426241Y-1730461D01*
X+3470691Y-1776181D01*
X+3470691Y-1867621D01*
X+3337341Y-1821901D02*
X+3470691Y-1821901D01*
X+3559591Y-1776181D02*
X+3604041Y-1730461D01*
X+3604041Y-1867621D01*
X+3737391Y-1776181D02*
X+3781841Y-1730461D01*
X+3781841Y-1867621D01*
X+3337341Y-1613621D02*
X+3337341Y-1522181D01*
X+3381791Y-1476461D01*
X+3426241Y-1476461D01*
X+3470691Y-1522181D01*
X+3470691Y-1613621D01*
X+3337341Y-1567901D02*
X+3470691Y-1567901D01*
X+3559591Y-1522181D02*
X+3604041Y-1476461D01*
X+3604041Y-1613621D01*
X+3692941Y-1590761D02*
X+3692941Y-1499321D01*
X+3715166Y-1476461D01*
X+3804066Y-1476461D01*
X+3826291Y-1499321D01*
X+3826291Y-1590761D01*
X+3804066Y-1613621D01*
X+3715166Y-1613621D01*
X+3692941Y-1590761D01*
X+3692941Y-1613621D02*
X+3826291Y-1476461D01*
X+3337341Y-1334221D02*
X+3337341Y-1242781D01*
X+3381791Y-1197061D01*
X+3426241Y-1197061D01*
X+3470691Y-1242781D01*
X+3470691Y-1334221D01*
X+3337341Y-1288501D02*
X+3470691Y-1288501D01*
X+3648491Y-1242781D02*
X+3626266Y-1265641D01*
X+3559591Y-1265641D01*
X+3537366Y-1242781D01*
X+3537366Y-1219921D01*
X+3559591Y-1197061D01*
X+3626266Y-1197061D01*
X+3648491Y-1219921D01*
X+3648491Y-1311361D01*
X+3626266Y-1334221D01*
X+3559591Y-1334221D01*
X+3337341Y-1080221D02*
X+3337341Y-988781D01*
X+3381791Y-943061D01*
X+3426241Y-943061D01*
X+3470691Y-988781D01*
X+3470691Y-1080221D01*
X+3337341Y-1034501D02*
X+3470691Y-1034501D01*
X+3559591Y-1011641D02*
X+3537366Y-988781D01*
X+3537366Y-965921D01*
X+3559591Y-943061D01*
X+3626266Y-943061D01*
X+3648491Y-965921D01*
X+3648491Y-988781D01*
X+3626266Y-1011641D01*
X+3559591Y-1011641D01*
X+3537366Y-1034501D01*
X+3537366Y-1057361D01*
X+3559591Y-1080221D01*
X+3626266Y-1080221D01*
X+3648491Y-1057361D01*
X+3648491Y-1034501D01*
X+3626266Y-1011641D01*
X+3350041Y-2876001D02*
X+3350041Y-2794721D01*
X+3394491Y-2754081D01*
X+3438941Y-2754081D01*
X+3483391Y-2794721D01*
X+3483391Y-2876001D01*
X+3350041Y-2835361D02*
X+3483391Y-2835361D01*
X+3572291Y-2794721D02*
X+3616741Y-2754081D01*
X+3616741Y-2876001D01*
X+3838991Y-2754081D02*
X+3727866Y-2754081D01*
X+3727866Y-2794721D01*
X+3816766Y-2794721D01*
X+3838991Y-2815041D01*
X+3838991Y-2855681D01*
X+3816766Y-2876001D01*
X+3750091Y-2876001D01*
X+3727866Y-2855681D01*
X+3350041Y-2629621D02*
X+3350041Y-2538181D01*
X+3394491Y-2492461D01*
X+3438941Y-2492461D01*
X+3483391Y-2538181D01*
X+3483391Y-2629621D01*
X+3350041Y-2583901D02*
X+3483391Y-2583901D01*
X+3572291Y-2538181D02*
X+3616741Y-2492461D01*
X+3616741Y-2629621D01*
X+3838991Y-2583901D02*
X+3705641Y-2583901D01*
X+3794541Y-2492461D01*
X+3794541Y-2629621D01*
X+3416081Y-3094441D02*
X+3416081Y-3113491D01*
X+3395761Y-3113491D01*
X+3395761Y-3075391D01*
X+3416081Y-3056341D01*
X+3436401Y-3056341D01*
X+3456721Y-3075391D01*
X+3456721Y-3103966D01*
X+3446561Y-3113491D01*
X+3395761Y-3132541D02*
X+3456721Y-3132541D01*
X+3395761Y-3189691D01*
X+3456721Y-3189691D01*
X+3395761Y-3208741D02*
X+3456721Y-3208741D01*
X+3456721Y-3246841D01*
X+3436401Y-3265891D01*
X+3416081Y-3265891D01*
X+3395761Y-3246841D01*
X+3395761Y-3208741D01*
X+4002821Y-2707091D02*
X+4002821Y-2595966D01*
X+3957101Y-2595966D01*
X+3957101Y-2684866D01*
X+3934241Y-2707091D01*
X+3888521Y-2707091D01*
X+3865661Y-2684866D01*
X+3865661Y-2618191D01*
X+3888521Y-2595966D01*
X+3979961Y-2773766D02*
X+4002821Y-2795991D01*
X+4002821Y-2862666D01*
X+3979961Y-2884891D01*
X+3957101Y-2884891D01*
X+3934241Y-2862666D01*
X+3934241Y-2795991D01*
X+3911381Y-2773766D01*
X+3865661Y-2773766D01*
X+3865661Y-2884891D01*
X+4256821Y-2707091D02*
X+4256821Y-2595966D01*
X+4211101Y-2595966D01*
X+4211101Y-2684866D01*
X+4188241Y-2707091D01*
X+4142521Y-2707091D01*
X+4119661Y-2684866D01*
X+4119661Y-2618191D01*
X+4142521Y-2595966D01*
X+4142521Y-2751541D02*
X+4233961Y-2751541D01*
X+4256821Y-2773766D01*
X+4256821Y-2862666D01*
X+4233961Y-2884891D01*
X+4142521Y-2884891D01*
X+4119661Y-2862666D01*
X+4119661Y-2773766D01*
X+4142521Y-2751541D01*
X+4119661Y-2751541D02*
X+4256821Y-2884891D01*
X+4406681Y-2694391D02*
X+4406681Y-2561041D01*
X+4498121Y-2649941D01*
X+4360961Y-2649941D01*
X+4429541Y-2783291D02*
X+4452401Y-2761066D01*
X+4475261Y-2761066D01*
X+4498121Y-2783291D01*
X+4498121Y-2849966D01*
X+4475261Y-2872191D01*
X+4452401Y-2872191D01*
X+4429541Y-2849966D01*
X+4429541Y-2783291D01*
X+4406681Y-2761066D01*
X+4383821Y-2761066D01*
X+4360961Y-2783291D01*
X+4360961Y-2849966D01*
X+4383821Y-2872191D01*
X+4406681Y-2872191D01*
X+4429541Y-2849966D01*
X+4660681Y-2694391D02*
X+4660681Y-2561041D01*
X+4752121Y-2649941D01*
X+4614961Y-2649941D01*
X+4729261Y-2872191D02*
X+4752121Y-2849966D01*
X+4752121Y-2783291D01*
X+4729261Y-2761066D01*
X+4637821Y-2761066D01*
X+4614961Y-2783291D01*
X+4614961Y-2849966D01*
X+4637821Y-2872191D01*
X+4660681Y-2872191D01*
X+4683541Y-2849966D01*
X+4683541Y-2761066D01*
X+4914681Y-2694391D02*
X+4914681Y-2561041D01*
X+5006121Y-2649941D01*
X+4868961Y-2649941D01*
X+4914681Y-2872191D02*
X+4914681Y-2738841D01*
X+5006121Y-2827741D01*
X+4868961Y-2827741D01*
X+5168681Y-2694391D02*
X+5168681Y-2561041D01*
X+5260121Y-2649941D01*
X+5122961Y-2649941D01*
X+5237261Y-2761066D02*
X+5260121Y-2783291D01*
X+5260121Y-2849966D01*
X+5237261Y-2872191D01*
X+5214401Y-2872191D01*
X+5191541Y-2849966D01*
X+5191541Y-2783291D01*
X+5168681Y-2761066D01*
X+5122961Y-2761066D01*
X+5122961Y-2872191D01*
X+5409981Y-2681691D02*
X+5409981Y-2548341D01*
X+5501421Y-2637241D01*
X+5364261Y-2637241D01*
X+5387121Y-2726141D02*
X+5478561Y-2726141D01*
X+5501421Y-2748366D01*
X+5501421Y-2837266D01*
X+5478561Y-2859491D01*
X+5387121Y-2859491D01*
X+5364261Y-2837266D01*
X+5364261Y-2748366D01*
X+5387121Y-2726141D01*
X+5364261Y-2726141D02*
X+5501421Y-2859491D01*
X+5732561Y-2570566D02*
X+5755421Y-2592791D01*
X+5755421Y-2659466D01*
X+5732561Y-2681691D01*
X+5709701Y-2681691D01*
X+5686841Y-2659466D01*
X+5663981Y-2681691D01*
X+5641121Y-2681691D01*
X+5618261Y-2659466D01*
X+5618261Y-2592791D01*
X+5641121Y-2570566D01*
X+5686841Y-2615016D02*
X+5686841Y-2659466D01*
X+5686841Y-2770591D02*
X+5709701Y-2748366D01*
X+5732561Y-2748366D01*
X+5755421Y-2770591D01*
X+5755421Y-2837266D01*
X+5732561Y-2859491D01*
X+5709701Y-2859491D01*
X+5686841Y-2837266D01*
X+5686841Y-2770591D01*
X+5663981Y-2748366D01*
X+5641121Y-2748366D01*
X+5618261Y-2770591D01*
X+5618261Y-2837266D01*
X+5641121Y-2859491D01*
X+5663981Y-2859491D01*
X+5686841Y-2837266D01*
X+6024661Y-2570566D02*
X+6047521Y-2592791D01*
X+6047521Y-2659466D01*
X+6024661Y-2681691D01*
X+6001801Y-2681691D01*
X+5978941Y-2659466D01*
X+5956081Y-2681691D01*
X+5933221Y-2681691D01*
X+5910361Y-2659466D01*
X+5910361Y-2592791D01*
X+5933221Y-2570566D01*
X+5978941Y-2615016D02*
X+5978941Y-2659466D01*
X+6024661Y-2859491D02*
X+6047521Y-2837266D01*
X+6047521Y-2770591D01*
X+6024661Y-2748366D01*
X+5933221Y-2748366D01*
X+5910361Y-2770591D01*
X+5910361Y-2837266D01*
X+5933221Y-2859491D01*
X+5956081Y-2859491D01*
X+5978941Y-2837266D01*
X+5978941Y-2748366D01*
X+6265961Y-2557866D02*
X+6288821Y-2580091D01*
X+6288821Y-2646766D01*
X+6265961Y-2668991D01*
X+6243101Y-2668991D01*
X+6220241Y-2646766D01*
X+6197381Y-2668991D01*
X+6174521Y-2668991D01*
X+6151661Y-2646766D01*
X+6151661Y-2580091D01*
X+6174521Y-2557866D01*
X+6220241Y-2602316D02*
X+6220241Y-2646766D01*
X+6197381Y-2846791D02*
X+6197381Y-2713441D01*
X+6288821Y-2802341D01*
X+6151661Y-2802341D01*
X+6519961Y-2557866D02*
X+6542821Y-2580091D01*
X+6542821Y-2646766D01*
X+6519961Y-2668991D01*
X+6497101Y-2668991D01*
X+6474241Y-2646766D01*
X+6451381Y-2668991D01*
X+6428521Y-2668991D01*
X+6405661Y-2646766D01*
X+6405661Y-2580091D01*
X+6428521Y-2557866D01*
X+6474241Y-2602316D02*
X+6474241Y-2646766D01*
X+6519961Y-2735666D02*
X+6542821Y-2757891D01*
X+6542821Y-2824566D01*
X+6519961Y-2846791D01*
X+6497101Y-2846791D01*
X+6474241Y-2824566D01*
X+6474241Y-2757891D01*
X+6451381Y-2735666D01*
X+6405661Y-2735666D01*
X+6405661Y-2846791D01*
X+6773961Y-2557866D02*
X+6796821Y-2580091D01*
X+6796821Y-2646766D01*
X+6773961Y-2668991D01*
X+6751101Y-2668991D01*
X+6728241Y-2646766D01*
X+6705381Y-2668991D01*
X+6682521Y-2668991D01*
X+6659661Y-2646766D01*
X+6659661Y-2580091D01*
X+6682521Y-2557866D01*
X+6728241Y-2602316D02*
X+6728241Y-2646766D01*
X+6682521Y-2713441D02*
X+6773961Y-2713441D01*
X+6796821Y-2735666D01*
X+6796821Y-2824566D01*
X+6773961Y-2846791D01*
X+6682521Y-2846791D01*
X+6659661Y-2824566D01*
X+6659661Y-2735666D01*
X+6682521Y-2713441D01*
X+6659661Y-2713441D02*
X+6796821Y-2846791D01*
X+7027961Y-2557866D02*
X+7050821Y-2580091D01*
X+7050821Y-2646766D01*
X+7027961Y-2668991D01*
X+7005101Y-2668991D01*
X+6982241Y-2646766D01*
X+6982241Y-2580091D01*
X+6959381Y-2557866D01*
X+6913661Y-2557866D01*
X+6913661Y-2668991D01*
X+6982241Y-2757891D02*
X+7005101Y-2735666D01*
X+7027961Y-2735666D01*
X+7050821Y-2757891D01*
X+7050821Y-2824566D01*
X+7027961Y-2846791D01*
X+7005101Y-2846791D01*
X+6982241Y-2824566D01*
X+6982241Y-2757891D01*
X+6959381Y-2735666D01*
X+6936521Y-2735666D01*
X+6913661Y-2757891D01*
X+6913661Y-2824566D01*
X+6936521Y-2846791D01*
X+6959381Y-2846791D01*
X+6982241Y-2824566D01*
X+7269261Y-2545166D02*
X+7292121Y-2567391D01*
X+7292121Y-2634066D01*
X+7269261Y-2656291D01*
X+7246401Y-2656291D01*
X+7223541Y-2634066D01*
X+7223541Y-2567391D01*
X+7200681Y-2545166D01*
X+7154961Y-2545166D01*
X+7154961Y-2656291D01*
X+7269261Y-2834091D02*
X+7292121Y-2811866D01*
X+7292121Y-2745191D01*
X+7269261Y-2722966D01*
X+7177821Y-2722966D01*
X+7154961Y-2745191D01*
X+7154961Y-2811866D01*
X+7177821Y-2834091D01*
X+7200681Y-2834091D01*
X+7223541Y-2811866D01*
X+7223541Y-2722966D01*
X+7523261Y-2545166D02*
X+7546121Y-2567391D01*
X+7546121Y-2634066D01*
X+7523261Y-2656291D01*
X+7500401Y-2656291D01*
X+7477541Y-2634066D01*
X+7477541Y-2567391D01*
X+7454681Y-2545166D01*
X+7408961Y-2545166D01*
X+7408961Y-2656291D01*
X+7454681Y-2834091D02*
X+7454681Y-2700741D01*
X+7546121Y-2789641D01*
X+7408961Y-2789641D01*
X+7764561Y-2545166D02*
X+7787421Y-2567391D01*
X+7787421Y-2634066D01*
X+7764561Y-2656291D01*
X+7741701Y-2656291D01*
X+7718841Y-2634066D01*
X+7718841Y-2567391D01*
X+7695981Y-2545166D01*
X+7650261Y-2545166D01*
X+7650261Y-2656291D01*
X+7764561Y-2722966D02*
X+7787421Y-2745191D01*
X+7787421Y-2811866D01*
X+7764561Y-2834091D01*
X+7741701Y-2834091D01*
X+7718841Y-2811866D01*
X+7718841Y-2745191D01*
X+7695981Y-2722966D01*
X+7650261Y-2722966D01*
X+7650261Y-2834091D01*
X+4015521Y-3570691D02*
X+4015521Y-3459566D01*
X+3969801Y-3459566D01*
X+3969801Y-3548466D01*
X+3946941Y-3570691D01*
X+3901221Y-3570691D01*
X+3878361Y-3548466D01*
X+3878361Y-3481791D01*
X+3901221Y-3459566D01*
X+3992661Y-3637366D02*
X+4015521Y-3659591D01*
X+4015521Y-3726266D01*
X+3992661Y-3748491D01*
X+3969801Y-3748491D01*
X+3946941Y-3726266D01*
X+3924081Y-3748491D01*
X+3901221Y-3748491D01*
X+3878361Y-3726266D01*
X+3878361Y-3659591D01*
X+3901221Y-3637366D01*
X+3946941Y-3681816D02*
X+3946941Y-3726266D01*
X+4269521Y-3570691D02*
X+4269521Y-3459566D01*
X+4223801Y-3459566D01*
X+4223801Y-3548466D01*
X+4200941Y-3570691D01*
X+4155221Y-3570691D01*
X+4132361Y-3548466D01*
X+4132361Y-3481791D01*
X+4155221Y-3459566D01*
X+4223801Y-3659591D02*
X+4269521Y-3704041D01*
X+4132361Y-3704041D01*
X+4444781Y-3583391D02*
X+4444781Y-3450041D01*
X+4536221Y-3538941D01*
X+4399061Y-3538941D01*
X+4490501Y-3761191D02*
X+4467641Y-3738966D01*
X+4467641Y-3672291D01*
X+4490501Y-3650066D01*
X+4513361Y-3650066D01*
X+4536221Y-3672291D01*
X+4536221Y-3738966D01*
X+4513361Y-3761191D01*
X+4421921Y-3761191D01*
X+4399061Y-3738966D01*
X+4399061Y-3672291D01*
X+4698781Y-3583391D02*
X+4698781Y-3450041D01*
X+4790221Y-3538941D01*
X+4653061Y-3538941D01*
X+4790221Y-3650066D02*
X+4790221Y-3761191D01*
X+4767361Y-3761191D01*
X+4653061Y-3650066D01*
X+4952781Y-3583391D02*
X+4952781Y-3450041D01*
X+5044221Y-3538941D01*
X+4907061Y-3538941D01*
X+5044221Y-3761191D02*
X+5044221Y-3650066D01*
X+4998501Y-3650066D01*
X+4998501Y-3738966D01*
X+4975641Y-3761191D01*
X+4929921Y-3761191D01*
X+4907061Y-3738966D01*
X+4907061Y-3672291D01*
X+4929921Y-3650066D01*
X+5219481Y-3583391D02*
X+5219481Y-3450041D01*
X+5310921Y-3538941D01*
X+5173761Y-3538941D01*
X+5288061Y-3650066D02*
X+5310921Y-3672291D01*
X+5310921Y-3738966D01*
X+5288061Y-3761191D01*
X+5265201Y-3761191D01*
X+5242341Y-3738966D01*
X+5219481Y-3761191D01*
X+5196621Y-3761191D01*
X+5173761Y-3738966D01*
X+5173761Y-3672291D01*
X+5196621Y-3650066D01*
X+5242341Y-3694516D02*
X+5242341Y-3738966D01*
X+5460781Y-3583391D02*
X+5460781Y-3450041D01*
X+5552221Y-3538941D01*
X+5415061Y-3538941D01*
X+5506501Y-3672291D02*
X+5552221Y-3716741D01*
X+5415061Y-3716741D01*
X+5783361Y-3446866D02*
X+5806221Y-3469091D01*
X+5806221Y-3535766D01*
X+5783361Y-3557991D01*
X+5760501Y-3557991D01*
X+5737641Y-3535766D01*
X+5714781Y-3557991D01*
X+5691921Y-3557991D01*
X+5669061Y-3535766D01*
X+5669061Y-3469091D01*
X+5691921Y-3446866D01*
X+5737641Y-3491316D02*
X+5737641Y-3535766D01*
X+5760501Y-3735791D02*
X+5737641Y-3713566D01*
X+5737641Y-3646891D01*
X+5760501Y-3624666D01*
X+5783361Y-3624666D01*
X+5806221Y-3646891D01*
X+5806221Y-3713566D01*
X+5783361Y-3735791D01*
X+5691921Y-3735791D01*
X+5669061Y-3713566D01*
X+5669061Y-3646891D01*
X+6037361Y-3446866D02*
X+6060221Y-3469091D01*
X+6060221Y-3535766D01*
X+6037361Y-3557991D01*
X+6014501Y-3557991D01*
X+5991641Y-3535766D01*
X+5968781Y-3557991D01*
X+5945921Y-3557991D01*
X+5923061Y-3535766D01*
X+5923061Y-3469091D01*
X+5945921Y-3446866D01*
X+5991641Y-3491316D02*
X+5991641Y-3535766D01*
X+6060221Y-3624666D02*
X+6060221Y-3735791D01*
X+6037361Y-3735791D01*
X+5923061Y-3624666D01*
X+6278661Y-3446866D02*
X+6301521Y-3469091D01*
X+6301521Y-3535766D01*
X+6278661Y-3557991D01*
X+6255801Y-3557991D01*
X+6232941Y-3535766D01*
X+6210081Y-3557991D01*
X+6187221Y-3557991D01*
X+6164361Y-3535766D01*
X+6164361Y-3469091D01*
X+6187221Y-3446866D01*
X+6232941Y-3491316D02*
X+6232941Y-3535766D01*
X+6301521Y-3735791D02*
X+6301521Y-3624666D01*
X+6255801Y-3624666D01*
X+6255801Y-3713566D01*
X+6232941Y-3735791D01*
X+6187221Y-3735791D01*
X+6164361Y-3713566D01*
X+6164361Y-3646891D01*
X+6187221Y-3624666D01*
X+6532661Y-3446866D02*
X+6555521Y-3469091D01*
X+6555521Y-3535766D01*
X+6532661Y-3557991D01*
X+6509801Y-3557991D01*
X+6486941Y-3535766D01*
X+6464081Y-3557991D01*
X+6441221Y-3557991D01*
X+6418361Y-3535766D01*
X+6418361Y-3469091D01*
X+6441221Y-3446866D01*
X+6486941Y-3491316D02*
X+6486941Y-3535766D01*
X+6532661Y-3624666D02*
X+6555521Y-3646891D01*
X+6555521Y-3713566D01*
X+6532661Y-3735791D01*
X+6509801Y-3735791D01*
X+6486941Y-3713566D01*
X+6464081Y-3735791D01*
X+6441221Y-3735791D01*
X+6418361Y-3713566D01*
X+6418361Y-3646891D01*
X+6441221Y-3624666D01*
X+6486941Y-3669116D02*
X+6486941Y-3713566D01*
X+6773961Y-3446866D02*
X+6796821Y-3469091D01*
X+6796821Y-3535766D01*
X+6773961Y-3557991D01*
X+6751101Y-3557991D01*
X+6728241Y-3535766D01*
X+6705381Y-3557991D01*
X+6682521Y-3557991D01*
X+6659661Y-3535766D01*
X+6659661Y-3469091D01*
X+6682521Y-3446866D01*
X+6728241Y-3491316D02*
X+6728241Y-3535766D01*
X+6751101Y-3646891D02*
X+6796821Y-3691341D01*
X+6659661Y-3691341D01*
D17*
X+8155721Y-3225974D02*
X+8155721Y-3213274D01*
X+8155721Y-3152314D02*
X+8155721Y-3131994D01*
X+8158261Y-3228514D02*
X+8158261Y-3210734D01*
X+8158261Y-3157394D02*
X+8158261Y-3126914D01*
X+8160801Y-3228514D02*
X+8160801Y-3210734D01*
X+8160801Y-3162474D02*
X+8160801Y-3124374D01*
X+8163341Y-3228514D02*
X+8163341Y-3210734D01*
X+8163341Y-3165014D02*
X+8163341Y-3121834D01*
X+8165881Y-3231054D02*
X+8165881Y-3220894D01*
X+8165881Y-3218354D02*
X+8165881Y-3208194D01*
X+8165881Y-3165014D02*
X+8165881Y-3149774D01*
X+8165881Y-3134534D02*
X+8165881Y-3119294D01*
X+8168421Y-3231054D02*
X+8168421Y-3220894D01*
X+8168421Y-3218354D02*
X+8168421Y-3208194D01*
X+8168421Y-3167554D02*
X+8168421Y-3154854D01*
X+8168421Y-3129454D02*
X+8168421Y-3116754D01*
X+8170961Y-3231054D02*
X+8170961Y-3220894D01*
X+8170961Y-3218354D02*
X+8170961Y-3208194D01*
X+8170961Y-3170094D02*
X+8170961Y-3157394D01*
X+8170961Y-3126914D02*
X+8170961Y-3116754D01*
X+8173501Y-3233594D02*
X+8173501Y-3220894D01*
X+8173501Y-3218354D02*
X+8173501Y-3205654D01*
X+8173501Y-3170094D02*
X+8173501Y-3159934D01*
X+8173501Y-3126914D02*
X+8173501Y-3114214D01*
X+8176041Y-3233594D02*
X+8176041Y-3223434D01*
X+8176041Y-3215814D02*
X+8176041Y-3205654D01*
X+8176041Y-3170094D02*
X+8176041Y-3159934D01*
X+8176041Y-3124374D02*
X+8176041Y-3114214D01*
X+8178581Y-3236134D02*
X+8178581Y-3223434D01*
X+8178581Y-3215814D02*
X+8178581Y-3203114D01*
X+8178581Y-3172634D02*
X+8178581Y-3162474D01*
X+8178581Y-3124374D02*
X+8178581Y-3114214D01*
X+8181121Y-3236134D02*
X+8181121Y-3225974D01*
X+8181121Y-3213274D02*
X+8181121Y-3203114D01*
X+8181121Y-3172634D02*
X+8181121Y-3162474D01*
X+8183661Y-3236134D02*
X+8183661Y-3225974D01*
X+8183661Y-3213274D02*
X+8183661Y-3203114D01*
X+8183661Y-3172634D02*
X+8183661Y-3162474D01*
X+8186201Y-3238674D02*
X+8186201Y-3225974D01*
X+8186201Y-3213274D02*
X+8186201Y-3200574D01*
X+8186201Y-3172634D02*
X+8186201Y-3162474D01*
X+8188741Y-3238674D02*
X+8188741Y-3228514D01*
X+8188741Y-3210734D02*
X+8188741Y-3200574D01*
X+8188741Y-3172634D02*
X+8188741Y-3162474D01*
X+8191281Y-3238674D02*
X+8191281Y-3228514D01*
X+8191281Y-3210734D02*
X+8191281Y-3200574D01*
X+8191281Y-3172634D02*
X+8191281Y-3162474D01*
X+8193821Y-3241214D02*
X+8193821Y-3228514D01*
X+8193821Y-3208194D02*
X+8193821Y-3198034D01*
X+8193821Y-3172634D02*
X+8193821Y-3162474D01*
X+8196361Y-3241214D02*
X+8196361Y-3231054D01*
X+8196361Y-3208194D02*
X+8196361Y-3198034D01*
X+8196361Y-3170094D02*
X+8196361Y-3159934D01*
X+8196361Y-3126914D02*
X+8196361Y-3121834D01*
X+8198901Y-3243754D02*
X+8198901Y-3231054D01*
X+8198901Y-3208194D02*
X+8198901Y-3195494D01*
X+8198901Y-3170094D02*
X+8198901Y-3159934D01*
X+8198901Y-3129454D02*
X+8198901Y-3116754D01*
X+8201441Y-3243754D02*
X+8201441Y-3233594D01*
X+8201441Y-3205654D02*
X+8201441Y-3195494D01*
X+8201441Y-3170094D02*
X+8201441Y-3157394D01*
X+8201441Y-3131994D02*
X+8201441Y-3116754D01*
X+8203981Y-3243754D02*
X+8203981Y-3233594D01*
X+8203981Y-3205654D02*
X+8203981Y-3195494D01*
X+8203981Y-3167554D02*
X+8203981Y-3152314D01*
X+8203981Y-3134534D02*
X+8203981Y-3119294D01*
X+8206521Y-3246294D02*
X+8206521Y-3233594D01*
X+8206521Y-3205654D02*
X+8206521Y-3192954D01*
X+8206521Y-3165014D02*
X+8206521Y-3119294D01*
X+8209061Y-3246294D02*
X+8209061Y-3236134D01*
X+8209061Y-3203114D02*
X+8209061Y-3192954D01*
X+8209061Y-3162474D02*
X+8209061Y-3119294D01*
X+8211601Y-3246294D02*
X+8211601Y-3236134D01*
X+8211601Y-3203114D02*
X+8211601Y-3192954D01*
X+8211601Y-3159934D02*
X+8211601Y-3131994D01*
X+8211601Y-3129454D02*
X+8211601Y-3119294D01*
X+8214141Y-3248834D02*
X+8214141Y-3238674D01*
X+8214141Y-3200574D02*
X+8214141Y-3190414D01*
X+8214141Y-3154854D02*
X+8214141Y-3137074D01*
X+8214141Y-3129454D02*
X+8214141Y-3119294D01*
X+8216681Y-3248834D02*
X+8216681Y-3238674D01*
X+8216681Y-3200574D02*
X+8216681Y-3190414D01*
X+8216681Y-3131994D02*
X+8216681Y-3121834D01*
X+8219221Y-3251374D02*
X+8219221Y-3238674D01*
X+8219221Y-3200574D02*
X+8219221Y-3187874D01*
X+8219221Y-3131994D02*
X+8219221Y-3121834D01*
X+8221761Y-3251374D02*
X+8221761Y-3241214D01*
X+8221761Y-3198034D02*
X+8221761Y-3187874D01*
X+8221761Y-3131994D02*
X+8221761Y-3121834D01*
X+8224301Y-3251374D02*
X+8224301Y-3241214D01*
X+8224301Y-3198034D02*
X+8224301Y-3187874D01*
X+8224301Y-3131994D02*
X+8224301Y-3121834D01*
X+8226841Y-3253914D02*
X+8226841Y-3241214D01*
X+8226841Y-3195494D02*
X+8226841Y-3185334D01*
X+8226841Y-3134534D02*
X+8226841Y-3124374D01*
X+8229381Y-3253914D02*
X+8229381Y-3243754D01*
X+8229381Y-3195494D02*
X+8229381Y-3185334D01*
X+8229381Y-3134534D02*
X+8229381Y-3124374D01*
X+8231921Y-3253914D02*
X+8231921Y-3243754D01*
X+8231921Y-3195494D02*
X+8231921Y-3185334D01*
X+8231921Y-3134534D02*
X+8231921Y-3124374D01*
X+8234461Y-3256454D02*
X+8234461Y-3246294D01*
X+8234461Y-3192954D02*
X+8234461Y-3182794D01*
X+8234461Y-3167554D02*
X+8234461Y-3124374D01*
X+8237001Y-3256454D02*
X+8237001Y-3246294D01*
X+8237001Y-3192954D02*
X+8237001Y-3182794D01*
X+8237001Y-3167554D02*
X+8237001Y-3124374D01*
X+8239541Y-3258994D02*
X+8239541Y-3246294D01*
X+8239541Y-3192954D02*
X+8239541Y-3180254D01*
X+8239541Y-3167554D02*
X+8239541Y-3126914D01*
X+8242081Y-3258994D02*
X+8242081Y-3248834D01*
X+8242081Y-3190414D02*
X+8242081Y-3180254D01*
X+8242081Y-3167554D02*
X+8242081Y-3126914D01*
D16*
X+8201441Y-3094441D02*
X+8201441Y-3030941D01*
X+8150641Y-3030941D01*
X+8201441Y-3208741D02*
X+8201441Y-3284941D01*
X+8150641Y-3284941D01*
X+6804441Y-460461D02*
X+6937791Y-460461D01*
X+6871116Y-460461D02*
X+6871116Y-597621D01*
X+6982241Y-460461D02*
X+7115591Y-597621D01*
X+6982241Y-597621D02*
X+7115591Y-460461D01*
X+7182266Y-483321D02*
X+7204491Y-460461D01*
X+7271166Y-460461D01*
X+7293391Y-483321D01*
X+7293391Y-506181D01*
X+7271166Y-529041D01*
X+7293391Y-551901D01*
X+7293391Y-574761D01*
X+7271166Y-597621D01*
X+7204491Y-597621D01*
X+7182266Y-574761D01*
X+7226716Y-529041D02*
X+7271166Y-529041D01*
X+7560091Y-506181D02*
X+7604541Y-460461D01*
X+7604541Y-597621D01*
X+7826791Y-551901D02*
X+7693441Y-551901D01*
X+7782341Y-460461D01*
X+7782341Y-597621D01*
X+6804441Y-851621D02*
X+6804441Y-714461D01*
X+6915566Y-714461D01*
X+6937791Y-737321D01*
X+6937791Y-760181D01*
X+6915566Y-783041D01*
X+6804441Y-783041D01*
X+6915566Y-783041D02*
X+6937791Y-805901D01*
X+6937791Y-851621D01*
X+6982241Y-714461D02*
X+7115591Y-851621D01*
X+6982241Y-851621D02*
X+7115591Y-714461D01*
X+7182266Y-737321D02*
X+7204491Y-714461D01*
X+7271166Y-714461D01*
X+7293391Y-737321D01*
X+7293391Y-760181D01*
X+7271166Y-783041D01*
X+7293391Y-805901D01*
X+7293391Y-828761D01*
X+7271166Y-851621D01*
X+7204491Y-851621D01*
X+7182266Y-828761D01*
X+7226716Y-783041D02*
X+7271166Y-783041D01*
X+7560091Y-760181D02*
X+7604541Y-714461D01*
X+7604541Y-851621D01*
X+7826791Y-714461D02*
X+7715666Y-714461D01*
X+7715666Y-760181D01*
X+7804566Y-760181D01*
X+7826791Y-783041D01*
X+7826791Y-828761D01*
X+7804566Y-851621D01*
X+7737891Y-851621D01*
X+7715666Y-828761D01*
X+6804441Y-968461D02*
X+6937791Y-968461D01*
X+6871116Y-968461D02*
X+6871116Y-1105621D01*
X+6982241Y-968461D02*
X+7115591Y-1105621D01*
X+6982241Y-1105621D02*
X+7115591Y-968461D01*
X+7182266Y-991321D02*
X+7204491Y-968461D01*
X+7271166Y-968461D01*
X+7293391Y-991321D01*
X+7293391Y-1014181D01*
X+7271166Y-1037041D01*
X+7204491Y-1037041D01*
X+7182266Y-1059901D01*
X+7182266Y-1105621D01*
X+7293391Y-1105621D01*
X+7560091Y-1014181D02*
X+7604541Y-968461D01*
X+7604541Y-1105621D01*
X+7826791Y-991321D02*
X+7804566Y-968461D01*
X+7737891Y-968461D01*
X+7715666Y-991321D01*
X+7715666Y-1082761D01*
X+7737891Y-1105621D01*
X+7804566Y-1105621D01*
X+7826791Y-1082761D01*
X+7826791Y-1059901D01*
X+7804566Y-1037041D01*
X+7715666Y-1037041D01*
X+6804441Y-1359621D02*
X+6804441Y-1222461D01*
X+6915566Y-1222461D01*
X+6937791Y-1245321D01*
X+6937791Y-1268181D01*
X+6915566Y-1291041D01*
X+6804441Y-1291041D01*
X+6915566Y-1291041D02*
X+6937791Y-1313901D01*
X+6937791Y-1359621D01*
X+6982241Y-1222461D02*
X+7115591Y-1359621D01*
X+6982241Y-1359621D02*
X+7115591Y-1222461D01*
X+7182266Y-1245321D02*
X+7204491Y-1222461D01*
X+7271166Y-1222461D01*
X+7293391Y-1245321D01*
X+7293391Y-1268181D01*
X+7271166Y-1291041D01*
X+7204491Y-1291041D01*
X+7182266Y-1313901D01*
X+7182266Y-1359621D01*
X+7293391Y-1359621D01*
X+7560091Y-1268181D02*
X+7604541Y-1222461D01*
X+7604541Y-1359621D01*
X+7715666Y-1222461D02*
X+7826791Y-1222461D01*
X+7826791Y-1245321D01*
X+7715666Y-1359621D01*
X+6804441Y-1463761D02*
X+6937791Y-1463761D01*
X+6871116Y-1463761D02*
X+6871116Y-1600921D01*
X+6982241Y-1463761D02*
X+7115591Y-1600921D01*
X+6982241Y-1600921D02*
X+7115591Y-1463761D01*
X+7204491Y-1509481D02*
X+7248941Y-1463761D01*
X+7248941Y-1600921D01*
X+7560091Y-1509481D02*
X+7604541Y-1463761D01*
X+7604541Y-1600921D01*
X+7737891Y-1532341D02*
X+7715666Y-1509481D01*
X+7715666Y-1486621D01*
X+7737891Y-1463761D01*
X+7804566Y-1463761D01*
X+7826791Y-1486621D01*
X+7826791Y-1509481D01*
X+7804566Y-1532341D01*
X+7737891Y-1532341D01*
X+7715666Y-1555201D01*
X+7715666Y-1578061D01*
X+7737891Y-1600921D01*
X+7804566Y-1600921D01*
X+7826791Y-1578061D01*
X+7826791Y-1555201D01*
X+7804566Y-1532341D01*
X+6804441Y-1854921D02*
X+6804441Y-1717761D01*
X+6915566Y-1717761D01*
X+6937791Y-1740621D01*
X+6937791Y-1763481D01*
X+6915566Y-1786341D01*
X+6804441Y-1786341D01*
X+6915566Y-1786341D02*
X+6937791Y-1809201D01*
X+6937791Y-1854921D01*
X+6982241Y-1717761D02*
X+7115591Y-1854921D01*
X+6982241Y-1854921D02*
X+7115591Y-1717761D01*
X+7204491Y-1763481D02*
X+7248941Y-1717761D01*
X+7248941Y-1854921D01*
X+7560091Y-1763481D02*
X+7604541Y-1717761D01*
X+7604541Y-1854921D01*
X+7826791Y-1763481D02*
X+7804566Y-1786341D01*
X+7737891Y-1786341D01*
X+7715666Y-1763481D01*
X+7715666Y-1740621D01*
X+7737891Y-1717761D01*
X+7804566Y-1717761D01*
X+7826791Y-1740621D01*
X+7826791Y-1832061D01*
X+7804566Y-1854921D01*
X+7737891Y-1854921D01*
X+6804441Y-2086061D02*
X+6826666Y-2108921D01*
X+6915566Y-2108921D01*
X+6937791Y-2086061D01*
X+6937791Y-2063201D01*
X+6915566Y-2040341D01*
X+6826666Y-2040341D01*
X+6804441Y-2017481D01*
X+6804441Y-1994621D01*
X+6826666Y-1971761D01*
X+6915566Y-1971761D01*
X+6937791Y-1994621D01*
X+6982241Y-2108921D02*
X+6982241Y-1971761D01*
X+7071141Y-1971761D01*
X+7115591Y-2017481D01*
X+7115591Y-2063201D01*
X+7071141Y-2108921D01*
X+6982241Y-2108921D01*
X+7160041Y-2108921D02*
X+7160041Y-2017481D01*
X+7204491Y-1971761D01*
X+7248941Y-1971761D01*
X+7293391Y-2017481D01*
X+7293391Y-2108921D01*
X+7160041Y-2063201D02*
X+7293391Y-2063201D01*
X+7537866Y-1994621D02*
X+7560091Y-1971761D01*
X+7626766Y-1971761D01*
X+7648991Y-1994621D01*
X+7648991Y-2017481D01*
X+7626766Y-2040341D01*
X+7560091Y-2040341D01*
X+7537866Y-2063201D01*
X+7537866Y-2108921D01*
X+7648991Y-2108921D01*
X+7693441Y-2086061D02*
X+7693441Y-1994621D01*
X+7715666Y-1971761D01*
X+7804566Y-1971761D01*
X+7826791Y-1994621D01*
X+7826791Y-2086061D01*
X+7804566Y-2108921D01*
X+7715666Y-2108921D01*
X+7693441Y-2086061D01*
X+7693441Y-2108921D02*
X+7826791Y-1971761D01*
X+6804441Y-2340061D02*
X+6826666Y-2362921D01*
X+6915566Y-2362921D01*
X+6937791Y-2340061D01*
X+6937791Y-2317201D01*
X+6915566Y-2294341D01*
X+6826666Y-2294341D01*
X+6804441Y-2271481D01*
X+6804441Y-2248621D01*
X+6826666Y-2225761D01*
X+6915566Y-2225761D01*
X+6937791Y-2248621D01*
X+7115591Y-2340061D02*
X+7093366Y-2362921D01*
X+7026691Y-2362921D01*
X+6982241Y-2317201D01*
X+6982241Y-2271481D01*
X+7026691Y-2225761D01*
X+7093366Y-2225761D01*
X+7115591Y-2248621D01*
X+7160041Y-2225761D02*
X+7160041Y-2362921D01*
X+7293391Y-2362921D01*
X+7537866Y-2248621D02*
X+7560091Y-2225761D01*
X+7626766Y-2225761D01*
X+7648991Y-2248621D01*
X+7648991Y-2271481D01*
X+7626766Y-2294341D01*
X+7560091Y-2294341D01*
X+7537866Y-2317201D01*
X+7537866Y-2362921D01*
X+7648991Y-2362921D01*
X+7737891Y-2271481D02*
X+7782341Y-2225761D01*
X+7782341Y-2362921D01*
X+7737891Y+2150659D02*
X+7715666Y+2173519D01*
X+7715666Y+2196379D01*
X+7737891Y+2219239D01*
X+7804566Y+2219239D01*
X+7826791Y+2196379D01*
X+7826791Y+2173519D01*
X+7804566Y+2150659D01*
X+7737891Y+2150659D01*
X+7715666Y+2127799D01*
X+7715666Y+2104939D01*
X+7737891Y+2082079D01*
X+7804566Y+2082079D01*
X+7826791Y+2104939D01*
X+7826791Y+2127799D01*
X+7804566Y+2150659D01*
X+7826791Y+2440219D02*
X+7804566Y+2417359D01*
X+7737891Y+2417359D01*
X+7715666Y+2440219D01*
X+7715666Y+2463079D01*
X+7737891Y+2485939D01*
X+7804566Y+2485939D01*
X+7826791Y+2463079D01*
X+7826791Y+2371639D01*
X+7804566Y+2348779D01*
X+7737891Y+2348779D01*
X+7560091Y+2694219D02*
X+7604541Y+2739939D01*
X+7604541Y+2602779D01*
X+7693441Y+2625639D02*
X+7693441Y+2717079D01*
X+7715666Y+2739939D01*
X+7804566Y+2739939D01*
X+7826791Y+2717079D01*
X+7826791Y+2625639D01*
X+7804566Y+2602779D01*
X+7715666Y+2602779D01*
X+7693441Y+2625639D01*
X+7693441Y+2602779D02*
X+7826791Y+2739939D01*
X+7560091Y+2948219D02*
X+7604541Y+2993939D01*
X+7604541Y+2856779D01*
X+7737891Y+2948219D02*
X+7782341Y+2993939D01*
X+7782341Y+2856779D01*
X+7547391Y+3189519D02*
X+7591841Y+3235239D01*
X+7591841Y+3098079D01*
X+7702966Y+3212379D02*
X+7725191Y+3235239D01*
X+7791866Y+3235239D01*
X+7814091Y+3212379D01*
X+7814091Y+3189519D01*
X+7791866Y+3166659D01*
X+7725191Y+3166659D01*
X+7702966Y+3143799D01*
X+7702966Y+3098079D01*
X+7814091Y+3098079D01*
X+7547391Y+3443519D02*
X+7591841Y+3489239D01*
X+7591841Y+3352079D01*
X+7702966Y+3466379D02*
X+7725191Y+3489239D01*
X+7791866Y+3489239D01*
X+7814091Y+3466379D01*
X+7814091Y+3443519D01*
X+7791866Y+3420659D01*
X+7814091Y+3397799D01*
X+7814091Y+3374939D01*
X+7791866Y+3352079D01*
X+7725191Y+3352079D01*
X+7702966Y+3374939D01*
X+7747416Y+3420659D02*
X+7791866Y+3420659D01*
X+7414041Y+3651799D02*
X+7458491Y+3651799D01*
X+7458491Y+3606079D01*
X+7369591Y+3606079D01*
X+7325141Y+3651799D01*
X+7325141Y+3697519D01*
X+7369591Y+3743239D01*
X+7436266Y+3743239D01*
X+7458491Y+3720379D01*
X+7502941Y+3606079D02*
X+7502941Y+3743239D01*
X+7636291Y+3606079D01*
X+7636291Y+3743239D01*
X+7680741Y+3606079D02*
X+7680741Y+3743239D01*
X+7769641Y+3743239D01*
X+7814091Y+3697519D01*
X+7814091Y+3651799D01*
X+7769641Y+3606079D01*
X+7680741Y+3606079D01*
X+7147341Y+3860079D02*
X+7147341Y+3951519D01*
X+7191791Y+3997239D01*
X+7236241Y+3997239D01*
X+7280691Y+3951519D01*
X+7280691Y+3860079D01*
X+7147341Y+3905799D02*
X+7280691Y+3905799D01*
X+7325141Y+3860079D02*
X+7325141Y+3997239D01*
X+7436266Y+3997239D01*
X+7458491Y+3974379D01*
X+7458491Y+3951519D01*
X+7436266Y+3928659D01*
X+7325141Y+3928659D01*
X+7436266Y+3928659D02*
X+7458491Y+3905799D01*
X+7458491Y+3860079D01*
X+7636291Y+3860079D02*
X+7502941Y+3860079D01*
X+7502941Y+3997239D01*
X+7636291Y+3997239D01*
X+7502941Y+3928659D02*
X+7591841Y+3928659D01*
X+7680741Y+3860079D02*
X+7680741Y+3997239D01*
X+7814091Y+3997239D01*
X+7680741Y+3928659D02*
X+7769641Y+3928659D01*
X+7160041Y+47539D02*
X+7293391Y+47539D01*
X+7226716Y+47539D02*
X+7226716Y-89621D01*
X+7337841Y-89621D02*
X+7337841Y+47539D01*
X+7448966Y+47539D01*
X+7471191Y+24679D01*
X+7471191Y+1819D01*
X+7448966Y-21041D01*
X+7337841Y-21041D01*
X+7448966Y-21041D02*
X+7471191Y-43901D01*
X+7471191Y-89621D01*
X+7604541Y+47539D02*
X+7537866Y-21041D01*
X+7604541Y-89621D01*
X+7693441Y-66761D02*
X+7693441Y+24679D01*
X+7715666Y+47539D01*
X+7804566Y+47539D01*
X+7826791Y+24679D01*
X+7826791Y-66761D01*
X+7804566Y-89621D01*
X+7715666Y-89621D01*
X+7693441Y-66761D01*
X+7693441Y-89621D02*
X+7826791Y+47539D01*
X+7160041Y+301539D02*
X+7293391Y+301539D01*
X+7226716Y+301539D02*
X+7226716Y+164379D01*
X+7337841Y+301539D02*
X+7471191Y+164379D01*
X+7337841Y+164379D02*
X+7471191Y+301539D01*
X+7560091Y+301539D02*
X+7626766Y+232959D01*
X+7560091Y+164379D01*
X+7737891Y+255819D02*
X+7782341Y+301539D01*
X+7782341Y+164379D01*
X+7715666Y+519979D02*
X+7737891Y+542839D01*
X+7804566Y+542839D01*
X+7826791Y+519979D01*
X+7826791Y+497119D01*
X+7804566Y+474259D01*
X+7737891Y+474259D01*
X+7715666Y+451399D01*
X+7715666Y+405679D01*
X+7826791Y+405679D01*
X+7715666Y+786679D02*
X+7737891Y+809539D01*
X+7804566Y+809539D01*
X+7826791Y+786679D01*
X+7826791Y+763819D01*
X+7804566Y+740959D01*
X+7826791Y+718099D01*
X+7826791Y+695239D01*
X+7804566Y+672379D01*
X+7737891Y+672379D01*
X+7715666Y+695239D01*
X+7760116Y+740959D02*
X+7804566Y+740959D01*
X+7826791Y+959399D02*
X+7693441Y+959399D01*
X+7782341Y+1050839D01*
X+7782341Y+913679D01*
X+7826791Y+1304839D02*
X+7715666Y+1304839D01*
X+7715666Y+1259119D01*
X+7804566Y+1259119D01*
X+7826791Y+1236259D01*
X+7826791Y+1190539D01*
X+7804566Y+1167679D01*
X+7737891Y+1167679D01*
X+7715666Y+1190539D01*
X+7826791Y+1535979D02*
X+7804566Y+1558839D01*
X+7737891Y+1558839D01*
X+7715666Y+1535979D01*
X+7715666Y+1444539D01*
X+7737891Y+1421679D01*
X+7804566Y+1421679D01*
X+7826791Y+1444539D01*
X+7826791Y+1467399D01*
X+7804566Y+1490259D01*
X+7715666Y+1490259D01*
X+7715666Y+1825539D02*
X+7826791Y+1825539D01*
X+7826791Y+1802679D01*
X+7715666Y+1688379D01*
X+7325141Y+4149639D02*
X+7347366Y+4126779D01*
X+7436266Y+4126779D01*
X+7458491Y+4149639D01*
X+7458491Y+4172499D01*
X+7436266Y+4195359D01*
X+7347366Y+4195359D01*
X+7325141Y+4218219D01*
X+7325141Y+4241079D01*
X+7347366Y+4263939D01*
X+7436266Y+4263939D01*
X+7458491Y+4241079D01*
X+7502941Y+4126779D02*
X+7502941Y+4263939D01*
X+7591841Y+4263939D01*
X+7636291Y+4218219D01*
X+7636291Y+4172499D01*
X+7591841Y+4126779D01*
X+7502941Y+4126779D01*
X+7680741Y+4126779D02*
X+7680741Y+4218219D01*
X+7725191Y+4263939D01*
X+7769641Y+4263939D01*
X+7814091Y+4218219D01*
X+7814091Y+4126779D01*
X+7680741Y+4172499D02*
X+7814091Y+4172499D01*
X+7325141Y+4403639D02*
X+7347366Y+4380779D01*
X+7436266Y+4380779D01*
X+7458491Y+4403639D01*
X+7458491Y+4426499D01*
X+7436266Y+4449359D01*
X+7347366Y+4449359D01*
X+7325141Y+4472219D01*
X+7325141Y+4495079D01*
X+7347366Y+4517939D01*
X+7436266Y+4517939D01*
X+7458491Y+4495079D01*
X+7636291Y+4403639D02*
X+7614066Y+4380779D01*
X+7547391Y+4380779D01*
X+7502941Y+4426499D01*
X+7502941Y+4472219D01*
X+7547391Y+4517939D01*
X+7614066Y+4517939D01*
X+7636291Y+4495079D01*
X+7680741Y+4517939D02*
X+7680741Y+4380779D01*
X+7814091Y+4380779D01*
X+5422681Y+3160309D02*
X+5422681Y+3287309D01*
X+5455701Y+3319059D01*
X+5587781Y+3319059D01*
X+5620801Y+3287309D01*
X+5620801Y+3160309D01*
X+5587781Y+3128559D01*
X+5488721Y+3128559D01*
X+5488721Y+3223809D01*
X+5554761Y+3223809D01*
X+5554761Y+3160309D01*
X+5422681Y+3065059D02*
X+5554761Y+3065059D01*
X+5620801Y+3001559D01*
X+5620801Y+2938059D01*
X+5554761Y+2874559D01*
X+5422681Y+2874559D01*
X+5488721Y+3065059D02*
X+5488721Y+2874559D01*
X+5620801Y+2715809D02*
X+5422681Y+2715809D01*
X+5521741Y+2557059D02*
X+5554761Y+2525309D01*
X+5554761Y+2398309D01*
X+5521741Y+2366559D01*
X+5455701Y+2366559D01*
X+5422681Y+2398309D01*
X+5422681Y+2525309D01*
X+5455701Y+2557059D01*
X+5422681Y+2557059D02*
X+5620801Y+2557059D01*
X+5422681Y+2112559D02*
X+5422681Y+2303059D01*
X+5620801Y+2303059D01*
X+5620801Y+2112559D01*
X+5521741Y+2303059D02*
X+5521741Y+2176059D01*
X+5554761Y+2017309D02*
X+5554761Y+1890309D01*
X+5521741Y+1858559D01*
X+5422681Y+1858559D01*
X+5422681Y+2017309D01*
X+5455701Y+2049059D01*
X+5488721Y+2017309D01*
X+5488721Y+1858559D01*
X+5521741Y+1604559D02*
X+5554761Y+1636309D01*
X+5554761Y+1763309D01*
X+5521741Y+1795059D01*
X+5488721Y+1795059D01*
X+5455701Y+1763309D01*
X+5455701Y+1636309D01*
X+5488721Y+1604559D01*
X+5554761Y+1604559D02*
X+5422681Y+1604559D01*
X+5389661Y+1636309D01*
X+5389661Y+1795059D01*
X+5620801Y+1445809D02*
X+5422681Y+1445809D01*
X+5488721Y+1287059D02*
X+5488721Y+1096559D01*
X+5521741Y+1096559D01*
X+5554761Y+1128309D01*
X+5554761Y+1255309D01*
X+5521741Y+1287059D01*
X+5455701Y+1287059D01*
X+5422681Y+1255309D01*
X+5422681Y+1128309D01*
X+5867181Y+3331759D02*
X+5999261Y+3331759D01*
X+6065301Y+3268259D01*
X+6065301Y+3204759D01*
X+5999261Y+3141259D01*
X+5867181Y+3141259D01*
X+5933221Y+3331759D02*
X+5933221Y+3141259D01*
X+5867181Y+3077759D02*
X+6065301Y+3077759D01*
X+6065301Y+2919009D01*
X+6032281Y+2887259D01*
X+5999261Y+2887259D01*
X+5966241Y+2919009D01*
X+5966241Y+3077759D01*
X+5966241Y+2919009D02*
X+5933221Y+2887259D01*
X+5867181Y+2887259D01*
X+5867181Y+2823759D02*
X+6065301Y+2823759D01*
X+6065301Y+2696759D01*
X+5999261Y+2633259D01*
X+5933221Y+2633259D01*
X+5867181Y+2696759D01*
X+5867181Y+2823759D01*
X+6065301Y+2569759D02*
X+5900201Y+2569759D01*
X+5867181Y+2538009D01*
X+5867181Y+2411009D01*
X+5900201Y+2379259D01*
X+6065301Y+2379259D01*
X+6065301Y+2284009D02*
X+6065301Y+2157009D01*
X+6065301Y+2220509D02*
X+5867181Y+2220509D01*
X+5867181Y+2284009D02*
X+5867181Y+2157009D01*
X+5867181Y+2061759D02*
X+6065301Y+2061759D01*
X+5867181Y+1871259D01*
X+6065301Y+1871259D01*
X+5999261Y+1807759D02*
X+6065301Y+1744259D01*
X+6065301Y+1680759D01*
X+5999261Y+1617259D01*
X+5933221Y+1617259D01*
X+5867181Y+1680759D01*
X+5867181Y+1744259D01*
X+5933221Y+1807759D01*
X+5999261Y+1807759D01*
X+5867181Y+1299759D02*
X+6065301Y+1299759D01*
X+5966241Y+1204509D01*
X+6065301Y+1109259D01*
X+5867181Y+1109259D01*
X+5867181Y+855259D02*
X+5867181Y+1045759D01*
X+6065301Y+1045759D01*
X+6065301Y+855259D01*
X+5966241Y+1045759D02*
X+5966241Y+918759D01*
X+5933221Y+664759D02*
X+5933221Y+601259D01*
X+5867181Y+601259D01*
X+5867181Y+728259D01*
X+5933221Y+791759D01*
X+5999261Y+791759D01*
X+6065301Y+728259D01*
X+6065301Y+633009D01*
X+6032281Y+601259D01*
X+5867181Y+537759D02*
X+5999261Y+537759D01*
X+6065301Y+474259D01*
X+6065301Y+410759D01*
X+5999261Y+347259D01*
X+5867181Y+347259D01*
X+5933221Y+537759D02*
X+5933221Y+347259D01*
X+6032281Y-1991D02*
X+6065301Y-33741D01*
X+6065301Y-128991D01*
X+6032281Y-160741D01*
X+5999261Y-160741D01*
X+5966241Y-128991D01*
X+5966241Y-33741D01*
X+5933221Y-1991D01*
X+5867181Y-1991D01*
X+5867181Y-160741D01*
X+6065301Y-414741D02*
X+6065301Y-255991D01*
X+5999261Y-255991D01*
X+5999261Y-382991D01*
X+5966241Y-414741D01*
X+5900201Y-414741D01*
X+5867181Y-382991D01*
X+5867181Y-287741D01*
X+5900201Y-255991D01*
X+6032281Y-668741D02*
X+6065301Y-636991D01*
X+6065301Y-541741D01*
X+6032281Y-509991D01*
X+5900201Y-509991D01*
X+5867181Y-541741D01*
X+5867181Y-636991D01*
X+5900201Y-668741D01*
X+5933221Y-668741D01*
X+5966241Y-636991D01*
X+5966241Y-509991D01*
X+5900201Y-732241D02*
X+6032281Y-732241D01*
X+6065301Y-763991D01*
X+6065301Y-890991D01*
X+6032281Y-922741D01*
X+5900201Y-922741D01*
X+5867181Y-890991D01*
X+5867181Y-763991D01*
X+5900201Y-732241D01*
X+5867181Y-732241D02*
X+6065301Y-922741D01*
X-2691759Y-3587041D02*
X-2691759Y+6318959D01*
X+2642241Y-3294941D02*
X+2642241Y+6318959D01*
X-2691759Y-3587041D02*
X-2437759Y-3587041D01*
X-2183759Y-3841041D02*
X-2437759Y-3587041D01*
X-2183759Y-3841041D02*
X+1118241Y-3841041D01*
X+1372241Y-3587041D01*
X+2388241Y-3587041D01*
X-2691759Y+6318959D02*
X+2642241Y+6318959D01*
X+2642241Y-3294941D02*
X+2388241Y-3587041D01*
X+2261241Y-158041D02*
X+2515241Y-158041D01*
X+2515241Y+1873959D01*
X+2261241Y+1873959D01*
X+2261241Y-158041D01*
X+2261241Y-2456741D02*
X+2515241Y-2456741D01*
X+2515241Y-424741D01*
X+2261241Y-424741D01*
X+2261241Y-2456741D01*
X-1802759Y-3421941D02*
X+2515241Y-3421941D01*
X+2515241Y-2913941D01*
X-1802759Y-2913941D01*
X-1802759Y-3421941D01*
X-2056759Y-3421941D02*
X-1802759Y-3421941D01*
X-1802759Y-2913941D01*
X-2056759Y-2913941D01*
X-2056759Y-3421941D01*
X-2564759Y-2964741D02*
X-2310759Y-2964741D01*
X-2310759Y-932741D01*
X-2564759Y-932741D01*
X-2564759Y-2964741D01*
X-2564759Y-666041D02*
X-2310759Y-666041D01*
X-2310759Y+1365959D01*
X-2564759Y+1365959D01*
X-2564759Y-666041D01*
X+2261241Y+2000959D02*
X+2515241Y+2000959D01*
X+2515241Y+4540959D01*
X+2261241Y+4540959D01*
X+2261241Y+2000959D01*
X-2564759Y+1607259D02*
X-2310759Y+1607259D01*
X-2310759Y+3639259D01*
X-2564759Y+3639259D01*
X-2564759Y+1607259D01*
X-2259959Y-112321D02*
X-2259959Y-20881D01*
X-2215509Y+24839D01*
X-2171059Y+24839D01*
X-2126609Y-20881D01*
X-2126609Y-112321D01*
X-2259959Y-66601D02*
X-2126609Y-66601D01*
X-1948809Y+24839D02*
X-2059934Y+24839D01*
X-2059934Y-20881D01*
X-1971034Y-20881D01*
X-1948809Y-43741D01*
X-1948809Y-89461D01*
X-1971034Y-112321D01*
X-2037709Y-112321D01*
X-2059934Y-89461D01*
X-2259959Y+141679D02*
X-2259959Y+233119D01*
X-2215509Y+278839D01*
X-2171059Y+278839D01*
X-2126609Y+233119D01*
X-2126609Y+141679D01*
X-2259959Y+187399D02*
X-2126609Y+187399D01*
X-1948809Y+187399D02*
X-2082159Y+187399D01*
X-1993259Y+278839D01*
X-1993259Y+141679D01*
X-2272659Y+382979D02*
X-2272659Y+474419D01*
X-2228209Y+520139D01*
X-2183759Y+520139D01*
X-2139309Y+474419D01*
X-2139309Y+382979D01*
X-2272659Y+428699D02*
X-2139309Y+428699D01*
X-2072634Y+497279D02*
X-2050409Y+520139D01*
X-1983734Y+520139D01*
X-1961509Y+497279D01*
X-1961509Y+474419D01*
X-1983734Y+451559D01*
X-1961509Y+428699D01*
X-1961509Y+405839D01*
X-1983734Y+382979D01*
X-2050409Y+382979D01*
X-2072634Y+405839D01*
X-2028184Y+451559D02*
X-1983734Y+451559D01*
X-2272659Y+636979D02*
X-2272659Y+728419D01*
X-2228209Y+774139D01*
X-2183759Y+774139D01*
X-2139309Y+728419D01*
X-2139309Y+636979D01*
X-2272659Y+682699D02*
X-2139309Y+682699D01*
X-2072634Y+751279D02*
X-2050409Y+774139D01*
X-1983734Y+774139D01*
X-1961509Y+751279D01*
X-1961509Y+728419D01*
X-1983734Y+705559D01*
X-2050409Y+705559D01*
X-2072634Y+682699D01*
X-2072634Y+636979D01*
X-1961509Y+636979D01*
X-2272659Y+916379D02*
X-2272659Y+1007819D01*
X-2228209Y+1053539D01*
X-2183759Y+1053539D01*
X-2139309Y+1007819D01*
X-2139309Y+916379D01*
X-2272659Y+962099D02*
X-2139309Y+962099D01*
X-2050409Y+1007819D02*
X-2005959Y+1053539D01*
X-2005959Y+916379D01*
X-2272659Y+1170379D02*
X-2272659Y+1261819D01*
X-2228209Y+1307539D01*
X-2183759Y+1307539D01*
X-2139309Y+1261819D01*
X-2139309Y+1170379D01*
X-2272659Y+1216099D02*
X-2139309Y+1216099D01*
X-2094859Y+1193239D02*
X-2094859Y+1284679D01*
X-2072634Y+1307539D01*
X-1983734Y+1307539D01*
X-1961509Y+1284679D01*
X-1961509Y+1193239D01*
X-1983734Y+1170379D01*
X-2072634Y+1170379D01*
X-2094859Y+1193239D01*
X-2094859Y+1170379D02*
X-1961509Y+1307539D01*
X-2272659Y+1802839D02*
X-2272659Y+1734259D01*
X-2205984Y+1665679D01*
X-2139309Y+1734259D01*
X-2139309Y+1802839D01*
X-2028184Y+1757119D02*
X-2028184Y+1665679D01*
X-2028184Y+1802839D02*
X-2028184Y+1802839D01*
X-1917059Y+1665679D02*
X-1917059Y+1757119D01*
X-1917059Y+1734259D02*
X-1894834Y+1757119D01*
X-1805934Y+1757119D01*
X-1783709Y+1734259D01*
X-1783709Y+1665679D01*
X-2183759Y+1965399D02*
X-2139309Y+1965399D01*
X-2139309Y+1919679D01*
X-2228209Y+1919679D01*
X-2272659Y+1965399D01*
X-2272659Y+2011119D01*
X-2228209Y+2056839D01*
X-2161534Y+2056839D01*
X-2139309Y+2033979D01*
X-2094859Y+1919679D02*
X-2094859Y+2056839D01*
X-1961509Y+1919679D01*
X-1961509Y+2056839D01*
X-1917059Y+1919679D02*
X-1917059Y+2056839D01*
X-1828159Y+2056839D01*
X-1783709Y+2011119D01*
X-1783709Y+1965399D01*
X-1828159Y+1919679D01*
X-1917059Y+1919679D01*
X-2183759Y+2219399D02*
X-2139309Y+2219399D01*
X-2139309Y+2173679D01*
X-2228209Y+2173679D01*
X-2272659Y+2219399D01*
X-2272659Y+2265119D01*
X-2228209Y+2310839D01*
X-2161534Y+2310839D01*
X-2139309Y+2287979D01*
X-2094859Y+2173679D02*
X-2094859Y+2310839D01*
X-1961509Y+2173679D01*
X-1961509Y+2310839D01*
X-1917059Y+2173679D02*
X-1917059Y+2310839D01*
X-1828159Y+2310839D01*
X-1783709Y+2265119D01*
X-1783709Y+2219399D01*
X-1828159Y+2173679D01*
X-1917059Y+2173679D01*
X-2139309Y+2577539D02*
X-2250434Y+2577539D01*
X-2250434Y+2531819D01*
X-2161534Y+2531819D01*
X-2139309Y+2508959D01*
X-2139309Y+2463239D01*
X-2161534Y+2440379D01*
X-2228209Y+2440379D01*
X-2250434Y+2463239D01*
X-2094859Y+2577539D02*
X-2094859Y+2508959D01*
X-2028184Y+2440379D01*
X-1961509Y+2508959D01*
X-1961509Y+2577539D01*
X-2250434Y+2808679D02*
X-2228209Y+2831539D01*
X-2161534Y+2831539D01*
X-2139309Y+2808679D01*
X-2139309Y+2785819D01*
X-2161534Y+2762959D01*
X-2139309Y+2740099D01*
X-2139309Y+2717239D01*
X-2161534Y+2694379D01*
X-2228209Y+2694379D01*
X-2250434Y+2717239D01*
X-2205984Y+2762959D02*
X-2161534Y+2762959D01*
X-2028184Y+2717239D02*
X-2005959Y+2717239D01*
X-2005959Y+2694379D01*
X-2028184Y+2694379D01*
X-2028184Y+2717239D01*
X-1894834Y+2808679D02*
X-1872609Y+2831539D01*
X-1805934Y+2831539D01*
X-1783709Y+2808679D01*
X-1783709Y+2785819D01*
X-1805934Y+2762959D01*
X-1783709Y+2740099D01*
X-1783709Y+2717239D01*
X-1805934Y+2694379D01*
X-1872609Y+2694379D01*
X-1894834Y+2717239D01*
X-1850384Y+2762959D02*
X-1805934Y+2762959D01*
X-1739259Y+2831539D02*
X-1739259Y+2762959D01*
X-1672584Y+2694379D01*
X-1605909Y+2762959D01*
X-1605909Y+2831539D01*
X-2126609Y+2922979D02*
X-2259959Y+2922979D01*
X-2259959Y+3060139D01*
X-2126609Y+3060139D01*
X-2259959Y+2991559D02*
X-2171059Y+2991559D01*
X-2082159Y+2922979D02*
X-2082159Y+3060139D01*
X-1971034Y+3060139D01*
X-1948809Y+3037279D01*
X-1948809Y+3014419D01*
X-1971034Y+2991559D01*
X-2082159Y+2991559D01*
X-1971034Y+2991559D02*
X-1948809Y+2968699D01*
X-1948809Y+2922979D01*
X-1904359Y+2945839D02*
X-1882134Y+2922979D01*
X-1793234Y+2922979D01*
X-1771009Y+2945839D01*
X-1771009Y+2968699D01*
X-1793234Y+2991559D01*
X-1882134Y+2991559D01*
X-1904359Y+3014419D01*
X-1904359Y+3037279D01*
X-1882134Y+3060139D01*
X-1793234Y+3060139D01*
X-1771009Y+3037279D01*
X-1593209Y+2922979D02*
X-1726559Y+2922979D01*
X-1726559Y+3060139D01*
X-1593209Y+3060139D01*
X-1726559Y+2991559D02*
X-1637659Y+2991559D01*
X-1548759Y+3060139D02*
X-1415409Y+3060139D01*
X-1482084Y+3060139D02*
X-1482084Y+2922979D01*
X-2237734Y+3326839D02*
X-2148834Y+3326839D01*
X-2193284Y+3326839D02*
X-2193284Y+3189679D01*
X-2237734Y+3189679D02*
X-2148834Y+3189679D01*
X-2082159Y+3281119D02*
X-2037709Y+3326839D01*
X-1993259Y+3326839D01*
X-1948809Y+3281119D01*
X-1948809Y+3235399D01*
X-1993259Y+3189679D01*
X-2037709Y+3189679D01*
X-2082159Y+3235399D01*
X-2082159Y+3281119D01*
X-1904359Y+3189679D02*
X-1904359Y+3326839D01*
X-1793234Y+3326839D01*
X-1771009Y+3303979D01*
X-1771009Y+3281119D01*
X-1793234Y+3258259D01*
X-1904359Y+3258259D01*
X-1793234Y+3258259D02*
X-1771009Y+3235399D01*
X-1771009Y+3189679D01*
X-1593209Y+3189679D02*
X-1726559Y+3189679D01*
X-1726559Y+3326839D01*
X-1593209Y+3326839D01*
X-1726559Y+3258259D02*
X-1637659Y+3258259D01*
X-1548759Y+3189679D02*
X-1548759Y+3326839D01*
X-1415409Y+3326839D01*
X-1548759Y+3258259D02*
X-1459859Y+3258259D01*
X-2259959Y-645721D02*
X-2259959Y-554281D01*
X-2215509Y-508561D01*
X-2171059Y-508561D01*
X-2126609Y-554281D01*
X-2126609Y-645721D01*
X-2259959Y-600001D02*
X-2126609Y-600001D01*
X-2059934Y-508561D02*
X-1948809Y-508561D01*
X-1948809Y-531421D01*
X-2059934Y-645721D01*
X-2259959Y-2372921D02*
X-2259959Y-2281481D01*
X-2215509Y-2235761D01*
X-2171059Y-2235761D01*
X-2126609Y-2281481D01*
X-2126609Y-2372921D01*
X-2259959Y-2327201D02*
X-2126609Y-2327201D01*
X-2037709Y-2281481D02*
X-1993259Y-2235761D01*
X-1993259Y-2372921D01*
X-1882134Y-2258621D02*
X-1859909Y-2235761D01*
X-1793234Y-2235761D01*
X-1771009Y-2258621D01*
X-1771009Y-2281481D01*
X-1793234Y-2304341D01*
X-1771009Y-2327201D01*
X-1771009Y-2350061D01*
X-1793234Y-2372921D01*
X-1859909Y-2372921D01*
X-1882134Y-2350061D01*
X-1837684Y-2304341D02*
X-1793234Y-2304341D01*
X-2259959Y-2118921D02*
X-2259959Y-2027481D01*
X-2215509Y-1981761D01*
X-2171059Y-1981761D01*
X-2126609Y-2027481D01*
X-2126609Y-2118921D01*
X-2259959Y-2073201D02*
X-2126609Y-2073201D01*
X-2037709Y-2027481D02*
X-1993259Y-1981761D01*
X-1993259Y-2118921D01*
X-1882134Y-2004621D02*
X-1859909Y-1981761D01*
X-1793234Y-1981761D01*
X-1771009Y-2004621D01*
X-1771009Y-2027481D01*
X-1793234Y-2050341D01*
X-1859909Y-2050341D01*
X-1882134Y-2073201D01*
X-1882134Y-2118921D01*
X-1771009Y-2118921D01*
X-2272659Y-1877621D02*
X-2272659Y-1786181D01*
X-2228209Y-1740461D01*
X-2183759Y-1740461D01*
X-2139309Y-1786181D01*
X-2139309Y-1877621D01*
X-2272659Y-1831901D02*
X-2139309Y-1831901D01*
X-2050409Y-1786181D02*
X-2005959Y-1740461D01*
X-2005959Y-1877621D01*
X-1872609Y-1786181D02*
X-1828159Y-1740461D01*
X-1828159Y-1877621D01*
X-2272659Y-1623621D02*
X-2272659Y-1532181D01*
X-2228209Y-1486461D01*
X-2183759Y-1486461D01*
X-2139309Y-1532181D01*
X-2139309Y-1623621D01*
X-2272659Y-1577901D02*
X-2139309Y-1577901D01*
X-2050409Y-1532181D02*
X-2005959Y-1486461D01*
X-2005959Y-1623621D01*
X-1917059Y-1600761D02*
X-1917059Y-1509321D01*
X-1894834Y-1486461D01*
X-1805934Y-1486461D01*
X-1783709Y-1509321D01*
X-1783709Y-1600761D01*
X-1805934Y-1623621D01*
X-1894834Y-1623621D01*
X-1917059Y-1600761D01*
X-1917059Y-1623621D02*
X-1783709Y-1486461D01*
X-2272659Y-1344221D02*
X-2272659Y-1252781D01*
X-2228209Y-1207061D01*
X-2183759Y-1207061D01*
X-2139309Y-1252781D01*
X-2139309Y-1344221D01*
X-2272659Y-1298501D02*
X-2139309Y-1298501D01*
X-1961509Y-1252781D02*
X-1983734Y-1275641D01*
X-2050409Y-1275641D01*
X-2072634Y-1252781D01*
X-2072634Y-1229921D01*
X-2050409Y-1207061D01*
X-1983734Y-1207061D01*
X-1961509Y-1229921D01*
X-1961509Y-1321361D01*
X-1983734Y-1344221D01*
X-2050409Y-1344221D01*
X-2272659Y-1090221D02*
X-2272659Y-998781D01*
X-2228209Y-953061D01*
X-2183759Y-953061D01*
X-2139309Y-998781D01*
X-2139309Y-1090221D01*
X-2272659Y-1044501D02*
X-2139309Y-1044501D01*
X-2050409Y-1021641D02*
X-2072634Y-998781D01*
X-2072634Y-975921D01*
X-2050409Y-953061D01*
X-1983734Y-953061D01*
X-1961509Y-975921D01*
X-1961509Y-998781D01*
X-1983734Y-1021641D01*
X-2050409Y-1021641D01*
X-2072634Y-1044501D01*
X-2072634Y-1067361D01*
X-2050409Y-1090221D01*
X-1983734Y-1090221D01*
X-1961509Y-1067361D01*
X-1961509Y-1044501D01*
X-1983734Y-1021641D01*
X-2259959Y-2886001D02*
X-2259959Y-2804721D01*
X-2215509Y-2764081D01*
X-2171059Y-2764081D01*
X-2126609Y-2804721D01*
X-2126609Y-2886001D01*
X-2259959Y-2845361D02*
X-2126609Y-2845361D01*
X-2037709Y-2804721D02*
X-1993259Y-2764081D01*
X-1993259Y-2886001D01*
X-1771009Y-2764081D02*
X-1882134Y-2764081D01*
X-1882134Y-2804721D01*
X-1793234Y-2804721D01*
X-1771009Y-2825041D01*
X-1771009Y-2865681D01*
X-1793234Y-2886001D01*
X-1859909Y-2886001D01*
X-1882134Y-2865681D01*
X-2259959Y-2639621D02*
X-2259959Y-2548181D01*
X-2215509Y-2502461D01*
X-2171059Y-2502461D01*
X-2126609Y-2548181D01*
X-2126609Y-2639621D01*
X-2259959Y-2593901D02*
X-2126609Y-2593901D01*
X-2037709Y-2548181D02*
X-1993259Y-2502461D01*
X-1993259Y-2639621D01*
X-1771009Y-2593901D02*
X-1904359Y-2593901D01*
X-1815459Y-2502461D01*
X-1815459Y-2639621D01*
X-2193919Y-3104441D02*
X-2193919Y-3123491D01*
X-2214239Y-3123491D01*
X-2214239Y-3085391D01*
X-2193919Y-3066341D01*
X-2173599Y-3066341D01*
X-2153279Y-3085391D01*
X-2153279Y-3113966D01*
X-2163439Y-3123491D01*
X-2214239Y-3142541D02*
X-2153279Y-3142541D01*
X-2214239Y-3199691D01*
X-2153279Y-3199691D01*
X-2214239Y-3218741D02*
X-2153279Y-3218741D01*
X-2153279Y-3256841D01*
X-2173599Y-3275891D01*
X-2193919Y-3275891D01*
X-2214239Y-3256841D01*
X-2214239Y-3218741D01*
X-1607179Y-2717091D02*
X-1607179Y-2605966D01*
X-1652899Y-2605966D01*
X-1652899Y-2694866D01*
X-1675759Y-2717091D01*
X-1721479Y-2717091D01*
X-1744339Y-2694866D01*
X-1744339Y-2628191D01*
X-1721479Y-2605966D01*
X-1630039Y-2783766D02*
X-1607179Y-2805991D01*
X-1607179Y-2872666D01*
X-1630039Y-2894891D01*
X-1652899Y-2894891D01*
X-1675759Y-2872666D01*
X-1675759Y-2805991D01*
X-1698619Y-2783766D01*
X-1744339Y-2783766D01*
X-1744339Y-2894891D01*
X-1353179Y-2717091D02*
X-1353179Y-2605966D01*
X-1398899Y-2605966D01*
X-1398899Y-2694866D01*
X-1421759Y-2717091D01*
X-1467479Y-2717091D01*
X-1490339Y-2694866D01*
X-1490339Y-2628191D01*
X-1467479Y-2605966D01*
X-1467479Y-2761541D02*
X-1376039Y-2761541D01*
X-1353179Y-2783766D01*
X-1353179Y-2872666D01*
X-1376039Y-2894891D01*
X-1467479Y-2894891D01*
X-1490339Y-2872666D01*
X-1490339Y-2783766D01*
X-1467479Y-2761541D01*
X-1490339Y-2761541D02*
X-1353179Y-2894891D01*
X-1203319Y-2704391D02*
X-1203319Y-2571041D01*
X-1111879Y-2659941D01*
X-1249039Y-2659941D01*
X-1180459Y-2793291D02*
X-1157599Y-2771066D01*
X-1134739Y-2771066D01*
X-1111879Y-2793291D01*
X-1111879Y-2859966D01*
X-1134739Y-2882191D01*
X-1157599Y-2882191D01*
X-1180459Y-2859966D01*
X-1180459Y-2793291D01*
X-1203319Y-2771066D01*
X-1226179Y-2771066D01*
X-1249039Y-2793291D01*
X-1249039Y-2859966D01*
X-1226179Y-2882191D01*
X-1203319Y-2882191D01*
X-1180459Y-2859966D01*
X-949319Y-2704391D02*
X-949319Y-2571041D01*
X-857879Y-2659941D01*
X-995039Y-2659941D01*
X-880739Y-2882191D02*
X-857879Y-2859966D01*
X-857879Y-2793291D01*
X-880739Y-2771066D01*
X-972179Y-2771066D01*
X-995039Y-2793291D01*
X-995039Y-2859966D01*
X-972179Y-2882191D01*
X-949319Y-2882191D01*
X-926459Y-2859966D01*
X-926459Y-2771066D01*
X-695319Y-2704391D02*
X-695319Y-2571041D01*
X-603879Y-2659941D01*
X-741039Y-2659941D01*
X-695319Y-2882191D02*
X-695319Y-2748841D01*
X-603879Y-2837741D01*
X-741039Y-2837741D01*
X-441319Y-2704391D02*
X-441319Y-2571041D01*
X-349879Y-2659941D01*
X-487039Y-2659941D01*
X-372739Y-2771066D02*
X-349879Y-2793291D01*
X-349879Y-2859966D01*
X-372739Y-2882191D01*
X-395599Y-2882191D01*
X-418459Y-2859966D01*
X-418459Y-2793291D01*
X-441319Y-2771066D01*
X-487039Y-2771066D01*
X-487039Y-2882191D01*
X-200019Y-2691691D02*
X-200019Y-2558341D01*
X-108579Y-2647241D01*
X-245739Y-2647241D01*
X-222879Y-2736141D02*
X-131439Y-2736141D01*
X-108579Y-2758366D01*
X-108579Y-2847266D01*
X-131439Y-2869491D01*
X-222879Y-2869491D01*
X-245739Y-2847266D01*
X-245739Y-2758366D01*
X-222879Y-2736141D01*
X-245739Y-2736141D02*
X-108579Y-2869491D01*
X+122561Y-2580566D02*
X+145421Y-2602791D01*
X+145421Y-2669466D01*
X+122561Y-2691691D01*
X+99701Y-2691691D01*
X+76841Y-2669466D01*
X+53981Y-2691691D01*
X+31121Y-2691691D01*
X+8261Y-2669466D01*
X+8261Y-2602791D01*
X+31121Y-2580566D01*
X+76841Y-2625016D02*
X+76841Y-2669466D01*
X+76841Y-2780591D02*
X+99701Y-2758366D01*
X+122561Y-2758366D01*
X+145421Y-2780591D01*
X+145421Y-2847266D01*
X+122561Y-2869491D01*
X+99701Y-2869491D01*
X+76841Y-2847266D01*
X+76841Y-2780591D01*
X+53981Y-2758366D01*
X+31121Y-2758366D01*
X+8261Y-2780591D01*
X+8261Y-2847266D01*
X+31121Y-2869491D01*
X+53981Y-2869491D01*
X+76841Y-2847266D01*
X+414661Y-2580566D02*
X+437521Y-2602791D01*
X+437521Y-2669466D01*
X+414661Y-2691691D01*
X+391801Y-2691691D01*
X+368941Y-2669466D01*
X+346081Y-2691691D01*
X+323221Y-2691691D01*
X+300361Y-2669466D01*
X+300361Y-2602791D01*
X+323221Y-2580566D01*
X+368941Y-2625016D02*
X+368941Y-2669466D01*
X+414661Y-2869491D02*
X+437521Y-2847266D01*
X+437521Y-2780591D01*
X+414661Y-2758366D01*
X+323221Y-2758366D01*
X+300361Y-2780591D01*
X+300361Y-2847266D01*
X+323221Y-2869491D01*
X+346081Y-2869491D01*
X+368941Y-2847266D01*
X+368941Y-2758366D01*
X+655961Y-2567866D02*
X+678821Y-2590091D01*
X+678821Y-2656766D01*
X+655961Y-2678991D01*
X+633101Y-2678991D01*
X+610241Y-2656766D01*
X+587381Y-2678991D01*
X+564521Y-2678991D01*
X+541661Y-2656766D01*
X+541661Y-2590091D01*
X+564521Y-2567866D01*
X+610241Y-2612316D02*
X+610241Y-2656766D01*
X+587381Y-2856791D02*
X+587381Y-2723441D01*
X+678821Y-2812341D01*
X+541661Y-2812341D01*
X+909961Y-2567866D02*
X+932821Y-2590091D01*
X+932821Y-2656766D01*
X+909961Y-2678991D01*
X+887101Y-2678991D01*
X+864241Y-2656766D01*
X+841381Y-2678991D01*
X+818521Y-2678991D01*
X+795661Y-2656766D01*
X+795661Y-2590091D01*
X+818521Y-2567866D01*
X+864241Y-2612316D02*
X+864241Y-2656766D01*
X+909961Y-2745666D02*
X+932821Y-2767891D01*
X+932821Y-2834566D01*
X+909961Y-2856791D01*
X+887101Y-2856791D01*
X+864241Y-2834566D01*
X+864241Y-2767891D01*
X+841381Y-2745666D01*
X+795661Y-2745666D01*
X+795661Y-2856791D01*
X+1163961Y-2567866D02*
X+1186821Y-2590091D01*
X+1186821Y-2656766D01*
X+1163961Y-2678991D01*
X+1141101Y-2678991D01*
X+1118241Y-2656766D01*
X+1095381Y-2678991D01*
X+1072521Y-2678991D01*
X+1049661Y-2656766D01*
X+1049661Y-2590091D01*
X+1072521Y-2567866D01*
X+1118241Y-2612316D02*
X+1118241Y-2656766D01*
X+1072521Y-2723441D02*
X+1163961Y-2723441D01*
X+1186821Y-2745666D01*
X+1186821Y-2834566D01*
X+1163961Y-2856791D01*
X+1072521Y-2856791D01*
X+1049661Y-2834566D01*
X+1049661Y-2745666D01*
X+1072521Y-2723441D01*
X+1049661Y-2723441D02*
X+1186821Y-2856791D01*
X+1417961Y-2567866D02*
X+1440821Y-2590091D01*
X+1440821Y-2656766D01*
X+1417961Y-2678991D01*
X+1395101Y-2678991D01*
X+1372241Y-2656766D01*
X+1372241Y-2590091D01*
X+1349381Y-2567866D01*
X+1303661Y-2567866D01*
X+1303661Y-2678991D01*
X+1372241Y-2767891D02*
X+1395101Y-2745666D01*
X+1417961Y-2745666D01*
X+1440821Y-2767891D01*
X+1440821Y-2834566D01*
X+1417961Y-2856791D01*
X+1395101Y-2856791D01*
X+1372241Y-2834566D01*
X+1372241Y-2767891D01*
X+1349381Y-2745666D01*
X+1326521Y-2745666D01*
X+1303661Y-2767891D01*
X+1303661Y-2834566D01*
X+1326521Y-2856791D01*
X+1349381Y-2856791D01*
X+1372241Y-2834566D01*
X+1659261Y-2555166D02*
X+1682121Y-2577391D01*
X+1682121Y-2644066D01*
X+1659261Y-2666291D01*
X+1636401Y-2666291D01*
X+1613541Y-2644066D01*
X+1613541Y-2577391D01*
X+1590681Y-2555166D01*
X+1544961Y-2555166D01*
X+1544961Y-2666291D01*
X+1659261Y-2844091D02*
X+1682121Y-2821866D01*
X+1682121Y-2755191D01*
X+1659261Y-2732966D01*
X+1567821Y-2732966D01*
X+1544961Y-2755191D01*
X+1544961Y-2821866D01*
X+1567821Y-2844091D01*
X+1590681Y-2844091D01*
X+1613541Y-2821866D01*
X+1613541Y-2732966D01*
X+1913261Y-2555166D02*
X+1936121Y-2577391D01*
X+1936121Y-2644066D01*
X+1913261Y-2666291D01*
X+1890401Y-2666291D01*
X+1867541Y-2644066D01*
X+1867541Y-2577391D01*
X+1844681Y-2555166D01*
X+1798961Y-2555166D01*
X+1798961Y-2666291D01*
X+1844681Y-2844091D02*
X+1844681Y-2710741D01*
X+1936121Y-2799641D01*
X+1798961Y-2799641D01*
X+2154561Y-2555166D02*
X+2177421Y-2577391D01*
X+2177421Y-2644066D01*
X+2154561Y-2666291D01*
X+2131701Y-2666291D01*
X+2108841Y-2644066D01*
X+2108841Y-2577391D01*
X+2085981Y-2555166D01*
X+2040261Y-2555166D01*
X+2040261Y-2666291D01*
X+2154561Y-2732966D02*
X+2177421Y-2755191D01*
X+2177421Y-2821866D01*
X+2154561Y-2844091D01*
X+2131701Y-2844091D01*
X+2108841Y-2821866D01*
X+2108841Y-2755191D01*
X+2085981Y-2732966D01*
X+2040261Y-2732966D01*
X+2040261Y-2844091D01*
X-1594479Y-3580691D02*
X-1594479Y-3469566D01*
X-1640199Y-3469566D01*
X-1640199Y-3558466D01*
X-1663059Y-3580691D01*
X-1708779Y-3580691D01*
X-1731639Y-3558466D01*
X-1731639Y-3491791D01*
X-1708779Y-3469566D01*
X-1617339Y-3647366D02*
X-1594479Y-3669591D01*
X-1594479Y-3736266D01*
X-1617339Y-3758491D01*
X-1640199Y-3758491D01*
X-1663059Y-3736266D01*
X-1685919Y-3758491D01*
X-1708779Y-3758491D01*
X-1731639Y-3736266D01*
X-1731639Y-3669591D01*
X-1708779Y-3647366D01*
X-1663059Y-3691816D02*
X-1663059Y-3736266D01*
X-1340479Y-3580691D02*
X-1340479Y-3469566D01*
X-1386199Y-3469566D01*
X-1386199Y-3558466D01*
X-1409059Y-3580691D01*
X-1454779Y-3580691D01*
X-1477639Y-3558466D01*
X-1477639Y-3491791D01*
X-1454779Y-3469566D01*
X-1386199Y-3669591D02*
X-1340479Y-3714041D01*
X-1477639Y-3714041D01*
X-1165219Y-3593391D02*
X-1165219Y-3460041D01*
X-1073779Y-3548941D01*
X-1210939Y-3548941D01*
X-1119499Y-3771191D02*
X-1142359Y-3748966D01*
X-1142359Y-3682291D01*
X-1119499Y-3660066D01*
X-1096639Y-3660066D01*
X-1073779Y-3682291D01*
X-1073779Y-3748966D01*
X-1096639Y-3771191D01*
X-1188079Y-3771191D01*
X-1210939Y-3748966D01*
X-1210939Y-3682291D01*
X-911219Y-3593391D02*
X-911219Y-3460041D01*
X-819779Y-3548941D01*
X-956939Y-3548941D01*
X-819779Y-3660066D02*
X-819779Y-3771191D01*
X-842639Y-3771191D01*
X-956939Y-3660066D01*
X-657219Y-3593391D02*
X-657219Y-3460041D01*
X-565779Y-3548941D01*
X-702939Y-3548941D01*
X-565779Y-3771191D02*
X-565779Y-3660066D01*
X-611499Y-3660066D01*
X-611499Y-3748966D01*
X-634359Y-3771191D01*
X-680079Y-3771191D01*
X-702939Y-3748966D01*
X-702939Y-3682291D01*
X-680079Y-3660066D01*
X-390519Y-3593391D02*
X-390519Y-3460041D01*
X-299079Y-3548941D01*
X-436239Y-3548941D01*
X-321939Y-3660066D02*
X-299079Y-3682291D01*
X-299079Y-3748966D01*
X-321939Y-3771191D01*
X-344799Y-3771191D01*
X-367659Y-3748966D01*
X-390519Y-3771191D01*
X-413379Y-3771191D01*
X-436239Y-3748966D01*
X-436239Y-3682291D01*
X-413379Y-3660066D01*
X-367659Y-3704516D02*
X-367659Y-3748966D01*
X-149219Y-3593391D02*
X-149219Y-3460041D01*
X-57779Y-3548941D01*
X-194939Y-3548941D01*
X-103499Y-3682291D02*
X-57779Y-3726741D01*
X-194939Y-3726741D01*
X+173361Y-3456866D02*
X+196221Y-3479091D01*
X+196221Y-3545766D01*
X+173361Y-3567991D01*
X+150501Y-3567991D01*
X+127641Y-3545766D01*
X+104781Y-3567991D01*
X+81921Y-3567991D01*
X+59061Y-3545766D01*
X+59061Y-3479091D01*
X+81921Y-3456866D01*
X+127641Y-3501316D02*
X+127641Y-3545766D01*
X+150501Y-3745791D02*
X+127641Y-3723566D01*
X+127641Y-3656891D01*
X+150501Y-3634666D01*
X+173361Y-3634666D01*
X+196221Y-3656891D01*
X+196221Y-3723566D01*
X+173361Y-3745791D01*
X+81921Y-3745791D01*
X+59061Y-3723566D01*
X+59061Y-3656891D01*
X+427361Y-3456866D02*
X+450221Y-3479091D01*
X+450221Y-3545766D01*
X+427361Y-3567991D01*
X+404501Y-3567991D01*
X+381641Y-3545766D01*
X+358781Y-3567991D01*
X+335921Y-3567991D01*
X+313061Y-3545766D01*
X+313061Y-3479091D01*
X+335921Y-3456866D01*
X+381641Y-3501316D02*
X+381641Y-3545766D01*
X+450221Y-3634666D02*
X+450221Y-3745791D01*
X+427361Y-3745791D01*
X+313061Y-3634666D01*
X+668661Y-3456866D02*
X+691521Y-3479091D01*
X+691521Y-3545766D01*
X+668661Y-3567991D01*
X+645801Y-3567991D01*
X+622941Y-3545766D01*
X+600081Y-3567991D01*
X+577221Y-3567991D01*
X+554361Y-3545766D01*
X+554361Y-3479091D01*
X+577221Y-3456866D01*
X+622941Y-3501316D02*
X+622941Y-3545766D01*
X+691521Y-3745791D02*
X+691521Y-3634666D01*
X+645801Y-3634666D01*
X+645801Y-3723566D01*
X+622941Y-3745791D01*
X+577221Y-3745791D01*
X+554361Y-3723566D01*
X+554361Y-3656891D01*
X+577221Y-3634666D01*
X+922661Y-3456866D02*
X+945521Y-3479091D01*
X+945521Y-3545766D01*
X+922661Y-3567991D01*
X+899801Y-3567991D01*
X+876941Y-3545766D01*
X+854081Y-3567991D01*
X+831221Y-3567991D01*
X+808361Y-3545766D01*
X+808361Y-3479091D01*
X+831221Y-3456866D01*
X+876941Y-3501316D02*
X+876941Y-3545766D01*
X+922661Y-3634666D02*
X+945521Y-3656891D01*
X+945521Y-3723566D01*
X+922661Y-3745791D01*
X+899801Y-3745791D01*
X+876941Y-3723566D01*
X+854081Y-3745791D01*
X+831221Y-3745791D01*
X+808361Y-3723566D01*
X+808361Y-3656891D01*
X+831221Y-3634666D01*
X+876941Y-3679116D02*
X+876941Y-3723566D01*
X+1163961Y-3456866D02*
X+1186821Y-3479091D01*
X+1186821Y-3545766D01*
X+1163961Y-3567991D01*
X+1141101Y-3567991D01*
X+1118241Y-3545766D01*
X+1095381Y-3567991D01*
X+1072521Y-3567991D01*
X+1049661Y-3545766D01*
X+1049661Y-3479091D01*
X+1072521Y-3456866D01*
X+1118241Y-3501316D02*
X+1118241Y-3545766D01*
X+1141101Y-3656891D02*
X+1186821Y-3701341D01*
X+1049661Y-3701341D01*
D17*
X+2545721Y-3235974D02*
X+2545721Y-3223274D01*
X+2545721Y-3162314D02*
X+2545721Y-3141994D01*
X+2548261Y-3238514D02*
X+2548261Y-3220734D01*
X+2548261Y-3167394D02*
X+2548261Y-3136914D01*
X+2550801Y-3238514D02*
X+2550801Y-3220734D01*
X+2550801Y-3172474D02*
X+2550801Y-3134374D01*
X+2553341Y-3238514D02*
X+2553341Y-3220734D01*
X+2553341Y-3175014D02*
X+2553341Y-3131834D01*
X+2555881Y-3241054D02*
X+2555881Y-3230894D01*
X+2555881Y-3228354D02*
X+2555881Y-3218194D01*
X+2555881Y-3175014D02*
X+2555881Y-3159774D01*
X+2555881Y-3144534D02*
X+2555881Y-3129294D01*
X+2558421Y-3241054D02*
X+2558421Y-3230894D01*
X+2558421Y-3228354D02*
X+2558421Y-3218194D01*
X+2558421Y-3177554D02*
X+2558421Y-3164854D01*
X+2558421Y-3139454D02*
X+2558421Y-3126754D01*
X+2560961Y-3241054D02*
X+2560961Y-3230894D01*
X+2560961Y-3228354D02*
X+2560961Y-3218194D01*
X+2560961Y-3180094D02*
X+2560961Y-3167394D01*
X+2560961Y-3136914D02*
X+2560961Y-3126754D01*
X+2563501Y-3243594D02*
X+2563501Y-3230894D01*
X+2563501Y-3228354D02*
X+2563501Y-3215654D01*
X+2563501Y-3180094D02*
X+2563501Y-3169934D01*
X+2563501Y-3136914D02*
X+2563501Y-3124214D01*
X+2566041Y-3243594D02*
X+2566041Y-3233434D01*
X+2566041Y-3225814D02*
X+2566041Y-3215654D01*
X+2566041Y-3180094D02*
X+2566041Y-3169934D01*
X+2566041Y-3134374D02*
X+2566041Y-3124214D01*
X+2568581Y-3246134D02*
X+2568581Y-3233434D01*
X+2568581Y-3225814D02*
X+2568581Y-3213114D01*
X+2568581Y-3182634D02*
X+2568581Y-3172474D01*
X+2568581Y-3134374D02*
X+2568581Y-3124214D01*
X+2571121Y-3246134D02*
X+2571121Y-3235974D01*
X+2571121Y-3223274D02*
X+2571121Y-3213114D01*
X+2571121Y-3182634D02*
X+2571121Y-3172474D01*
X+2573661Y-3246134D02*
X+2573661Y-3235974D01*
X+2573661Y-3223274D02*
X+2573661Y-3213114D01*
X+2573661Y-3182634D02*
X+2573661Y-3172474D01*
X+2576201Y-3248674D02*
X+2576201Y-3235974D01*
X+2576201Y-3223274D02*
X+2576201Y-3210574D01*
X+2576201Y-3182634D02*
X+2576201Y-3172474D01*
X+2578741Y-3248674D02*
X+2578741Y-3238514D01*
X+2578741Y-3220734D02*
X+2578741Y-3210574D01*
X+2578741Y-3182634D02*
X+2578741Y-3172474D01*
X+2581281Y-3248674D02*
X+2581281Y-3238514D01*
X+2581281Y-3220734D02*
X+2581281Y-3210574D01*
X+2581281Y-3182634D02*
X+2581281Y-3172474D01*
X+2583821Y-3251214D02*
X+2583821Y-3238514D01*
X+2583821Y-3218194D02*
X+2583821Y-3208034D01*
X+2583821Y-3182634D02*
X+2583821Y-3172474D01*
X+2586361Y-3251214D02*
X+2586361Y-3241054D01*
X+2586361Y-3218194D02*
X+2586361Y-3208034D01*
X+2586361Y-3180094D02*
X+2586361Y-3169934D01*
X+2586361Y-3136914D02*
X+2586361Y-3131834D01*
X+2588901Y-3253754D02*
X+2588901Y-3241054D01*
X+2588901Y-3218194D02*
X+2588901Y-3205494D01*
X+2588901Y-3180094D02*
X+2588901Y-3169934D01*
X+2588901Y-3139454D02*
X+2588901Y-3126754D01*
X+2591441Y-3253754D02*
X+2591441Y-3243594D01*
X+2591441Y-3215654D02*
X+2591441Y-3205494D01*
X+2591441Y-3180094D02*
X+2591441Y-3167394D01*
X+2591441Y-3141994D02*
X+2591441Y-3126754D01*
X+2593981Y-3253754D02*
X+2593981Y-3243594D01*
X+2593981Y-3215654D02*
X+2593981Y-3205494D01*
X+2593981Y-3177554D02*
X+2593981Y-3162314D01*
X+2593981Y-3144534D02*
X+2593981Y-3129294D01*
X+2596521Y-3256294D02*
X+2596521Y-3243594D01*
X+2596521Y-3215654D02*
X+2596521Y-3202954D01*
X+2596521Y-3175014D02*
X+2596521Y-3129294D01*
X+2599061Y-3256294D02*
X+2599061Y-3246134D01*
X+2599061Y-3213114D02*
X+2599061Y-3202954D01*
X+2599061Y-3172474D02*
X+2599061Y-3129294D01*
X+2601601Y-3256294D02*
X+2601601Y-3246134D01*
X+2601601Y-3213114D02*
X+2601601Y-3202954D01*
X+2601601Y-3169934D02*
X+2601601Y-3141994D01*
X+2601601Y-3139454D02*
X+2601601Y-3129294D01*
X+2604141Y-3258834D02*
X+2604141Y-3248674D01*
X+2604141Y-3210574D02*
X+2604141Y-3200414D01*
X+2604141Y-3164854D02*
X+2604141Y-3147074D01*
X+2604141Y-3139454D02*
X+2604141Y-3129294D01*
X+2606681Y-3258834D02*
X+2606681Y-3248674D01*
X+2606681Y-3210574D02*
X+2606681Y-3200414D01*
X+2606681Y-3141994D02*
X+2606681Y-3131834D01*
X+2609221Y-3261374D02*
X+2609221Y-3248674D01*
X+2609221Y-3210574D02*
X+2609221Y-3197874D01*
X+2609221Y-3141994D02*
X+2609221Y-3131834D01*
X+2611761Y-3261374D02*
X+2611761Y-3251214D01*
X+2611761Y-3208034D02*
X+2611761Y-3197874D01*
X+2611761Y-3141994D02*
X+2611761Y-3131834D01*
X+2614301Y-3261374D02*
X+2614301Y-3251214D01*
X+2614301Y-3208034D02*
X+2614301Y-3197874D01*
X+2614301Y-3141994D02*
X+2614301Y-3131834D01*
X+2616841Y-3263914D02*
X+2616841Y-3251214D01*
X+2616841Y-3205494D02*
X+2616841Y-3195334D01*
X+2616841Y-3144534D02*
X+2616841Y-3134374D01*
X+2619381Y-3263914D02*
X+2619381Y-3253754D01*
X+2619381Y-3205494D02*
X+2619381Y-3195334D01*
X+2619381Y-3144534D02*
X+2619381Y-3134374D01*
X+2621921Y-3263914D02*
X+2621921Y-3253754D01*
X+2621921Y-3205494D02*
X+2621921Y-3195334D01*
X+2621921Y-3144534D02*
X+2621921Y-3134374D01*
X+2624461Y-3266454D02*
X+2624461Y-3256294D01*
X+2624461Y-3202954D02*
X+2624461Y-3192794D01*
X+2624461Y-3177554D02*
X+2624461Y-3134374D01*
X+2627001Y-3266454D02*
X+2627001Y-3256294D01*
X+2627001Y-3202954D02*
X+2627001Y-3192794D01*
X+2627001Y-3177554D02*
X+2627001Y-3134374D01*
X+2629541Y-3268994D02*
X+2629541Y-3256294D01*
X+2629541Y-3202954D02*
X+2629541Y-3190254D01*
X+2629541Y-3177554D02*
X+2629541Y-3136914D01*
X+2632081Y-3268994D02*
X+2632081Y-3258834D01*
X+2632081Y-3200414D02*
X+2632081Y-3190254D01*
X+2632081Y-3177554D02*
X+2632081Y-3136914D01*
D16*
X+2591441Y-3104441D02*
X+2591441Y-3040941D01*
X+2540641Y-3040941D01*
X+2591441Y-3218741D02*
X+2591441Y-3294941D01*
X+2540641Y-3294941D01*
X+1194441Y-470461D02*
X+1327791Y-470461D01*
X+1261116Y-470461D02*
X+1261116Y-607621D01*
X+1372241Y-470461D02*
X+1505591Y-607621D01*
X+1372241Y-607621D02*
X+1505591Y-470461D01*
X+1572266Y-493321D02*
X+1594491Y-470461D01*
X+1661166Y-470461D01*
X+1683391Y-493321D01*
X+1683391Y-516181D01*
X+1661166Y-539041D01*
X+1683391Y-561901D01*
X+1683391Y-584761D01*
X+1661166Y-607621D01*
X+1594491Y-607621D01*
X+1572266Y-584761D01*
X+1616716Y-539041D02*
X+1661166Y-539041D01*
X+1950091Y-516181D02*
X+1994541Y-470461D01*
X+1994541Y-607621D01*
X+2216791Y-561901D02*
X+2083441Y-561901D01*
X+2172341Y-470461D01*
X+2172341Y-607621D01*
X+1194441Y-861621D02*
X+1194441Y-724461D01*
X+1305566Y-724461D01*
X+1327791Y-747321D01*
X+1327791Y-770181D01*
X+1305566Y-793041D01*
X+1194441Y-793041D01*
X+1305566Y-793041D02*
X+1327791Y-815901D01*
X+1327791Y-861621D01*
X+1372241Y-724461D02*
X+1505591Y-861621D01*
X+1372241Y-861621D02*
X+1505591Y-724461D01*
X+1572266Y-747321D02*
X+1594491Y-724461D01*
X+1661166Y-724461D01*
X+1683391Y-747321D01*
X+1683391Y-770181D01*
X+1661166Y-793041D01*
X+1683391Y-815901D01*
X+1683391Y-838761D01*
X+1661166Y-861621D01*
X+1594491Y-861621D01*
X+1572266Y-838761D01*
X+1616716Y-793041D02*
X+1661166Y-793041D01*
X+1950091Y-770181D02*
X+1994541Y-724461D01*
X+1994541Y-861621D01*
X+2216791Y-724461D02*
X+2105666Y-724461D01*
X+2105666Y-770181D01*
X+2194566Y-770181D01*
X+2216791Y-793041D01*
X+2216791Y-838761D01*
X+2194566Y-861621D01*
X+2127891Y-861621D01*
X+2105666Y-838761D01*
X+1194441Y-978461D02*
X+1327791Y-978461D01*
X+1261116Y-978461D02*
X+1261116Y-1115621D01*
X+1372241Y-978461D02*
X+1505591Y-1115621D01*
X+1372241Y-1115621D02*
X+1505591Y-978461D01*
X+1572266Y-1001321D02*
X+1594491Y-978461D01*
X+1661166Y-978461D01*
X+1683391Y-1001321D01*
X+1683391Y-1024181D01*
X+1661166Y-1047041D01*
X+1594491Y-1047041D01*
X+1572266Y-1069901D01*
X+1572266Y-1115621D01*
X+1683391Y-1115621D01*
X+1950091Y-1024181D02*
X+1994541Y-978461D01*
X+1994541Y-1115621D01*
X+2216791Y-1001321D02*
X+2194566Y-978461D01*
X+2127891Y-978461D01*
X+2105666Y-1001321D01*
X+2105666Y-1092761D01*
X+2127891Y-1115621D01*
X+2194566Y-1115621D01*
X+2216791Y-1092761D01*
X+2216791Y-1069901D01*
X+2194566Y-1047041D01*
X+2105666Y-1047041D01*
X+1194441Y-1369621D02*
X+1194441Y-1232461D01*
X+1305566Y-1232461D01*
X+1327791Y-1255321D01*
X+1327791Y-1278181D01*
X+1305566Y-1301041D01*
X+1194441Y-1301041D01*
X+1305566Y-1301041D02*
X+1327791Y-1323901D01*
X+1327791Y-1369621D01*
X+1372241Y-1232461D02*
X+1505591Y-1369621D01*
X+1372241Y-1369621D02*
X+1505591Y-1232461D01*
X+1572266Y-1255321D02*
X+1594491Y-1232461D01*
X+1661166Y-1232461D01*
X+1683391Y-1255321D01*
X+1683391Y-1278181D01*
X+1661166Y-1301041D01*
X+1594491Y-1301041D01*
X+1572266Y-1323901D01*
X+1572266Y-1369621D01*
X+1683391Y-1369621D01*
X+1950091Y-1278181D02*
X+1994541Y-1232461D01*
X+1994541Y-1369621D01*
X+2105666Y-1232461D02*
X+2216791Y-1232461D01*
X+2216791Y-1255321D01*
X+2105666Y-1369621D01*
X+1194441Y-1473761D02*
X+1327791Y-1473761D01*
X+1261116Y-1473761D02*
X+1261116Y-1610921D01*
X+1372241Y-1473761D02*
X+1505591Y-1610921D01*
X+1372241Y-1610921D02*
X+1505591Y-1473761D01*
X+1594491Y-1519481D02*
X+1638941Y-1473761D01*
X+1638941Y-1610921D01*
X+1950091Y-1519481D02*
X+1994541Y-1473761D01*
X+1994541Y-1610921D01*
X+2127891Y-1542341D02*
X+2105666Y-1519481D01*
X+2105666Y-1496621D01*
X+2127891Y-1473761D01*
X+2194566Y-1473761D01*
X+2216791Y-1496621D01*
X+2216791Y-1519481D01*
X+2194566Y-1542341D01*
X+2127891Y-1542341D01*
X+2105666Y-1565201D01*
X+2105666Y-1588061D01*
X+2127891Y-1610921D01*
X+2194566Y-1610921D01*
X+2216791Y-1588061D01*
X+2216791Y-1565201D01*
X+2194566Y-1542341D01*
X+1194441Y-1864921D02*
X+1194441Y-1727761D01*
X+1305566Y-1727761D01*
X+1327791Y-1750621D01*
X+1327791Y-1773481D01*
X+1305566Y-1796341D01*
X+1194441Y-1796341D01*
X+1305566Y-1796341D02*
X+1327791Y-1819201D01*
X+1327791Y-1864921D01*
X+1372241Y-1727761D02*
X+1505591Y-1864921D01*
X+1372241Y-1864921D02*
X+1505591Y-1727761D01*
X+1594491Y-1773481D02*
X+1638941Y-1727761D01*
X+1638941Y-1864921D01*
X+1950091Y-1773481D02*
X+1994541Y-1727761D01*
X+1994541Y-1864921D01*
X+2216791Y-1773481D02*
X+2194566Y-1796341D01*
X+2127891Y-1796341D01*
X+2105666Y-1773481D01*
X+2105666Y-1750621D01*
X+2127891Y-1727761D01*
X+2194566Y-1727761D01*
X+2216791Y-1750621D01*
X+2216791Y-1842061D01*
X+2194566Y-1864921D01*
X+2127891Y-1864921D01*
X+1194441Y-2096061D02*
X+1216666Y-2118921D01*
X+1305566Y-2118921D01*
X+1327791Y-2096061D01*
X+1327791Y-2073201D01*
X+1305566Y-2050341D01*
X+1216666Y-2050341D01*
X+1194441Y-2027481D01*
X+1194441Y-2004621D01*
X+1216666Y-1981761D01*
X+1305566Y-1981761D01*
X+1327791Y-2004621D01*
X+1372241Y-2118921D02*
X+1372241Y-1981761D01*
X+1461141Y-1981761D01*
X+1505591Y-2027481D01*
X+1505591Y-2073201D01*
X+1461141Y-2118921D01*
X+1372241Y-2118921D01*
X+1550041Y-2118921D02*
X+1550041Y-2027481D01*
X+1594491Y-1981761D01*
X+1638941Y-1981761D01*
X+1683391Y-2027481D01*
X+1683391Y-2118921D01*
X+1550041Y-2073201D02*
X+1683391Y-2073201D01*
X+1927866Y-2004621D02*
X+1950091Y-1981761D01*
X+2016766Y-1981761D01*
X+2038991Y-2004621D01*
X+2038991Y-2027481D01*
X+2016766Y-2050341D01*
X+1950091Y-2050341D01*
X+1927866Y-2073201D01*
X+1927866Y-2118921D01*
X+2038991Y-2118921D01*
X+2083441Y-2096061D02*
X+2083441Y-2004621D01*
X+2105666Y-1981761D01*
X+2194566Y-1981761D01*
X+2216791Y-2004621D01*
X+2216791Y-2096061D01*
X+2194566Y-2118921D01*
X+2105666Y-2118921D01*
X+2083441Y-2096061D01*
X+2083441Y-2118921D02*
X+2216791Y-1981761D01*
X+1194441Y-2350061D02*
X+1216666Y-2372921D01*
X+1305566Y-2372921D01*
X+1327791Y-2350061D01*
X+1327791Y-2327201D01*
X+1305566Y-2304341D01*
X+1216666Y-2304341D01*
X+1194441Y-2281481D01*
X+1194441Y-2258621D01*
X+1216666Y-2235761D01*
X+1305566Y-2235761D01*
X+1327791Y-2258621D01*
X+1505591Y-2350061D02*
X+1483366Y-2372921D01*
X+1416691Y-2372921D01*
X+1372241Y-2327201D01*
X+1372241Y-2281481D01*
X+1416691Y-2235761D01*
X+1483366Y-2235761D01*
X+1505591Y-2258621D01*
X+1550041Y-2235761D02*
X+1550041Y-2372921D01*
X+1683391Y-2372921D01*
X+1927866Y-2258621D02*
X+1950091Y-2235761D01*
X+2016766Y-2235761D01*
X+2038991Y-2258621D01*
X+2038991Y-2281481D01*
X+2016766Y-2304341D01*
X+1950091Y-2304341D01*
X+1927866Y-2327201D01*
X+1927866Y-2372921D01*
X+2038991Y-2372921D01*
X+2127891Y-2281481D02*
X+2172341Y-2235761D01*
X+2172341Y-2372921D01*
X+2127891Y+2140659D02*
X+2105666Y+2163519D01*
X+2105666Y+2186379D01*
X+2127891Y+2209239D01*
X+2194566Y+2209239D01*
X+2216791Y+2186379D01*
X+2216791Y+2163519D01*
X+2194566Y+2140659D01*
X+2127891Y+2140659D01*
X+2105666Y+2117799D01*
X+2105666Y+2094939D01*
X+2127891Y+2072079D01*
X+2194566Y+2072079D01*
X+2216791Y+2094939D01*
X+2216791Y+2117799D01*
X+2194566Y+2140659D01*
X+2216791Y+2430219D02*
X+2194566Y+2407359D01*
X+2127891Y+2407359D01*
X+2105666Y+2430219D01*
X+2105666Y+2453079D01*
X+2127891Y+2475939D01*
X+2194566Y+2475939D01*
X+2216791Y+2453079D01*
X+2216791Y+2361639D01*
X+2194566Y+2338779D01*
X+2127891Y+2338779D01*
X+1950091Y+2684219D02*
X+1994541Y+2729939D01*
X+1994541Y+2592779D01*
X+2083441Y+2615639D02*
X+2083441Y+2707079D01*
X+2105666Y+2729939D01*
X+2194566Y+2729939D01*
X+2216791Y+2707079D01*
X+2216791Y+2615639D01*
X+2194566Y+2592779D01*
X+2105666Y+2592779D01*
X+2083441Y+2615639D01*
X+2083441Y+2592779D02*
X+2216791Y+2729939D01*
X+1950091Y+2938219D02*
X+1994541Y+2983939D01*
X+1994541Y+2846779D01*
X+2127891Y+2938219D02*
X+2172341Y+2983939D01*
X+2172341Y+2846779D01*
X+1937391Y+3179519D02*
X+1981841Y+3225239D01*
X+1981841Y+3088079D01*
X+2092966Y+3202379D02*
X+2115191Y+3225239D01*
X+2181866Y+3225239D01*
X+2204091Y+3202379D01*
X+2204091Y+3179519D01*
X+2181866Y+3156659D01*
X+2115191Y+3156659D01*
X+2092966Y+3133799D01*
X+2092966Y+3088079D01*
X+2204091Y+3088079D01*
X+1937391Y+3433519D02*
X+1981841Y+3479239D01*
X+1981841Y+3342079D01*
X+2092966Y+3456379D02*
X+2115191Y+3479239D01*
X+2181866Y+3479239D01*
X+2204091Y+3456379D01*
X+2204091Y+3433519D01*
X+2181866Y+3410659D01*
X+2204091Y+3387799D01*
X+2204091Y+3364939D01*
X+2181866Y+3342079D01*
X+2115191Y+3342079D01*
X+2092966Y+3364939D01*
X+2137416Y+3410659D02*
X+2181866Y+3410659D01*
X+1804041Y+3641799D02*
X+1848491Y+3641799D01*
X+1848491Y+3596079D01*
X+1759591Y+3596079D01*
X+1715141Y+3641799D01*
X+1715141Y+3687519D01*
X+1759591Y+3733239D01*
X+1826266Y+3733239D01*
X+1848491Y+3710379D01*
X+1892941Y+3596079D02*
X+1892941Y+3733239D01*
X+2026291Y+3596079D01*
X+2026291Y+3733239D01*
X+2070741Y+3596079D02*
X+2070741Y+3733239D01*
X+2159641Y+3733239D01*
X+2204091Y+3687519D01*
X+2204091Y+3641799D01*
X+2159641Y+3596079D01*
X+2070741Y+3596079D01*
X+1537341Y+3850079D02*
X+1537341Y+3941519D01*
X+1581791Y+3987239D01*
X+1626241Y+3987239D01*
X+1670691Y+3941519D01*
X+1670691Y+3850079D01*
X+1537341Y+3895799D02*
X+1670691Y+3895799D01*
X+1715141Y+3850079D02*
X+1715141Y+3987239D01*
X+1826266Y+3987239D01*
X+1848491Y+3964379D01*
X+1848491Y+3941519D01*
X+1826266Y+3918659D01*
X+1715141Y+3918659D01*
X+1826266Y+3918659D02*
X+1848491Y+3895799D01*
X+1848491Y+3850079D01*
X+2026291Y+3850079D02*
X+1892941Y+3850079D01*
X+1892941Y+3987239D01*
X+2026291Y+3987239D01*
X+1892941Y+3918659D02*
X+1981841Y+3918659D01*
X+2070741Y+3850079D02*
X+2070741Y+3987239D01*
X+2204091Y+3987239D01*
X+2070741Y+3918659D02*
X+2159641Y+3918659D01*
X+1550041Y+37539D02*
X+1683391Y+37539D01*
X+1616716Y+37539D02*
X+1616716Y-99621D01*
X+1727841Y-99621D02*
X+1727841Y+37539D01*
X+1838966Y+37539D01*
X+1861191Y+14679D01*
X+1861191Y-8181D01*
X+1838966Y-31041D01*
X+1727841Y-31041D01*
X+1838966Y-31041D02*
X+1861191Y-53901D01*
X+1861191Y-99621D01*
X+1994541Y+37539D02*
X+1927866Y-31041D01*
X+1994541Y-99621D01*
X+2083441Y-76761D02*
X+2083441Y+14679D01*
X+2105666Y+37539D01*
X+2194566Y+37539D01*
X+2216791Y+14679D01*
X+2216791Y-76761D01*
X+2194566Y-99621D01*
X+2105666Y-99621D01*
X+2083441Y-76761D01*
X+2083441Y-99621D02*
X+2216791Y+37539D01*
X+1550041Y+291539D02*
X+1683391Y+291539D01*
X+1616716Y+291539D02*
X+1616716Y+154379D01*
X+1727841Y+291539D02*
X+1861191Y+154379D01*
X+1727841Y+154379D02*
X+1861191Y+291539D01*
X+1950091Y+291539D02*
X+2016766Y+222959D01*
X+1950091Y+154379D01*
X+2127891Y+245819D02*
X+2172341Y+291539D01*
X+2172341Y+154379D01*
X+2105666Y+509979D02*
X+2127891Y+532839D01*
X+2194566Y+532839D01*
X+2216791Y+509979D01*
X+2216791Y+487119D01*
X+2194566Y+464259D01*
X+2127891Y+464259D01*
X+2105666Y+441399D01*
X+2105666Y+395679D01*
X+2216791Y+395679D01*
X+2105666Y+776679D02*
X+2127891Y+799539D01*
X+2194566Y+799539D01*
X+2216791Y+776679D01*
X+2216791Y+753819D01*
X+2194566Y+730959D01*
X+2216791Y+708099D01*
X+2216791Y+685239D01*
X+2194566Y+662379D01*
X+2127891Y+662379D01*
X+2105666Y+685239D01*
X+2150116Y+730959D02*
X+2194566Y+730959D01*
X+2216791Y+949399D02*
X+2083441Y+949399D01*
X+2172341Y+1040839D01*
X+2172341Y+903679D01*
X+2216791Y+1294839D02*
X+2105666Y+1294839D01*
X+2105666Y+1249119D01*
X+2194566Y+1249119D01*
X+2216791Y+1226259D01*
X+2216791Y+1180539D01*
X+2194566Y+1157679D01*
X+2127891Y+1157679D01*
X+2105666Y+1180539D01*
X+2216791Y+1525979D02*
X+2194566Y+1548839D01*
X+2127891Y+1548839D01*
X+2105666Y+1525979D01*
X+2105666Y+1434539D01*
X+2127891Y+1411679D01*
X+2194566Y+1411679D01*
X+2216791Y+1434539D01*
X+2216791Y+1457399D01*
X+2194566Y+1480259D01*
X+2105666Y+1480259D01*
X+2105666Y+1815539D02*
X+2216791Y+1815539D01*
X+2216791Y+1792679D01*
X+2105666Y+1678379D01*
X+1715141Y+4139639D02*
X+1737366Y+4116779D01*
X+1826266Y+4116779D01*
X+1848491Y+4139639D01*
X+1848491Y+4162499D01*
X+1826266Y+4185359D01*
X+1737366Y+4185359D01*
X+1715141Y+4208219D01*
X+1715141Y+4231079D01*
X+1737366Y+4253939D01*
X+1826266Y+4253939D01*
X+1848491Y+4231079D01*
X+1892941Y+4116779D02*
X+1892941Y+4253939D01*
X+1981841Y+4253939D01*
X+2026291Y+4208219D01*
X+2026291Y+4162499D01*
X+1981841Y+4116779D01*
X+1892941Y+4116779D01*
X+2070741Y+4116779D02*
X+2070741Y+4208219D01*
X+2115191Y+4253939D01*
X+2159641Y+4253939D01*
X+2204091Y+4208219D01*
X+2204091Y+4116779D01*
X+2070741Y+4162499D02*
X+2204091Y+4162499D01*
X+1715141Y+4393639D02*
X+1737366Y+4370779D01*
X+1826266Y+4370779D01*
X+1848491Y+4393639D01*
X+1848491Y+4416499D01*
X+1826266Y+4439359D01*
X+1737366Y+4439359D01*
X+1715141Y+4462219D01*
X+1715141Y+4485079D01*
X+1737366Y+4507939D01*
X+1826266Y+4507939D01*
X+1848491Y+4485079D01*
X+2026291Y+4393639D02*
X+2004066Y+4370779D01*
X+1937391Y+4370779D01*
X+1892941Y+4416499D01*
X+1892941Y+4462219D01*
X+1937391Y+4507939D01*
X+2004066Y+4507939D01*
X+2026291Y+4485079D01*
X+2070741Y+4507939D02*
X+2070741Y+4370779D01*
X+2204091Y+4370779D01*
X-187319Y+3150309D02*
X-187319Y+3277309D01*
X-154299Y+3309059D01*
X-22219Y+3309059D01*
X+10801Y+3277309D01*
X+10801Y+3150309D01*
X-22219Y+3118559D01*
X-121279Y+3118559D01*
X-121279Y+3213809D01*
X-55239Y+3213809D01*
X-55239Y+3150309D01*
X-187319Y+3055059D02*
X-55239Y+3055059D01*
X+10801Y+2991559D01*
X+10801Y+2928059D01*
X-55239Y+2864559D01*
X-187319Y+2864559D01*
X-121279Y+3055059D02*
X-121279Y+2864559D01*
X+10801Y+2705809D02*
X-187319Y+2705809D01*
X-88259Y+2547059D02*
X-55239Y+2515309D01*
X-55239Y+2388309D01*
X-88259Y+2356559D01*
X-154299Y+2356559D01*
X-187319Y+2388309D01*
X-187319Y+2515309D01*
X-154299Y+2547059D01*
X-187319Y+2547059D02*
X+10801Y+2547059D01*
X-187319Y+2102559D02*
X-187319Y+2293059D01*
X+10801Y+2293059D01*
X+10801Y+2102559D01*
X-88259Y+2293059D02*
X-88259Y+2166059D01*
X-55239Y+2007309D02*
X-55239Y+1880309D01*
X-88259Y+1848559D01*
X-187319Y+1848559D01*
X-187319Y+2007309D01*
X-154299Y+2039059D01*
X-121279Y+2007309D01*
X-121279Y+1848559D01*
X-88259Y+1594559D02*
X-55239Y+1626309D01*
X-55239Y+1753309D01*
X-88259Y+1785059D01*
X-121279Y+1785059D01*
X-154299Y+1753309D01*
X-154299Y+1626309D01*
X-121279Y+1594559D01*
X-55239Y+1594559D02*
X-187319Y+1594559D01*
X-220339Y+1626309D01*
X-220339Y+1785059D01*
X+10801Y+1435809D02*
X-187319Y+1435809D01*
X-121279Y+1277059D02*
X-121279Y+1086559D01*
X-88259Y+1086559D01*
X-55239Y+1118309D01*
X-55239Y+1245309D01*
X-88259Y+1277059D01*
X-154299Y+1277059D01*
X-187319Y+1245309D01*
X-187319Y+1118309D01*
X+257181Y+3321759D02*
X+389261Y+3321759D01*
X+455301Y+3258259D01*
X+455301Y+3194759D01*
X+389261Y+3131259D01*
X+257181Y+3131259D01*
X+323221Y+3321759D02*
X+323221Y+3131259D01*
X+257181Y+3067759D02*
X+455301Y+3067759D01*
X+455301Y+2909009D01*
X+422281Y+2877259D01*
X+389261Y+2877259D01*
X+356241Y+2909009D01*
X+356241Y+3067759D01*
X+356241Y+2909009D02*
X+323221Y+2877259D01*
X+257181Y+2877259D01*
X+257181Y+2813759D02*
X+455301Y+2813759D01*
X+455301Y+2686759D01*
X+389261Y+2623259D01*
X+323221Y+2623259D01*
X+257181Y+2686759D01*
X+257181Y+2813759D01*
X+455301Y+2559759D02*
X+290201Y+2559759D01*
X+257181Y+2528009D01*
X+257181Y+2401009D01*
X+290201Y+2369259D01*
X+455301Y+2369259D01*
X+455301Y+2274009D02*
X+455301Y+2147009D01*
X+455301Y+2210509D02*
X+257181Y+2210509D01*
X+257181Y+2274009D02*
X+257181Y+2147009D01*
X+257181Y+2051759D02*
X+455301Y+2051759D01*
X+257181Y+1861259D01*
X+455301Y+1861259D01*
X+389261Y+1797759D02*
X+455301Y+1734259D01*
X+455301Y+1670759D01*
X+389261Y+1607259D01*
X+323221Y+1607259D01*
X+257181Y+1670759D01*
X+257181Y+1734259D01*
X+323221Y+1797759D01*
X+389261Y+1797759D01*
X+257181Y+1289759D02*
X+455301Y+1289759D01*
X+356241Y+1194509D01*
X+455301Y+1099259D01*
X+257181Y+1099259D01*
X+257181Y+845259D02*
X+257181Y+1035759D01*
X+455301Y+1035759D01*
X+455301Y+845259D01*
X+356241Y+1035759D02*
X+356241Y+908759D01*
X+323221Y+654759D02*
X+323221Y+591259D01*
X+257181Y+591259D01*
X+257181Y+718259D01*
X+323221Y+781759D01*
X+389261Y+781759D01*
X+455301Y+718259D01*
X+455301Y+623009D01*
X+422281Y+591259D01*
X+257181Y+527759D02*
X+389261Y+527759D01*
X+455301Y+464259D01*
X+455301Y+400759D01*
X+389261Y+337259D01*
X+257181Y+337259D01*
X+323221Y+527759D02*
X+323221Y+337259D01*
X+422281Y-11991D02*
X+455301Y-43741D01*
X+455301Y-138991D01*
X+422281Y-170741D01*
X+389261Y-170741D01*
X+356241Y-138991D01*
X+356241Y-43741D01*
X+323221Y-11991D01*
X+257181Y-11991D01*
X+257181Y-170741D01*
X+455301Y-424741D02*
X+455301Y-265991D01*
X+389261Y-265991D01*
X+389261Y-392991D01*
X+356241Y-424741D01*
X+290201Y-424741D01*
X+257181Y-392991D01*
X+257181Y-297741D01*
X+290201Y-265991D01*
X+422281Y-678741D02*
X+455301Y-646991D01*
X+455301Y-551741D01*
X+422281Y-519991D01*
X+290201Y-519991D01*
X+257181Y-551741D01*
X+257181Y-646991D01*
X+290201Y-678741D01*
X+323221Y-678741D01*
X+356241Y-646991D01*
X+356241Y-519991D01*
X+290201Y-742241D02*
X+422281Y-742241D01*
X+455301Y-773991D01*
X+455301Y-900991D01*
X+422281Y-932741D01*
X+290201Y-932741D01*
X+257181Y-900991D01*
X+257181Y-773991D01*
X+290201Y-742241D01*
X+257181Y-742241D02*
X+455301Y-932741D01*
X-8161759Y-3577041D02*
X-8161759Y+6328959D01*
X-2827759Y-3284941D02*
X-2827759Y+6328959D01*
X-8161759Y-3577041D02*
X-7907759Y-3577041D01*
X-7653759Y-3831041D02*
X-7907759Y-3577041D01*
X-7653759Y-3831041D02*
X-4351759Y-3831041D01*
X-4097759Y-3577041D01*
X-3081759Y-3577041D01*
X-8161759Y+6328959D02*
X-2827759Y+6328959D01*
X-2827759Y-3284941D02*
X-3081759Y-3577041D01*
X-3208759Y-148041D02*
X-2954759Y-148041D01*
X-2954759Y+1883959D01*
X-3208759Y+1883959D01*
X-3208759Y-148041D01*
X-3208759Y-2446741D02*
X-2954759Y-2446741D01*
X-2954759Y-414741D01*
X-3208759Y-414741D01*
X-3208759Y-2446741D01*
X-7272759Y-3411941D02*
X-2954759Y-3411941D01*
X-2954759Y-2903941D01*
X-7272759Y-2903941D01*
X-7272759Y-3411941D01*
X-7526759Y-3411941D02*
X-7272759Y-3411941D01*
X-7272759Y-2903941D01*
X-7526759Y-2903941D01*
X-7526759Y-3411941D01*
X-8034759Y-2954741D02*
X-7780759Y-2954741D01*
X-7780759Y-922741D01*
X-8034759Y-922741D01*
X-8034759Y-2954741D01*
X-8034759Y-656041D02*
X-7780759Y-656041D01*
X-7780759Y+1375959D01*
X-8034759Y+1375959D01*
X-8034759Y-656041D01*
X-3208759Y+2010959D02*
X-2954759Y+2010959D01*
X-2954759Y+4550959D01*
X-3208759Y+4550959D01*
X-3208759Y+2010959D01*
X-8034759Y+1617259D02*
X-7780759Y+1617259D01*
X-7780759Y+3649259D01*
X-8034759Y+3649259D01*
X-8034759Y+1617259D01*
X-7729959Y-102321D02*
X-7729959Y-10881D01*
X-7685509Y+34839D01*
X-7641059Y+34839D01*
X-7596609Y-10881D01*
X-7596609Y-102321D01*
X-7729959Y-56601D02*
X-7596609Y-56601D01*
X-7418809Y+34839D02*
X-7529934Y+34839D01*
X-7529934Y-10881D01*
X-7441034Y-10881D01*
X-7418809Y-33741D01*
X-7418809Y-79461D01*
X-7441034Y-102321D01*
X-7507709Y-102321D01*
X-7529934Y-79461D01*
X-7729959Y+151679D02*
X-7729959Y+243119D01*
X-7685509Y+288839D01*
X-7641059Y+288839D01*
X-7596609Y+243119D01*
X-7596609Y+151679D01*
X-7729959Y+197399D02*
X-7596609Y+197399D01*
X-7418809Y+197399D02*
X-7552159Y+197399D01*
X-7463259Y+288839D01*
X-7463259Y+151679D01*
X-7742659Y+392979D02*
X-7742659Y+484419D01*
X-7698209Y+530139D01*
X-7653759Y+530139D01*
X-7609309Y+484419D01*
X-7609309Y+392979D01*
X-7742659Y+438699D02*
X-7609309Y+438699D01*
X-7542634Y+507279D02*
X-7520409Y+530139D01*
X-7453734Y+530139D01*
X-7431509Y+507279D01*
X-7431509Y+484419D01*
X-7453734Y+461559D01*
X-7431509Y+438699D01*
X-7431509Y+415839D01*
X-7453734Y+392979D01*
X-7520409Y+392979D01*
X-7542634Y+415839D01*
X-7498184Y+461559D02*
X-7453734Y+461559D01*
X-7742659Y+646979D02*
X-7742659Y+738419D01*
X-7698209Y+784139D01*
X-7653759Y+784139D01*
X-7609309Y+738419D01*
X-7609309Y+646979D01*
X-7742659Y+692699D02*
X-7609309Y+692699D01*
X-7542634Y+761279D02*
X-7520409Y+784139D01*
X-7453734Y+784139D01*
X-7431509Y+761279D01*
X-7431509Y+738419D01*
X-7453734Y+715559D01*
X-7520409Y+715559D01*
X-7542634Y+692699D01*
X-7542634Y+646979D01*
X-7431509Y+646979D01*
X-7742659Y+926379D02*
X-7742659Y+1017819D01*
X-7698209Y+1063539D01*
X-7653759Y+1063539D01*
X-7609309Y+1017819D01*
X-7609309Y+926379D01*
X-7742659Y+972099D02*
X-7609309Y+972099D01*
X-7520409Y+1017819D02*
X-7475959Y+1063539D01*
X-7475959Y+926379D01*
X-7742659Y+1180379D02*
X-7742659Y+1271819D01*
X-7698209Y+1317539D01*
X-7653759Y+1317539D01*
X-7609309Y+1271819D01*
X-7609309Y+1180379D01*
X-7742659Y+1226099D02*
X-7609309Y+1226099D01*
X-7564859Y+1203239D02*
X-7564859Y+1294679D01*
X-7542634Y+1317539D01*
X-7453734Y+1317539D01*
X-7431509Y+1294679D01*
X-7431509Y+1203239D01*
X-7453734Y+1180379D01*
X-7542634Y+1180379D01*
X-7564859Y+1203239D01*
X-7564859Y+1180379D02*
X-7431509Y+1317539D01*
X-7742659Y+1812839D02*
X-7742659Y+1744259D01*
X-7675984Y+1675679D01*
X-7609309Y+1744259D01*
X-7609309Y+1812839D01*
X-7498184Y+1767119D02*
X-7498184Y+1675679D01*
X-7498184Y+1812839D02*
X-7498184Y+1812839D01*
X-7387059Y+1675679D02*
X-7387059Y+1767119D01*
X-7387059Y+1744259D02*
X-7364834Y+1767119D01*
X-7275934Y+1767119D01*
X-7253709Y+1744259D01*
X-7253709Y+1675679D01*
X-7653759Y+1975399D02*
X-7609309Y+1975399D01*
X-7609309Y+1929679D01*
X-7698209Y+1929679D01*
X-7742659Y+1975399D01*
X-7742659Y+2021119D01*
X-7698209Y+2066839D01*
X-7631534Y+2066839D01*
X-7609309Y+2043979D01*
X-7564859Y+1929679D02*
X-7564859Y+2066839D01*
X-7431509Y+1929679D01*
X-7431509Y+2066839D01*
X-7387059Y+1929679D02*
X-7387059Y+2066839D01*
X-7298159Y+2066839D01*
X-7253709Y+2021119D01*
X-7253709Y+1975399D01*
X-7298159Y+1929679D01*
X-7387059Y+1929679D01*
X-7653759Y+2229399D02*
X-7609309Y+2229399D01*
X-7609309Y+2183679D01*
X-7698209Y+2183679D01*
X-7742659Y+2229399D01*
X-7742659Y+2275119D01*
X-7698209Y+2320839D01*
X-7631534Y+2320839D01*
X-7609309Y+2297979D01*
X-7564859Y+2183679D02*
X-7564859Y+2320839D01*
X-7431509Y+2183679D01*
X-7431509Y+2320839D01*
X-7387059Y+2183679D02*
X-7387059Y+2320839D01*
X-7298159Y+2320839D01*
X-7253709Y+2275119D01*
X-7253709Y+2229399D01*
X-7298159Y+2183679D01*
X-7387059Y+2183679D01*
X-7609309Y+2587539D02*
X-7720434Y+2587539D01*
X-7720434Y+2541819D01*
X-7631534Y+2541819D01*
X-7609309Y+2518959D01*
X-7609309Y+2473239D01*
X-7631534Y+2450379D01*
X-7698209Y+2450379D01*
X-7720434Y+2473239D01*
X-7564859Y+2587539D02*
X-7564859Y+2518959D01*
X-7498184Y+2450379D01*
X-7431509Y+2518959D01*
X-7431509Y+2587539D01*
X-7720434Y+2818679D02*
X-7698209Y+2841539D01*
X-7631534Y+2841539D01*
X-7609309Y+2818679D01*
X-7609309Y+2795819D01*
X-7631534Y+2772959D01*
X-7609309Y+2750099D01*
X-7609309Y+2727239D01*
X-7631534Y+2704379D01*
X-7698209Y+2704379D01*
X-7720434Y+2727239D01*
X-7675984Y+2772959D02*
X-7631534Y+2772959D01*
X-7498184Y+2727239D02*
X-7475959Y+2727239D01*
X-7475959Y+2704379D01*
X-7498184Y+2704379D01*
X-7498184Y+2727239D01*
X-7364834Y+2818679D02*
X-7342609Y+2841539D01*
X-7275934Y+2841539D01*
X-7253709Y+2818679D01*
X-7253709Y+2795819D01*
X-7275934Y+2772959D01*
X-7253709Y+2750099D01*
X-7253709Y+2727239D01*
X-7275934Y+2704379D01*
X-7342609Y+2704379D01*
X-7364834Y+2727239D01*
X-7320384Y+2772959D02*
X-7275934Y+2772959D01*
X-7209259Y+2841539D02*
X-7209259Y+2772959D01*
X-7142584Y+2704379D01*
X-7075909Y+2772959D01*
X-7075909Y+2841539D01*
X-7596609Y+2932979D02*
X-7729959Y+2932979D01*
X-7729959Y+3070139D01*
X-7596609Y+3070139D01*
X-7729959Y+3001559D02*
X-7641059Y+3001559D01*
X-7552159Y+2932979D02*
X-7552159Y+3070139D01*
X-7441034Y+3070139D01*
X-7418809Y+3047279D01*
X-7418809Y+3024419D01*
X-7441034Y+3001559D01*
X-7552159Y+3001559D01*
X-7441034Y+3001559D02*
X-7418809Y+2978699D01*
X-7418809Y+2932979D01*
X-7374359Y+2955839D02*
X-7352134Y+2932979D01*
X-7263234Y+2932979D01*
X-7241009Y+2955839D01*
X-7241009Y+2978699D01*
X-7263234Y+3001559D01*
X-7352134Y+3001559D01*
X-7374359Y+3024419D01*
X-7374359Y+3047279D01*
X-7352134Y+3070139D01*
X-7263234Y+3070139D01*
X-7241009Y+3047279D01*
X-7063209Y+2932979D02*
X-7196559Y+2932979D01*
X-7196559Y+3070139D01*
X-7063209Y+3070139D01*
X-7196559Y+3001559D02*
X-7107659Y+3001559D01*
X-7018759Y+3070139D02*
X-6885409Y+3070139D01*
X-6952084Y+3070139D02*
X-6952084Y+2932979D01*
X-7707734Y+3336839D02*
X-7618834Y+3336839D01*
X-7663284Y+3336839D02*
X-7663284Y+3199679D01*
X-7707734Y+3199679D02*
X-7618834Y+3199679D01*
X-7552159Y+3291119D02*
X-7507709Y+3336839D01*
X-7463259Y+3336839D01*
X-7418809Y+3291119D01*
X-7418809Y+3245399D01*
X-7463259Y+3199679D01*
X-7507709Y+3199679D01*
X-7552159Y+3245399D01*
X-7552159Y+3291119D01*
X-7374359Y+3199679D02*
X-7374359Y+3336839D01*
X-7263234Y+3336839D01*
X-7241009Y+3313979D01*
X-7241009Y+3291119D01*
X-7263234Y+3268259D01*
X-7374359Y+3268259D01*
X-7263234Y+3268259D02*
X-7241009Y+3245399D01*
X-7241009Y+3199679D01*
X-7063209Y+3199679D02*
X-7196559Y+3199679D01*
X-7196559Y+3336839D01*
X-7063209Y+3336839D01*
X-7196559Y+3268259D02*
X-7107659Y+3268259D01*
X-7018759Y+3199679D02*
X-7018759Y+3336839D01*
X-6885409Y+3336839D01*
X-7018759Y+3268259D02*
X-6929859Y+3268259D01*
X-7729959Y-635721D02*
X-7729959Y-544281D01*
X-7685509Y-498561D01*
X-7641059Y-498561D01*
X-7596609Y-544281D01*
X-7596609Y-635721D01*
X-7729959Y-590001D02*
X-7596609Y-590001D01*
X-7529934Y-498561D02*
X-7418809Y-498561D01*
X-7418809Y-521421D01*
X-7529934Y-635721D01*
X-7729959Y-2362921D02*
X-7729959Y-2271481D01*
X-7685509Y-2225761D01*
X-7641059Y-2225761D01*
X-7596609Y-2271481D01*
X-7596609Y-2362921D01*
X-7729959Y-2317201D02*
X-7596609Y-2317201D01*
X-7507709Y-2271481D02*
X-7463259Y-2225761D01*
X-7463259Y-2362921D01*
X-7352134Y-2248621D02*
X-7329909Y-2225761D01*
X-7263234Y-2225761D01*
X-7241009Y-2248621D01*
X-7241009Y-2271481D01*
X-7263234Y-2294341D01*
X-7241009Y-2317201D01*
X-7241009Y-2340061D01*
X-7263234Y-2362921D01*
X-7329909Y-2362921D01*
X-7352134Y-2340061D01*
X-7307684Y-2294341D02*
X-7263234Y-2294341D01*
X-7729959Y-2108921D02*
X-7729959Y-2017481D01*
X-7685509Y-1971761D01*
X-7641059Y-1971761D01*
X-7596609Y-2017481D01*
X-7596609Y-2108921D01*
X-7729959Y-2063201D02*
X-7596609Y-2063201D01*
X-7507709Y-2017481D02*
X-7463259Y-1971761D01*
X-7463259Y-2108921D01*
X-7352134Y-1994621D02*
X-7329909Y-1971761D01*
X-7263234Y-1971761D01*
X-7241009Y-1994621D01*
X-7241009Y-2017481D01*
X-7263234Y-2040341D01*
X-7329909Y-2040341D01*
X-7352134Y-2063201D01*
X-7352134Y-2108921D01*
X-7241009Y-2108921D01*
X-7742659Y-1867621D02*
X-7742659Y-1776181D01*
X-7698209Y-1730461D01*
X-7653759Y-1730461D01*
X-7609309Y-1776181D01*
X-7609309Y-1867621D01*
X-7742659Y-1821901D02*
X-7609309Y-1821901D01*
X-7520409Y-1776181D02*
X-7475959Y-1730461D01*
X-7475959Y-1867621D01*
X-7342609Y-1776181D02*
X-7298159Y-1730461D01*
X-7298159Y-1867621D01*
X-7742659Y-1613621D02*
X-7742659Y-1522181D01*
X-7698209Y-1476461D01*
X-7653759Y-1476461D01*
X-7609309Y-1522181D01*
X-7609309Y-1613621D01*
X-7742659Y-1567901D02*
X-7609309Y-1567901D01*
X-7520409Y-1522181D02*
X-7475959Y-1476461D01*
X-7475959Y-1613621D01*
X-7387059Y-1590761D02*
X-7387059Y-1499321D01*
X-7364834Y-1476461D01*
X-7275934Y-1476461D01*
X-7253709Y-1499321D01*
X-7253709Y-1590761D01*
X-7275934Y-1613621D01*
X-7364834Y-1613621D01*
X-7387059Y-1590761D01*
X-7387059Y-1613621D02*
X-7253709Y-1476461D01*
X-7742659Y-1334221D02*
X-7742659Y-1242781D01*
X-7698209Y-1197061D01*
X-7653759Y-1197061D01*
X-7609309Y-1242781D01*
X-7609309Y-1334221D01*
X-7742659Y-1288501D02*
X-7609309Y-1288501D01*
X-7431509Y-1242781D02*
X-7453734Y-1265641D01*
X-7520409Y-1265641D01*
X-7542634Y-1242781D01*
X-7542634Y-1219921D01*
X-7520409Y-1197061D01*
X-7453734Y-1197061D01*
X-7431509Y-1219921D01*
X-7431509Y-1311361D01*
X-7453734Y-1334221D01*
X-7520409Y-1334221D01*
X-7742659Y-1080221D02*
X-7742659Y-988781D01*
X-7698209Y-943061D01*
X-7653759Y-943061D01*
X-7609309Y-988781D01*
X-7609309Y-1080221D01*
X-7742659Y-1034501D02*
X-7609309Y-1034501D01*
X-7520409Y-1011641D02*
X-7542634Y-988781D01*
X-7542634Y-965921D01*
X-7520409Y-943061D01*
X-7453734Y-943061D01*
X-7431509Y-965921D01*
X-7431509Y-988781D01*
X-7453734Y-1011641D01*
X-7520409Y-1011641D01*
X-7542634Y-1034501D01*
X-7542634Y-1057361D01*
X-7520409Y-1080221D01*
X-7453734Y-1080221D01*
X-7431509Y-1057361D01*
X-7431509Y-1034501D01*
X-7453734Y-1011641D01*
X-7729959Y-2876001D02*
X-7729959Y-2794721D01*
X-7685509Y-2754081D01*
X-7641059Y-2754081D01*
X-7596609Y-2794721D01*
X-7596609Y-2876001D01*
X-7729959Y-2835361D02*
X-7596609Y-2835361D01*
X-7507709Y-2794721D02*
X-7463259Y-2754081D01*
X-7463259Y-2876001D01*
X-7241009Y-2754081D02*
X-7352134Y-2754081D01*
X-7352134Y-2794721D01*
X-7263234Y-2794721D01*
X-7241009Y-2815041D01*
X-7241009Y-2855681D01*
X-7263234Y-2876001D01*
X-7329909Y-2876001D01*
X-7352134Y-2855681D01*
X-7729959Y-2629621D02*
X-7729959Y-2538181D01*
X-7685509Y-2492461D01*
X-7641059Y-2492461D01*
X-7596609Y-2538181D01*
X-7596609Y-2629621D01*
X-7729959Y-2583901D02*
X-7596609Y-2583901D01*
X-7507709Y-2538181D02*
X-7463259Y-2492461D01*
X-7463259Y-2629621D01*
X-7241009Y-2583901D02*
X-7374359Y-2583901D01*
X-7285459Y-2492461D01*
X-7285459Y-2629621D01*
X-7663919Y-3094441D02*
X-7663919Y-3113491D01*
X-7684239Y-3113491D01*
X-7684239Y-3075391D01*
X-7663919Y-3056341D01*
X-7643599Y-3056341D01*
X-7623279Y-3075391D01*
X-7623279Y-3103966D01*
X-7633439Y-3113491D01*
X-7684239Y-3132541D02*
X-7623279Y-3132541D01*
X-7684239Y-3189691D01*
X-7623279Y-3189691D01*
X-7684239Y-3208741D02*
X-7623279Y-3208741D01*
X-7623279Y-3246841D01*
X-7643599Y-3265891D01*
X-7663919Y-3265891D01*
X-7684239Y-3246841D01*
X-7684239Y-3208741D01*
X-7077179Y-2707091D02*
X-7077179Y-2595966D01*
X-7122899Y-2595966D01*
X-7122899Y-2684866D01*
X-7145759Y-2707091D01*
X-7191479Y-2707091D01*
X-7214339Y-2684866D01*
X-7214339Y-2618191D01*
X-7191479Y-2595966D01*
X-7100039Y-2773766D02*
X-7077179Y-2795991D01*
X-7077179Y-2862666D01*
X-7100039Y-2884891D01*
X-7122899Y-2884891D01*
X-7145759Y-2862666D01*
X-7145759Y-2795991D01*
X-7168619Y-2773766D01*
X-7214339Y-2773766D01*
X-7214339Y-2884891D01*
X-6823179Y-2707091D02*
X-6823179Y-2595966D01*
X-6868899Y-2595966D01*
X-6868899Y-2684866D01*
X-6891759Y-2707091D01*
X-6937479Y-2707091D01*
X-6960339Y-2684866D01*
X-6960339Y-2618191D01*
X-6937479Y-2595966D01*
X-6937479Y-2751541D02*
X-6846039Y-2751541D01*
X-6823179Y-2773766D01*
X-6823179Y-2862666D01*
X-6846039Y-2884891D01*
X-6937479Y-2884891D01*
X-6960339Y-2862666D01*
X-6960339Y-2773766D01*
X-6937479Y-2751541D01*
X-6960339Y-2751541D02*
X-6823179Y-2884891D01*
X-6673319Y-2694391D02*
X-6673319Y-2561041D01*
X-6581879Y-2649941D01*
X-6719039Y-2649941D01*
X-6650459Y-2783291D02*
X-6627599Y-2761066D01*
X-6604739Y-2761066D01*
X-6581879Y-2783291D01*
X-6581879Y-2849966D01*
X-6604739Y-2872191D01*
X-6627599Y-2872191D01*
X-6650459Y-2849966D01*
X-6650459Y-2783291D01*
X-6673319Y-2761066D01*
X-6696179Y-2761066D01*
X-6719039Y-2783291D01*
X-6719039Y-2849966D01*
X-6696179Y-2872191D01*
X-6673319Y-2872191D01*
X-6650459Y-2849966D01*
X-6419319Y-2694391D02*
X-6419319Y-2561041D01*
X-6327879Y-2649941D01*
X-6465039Y-2649941D01*
X-6350739Y-2872191D02*
X-6327879Y-2849966D01*
X-6327879Y-2783291D01*
X-6350739Y-2761066D01*
X-6442179Y-2761066D01*
X-6465039Y-2783291D01*
X-6465039Y-2849966D01*
X-6442179Y-2872191D01*
X-6419319Y-2872191D01*
X-6396459Y-2849966D01*
X-6396459Y-2761066D01*
X-6165319Y-2694391D02*
X-6165319Y-2561041D01*
X-6073879Y-2649941D01*
X-6211039Y-2649941D01*
X-6165319Y-2872191D02*
X-6165319Y-2738841D01*
X-6073879Y-2827741D01*
X-6211039Y-2827741D01*
X-5911319Y-2694391D02*
X-5911319Y-2561041D01*
X-5819879Y-2649941D01*
X-5957039Y-2649941D01*
X-5842739Y-2761066D02*
X-5819879Y-2783291D01*
X-5819879Y-2849966D01*
X-5842739Y-2872191D01*
X-5865599Y-2872191D01*
X-5888459Y-2849966D01*
X-5888459Y-2783291D01*
X-5911319Y-2761066D01*
X-5957039Y-2761066D01*
X-5957039Y-2872191D01*
X-5670019Y-2681691D02*
X-5670019Y-2548341D01*
X-5578579Y-2637241D01*
X-5715739Y-2637241D01*
X-5692879Y-2726141D02*
X-5601439Y-2726141D01*
X-5578579Y-2748366D01*
X-5578579Y-2837266D01*
X-5601439Y-2859491D01*
X-5692879Y-2859491D01*
X-5715739Y-2837266D01*
X-5715739Y-2748366D01*
X-5692879Y-2726141D01*
X-5715739Y-2726141D02*
X-5578579Y-2859491D01*
X-5347439Y-2570566D02*
X-5324579Y-2592791D01*
X-5324579Y-2659466D01*
X-5347439Y-2681691D01*
X-5370299Y-2681691D01*
X-5393159Y-2659466D01*
X-5416019Y-2681691D01*
X-5438879Y-2681691D01*
X-5461739Y-2659466D01*
X-5461739Y-2592791D01*
X-5438879Y-2570566D01*
X-5393159Y-2615016D02*
X-5393159Y-2659466D01*
X-5393159Y-2770591D02*
X-5370299Y-2748366D01*
X-5347439Y-2748366D01*
X-5324579Y-2770591D01*
X-5324579Y-2837266D01*
X-5347439Y-2859491D01*
X-5370299Y-2859491D01*
X-5393159Y-2837266D01*
X-5393159Y-2770591D01*
X-5416019Y-2748366D01*
X-5438879Y-2748366D01*
X-5461739Y-2770591D01*
X-5461739Y-2837266D01*
X-5438879Y-2859491D01*
X-5416019Y-2859491D01*
X-5393159Y-2837266D01*
X-5055339Y-2570566D02*
X-5032479Y-2592791D01*
X-5032479Y-2659466D01*
X-5055339Y-2681691D01*
X-5078199Y-2681691D01*
X-5101059Y-2659466D01*
X-5123919Y-2681691D01*
X-5146779Y-2681691D01*
X-5169639Y-2659466D01*
X-5169639Y-2592791D01*
X-5146779Y-2570566D01*
X-5101059Y-2615016D02*
X-5101059Y-2659466D01*
X-5055339Y-2859491D02*
X-5032479Y-2837266D01*
X-5032479Y-2770591D01*
X-5055339Y-2748366D01*
X-5146779Y-2748366D01*
X-5169639Y-2770591D01*
X-5169639Y-2837266D01*
X-5146779Y-2859491D01*
X-5123919Y-2859491D01*
X-5101059Y-2837266D01*
X-5101059Y-2748366D01*
X-4814039Y-2557866D02*
X-4791179Y-2580091D01*
X-4791179Y-2646766D01*
X-4814039Y-2668991D01*
X-4836899Y-2668991D01*
X-4859759Y-2646766D01*
X-4882619Y-2668991D01*
X-4905479Y-2668991D01*
X-4928339Y-2646766D01*
X-4928339Y-2580091D01*
X-4905479Y-2557866D01*
X-4859759Y-2602316D02*
X-4859759Y-2646766D01*
X-4882619Y-2846791D02*
X-4882619Y-2713441D01*
X-4791179Y-2802341D01*
X-4928339Y-2802341D01*
X-4560039Y-2557866D02*
X-4537179Y-2580091D01*
X-4537179Y-2646766D01*
X-4560039Y-2668991D01*
X-4582899Y-2668991D01*
X-4605759Y-2646766D01*
X-4628619Y-2668991D01*
X-4651479Y-2668991D01*
X-4674339Y-2646766D01*
X-4674339Y-2580091D01*
X-4651479Y-2557866D01*
X-4605759Y-2602316D02*
X-4605759Y-2646766D01*
X-4560039Y-2735666D02*
X-4537179Y-2757891D01*
X-4537179Y-2824566D01*
X-4560039Y-2846791D01*
X-4582899Y-2846791D01*
X-4605759Y-2824566D01*
X-4605759Y-2757891D01*
X-4628619Y-2735666D01*
X-4674339Y-2735666D01*
X-4674339Y-2846791D01*
X-4306039Y-2557866D02*
X-4283179Y-2580091D01*
X-4283179Y-2646766D01*
X-4306039Y-2668991D01*
X-4328899Y-2668991D01*
X-4351759Y-2646766D01*
X-4374619Y-2668991D01*
X-4397479Y-2668991D01*
X-4420339Y-2646766D01*
X-4420339Y-2580091D01*
X-4397479Y-2557866D01*
X-4351759Y-2602316D02*
X-4351759Y-2646766D01*
X-4397479Y-2713441D02*
X-4306039Y-2713441D01*
X-4283179Y-2735666D01*
X-4283179Y-2824566D01*
X-4306039Y-2846791D01*
X-4397479Y-2846791D01*
X-4420339Y-2824566D01*
X-4420339Y-2735666D01*
X-4397479Y-2713441D01*
X-4420339Y-2713441D02*
X-4283179Y-2846791D01*
X-4052039Y-2557866D02*
X-4029179Y-2580091D01*
X-4029179Y-2646766D01*
X-4052039Y-2668991D01*
X-4074899Y-2668991D01*
X-4097759Y-2646766D01*
X-4097759Y-2580091D01*
X-4120619Y-2557866D01*
X-4166339Y-2557866D01*
X-4166339Y-2668991D01*
X-4097759Y-2757891D02*
X-4074899Y-2735666D01*
X-4052039Y-2735666D01*
X-4029179Y-2757891D01*
X-4029179Y-2824566D01*
X-4052039Y-2846791D01*
X-4074899Y-2846791D01*
X-4097759Y-2824566D01*
X-4097759Y-2757891D01*
X-4120619Y-2735666D01*
X-4143479Y-2735666D01*
X-4166339Y-2757891D01*
X-4166339Y-2824566D01*
X-4143479Y-2846791D01*
X-4120619Y-2846791D01*
X-4097759Y-2824566D01*
X-3810739Y-2545166D02*
X-3787879Y-2567391D01*
X-3787879Y-2634066D01*
X-3810739Y-2656291D01*
X-3833599Y-2656291D01*
X-3856459Y-2634066D01*
X-3856459Y-2567391D01*
X-3879319Y-2545166D01*
X-3925039Y-2545166D01*
X-3925039Y-2656291D01*
X-3810739Y-2834091D02*
X-3787879Y-2811866D01*
X-3787879Y-2745191D01*
X-3810739Y-2722966D01*
X-3902179Y-2722966D01*
X-3925039Y-2745191D01*
X-3925039Y-2811866D01*
X-3902179Y-2834091D01*
X-3879319Y-2834091D01*
X-3856459Y-2811866D01*
X-3856459Y-2722966D01*
X-3556739Y-2545166D02*
X-3533879Y-2567391D01*
X-3533879Y-2634066D01*
X-3556739Y-2656291D01*
X-3579599Y-2656291D01*
X-3602459Y-2634066D01*
X-3602459Y-2567391D01*
X-3625319Y-2545166D01*
X-3671039Y-2545166D01*
X-3671039Y-2656291D01*
X-3625319Y-2834091D02*
X-3625319Y-2700741D01*
X-3533879Y-2789641D01*
X-3671039Y-2789641D01*
X-3315439Y-2545166D02*
X-3292579Y-2567391D01*
X-3292579Y-2634066D01*
X-3315439Y-2656291D01*
X-3338299Y-2656291D01*
X-3361159Y-2634066D01*
X-3361159Y-2567391D01*
X-3384019Y-2545166D01*
X-3429739Y-2545166D01*
X-3429739Y-2656291D01*
X-3315439Y-2722966D02*
X-3292579Y-2745191D01*
X-3292579Y-2811866D01*
X-3315439Y-2834091D01*
X-3338299Y-2834091D01*
X-3361159Y-2811866D01*
X-3361159Y-2745191D01*
X-3384019Y-2722966D01*
X-3429739Y-2722966D01*
X-3429739Y-2834091D01*
X-7064479Y-3570691D02*
X-7064479Y-3459566D01*
X-7110199Y-3459566D01*
X-7110199Y-3548466D01*
X-7133059Y-3570691D01*
X-7178779Y-3570691D01*
X-7201639Y-3548466D01*
X-7201639Y-3481791D01*
X-7178779Y-3459566D01*
X-7087339Y-3637366D02*
X-7064479Y-3659591D01*
X-7064479Y-3726266D01*
X-7087339Y-3748491D01*
X-7110199Y-3748491D01*
X-7133059Y-3726266D01*
X-7155919Y-3748491D01*
X-7178779Y-3748491D01*
X-7201639Y-3726266D01*
X-7201639Y-3659591D01*
X-7178779Y-3637366D01*
X-7133059Y-3681816D02*
X-7133059Y-3726266D01*
X-6810479Y-3570691D02*
X-6810479Y-3459566D01*
X-6856199Y-3459566D01*
X-6856199Y-3548466D01*
X-6879059Y-3570691D01*
X-6924779Y-3570691D01*
X-6947639Y-3548466D01*
X-6947639Y-3481791D01*
X-6924779Y-3459566D01*
X-6856199Y-3659591D02*
X-6810479Y-3704041D01*
X-6947639Y-3704041D01*
X-6635219Y-3583391D02*
X-6635219Y-3450041D01*
X-6543779Y-3538941D01*
X-6680939Y-3538941D01*
X-6589499Y-3761191D02*
X-6612359Y-3738966D01*
X-6612359Y-3672291D01*
X-6589499Y-3650066D01*
X-6566639Y-3650066D01*
X-6543779Y-3672291D01*
X-6543779Y-3738966D01*
X-6566639Y-3761191D01*
X-6658079Y-3761191D01*
X-6680939Y-3738966D01*
X-6680939Y-3672291D01*
X-6381219Y-3583391D02*
X-6381219Y-3450041D01*
X-6289779Y-3538941D01*
X-6426939Y-3538941D01*
X-6289779Y-3650066D02*
X-6289779Y-3761191D01*
X-6312639Y-3761191D01*
X-6426939Y-3650066D01*
X-6127219Y-3583391D02*
X-6127219Y-3450041D01*
X-6035779Y-3538941D01*
X-6172939Y-3538941D01*
X-6035779Y-3761191D02*
X-6035779Y-3650066D01*
X-6081499Y-3650066D01*
X-6081499Y-3738966D01*
X-6104359Y-3761191D01*
X-6150079Y-3761191D01*
X-6172939Y-3738966D01*
X-6172939Y-3672291D01*
X-6150079Y-3650066D01*
X-5860519Y-3583391D02*
X-5860519Y-3450041D01*
X-5769079Y-3538941D01*
X-5906239Y-3538941D01*
X-5791939Y-3650066D02*
X-5769079Y-3672291D01*
X-5769079Y-3738966D01*
X-5791939Y-3761191D01*
X-5814799Y-3761191D01*
X-5837659Y-3738966D01*
X-5860519Y-3761191D01*
X-5883379Y-3761191D01*
X-5906239Y-3738966D01*
X-5906239Y-3672291D01*
X-5883379Y-3650066D01*
X-5837659Y-3694516D02*
X-5837659Y-3738966D01*
X-5619219Y-3583391D02*
X-5619219Y-3450041D01*
X-5527779Y-3538941D01*
X-5664939Y-3538941D01*
X-5573499Y-3672291D02*
X-5527779Y-3716741D01*
X-5664939Y-3716741D01*
X-5296639Y-3446866D02*
X-5273779Y-3469091D01*
X-5273779Y-3535766D01*
X-5296639Y-3557991D01*
X-5319499Y-3557991D01*
X-5342359Y-3535766D01*
X-5365219Y-3557991D01*
X-5388079Y-3557991D01*
X-5410939Y-3535766D01*
X-5410939Y-3469091D01*
X-5388079Y-3446866D01*
X-5342359Y-3491316D02*
X-5342359Y-3535766D01*
X-5319499Y-3735791D02*
X-5342359Y-3713566D01*
X-5342359Y-3646891D01*
X-5319499Y-3624666D01*
X-5296639Y-3624666D01*
X-5273779Y-3646891D01*
X-5273779Y-3713566D01*
X-5296639Y-3735791D01*
X-5388079Y-3735791D01*
X-5410939Y-3713566D01*
X-5410939Y-3646891D01*
X-5042639Y-3446866D02*
X-5019779Y-3469091D01*
X-5019779Y-3535766D01*
X-5042639Y-3557991D01*
X-5065499Y-3557991D01*
X-5088359Y-3535766D01*
X-5111219Y-3557991D01*
X-5134079Y-3557991D01*
X-5156939Y-3535766D01*
X-5156939Y-3469091D01*
X-5134079Y-3446866D01*
X-5088359Y-3491316D02*
X-5088359Y-3535766D01*
X-5019779Y-3624666D02*
X-5019779Y-3735791D01*
X-5042639Y-3735791D01*
X-5156939Y-3624666D01*
X-4801339Y-3446866D02*
X-4778479Y-3469091D01*
X-4778479Y-3535766D01*
X-4801339Y-3557991D01*
X-4824199Y-3557991D01*
X-4847059Y-3535766D01*
X-4869919Y-3557991D01*
X-4892779Y-3557991D01*
X-4915639Y-3535766D01*
X-4915639Y-3469091D01*
X-4892779Y-3446866D01*
X-4847059Y-3491316D02*
X-4847059Y-3535766D01*
X-4778479Y-3735791D02*
X-4778479Y-3624666D01*
X-4824199Y-3624666D01*
X-4824199Y-3713566D01*
X-4847059Y-3735791D01*
X-4892779Y-3735791D01*
X-4915639Y-3713566D01*
X-4915639Y-3646891D01*
X-4892779Y-3624666D01*
X-4547339Y-3446866D02*
X-4524479Y-3469091D01*
X-4524479Y-3535766D01*
X-4547339Y-3557991D01*
X-4570199Y-3557991D01*
X-4593059Y-3535766D01*
X-4615919Y-3557991D01*
X-4638779Y-3557991D01*
X-4661639Y-3535766D01*
X-4661639Y-3469091D01*
X-4638779Y-3446866D01*
X-4593059Y-3491316D02*
X-4593059Y-3535766D01*
X-4547339Y-3624666D02*
X-4524479Y-3646891D01*
X-4524479Y-3713566D01*
X-4547339Y-3735791D01*
X-4570199Y-3735791D01*
X-4593059Y-3713566D01*
X-4615919Y-3735791D01*
X-4638779Y-3735791D01*
X-4661639Y-3713566D01*
X-4661639Y-3646891D01*
X-4638779Y-3624666D01*
X-4593059Y-3669116D02*
X-4593059Y-3713566D01*
X-4306039Y-3446866D02*
X-4283179Y-3469091D01*
X-4283179Y-3535766D01*
X-4306039Y-3557991D01*
X-4328899Y-3557991D01*
X-4351759Y-3535766D01*
X-4374619Y-3557991D01*
X-4397479Y-3557991D01*
X-4420339Y-3535766D01*
X-4420339Y-3469091D01*
X-4397479Y-3446866D01*
X-4351759Y-3491316D02*
X-4351759Y-3535766D01*
X-4328899Y-3646891D02*
X-4283179Y-3691341D01*
X-4420339Y-3691341D01*
D17*
X-2924279Y-3225974D02*
X-2924279Y-3213274D01*
X-2924279Y-3152314D02*
X-2924279Y-3131994D01*
X-2921739Y-3228514D02*
X-2921739Y-3210734D01*
X-2921739Y-3157394D02*
X-2921739Y-3126914D01*
X-2919199Y-3228514D02*
X-2919199Y-3210734D01*
X-2919199Y-3162474D02*
X-2919199Y-3124374D01*
X-2916659Y-3228514D02*
X-2916659Y-3210734D01*
X-2916659Y-3165014D02*
X-2916659Y-3121834D01*
X-2914119Y-3231054D02*
X-2914119Y-3220894D01*
X-2914119Y-3218354D02*
X-2914119Y-3208194D01*
X-2914119Y-3165014D02*
X-2914119Y-3149774D01*
X-2914119Y-3134534D02*
X-2914119Y-3119294D01*
X-2911579Y-3231054D02*
X-2911579Y-3220894D01*
X-2911579Y-3218354D02*
X-2911579Y-3208194D01*
X-2911579Y-3167554D02*
X-2911579Y-3154854D01*
X-2911579Y-3129454D02*
X-2911579Y-3116754D01*
X-2909039Y-3231054D02*
X-2909039Y-3220894D01*
X-2909039Y-3218354D02*
X-2909039Y-3208194D01*
X-2909039Y-3170094D02*
X-2909039Y-3157394D01*
X-2909039Y-3126914D02*
X-2909039Y-3116754D01*
X-2906499Y-3233594D02*
X-2906499Y-3220894D01*
X-2906499Y-3218354D02*
X-2906499Y-3205654D01*
X-2906499Y-3170094D02*
X-2906499Y-3159934D01*
X-2906499Y-3126914D02*
X-2906499Y-3114214D01*
X-2903959Y-3233594D02*
X-2903959Y-3223434D01*
X-2903959Y-3215814D02*
X-2903959Y-3205654D01*
X-2903959Y-3170094D02*
X-2903959Y-3159934D01*
X-2903959Y-3124374D02*
X-2903959Y-3114214D01*
X-2901419Y-3236134D02*
X-2901419Y-3223434D01*
X-2901419Y-3215814D02*
X-2901419Y-3203114D01*
X-2901419Y-3172634D02*
X-2901419Y-3162474D01*
X-2901419Y-3124374D02*
X-2901419Y-3114214D01*
X-2898879Y-3236134D02*
X-2898879Y-3225974D01*
X-2898879Y-3213274D02*
X-2898879Y-3203114D01*
X-2898879Y-3172634D02*
X-2898879Y-3162474D01*
X-2896339Y-3236134D02*
X-2896339Y-3225974D01*
X-2896339Y-3213274D02*
X-2896339Y-3203114D01*
X-2896339Y-3172634D02*
X-2896339Y-3162474D01*
X-2893799Y-3238674D02*
X-2893799Y-3225974D01*
X-2893799Y-3213274D02*
X-2893799Y-3200574D01*
X-2893799Y-3172634D02*
X-2893799Y-3162474D01*
X-2891259Y-3238674D02*
X-2891259Y-3228514D01*
X-2891259Y-3210734D02*
X-2891259Y-3200574D01*
X-2891259Y-3172634D02*
X-2891259Y-3162474D01*
X-2888719Y-3238674D02*
X-2888719Y-3228514D01*
X-2888719Y-3210734D02*
X-2888719Y-3200574D01*
X-2888719Y-3172634D02*
X-2888719Y-3162474D01*
X-2886179Y-3241214D02*
X-2886179Y-3228514D01*
X-2886179Y-3208194D02*
X-2886179Y-3198034D01*
X-2886179Y-3172634D02*
X-2886179Y-3162474D01*
X-2883639Y-3241214D02*
X-2883639Y-3231054D01*
X-2883639Y-3208194D02*
X-2883639Y-3198034D01*
X-2883639Y-3170094D02*
X-2883639Y-3159934D01*
X-2883639Y-3126914D02*
X-2883639Y-3121834D01*
X-2881099Y-3243754D02*
X-2881099Y-3231054D01*
X-2881099Y-3208194D02*
X-2881099Y-3195494D01*
X-2881099Y-3170094D02*
X-2881099Y-3159934D01*
X-2881099Y-3129454D02*
X-2881099Y-3116754D01*
X-2878559Y-3243754D02*
X-2878559Y-3233594D01*
X-2878559Y-3205654D02*
X-2878559Y-3195494D01*
X-2878559Y-3170094D02*
X-2878559Y-3157394D01*
X-2878559Y-3131994D02*
X-2878559Y-3116754D01*
X-2876019Y-3243754D02*
X-2876019Y-3233594D01*
X-2876019Y-3205654D02*
X-2876019Y-3195494D01*
X-2876019Y-3167554D02*
X-2876019Y-3152314D01*
X-2876019Y-3134534D02*
X-2876019Y-3119294D01*
X-2873479Y-3246294D02*
X-2873479Y-3233594D01*
X-2873479Y-3205654D02*
X-2873479Y-3192954D01*
X-2873479Y-3165014D02*
X-2873479Y-3119294D01*
X-2870939Y-3246294D02*
X-2870939Y-3236134D01*
X-2870939Y-3203114D02*
X-2870939Y-3192954D01*
X-2870939Y-3162474D02*
X-2870939Y-3119294D01*
X-2868399Y-3246294D02*
X-2868399Y-3236134D01*
X-2868399Y-3203114D02*
X-2868399Y-3192954D01*
X-2868399Y-3159934D02*
X-2868399Y-3131994D01*
X-2868399Y-3129454D02*
X-2868399Y-3119294D01*
X-2865859Y-3248834D02*
X-2865859Y-3238674D01*
X-2865859Y-3200574D02*
X-2865859Y-3190414D01*
X-2865859Y-3154854D02*
X-2865859Y-3137074D01*
X-2865859Y-3129454D02*
X-2865859Y-3119294D01*
X-2863319Y-3248834D02*
X-2863319Y-3238674D01*
X-2863319Y-3200574D02*
X-2863319Y-3190414D01*
X-2863319Y-3131994D02*
X-2863319Y-3121834D01*
X-2860779Y-3251374D02*
X-2860779Y-3238674D01*
X-2860779Y-3200574D02*
X-2860779Y-3187874D01*
X-2860779Y-3131994D02*
X-2860779Y-3121834D01*
X-2858239Y-3251374D02*
X-2858239Y-3241214D01*
X-2858239Y-3198034D02*
X-2858239Y-3187874D01*
X-2858239Y-3131994D02*
X-2858239Y-3121834D01*
X-2855699Y-3251374D02*
X-2855699Y-3241214D01*
X-2855699Y-3198034D02*
X-2855699Y-3187874D01*
X-2855699Y-3131994D02*
X-2855699Y-3121834D01*
X-2853159Y-3253914D02*
X-2853159Y-3241214D01*
X-2853159Y-3195494D02*
X-2853159Y-3185334D01*
X-2853159Y-3134534D02*
X-2853159Y-3124374D01*
X-2850619Y-3253914D02*
X-2850619Y-3243754D01*
X-2850619Y-3195494D02*
X-2850619Y-3185334D01*
X-2850619Y-3134534D02*
X-2850619Y-3124374D01*
X-2848079Y-3253914D02*
X-2848079Y-3243754D01*
X-2848079Y-3195494D02*
X-2848079Y-3185334D01*
X-2848079Y-3134534D02*
X-2848079Y-3124374D01*
X-2845539Y-3256454D02*
X-2845539Y-3246294D01*
X-2845539Y-3192954D02*
X-2845539Y-3182794D01*
X-2845539Y-3167554D02*
X-2845539Y-3124374D01*
X-2842999Y-3256454D02*
X-2842999Y-3246294D01*
X-2842999Y-3192954D02*
X-2842999Y-3182794D01*
X-2842999Y-3167554D02*
X-2842999Y-3124374D01*
X-2840459Y-3258994D02*
X-2840459Y-3246294D01*
X-2840459Y-3192954D02*
X-2840459Y-3180254D01*
X-2840459Y-3167554D02*
X-2840459Y-3126914D01*
X-2837919Y-3258994D02*
X-2837919Y-3248834D01*
X-2837919Y-3190414D02*
X-2837919Y-3180254D01*
X-2837919Y-3167554D02*
X-2837919Y-3126914D01*
D16*
X-2878559Y-3094441D02*
X-2878559Y-3030941D01*
X-2929359Y-3030941D01*
X-2878559Y-3208741D02*
X-2878559Y-3284941D01*
X-2929359Y-3284941D01*
X-4275559Y-460461D02*
X-4142209Y-460461D01*
X-4208884Y-460461D02*
X-4208884Y-597621D01*
X-4097759Y-460461D02*
X-3964409Y-597621D01*
X-4097759Y-597621D02*
X-3964409Y-460461D01*
X-3897734Y-483321D02*
X-3875509Y-460461D01*
X-3808834Y-460461D01*
X-3786609Y-483321D01*
X-3786609Y-506181D01*
X-3808834Y-529041D01*
X-3786609Y-551901D01*
X-3786609Y-574761D01*
X-3808834Y-597621D01*
X-3875509Y-597621D01*
X-3897734Y-574761D01*
X-3853284Y-529041D02*
X-3808834Y-529041D01*
X-3519909Y-506181D02*
X-3475459Y-460461D01*
X-3475459Y-597621D01*
X-3253209Y-551901D02*
X-3386559Y-551901D01*
X-3297659Y-460461D01*
X-3297659Y-597621D01*
X-4275559Y-851621D02*
X-4275559Y-714461D01*
X-4164434Y-714461D01*
X-4142209Y-737321D01*
X-4142209Y-760181D01*
X-4164434Y-783041D01*
X-4275559Y-783041D01*
X-4164434Y-783041D02*
X-4142209Y-805901D01*
X-4142209Y-851621D01*
X-4097759Y-714461D02*
X-3964409Y-851621D01*
X-4097759Y-851621D02*
X-3964409Y-714461D01*
X-3897734Y-737321D02*
X-3875509Y-714461D01*
X-3808834Y-714461D01*
X-3786609Y-737321D01*
X-3786609Y-760181D01*
X-3808834Y-783041D01*
X-3786609Y-805901D01*
X-3786609Y-828761D01*
X-3808834Y-851621D01*
X-3875509Y-851621D01*
X-3897734Y-828761D01*
X-3853284Y-783041D02*
X-3808834Y-783041D01*
X-3519909Y-760181D02*
X-3475459Y-714461D01*
X-3475459Y-851621D01*
X-3253209Y-714461D02*
X-3364334Y-714461D01*
X-3364334Y-760181D01*
X-3275434Y-760181D01*
X-3253209Y-783041D01*
X-3253209Y-828761D01*
X-3275434Y-851621D01*
X-3342109Y-851621D01*
X-3364334Y-828761D01*
X-4275559Y-968461D02*
X-4142209Y-968461D01*
X-4208884Y-968461D02*
X-4208884Y-1105621D01*
X-4097759Y-968461D02*
X-3964409Y-1105621D01*
X-4097759Y-1105621D02*
X-3964409Y-968461D01*
X-3897734Y-991321D02*
X-3875509Y-968461D01*
X-3808834Y-968461D01*
X-3786609Y-991321D01*
X-3786609Y-1014181D01*
X-3808834Y-1037041D01*
X-3875509Y-1037041D01*
X-3897734Y-1059901D01*
X-3897734Y-1105621D01*
X-3786609Y-1105621D01*
X-3519909Y-1014181D02*
X-3475459Y-968461D01*
X-3475459Y-1105621D01*
X-3253209Y-991321D02*
X-3275434Y-968461D01*
X-3342109Y-968461D01*
X-3364334Y-991321D01*
X-3364334Y-1082761D01*
X-3342109Y-1105621D01*
X-3275434Y-1105621D01*
X-3253209Y-1082761D01*
X-3253209Y-1059901D01*
X-3275434Y-1037041D01*
X-3364334Y-1037041D01*
X-4275559Y-1359621D02*
X-4275559Y-1222461D01*
X-4164434Y-1222461D01*
X-4142209Y-1245321D01*
X-4142209Y-1268181D01*
X-4164434Y-1291041D01*
X-4275559Y-1291041D01*
X-4164434Y-1291041D02*
X-4142209Y-1313901D01*
X-4142209Y-1359621D01*
X-4097759Y-1222461D02*
X-3964409Y-1359621D01*
X-4097759Y-1359621D02*
X-3964409Y-1222461D01*
X-3897734Y-1245321D02*
X-3875509Y-1222461D01*
X-3808834Y-1222461D01*
X-3786609Y-1245321D01*
X-3786609Y-1268181D01*
X-3808834Y-1291041D01*
X-3875509Y-1291041D01*
X-3897734Y-1313901D01*
X-3897734Y-1359621D01*
X-3786609Y-1359621D01*
X-3519909Y-1268181D02*
X-3475459Y-1222461D01*
X-3475459Y-1359621D01*
X-3364334Y-1222461D02*
X-3253209Y-1222461D01*
X-3253209Y-1245321D01*
X-3364334Y-1359621D01*
X-4275559Y-1463761D02*
X-4142209Y-1463761D01*
X-4208884Y-1463761D02*
X-4208884Y-1600921D01*
X-4097759Y-1463761D02*
X-3964409Y-1600921D01*
X-4097759Y-1600921D02*
X-3964409Y-1463761D01*
X-3875509Y-1509481D02*
X-3831059Y-1463761D01*
X-3831059Y-1600921D01*
X-3519909Y-1509481D02*
X-3475459Y-1463761D01*
X-3475459Y-1600921D01*
X-3342109Y-1532341D02*
X-3364334Y-1509481D01*
X-3364334Y-1486621D01*
X-3342109Y-1463761D01*
X-3275434Y-1463761D01*
X-3253209Y-1486621D01*
X-3253209Y-1509481D01*
X-3275434Y-1532341D01*
X-3342109Y-1532341D01*
X-3364334Y-1555201D01*
X-3364334Y-1578061D01*
X-3342109Y-1600921D01*
X-3275434Y-1600921D01*
X-3253209Y-1578061D01*
X-3253209Y-1555201D01*
X-3275434Y-1532341D01*
X-4275559Y-1854921D02*
X-4275559Y-1717761D01*
X-4164434Y-1717761D01*
X-4142209Y-1740621D01*
X-4142209Y-1763481D01*
X-4164434Y-1786341D01*
X-4275559Y-1786341D01*
X-4164434Y-1786341D02*
X-4142209Y-1809201D01*
X-4142209Y-1854921D01*
X-4097759Y-1717761D02*
X-3964409Y-1854921D01*
X-4097759Y-1854921D02*
X-3964409Y-1717761D01*
X-3875509Y-1763481D02*
X-3831059Y-1717761D01*
X-3831059Y-1854921D01*
X-3519909Y-1763481D02*
X-3475459Y-1717761D01*
X-3475459Y-1854921D01*
X-3253209Y-1763481D02*
X-3275434Y-1786341D01*
X-3342109Y-1786341D01*
X-3364334Y-1763481D01*
X-3364334Y-1740621D01*
X-3342109Y-1717761D01*
X-3275434Y-1717761D01*
X-3253209Y-1740621D01*
X-3253209Y-1832061D01*
X-3275434Y-1854921D01*
X-3342109Y-1854921D01*
X-4275559Y-2086061D02*
X-4253334Y-2108921D01*
X-4164434Y-2108921D01*
X-4142209Y-2086061D01*
X-4142209Y-2063201D01*
X-4164434Y-2040341D01*
X-4253334Y-2040341D01*
X-4275559Y-2017481D01*
X-4275559Y-1994621D01*
X-4253334Y-1971761D01*
X-4164434Y-1971761D01*
X-4142209Y-1994621D01*
X-4097759Y-2108921D02*
X-4097759Y-1971761D01*
X-4008859Y-1971761D01*
X-3964409Y-2017481D01*
X-3964409Y-2063201D01*
X-4008859Y-2108921D01*
X-4097759Y-2108921D01*
X-3919959Y-2108921D02*
X-3919959Y-2017481D01*
X-3875509Y-1971761D01*
X-3831059Y-1971761D01*
X-3786609Y-2017481D01*
X-3786609Y-2108921D01*
X-3919959Y-2063201D02*
X-3786609Y-2063201D01*
X-3542134Y-1994621D02*
X-3519909Y-1971761D01*
X-3453234Y-1971761D01*
X-3431009Y-1994621D01*
X-3431009Y-2017481D01*
X-3453234Y-2040341D01*
X-3519909Y-2040341D01*
X-3542134Y-2063201D01*
X-3542134Y-2108921D01*
X-3431009Y-2108921D01*
X-3386559Y-2086061D02*
X-3386559Y-1994621D01*
X-3364334Y-1971761D01*
X-3275434Y-1971761D01*
X-3253209Y-1994621D01*
X-3253209Y-2086061D01*
X-3275434Y-2108921D01*
X-3364334Y-2108921D01*
X-3386559Y-2086061D01*
X-3386559Y-2108921D02*
X-3253209Y-1971761D01*
X-4275559Y-2340061D02*
X-4253334Y-2362921D01*
X-4164434Y-2362921D01*
X-4142209Y-2340061D01*
X-4142209Y-2317201D01*
X-4164434Y-2294341D01*
X-4253334Y-2294341D01*
X-4275559Y-2271481D01*
X-4275559Y-2248621D01*
X-4253334Y-2225761D01*
X-4164434Y-2225761D01*
X-4142209Y-2248621D01*
X-3964409Y-2340061D02*
X-3986634Y-2362921D01*
X-4053309Y-2362921D01*
X-4097759Y-2317201D01*
X-4097759Y-2271481D01*
X-4053309Y-2225761D01*
X-3986634Y-2225761D01*
X-3964409Y-2248621D01*
X-3919959Y-2225761D02*
X-3919959Y-2362921D01*
X-3786609Y-2362921D01*
X-3542134Y-2248621D02*
X-3519909Y-2225761D01*
X-3453234Y-2225761D01*
X-3431009Y-2248621D01*
X-3431009Y-2271481D01*
X-3453234Y-2294341D01*
X-3519909Y-2294341D01*
X-3542134Y-2317201D01*
X-3542134Y-2362921D01*
X-3431009Y-2362921D01*
X-3342109Y-2271481D02*
X-3297659Y-2225761D01*
X-3297659Y-2362921D01*
X-3342109Y+2150659D02*
X-3364334Y+2173519D01*
X-3364334Y+2196379D01*
X-3342109Y+2219239D01*
X-3275434Y+2219239D01*
X-3253209Y+2196379D01*
X-3253209Y+2173519D01*
X-3275434Y+2150659D01*
X-3342109Y+2150659D01*
X-3364334Y+2127799D01*
X-3364334Y+2104939D01*
X-3342109Y+2082079D01*
X-3275434Y+2082079D01*
X-3253209Y+2104939D01*
X-3253209Y+2127799D01*
X-3275434Y+2150659D01*
X-3253209Y+2440219D02*
X-3275434Y+2417359D01*
X-3342109Y+2417359D01*
X-3364334Y+2440219D01*
X-3364334Y+2463079D01*
X-3342109Y+2485939D01*
X-3275434Y+2485939D01*
X-3253209Y+2463079D01*
X-3253209Y+2371639D01*
X-3275434Y+2348779D01*
X-3342109Y+2348779D01*
X-3519909Y+2694219D02*
X-3475459Y+2739939D01*
X-3475459Y+2602779D01*
X-3386559Y+2625639D02*
X-3386559Y+2717079D01*
X-3364334Y+2739939D01*
X-3275434Y+2739939D01*
X-3253209Y+2717079D01*
X-3253209Y+2625639D01*
X-3275434Y+2602779D01*
X-3364334Y+2602779D01*
X-3386559Y+2625639D01*
X-3386559Y+2602779D02*
X-3253209Y+2739939D01*
X-3519909Y+2948219D02*
X-3475459Y+2993939D01*
X-3475459Y+2856779D01*
X-3342109Y+2948219D02*
X-3297659Y+2993939D01*
X-3297659Y+2856779D01*
X-3532609Y+3189519D02*
X-3488159Y+3235239D01*
X-3488159Y+3098079D01*
X-3377034Y+3212379D02*
X-3354809Y+3235239D01*
X-3288134Y+3235239D01*
X-3265909Y+3212379D01*
X-3265909Y+3189519D01*
X-3288134Y+3166659D01*
X-3354809Y+3166659D01*
X-3377034Y+3143799D01*
X-3377034Y+3098079D01*
X-3265909Y+3098079D01*
X-3532609Y+3443519D02*
X-3488159Y+3489239D01*
X-3488159Y+3352079D01*
X-3377034Y+3466379D02*
X-3354809Y+3489239D01*
X-3288134Y+3489239D01*
X-3265909Y+3466379D01*
X-3265909Y+3443519D01*
X-3288134Y+3420659D01*
X-3265909Y+3397799D01*
X-3265909Y+3374939D01*
X-3288134Y+3352079D01*
X-3354809Y+3352079D01*
X-3377034Y+3374939D01*
X-3332584Y+3420659D02*
X-3288134Y+3420659D01*
X-3665959Y+3651799D02*
X-3621509Y+3651799D01*
X-3621509Y+3606079D01*
X-3710409Y+3606079D01*
X-3754859Y+3651799D01*
X-3754859Y+3697519D01*
X-3710409Y+3743239D01*
X-3643734Y+3743239D01*
X-3621509Y+3720379D01*
X-3577059Y+3606079D02*
X-3577059Y+3743239D01*
X-3443709Y+3606079D01*
X-3443709Y+3743239D01*
X-3399259Y+3606079D02*
X-3399259Y+3743239D01*
X-3310359Y+3743239D01*
X-3265909Y+3697519D01*
X-3265909Y+3651799D01*
X-3310359Y+3606079D01*
X-3399259Y+3606079D01*
X-3932659Y+3860079D02*
X-3932659Y+3951519D01*
X-3888209Y+3997239D01*
X-3843759Y+3997239D01*
X-3799309Y+3951519D01*
X-3799309Y+3860079D01*
X-3932659Y+3905799D02*
X-3799309Y+3905799D01*
X-3754859Y+3860079D02*
X-3754859Y+3997239D01*
X-3643734Y+3997239D01*
X-3621509Y+3974379D01*
X-3621509Y+3951519D01*
X-3643734Y+3928659D01*
X-3754859Y+3928659D01*
X-3643734Y+3928659D02*
X-3621509Y+3905799D01*
X-3621509Y+3860079D01*
X-3443709Y+3860079D02*
X-3577059Y+3860079D01*
X-3577059Y+3997239D01*
X-3443709Y+3997239D01*
X-3577059Y+3928659D02*
X-3488159Y+3928659D01*
X-3399259Y+3860079D02*
X-3399259Y+3997239D01*
X-3265909Y+3997239D01*
X-3399259Y+3928659D02*
X-3310359Y+3928659D01*
X-3919959Y+47539D02*
X-3786609Y+47539D01*
X-3853284Y+47539D02*
X-3853284Y-89621D01*
X-3742159Y-89621D02*
X-3742159Y+47539D01*
X-3631034Y+47539D01*
X-3608809Y+24679D01*
X-3608809Y+1819D01*
X-3631034Y-21041D01*
X-3742159Y-21041D01*
X-3631034Y-21041D02*
X-3608809Y-43901D01*
X-3608809Y-89621D01*
X-3475459Y+47539D02*
X-3542134Y-21041D01*
X-3475459Y-89621D01*
X-3386559Y-66761D02*
X-3386559Y+24679D01*
X-3364334Y+47539D01*
X-3275434Y+47539D01*
X-3253209Y+24679D01*
X-3253209Y-66761D01*
X-3275434Y-89621D01*
X-3364334Y-89621D01*
X-3386559Y-66761D01*
X-3386559Y-89621D02*
X-3253209Y+47539D01*
X-3919959Y+301539D02*
X-3786609Y+301539D01*
X-3853284Y+301539D02*
X-3853284Y+164379D01*
X-3742159Y+301539D02*
X-3608809Y+164379D01*
X-3742159Y+164379D02*
X-3608809Y+301539D01*
X-3519909Y+301539D02*
X-3453234Y+232959D01*
X-3519909Y+164379D01*
X-3342109Y+255819D02*
X-3297659Y+301539D01*
X-3297659Y+164379D01*
X-3364334Y+519979D02*
X-3342109Y+542839D01*
X-3275434Y+542839D01*
X-3253209Y+519979D01*
X-3253209Y+497119D01*
X-3275434Y+474259D01*
X-3342109Y+474259D01*
X-3364334Y+451399D01*
X-3364334Y+405679D01*
X-3253209Y+405679D01*
X-3364334Y+786679D02*
X-3342109Y+809539D01*
X-3275434Y+809539D01*
X-3253209Y+786679D01*
X-3253209Y+763819D01*
X-3275434Y+740959D01*
X-3253209Y+718099D01*
X-3253209Y+695239D01*
X-3275434Y+672379D01*
X-3342109Y+672379D01*
X-3364334Y+695239D01*
X-3319884Y+740959D02*
X-3275434Y+740959D01*
X-3253209Y+959399D02*
X-3386559Y+959399D01*
X-3297659Y+1050839D01*
X-3297659Y+913679D01*
X-3253209Y+1304839D02*
X-3364334Y+1304839D01*
X-3364334Y+1259119D01*
X-3275434Y+1259119D01*
X-3253209Y+1236259D01*
X-3253209Y+1190539D01*
X-3275434Y+1167679D01*
X-3342109Y+1167679D01*
X-3364334Y+1190539D01*
X-3253209Y+1535979D02*
X-3275434Y+1558839D01*
X-3342109Y+1558839D01*
X-3364334Y+1535979D01*
X-3364334Y+1444539D01*
X-3342109Y+1421679D01*
X-3275434Y+1421679D01*
X-3253209Y+1444539D01*
X-3253209Y+1467399D01*
X-3275434Y+1490259D01*
X-3364334Y+1490259D01*
X-3364334Y+1825539D02*
X-3253209Y+1825539D01*
X-3253209Y+1802679D01*
X-3364334Y+1688379D01*
X-3754859Y+4149639D02*
X-3732634Y+4126779D01*
X-3643734Y+4126779D01*
X-3621509Y+4149639D01*
X-3621509Y+4172499D01*
X-3643734Y+4195359D01*
X-3732634Y+4195359D01*
X-3754859Y+4218219D01*
X-3754859Y+4241079D01*
X-3732634Y+4263939D01*
X-3643734Y+4263939D01*
X-3621509Y+4241079D01*
X-3577059Y+4126779D02*
X-3577059Y+4263939D01*
X-3488159Y+4263939D01*
X-3443709Y+4218219D01*
X-3443709Y+4172499D01*
X-3488159Y+4126779D01*
X-3577059Y+4126779D01*
X-3399259Y+4126779D02*
X-3399259Y+4218219D01*
X-3354809Y+4263939D01*
X-3310359Y+4263939D01*
X-3265909Y+4218219D01*
X-3265909Y+4126779D01*
X-3399259Y+4172499D02*
X-3265909Y+4172499D01*
X-3754859Y+4403639D02*
X-3732634Y+4380779D01*
X-3643734Y+4380779D01*
X-3621509Y+4403639D01*
X-3621509Y+4426499D01*
X-3643734Y+4449359D01*
X-3732634Y+4449359D01*
X-3754859Y+4472219D01*
X-3754859Y+4495079D01*
X-3732634Y+4517939D01*
X-3643734Y+4517939D01*
X-3621509Y+4495079D01*
X-3443709Y+4403639D02*
X-3465934Y+4380779D01*
X-3532609Y+4380779D01*
X-3577059Y+4426499D01*
X-3577059Y+4472219D01*
X-3532609Y+4517939D01*
X-3465934Y+4517939D01*
X-3443709Y+4495079D01*
X-3399259Y+4517939D02*
X-3399259Y+4380779D01*
X-3265909Y+4380779D01*
X-5657319Y+3160309D02*
X-5657319Y+3287309D01*
X-5624299Y+3319059D01*
X-5492219Y+3319059D01*
X-5459199Y+3287309D01*
X-5459199Y+3160309D01*
X-5492219Y+3128559D01*
X-5591279Y+3128559D01*
X-5591279Y+3223809D01*
X-5525239Y+3223809D01*
X-5525239Y+3160309D01*
X-5657319Y+3065059D02*
X-5525239Y+3065059D01*
X-5459199Y+3001559D01*
X-5459199Y+2938059D01*
X-5525239Y+2874559D01*
X-5657319Y+2874559D01*
X-5591279Y+3065059D02*
X-5591279Y+2874559D01*
X-5459199Y+2715809D02*
X-5657319Y+2715809D01*
X-5558259Y+2557059D02*
X-5525239Y+2525309D01*
X-5525239Y+2398309D01*
X-5558259Y+2366559D01*
X-5624299Y+2366559D01*
X-5657319Y+2398309D01*
X-5657319Y+2525309D01*
X-5624299Y+2557059D01*
X-5657319Y+2557059D02*
X-5459199Y+2557059D01*
X-5657319Y+2112559D02*
X-5657319Y+2303059D01*
X-5459199Y+2303059D01*
X-5459199Y+2112559D01*
X-5558259Y+2303059D02*
X-5558259Y+2176059D01*
X-5525239Y+2017309D02*
X-5525239Y+1890309D01*
X-5558259Y+1858559D01*
X-5657319Y+1858559D01*
X-5657319Y+2017309D01*
X-5624299Y+2049059D01*
X-5591279Y+2017309D01*
X-5591279Y+1858559D01*
X-5558259Y+1604559D02*
X-5525239Y+1636309D01*
X-5525239Y+1763309D01*
X-5558259Y+1795059D01*
X-5591279Y+1795059D01*
X-5624299Y+1763309D01*
X-5624299Y+1636309D01*
X-5591279Y+1604559D01*
X-5525239Y+1604559D02*
X-5657319Y+1604559D01*
X-5690339Y+1636309D01*
X-5690339Y+1795059D01*
X-5459199Y+1445809D02*
X-5657319Y+1445809D01*
X-5591279Y+1287059D02*
X-5591279Y+1096559D01*
X-5558259Y+1096559D01*
X-5525239Y+1128309D01*
X-5525239Y+1255309D01*
X-5558259Y+1287059D01*
X-5624299Y+1287059D01*
X-5657319Y+1255309D01*
X-5657319Y+1128309D01*
X-5212819Y+3331759D02*
X-5080739Y+3331759D01*
X-5014699Y+3268259D01*
X-5014699Y+3204759D01*
X-5080739Y+3141259D01*
X-5212819Y+3141259D01*
X-5146779Y+3331759D02*
X-5146779Y+3141259D01*
X-5212819Y+3077759D02*
X-5014699Y+3077759D01*
X-5014699Y+2919009D01*
X-5047719Y+2887259D01*
X-5080739Y+2887259D01*
X-5113759Y+2919009D01*
X-5113759Y+3077759D01*
X-5113759Y+2919009D02*
X-5146779Y+2887259D01*
X-5212819Y+2887259D01*
X-5212819Y+2823759D02*
X-5014699Y+2823759D01*
X-5014699Y+2696759D01*
X-5080739Y+2633259D01*
X-5146779Y+2633259D01*
X-5212819Y+2696759D01*
X-5212819Y+2823759D01*
X-5014699Y+2569759D02*
X-5179799Y+2569759D01*
X-5212819Y+2538009D01*
X-5212819Y+2411009D01*
X-5179799Y+2379259D01*
X-5014699Y+2379259D01*
X-5014699Y+2284009D02*
X-5014699Y+2157009D01*
X-5014699Y+2220509D02*
X-5212819Y+2220509D01*
X-5212819Y+2284009D02*
X-5212819Y+2157009D01*
X-5212819Y+2061759D02*
X-5014699Y+2061759D01*
X-5212819Y+1871259D01*
X-5014699Y+1871259D01*
X-5080739Y+1807759D02*
X-5014699Y+1744259D01*
X-5014699Y+1680759D01*
X-5080739Y+1617259D01*
X-5146779Y+1617259D01*
X-5212819Y+1680759D01*
X-5212819Y+1744259D01*
X-5146779Y+1807759D01*
X-5080739Y+1807759D01*
X-5212819Y+1299759D02*
X-5014699Y+1299759D01*
X-5113759Y+1204509D01*
X-5014699Y+1109259D01*
X-5212819Y+1109259D01*
X-5212819Y+855259D02*
X-5212819Y+1045759D01*
X-5014699Y+1045759D01*
X-5014699Y+855259D01*
X-5113759Y+1045759D02*
X-5113759Y+918759D01*
X-5146779Y+664759D02*
X-5146779Y+601259D01*
X-5212819Y+601259D01*
X-5212819Y+728259D01*
X-5146779Y+791759D01*
X-5080739Y+791759D01*
X-5014699Y+728259D01*
X-5014699Y+633009D01*
X-5047719Y+601259D01*
X-5212819Y+537759D02*
X-5080739Y+537759D01*
X-5014699Y+474259D01*
X-5014699Y+410759D01*
X-5080739Y+347259D01*
X-5212819Y+347259D01*
X-5146779Y+537759D02*
X-5146779Y+347259D01*
X-5047719Y-1991D02*
X-5014699Y-33741D01*
X-5014699Y-128991D01*
X-5047719Y-160741D01*
X-5080739Y-160741D01*
X-5113759Y-128991D01*
X-5113759Y-33741D01*
X-5146779Y-1991D01*
X-5212819Y-1991D01*
X-5212819Y-160741D01*
X-5014699Y-414741D02*
X-5014699Y-255991D01*
X-5080739Y-255991D01*
X-5080739Y-382991D01*
X-5113759Y-414741D01*
X-5179799Y-414741D01*
X-5212819Y-382991D01*
X-5212819Y-287741D01*
X-5179799Y-255991D01*
X-5047719Y-668741D02*
X-5014699Y-636991D01*
X-5014699Y-541741D01*
X-5047719Y-509991D01*
X-5179799Y-509991D01*
X-5212819Y-541741D01*
X-5212819Y-636991D01*
X-5179799Y-668741D01*
X-5146779Y-668741D01*
X-5113759Y-636991D01*
X-5113759Y-509991D01*
X-5179799Y-732241D02*
X-5047719Y-732241D01*
X-5014699Y-763991D01*
X-5014699Y-890991D01*
X-5047719Y-922741D01*
X-5179799Y-922741D01*
X-5212819Y-890991D01*
X-5212819Y-763991D01*
X-5179799Y-732241D01*
X-5212819Y-732241D02*
X-5014699Y-922741D01*
D14*
X-9154259Y-6501741D02*
X+9135741Y-6501741D01*
X+9135741Y+6498259D01*
X-9154259Y+6498259D01*
X-9154259Y-6501741D01*
D15*
X+3362100Y+4865500D02*
X+3361969Y+4868658D01*
X+3360903Y+4874976D01*
X+3358672Y+4881294D01*
X+3355027Y+4887612D01*
X+3349452Y+4893851D01*
X+3343134Y+4898447D01*
X+3336816Y+4901380D01*
X+3330498Y+4903042D01*
X+3324180Y+4903600D01*
X+3324000Y+4903600D01*
X+3285900Y+4865500D02*
X+3286031Y+4868658D01*
X+3287097Y+4874976D01*
X+3289328Y+4881294D01*
X+3292973Y+4887612D01*
X+3298548Y+4893851D01*
X+3304866Y+4898447D01*
X+3311184Y+4901380D01*
X+3317502Y+4903042D01*
X+3323820Y+4903600D01*
X+3324000Y+4903600D01*
X+3285900Y+4865500D02*
X+3286031Y+4862342D01*
X+3287097Y+4856024D01*
X+3289328Y+4849706D01*
X+3292973Y+4843388D01*
X+3298548Y+4837149D01*
X+3304866Y+4832553D01*
X+3311184Y+4829620D01*
X+3317502Y+4827958D01*
X+3323820Y+4827400D01*
X+3324000Y+4827400D01*
X+3362100Y+4865500D02*
X+3361969Y+4862342D01*
X+3360903Y+4856024D01*
X+3358672Y+4849706D01*
X+3355027Y+4843388D01*
X+3349452Y+4837149D01*
X+3343134Y+4832553D01*
X+3336816Y+4829620D01*
X+3330498Y+4827958D01*
X+3324180Y+4827400D01*
X+3324000Y+4827400D01*
D18*
X+2963320Y+5388740D02*
X+8510680Y+5388740D01*
X+8510680Y+6320920D01*
X+2963320Y+6320920D01*
X+2963320Y+5388740D01*
D16*
X+6287750Y+5729020D02*
X+6192500Y+5729020D01*
X+6192500Y+5820460D01*
X+6287750Y+5820460D01*
X+6192500Y+5774740D02*
X+6256000Y+5774740D01*
X+6319500Y+5820460D02*
X+6414750Y+5729020D01*
X+6319500Y+5729020D02*
X+6414750Y+5820460D01*
X+6446500Y+5820460D02*
X+6541750Y+5820460D01*
X+6494125Y+5820460D02*
X+6494125Y+5729020D01*
X+6573500Y+5729020D02*
X+6573500Y+5820460D01*
X+6652875Y+5820460D01*
X+6668750Y+5805220D01*
X+6668750Y+5789980D01*
X+6652875Y+5774740D01*
X+6573500Y+5774740D01*
X+6652875Y+5774740D02*
X+6668750Y+5759500D01*
X+6668750Y+5729020D01*
X+6700500Y+5729020D02*
X+6700500Y+5789980D01*
X+6732250Y+5820460D01*
X+6764000Y+5820460D01*
X+6795750Y+5789980D01*
X+6795750Y+5729020D01*
X+6700500Y+5759500D02*
X+6795750Y+5759500D01*
X+6986250Y+5789980D02*
X+7018000Y+5820460D01*
X+7018000Y+5729020D01*
D15*
X-8341900Y+4859500D02*
X-8342031Y+4862658D01*
X-8343097Y+4868976D01*
X-8345328Y+4875294D01*
X-8348973Y+4881612D01*
X-8354548Y+4887851D01*
X-8360866Y+4892447D01*
X-8367184Y+4895380D01*
X-8373502Y+4897042D01*
X-8379820Y+4897600D01*
X-8380000Y+4897600D01*
X-8418100Y+4859500D02*
X-8417969Y+4862658D01*
X-8416903Y+4868976D01*
X-8414672Y+4875294D01*
X-8411027Y+4881612D01*
X-8405452Y+4887851D01*
X-8399134Y+4892447D01*
X-8392816Y+4895380D01*
X-8386498Y+4897042D01*
X-8380180Y+4897600D01*
X-8380000Y+4897600D01*
X-8418100Y+4859500D02*
X-8417969Y+4856342D01*
X-8416903Y+4850024D01*
X-8414672Y+4843706D01*
X-8411027Y+4837388D01*
X-8405452Y+4831149D01*
X-8399134Y+4826553D01*
X-8392816Y+4823620D01*
X-8386498Y+4821958D01*
X-8380180Y+4821400D01*
X-8380000Y+4821400D01*
X-8341900Y+4859500D02*
X-8342031Y+4856342D01*
X-8343097Y+4850024D01*
X-8345328Y+4843706D01*
X-8348973Y+4837388D01*
X-8354548Y+4831149D01*
X-8360866Y+4826553D01*
X-8367184Y+4823620D01*
X-8373502Y+4821958D01*
X-8379820Y+4821400D01*
X-8380000Y+4821400D01*
D18*
X-8740680Y+5382740D02*
X-3193320Y+5382740D01*
X-3193320Y+6314920D01*
X-8740680Y+6314920D01*
X-8740680Y+5382740D01*
D16*
X-6206250Y+5773020D02*
X-6301500Y+5773020D01*
X-6301500Y+5864460D01*
X-6206250Y+5864460D01*
X-6301500Y+5818740D02*
X-6238000Y+5818740D01*
X-6174500Y+5864460D02*
X-6079250Y+5773020D01*
X-6174500Y+5773020D02*
X-6079250Y+5864460D01*
X-6047500Y+5864460D02*
X-5952250Y+5864460D01*
X-5999875Y+5864460D02*
X-5999875Y+5773020D01*
X-5920500Y+5773020D02*
X-5920500Y+5864460D01*
X-5841125Y+5864460D01*
X-5825250Y+5849220D01*
X-5825250Y+5833980D01*
X-5841125Y+5818740D01*
X-5920500Y+5818740D01*
X-5841125Y+5818740D02*
X-5825250Y+5803500D01*
X-5825250Y+5773020D01*
X-5793500Y+5773020D02*
X-5793500Y+5833980D01*
X-5761750Y+5864460D01*
X-5730000Y+5864460D01*
X-5698250Y+5833980D01*
X-5698250Y+5773020D01*
X-5793500Y+5803500D02*
X-5698250Y+5803500D01*
X-5523625Y+5849220D02*
X-5507750Y+5864460D01*
X-5460125Y+5864460D01*
X-5444250Y+5849220D01*
X-5444250Y+5833980D01*
X-5460125Y+5818740D01*
X-5507750Y+5818740D01*
X-5523625Y+5803500D01*
X-5523625Y+5773020D01*
X-5444250Y+5773020D01*
M02*
