G04 PROTEUS GERBER X2 FILE*
%TF.GenerationSoftware,Labcenter,Proteus,8.6-SP2-Build23525*%
%TF.CreationDate,2019-12-11T18:48:13+00:00*%
%TF.FileFunction,AssemblyDrawing,Top*%
%TF.FilePolarity,Positive*%
%TF.Part,Single*%
%FSLAX45Y45*%
%MOMM*%
G01*
%TA.AperFunction,Material*%
%ADD16C,0.203200*%
%ADD20C,1.131140*%
%TA.AperFunction,Profile*%
%ADD14C,0.203200*%
%TA.AperFunction,Material*%
%ADD18C,0.152400*%
%ADD21C,0.598930*%
%TD.AperFunction*%
D16*
X+2908081Y-3841201D02*
X+8266211Y-3841201D01*
X+8266211Y+6339119D01*
X+2908081Y+6339119D01*
X+2908081Y-3841201D01*
D20*
X+5813376Y-1692018D02*
X+5926490Y-1805133D01*
X+5926490Y-2144476D01*
X+5700261Y-2370705D01*
X+5474032Y-2370705D01*
X+5247803Y-2144476D01*
X+5247803Y-1805133D01*
X+5360917Y-1692018D01*
X+5926490Y-1465789D02*
X+5474032Y-1465789D01*
X+5247803Y-1239560D01*
X+5247803Y-1013331D01*
X+5474032Y-787102D01*
X+5926490Y-787102D01*
X+5700261Y-1465789D02*
X+5700261Y-787102D01*
X+5926490Y-560873D02*
X+5247803Y-560873D01*
X+5247803Y+4699D01*
X+5360917Y+117814D01*
X+5474032Y+117814D01*
X+5587146Y+4699D01*
X+5587146Y-560873D01*
X+5587146Y+4699D02*
X+5700261Y+117814D01*
X+5926490Y+117814D01*
X+5926490Y+344043D02*
X+5247803Y+344043D01*
X+5247803Y+796501D01*
X+5474032Y+1022730D01*
X+5700261Y+1022730D01*
X+5926490Y+796501D01*
X+5926490Y+344043D01*
X+5587146Y+2266989D02*
X+5587146Y+2832562D01*
X+5474032Y+4189936D02*
X+5247803Y+4416165D01*
X+5926490Y+4416165D01*
D16*
X-2701919Y-3851201D02*
X+2656211Y-3851201D01*
X+2656211Y+6329119D01*
X-2701919Y+6329119D01*
X-2701919Y-3851201D01*
D20*
X+203376Y-1702018D02*
X+316490Y-1815133D01*
X+316490Y-2154476D01*
X+90261Y-2380705D01*
X-135968Y-2380705D01*
X-362197Y-2154476D01*
X-362197Y-1815133D01*
X-249083Y-1702018D01*
X+316490Y-1475789D02*
X-135968Y-1475789D01*
X-362197Y-1249560D01*
X-362197Y-1023331D01*
X-135968Y-797102D01*
X+316490Y-797102D01*
X+90261Y-1475789D02*
X+90261Y-797102D01*
X+316490Y-570873D02*
X-362197Y-570873D01*
X-362197Y-5301D01*
X-249083Y+107814D01*
X-135968Y+107814D01*
X-22854Y-5301D01*
X-22854Y-570873D01*
X-22854Y-5301D02*
X+90261Y+107814D01*
X+316490Y+107814D01*
X+316490Y+334043D02*
X-362197Y+334043D01*
X-362197Y+786501D01*
X-135968Y+1012730D01*
X+90261Y+1012730D01*
X+316490Y+786501D01*
X+316490Y+334043D01*
X-22854Y+2256989D02*
X-22854Y+2822562D01*
X-249083Y+4066821D02*
X-362197Y+4179936D01*
X-362197Y+4519279D01*
X-249083Y+4632394D01*
X-135968Y+4632394D01*
X-22854Y+4519279D01*
X-22854Y+4179936D01*
X+90261Y+4066821D01*
X+316490Y+4066821D01*
X+316490Y+4632394D01*
D16*
X-8171919Y-3841201D02*
X-2813789Y-3841201D01*
X-2813789Y+6339119D01*
X-8171919Y+6339119D01*
X-8171919Y-3841201D01*
D20*
X-5266624Y-1692018D02*
X-5153510Y-1805133D01*
X-5153510Y-2144476D01*
X-5379739Y-2370705D01*
X-5605968Y-2370705D01*
X-5832197Y-2144476D01*
X-5832197Y-1805133D01*
X-5719083Y-1692018D01*
X-5153510Y-1465789D02*
X-5605968Y-1465789D01*
X-5832197Y-1239560D01*
X-5832197Y-1013331D01*
X-5605968Y-787102D01*
X-5153510Y-787102D01*
X-5379739Y-1465789D02*
X-5379739Y-787102D01*
X-5153510Y-560873D02*
X-5832197Y-560873D01*
X-5832197Y+4699D01*
X-5719083Y+117814D01*
X-5605968Y+117814D01*
X-5492854Y+4699D01*
X-5492854Y-560873D01*
X-5492854Y+4699D02*
X-5379739Y+117814D01*
X-5153510Y+117814D01*
X-5153510Y+344043D02*
X-5832197Y+344043D01*
X-5832197Y+796501D01*
X-5605968Y+1022730D01*
X-5379739Y+1022730D01*
X-5153510Y+796501D01*
X-5153510Y+344043D01*
X-5492854Y+2266989D02*
X-5492854Y+2832562D01*
X-5719083Y+4076821D02*
X-5832197Y+4189936D01*
X-5832197Y+4529279D01*
X-5719083Y+4642394D01*
X-5605968Y+4642394D01*
X-5492854Y+4529279D01*
X-5379739Y+4642394D01*
X-5266624Y+4642394D01*
X-5153510Y+4529279D01*
X-5153510Y+4189936D01*
X-5266624Y+4076821D01*
X-5492854Y+4303050D02*
X-5492854Y+4529279D01*
D14*
X-9154259Y-6501741D02*
X+9135741Y-6501741D01*
X+9135741Y+6498259D01*
X-9154259Y+6498259D01*
X-9154259Y-6501741D01*
D18*
X+2937920Y+6346320D02*
X+2937920Y+5363340D01*
X+8536080Y+5363340D01*
X+8536080Y+6346320D01*
X+2937920Y+6346320D01*
X+2937920Y+5363340D01*
X+8536080Y+5363340D01*
X+8536080Y+6346320D01*
X+2937920Y+6346320D01*
D21*
X+4419351Y+5675150D02*
X+4059993Y+5675150D01*
X+4059993Y+6034509D01*
X+4419351Y+6034509D01*
X+4059993Y+5854830D02*
X+4299565Y+5854830D01*
X+4539138Y+6034509D02*
X+4898496Y+5675150D01*
X+4539138Y+5675150D02*
X+4898496Y+6034509D01*
X+5018283Y+6034509D02*
X+5377641Y+6034509D01*
X+5197962Y+6034509D02*
X+5197962Y+5675150D01*
X+5497428Y+5675150D02*
X+5497428Y+6034509D01*
X+5796893Y+6034509D01*
X+5856786Y+5974616D01*
X+5856786Y+5914723D01*
X+5796893Y+5854830D01*
X+5497428Y+5854830D01*
X+5796893Y+5854830D02*
X+5856786Y+5794936D01*
X+5856786Y+5675150D01*
X+5976573Y+5675150D02*
X+5976573Y+5914723D01*
X+6096359Y+6034509D01*
X+6216145Y+6034509D01*
X+6335931Y+5914723D01*
X+6335931Y+5675150D01*
X+5976573Y+5794936D02*
X+6335931Y+5794936D01*
X+7054649Y+5914723D02*
X+7174435Y+6034509D01*
X+7174435Y+5675150D01*
D18*
X-8766080Y+6340320D02*
X-8766080Y+5357340D01*
X-3167920Y+5357340D01*
X-3167920Y+6340320D01*
X-8766080Y+6340320D01*
X-8766080Y+5357340D01*
X-3167920Y+5357340D01*
X-3167920Y+6340320D01*
X-8766080Y+6340320D01*
D21*
X-7284649Y+5669150D02*
X-7644007Y+5669150D01*
X-7644007Y+6028509D01*
X-7284649Y+6028509D01*
X-7644007Y+5848830D02*
X-7404435Y+5848830D01*
X-7164862Y+6028509D02*
X-6805504Y+5669150D01*
X-7164862Y+5669150D02*
X-6805504Y+6028509D01*
X-6685717Y+6028509D02*
X-6326359Y+6028509D01*
X-6506038Y+6028509D02*
X-6506038Y+5669150D01*
X-6206572Y+5669150D02*
X-6206572Y+6028509D01*
X-5907107Y+6028509D01*
X-5847214Y+5968616D01*
X-5847214Y+5908723D01*
X-5907107Y+5848830D01*
X-6206572Y+5848830D01*
X-5907107Y+5848830D02*
X-5847214Y+5788936D01*
X-5847214Y+5669150D01*
X-5727427Y+5669150D02*
X-5727427Y+5908723D01*
X-5607641Y+6028509D01*
X-5487855Y+6028509D01*
X-5368069Y+5908723D01*
X-5368069Y+5669150D01*
X-5727427Y+5788936D02*
X-5368069Y+5788936D01*
X-4709244Y+5968616D02*
X-4649351Y+6028509D01*
X-4469672Y+6028509D01*
X-4409779Y+5968616D01*
X-4409779Y+5908723D01*
X-4469672Y+5848830D01*
X-4649351Y+5848830D01*
X-4709244Y+5788936D01*
X-4709244Y+5669150D01*
X-4409779Y+5669150D01*
M02*
