G04 PROTEUS GERBER X2 FILE*
%TF.GenerationSoftware,Labcenter,Proteus,8.6-SP2-Build23525*%
%TF.CreationDate,2019-12-11T18:48:13+00:00*%
%TF.FileFunction,Copper,L2,Bot*%
%TF.FilePolarity,Positive*%
%TF.Part,Single*%
%FSLAX45Y45*%
%MOMM*%
G01*
%TA.AperFunction,Conductor*%
%ADD10C,0.254000*%
%TA.AperFunction,ViaPad*%
%ADD11C,1.016000*%
%TA.AperFunction,WasherPad*%
%ADD12C,1.524000*%
%TA.AperFunction,ComponentPad*%
%ADD13C,2.032000*%
%TA.AperFunction,Profile*%
%ADD14C,0.203200*%
%TD.AperFunction*%
G36*
X-6462299Y+5346459D02*
X-6462299Y+5256656D01*
X-6395344Y+5189701D01*
X-6300656Y+5189701D01*
X-6273799Y+5216558D01*
X-6273799Y+5137442D01*
X-6300656Y+5164299D01*
X-6395344Y+5164299D01*
X-6462299Y+5097344D01*
X-6462299Y+5002656D01*
X-6395344Y+4935701D01*
X-6300656Y+4935701D01*
X-6273799Y+4962558D01*
X-6273799Y-1354541D01*
X-6180541Y-1447799D01*
X-5535923Y-1447799D01*
X-5497823Y-1485899D01*
X-5424177Y-1485899D01*
X-5372101Y-1433823D01*
X-5372101Y-1360177D01*
X-5424177Y-1308101D01*
X-5497823Y-1308101D01*
X-5535923Y-1346201D01*
X-6138459Y-1346201D01*
X-6172201Y-1312459D01*
X-6172201Y+4966558D01*
X-6141344Y+4935701D01*
X-6046656Y+4935701D01*
X-6019799Y+4962558D01*
X-6019799Y+2709459D01*
X-5905500Y+2595160D01*
X-3221458Y+2595160D01*
X-3221458Y+2588094D01*
X-3152323Y+2518959D01*
X-3221458Y+2449824D01*
X-3221458Y+2334094D01*
X-3152323Y+2264959D01*
X-3221458Y+2195824D01*
X-3221458Y+2080094D01*
X-3139624Y+1998260D01*
X-3023894Y+1998260D01*
X-3018897Y+2003257D01*
X-2781299Y+1765659D01*
X-2781299Y+1528339D01*
X-2947057Y+1694097D01*
X-2942060Y+1699094D01*
X-2942060Y+1814824D01*
X-3023894Y+1896658D01*
X-3139624Y+1896658D01*
X-3221458Y+1814824D01*
X-3221458Y+1699094D01*
X-3152323Y+1629959D01*
X-3221458Y+1560824D01*
X-3221458Y+1445094D01*
X-3216461Y+1440097D01*
X-3289299Y+1367259D01*
X-3289299Y+748021D01*
X-3328677Y+787399D01*
X-3402323Y+787399D01*
X-3454399Y+735323D01*
X-3454399Y+661677D01*
X-3416299Y+623577D01*
X-3416299Y-2655577D01*
X-3454399Y-2693677D01*
X-3454399Y-2767323D01*
X-3402323Y-2819399D01*
X-3328677Y-2819399D01*
X-3276601Y-2767323D01*
X-3276601Y-2693677D01*
X-3314701Y-2655577D01*
X-3314701Y+623577D01*
X-3289299Y+648979D01*
X-3289299Y-148041D01*
X-3035298Y-402042D01*
X-3139624Y-402042D01*
X-3221458Y-483876D01*
X-3221458Y-599606D01*
X-3152323Y-668741D01*
X-3221458Y-737876D01*
X-3221458Y-853606D01*
X-3152323Y-922741D01*
X-3221458Y-991876D01*
X-3221458Y-1107606D01*
X-3152323Y-1176741D01*
X-3221458Y-1245876D01*
X-3221458Y-1361606D01*
X-3152323Y-1430741D01*
X-3221458Y-1499876D01*
X-3221458Y-1615606D01*
X-3152323Y-1684741D01*
X-3221458Y-1753876D01*
X-3221458Y-1869606D01*
X-3152323Y-1938741D01*
X-3221458Y-2007876D01*
X-3221458Y-2123606D01*
X-3152323Y-2192741D01*
X-3221458Y-2261876D01*
X-3221458Y-2377606D01*
X-3139624Y-2459440D01*
X-3023894Y-2459440D01*
X-2971799Y-2407345D01*
X-2971799Y-2943337D01*
X-3023894Y-2891242D01*
X-3139624Y-2891242D01*
X-3208759Y-2960377D01*
X-3277894Y-2891242D01*
X-3393624Y-2891242D01*
X-3462759Y-2960377D01*
X-3531894Y-2891242D01*
X-3538960Y-2891242D01*
X-3538960Y-1820459D01*
X-3632218Y-1727201D01*
X-5767077Y-1727201D01*
X-5805177Y-1689101D01*
X-5878823Y-1689101D01*
X-5930899Y-1741177D01*
X-5930899Y-1814823D01*
X-5878823Y-1866899D01*
X-5805177Y-1866899D01*
X-5767077Y-1828799D01*
X-3674300Y-1828799D01*
X-3640558Y-1862541D01*
X-3640558Y-2891242D01*
X-3647624Y-2891242D01*
X-3716759Y-2960377D01*
X-3785894Y-2891242D01*
X-3792960Y-2891242D01*
X-3792960Y-2137959D01*
X-3886218Y-2044701D01*
X-5855979Y-2044701D01*
X-5816601Y-2005323D01*
X-5816601Y-1931677D01*
X-5868677Y-1879601D01*
X-5942323Y-1879601D01*
X-5980423Y-1917701D01*
X-6084577Y-1917701D01*
X-6122677Y-1879601D01*
X-6196323Y-1879601D01*
X-6248399Y-1931677D01*
X-6248399Y-2005323D01*
X-6221722Y-2032000D01*
X-6248399Y-2058677D01*
X-6248399Y-2132323D01*
X-6221722Y-2159000D01*
X-6248399Y-2185677D01*
X-6248399Y-2259323D01*
X-6196323Y-2311399D01*
X-6122677Y-2311399D01*
X-6084577Y-2273299D01*
X-4085041Y-2273299D01*
X-4051299Y-2307041D01*
X-4051299Y-2417361D01*
X-4169958Y-2298702D01*
X-5863042Y-2298702D01*
X-6244041Y-2679701D01*
X-7641041Y-2679701D01*
X-7696201Y-2734861D01*
X-7696201Y-2561041D01*
X-7662458Y-2527298D01*
X-6836958Y-2527298D01*
X-6621059Y-2311399D01*
X-6567177Y-2311399D01*
X-6527799Y-2272021D01*
X-6527799Y-2274577D01*
X-6565899Y-2312677D01*
X-6565899Y-2386323D01*
X-6513823Y-2438399D01*
X-6440177Y-2438399D01*
X-6388101Y-2386323D01*
X-6388101Y-2312677D01*
X-6426201Y-2274577D01*
X-6426201Y+1322077D01*
X-6388101Y+1360177D01*
X-6388101Y+1433823D01*
X-6440177Y+1485899D01*
X-6513823Y+1485899D01*
X-6553201Y+1446521D01*
X-6553201Y+4937156D01*
X-6487701Y+5002656D01*
X-6487701Y+5097344D01*
X-6554656Y+5164299D01*
X-6649344Y+5164299D01*
X-6680201Y+5133442D01*
X-6680201Y+5153959D01*
X-6644459Y+5189701D01*
X-6554656Y+5189701D01*
X-6487701Y+5256656D01*
X-6487701Y+5351344D01*
X-6554656Y+5418299D01*
X-6649344Y+5418299D01*
X-6716299Y+5351344D01*
X-6716299Y+5261541D01*
X-6781799Y+5196041D01*
X-6781799Y+5137442D01*
X-6808656Y+5164299D01*
X-6903344Y+5164299D01*
X-6934201Y+5133442D01*
X-6934201Y+5153959D01*
X-6898459Y+5189701D01*
X-6808656Y+5189701D01*
X-6741701Y+5256656D01*
X-6741701Y+5351344D01*
X-6808656Y+5418299D01*
X-6903344Y+5418299D01*
X-6970299Y+5351344D01*
X-6970299Y+5261541D01*
X-7035799Y+5196041D01*
X-7035799Y+5137442D01*
X-7062656Y+5164299D01*
X-7157344Y+5164299D01*
X-7188201Y+5133442D01*
X-7188201Y+5153959D01*
X-7152459Y+5189701D01*
X-7062656Y+5189701D01*
X-6995701Y+5256656D01*
X-6995701Y+5351344D01*
X-7062656Y+5418299D01*
X-7157344Y+5418299D01*
X-7224299Y+5351344D01*
X-7224299Y+5261541D01*
X-7289799Y+5196041D01*
X-7289799Y+5137442D01*
X-7316656Y+5164299D01*
X-7411344Y+5164299D01*
X-7442201Y+5133442D01*
X-7442201Y+5200041D01*
X-7503701Y+5261541D01*
X-7503701Y+5351344D01*
X-7570656Y+5418299D01*
X-7665344Y+5418299D01*
X-7732299Y+5351344D01*
X-7732299Y+5256656D01*
X-7665344Y+5189701D01*
X-7575541Y+5189701D01*
X-7543799Y+5157959D01*
X-7543799Y+5137442D01*
X-7570656Y+5164299D01*
X-7665344Y+5164299D01*
X-7696201Y+5133442D01*
X-7696201Y+5200041D01*
X-7757701Y+5261541D01*
X-7757701Y+5351344D01*
X-7824656Y+5418299D01*
X-7919344Y+5418299D01*
X-7986299Y+5351344D01*
X-7986299Y+5256656D01*
X-7919344Y+5189701D01*
X-7829541Y+5189701D01*
X-7797799Y+5157959D01*
X-7797799Y+5137442D01*
X-7824656Y+5164299D01*
X-7914459Y+5164299D01*
X-7977959Y+5227799D01*
X-8040558Y+5227799D01*
X-8011701Y+5256656D01*
X-8011701Y+5351344D01*
X-8078656Y+5418299D01*
X-8168459Y+5418299D01*
X-8223861Y+5473701D01*
X-6589541Y+5473701D01*
X-6462299Y+5346459D01*
G37*
%LPC*%
G36*
X-7411344Y+5418299D02*
X-7316656Y+5418299D01*
X-7249701Y+5351344D01*
X-7249701Y+5256656D01*
X-7316656Y+5189701D01*
X-7411344Y+5189701D01*
X-7478299Y+5256656D01*
X-7478299Y+5351344D01*
X-7411344Y+5418299D01*
G37*
G36*
X-5499101Y-1169677D02*
X-5499101Y-1243323D01*
X-5551177Y-1295399D01*
X-5624823Y-1295399D01*
X-5647429Y-1272793D01*
X-5973071Y-1272793D01*
X-5995677Y-1295399D01*
X-6069323Y-1295399D01*
X-6121399Y-1243323D01*
X-6121399Y-1169677D01*
X-6069323Y-1117601D01*
X-5995677Y-1117601D01*
X-5943601Y-1169677D01*
X-5943601Y-1171195D01*
X-5676899Y-1171195D01*
X-5676899Y-1169677D01*
X-5624823Y-1117601D01*
X-5551177Y-1117601D01*
X-5499101Y-1169677D01*
G37*
G36*
X-6381750Y+1891849D02*
X-6381750Y+1918151D01*
X-6363151Y+1936750D01*
X-6336849Y+1936750D01*
X-6318250Y+1918151D01*
X-6318250Y+1891849D01*
X-6336849Y+1873250D01*
X-6363151Y+1873250D01*
X-6381750Y+1891849D01*
G37*
G36*
X-7461250Y-2616651D02*
X-7461250Y-2590349D01*
X-7442651Y-2571750D01*
X-7416349Y-2571750D01*
X-7397750Y-2590349D01*
X-7397750Y-2616651D01*
X-7416349Y-2635250D01*
X-7442651Y-2635250D01*
X-7461250Y-2616651D01*
G37*
%LPD*%
G36*
X+3124201Y+4191000D02*
X+3124201Y+4169959D01*
X+3314701Y+3979459D01*
X+3314701Y+3742139D01*
X+3136899Y+3919941D01*
X+3136899Y+3973823D01*
X+3084823Y+4025899D01*
X+3011177Y+4025899D01*
X+2959101Y+3973823D01*
X+2959101Y+3900177D01*
X+3011177Y+3848101D01*
X+3065059Y+3848101D01*
X+3262521Y+3650639D01*
X+3262521Y+3629543D01*
X+3230106Y+3661958D01*
X+3114376Y+3661958D01*
X+3032542Y+3580124D01*
X+3032542Y+3464394D01*
X+3101677Y+3395259D01*
X+3032542Y+3326124D01*
X+3032542Y+3210394D01*
X+3101677Y+3141259D01*
X+3032542Y+3072124D01*
X+3032542Y+2956394D01*
X+3101677Y+2887259D01*
X+3032542Y+2818124D01*
X+3032542Y+2702394D01*
X+3101677Y+2633259D01*
X+3032542Y+2564124D01*
X+3032542Y+2448394D01*
X+3101677Y+2379259D01*
X+3032542Y+2310124D01*
X+3032542Y+2194394D01*
X+3101677Y+2125259D01*
X+3032542Y+2056124D01*
X+3032542Y+1940394D01*
X+3101677Y+1871259D01*
X+3032542Y+1802124D01*
X+3032542Y+1738298D01*
X+2592082Y+2178758D01*
X+2527940Y+2178758D01*
X+2527940Y+2185824D01*
X+2458805Y+2254959D01*
X+2527940Y+2324094D01*
X+2527940Y+2439824D01*
X+2458805Y+2508959D01*
X+2527940Y+2578094D01*
X+2527940Y+2585160D01*
X+2709459Y+2585160D01*
X+2743202Y+2551417D01*
X+2743201Y+2424423D01*
X+2705101Y+2386323D01*
X+2705101Y+2312677D01*
X+2757177Y+2260601D01*
X+2830823Y+2260601D01*
X+2882899Y+2312677D01*
X+2882899Y+2386323D01*
X+2844799Y+2424423D01*
X+2844798Y+2593501D01*
X+2751541Y+2686758D01*
X+2527940Y+2686758D01*
X+2527940Y+2693824D01*
X+2458805Y+2762959D01*
X+2527940Y+2832094D01*
X+2527940Y+2839160D01*
X+2815041Y+2839160D01*
X+2908299Y+2932418D01*
X+2908299Y+3481077D01*
X+2946399Y+3519177D01*
X+2946399Y+3592823D01*
X+2894323Y+3644899D01*
X+2820677Y+3644899D01*
X+2768601Y+3592823D01*
X+2768601Y+3519177D01*
X+2806701Y+3481077D01*
X+2806701Y+3224521D01*
X+2767323Y+3263899D01*
X+2693677Y+3263899D01*
X+2641601Y+3211823D01*
X+2641601Y+3194758D01*
X+2527940Y+3194758D01*
X+2527940Y+3201824D01*
X+2458805Y+3270959D01*
X+2527940Y+3340094D01*
X+2527940Y+3455824D01*
X+2458805Y+3524959D01*
X+2527940Y+3594094D01*
X+2527940Y+3709824D01*
X+2458805Y+3778959D01*
X+2527940Y+3848094D01*
X+2527940Y+3963824D01*
X+2454305Y+4037459D01*
X+2527940Y+4111094D01*
X+2527940Y+4226824D01*
X+2456955Y+4297809D01*
X+2527940Y+4368794D01*
X+2527940Y+4448720D01*
X+2578101Y+4398559D01*
X+2578101Y+4344677D01*
X+2630177Y+4292601D01*
X+2703823Y+4292601D01*
X+2755899Y+4344677D01*
X+2755899Y+4418323D01*
X+2703823Y+4470399D01*
X+2649941Y+4470399D01*
X+2497541Y+4622799D01*
X+2010959Y+4622799D01*
X+1917701Y+4529541D01*
X+1917701Y-1220479D01*
X+1892299Y-1195077D01*
X+1892299Y+4614459D01*
X+1926041Y+4648201D01*
X+2582459Y+4648201D01*
X+2705101Y+4525559D01*
X+2705101Y+4471677D01*
X+2757177Y+4419601D01*
X+2830823Y+4419601D01*
X+2870201Y+4458979D01*
X+2870201Y+4202423D01*
X+2832101Y+4164323D01*
X+2832101Y+4090677D01*
X+2884177Y+4038601D01*
X+2957823Y+4038601D01*
X+3009899Y+4090677D01*
X+3009899Y+4164323D01*
X+2971799Y+4202423D01*
X+2971799Y+4966979D01*
X+3011177Y+4927601D01*
X+3084823Y+4927601D01*
X+3124201Y+4966979D01*
X+3124201Y+4191000D01*
G37*
G36*
X+5686201Y+5161959D02*
X+5749701Y+5098459D01*
X+5749701Y+5008656D01*
X+5816656Y+4941701D01*
X+5911344Y+4941701D01*
X+5940201Y+4970558D01*
X+5940201Y+4869041D01*
X+5803899Y+4732739D01*
X+5803899Y+4799323D01*
X+5751823Y+4851399D01*
X+5678177Y+4851399D01*
X+5626101Y+4799323D01*
X+5626101Y+4725677D01*
X+5664201Y+4687577D01*
X+5664201Y+592541D01*
X+5448299Y+376639D01*
X+5448299Y+1893577D01*
X+5486399Y+1931677D01*
X+5486399Y+2005323D01*
X+5434323Y+2057399D01*
X+5360677Y+2057399D01*
X+5308601Y+2005323D01*
X+5308601Y+1931677D01*
X+5346701Y+1893577D01*
X+5346701Y-2772959D01*
X+5312959Y-2806701D01*
X+5193021Y-2806701D01*
X+5232399Y-2767323D01*
X+5232399Y-2693677D01*
X+5194299Y-2655577D01*
X+5194299Y-2424423D01*
X+5232399Y-2386323D01*
X+5232399Y-2312677D01*
X+5180323Y-2260601D01*
X+5106677Y-2260601D01*
X+5067299Y-2299979D01*
X+5067299Y-2297423D01*
X+5105399Y-2259323D01*
X+5105399Y-2185677D01*
X+5053323Y-2133601D01*
X+4979677Y-2133601D01*
X+4963999Y-2149279D01*
X+4963999Y+4806659D01*
X+5025799Y+4868459D01*
X+5025799Y+4970558D01*
X+5051201Y+4945156D01*
X+5051201Y+4615041D01*
X+5029201Y+4593041D01*
X+5029201Y-1195077D01*
X+4991101Y-1233177D01*
X+4991101Y-1306823D01*
X+5043177Y-1358899D01*
X+5116823Y-1358899D01*
X+5168899Y-1306823D01*
X+5168899Y-1233177D01*
X+5130799Y-1195077D01*
X+5130799Y+4077979D01*
X+5170177Y+4038601D01*
X+5243823Y+4038601D01*
X+5295899Y+4090677D01*
X+5295899Y+4164323D01*
X+5279799Y+4180423D01*
X+5279799Y+4970558D01*
X+5308656Y+4941701D01*
X+5403344Y+4941701D01*
X+5427550Y+4965907D01*
X+5427550Y+4343399D01*
X+5424177Y+4343399D01*
X+5372101Y+4291323D01*
X+5372101Y+4217677D01*
X+5424177Y+4165601D01*
X+5497823Y+4165601D01*
X+5549899Y+4217677D01*
X+5549899Y+4291323D01*
X+5529148Y+4312074D01*
X+5529148Y+4822630D01*
X+5551177Y+4800601D01*
X+5624823Y+4800601D01*
X+5676899Y+4852677D01*
X+5676899Y+4926323D01*
X+5660799Y+4942423D01*
X+5660799Y+4945156D01*
X+5724299Y+5008656D01*
X+5724299Y+5103344D01*
X+5657344Y+5170299D01*
X+5562656Y+5170299D01*
X+5529148Y+5136791D01*
X+5529148Y+5157308D01*
X+5567541Y+5195701D01*
X+5657344Y+5195701D01*
X+5686201Y+5224558D01*
X+5686201Y+5161959D01*
G37*
%LPC*%
G36*
X+5175250Y-1727651D02*
X+5175250Y-1701349D01*
X+5193849Y-1682750D01*
X+5220151Y-1682750D01*
X+5238750Y-1701349D01*
X+5238750Y-1727651D01*
X+5220151Y-1746250D01*
X+5193849Y-1746250D01*
X+5175250Y-1727651D01*
G37*
G36*
X+5175250Y+1955349D02*
X+5175250Y+1981651D01*
X+5193849Y+2000250D01*
X+5220151Y+2000250D01*
X+5238750Y+1981651D01*
X+5238750Y+1955349D01*
X+5220151Y+1936750D01*
X+5193849Y+1936750D01*
X+5175250Y+1955349D01*
G37*
%LPD*%
G36*
X+8140701Y+4550959D02*
X+8140701Y+3630923D01*
X+8137940Y+3628162D01*
X+8137940Y+3719824D01*
X+8068805Y+3788959D01*
X+8137940Y+3858094D01*
X+8137940Y+3973824D01*
X+8064305Y+4047459D01*
X+8137940Y+4121094D01*
X+8137940Y+4236824D01*
X+8066955Y+4307809D01*
X+8137940Y+4378794D01*
X+8137940Y+4494524D01*
X+8056106Y+4576358D01*
X+7940376Y+4576358D01*
X+7858542Y+4494524D01*
X+7858542Y+4378794D01*
X+7929527Y+4307809D01*
X+7858542Y+4236824D01*
X+7858542Y+4121094D01*
X+7932177Y+4047459D01*
X+7858542Y+3973824D01*
X+7858542Y+3858094D01*
X+7927677Y+3788959D01*
X+7858542Y+3719824D01*
X+7858542Y+3604094D01*
X+7927677Y+3534959D01*
X+7858542Y+3465824D01*
X+7858542Y+3350094D01*
X+7927677Y+3280959D01*
X+7858542Y+3211824D01*
X+7858542Y+3096094D01*
X+7927677Y+3026959D01*
X+7858542Y+2957824D01*
X+7858542Y+2842094D01*
X+7863539Y+2837097D01*
X+7797798Y+2771356D01*
X+7797798Y+4550958D01*
X+7831541Y+4584701D01*
X+8106959Y+4584701D01*
X+8140701Y+4550959D01*
G37*
G36*
X+2248542Y+4484524D02*
X+2248542Y+4368794D01*
X+2319527Y+4297809D01*
X+2248542Y+4226824D01*
X+2248542Y+4111094D01*
X+2322177Y+4037459D01*
X+2248542Y+3963824D01*
X+2248542Y+3848094D01*
X+2317677Y+3778959D01*
X+2248542Y+3709824D01*
X+2248542Y+3594094D01*
X+2317677Y+3524959D01*
X+2248542Y+3455824D01*
X+2248542Y+3340094D01*
X+2253539Y+3335097D01*
X+2171701Y+3253259D01*
X+2171701Y+1947459D01*
X+2264959Y+1854201D01*
X+2297919Y+1854201D01*
X+2248542Y+1804824D01*
X+2248542Y+1689094D01*
X+2253539Y+1684097D01*
X+2171701Y+1602259D01*
X+2171701Y-275041D01*
X+2226861Y-330201D01*
X+2180041Y-330201D01*
X+2146298Y-296458D01*
X+2146299Y+4116077D01*
X+2184399Y+4154177D01*
X+2184399Y+4227823D01*
X+2132323Y+4279899D01*
X+2058677Y+4279899D01*
X+2019299Y+4240521D01*
X+2019299Y+4487459D01*
X+2053041Y+4521201D01*
X+2285219Y+4521201D01*
X+2248542Y+4484524D01*
G37*
G36*
X-290823Y-1739899D02*
X-217177Y-1739899D01*
X-202558Y-1725280D01*
X-202558Y-2148220D01*
X-217177Y-2133601D01*
X-290823Y-2133601D01*
X-328923Y-2171701D01*
X-871300Y-2171701D01*
X-964558Y-2264959D01*
X-964558Y-2901242D01*
X-971624Y-2901242D01*
X-1040759Y-2970377D01*
X-1109894Y-2901242D01*
X-1225624Y-2901242D01*
X-1230621Y-2906239D01*
X-1457159Y-2679701D01*
X-2180041Y-2679701D01*
X-2273299Y-2772959D01*
X-2273299Y-4296959D01*
X-2717799Y-4741459D01*
X-2717799Y-5767077D01*
X-2755899Y-5805177D01*
X-2755899Y-5878823D01*
X-2703823Y-5930899D01*
X-2630177Y-5930899D01*
X-2578101Y-5878823D01*
X-2578101Y-5805177D01*
X-2616201Y-5767077D01*
X-2616201Y-5764521D01*
X-2576823Y-5803899D01*
X-2503177Y-5803899D01*
X-2451101Y-5751823D01*
X-2451101Y-5678177D01*
X-2503177Y-5626101D01*
X-2552702Y-5626101D01*
X-2552702Y-4847042D01*
X-2108201Y-4402541D01*
X-2108201Y-3652269D01*
X-1339558Y-4420912D01*
X-1339558Y-4630720D01*
X-1360177Y-4610101D01*
X-1433823Y-4610101D01*
X-1460458Y-4636736D01*
X-1615835Y-4636736D01*
X-1720558Y-4741459D01*
X-1720558Y-5016197D01*
X-1745960Y-5041599D01*
X-1745960Y-5040200D01*
X-1883959Y-4902201D01*
X-2024758Y-4902201D01*
X-2135300Y-5012742D01*
X-2225103Y-5012742D01*
X-2292058Y-5079697D01*
X-2292058Y-5174385D01*
X-2253371Y-5213072D01*
X-2345728Y-5305429D01*
X-2384415Y-5266742D01*
X-2479103Y-5266742D01*
X-2546058Y-5333697D01*
X-2546058Y-5428385D01*
X-2482558Y-5491885D01*
X-2482558Y-5531836D01*
X-2501899Y-5551177D01*
X-2501899Y-5624823D01*
X-2449823Y-5676899D01*
X-2376177Y-5676899D01*
X-2355557Y-5656279D01*
X-2355557Y-6138458D01*
X-2389300Y-6172201D01*
X-4712979Y-6172201D01*
X-4673601Y-6132823D01*
X-4673601Y-6059177D01*
X-4725677Y-6007101D01*
X-4799323Y-6007101D01*
X-4837423Y-6045201D01*
X-7471959Y-6045201D01*
X-7721601Y-5795559D01*
X-7721601Y-5741677D01*
X-7773677Y-5689601D01*
X-7847323Y-5689601D01*
X-7899399Y-5741677D01*
X-7899399Y-5815323D01*
X-7847323Y-5867399D01*
X-7793441Y-5867399D01*
X-7514041Y-6146799D01*
X-4837423Y-6146799D01*
X-4812021Y-6172201D01*
X-8678459Y-6172201D01*
X-8712201Y-6138459D01*
X-8712201Y-5583639D01*
X-8657041Y-5638799D01*
X-7320884Y-5638799D01*
X-7414858Y-5732773D01*
X-7414858Y-5909309D01*
X-7290027Y-6034140D01*
X-7113491Y-6034140D01*
X-6988660Y-5909309D01*
X-6988660Y-5837062D01*
X-6958323Y-5867399D01*
X-6884677Y-5867399D01*
X-6832601Y-5815323D01*
X-6832601Y-5741677D01*
X-6884677Y-5689601D01*
X-6938559Y-5689601D01*
X-7090959Y-5537201D01*
X-7148079Y-5537201D01*
X-7096218Y-5485340D01*
X-7006415Y-5485340D01*
X-6972299Y-5451224D01*
X-6972299Y-5482041D01*
X-6752041Y-5702299D01*
X-6018521Y-5702299D01*
X-6057899Y-5741677D01*
X-6057899Y-5815323D01*
X-6005823Y-5867399D01*
X-5932177Y-5867399D01*
X-5894077Y-5829299D01*
X-4423959Y-5829299D01*
X-4330701Y-5736041D01*
X-4330701Y-5461742D01*
X-4307103Y-5485340D01*
X-4212415Y-5485340D01*
X-4178299Y-5451224D01*
X-4178299Y-5672541D01*
X-4085041Y-5765799D01*
X-3186423Y-5765799D01*
X-3148323Y-5803899D01*
X-3074677Y-5803899D01*
X-3022601Y-5751823D01*
X-3022601Y-5678177D01*
X-3074677Y-5626101D01*
X-3148323Y-5626101D01*
X-3186423Y-5664201D01*
X-4042959Y-5664201D01*
X-4076701Y-5630459D01*
X-4076701Y-5461742D01*
X-4056558Y-5481885D01*
X-4056558Y-5545540D01*
X-4026800Y-5575298D01*
X-3915958Y-5575298D01*
X-3822701Y-5482041D01*
X-3822701Y-5461742D01*
X-3799103Y-5485340D01*
X-3704415Y-5485340D01*
X-3637460Y-5418385D01*
X-3637460Y-5328582D01*
X-3568701Y-5259823D01*
X-3568701Y-5207742D01*
X-3545103Y-5231340D01*
X-3450415Y-5231340D01*
X-3390899Y-5171824D01*
X-3390899Y-5180323D01*
X-3338823Y-5232399D01*
X-3265177Y-5232399D01*
X-3213101Y-5180323D01*
X-3213101Y-5126441D01*
X-3162299Y-5075639D01*
X-3162299Y-5286500D01*
X-3196041Y-5320242D01*
X-3386915Y-5320242D01*
X-3450415Y-5256742D01*
X-3545103Y-5256742D01*
X-3612058Y-5323697D01*
X-3612058Y-5418385D01*
X-3545103Y-5485340D01*
X-3450415Y-5485340D01*
X-3386915Y-5421840D01*
X-3153959Y-5421840D01*
X-3060701Y-5328582D01*
X-3060701Y-4085041D01*
X-3026959Y-4051299D01*
X-2709459Y-4051299D01*
X-2616201Y-3958041D01*
X-2616201Y-2731139D01*
X-2572461Y-2774879D01*
X-2577458Y-2779876D01*
X-2577458Y-2895606D01*
X-2495624Y-2977440D01*
X-2379894Y-2977440D01*
X-2298060Y-2895606D01*
X-2298060Y-2779876D01*
X-2367195Y-2710741D01*
X-2298060Y-2641606D01*
X-2298060Y-2525876D01*
X-2367195Y-2456741D01*
X-2298060Y-2387606D01*
X-2298060Y-2271876D01*
X-2367195Y-2202741D01*
X-2298060Y-2133606D01*
X-2298060Y-2126540D01*
X-423459Y-2126540D01*
X-330201Y-2033282D01*
X-330201Y-1700521D01*
X-290823Y-1739899D01*
G37*
%LPC*%
G36*
X-2324101Y-4916177D02*
X-2324101Y-4989823D01*
X-2365718Y-5031440D01*
X-2317460Y-5079697D01*
X-2317460Y-5174385D01*
X-2384415Y-5241340D01*
X-2479103Y-5241340D01*
X-2546058Y-5174385D01*
X-2546058Y-5079697D01*
X-2482558Y-5016197D01*
X-2482558Y-5009164D01*
X-2501899Y-4989823D01*
X-2501899Y-4916177D01*
X-2449823Y-4864101D01*
X-2376177Y-4864101D01*
X-2324101Y-4916177D01*
G37*
G36*
X-2324101Y-4090677D02*
X-2324101Y-4164323D01*
X-2376177Y-4216399D01*
X-2449823Y-4216399D01*
X-2487923Y-4178299D01*
X-2836459Y-4178299D01*
X-2870201Y-4212041D01*
X-2870201Y-5005077D01*
X-2844799Y-5030479D01*
X-2844799Y-4423959D01*
X-2755899Y-4335059D01*
X-2755899Y-4281177D01*
X-2703823Y-4229101D01*
X-2630177Y-4229101D01*
X-2578101Y-4281177D01*
X-2578101Y-4354823D01*
X-2630177Y-4406899D01*
X-2684059Y-4406899D01*
X-2743201Y-4466041D01*
X-2743201Y-5418541D01*
X-2768601Y-5443941D01*
X-2768601Y-5497823D01*
X-2820677Y-5549899D01*
X-2894323Y-5549899D01*
X-2946399Y-5497823D01*
X-2946399Y-5424177D01*
X-2894323Y-5372101D01*
X-2844799Y-5372101D01*
X-2844799Y-5129521D01*
X-2884177Y-5168899D01*
X-2957823Y-5168899D01*
X-3009899Y-5116823D01*
X-3009899Y-5043177D01*
X-2971799Y-5005077D01*
X-2971799Y-4169959D01*
X-2878541Y-4076701D01*
X-2487923Y-4076701D01*
X-2449823Y-4038601D01*
X-2376177Y-4038601D01*
X-2324101Y-4090677D01*
G37*
%LPD*%
G36*
X+5054601Y-2767323D02*
X+5098310Y-2811032D01*
X+5013103Y-2896239D01*
X+5008106Y-2891242D01*
X+4892376Y-2891242D01*
X+4823241Y-2960377D01*
X+4754106Y-2891242D01*
X+4638376Y-2891242D01*
X+4569241Y-2960377D01*
X+4500106Y-2891242D01*
X+4384376Y-2891242D01*
X+4315241Y-2960377D01*
X+4246106Y-2891242D01*
X+4130376Y-2891242D01*
X+4061241Y-2960377D01*
X+3992106Y-2891242D01*
X+3876376Y-2891242D01*
X+3807241Y-2960377D01*
X+3738106Y-2891242D01*
X+3622376Y-2891242D01*
X+3543298Y-2970320D01*
X+3543298Y-2878542D01*
X+3577041Y-2844799D01*
X+4974041Y-2844799D01*
X+5054601Y-2764239D01*
X+5054601Y-2767323D01*
G37*
G36*
X+66321Y+6385920D02*
X+51443Y+6371042D01*
X+51443Y+6350000D01*
X+51442Y-2901242D01*
X+44376Y-2901242D01*
X-24759Y-2970377D01*
X-93894Y-2901242D01*
X-100960Y-2901242D01*
X-100960Y+1816101D01*
X-90177Y+1816101D01*
X-38101Y+1868177D01*
X-38101Y+1941823D01*
X-90177Y+1993899D01*
X-163823Y+1993899D01*
X-203201Y+1954521D01*
X-203201Y+5957577D01*
X-165101Y+5995677D01*
X-165101Y+6069323D01*
X-217177Y+6121399D01*
X-290823Y+6121399D01*
X-342899Y+6069323D01*
X-342899Y+5995677D01*
X-304799Y+5957577D01*
X-304799Y+5637521D01*
X-344177Y+5676899D01*
X-417823Y+5676899D01*
X-469899Y+5624823D01*
X-469899Y+5551177D01*
X-431799Y+5513077D01*
X-431799Y+1446521D01*
X-471177Y+1485899D01*
X-544823Y+1485899D01*
X-596899Y+1433823D01*
X-596899Y+1360177D01*
X-558799Y+1322077D01*
X-558798Y-1883958D01*
X-592541Y-1917701D01*
X-1195077Y-1917701D01*
X-1233177Y-1879601D01*
X-1306823Y-1879601D01*
X-1358899Y-1931677D01*
X-1358899Y-2005323D01*
X-1339280Y-2024942D01*
X-2298060Y-2024942D01*
X-2298060Y-2017876D01*
X-2367195Y-1948741D01*
X-2298060Y-1879606D01*
X-2298060Y-1872540D01*
X-740959Y-1872540D01*
X-647701Y-1779282D01*
X-647701Y+6053541D01*
X-740959Y+6146799D01*
X-910041Y+6146799D01*
X-1697441Y+5359399D01*
X-1751323Y+5359399D01*
X-1803399Y+5307323D01*
X-1803399Y+5233677D01*
X-1751323Y+5181601D01*
X-1677677Y+5181601D01*
X-1625601Y+5233677D01*
X-1625601Y+5287559D01*
X-1485899Y+5427261D01*
X-1485899Y+5424177D01*
X-1447799Y+5386077D01*
X-1447799Y+522759D01*
X-2298060Y-327502D01*
X-2298060Y-227176D01*
X-2303057Y-222179D01*
X-1536701Y+544177D01*
X-1536701Y+4941577D01*
X-1498601Y+4979677D01*
X-1498601Y+5053323D01*
X-1550677Y+5105399D01*
X-1624323Y+5105399D01*
X-1676399Y+5053323D01*
X-1676399Y+4979677D01*
X-1638299Y+4941577D01*
X-1638299Y+586259D01*
X-2298060Y-73502D01*
X-2298060Y+26824D01*
X-2367195Y+95959D01*
X-2298060Y+165094D01*
X-2298060Y+280824D01*
X-2303057Y+285821D01*
X-1790701Y+798177D01*
X-1790701Y+4052577D01*
X-1752601Y+4090677D01*
X-1752601Y+4164323D01*
X-1804677Y+4216399D01*
X-1878323Y+4216399D01*
X-1917701Y+4177021D01*
X-1917701Y+4687577D01*
X-1879601Y+4725677D01*
X-1879601Y+4799323D01*
X-1931677Y+4851399D01*
X-2005323Y+4851399D01*
X-2044701Y+4812021D01*
X-2044701Y+4814577D01*
X-2006601Y+4852677D01*
X-2006601Y+4926323D01*
X-2058677Y+4978399D01*
X-2132323Y+4978399D01*
X-2171701Y+4939021D01*
X-2171701Y+5068577D01*
X-2133601Y+5106677D01*
X-2133601Y+5180323D01*
X-2185677Y+5232399D01*
X-2259323Y+5232399D01*
X-2311399Y+5180323D01*
X-2311399Y+5106677D01*
X-2273299Y+5068577D01*
X-2273299Y+3923021D01*
X-2312677Y+3962399D01*
X-2386323Y+3962399D01*
X-2438399Y+3910323D01*
X-2438399Y+3836677D01*
X-2386323Y+3784601D01*
X-2336799Y+3784601D01*
X-2336799Y+3608863D01*
X-2379894Y+3651958D01*
X-2495624Y+3651958D01*
X-2577458Y+3570124D01*
X-2577458Y+3454394D01*
X-2508323Y+3385259D01*
X-2577458Y+3316124D01*
X-2577458Y+3200394D01*
X-2508323Y+3131259D01*
X-2577458Y+3062124D01*
X-2577458Y+2946394D01*
X-2508323Y+2877259D01*
X-2577458Y+2808124D01*
X-2577458Y+2692394D01*
X-2508323Y+2623259D01*
X-2577458Y+2554124D01*
X-2577458Y+2438394D01*
X-2508323Y+2369259D01*
X-2577458Y+2300124D01*
X-2577458Y+2184394D01*
X-2508323Y+2115259D01*
X-2577458Y+2046124D01*
X-2577458Y+1930394D01*
X-2508323Y+1861259D01*
X-2577458Y+1792124D01*
X-2577458Y+1676394D01*
X-2495624Y+1594560D01*
X-2414280Y+1594560D01*
X-2616201Y+1392639D01*
X-2616201Y+1998241D01*
X-2947057Y+2329097D01*
X-2942060Y+2334094D01*
X-2942060Y+2449824D01*
X-3011195Y+2518959D01*
X-2942060Y+2588094D01*
X-2942060Y+2703824D01*
X-3011195Y+2772959D01*
X-2942060Y+2842094D01*
X-2942060Y+2957824D01*
X-3011195Y+3026959D01*
X-2942060Y+3096094D01*
X-2942060Y+3211824D01*
X-3011195Y+3280959D01*
X-2942060Y+3350094D01*
X-2942060Y+3465824D01*
X-3011195Y+3534959D01*
X-2942060Y+3604094D01*
X-2942060Y+3719824D01*
X-3011195Y+3788959D01*
X-2942060Y+3858094D01*
X-2942060Y+3973824D01*
X-3015695Y+4047459D01*
X-2942060Y+4121094D01*
X-2942060Y+4236824D01*
X-3013045Y+4307809D01*
X-2942060Y+4378794D01*
X-2942060Y+4494524D01*
X-3023894Y+4576358D01*
X-3139624Y+4576358D01*
X-3221458Y+4494524D01*
X-3221458Y+4378794D01*
X-3150473Y+4307809D01*
X-3221458Y+4236824D01*
X-3221458Y+4121094D01*
X-3147823Y+4047459D01*
X-3221458Y+3973824D01*
X-3221458Y+3858094D01*
X-3152323Y+3788959D01*
X-3221458Y+3719824D01*
X-3221458Y+3604094D01*
X-3152323Y+3534959D01*
X-3221458Y+3465824D01*
X-3221458Y+3350094D01*
X-3152323Y+3280959D01*
X-3221458Y+3211824D01*
X-3221458Y+3204758D01*
X-5609418Y+3204758D01*
X-5664201Y+3259541D01*
X-5664201Y+4966558D01*
X-5633344Y+4935701D01*
X-5538656Y+4935701D01*
X-5511799Y+4962558D01*
X-5511799Y+4710423D01*
X-5549899Y+4672323D01*
X-5549899Y+4598677D01*
X-5497823Y+4546601D01*
X-5424177Y+4546601D01*
X-5372101Y+4598677D01*
X-5372101Y+4672323D01*
X-5410201Y+4710423D01*
X-5410201Y+4966558D01*
X-5379344Y+4935701D01*
X-5284656Y+4935701D01*
X-5217701Y+5002656D01*
X-5217701Y+5097344D01*
X-5284656Y+5164299D01*
X-5379344Y+5164299D01*
X-5410201Y+5133442D01*
X-5410201Y+5220558D01*
X-5379344Y+5189701D01*
X-5284656Y+5189701D01*
X-5217701Y+5256656D01*
X-5217701Y+5351344D01*
X-5284656Y+5418299D01*
X-5379344Y+5418299D01*
X-5410201Y+5387442D01*
X-5410201Y+6244041D01*
X-5503458Y+6337298D01*
X-8911042Y+6337298D01*
X-9004299Y+6244041D01*
X-9004299Y-6371041D01*
X-8921858Y-6453482D01*
X-9106001Y-6453482D01*
X-9106001Y+6450000D01*
X+130401Y+6450000D01*
X+66321Y+6385920D01*
G37*
%LPC*%
G36*
X-5125344Y+5164299D02*
X-5030656Y+5164299D01*
X-4963701Y+5097344D01*
X-4963701Y+5002656D01*
X-5030656Y+4935701D01*
X-5125344Y+4935701D01*
X-5192299Y+5002656D01*
X-5192299Y+5097344D01*
X-5125344Y+5164299D01*
G37*
G36*
X-5125344Y+5418299D02*
X-5030656Y+5418299D01*
X-4963701Y+5351344D01*
X-4963701Y+5256656D01*
X-5030656Y+5189701D01*
X-5125344Y+5189701D01*
X-5192299Y+5256656D01*
X-5192299Y+5351344D01*
X-5125344Y+5418299D01*
G37*
G36*
X-4871344Y+5164299D02*
X-4776656Y+5164299D01*
X-4709701Y+5097344D01*
X-4709701Y+5002656D01*
X-4776656Y+4935701D01*
X-4871344Y+4935701D01*
X-4938299Y+5002656D01*
X-4938299Y+5097344D01*
X-4871344Y+5164299D01*
G37*
G36*
X-4871344Y+5418299D02*
X-4776656Y+5418299D01*
X-4709701Y+5351344D01*
X-4709701Y+5256656D01*
X-4776656Y+5189701D01*
X-4871344Y+5189701D01*
X-4938299Y+5256656D01*
X-4938299Y+5351344D01*
X-4871344Y+5418299D01*
G37*
G36*
X-4617344Y+5164299D02*
X-4522656Y+5164299D01*
X-4455701Y+5097344D01*
X-4455701Y+5002656D01*
X-4522656Y+4935701D01*
X-4617344Y+4935701D01*
X-4684299Y+5002656D01*
X-4684299Y+5097344D01*
X-4617344Y+5164299D01*
G37*
G36*
X-4617344Y+5418299D02*
X-4522656Y+5418299D01*
X-4455701Y+5351344D01*
X-4455701Y+5256656D01*
X-4522656Y+5189701D01*
X-4617344Y+5189701D01*
X-4684299Y+5256656D01*
X-4684299Y+5351344D01*
X-4617344Y+5418299D01*
G37*
G36*
X-4363344Y+5164299D02*
X-4268656Y+5164299D01*
X-4201701Y+5097344D01*
X-4201701Y+5002656D01*
X-4268656Y+4935701D01*
X-4363344Y+4935701D01*
X-4430299Y+5002656D01*
X-4430299Y+5097344D01*
X-4363344Y+5164299D01*
G37*
G36*
X-4363344Y+5418299D02*
X-4268656Y+5418299D01*
X-4201701Y+5351344D01*
X-4201701Y+5256656D01*
X-4268656Y+5189701D01*
X-4363344Y+5189701D01*
X-4430299Y+5256656D01*
X-4430299Y+5351344D01*
X-4363344Y+5418299D01*
G37*
G36*
X-4109344Y+5164299D02*
X-4014656Y+5164299D01*
X-3947701Y+5097344D01*
X-3947701Y+5002656D01*
X-4014656Y+4935701D01*
X-4109344Y+4935701D01*
X-4176299Y+5002656D01*
X-4176299Y+5097344D01*
X-4109344Y+5164299D01*
G37*
G36*
X-4109344Y+5418299D02*
X-4014656Y+5418299D01*
X-3947701Y+5351344D01*
X-3947701Y+5256656D01*
X-4014656Y+5189701D01*
X-4109344Y+5189701D01*
X-4176299Y+5256656D01*
X-4176299Y+5351344D01*
X-4109344Y+5418299D01*
G37*
G36*
X-3855344Y+5164299D02*
X-3760656Y+5164299D01*
X-3693701Y+5097344D01*
X-3693701Y+5002656D01*
X-3760656Y+4935701D01*
X-3855344Y+4935701D01*
X-3922299Y+5002656D01*
X-3922299Y+5097344D01*
X-3855344Y+5164299D01*
G37*
G36*
X-3855344Y+5418299D02*
X-3760656Y+5418299D01*
X-3693701Y+5351344D01*
X-3693701Y+5256656D01*
X-3760656Y+5189701D01*
X-3855344Y+5189701D01*
X-3922299Y+5256656D01*
X-3922299Y+5351344D01*
X-3855344Y+5418299D01*
G37*
G36*
X-3601344Y+5164299D02*
X-3506656Y+5164299D01*
X-3439701Y+5097344D01*
X-3439701Y+5002656D01*
X-3506656Y+4935701D01*
X-3601344Y+4935701D01*
X-3668299Y+5002656D01*
X-3668299Y+5097344D01*
X-3601344Y+5164299D01*
G37*
G36*
X-3601344Y+5418299D02*
X-3506656Y+5418299D01*
X-3439701Y+5351344D01*
X-3439701Y+5256656D01*
X-3506656Y+5189701D01*
X-3601344Y+5189701D01*
X-3668299Y+5256656D01*
X-3668299Y+5351344D01*
X-3601344Y+5418299D01*
G37*
G36*
X-31750Y+1510849D02*
X-31750Y+1537151D01*
X-13151Y+1555750D01*
X+13151Y+1555750D01*
X+31750Y+1537151D01*
X+31750Y+1510849D01*
X+13151Y+1492250D01*
X-13151Y+1492250D01*
X-31750Y+1510849D01*
G37*
G36*
X-31750Y-2870651D02*
X-31750Y-2844349D01*
X-13151Y-2825750D01*
X+13151Y-2825750D01*
X+31750Y-2844349D01*
X+31750Y-2870651D01*
X+13151Y-2889250D01*
X-13151Y-2889250D01*
X-31750Y-2870651D01*
G37*
%LPD*%
G36*
X-971624Y-3434640D02*
X-964558Y-3434640D01*
X-964558Y-4648836D01*
X-965201Y-4649479D01*
X-965201Y-4042959D01*
X-1058459Y-3949701D01*
X-1164041Y-3949701D01*
X-1252941Y-4038601D01*
X-1306823Y-4038601D01*
X-1358899Y-4090677D01*
X-1358899Y-4164323D01*
X-1306823Y-4216399D01*
X-1233177Y-4216399D01*
X-1206500Y-4189722D01*
X-1193799Y-4202423D01*
X-1193799Y-4910541D01*
X-1092053Y-5012287D01*
X-1092053Y-5035104D01*
X-1114415Y-5012742D01*
X-1209103Y-5012742D01*
X-1237960Y-5041599D01*
X-1237960Y-4378830D01*
X-2044701Y-3572089D01*
X-2044701Y-3377563D01*
X-1987624Y-3434640D01*
X-1871894Y-3434640D01*
X-1802759Y-3365505D01*
X-1733624Y-3434640D01*
X-1617894Y-3434640D01*
X-1548759Y-3365505D01*
X-1479624Y-3434640D01*
X-1472558Y-3434640D01*
X-1472558Y-3950336D01*
X-1485899Y-3963677D01*
X-1485899Y-4037323D01*
X-1433823Y-4089399D01*
X-1360177Y-4089399D01*
X-1308101Y-4037323D01*
X-1308101Y-3963677D01*
X-1360177Y-3911601D01*
X-1370960Y-3911601D01*
X-1370960Y-3434640D01*
X-1363894Y-3434640D01*
X-1294759Y-3365505D01*
X-1225624Y-3434640D01*
X-1109894Y-3434640D01*
X-1040759Y-3365505D01*
X-971624Y-3434640D01*
G37*
G36*
X+3622376Y-3424640D02*
X+3738106Y-3424640D01*
X+3807241Y-3355505D01*
X+3876376Y-3424640D01*
X+3886201Y-3424640D01*
X+3886201Y-3481077D01*
X+3848101Y-3519177D01*
X+3848101Y-3592823D01*
X+3887479Y-3632201D01*
X+3852459Y-3632201D01*
X+3759202Y-3725458D01*
X+3759202Y-3746500D01*
X+3759201Y-4497077D01*
X+3733799Y-4522479D01*
X+3733799Y-3630923D01*
X+3771899Y-3592823D01*
X+3771899Y-3519177D01*
X+3719823Y-3467101D01*
X+3646177Y-3467101D01*
X+3594101Y-3519177D01*
X+3594101Y-3592823D01*
X+3632201Y-3630923D01*
X+3632201Y-4670829D01*
X+3352798Y-4950232D01*
X+3352798Y-4656542D01*
X+3386541Y-4622799D01*
X+3450041Y-4622799D01*
X+3543298Y-4529542D01*
X+3543298Y-3345562D01*
X+3622376Y-3424640D01*
G37*
%LPC*%
G36*
X+3397250Y-4712151D02*
X+3397250Y-4685849D01*
X+3415849Y-4667250D01*
X+3442151Y-4667250D01*
X+3460750Y-4685849D01*
X+3460750Y-4712151D01*
X+3442151Y-4730750D01*
X+3415849Y-4730750D01*
X+3397250Y-4712151D01*
G37*
%LPD*%
G36*
X+2743201Y-4614459D02*
X+2620559Y-4737101D01*
X+2566677Y-4737101D01*
X+2540000Y-4763778D01*
X+2513323Y-4737101D01*
X+2439677Y-4737101D01*
X+2387601Y-4789177D01*
X+2387601Y-4862823D01*
X+2439677Y-4914899D01*
X+2493559Y-4914899D01*
X+2616201Y-5037541D01*
X+2616201Y-5157479D01*
X+2576823Y-5118101D01*
X+2508540Y-5118101D01*
X+2508540Y-5079697D01*
X+2441585Y-5012742D01*
X+2346897Y-5012742D01*
X+2318039Y-5041600D01*
X+2318039Y-4802301D01*
X+2743201Y-4377139D01*
X+2743201Y-4614459D01*
G37*
%LPC*%
G36*
X+2444750Y-4712151D02*
X+2444750Y-4685849D01*
X+2463349Y-4667250D01*
X+2489651Y-4667250D01*
X+2508250Y-4685849D01*
X+2508250Y-4712151D01*
X+2489651Y-4730750D01*
X+2463349Y-4730750D01*
X+2444750Y-4712151D01*
G37*
%LPD*%
G36*
X-6441624Y-3424640D02*
X-6434558Y-3424640D01*
X-6434558Y-3606782D01*
X-6311899Y-3729441D01*
X-6311899Y-3783323D01*
X-6259823Y-3835399D01*
X-6186177Y-3835399D01*
X-6134101Y-3783323D01*
X-6134101Y-3750498D01*
X-5956299Y-3928300D01*
X-5956299Y-4331979D01*
X-5995677Y-4292601D01*
X-6069323Y-4292601D01*
X-6121399Y-4344677D01*
X-6121399Y-4418323D01*
X-6088558Y-4451164D01*
X-6088558Y-5006197D01*
X-6108701Y-5026340D01*
X-6108701Y-4995459D01*
X-6201959Y-4902201D01*
X-6402759Y-4902201D01*
X-6503300Y-5002742D01*
X-6593103Y-5002742D01*
X-6633010Y-5042650D01*
X-6870701Y-4804959D01*
X-6870701Y-3821423D01*
X-6832601Y-3783323D01*
X-6832601Y-3709677D01*
X-6884677Y-3657601D01*
X-6958323Y-3657601D01*
X-7010399Y-3709677D01*
X-7010399Y-3783323D01*
X-6972299Y-3821423D01*
X-6972299Y-4847041D01*
X-6816598Y-5002742D01*
X-6847103Y-5002742D01*
X-6914058Y-5069697D01*
X-6914058Y-5164385D01*
X-6847103Y-5231340D01*
X-6752415Y-5231340D01*
X-6718299Y-5197224D01*
X-6718299Y-5290858D01*
X-6752415Y-5256742D01*
X-6847103Y-5256742D01*
X-6870701Y-5280340D01*
X-6870701Y-5228259D01*
X-6939460Y-5159500D01*
X-6939460Y-5069697D01*
X-7006415Y-5002742D01*
X-7101103Y-5002742D01*
X-7124701Y-5026340D01*
X-7124701Y-4974041D01*
X-6997701Y-4847041D01*
X-6997701Y-4296959D01*
X-7505701Y-3788959D01*
X-7505701Y-3376563D01*
X-7457624Y-3424640D01*
X-7341894Y-3424640D01*
X-7272759Y-3355505D01*
X-7203624Y-3424640D01*
X-7087894Y-3424640D01*
X-7082897Y-3419643D01*
X-6781799Y-3720741D01*
X-6781799Y-4370077D01*
X-6819899Y-4408177D01*
X-6819899Y-4481823D01*
X-6767823Y-4533899D01*
X-6694177Y-4533899D01*
X-6688558Y-4528280D01*
X-6688558Y-4749782D01*
X-6629399Y-4808941D01*
X-6629399Y-4862823D01*
X-6577323Y-4914899D01*
X-6503677Y-4914899D01*
X-6451601Y-4862823D01*
X-6451601Y-4789177D01*
X-6503677Y-4737101D01*
X-6557559Y-4737101D01*
X-6586960Y-4707700D01*
X-6586960Y-3424640D01*
X-6579894Y-3424640D01*
X-6510759Y-3355505D01*
X-6441624Y-3424640D01*
G37*
%LPC*%
G36*
X-7461250Y-3632651D02*
X-7461250Y-3606349D01*
X-7442651Y-3587750D01*
X-7416349Y-3587750D01*
X-7397750Y-3606349D01*
X-7397750Y-3632651D01*
X-7416349Y-3651250D01*
X-7442651Y-3651250D01*
X-7461250Y-3632651D01*
G37*
%LPD*%
G36*
X-2908299Y-3598459D02*
X-2942041Y-3632201D01*
X-3323041Y-3632201D01*
X-3416299Y-3725459D01*
X-3416299Y-4116077D01*
X-3454399Y-4154177D01*
X-3454399Y-4227823D01*
X-3402323Y-4279899D01*
X-3328677Y-4279899D01*
X-3289299Y-4240521D01*
X-3289299Y-4737101D01*
X-3338823Y-4737101D01*
X-3390899Y-4789177D01*
X-3390899Y-4862823D01*
X-3338823Y-4914899D01*
X-3265177Y-4914899D01*
X-3225799Y-4875521D01*
X-3225799Y-4995459D01*
X-3284941Y-5054601D01*
X-3338823Y-5054601D01*
X-3383460Y-5099238D01*
X-3383460Y-5069697D01*
X-3450415Y-5002742D01*
X-3545103Y-5002742D01*
X-3568701Y-5026340D01*
X-3568701Y-3640541D01*
X-3534959Y-3606799D01*
X-2963459Y-3606799D01*
X-2908299Y-3551639D01*
X-2908299Y-3598459D01*
G37*
%LPC*%
G36*
X-3524250Y-3696151D02*
X-3524250Y-3669849D01*
X-3505651Y-3651250D01*
X-3479349Y-3651250D01*
X-3460750Y-3669849D01*
X-3460750Y-3696151D01*
X-3479349Y-3714750D01*
X-3505651Y-3714750D01*
X-3524250Y-3696151D01*
G37*
%LPD*%
G36*
X+2346897Y-5241340D02*
X+2441585Y-5241340D01*
X+2451101Y-5231824D01*
X+2451101Y-5243823D01*
X+2489201Y-5281923D01*
X+2489201Y-5314358D01*
X+2441585Y-5266742D01*
X+2346897Y-5266742D01*
X+2318039Y-5295600D01*
X+2318039Y-5212482D01*
X+2346897Y-5241340D01*
G37*
D10*
X+2794000Y+2349500D02*
X+2794000Y+2572459D01*
X+2730500Y+2635959D01*
X+2388241Y+2635959D01*
X+7366000Y+1460500D02*
X+7366000Y-2540000D01*
X+7429500Y-2603500D01*
X+8128000Y-2603500D01*
X+8191500Y-2667000D01*
X+8191500Y-3556000D01*
X+8128000Y-3619500D01*
X+7986741Y-3619500D01*
X+7923241Y-3683000D01*
X+7923241Y-5251141D01*
X+8050241Y-5378141D01*
X-6094000Y+5304000D02*
X-5969000Y+5179000D01*
X-5969000Y+2730500D01*
X-5884459Y+2645959D01*
X-3081759Y+2645959D01*
X+7998241Y+2899959D02*
X+7810500Y+2712218D01*
X+7810500Y+1968500D01*
X+7874000Y+1905000D01*
X+8509000Y+1905000D01*
X+8572500Y+1841500D01*
X+8572500Y-5524500D01*
X+8509000Y-5588000D01*
X+6350000Y-5588000D01*
X+6272241Y-5510241D01*
X+6272241Y-5378141D01*
X+2857500Y+3556000D02*
X+2857500Y+2953459D01*
X+2794000Y+2889959D01*
X+2388241Y+2889959D01*
X+7112000Y+3683000D02*
X+7112000Y+1079500D01*
X+7302500Y+889000D01*
X+7302500Y-2603500D01*
X+7366000Y-2667000D01*
X+8075820Y-2667000D01*
X+8139320Y-2730500D01*
X+8139320Y-3481180D01*
X+8064500Y-3556000D01*
X+7859741Y-3556000D01*
X+7796241Y-3619500D01*
X+7796241Y-5124141D01*
X+8636000Y+2984500D02*
X+8466541Y+3153959D01*
X+7998241Y+3153959D01*
X+8636000Y+2286000D02*
X+8636000Y-5588000D01*
X+8572500Y-5651500D01*
X+6208740Y-5651500D01*
X+6145240Y-5588000D01*
X+6145240Y-5251141D01*
X+6018241Y-5124141D01*
X+6018240Y-5124141D01*
X+7747000Y-190500D02*
X+8382000Y-190500D01*
X+8445500Y-254000D01*
X+8445500Y-5236882D01*
X+8304241Y-5378141D01*
X+2730500Y+3175000D02*
X+2699459Y+3143959D01*
X+2388241Y+3143959D01*
X-5840000Y+5304000D02*
X-5715000Y+5179000D01*
X-5715000Y+3238500D01*
X-5630459Y+3153959D01*
X-3081759Y+3153959D01*
X+4635500Y-5651500D02*
X+4635500Y-6286500D01*
X+4699000Y-6350000D01*
X+8890000Y-6350000D01*
X+8953500Y-6286500D01*
X+8953500Y+3344459D01*
X+8890000Y+3407959D01*
X+7998241Y+3407959D01*
X+2667000Y+1905000D02*
X+2286000Y+1905000D01*
X+2222500Y+1968500D01*
X+2222500Y+3232218D01*
X+2388241Y+3397959D01*
X+6096000Y-2667000D02*
X+6096000Y-698500D01*
X+8064500Y-4318000D02*
X+8050241Y-4332259D01*
X+8050241Y-5124141D01*
X+7175500Y-1587500D02*
X+7239000Y-1651000D01*
X+7239000Y-2667000D01*
X+7302500Y-2730500D01*
X+7443800Y-2730500D01*
X+7744241Y-3030941D01*
X+3683000Y-3556000D02*
X+3683000Y-4691870D01*
X+3358370Y-5016500D01*
X+3358370Y-5258270D01*
X+3478241Y-5378141D01*
X+7388000Y+5310000D02*
X+7388000Y+5969000D01*
X+7324500Y+6032500D01*
X+1778000Y+6032500D01*
X+1714500Y+5969000D01*
X+1714500Y-1866259D01*
X+2134241Y-2286000D01*
X+2134241Y-3040941D01*
X+3810000Y-4699000D02*
X+3810000Y-4792383D01*
X+3478241Y-5124141D01*
X+3478241Y-5124142D01*
X+7620000Y-4318000D02*
X+7744241Y-4193759D01*
X+7744241Y-3284941D01*
X+1016000Y-2857500D02*
X+1016000Y+6286500D01*
X-3810000Y-3810000D02*
X-3810000Y-3556000D01*
X-3746500Y-3492500D01*
X-3543318Y-3492500D01*
X-3335759Y-3284941D01*
X-8318500Y-3873500D02*
X-8318500Y-4762500D01*
X-8323759Y-4767759D01*
X-8323759Y-5117041D01*
X+7112000Y-2222500D02*
X+7112000Y-2730500D01*
X+7175500Y-2794000D01*
X+7253300Y-2794000D01*
X+7490241Y-3030941D01*
X+5016500Y-2222500D02*
X+5016500Y-2730500D01*
X+4953000Y-2794000D01*
X+3556000Y-2794000D01*
X+3492500Y-2857500D01*
X+3492500Y-4508500D01*
X+3429000Y-4572000D01*
X+3365500Y-4572000D01*
X+3302000Y-4635500D01*
X+3302000Y-5461000D01*
X+3365500Y-5524500D01*
X+3585882Y-5524500D01*
X+3732241Y-5378141D01*
X+7642000Y+5310000D02*
X+7642000Y+6032500D01*
X+7578500Y+6096000D01*
X+1714500Y+6096000D01*
X+1651000Y+6032500D01*
X+1651000Y-2056759D01*
X+1880241Y-2286000D01*
X+1880241Y-3040941D01*
X-8191500Y-3238500D02*
X-8191500Y-5249300D01*
X-8069759Y-5371041D01*
X-5842000Y-1778000D02*
X-3653259Y-1778000D01*
X-3589759Y-1841500D01*
X-3589759Y-3030941D01*
X+4445000Y-3619500D02*
X+4254500Y-3810000D01*
X+4000500Y-3810000D01*
X+3937000Y-3873500D01*
X+3937000Y-4919383D01*
X+3732241Y-5124141D01*
X+3732241Y-5124142D01*
X+7366000Y-3429000D02*
X+7490241Y-3429000D01*
X+7490241Y-3284941D01*
X+1524000Y+4191000D02*
X+1524000Y+6096000D01*
X+1587500Y+6159500D01*
X+7705500Y+6159500D01*
X+7769000Y+6096000D01*
X+7769000Y+5183000D01*
X+7642000Y+5056000D01*
X+2095500Y+4191000D02*
X+2095500Y-317500D01*
X+2159000Y-381000D01*
X+2476500Y-381000D01*
X+2540000Y-444500D01*
X+2540000Y-3429000D01*
X+2476500Y-3492500D01*
X+2077800Y-3492500D01*
X+1880241Y-3294941D01*
X+6985000Y-1460500D02*
X+6985000Y-2540000D01*
X+7048500Y-2603500D01*
X+7048500Y-2843200D01*
X+7236241Y-3030941D01*
X+2984500Y-5778500D02*
X+2984500Y-3619500D01*
X+3048000Y-3556000D01*
X+3810000Y-5715000D02*
X+3810000Y-5651500D01*
X+3859241Y-5651500D01*
X+3859241Y-5505141D01*
X+3986241Y-5378141D01*
X+1626241Y-3040941D02*
X+1333500Y-2748200D01*
X+1333500Y+6159500D01*
X+1397000Y+6223000D01*
X+7810500Y+6223000D01*
X+7896000Y+6137500D01*
X+7896000Y+5310000D01*
X-7937500Y-3619500D02*
X-7937500Y-5249300D01*
X-7815759Y-5371041D01*
X-6159500Y-2095500D02*
X-3907259Y-2095500D01*
X-3843759Y-2159000D01*
X-3843759Y-3030941D01*
X+4318000Y-3556000D02*
X+4381500Y-3492500D01*
X+4476750Y-3492500D01*
X+4540250Y-3556000D01*
X+4540250Y-3905250D01*
X+4445000Y-4000500D01*
X+4051300Y-4000500D01*
X+3987800Y-4064000D01*
X+3987800Y-5122583D01*
X+3986241Y-5124141D01*
X+3986241Y-5124142D01*
X+698500Y+6286500D02*
X+698500Y-2730500D01*
X-3937000Y-4127500D02*
X-3937000Y-3522241D01*
X-3843759Y-3429000D01*
X-3843759Y-3284941D01*
X+6858000Y-825500D02*
X+6858000Y-2733259D01*
X+6982241Y-2857500D01*
X+6982241Y-3030941D01*
X+1372241Y-3040941D02*
X+1282700Y-2951400D01*
X+1282700Y+6223000D01*
X+1346200Y+6286500D01*
X+8064500Y+6286500D01*
X+8150000Y+6201000D01*
X+8150000Y+5310000D01*
X-7561759Y-5371041D02*
X-7683500Y-5249300D01*
X-7683500Y-2794000D01*
X-7620000Y-2730500D01*
X-6223000Y-2730500D01*
X-5842000Y-2349500D01*
X-4191000Y-2349500D01*
X-4097759Y-2442741D01*
X-4097759Y-3030941D01*
X+7112000Y-4127500D02*
X+7112000Y-3937000D01*
X+6982241Y-3807241D01*
X+6982241Y-3284941D01*
X+8128000Y-3873500D02*
X+8255000Y-3873500D01*
X+8318500Y-3810000D01*
X+8318500Y-444500D01*
X+8255000Y-381000D01*
X+7556500Y-381000D01*
X+7493000Y-317500D01*
X+7493000Y+4635500D01*
X+7556500Y+4699000D01*
X+7793000Y+4699000D01*
X+8150000Y+5056000D01*
X+1397000Y-3937000D02*
X+1372241Y-3912241D01*
X+1372241Y-3294941D01*
X-4127500Y-4254500D02*
X-4097759Y-4224759D01*
X-4097759Y-3284941D01*
X-7556500Y-4889500D02*
X-7556500Y-5111782D01*
X-7561759Y-5117041D01*
X+5270500Y-4953000D02*
X+4919383Y-4953000D01*
X+4748241Y-5124141D01*
X+4748241Y-5124142D01*
X+2222500Y-6223000D02*
X+2222500Y-5651500D01*
X+2267241Y-5606759D01*
X+2267241Y-4781259D01*
X+2730500Y-4318000D01*
X+2730500Y+134700D01*
X+2388241Y+476959D01*
X+4826000Y-3619500D02*
X+4826000Y-4000500D01*
X+4762500Y-4064000D01*
X+4176741Y-4064000D01*
X+4113241Y-4127500D01*
X+4113241Y-5173382D01*
X+4191000Y-5251141D01*
X+4367241Y-5251141D01*
X+4494241Y-5378141D01*
X+6731000Y-2794000D02*
X+6731000Y-3028182D01*
X+6728241Y-3030941D01*
X+1143000Y+5334000D02*
X+1118241Y+5309241D01*
X+1118241Y-3040941D01*
X-7307759Y-5371041D02*
X-7175500Y-5238782D01*
X-7175500Y-4953000D01*
X-7048500Y-4826000D01*
X-7048500Y-4318000D01*
X-7556500Y-3810000D01*
X-7556500Y-2921000D01*
X-7493000Y-2857500D01*
X-4525200Y-2857500D01*
X-4351759Y-3030941D01*
X+4826000Y-4572000D02*
X+6286500Y-4572000D01*
X+6350000Y-4508500D01*
X+6350000Y-4000500D01*
X+6728241Y-3622259D01*
X+6728241Y-3284941D01*
X-2413000Y-5588000D02*
X-2431759Y-5569241D01*
X-2431759Y-5381041D01*
X+1143000Y-4889500D02*
X+1118241Y-4864741D01*
X+1118241Y-3294941D01*
X-4381500Y-4381500D02*
X-4351759Y-4351759D01*
X-4351759Y-3284941D01*
X-7302500Y-4889500D02*
X-7307759Y-4894759D01*
X-7307759Y-5117041D01*
X+4064000Y+5778500D02*
X+4053359Y+5767859D01*
X+4053359Y+5598641D01*
X+4127500Y+5524500D01*
X+6435500Y+5524500D01*
X+6499000Y+5461000D01*
X+6499000Y+4889500D01*
X+6474241Y+4864741D01*
X+6474241Y-3030941D01*
X-2413000Y-4953000D02*
X-2431759Y-4971759D01*
X-2431759Y-5127041D01*
X-2431759Y-5127042D01*
X+889000Y-1206500D02*
X+864241Y-1231259D01*
X+864241Y-3040941D01*
X+0Y-3873500D02*
X+0Y-4318000D01*
X+108240Y-4426240D01*
X+108241Y-5127041D01*
X+108240Y-5127041D01*
X-6159500Y-2222500D02*
X-4064000Y-2222500D01*
X-4000500Y-2286000D01*
X-4000500Y-2794000D01*
X-6604000Y-2222500D02*
X-6858000Y-2476500D01*
X-7683500Y-2476500D01*
X-7747000Y-2540000D01*
X-7747000Y-2921000D01*
X-7810500Y-2984500D01*
X-8064500Y-2984500D01*
X-8128000Y-2921000D01*
X-8445500Y-2921000D01*
X-8509000Y-2984500D01*
X-8509000Y-5461000D01*
X-8445500Y-5524500D01*
X-7207218Y-5524500D01*
X-7053759Y-5371041D01*
X+6477000Y-3746500D02*
X+6474241Y-3743741D01*
X+6474241Y-3284941D01*
X+889000Y-3873500D02*
X+864241Y-3848741D01*
X+864241Y-3294941D01*
X+444500Y-3873500D02*
X+444500Y-4191000D01*
X+489241Y-4235741D01*
X+489241Y-5254041D01*
X+362241Y-5381041D01*
X-7053759Y-5117041D02*
X-6921500Y-5249300D01*
X-6921500Y-5461000D01*
X-6731000Y-5651500D01*
X-4699000Y-5651500D01*
X-4635500Y-5588000D01*
X-4635500Y-3458741D01*
X-4605759Y-3429000D01*
X-4605759Y-3284941D01*
X-1778000Y-6286500D02*
X-1796759Y-6267741D01*
X-1796759Y-5061241D01*
X-1905000Y-4953000D01*
X-2003717Y-4953000D01*
X-2177759Y-5127041D01*
X-2177759Y-5127042D01*
X+7683500Y-6159500D02*
X+7429500Y-6159500D01*
X+6350000Y+4064000D02*
X+6350000Y+571500D01*
X+6220241Y+441741D01*
X+6220241Y-3030941D01*
X+254000Y-2857500D02*
X+426800Y-2857500D01*
X+610241Y-3040941D01*
X+254000Y-3556000D02*
X+254000Y-4064000D01*
X+362240Y-4172240D01*
X+362241Y-5127041D01*
X+362240Y-5127041D01*
X-4889500Y-2476500D02*
X-5778500Y-2476500D01*
X-6096000Y-2794000D01*
X-7556500Y-2794000D01*
X-7620000Y-2857500D01*
X-7620000Y-4254500D01*
X-7175500Y-4699000D01*
X+6223000Y-4064000D02*
X+6220241Y-4061241D01*
X+6220241Y-3284941D01*
X+616241Y-5381041D02*
X+740240Y-5257042D01*
X+740240Y-3939999D01*
X+610241Y-3810000D01*
X+610241Y-3294941D01*
X-4953000Y-4699000D02*
X-4953000Y-3522241D01*
X-4859759Y-3429000D01*
X-4859759Y-3284941D01*
X-8763000Y+6159500D02*
X-8763000Y-6159500D01*
X-8699500Y-6223000D01*
X-2368259Y-6223000D01*
X-2304759Y-6159500D01*
X-2304759Y-5336300D01*
X-2222500Y-5254041D01*
X-2050758Y-5254041D01*
X-1923759Y-5127041D01*
X-1923759Y-5127042D01*
X+5969000Y+4191000D02*
X+5969000Y-2667000D01*
X+5966241Y-2669759D01*
X+5966241Y-3030941D01*
X-127000Y-4889500D02*
X-317500Y-4699000D01*
X-317500Y-3746500D01*
X-8382000Y-889000D02*
X-7874000Y-889000D01*
X-7556500Y-571500D01*
X-8382000Y-3556000D02*
X-8382000Y-3048000D01*
X-1651000Y-6032500D02*
X-1669759Y-6013741D01*
X-1669759Y-5381041D01*
X+6604000Y-4191000D02*
X+6604000Y-4762500D01*
X+6540500Y-4826000D01*
X+4684741Y-4826000D01*
X+4621241Y-4889500D01*
X+4621241Y-5524500D01*
X+4000500Y-5524500D01*
X+3937000Y-5588000D01*
X+3937000Y-5969000D01*
X+5969000Y-4191000D02*
X+5966241Y-4188241D01*
X+5966241Y-3284941D01*
X+1016000Y-3556000D02*
X+1006941Y-3565059D01*
X+1006941Y-5244341D01*
X+870241Y-5381041D01*
X+381000Y-3556000D02*
X+356241Y-3531241D01*
X+356241Y-3294941D01*
X-5113759Y-3284941D02*
X-5113759Y-3843759D01*
X-5143500Y-3873500D01*
X-5143500Y-5461000D01*
X-5207000Y-5524500D01*
X-6096000Y-5524500D01*
X-6159500Y-5461000D01*
X-6159500Y-5016500D01*
X-6223000Y-4953000D01*
X-6381718Y-4953000D01*
X-6545759Y-5117041D01*
X-1397000Y-4699000D02*
X-1408465Y-4687535D01*
X-1594794Y-4687535D01*
X-1669759Y-4762500D01*
X-1669759Y-5127041D01*
X-1669759Y-5127042D01*
X+4826000Y-2603500D02*
X+3429000Y-2603500D01*
X+3365500Y-2667000D01*
X+3365500Y-4318000D01*
X+3302000Y-4381500D01*
X+5715000Y-2603500D02*
X+5712241Y-2606259D01*
X+5712241Y-3030941D01*
X+2540000Y-5207000D02*
X+2540000Y-6350000D01*
X+2603500Y-6413500D01*
X+8953500Y-6413500D01*
X+9017000Y-6350000D01*
X+9017000Y+6350000D01*
X+8953500Y+6413500D01*
X+165741Y+6413500D01*
X+102241Y+6350000D01*
X+102241Y-3040941D01*
X-6921500Y-5778500D02*
X-7112000Y-5588000D01*
X-8636000Y-5588000D01*
X-8699500Y-5524500D01*
X-8699500Y+5969000D01*
X-8636000Y+6032500D01*
X-6286500Y+6032500D01*
X-6223000Y+5969000D01*
X-6223000Y-1333500D01*
X-6159500Y-1397000D01*
X-5461000Y-1397000D01*
X+4254500Y-4191000D02*
X+4254500Y-4762500D01*
X+5715000Y-4191000D02*
X+5712241Y-4188241D01*
X+5712241Y-3284941D01*
X+102241Y-3294941D02*
X+102241Y-4312001D01*
X+235240Y-4445000D01*
X+235240Y-5461000D01*
X+298740Y-5524500D01*
X+980782Y-5524500D01*
X+1124241Y-5381041D01*
X-5461000Y-4953000D02*
X-5367759Y-4859759D01*
X-5367759Y-3284941D01*
X+7998241Y+740959D02*
X+8509000Y+230200D01*
X+8509000Y-5461000D01*
X+8445500Y-5524500D01*
X+6477000Y-5524500D01*
X+6399241Y-5446741D01*
X+6399241Y-5016500D01*
X+6335741Y-4953000D01*
X+5715000Y-4953000D01*
X+5637241Y-5030759D01*
X+5637241Y-5251141D01*
X+5383241Y-5251141D01*
X+5256241Y-5378141D01*
X+2921000Y-889000D02*
X+2857500Y-825500D01*
X+2857500Y+667459D01*
X+2794000Y+730959D01*
X+2388241Y+730959D01*
X+8128000Y-4000500D02*
X+8318500Y-4000500D01*
X+8382000Y-3937000D01*
X+8382000Y-381000D01*
X+8318500Y-317500D01*
X+7683500Y-317500D01*
X+7620000Y-254000D01*
X+6921500Y-4000500D02*
X+6921500Y-4811741D01*
X+6780241Y-4953000D01*
X+6780241Y-5124141D01*
X-3365500Y-2730500D02*
X-3365500Y+698500D01*
X-5461000Y+4635500D02*
X-5461000Y+6223000D01*
X-5524500Y+6286500D01*
X-8890000Y+6286500D01*
X-8953500Y+6223000D01*
X-8953500Y-6350000D01*
X-8890000Y-6413500D01*
X-1606259Y-6413500D01*
X-1542759Y-6350000D01*
X-1542759Y-5254042D01*
X-1415759Y-5127041D01*
X-1415759Y-5127042D01*
X+5715000Y+4762500D02*
X+5715000Y+571500D01*
X+5458241Y+314741D01*
X+5458241Y-3030941D01*
X-127000Y+1905000D02*
X-151759Y+1880241D01*
X-151759Y-3040941D01*
X+2603500Y-4826000D02*
X+2794000Y-4635500D01*
X+2794000Y+508000D01*
X+2730500Y+571500D01*
X+1270000Y-4953000D02*
X+1227430Y-4995570D01*
X+1124241Y-4995570D01*
X+1124241Y-5127041D01*
X-4127500Y-4699000D02*
X-4381500Y-4953000D01*
X-4381500Y-5715000D01*
X-4445000Y-5778500D01*
X-5969000Y-5778500D01*
X-5461000Y-2603500D02*
X-4762500Y-2603500D01*
X+5334000Y-3873500D02*
X+5458241Y-3749259D01*
X+5458241Y-3284941D01*
X-1143000Y-4127500D02*
X-1143000Y-4889500D01*
X-1041254Y-4991246D01*
X-1041254Y-5260536D01*
X-1161759Y-5381041D01*
X-151759Y-3294941D02*
X-151759Y-3556000D01*
X-215259Y-3619500D01*
X-381000Y-3619500D01*
X-444500Y-3683000D01*
X-444500Y-4908259D01*
X-272759Y-5080000D01*
X-272759Y-5524500D01*
X-209259Y-5588000D01*
X+1171282Y-5588000D01*
X+1378241Y-5381041D01*
X-6032500Y-4381500D02*
X-6037759Y-4386759D01*
X-6037759Y-5117041D01*
X-5651500Y-4381500D02*
X-5621759Y-4351759D01*
X-5621759Y-3284941D01*
X+5143500Y-2349500D02*
X+5143500Y-2730500D01*
X+8128000Y-3746500D02*
X+8255000Y-3746500D01*
X+8255000Y-2603500D01*
X+8191500Y-2540000D01*
X+7683500Y-2540000D01*
X+7493000Y-2349500D01*
X+7366000Y-4318000D02*
X+7366000Y-3746500D01*
X+1778000Y-4699000D02*
X+1651000Y-4572000D01*
X+1441741Y-4572000D01*
X+1378241Y-4635500D01*
X+1378241Y-5127041D01*
X+1524000Y-3556000D02*
X+1524000Y-4000500D01*
X+2032000Y-4508500D01*
X+2032000Y-4699000D01*
X-381000Y-2540000D02*
X-405759Y-2564759D01*
X-405759Y-3040941D01*
X-5588000Y-1206500D02*
X-5603494Y-1221994D01*
X-6017006Y-1221994D01*
X-6032500Y-1206500D01*
X+4508500Y-4762500D02*
X+4508500Y-4508500D01*
X+4572000Y-4445000D01*
X+5140741Y-4445000D01*
X+5204241Y-4381500D01*
X+5204241Y-3284941D01*
X-889000Y-5715000D02*
X-889000Y-5588000D01*
X-907759Y-5569241D01*
X-907759Y-5381041D01*
X-405759Y-3294941D02*
X-405759Y-3498500D01*
X-526759Y-3619500D01*
X-526759Y-5651500D01*
X-463259Y-5715000D01*
X+1524000Y-5715000D01*
X+1632241Y-5606759D01*
X+1632241Y-5381041D01*
X-5783759Y-5117041D02*
X-5783759Y-3521000D01*
X-5875759Y-3429000D01*
X-5875759Y-3284941D01*
X+8318500Y+2730500D02*
X+8826500Y+2730500D01*
X+8890000Y+2667000D01*
X+8890000Y-6223000D01*
X+8826500Y-6286500D01*
X+4811741Y-6286500D01*
X+4748241Y-6223000D01*
X+4748241Y-5378141D01*
X+5397500Y+1968500D02*
X+5397500Y-2794000D01*
X+5334000Y-2857500D01*
X+5123682Y-2857500D01*
X+4950241Y-3030941D01*
X+2921000Y-2222500D02*
X+2857500Y-2286000D01*
X+2857500Y-4953000D01*
X+2794000Y-5016500D01*
X+2794000Y-6223000D01*
X-635000Y-2349500D02*
X-659759Y-2374259D01*
X-659759Y-3040941D01*
X+6540500Y-6096000D02*
X+6985000Y-6096000D01*
X-2667000Y-4318000D02*
X-2794000Y-4445000D01*
X-2794000Y-5397500D01*
X-2857500Y-5461000D01*
X-5842000Y-2730500D02*
X-4616527Y-2730500D01*
X-4553027Y-2667000D01*
X-4553027Y-2495473D01*
X-4572000Y-2476500D01*
X+4494241Y-5124142D02*
X+4494241Y-5124141D01*
X+4494241Y-5002241D01*
X+4381500Y-4889500D01*
X+4381500Y-4254500D01*
X+4445000Y-4191000D01*
X+4826000Y-4191000D01*
X+4950241Y-4066759D01*
X+4950241Y-3284941D01*
X+1968500Y-6286500D02*
X-1143000Y-6286500D01*
X-1206500Y-6223000D01*
X-1206500Y-5651500D01*
X-1143000Y-5588000D01*
X-1047750Y-5588000D01*
X-984250Y-5651500D01*
X-984250Y-5842000D01*
X-844259Y-5842000D01*
X-780759Y-5778500D01*
X-780759Y-3556000D01*
X-659759Y-3435000D01*
X-659759Y-3294941D01*
X-5529759Y-5117041D02*
X-5656759Y-5244041D01*
X-5842000Y-5244041D01*
X-5905500Y-5180541D01*
X-5905500Y-3907259D01*
X-6129759Y-3683000D01*
X-6129759Y-3284941D01*
X-254000Y-2222500D02*
X-850259Y-2222500D01*
X-913759Y-2286000D01*
X-913759Y-3040941D01*
X+1460500Y-2667000D02*
X+1460500Y-2222500D01*
X+3302000Y-5842000D02*
X+3302000Y-5969000D01*
X+3143250Y-5969000D01*
X+3079750Y-5905500D01*
X+3079750Y-3810000D01*
X+3175000Y-3714750D01*
X+3175000Y-3429000D01*
X+3048000Y-3302000D01*
X+4635500Y-4699000D02*
X+6413500Y-4699000D01*
X+6477000Y-4635500D01*
X+6477000Y-4127500D01*
X+6540500Y-4064000D01*
X+6731000Y-4064000D01*
X+6794500Y-4127500D01*
X+6794500Y-4855882D01*
X+6526241Y-5124141D01*
X-1270000Y-4127500D02*
X-1143000Y-4000500D01*
X-1079500Y-4000500D01*
X-1016000Y-4064000D01*
X-1016000Y-4826000D01*
X-907759Y-4934241D01*
X-907759Y-5127041D01*
X-907759Y-5127042D01*
X+4699000Y-3746500D02*
X+4696241Y-3743741D01*
X+4696241Y-3284941D01*
X-889000Y-4699000D02*
X-913759Y-4674241D01*
X-913759Y-3294941D01*
X+1651000Y-4699000D02*
X+1632241Y-4717759D01*
X+1632241Y-5127041D01*
X-6223000Y-3746500D02*
X-6383759Y-3585741D01*
X-6383759Y-3284941D01*
X-5270500Y-3746500D02*
X-5275759Y-3751759D01*
X-5275759Y-5117041D01*
X+2603500Y-190500D02*
X+2667000Y-254000D01*
X+2667000Y-4000500D01*
X+2476500Y-4191000D01*
X+1905000Y-5778500D02*
X+1905000Y-5651500D01*
X+1886241Y-5632741D01*
X+1886241Y-5381041D01*
X-2667000Y-5842000D02*
X-2667000Y-4762500D01*
X-2222500Y-4318000D01*
X-2222500Y-2794000D01*
X-2159000Y-2730500D01*
X-1478200Y-2730500D01*
X-1167759Y-3040941D01*
X-6159500Y-1968500D02*
X-5905500Y-1968500D01*
X-6921500Y-3746500D02*
X-6921500Y-4826000D01*
X-6667500Y-5080000D01*
X-6667500Y-5524500D01*
X-6604000Y-5588000D01*
X-5085259Y-5588000D01*
X-5021759Y-5524500D01*
X-5021759Y-5371041D01*
X-635000Y-3619500D02*
X-653759Y-3638259D01*
X-653759Y-5127041D01*
X-653759Y-5127042D01*
X+1270000Y-3492500D02*
X+1270000Y-4064000D01*
X+1886241Y-4680241D01*
X+1886241Y-5127041D01*
X-6540500Y-4826000D02*
X-6637759Y-4728741D01*
X-6637759Y-3284941D01*
X-5016500Y-4826000D02*
X-5016500Y-5111782D01*
X-5021759Y-5117041D01*
X+8191500Y+3556000D02*
X+8191500Y+4572000D01*
X+8128000Y+4635500D01*
X+7810500Y+4635500D01*
X+7747000Y+4572000D01*
X+7747000Y+1246200D01*
X+7998241Y+994959D01*
X+8191500Y+2603500D02*
X+8211358Y+2623358D01*
X+8743142Y+2623358D01*
X+8826500Y+2540000D01*
X+8826500Y-5969000D01*
X+8763000Y-6032500D01*
X+8445500Y-6032500D01*
X+8382000Y-5969000D01*
X+6096000Y-5969000D01*
X+5969000Y-6096000D01*
X+5270500Y-6096000D01*
X+4875241Y-5700741D01*
X+4875241Y-5251142D01*
X+5002241Y-5124141D01*
X+5002241Y-5124142D01*
X+4191000Y-6096000D02*
X+4127500Y-6159500D01*
X+2952750Y-6159500D01*
X+2889250Y-6096000D01*
X+2889250Y-5524500D01*
X+2921000Y-5492750D01*
X+2921000Y-2794000D01*
X+3021220Y-2693780D01*
X+3021220Y-2159000D01*
X+2984500Y-2122280D01*
X+2984500Y-1524000D01*
X+7302500Y-6096000D02*
X+7175500Y-6223000D01*
X+5143500Y-6223000D01*
X+5016500Y-6096000D01*
X-3365500Y-4191000D02*
X-3365500Y-3746500D01*
X-3302000Y-3683000D01*
X-2921000Y-3683000D01*
X-2857500Y-3619500D01*
X-2857500Y+770700D01*
X-3081759Y+994959D01*
X-3746500Y-4191000D02*
X-3873500Y-4318000D01*
X-3873500Y-5461000D01*
X-3937000Y-5524500D01*
X-4005759Y-5524500D01*
X-4005759Y-5371041D01*
X+3175000Y-5842000D02*
X+3175000Y-4191000D01*
X+3313320Y-4052680D01*
X+3313320Y-2540000D01*
X+4000500Y-2540000D01*
X+4064000Y-2476500D01*
X+2032000Y-5905500D02*
X+1822741Y-5905500D01*
X+1759241Y-5842000D01*
X+1759241Y-5254041D01*
X+1585200Y-5254041D01*
X+1505241Y-5334000D01*
X+1505241Y-5543259D01*
X+1397000Y-5651500D01*
X-336259Y-5651500D01*
X-399759Y-5588000D01*
X-399759Y-5381041D01*
X-1079500Y-5715000D02*
X-1079500Y-5969000D01*
X-1016000Y-6032500D01*
X+2076741Y-6032500D01*
X+2140241Y-5969000D01*
X+2140241Y-5381041D01*
X-2540000Y-5715000D02*
X-2603500Y-5651500D01*
X-2603500Y-4826000D01*
X-2159000Y-4381500D01*
X-2159000Y-2857500D01*
X-2095500Y-2794000D01*
X-1668700Y-2794000D01*
X-1421759Y-3040941D01*
X-4762500Y-6096000D02*
X-7493000Y-6096000D01*
X-7810500Y-5778500D01*
X+3810000Y-4572000D02*
X+3810000Y-3746500D01*
X+3873500Y-3683000D01*
X+4124741Y-3683000D01*
X+4188241Y-3619500D01*
X+4188241Y-3284941D01*
X-1397000Y-4000500D02*
X-1421759Y-3975741D01*
X-1421759Y-3294941D01*
X+1651000Y-4000500D02*
X+2076741Y-4000500D01*
X+2140241Y-4064000D01*
X+2140241Y-5127041D01*
X-4826000Y-3556000D02*
X-4767759Y-3614241D01*
X-4767759Y-5117041D01*
X+2476500Y-4826000D02*
X+2667000Y-5016500D01*
X+2667000Y-6286500D01*
X+2730500Y-6350000D01*
X+4318000Y-6350000D01*
X+4381500Y-6286500D01*
X+4381500Y-5969000D01*
X+4318000Y-5905500D01*
X+4191000Y-5905500D01*
X+4000500Y-6096000D01*
X+3810000Y-6096000D01*
X+3429000Y-5715000D01*
X+3302000Y-5715000D01*
X+3238500Y-5651500D01*
X+3238500Y-4572000D01*
X+3302000Y-4508500D01*
X+3365500Y-4508500D01*
X+3429000Y-4445000D01*
X+3429000Y-2794000D01*
X+3492500Y-2730500D01*
X+4889500Y-2730500D01*
X+4953000Y-2667000D01*
X+4953000Y-2540000D01*
X+4889500Y-2476500D01*
X+4318000Y-2476500D01*
X-1675759Y-3040941D02*
X-1859200Y-2857500D01*
X-2032000Y-2857500D01*
X-2095500Y-2921000D01*
X-2095500Y-3593130D01*
X-1288759Y-4399871D01*
X-1288759Y-6350000D01*
X-1225259Y-6413500D01*
X+2286000Y-6413500D01*
X+2394241Y-6305259D01*
X+2394241Y-5381041D01*
X-6477000Y+1397000D02*
X-6477000Y-2349500D01*
X-127000Y-3746500D02*
X-127000Y-4508500D01*
X-18759Y-4616741D01*
X-18759Y-5000041D01*
X-145759Y-5127041D01*
X+3937000Y-3556000D02*
X+3937000Y-3287700D01*
X+3934241Y-3284941D01*
X-6731000Y-4445000D02*
X-6731000Y-3699700D01*
X-7145759Y-3284941D01*
X-4508500Y-4445000D02*
X-4508500Y-5111782D01*
X-4513759Y-5117041D01*
X+8318500Y+1397000D02*
X+8170459Y+1248959D01*
X+7998241Y+1248959D01*
X+8699500Y-5842000D02*
X+8636000Y-5778500D01*
X+5969000Y-5778500D01*
X+5905500Y-5715000D01*
X+5905500Y-5588000D01*
X+5842000Y-5524500D01*
X+5656600Y-5524500D01*
X+5510241Y-5378141D01*
X+7620000Y-3492500D02*
X+7493000Y-3619500D01*
X+7493000Y-4381500D01*
X+7415241Y-4459259D01*
X+7415241Y-5251141D01*
X+7161241Y-5251141D01*
X+7034241Y-5124141D01*
X+6604000Y+444500D02*
X+6604000Y-2794000D01*
X+2857500Y+1270000D02*
X+2730500Y+1270000D01*
X+2699459Y+1238959D01*
X+2388241Y+1238959D01*
X-1270000Y-1968500D02*
X-571500Y-1968500D01*
X-508000Y-1905000D01*
X-508000Y+1397000D01*
X-2921000Y-5080000D02*
X-2921000Y-4191000D01*
X-2857500Y-4127500D01*
X-2413000Y-4127500D01*
X-3111500Y-5715000D02*
X-4064000Y-5715000D01*
X-4127500Y-5651500D01*
X-4127500Y-4953000D01*
X-4005759Y-4953000D01*
X-4005759Y-5117041D01*
X+8572500Y-5905500D02*
X+5905500Y-5905500D01*
X+5842000Y-5842000D01*
X+5842000Y-5651500D01*
X+5778500Y-5588000D01*
X+5192741Y-5588000D01*
X+5129241Y-5524500D01*
X+5129241Y-5251142D01*
X+5256241Y-5124141D01*
X+5256241Y-5124142D01*
X+8318500Y+1524000D02*
X+8297459Y+1502959D01*
X+7998241Y+1502959D01*
X+6731000Y-127000D02*
X+6731000Y+4254500D01*
X+7366000Y+4889500D01*
X+3810000Y-127000D02*
X+3238500Y-698500D01*
X+3048000Y-698500D01*
X+2984500Y-635000D01*
X+2984500Y+1429459D01*
X+2921000Y+1492959D01*
X+2388241Y+1492959D01*
X-3751759Y-5371041D02*
X-3619500Y-5238782D01*
X-3619500Y-3619500D01*
X-3556000Y-3556000D01*
X-2984500Y-3556000D01*
X-2921000Y-3492500D01*
X-2921000Y-444500D01*
X-3238500Y-127000D01*
X-3238500Y+1346218D01*
X-3081759Y+1502959D01*
X+8445500Y+1270000D02*
X+8445500Y+1693459D01*
X+8382000Y+1756959D01*
X+7998241Y+1756959D01*
X+7048500Y-4254500D02*
X+7048500Y-4381500D01*
X+7288241Y-4621241D01*
X+7288241Y-5124141D01*
X+2603500Y-4318000D02*
X+2413000Y-4318000D01*
X+2349500Y-4254500D01*
X+2349500Y-3873500D01*
X+2603500Y-3619500D01*
X+2603500Y-381000D01*
X+2540000Y-317500D01*
X+2286000Y-317500D01*
X+2222500Y-254000D01*
X+2222500Y+1581218D01*
X+2388241Y+1746959D01*
X-3302000Y-4826000D02*
X-3238500Y-4762500D01*
X-3238500Y-3810000D01*
X-3175000Y-3746500D01*
X-2857500Y-3746500D01*
X-2794000Y-3683000D01*
X-2794000Y+1469200D01*
X-3081759Y+1756959D01*
X+8255000Y+2159000D02*
X+8233959Y+2137959D01*
X+7998241Y+2137959D01*
X+3048000Y+3937000D02*
X+3313320Y+3671680D01*
X+3313320Y+1662320D01*
X+3238500Y+1587500D01*
X+3111500Y+1587500D01*
X+2571041Y+2127959D01*
X+2388241Y+2127959D01*
X-3302000Y-5143500D02*
X-3175000Y-5016500D01*
X-3175000Y-3873500D01*
X-3111500Y-3810000D01*
X-2794000Y-3810000D01*
X-2730500Y-3746500D01*
X-2730500Y+1786700D01*
X-3081759Y+2137959D01*
X+6018241Y-5378141D02*
X+6018241Y-5651500D01*
X+6081741Y-5715000D01*
X+8699500Y-5715000D01*
X+8763000Y-5651500D01*
X+8763000Y+2286000D01*
X+8657041Y+2391959D01*
X+7998241Y+2391959D01*
X-3497759Y-5371041D02*
X-3175000Y-5371041D01*
X-3111500Y-5307541D01*
X-3111500Y-4064000D01*
X-3048000Y-4000500D01*
X-2730500Y-4000500D01*
X-2667000Y-3937000D01*
X-2667000Y+1977200D01*
X-3081759Y+2391959D01*
X+3324000Y+5310000D02*
X+3175000Y+5161000D01*
X+3175000Y+4191000D01*
X+3365500Y+4000500D01*
X+3365500Y+1442218D01*
X+3172241Y+1248959D01*
X+5207000Y+4127500D02*
X+5229000Y+4149500D01*
X+5229000Y+5183000D01*
X+5356000Y+5310000D01*
X+2921000Y+5143500D02*
X+2921000Y+4127500D01*
X-2222500Y+5143500D02*
X-2222500Y+1454218D01*
X-2437759Y+1238959D01*
X-7937500Y+1524000D02*
X-7907759Y+1494259D01*
X-7907759Y+1248959D01*
X-8382000Y+4826000D02*
X-8382000Y+5048000D01*
X-8380000Y+5050000D01*
X+4594000Y+5310000D02*
X+4467000Y+5183000D01*
X+4467000Y-1460500D01*
X+4369759Y-1557741D01*
X+3172241Y-1557741D01*
X+3175000Y+5905500D02*
X+3175000Y+5927583D01*
X+3146283Y+5956300D01*
X+3146283Y+5969000D01*
X+6562500Y+5969000D01*
X+6626000Y+5905500D01*
X+6626000Y+5310000D01*
X-825500Y+5905500D02*
X-825500Y-1504241D01*
X-889000Y-1567741D01*
X-2437759Y-1567741D01*
X-7110000Y+5050000D02*
X-7110000Y-759982D01*
X-7907759Y-1557741D01*
X+4594000Y+5056000D02*
X+4594000Y-1714500D01*
X+4496759Y-1811741D01*
X+3172241Y-1811741D01*
X-1714500Y+5270500D02*
X-889000Y+6096000D01*
X-762000Y+6096000D01*
X-698500Y+6032500D01*
X-698500Y-1758241D01*
X-762000Y-1821741D01*
X-2437759Y-1821741D01*
X+6604000Y+4889500D02*
X+6626000Y+4911500D01*
X+6626000Y+5056000D01*
X-6856000Y+5304000D02*
X-6985000Y+5175000D01*
X-6985000Y-888982D01*
X-7907759Y-1811741D01*
X+3172241Y-2065741D02*
X+4635500Y-2065741D01*
X+4721000Y-1980241D01*
X+4721000Y+5183000D01*
X+4848000Y+5310000D01*
X-381000Y+5588000D02*
X-381000Y-2012241D01*
X-444500Y-2075741D01*
X-2437759Y-2075741D01*
X-6856000Y+5050000D02*
X-6856000Y-1013982D01*
X-7907759Y-2065741D01*
X+3172241Y-2319741D02*
X+4762500Y-2319741D01*
X+4848000Y-2234241D01*
X+4848000Y+5056000D01*
X+2667000Y+4381500D02*
X+2476500Y+4572000D01*
X+2032000Y+4572000D01*
X+1968500Y+4508500D01*
X+1968500Y-1397000D01*
X-6602000Y+5304000D02*
X-6731000Y+5175000D01*
X-6731000Y-1142982D01*
X-7907759Y-2319741D01*
X+3172241Y-2573741D02*
X+3256782Y-2489200D01*
X+3699870Y-2489200D01*
X+3810000Y-2379070D01*
X+4826000Y-2379070D01*
X+4913200Y-2291870D01*
X+4913200Y+4827700D01*
X+4975000Y+4889500D01*
X+4975000Y+5183000D01*
X+5102000Y+5310000D01*
X-254000Y+6032500D02*
X-254000Y-1651000D01*
X-6604000Y-889000D02*
X-6604000Y+5048000D01*
X-6602000Y+5050000D01*
X+5080000Y-1270000D02*
X+5080000Y+4572000D01*
X+5102000Y+4594000D01*
X+5102000Y+5056000D01*
X-1016000Y+5651500D02*
X-1016000Y-728599D01*
X-1079500Y-792099D01*
X-2506599Y-792099D01*
X-2603500Y-889000D01*
X-2603500Y-2672000D01*
X-2437759Y-2837741D01*
X+6985000Y+5905500D02*
X+7261000Y+5629500D01*
X+7261000Y+5183000D01*
X+7134000Y+5056000D01*
X-6348000Y+5304000D02*
X-6568500Y+5524500D01*
X-8572500Y+5524500D01*
X-8636000Y+5461000D01*
X-8636000Y-2099500D01*
X-7907759Y-2827741D01*
X+3324000Y+5056000D02*
X+3324000Y+4740500D01*
X+3429000Y+4635500D01*
X+3429000Y+1251718D01*
X+3172241Y+994959D01*
X-2095500Y+4889500D02*
X-2095500Y+1327218D01*
X-2437759Y+984959D01*
X-8001000Y+4889500D02*
X-8064500Y+4826000D01*
X-8064500Y+1151700D01*
X-7907759Y+994959D01*
X-8509000Y+5143500D02*
X-8509000Y+5397500D01*
X-8445500Y+5461000D01*
X-8283000Y+5461000D01*
X-8126000Y+5304000D01*
X+3578000Y+5310000D02*
X+3451000Y+5183000D01*
X+3451000Y+4740500D01*
X+3492500Y+4699000D01*
X+3492500Y+1061218D01*
X+3172241Y+740959D01*
X+5461000Y+4254500D02*
X+5478349Y+4271849D01*
X+5478349Y+5178349D01*
X+5610000Y+5310000D01*
X-2349500Y+3873500D02*
X-2286000Y+3810000D01*
X-2286000Y+1651000D01*
X-2603500Y+1333500D01*
X-2603500Y+896700D01*
X-2437759Y+730959D01*
X-7907759Y+740959D02*
X-8126000Y+959200D01*
X-8126000Y+5050000D01*
X+3578000Y+5056000D02*
X+3578000Y+892718D01*
X+3172241Y+486959D01*
X-1968500Y+4762500D02*
X-1968500Y+946218D01*
X-2437759Y+476959D01*
X+5588000Y+4889500D02*
X+5610000Y+4911500D01*
X+5610000Y+5056000D01*
X-7872000Y+5304000D02*
X-7747000Y+5179000D01*
X-7747000Y+647718D01*
X-7907759Y+486959D01*
X+3683000Y+444500D02*
X+3683000Y+1841500D01*
X+3705000Y+1863500D01*
X+3705000Y+5183000D01*
X+3832000Y+5310000D01*
X-1397000Y+5461000D02*
X-1397000Y+501718D01*
X-2437759Y-539041D01*
X-7872000Y+5050000D02*
X-7999000Y+5177000D01*
X-8191500Y+5177000D01*
X-8255000Y+5113500D01*
X-8255000Y+4762500D01*
X-8572500Y+4445000D01*
X-8572500Y+135700D01*
X-7907759Y-529041D01*
X+3492500Y+190500D02*
X+3768500Y+190500D01*
X+3832000Y+254000D01*
X+3832000Y+5056000D01*
X+3048000Y+5016500D02*
X+3048000Y+5397500D01*
X+3111500Y+5461000D01*
X+5673500Y+5461000D01*
X+5737000Y+5397500D01*
X+5737000Y+5183000D01*
X+5864000Y+5056000D01*
X-1587500Y+5016500D02*
X-1587500Y+565218D01*
X-2437759Y-285041D01*
X-7618000Y+5304000D02*
X-7493000Y+5179000D01*
X-7493000Y+139718D01*
X-7907759Y-275041D01*
X+3172241Y-21041D02*
X+3873500Y-21041D01*
X+3959000Y+64459D01*
X+3959000Y+5183000D01*
X+4086000Y+5310000D01*
X+3937000Y-381000D02*
X+3556000Y-762000D01*
X+2984500Y-762000D01*
X+2921000Y-698500D01*
X+2921000Y+1079500D01*
X+2857500Y+1143000D01*
X+5842000Y-381000D02*
X+5842000Y+4699000D01*
X+5991000Y+4848000D01*
X+5991000Y+5183000D01*
X+6118000Y+5310000D01*
X-7618000Y+5050000D02*
X-7618000Y+268718D01*
X-7907759Y-21041D01*
X+4064000Y+825500D02*
X+4086000Y+847500D01*
X+4086000Y+5056000D01*
X-1841500Y+4127500D02*
X-1841500Y+819218D01*
X-2437759Y+222959D01*
X+6096000Y+4635500D02*
X+6118000Y+4657500D01*
X+6118000Y+5056000D01*
X-8318500Y+4318000D02*
X-8318500Y+643700D01*
X-7907759Y+232959D01*
X+3172241Y-1049741D02*
X+4127500Y-1049741D01*
X+4213000Y-964241D01*
X+4213000Y+5183000D01*
X+4340000Y+5310000D01*
X-1524000Y-1016000D02*
X-1567741Y-1059741D01*
X-2437759Y-1059741D01*
X+4064000Y+508000D02*
X+4064000Y-825500D01*
X+4000500Y-889000D01*
X+3084720Y-889000D01*
X+3021220Y-952500D01*
X+3021220Y-1233280D01*
X+2921000Y-1333500D01*
X+6096000Y+508000D02*
X+6245000Y+657000D01*
X+6245000Y+5183000D01*
X+6372000Y+5310000D01*
X-7364000Y+5050000D02*
X-7364000Y-505982D01*
X-7907759Y-1049741D01*
X+4340000Y+5056000D02*
X+4340000Y-1206500D01*
X+4242759Y-1303741D01*
X+3172241Y-1303741D01*
X+2794000Y+4508500D02*
X+2603500Y+4699000D01*
X+1905000Y+4699000D01*
X+1841500Y+4635500D01*
X+1841500Y-1270000D01*
X-7110000Y+5304000D02*
X-7239000Y+5175000D01*
X-7239000Y-634982D01*
X-7907759Y-1303741D01*
X-3081759Y+3915959D02*
X-3081759Y+4178959D01*
X+3172241Y+2252259D02*
X+2984500Y+2440000D01*
X+2984500Y+3588459D01*
X+2921000Y+3651959D01*
X+2388241Y+3651959D01*
X-2437759Y+2242259D02*
X-2603500Y+2408000D01*
X-2603500Y+3183700D01*
X-3081759Y+3661959D01*
X-3554000Y+4134200D01*
X-3554000Y+5050000D01*
X-3492500Y-3683000D02*
X-3497759Y-3688259D01*
X-3497759Y-5117041D01*
X-7399759Y-3284941D02*
X-7399759Y-3589759D01*
X-7429500Y-3619500D01*
X+0Y-2857500D02*
X+0Y+1524000D01*
X+3172241Y+1998259D02*
X+3172241Y+2252259D01*
X-1929759Y-3040941D02*
X-1929759Y-3294941D01*
X-7399759Y-3284941D02*
X-7399759Y-3030941D01*
X+3680241Y-3284941D02*
X+3680241Y-3030941D01*
X-7907759Y+1998259D02*
X-7907759Y+2252259D01*
X-2437759Y+1988259D02*
X-2437759Y+2242259D01*
X-7429500Y-2603500D02*
X-6413500Y-2603500D01*
X-6350000Y-2540000D01*
X-6350000Y+1905000D01*
X+5207000Y+1968500D02*
X+5207000Y-1714500D01*
X+3680241Y-3284941D02*
X+3594100Y-3371082D01*
X+3594100Y-4699000D01*
X+3429000Y-4699000D01*
X+2476500Y-4699000D02*
X+2387600Y-4787900D01*
X+2387600Y-5120400D01*
X+2394241Y-5127041D01*
D11*
X+2794000Y+2349500D03*
X+7366000Y+1460500D03*
X+2857500Y+3556000D03*
X+7112000Y+3683000D03*
X+8636000Y+2984500D03*
X+8636000Y+2286000D03*
X+7747000Y-190500D03*
X+2730500Y+3175000D03*
X+4635500Y-5651500D03*
X+2667000Y+1905000D03*
X+6096000Y-698500D03*
X+6096000Y-2667000D03*
X+8064500Y-4318000D03*
X+7175500Y-1587500D03*
X+3683000Y-3556000D03*
X+3810000Y-4699000D03*
X+7620000Y-4318000D03*
X+1016000Y+6286500D03*
X+1016000Y-2857500D03*
X-3810000Y-3810000D03*
X-8318500Y-3873500D03*
X+7112000Y-2222500D03*
X+5016500Y-2222500D03*
X-8191500Y-3238500D03*
X-5842000Y-1778000D03*
X+4445000Y-3619500D03*
X+7366000Y-3429000D03*
X+1524000Y+4191000D03*
X+2095500Y+4191000D03*
X+6985000Y-1460500D03*
X+3048000Y-3556000D03*
X+2984500Y-5778500D03*
X+3810000Y-5715000D03*
X-7937500Y-3619500D03*
X-6159500Y-2095500D03*
X+4318000Y-3556000D03*
X+698500Y-2730500D03*
X+698500Y+6286500D03*
X-3937000Y-4127500D03*
X+6858000Y-825500D03*
X+7112000Y-4127500D03*
X+8128000Y-3873500D03*
X+1397000Y-3937000D03*
X-4127500Y-4254500D03*
X-7556500Y-4889500D03*
X+5270500Y-4953000D03*
X+2222500Y-6223000D03*
X+4826000Y-3619500D03*
X+6731000Y-2794000D03*
X+1143000Y+5334000D03*
X+4826000Y-4572000D03*
X-2413000Y-5588000D03*
X+1143000Y-4889500D03*
X-4381500Y-4381500D03*
X-7302500Y-4889500D03*
X+4064000Y+5778500D03*
X-2413000Y-4953000D03*
X+889000Y-1206500D03*
X+0Y-3873500D03*
X-4000500Y-2794000D03*
X-6159500Y-2222500D03*
X-6604000Y-2222500D03*
X+6477000Y-3746500D03*
X+889000Y-3873500D03*
X+444500Y-3873500D03*
X-1778000Y-6286500D03*
X+7429500Y-6159500D03*
X+7683500Y-6159500D03*
X+6350000Y+4064000D03*
X+254000Y-2857500D03*
X+254000Y-3556000D03*
X-7175500Y-4699000D03*
X-4889500Y-2476500D03*
X+6223000Y-4064000D03*
X-4953000Y-4699000D03*
X-8763000Y+6159500D03*
X+5969000Y+4191000D03*
X-317500Y-3746500D03*
X-127000Y-4889500D03*
X-7556500Y-571500D03*
X-8382000Y-889000D03*
X-8382000Y-3048000D03*
X-8382000Y-3556000D03*
X-1651000Y-6032500D03*
X+3937000Y-5969000D03*
X+6604000Y-4191000D03*
X+5969000Y-4191000D03*
X+1016000Y-3556000D03*
X+381000Y-3556000D03*
X-1397000Y-4699000D03*
X+3302000Y-4381500D03*
X+4826000Y-2603500D03*
X+5715000Y-2603500D03*
X+2540000Y-5207000D03*
X-5461000Y-1397000D03*
X-6921500Y-5778500D03*
X+4254500Y-4762500D03*
X+4254500Y-4191000D03*
X+5715000Y-4191000D03*
X-5461000Y-4953000D03*
X+2921000Y-889000D03*
X+7620000Y-254000D03*
X+8128000Y-4000500D03*
X+6921500Y-4000500D03*
X-3365500Y+698500D03*
X-3365500Y-2730500D03*
X-5461000Y+4635500D03*
X+5715000Y+4762500D03*
X-127000Y+1905000D03*
X+2730500Y+571500D03*
X+2603500Y-4826000D03*
X+1270000Y-4953000D03*
X-5969000Y-5778500D03*
X-4127500Y-4699000D03*
X-4762500Y-2603500D03*
X-5461000Y-2603500D03*
X+5334000Y-3873500D03*
X-1143000Y-4127500D03*
X-6032500Y-4381500D03*
X-5651500Y-4381500D03*
X+5143500Y-2730500D03*
X+5143500Y-2349500D03*
X+7493000Y-2349500D03*
X+8128000Y-3746500D03*
X+7366000Y-3746500D03*
X+7366000Y-4318000D03*
X+1778000Y-4699000D03*
X+2032000Y-4699000D03*
X+1524000Y-3556000D03*
X-381000Y-2540000D03*
X-6032500Y-1206500D03*
X-5588000Y-1206500D03*
X+4508500Y-4762500D03*
X-889000Y-5715000D03*
X+8318500Y+2730500D03*
X+5397500Y+1968500D03*
X+2794000Y-6223000D03*
X+2921000Y-2222500D03*
X-635000Y-2349500D03*
X+6985000Y-6096000D03*
X+6540500Y-6096000D03*
X-2857500Y-5461000D03*
X-2667000Y-4318000D03*
X-4572000Y-2476500D03*
X-5842000Y-2730500D03*
X+1968500Y-6286500D03*
X-254000Y-2222500D03*
X+1460500Y-2222500D03*
X+1460500Y-2667000D03*
X+3048000Y-3302000D03*
X+3302000Y-5842000D03*
X+4635500Y-4699000D03*
X-1270000Y-4127500D03*
X+4699000Y-3746500D03*
X-889000Y-4699000D03*
X+1651000Y-4699000D03*
X-6223000Y-3746500D03*
X-5270500Y-3746500D03*
X+2476500Y-4191000D03*
X+2603500Y-190500D03*
X+1905000Y-5778500D03*
X-2667000Y-5842000D03*
X-5905500Y-1968500D03*
X-6159500Y-1968500D03*
X-6921500Y-3746500D03*
X-635000Y-3619500D03*
X+1270000Y-3492500D03*
X-6540500Y-4826000D03*
X-5016500Y-4826000D03*
X+8191500Y+3556000D03*
X+8191500Y+2603500D03*
X+2984500Y-1524000D03*
X+4191000Y-6096000D03*
X+5016500Y-6096000D03*
X+7302500Y-6096000D03*
X-3365500Y-4191000D03*
X-3746500Y-4191000D03*
X+4064000Y-2476500D03*
X+3175000Y-5842000D03*
X+2032000Y-5905500D03*
X-1079500Y-5715000D03*
X-2540000Y-5715000D03*
X-7810500Y-5778500D03*
X-4762500Y-6096000D03*
X+3810000Y-4572000D03*
X-1397000Y-4000500D03*
X+1651000Y-4000500D03*
X-4826000Y-3556000D03*
X+4318000Y-2476500D03*
X+2476500Y-4826000D03*
X-6477000Y-2349500D03*
X-6477000Y+1397000D03*
X-127000Y-3746500D03*
X+3937000Y-3556000D03*
X-6731000Y-4445000D03*
X-4508500Y-4445000D03*
X+8318500Y+1397000D03*
X+8699500Y-5842000D03*
X+7620000Y-3492500D03*
X+6604000Y-2794000D03*
X+6604000Y+444500D03*
X+2857500Y+1270000D03*
X-508000Y+1397000D03*
X-1270000Y-1968500D03*
X-2413000Y-4127500D03*
X-2921000Y-5080000D03*
X-3111500Y-5715000D03*
X+8572500Y-5905500D03*
X+8318500Y+1524000D03*
X+7366000Y+4889500D03*
X+6731000Y-127000D03*
X+3810000Y-127000D03*
X+8445500Y+1270000D03*
X+7048500Y-4254500D03*
X+2603500Y-4318000D03*
X-3302000Y-4826000D03*
X+8255000Y+2159000D03*
X+3048000Y+3937000D03*
X-3302000Y-5143500D03*
X+5207000Y+4127500D03*
X+2921000Y+4127500D03*
X+2921000Y+5143500D03*
X-2222500Y+5143500D03*
X-7937500Y+1524000D03*
X-8382000Y+4826000D03*
X+3175000Y+5905500D03*
X-825500Y+5905500D03*
X-1714500Y+5270500D03*
X+6604000Y+4889500D03*
X-381000Y+5588000D03*
X+1968500Y-1397000D03*
X+2667000Y+4381500D03*
X-254000Y-1651000D03*
X-254000Y+6032500D03*
X-6604000Y-889000D03*
X+5080000Y-1270000D03*
X-1016000Y+5651500D03*
X+6985000Y+5905500D03*
X-2095500Y+4889500D03*
X-8001000Y+4889500D03*
X-8509000Y+5143500D03*
X+5461000Y+4254500D03*
X-2349500Y+3873500D03*
X-1968500Y+4762500D03*
X+5588000Y+4889500D03*
X+3683000Y+444500D03*
X-1397000Y+5461000D03*
X+3492500Y+190500D03*
X+3048000Y+5016500D03*
X-1587500Y+5016500D03*
X+2857500Y+1143000D03*
X+3937000Y-381000D03*
X+5842000Y-381000D03*
X+4064000Y+825500D03*
X-1841500Y+4127500D03*
X+6096000Y+4635500D03*
X-8318500Y+4318000D03*
X-1524000Y-1016000D03*
X+2921000Y-1333500D03*
X+4064000Y+508000D03*
X+6096000Y+508000D03*
X+1841500Y-1270000D03*
X+2794000Y+4508500D03*
X-3492500Y-3683000D03*
X-7429500Y-3619500D03*
X+0Y+1524000D03*
X+0Y-2857500D03*
X-6350000Y+1905000D03*
X-7429500Y-2603500D03*
X+5207000Y-1714500D03*
X+3429000Y-4699000D03*
X+2476500Y-4699000D03*
X+5207000Y+1968500D03*
D10*
X-6462299Y+5346459D02*
X-6462299Y+5256656D01*
X-6395344Y+5189701D01*
X-6300656Y+5189701D01*
X-6273799Y+5216558D01*
X-6273799Y+5137442D01*
X-6300656Y+5164299D01*
X-6395344Y+5164299D01*
X-6462299Y+5097344D01*
X-6462299Y+5002656D01*
X-6395344Y+4935701D01*
X-6300656Y+4935701D01*
X-6273799Y+4962558D01*
X-6273799Y-1354541D01*
X-6180541Y-1447799D01*
X-5535923Y-1447799D01*
X-5497823Y-1485899D01*
X-5424177Y-1485899D01*
X-5372101Y-1433823D01*
X-5372101Y-1360177D01*
X-5424177Y-1308101D01*
X-5497823Y-1308101D01*
X-5535923Y-1346201D01*
X-6138459Y-1346201D01*
X-6172201Y-1312459D01*
X-6172201Y+4966558D01*
X-6141344Y+4935701D01*
X-6046656Y+4935701D01*
X-6019799Y+4962558D01*
X-6019799Y+2709459D01*
X-5905500Y+2595160D01*
X-3221458Y+2595160D01*
X-3221458Y+2588094D01*
X-3152323Y+2518959D01*
X-3221458Y+2449824D01*
X-3221458Y+2334094D01*
X-3152323Y+2264959D01*
X-3221458Y+2195824D01*
X-3221458Y+2080094D01*
X-3139624Y+1998260D01*
X-3023894Y+1998260D01*
X-3018897Y+2003257D01*
X-2781299Y+1765659D01*
X-2781299Y+1528339D01*
X-2947057Y+1694097D01*
X-2942060Y+1699094D01*
X-2942060Y+1814824D01*
X-3023894Y+1896658D01*
X-3139624Y+1896658D01*
X-3221458Y+1814824D01*
X-3221458Y+1699094D01*
X-3152323Y+1629959D01*
X-3221458Y+1560824D01*
X-3221458Y+1445094D01*
X-3216461Y+1440097D01*
X-3289299Y+1367259D01*
X-3289299Y+748021D01*
X-3328677Y+787399D01*
X-3402323Y+787399D01*
X-3454399Y+735323D01*
X-3454399Y+661677D01*
X-3416299Y+623577D01*
X-3416299Y-2655577D01*
X-3454399Y-2693677D01*
X-3454399Y-2767323D01*
X-3402323Y-2819399D01*
X-3328677Y-2819399D01*
X-3276601Y-2767323D01*
X-3276601Y-2693677D01*
X-3314701Y-2655577D01*
X-3314701Y+623577D01*
X-3289299Y+648979D01*
X-3289299Y-148041D01*
X-3035298Y-402042D01*
X-3139624Y-402042D01*
X-3221458Y-483876D01*
X-3221458Y-599606D01*
X-3152323Y-668741D01*
X-3221458Y-737876D01*
X-3221458Y-853606D01*
X-3152323Y-922741D01*
X-3221458Y-991876D01*
X-3221458Y-1107606D01*
X-3152323Y-1176741D01*
X-3221458Y-1245876D01*
X-3221458Y-1361606D01*
X-3152323Y-1430741D01*
X-3221458Y-1499876D01*
X-3221458Y-1615606D01*
X-3152323Y-1684741D01*
X-3221458Y-1753876D01*
X-3221458Y-1869606D01*
X-3152323Y-1938741D01*
X-3221458Y-2007876D01*
X-3221458Y-2123606D01*
X-3152323Y-2192741D01*
X-3221458Y-2261876D01*
X-3221458Y-2377606D01*
X-3139624Y-2459440D01*
X-3023894Y-2459440D01*
X-2971799Y-2407345D01*
X-2971799Y-2943337D01*
X-3023894Y-2891242D01*
X-3139624Y-2891242D01*
X-3208759Y-2960377D01*
X-3277894Y-2891242D01*
X-3393624Y-2891242D01*
X-3462759Y-2960377D01*
X-3531894Y-2891242D01*
X-3538960Y-2891242D01*
X-3538960Y-1820459D01*
X-3632218Y-1727201D01*
X-5767077Y-1727201D01*
X-5805177Y-1689101D01*
X-5878823Y-1689101D01*
X-5930899Y-1741177D01*
X-5930899Y-1814823D01*
X-5878823Y-1866899D01*
X-5805177Y-1866899D01*
X-5767077Y-1828799D01*
X-3674300Y-1828799D01*
X-3640558Y-1862541D01*
X-3640558Y-2891242D01*
X-3647624Y-2891242D01*
X-3716759Y-2960377D01*
X-3785894Y-2891242D01*
X-3792960Y-2891242D01*
X-3792960Y-2137959D01*
X-3886218Y-2044701D01*
X-5855979Y-2044701D01*
X-5816601Y-2005323D01*
X-5816601Y-1931677D01*
X-5868677Y-1879601D01*
X-5942323Y-1879601D01*
X-5980423Y-1917701D01*
X-6084577Y-1917701D01*
X-6122677Y-1879601D01*
X-6196323Y-1879601D01*
X-6248399Y-1931677D01*
X-6248399Y-2005323D01*
X-6221722Y-2032000D01*
X-6248399Y-2058677D01*
X-6248399Y-2132323D01*
X-6221722Y-2159000D01*
X-6248399Y-2185677D01*
X-6248399Y-2259323D01*
X-6196323Y-2311399D01*
X-6122677Y-2311399D01*
X-6084577Y-2273299D01*
X-4085041Y-2273299D01*
X-4051299Y-2307041D01*
X-4051299Y-2417361D01*
X-4169958Y-2298702D01*
X-5863042Y-2298702D01*
X-6244041Y-2679701D01*
X-7641041Y-2679701D01*
X-7696201Y-2734861D01*
X-7696201Y-2561041D01*
X-7662458Y-2527298D01*
X-6836958Y-2527298D01*
X-6621059Y-2311399D01*
X-6567177Y-2311399D01*
X-6527799Y-2272021D01*
X-6527799Y-2274577D01*
X-6565899Y-2312677D01*
X-6565899Y-2386323D01*
X-6513823Y-2438399D01*
X-6440177Y-2438399D01*
X-6388101Y-2386323D01*
X-6388101Y-2312677D01*
X-6426201Y-2274577D01*
X-6426201Y+1322077D01*
X-6388101Y+1360177D01*
X-6388101Y+1433823D01*
X-6440177Y+1485899D01*
X-6513823Y+1485899D01*
X-6553201Y+1446521D01*
X-6553201Y+4937156D01*
X-6487701Y+5002656D01*
X-6487701Y+5097344D01*
X-6554656Y+5164299D01*
X-6649344Y+5164299D01*
X-6680201Y+5133442D01*
X-6680201Y+5153959D01*
X-6644459Y+5189701D01*
X-6554656Y+5189701D01*
X-6487701Y+5256656D01*
X-6487701Y+5351344D01*
X-6554656Y+5418299D01*
X-6649344Y+5418299D01*
X-6716299Y+5351344D01*
X-6716299Y+5261541D01*
X-6781799Y+5196041D01*
X-6781799Y+5137442D01*
X-6808656Y+5164299D01*
X-6903344Y+5164299D01*
X-6934201Y+5133442D01*
X-6934201Y+5153959D01*
X-6898459Y+5189701D01*
X-6808656Y+5189701D01*
X-6741701Y+5256656D01*
X-6741701Y+5351344D01*
X-6808656Y+5418299D01*
X-6903344Y+5418299D01*
X-6970299Y+5351344D01*
X-6970299Y+5261541D01*
X-7035799Y+5196041D01*
X-7035799Y+5137442D01*
X-7062656Y+5164299D01*
X-7157344Y+5164299D01*
X-7188201Y+5133442D01*
X-7188201Y+5153959D01*
X-7152459Y+5189701D01*
X-7062656Y+5189701D01*
X-6995701Y+5256656D01*
X-6995701Y+5351344D01*
X-7062656Y+5418299D01*
X-7157344Y+5418299D01*
X-7224299Y+5351344D01*
X-7224299Y+5261541D01*
X-7289799Y+5196041D01*
X-7289799Y+5137442D01*
X-7316656Y+5164299D01*
X-7411344Y+5164299D01*
X-7442201Y+5133442D01*
X-7442201Y+5200041D01*
X-7503701Y+5261541D01*
X-7503701Y+5351344D01*
X-7570656Y+5418299D01*
X-7665344Y+5418299D01*
X-7732299Y+5351344D01*
X-7732299Y+5256656D01*
X-7665344Y+5189701D01*
X-7575541Y+5189701D01*
X-7543799Y+5157959D01*
X-7543799Y+5137442D01*
X-7570656Y+5164299D01*
X-7665344Y+5164299D01*
X-7696201Y+5133442D01*
X-7696201Y+5200041D01*
X-7757701Y+5261541D01*
X-7757701Y+5351344D01*
X-7824656Y+5418299D01*
X-7919344Y+5418299D01*
X-7986299Y+5351344D01*
X-7986299Y+5256656D01*
X-7919344Y+5189701D01*
X-7829541Y+5189701D01*
X-7797799Y+5157959D01*
X-7797799Y+5137442D01*
X-7824656Y+5164299D01*
X-7914459Y+5164299D01*
X-7977959Y+5227799D01*
X-8040558Y+5227799D01*
X-8011701Y+5256656D01*
X-8011701Y+5351344D01*
X-8078656Y+5418299D01*
X-8168459Y+5418299D01*
X-8223861Y+5473701D01*
X-6589541Y+5473701D01*
X-6462299Y+5346459D01*
X-7411344Y+5418299D02*
X-7316656Y+5418299D01*
X-7249701Y+5351344D01*
X-7249701Y+5256656D01*
X-7316656Y+5189701D01*
X-7411344Y+5189701D01*
X-7478299Y+5256656D01*
X-7478299Y+5351344D01*
X-7411344Y+5418299D01*
X-5499101Y-1169677D02*
X-5499101Y-1243323D01*
X-5551177Y-1295399D01*
X-5624823Y-1295399D01*
X-5647429Y-1272793D01*
X-5973071Y-1272793D01*
X-5995677Y-1295399D01*
X-6069323Y-1295399D01*
X-6121399Y-1243323D01*
X-6121399Y-1169677D01*
X-6069323Y-1117601D01*
X-5995677Y-1117601D01*
X-5943601Y-1169677D01*
X-5943601Y-1171195D01*
X-5676899Y-1171195D01*
X-5676899Y-1169677D01*
X-5624823Y-1117601D01*
X-5551177Y-1117601D01*
X-5499101Y-1169677D01*
X-6381750Y+1891849D02*
X-6381750Y+1918151D01*
X-6363151Y+1936750D01*
X-6336849Y+1936750D01*
X-6318250Y+1918151D01*
X-6318250Y+1891849D01*
X-6336849Y+1873250D01*
X-6363151Y+1873250D01*
X-6381750Y+1891849D01*
X-7461250Y-2616651D02*
X-7461250Y-2590349D01*
X-7442651Y-2571750D01*
X-7416349Y-2571750D01*
X-7397750Y-2590349D01*
X-7397750Y-2616651D01*
X-7416349Y-2635250D01*
X-7442651Y-2635250D01*
X-7461250Y-2616651D01*
X+3124201Y+4191000D02*
X+3124201Y+4169959D01*
X+3314701Y+3979459D01*
X+3314701Y+3742139D01*
X+3136899Y+3919941D01*
X+3136899Y+3973823D01*
X+3084823Y+4025899D01*
X+3011177Y+4025899D01*
X+2959101Y+3973823D01*
X+2959101Y+3900177D01*
X+3011177Y+3848101D01*
X+3065059Y+3848101D01*
X+3262521Y+3650639D01*
X+3262521Y+3629543D01*
X+3230106Y+3661958D01*
X+3114376Y+3661958D01*
X+3032542Y+3580124D01*
X+3032542Y+3464394D01*
X+3101677Y+3395259D01*
X+3032542Y+3326124D01*
X+3032542Y+3210394D01*
X+3101677Y+3141259D01*
X+3032542Y+3072124D01*
X+3032542Y+2956394D01*
X+3101677Y+2887259D01*
X+3032542Y+2818124D01*
X+3032542Y+2702394D01*
X+3101677Y+2633259D01*
X+3032542Y+2564124D01*
X+3032542Y+2448394D01*
X+3101677Y+2379259D01*
X+3032542Y+2310124D01*
X+3032542Y+2194394D01*
X+3101677Y+2125259D01*
X+3032542Y+2056124D01*
X+3032542Y+1940394D01*
X+3101677Y+1871259D01*
X+3032542Y+1802124D01*
X+3032542Y+1738298D01*
X+2592082Y+2178758D01*
X+2527940Y+2178758D01*
X+2527940Y+2185824D01*
X+2458805Y+2254959D01*
X+2527940Y+2324094D01*
X+2527940Y+2439824D01*
X+2458805Y+2508959D01*
X+2527940Y+2578094D01*
X+2527940Y+2585160D01*
X+2709459Y+2585160D01*
X+2743202Y+2551417D01*
X+2743201Y+2424423D01*
X+2705101Y+2386323D01*
X+2705101Y+2312677D01*
X+2757177Y+2260601D01*
X+2830823Y+2260601D01*
X+2882899Y+2312677D01*
X+2882899Y+2386323D01*
X+2844799Y+2424423D01*
X+2844798Y+2593501D01*
X+2751541Y+2686758D01*
X+2527940Y+2686758D01*
X+2527940Y+2693824D01*
X+2458805Y+2762959D01*
X+2527940Y+2832094D01*
X+2527940Y+2839160D01*
X+2815041Y+2839160D01*
X+2908299Y+2932418D01*
X+2908299Y+3481077D01*
X+2946399Y+3519177D01*
X+2946399Y+3592823D01*
X+2894323Y+3644899D01*
X+2820677Y+3644899D01*
X+2768601Y+3592823D01*
X+2768601Y+3519177D01*
X+2806701Y+3481077D01*
X+2806701Y+3224521D01*
X+2767323Y+3263899D01*
X+2693677Y+3263899D01*
X+2641601Y+3211823D01*
X+2641601Y+3194758D01*
X+2527940Y+3194758D01*
X+2527940Y+3201824D01*
X+2458805Y+3270959D01*
X+2527940Y+3340094D01*
X+2527940Y+3455824D01*
X+2458805Y+3524959D01*
X+2527940Y+3594094D01*
X+2527940Y+3709824D01*
X+2458805Y+3778959D01*
X+2527940Y+3848094D01*
X+2527940Y+3963824D01*
X+2454305Y+4037459D01*
X+2527940Y+4111094D01*
X+2527940Y+4226824D01*
X+2456955Y+4297809D01*
X+2527940Y+4368794D01*
X+2527940Y+4448720D01*
X+2578101Y+4398559D01*
X+2578101Y+4344677D01*
X+2630177Y+4292601D01*
X+2703823Y+4292601D01*
X+2755899Y+4344677D01*
X+2755899Y+4418323D01*
X+2703823Y+4470399D01*
X+2649941Y+4470399D01*
X+2497541Y+4622799D01*
X+2010959Y+4622799D01*
X+1917701Y+4529541D01*
X+1917701Y-1220479D01*
X+1892299Y-1195077D01*
X+1892299Y+4614459D01*
X+1926041Y+4648201D01*
X+2582459Y+4648201D01*
X+2705101Y+4525559D01*
X+2705101Y+4471677D01*
X+2757177Y+4419601D01*
X+2830823Y+4419601D01*
X+2870201Y+4458979D01*
X+2870201Y+4202423D01*
X+2832101Y+4164323D01*
X+2832101Y+4090677D01*
X+2884177Y+4038601D01*
X+2957823Y+4038601D01*
X+3009899Y+4090677D01*
X+3009899Y+4164323D01*
X+2971799Y+4202423D01*
X+2971799Y+4966979D01*
X+3011177Y+4927601D01*
X+3084823Y+4927601D01*
X+3124201Y+4966979D01*
X+3124201Y+4191000D01*
X+5686201Y+5161959D02*
X+5749701Y+5098459D01*
X+5749701Y+5008656D01*
X+5816656Y+4941701D01*
X+5911344Y+4941701D01*
X+5940201Y+4970558D01*
X+5940201Y+4869041D01*
X+5803899Y+4732739D01*
X+5803899Y+4799323D01*
X+5751823Y+4851399D01*
X+5678177Y+4851399D01*
X+5626101Y+4799323D01*
X+5626101Y+4725677D01*
X+5664201Y+4687577D01*
X+5664201Y+592541D01*
X+5448299Y+376639D01*
X+5448299Y+1893577D01*
X+5486399Y+1931677D01*
X+5486399Y+2005323D01*
X+5434323Y+2057399D01*
X+5360677Y+2057399D01*
X+5308601Y+2005323D01*
X+5308601Y+1931677D01*
X+5346701Y+1893577D01*
X+5346701Y-2772959D01*
X+5312959Y-2806701D01*
X+5193021Y-2806701D01*
X+5232399Y-2767323D01*
X+5232399Y-2693677D01*
X+5194299Y-2655577D01*
X+5194299Y-2424423D01*
X+5232399Y-2386323D01*
X+5232399Y-2312677D01*
X+5180323Y-2260601D01*
X+5106677Y-2260601D01*
X+5067299Y-2299979D01*
X+5067299Y-2297423D01*
X+5105399Y-2259323D01*
X+5105399Y-2185677D01*
X+5053323Y-2133601D01*
X+4979677Y-2133601D01*
X+4963999Y-2149279D01*
X+4963999Y+4806659D01*
X+5025799Y+4868459D01*
X+5025799Y+4970558D01*
X+5051201Y+4945156D01*
X+5051201Y+4615041D01*
X+5029201Y+4593041D01*
X+5029201Y-1195077D01*
X+4991101Y-1233177D01*
X+4991101Y-1306823D01*
X+5043177Y-1358899D01*
X+5116823Y-1358899D01*
X+5168899Y-1306823D01*
X+5168899Y-1233177D01*
X+5130799Y-1195077D01*
X+5130799Y+4077979D01*
X+5170177Y+4038601D01*
X+5243823Y+4038601D01*
X+5295899Y+4090677D01*
X+5295899Y+4164323D01*
X+5279799Y+4180423D01*
X+5279799Y+4970558D01*
X+5308656Y+4941701D01*
X+5403344Y+4941701D01*
X+5427550Y+4965907D01*
X+5427550Y+4343399D01*
X+5424177Y+4343399D01*
X+5372101Y+4291323D01*
X+5372101Y+4217677D01*
X+5424177Y+4165601D01*
X+5497823Y+4165601D01*
X+5549899Y+4217677D01*
X+5549899Y+4291323D01*
X+5529148Y+4312074D01*
X+5529148Y+4822630D01*
X+5551177Y+4800601D01*
X+5624823Y+4800601D01*
X+5676899Y+4852677D01*
X+5676899Y+4926323D01*
X+5660799Y+4942423D01*
X+5660799Y+4945156D01*
X+5724299Y+5008656D01*
X+5724299Y+5103344D01*
X+5657344Y+5170299D01*
X+5562656Y+5170299D01*
X+5529148Y+5136791D01*
X+5529148Y+5157308D01*
X+5567541Y+5195701D01*
X+5657344Y+5195701D01*
X+5686201Y+5224558D01*
X+5686201Y+5161959D01*
X+5175250Y-1727651D02*
X+5175250Y-1701349D01*
X+5193849Y-1682750D01*
X+5220151Y-1682750D01*
X+5238750Y-1701349D01*
X+5238750Y-1727651D01*
X+5220151Y-1746250D01*
X+5193849Y-1746250D01*
X+5175250Y-1727651D01*
X+5175250Y+1955349D02*
X+5175250Y+1981651D01*
X+5193849Y+2000250D01*
X+5220151Y+2000250D01*
X+5238750Y+1981651D01*
X+5238750Y+1955349D01*
X+5220151Y+1936750D01*
X+5193849Y+1936750D01*
X+5175250Y+1955349D01*
X+8140701Y+4550959D02*
X+8140701Y+3630923D01*
X+8137940Y+3628162D01*
X+8137940Y+3719824D01*
X+8068805Y+3788959D01*
X+8137940Y+3858094D01*
X+8137940Y+3973824D01*
X+8064305Y+4047459D01*
X+8137940Y+4121094D01*
X+8137940Y+4236824D01*
X+8066955Y+4307809D01*
X+8137940Y+4378794D01*
X+8137940Y+4494524D01*
X+8056106Y+4576358D01*
X+7940376Y+4576358D01*
X+7858542Y+4494524D01*
X+7858542Y+4378794D01*
X+7929527Y+4307809D01*
X+7858542Y+4236824D01*
X+7858542Y+4121094D01*
X+7932177Y+4047459D01*
X+7858542Y+3973824D01*
X+7858542Y+3858094D01*
X+7927677Y+3788959D01*
X+7858542Y+3719824D01*
X+7858542Y+3604094D01*
X+7927677Y+3534959D01*
X+7858542Y+3465824D01*
X+7858542Y+3350094D01*
X+7927677Y+3280959D01*
X+7858542Y+3211824D01*
X+7858542Y+3096094D01*
X+7927677Y+3026959D01*
X+7858542Y+2957824D01*
X+7858542Y+2842094D01*
X+7863539Y+2837097D01*
X+7797798Y+2771356D01*
X+7797798Y+4550958D01*
X+7831541Y+4584701D01*
X+8106959Y+4584701D01*
X+8140701Y+4550959D01*
X+2248542Y+4484524D02*
X+2248542Y+4368794D01*
X+2319527Y+4297809D01*
X+2248542Y+4226824D01*
X+2248542Y+4111094D01*
X+2322177Y+4037459D01*
X+2248542Y+3963824D01*
X+2248542Y+3848094D01*
X+2317677Y+3778959D01*
X+2248542Y+3709824D01*
X+2248542Y+3594094D01*
X+2317677Y+3524959D01*
X+2248542Y+3455824D01*
X+2248542Y+3340094D01*
X+2253539Y+3335097D01*
X+2171701Y+3253259D01*
X+2171701Y+1947459D01*
X+2264959Y+1854201D01*
X+2297919Y+1854201D01*
X+2248542Y+1804824D01*
X+2248542Y+1689094D01*
X+2253539Y+1684097D01*
X+2171701Y+1602259D01*
X+2171701Y-275041D01*
X+2226861Y-330201D01*
X+2180041Y-330201D01*
X+2146298Y-296458D01*
X+2146299Y+4116077D01*
X+2184399Y+4154177D01*
X+2184399Y+4227823D01*
X+2132323Y+4279899D01*
X+2058677Y+4279899D01*
X+2019299Y+4240521D01*
X+2019299Y+4487459D01*
X+2053041Y+4521201D01*
X+2285219Y+4521201D01*
X+2248542Y+4484524D01*
X-290823Y-1739899D02*
X-217177Y-1739899D01*
X-202558Y-1725280D01*
X-202558Y-2148220D01*
X-217177Y-2133601D01*
X-290823Y-2133601D01*
X-328923Y-2171701D01*
X-871300Y-2171701D01*
X-964558Y-2264959D01*
X-964558Y-2901242D01*
X-971624Y-2901242D01*
X-1040759Y-2970377D01*
X-1109894Y-2901242D01*
X-1225624Y-2901242D01*
X-1230621Y-2906239D01*
X-1457159Y-2679701D01*
X-2180041Y-2679701D01*
X-2273299Y-2772959D01*
X-2273299Y-4296959D01*
X-2717799Y-4741459D01*
X-2717799Y-5767077D01*
X-2755899Y-5805177D01*
X-2755899Y-5878823D01*
X-2703823Y-5930899D01*
X-2630177Y-5930899D01*
X-2578101Y-5878823D01*
X-2578101Y-5805177D01*
X-2616201Y-5767077D01*
X-2616201Y-5764521D01*
X-2576823Y-5803899D01*
X-2503177Y-5803899D01*
X-2451101Y-5751823D01*
X-2451101Y-5678177D01*
X-2503177Y-5626101D01*
X-2552702Y-5626101D01*
X-2552702Y-4847042D01*
X-2108201Y-4402541D01*
X-2108201Y-3652269D01*
X-1339558Y-4420912D01*
X-1339558Y-4630720D01*
X-1360177Y-4610101D01*
X-1433823Y-4610101D01*
X-1460458Y-4636736D01*
X-1615835Y-4636736D01*
X-1720558Y-4741459D01*
X-1720558Y-5016197D01*
X-1745960Y-5041599D01*
X-1745960Y-5040200D01*
X-1883959Y-4902201D01*
X-2024758Y-4902201D01*
X-2135300Y-5012742D01*
X-2225103Y-5012742D01*
X-2292058Y-5079697D01*
X-2292058Y-5174385D01*
X-2253371Y-5213072D01*
X-2345728Y-5305429D01*
X-2384415Y-5266742D01*
X-2479103Y-5266742D01*
X-2546058Y-5333697D01*
X-2546058Y-5428385D01*
X-2482558Y-5491885D01*
X-2482558Y-5531836D01*
X-2501899Y-5551177D01*
X-2501899Y-5624823D01*
X-2449823Y-5676899D01*
X-2376177Y-5676899D01*
X-2355557Y-5656279D01*
X-2355557Y-6138458D01*
X-2389300Y-6172201D01*
X-4712979Y-6172201D01*
X-4673601Y-6132823D01*
X-4673601Y-6059177D01*
X-4725677Y-6007101D01*
X-4799323Y-6007101D01*
X-4837423Y-6045201D01*
X-7471959Y-6045201D01*
X-7721601Y-5795559D01*
X-7721601Y-5741677D01*
X-7773677Y-5689601D01*
X-7847323Y-5689601D01*
X-7899399Y-5741677D01*
X-7899399Y-5815323D01*
X-7847323Y-5867399D01*
X-7793441Y-5867399D01*
X-7514041Y-6146799D01*
X-4837423Y-6146799D01*
X-4812021Y-6172201D01*
X-8678459Y-6172201D01*
X-8712201Y-6138459D01*
X-8712201Y-5583639D01*
X-8657041Y-5638799D01*
X-7320884Y-5638799D01*
X-7414858Y-5732773D01*
X-7414858Y-5909309D01*
X-7290027Y-6034140D01*
X-7113491Y-6034140D01*
X-6988660Y-5909309D01*
X-6988660Y-5837062D01*
X-6958323Y-5867399D01*
X-6884677Y-5867399D01*
X-6832601Y-5815323D01*
X-6832601Y-5741677D01*
X-6884677Y-5689601D01*
X-6938559Y-5689601D01*
X-7090959Y-5537201D01*
X-7148079Y-5537201D01*
X-7096218Y-5485340D01*
X-7006415Y-5485340D01*
X-6972299Y-5451224D01*
X-6972299Y-5482041D01*
X-6752041Y-5702299D01*
X-6018521Y-5702299D01*
X-6057899Y-5741677D01*
X-6057899Y-5815323D01*
X-6005823Y-5867399D01*
X-5932177Y-5867399D01*
X-5894077Y-5829299D01*
X-4423959Y-5829299D01*
X-4330701Y-5736041D01*
X-4330701Y-5461742D01*
X-4307103Y-5485340D01*
X-4212415Y-5485340D01*
X-4178299Y-5451224D01*
X-4178299Y-5672541D01*
X-4085041Y-5765799D01*
X-3186423Y-5765799D01*
X-3148323Y-5803899D01*
X-3074677Y-5803899D01*
X-3022601Y-5751823D01*
X-3022601Y-5678177D01*
X-3074677Y-5626101D01*
X-3148323Y-5626101D01*
X-3186423Y-5664201D01*
X-4042959Y-5664201D01*
X-4076701Y-5630459D01*
X-4076701Y-5461742D01*
X-4056558Y-5481885D01*
X-4056558Y-5545540D01*
X-4026800Y-5575298D01*
X-3915958Y-5575298D01*
X-3822701Y-5482041D01*
X-3822701Y-5461742D01*
X-3799103Y-5485340D01*
X-3704415Y-5485340D01*
X-3637460Y-5418385D01*
X-3637460Y-5328582D01*
X-3568701Y-5259823D01*
X-3568701Y-5207742D01*
X-3545103Y-5231340D01*
X-3450415Y-5231340D01*
X-3390899Y-5171824D01*
X-3390899Y-5180323D01*
X-3338823Y-5232399D01*
X-3265177Y-5232399D01*
X-3213101Y-5180323D01*
X-3213101Y-5126441D01*
X-3162299Y-5075639D01*
X-3162299Y-5286500D01*
X-3196041Y-5320242D01*
X-3386915Y-5320242D01*
X-3450415Y-5256742D01*
X-3545103Y-5256742D01*
X-3612058Y-5323697D01*
X-3612058Y-5418385D01*
X-3545103Y-5485340D01*
X-3450415Y-5485340D01*
X-3386915Y-5421840D01*
X-3153959Y-5421840D01*
X-3060701Y-5328582D01*
X-3060701Y-4085041D01*
X-3026959Y-4051299D01*
X-2709459Y-4051299D01*
X-2616201Y-3958041D01*
X-2616201Y-2731139D01*
X-2572461Y-2774879D01*
X-2577458Y-2779876D01*
X-2577458Y-2895606D01*
X-2495624Y-2977440D01*
X-2379894Y-2977440D01*
X-2298060Y-2895606D01*
X-2298060Y-2779876D01*
X-2367195Y-2710741D01*
X-2298060Y-2641606D01*
X-2298060Y-2525876D01*
X-2367195Y-2456741D01*
X-2298060Y-2387606D01*
X-2298060Y-2271876D01*
X-2367195Y-2202741D01*
X-2298060Y-2133606D01*
X-2298060Y-2126540D01*
X-423459Y-2126540D01*
X-330201Y-2033282D01*
X-330201Y-1700521D01*
X-290823Y-1739899D01*
X-2324101Y-4916177D02*
X-2324101Y-4989823D01*
X-2365718Y-5031440D01*
X-2317460Y-5079697D01*
X-2317460Y-5174385D01*
X-2384415Y-5241340D01*
X-2479103Y-5241340D01*
X-2546058Y-5174385D01*
X-2546058Y-5079697D01*
X-2482558Y-5016197D01*
X-2482558Y-5009164D01*
X-2501899Y-4989823D01*
X-2501899Y-4916177D01*
X-2449823Y-4864101D01*
X-2376177Y-4864101D01*
X-2324101Y-4916177D01*
X-2324101Y-4090677D02*
X-2324101Y-4164323D01*
X-2376177Y-4216399D01*
X-2449823Y-4216399D01*
X-2487923Y-4178299D01*
X-2836459Y-4178299D01*
X-2870201Y-4212041D01*
X-2870201Y-5005077D01*
X-2844799Y-5030479D01*
X-2844799Y-4423959D01*
X-2755899Y-4335059D01*
X-2755899Y-4281177D01*
X-2703823Y-4229101D01*
X-2630177Y-4229101D01*
X-2578101Y-4281177D01*
X-2578101Y-4354823D01*
X-2630177Y-4406899D01*
X-2684059Y-4406899D01*
X-2743201Y-4466041D01*
X-2743201Y-5418541D01*
X-2768601Y-5443941D01*
X-2768601Y-5497823D01*
X-2820677Y-5549899D01*
X-2894323Y-5549899D01*
X-2946399Y-5497823D01*
X-2946399Y-5424177D01*
X-2894323Y-5372101D01*
X-2844799Y-5372101D01*
X-2844799Y-5129521D01*
X-2884177Y-5168899D01*
X-2957823Y-5168899D01*
X-3009899Y-5116823D01*
X-3009899Y-5043177D01*
X-2971799Y-5005077D01*
X-2971799Y-4169959D01*
X-2878541Y-4076701D01*
X-2487923Y-4076701D01*
X-2449823Y-4038601D01*
X-2376177Y-4038601D01*
X-2324101Y-4090677D01*
X+5054601Y-2767323D02*
X+5098310Y-2811032D01*
X+5013103Y-2896239D01*
X+5008106Y-2891242D01*
X+4892376Y-2891242D01*
X+4823241Y-2960377D01*
X+4754106Y-2891242D01*
X+4638376Y-2891242D01*
X+4569241Y-2960377D01*
X+4500106Y-2891242D01*
X+4384376Y-2891242D01*
X+4315241Y-2960377D01*
X+4246106Y-2891242D01*
X+4130376Y-2891242D01*
X+4061241Y-2960377D01*
X+3992106Y-2891242D01*
X+3876376Y-2891242D01*
X+3807241Y-2960377D01*
X+3738106Y-2891242D01*
X+3622376Y-2891242D01*
X+3543298Y-2970320D01*
X+3543298Y-2878542D01*
X+3577041Y-2844799D01*
X+4974041Y-2844799D01*
X+5054601Y-2764239D01*
X+5054601Y-2767323D01*
X+66321Y+6385920D02*
X+51443Y+6371042D01*
X+51443Y+6350000D01*
X+51442Y-2901242D01*
X+44376Y-2901242D01*
X-24759Y-2970377D01*
X-93894Y-2901242D01*
X-100960Y-2901242D01*
X-100960Y+1816101D01*
X-90177Y+1816101D01*
X-38101Y+1868177D01*
X-38101Y+1941823D01*
X-90177Y+1993899D01*
X-163823Y+1993899D01*
X-203201Y+1954521D01*
X-203201Y+5957577D01*
X-165101Y+5995677D01*
X-165101Y+6069323D01*
X-217177Y+6121399D01*
X-290823Y+6121399D01*
X-342899Y+6069323D01*
X-342899Y+5995677D01*
X-304799Y+5957577D01*
X-304799Y+5637521D01*
X-344177Y+5676899D01*
X-417823Y+5676899D01*
X-469899Y+5624823D01*
X-469899Y+5551177D01*
X-431799Y+5513077D01*
X-431799Y+1446521D01*
X-471177Y+1485899D01*
X-544823Y+1485899D01*
X-596899Y+1433823D01*
X-596899Y+1360177D01*
X-558799Y+1322077D01*
X-558798Y-1883958D01*
X-592541Y-1917701D01*
X-1195077Y-1917701D01*
X-1233177Y-1879601D01*
X-1306823Y-1879601D01*
X-1358899Y-1931677D01*
X-1358899Y-2005323D01*
X-1339280Y-2024942D01*
X-2298060Y-2024942D01*
X-2298060Y-2017876D01*
X-2367195Y-1948741D01*
X-2298060Y-1879606D01*
X-2298060Y-1872540D01*
X-740959Y-1872540D01*
X-647701Y-1779282D01*
X-647701Y+6053541D01*
X-740959Y+6146799D01*
X-910041Y+6146799D01*
X-1697441Y+5359399D01*
X-1751323Y+5359399D01*
X-1803399Y+5307323D01*
X-1803399Y+5233677D01*
X-1751323Y+5181601D01*
X-1677677Y+5181601D01*
X-1625601Y+5233677D01*
X-1625601Y+5287559D01*
X-1485899Y+5427261D01*
X-1485899Y+5424177D01*
X-1447799Y+5386077D01*
X-1447799Y+522759D01*
X-2298060Y-327502D01*
X-2298060Y-227176D01*
X-2303057Y-222179D01*
X-1536701Y+544177D01*
X-1536701Y+4941577D01*
X-1498601Y+4979677D01*
X-1498601Y+5053323D01*
X-1550677Y+5105399D01*
X-1624323Y+5105399D01*
X-1676399Y+5053323D01*
X-1676399Y+4979677D01*
X-1638299Y+4941577D01*
X-1638299Y+586259D01*
X-2298060Y-73502D01*
X-2298060Y+26824D01*
X-2367195Y+95959D01*
X-2298060Y+165094D01*
X-2298060Y+280824D01*
X-2303057Y+285821D01*
X-1790701Y+798177D01*
X-1790701Y+4052577D01*
X-1752601Y+4090677D01*
X-1752601Y+4164323D01*
X-1804677Y+4216399D01*
X-1878323Y+4216399D01*
X-1917701Y+4177021D01*
X-1917701Y+4687577D01*
X-1879601Y+4725677D01*
X-1879601Y+4799323D01*
X-1931677Y+4851399D01*
X-2005323Y+4851399D01*
X-2044701Y+4812021D01*
X-2044701Y+4814577D01*
X-2006601Y+4852677D01*
X-2006601Y+4926323D01*
X-2058677Y+4978399D01*
X-2132323Y+4978399D01*
X-2171701Y+4939021D01*
X-2171701Y+5068577D01*
X-2133601Y+5106677D01*
X-2133601Y+5180323D01*
X-2185677Y+5232399D01*
X-2259323Y+5232399D01*
X-2311399Y+5180323D01*
X-2311399Y+5106677D01*
X-2273299Y+5068577D01*
X-2273299Y+3923021D01*
X-2312677Y+3962399D01*
X-2386323Y+3962399D01*
X-2438399Y+3910323D01*
X-2438399Y+3836677D01*
X-2386323Y+3784601D01*
X-2336799Y+3784601D01*
X-2336799Y+3608863D01*
X-2379894Y+3651958D01*
X-2495624Y+3651958D01*
X-2577458Y+3570124D01*
X-2577458Y+3454394D01*
X-2508323Y+3385259D01*
X-2577458Y+3316124D01*
X-2577458Y+3200394D01*
X-2508323Y+3131259D01*
X-2577458Y+3062124D01*
X-2577458Y+2946394D01*
X-2508323Y+2877259D01*
X-2577458Y+2808124D01*
X-2577458Y+2692394D01*
X-2508323Y+2623259D01*
X-2577458Y+2554124D01*
X-2577458Y+2438394D01*
X-2508323Y+2369259D01*
X-2577458Y+2300124D01*
X-2577458Y+2184394D01*
X-2508323Y+2115259D01*
X-2577458Y+2046124D01*
X-2577458Y+1930394D01*
X-2508323Y+1861259D01*
X-2577458Y+1792124D01*
X-2577458Y+1676394D01*
X-2495624Y+1594560D01*
X-2414280Y+1594560D01*
X-2616201Y+1392639D01*
X-2616201Y+1998241D01*
X-2947057Y+2329097D01*
X-2942060Y+2334094D01*
X-2942060Y+2449824D01*
X-3011195Y+2518959D01*
X-2942060Y+2588094D01*
X-2942060Y+2703824D01*
X-3011195Y+2772959D01*
X-2942060Y+2842094D01*
X-2942060Y+2957824D01*
X-3011195Y+3026959D01*
X-2942060Y+3096094D01*
X-2942060Y+3211824D01*
X-3011195Y+3280959D01*
X-2942060Y+3350094D01*
X-2942060Y+3465824D01*
X-3011195Y+3534959D01*
X-2942060Y+3604094D01*
X-2942060Y+3719824D01*
X-3011195Y+3788959D01*
X-2942060Y+3858094D01*
X-2942060Y+3973824D01*
X-3015695Y+4047459D01*
X-2942060Y+4121094D01*
X-2942060Y+4236824D01*
X-3013045Y+4307809D01*
X-2942060Y+4378794D01*
X-2942060Y+4494524D01*
X-3023894Y+4576358D01*
X-3139624Y+4576358D01*
X-3221458Y+4494524D01*
X-3221458Y+4378794D01*
X-3150473Y+4307809D01*
X-3221458Y+4236824D01*
X-3221458Y+4121094D01*
X-3147823Y+4047459D01*
X-3221458Y+3973824D01*
X-3221458Y+3858094D01*
X-3152323Y+3788959D01*
X-3221458Y+3719824D01*
X-3221458Y+3604094D01*
X-3152323Y+3534959D01*
X-3221458Y+3465824D01*
X-3221458Y+3350094D01*
X-3152323Y+3280959D01*
X-3221458Y+3211824D01*
X-3221458Y+3204758D01*
X-5609418Y+3204758D01*
X-5664201Y+3259541D01*
X-5664201Y+4966558D01*
X-5633344Y+4935701D01*
X-5538656Y+4935701D01*
X-5511799Y+4962558D01*
X-5511799Y+4710423D01*
X-5549899Y+4672323D01*
X-5549899Y+4598677D01*
X-5497823Y+4546601D01*
X-5424177Y+4546601D01*
X-5372101Y+4598677D01*
X-5372101Y+4672323D01*
X-5410201Y+4710423D01*
X-5410201Y+4966558D01*
X-5379344Y+4935701D01*
X-5284656Y+4935701D01*
X-5217701Y+5002656D01*
X-5217701Y+5097344D01*
X-5284656Y+5164299D01*
X-5379344Y+5164299D01*
X-5410201Y+5133442D01*
X-5410201Y+5220558D01*
X-5379344Y+5189701D01*
X-5284656Y+5189701D01*
X-5217701Y+5256656D01*
X-5217701Y+5351344D01*
X-5284656Y+5418299D01*
X-5379344Y+5418299D01*
X-5410201Y+5387442D01*
X-5410201Y+6244041D01*
X-5503458Y+6337298D01*
X-8911042Y+6337298D01*
X-9004299Y+6244041D01*
X-9004299Y-6371041D01*
X-8921858Y-6453482D01*
X-9106001Y-6453482D01*
X-9106001Y+6450000D01*
X+130401Y+6450000D01*
X+66321Y+6385920D01*
X-5125344Y+5164299D02*
X-5030656Y+5164299D01*
X-4963701Y+5097344D01*
X-4963701Y+5002656D01*
X-5030656Y+4935701D01*
X-5125344Y+4935701D01*
X-5192299Y+5002656D01*
X-5192299Y+5097344D01*
X-5125344Y+5164299D01*
X-5125344Y+5418299D02*
X-5030656Y+5418299D01*
X-4963701Y+5351344D01*
X-4963701Y+5256656D01*
X-5030656Y+5189701D01*
X-5125344Y+5189701D01*
X-5192299Y+5256656D01*
X-5192299Y+5351344D01*
X-5125344Y+5418299D01*
X-4871344Y+5164299D02*
X-4776656Y+5164299D01*
X-4709701Y+5097344D01*
X-4709701Y+5002656D01*
X-4776656Y+4935701D01*
X-4871344Y+4935701D01*
X-4938299Y+5002656D01*
X-4938299Y+5097344D01*
X-4871344Y+5164299D01*
X-4871344Y+5418299D02*
X-4776656Y+5418299D01*
X-4709701Y+5351344D01*
X-4709701Y+5256656D01*
X-4776656Y+5189701D01*
X-4871344Y+5189701D01*
X-4938299Y+5256656D01*
X-4938299Y+5351344D01*
X-4871344Y+5418299D01*
X-4617344Y+5164299D02*
X-4522656Y+5164299D01*
X-4455701Y+5097344D01*
X-4455701Y+5002656D01*
X-4522656Y+4935701D01*
X-4617344Y+4935701D01*
X-4684299Y+5002656D01*
X-4684299Y+5097344D01*
X-4617344Y+5164299D01*
X-4617344Y+5418299D02*
X-4522656Y+5418299D01*
X-4455701Y+5351344D01*
X-4455701Y+5256656D01*
X-4522656Y+5189701D01*
X-4617344Y+5189701D01*
X-4684299Y+5256656D01*
X-4684299Y+5351344D01*
X-4617344Y+5418299D01*
X-4363344Y+5164299D02*
X-4268656Y+5164299D01*
X-4201701Y+5097344D01*
X-4201701Y+5002656D01*
X-4268656Y+4935701D01*
X-4363344Y+4935701D01*
X-4430299Y+5002656D01*
X-4430299Y+5097344D01*
X-4363344Y+5164299D01*
X-4363344Y+5418299D02*
X-4268656Y+5418299D01*
X-4201701Y+5351344D01*
X-4201701Y+5256656D01*
X-4268656Y+5189701D01*
X-4363344Y+5189701D01*
X-4430299Y+5256656D01*
X-4430299Y+5351344D01*
X-4363344Y+5418299D01*
X-4109344Y+5164299D02*
X-4014656Y+5164299D01*
X-3947701Y+5097344D01*
X-3947701Y+5002656D01*
X-4014656Y+4935701D01*
X-4109344Y+4935701D01*
X-4176299Y+5002656D01*
X-4176299Y+5097344D01*
X-4109344Y+5164299D01*
X-4109344Y+5418299D02*
X-4014656Y+5418299D01*
X-3947701Y+5351344D01*
X-3947701Y+5256656D01*
X-4014656Y+5189701D01*
X-4109344Y+5189701D01*
X-4176299Y+5256656D01*
X-4176299Y+5351344D01*
X-4109344Y+5418299D01*
X-3855344Y+5164299D02*
X-3760656Y+5164299D01*
X-3693701Y+5097344D01*
X-3693701Y+5002656D01*
X-3760656Y+4935701D01*
X-3855344Y+4935701D01*
X-3922299Y+5002656D01*
X-3922299Y+5097344D01*
X-3855344Y+5164299D01*
X-3855344Y+5418299D02*
X-3760656Y+5418299D01*
X-3693701Y+5351344D01*
X-3693701Y+5256656D01*
X-3760656Y+5189701D01*
X-3855344Y+5189701D01*
X-3922299Y+5256656D01*
X-3922299Y+5351344D01*
X-3855344Y+5418299D01*
X-3601344Y+5164299D02*
X-3506656Y+5164299D01*
X-3439701Y+5097344D01*
X-3439701Y+5002656D01*
X-3506656Y+4935701D01*
X-3601344Y+4935701D01*
X-3668299Y+5002656D01*
X-3668299Y+5097344D01*
X-3601344Y+5164299D01*
X-3601344Y+5418299D02*
X-3506656Y+5418299D01*
X-3439701Y+5351344D01*
X-3439701Y+5256656D01*
X-3506656Y+5189701D01*
X-3601344Y+5189701D01*
X-3668299Y+5256656D01*
X-3668299Y+5351344D01*
X-3601344Y+5418299D01*
X-31750Y+1510849D02*
X-31750Y+1537151D01*
X-13151Y+1555750D01*
X+13151Y+1555750D01*
X+31750Y+1537151D01*
X+31750Y+1510849D01*
X+13151Y+1492250D01*
X-13151Y+1492250D01*
X-31750Y+1510849D01*
X-31750Y-2870651D02*
X-31750Y-2844349D01*
X-13151Y-2825750D01*
X+13151Y-2825750D01*
X+31750Y-2844349D01*
X+31750Y-2870651D01*
X+13151Y-2889250D01*
X-13151Y-2889250D01*
X-31750Y-2870651D01*
X-971624Y-3434640D02*
X-964558Y-3434640D01*
X-964558Y-4648836D01*
X-965201Y-4649479D01*
X-965201Y-4042959D01*
X-1058459Y-3949701D01*
X-1164041Y-3949701D01*
X-1252941Y-4038601D01*
X-1306823Y-4038601D01*
X-1358899Y-4090677D01*
X-1358899Y-4164323D01*
X-1306823Y-4216399D01*
X-1233177Y-4216399D01*
X-1206500Y-4189722D01*
X-1193799Y-4202423D01*
X-1193799Y-4910541D01*
X-1092053Y-5012287D01*
X-1092053Y-5035104D01*
X-1114415Y-5012742D01*
X-1209103Y-5012742D01*
X-1237960Y-5041599D01*
X-1237960Y-4378830D01*
X-2044701Y-3572089D01*
X-2044701Y-3377563D01*
X-1987624Y-3434640D01*
X-1871894Y-3434640D01*
X-1802759Y-3365505D01*
X-1733624Y-3434640D01*
X-1617894Y-3434640D01*
X-1548759Y-3365505D01*
X-1479624Y-3434640D01*
X-1472558Y-3434640D01*
X-1472558Y-3950336D01*
X-1485899Y-3963677D01*
X-1485899Y-4037323D01*
X-1433823Y-4089399D01*
X-1360177Y-4089399D01*
X-1308101Y-4037323D01*
X-1308101Y-3963677D01*
X-1360177Y-3911601D01*
X-1370960Y-3911601D01*
X-1370960Y-3434640D01*
X-1363894Y-3434640D01*
X-1294759Y-3365505D01*
X-1225624Y-3434640D01*
X-1109894Y-3434640D01*
X-1040759Y-3365505D01*
X-971624Y-3434640D01*
X+3622376Y-3424640D02*
X+3738106Y-3424640D01*
X+3807241Y-3355505D01*
X+3876376Y-3424640D01*
X+3886201Y-3424640D01*
X+3886201Y-3481077D01*
X+3848101Y-3519177D01*
X+3848101Y-3592823D01*
X+3887479Y-3632201D01*
X+3852459Y-3632201D01*
X+3759202Y-3725458D01*
X+3759202Y-3746500D01*
X+3759201Y-4497077D01*
X+3733799Y-4522479D01*
X+3733799Y-3630923D01*
X+3771899Y-3592823D01*
X+3771899Y-3519177D01*
X+3719823Y-3467101D01*
X+3646177Y-3467101D01*
X+3594101Y-3519177D01*
X+3594101Y-3592823D01*
X+3632201Y-3630923D01*
X+3632201Y-4670829D01*
X+3352798Y-4950232D01*
X+3352798Y-4656542D01*
X+3386541Y-4622799D01*
X+3450041Y-4622799D01*
X+3543298Y-4529542D01*
X+3543298Y-3345562D01*
X+3622376Y-3424640D01*
X+3397250Y-4712151D02*
X+3397250Y-4685849D01*
X+3415849Y-4667250D01*
X+3442151Y-4667250D01*
X+3460750Y-4685849D01*
X+3460750Y-4712151D01*
X+3442151Y-4730750D01*
X+3415849Y-4730750D01*
X+3397250Y-4712151D01*
X+2743201Y-4614459D02*
X+2620559Y-4737101D01*
X+2566677Y-4737101D01*
X+2540000Y-4763778D01*
X+2513323Y-4737101D01*
X+2439677Y-4737101D01*
X+2387601Y-4789177D01*
X+2387601Y-4862823D01*
X+2439677Y-4914899D01*
X+2493559Y-4914899D01*
X+2616201Y-5037541D01*
X+2616201Y-5157479D01*
X+2576823Y-5118101D01*
X+2508540Y-5118101D01*
X+2508540Y-5079697D01*
X+2441585Y-5012742D01*
X+2346897Y-5012742D01*
X+2318039Y-5041600D01*
X+2318039Y-4802301D01*
X+2743201Y-4377139D01*
X+2743201Y-4614459D01*
X+2444750Y-4712151D02*
X+2444750Y-4685849D01*
X+2463349Y-4667250D01*
X+2489651Y-4667250D01*
X+2508250Y-4685849D01*
X+2508250Y-4712151D01*
X+2489651Y-4730750D01*
X+2463349Y-4730750D01*
X+2444750Y-4712151D01*
X-6441624Y-3424640D02*
X-6434558Y-3424640D01*
X-6434558Y-3606782D01*
X-6311899Y-3729441D01*
X-6311899Y-3783323D01*
X-6259823Y-3835399D01*
X-6186177Y-3835399D01*
X-6134101Y-3783323D01*
X-6134101Y-3750498D01*
X-5956299Y-3928300D01*
X-5956299Y-4331979D01*
X-5995677Y-4292601D01*
X-6069323Y-4292601D01*
X-6121399Y-4344677D01*
X-6121399Y-4418323D01*
X-6088558Y-4451164D01*
X-6088558Y-5006197D01*
X-6108701Y-5026340D01*
X-6108701Y-4995459D01*
X-6201959Y-4902201D01*
X-6402759Y-4902201D01*
X-6503300Y-5002742D01*
X-6593103Y-5002742D01*
X-6633010Y-5042650D01*
X-6870701Y-4804959D01*
X-6870701Y-3821423D01*
X-6832601Y-3783323D01*
X-6832601Y-3709677D01*
X-6884677Y-3657601D01*
X-6958323Y-3657601D01*
X-7010399Y-3709677D01*
X-7010399Y-3783323D01*
X-6972299Y-3821423D01*
X-6972299Y-4847041D01*
X-6816598Y-5002742D01*
X-6847103Y-5002742D01*
X-6914058Y-5069697D01*
X-6914058Y-5164385D01*
X-6847103Y-5231340D01*
X-6752415Y-5231340D01*
X-6718299Y-5197224D01*
X-6718299Y-5290858D01*
X-6752415Y-5256742D01*
X-6847103Y-5256742D01*
X-6870701Y-5280340D01*
X-6870701Y-5228259D01*
X-6939460Y-5159500D01*
X-6939460Y-5069697D01*
X-7006415Y-5002742D01*
X-7101103Y-5002742D01*
X-7124701Y-5026340D01*
X-7124701Y-4974041D01*
X-6997701Y-4847041D01*
X-6997701Y-4296959D01*
X-7505701Y-3788959D01*
X-7505701Y-3376563D01*
X-7457624Y-3424640D01*
X-7341894Y-3424640D01*
X-7272759Y-3355505D01*
X-7203624Y-3424640D01*
X-7087894Y-3424640D01*
X-7082897Y-3419643D01*
X-6781799Y-3720741D01*
X-6781799Y-4370077D01*
X-6819899Y-4408177D01*
X-6819899Y-4481823D01*
X-6767823Y-4533899D01*
X-6694177Y-4533899D01*
X-6688558Y-4528280D01*
X-6688558Y-4749782D01*
X-6629399Y-4808941D01*
X-6629399Y-4862823D01*
X-6577323Y-4914899D01*
X-6503677Y-4914899D01*
X-6451601Y-4862823D01*
X-6451601Y-4789177D01*
X-6503677Y-4737101D01*
X-6557559Y-4737101D01*
X-6586960Y-4707700D01*
X-6586960Y-3424640D01*
X-6579894Y-3424640D01*
X-6510759Y-3355505D01*
X-6441624Y-3424640D01*
X-7461250Y-3632651D02*
X-7461250Y-3606349D01*
X-7442651Y-3587750D01*
X-7416349Y-3587750D01*
X-7397750Y-3606349D01*
X-7397750Y-3632651D01*
X-7416349Y-3651250D01*
X-7442651Y-3651250D01*
X-7461250Y-3632651D01*
X-2908299Y-3598459D02*
X-2942041Y-3632201D01*
X-3323041Y-3632201D01*
X-3416299Y-3725459D01*
X-3416299Y-4116077D01*
X-3454399Y-4154177D01*
X-3454399Y-4227823D01*
X-3402323Y-4279899D01*
X-3328677Y-4279899D01*
X-3289299Y-4240521D01*
X-3289299Y-4737101D01*
X-3338823Y-4737101D01*
X-3390899Y-4789177D01*
X-3390899Y-4862823D01*
X-3338823Y-4914899D01*
X-3265177Y-4914899D01*
X-3225799Y-4875521D01*
X-3225799Y-4995459D01*
X-3284941Y-5054601D01*
X-3338823Y-5054601D01*
X-3383460Y-5099238D01*
X-3383460Y-5069697D01*
X-3450415Y-5002742D01*
X-3545103Y-5002742D01*
X-3568701Y-5026340D01*
X-3568701Y-3640541D01*
X-3534959Y-3606799D01*
X-2963459Y-3606799D01*
X-2908299Y-3551639D01*
X-2908299Y-3598459D01*
X-3524250Y-3696151D02*
X-3524250Y-3669849D01*
X-3505651Y-3651250D01*
X-3479349Y-3651250D01*
X-3460750Y-3669849D01*
X-3460750Y-3696151D01*
X-3479349Y-3714750D01*
X-3505651Y-3714750D01*
X-3524250Y-3696151D01*
X+2346897Y-5241340D02*
X+2441585Y-5241340D01*
X+2451101Y-5231824D01*
X+2451101Y-5243823D01*
X+2489201Y-5281923D01*
X+2489201Y-5314358D01*
X+2441585Y-5266742D01*
X+2346897Y-5266742D01*
X+2318039Y-5295600D01*
X+2318039Y-5212482D01*
X+2346897Y-5241340D01*
X+2394241Y-5012742D02*
X+2394241Y-5127041D01*
X+2394241Y-5241340D02*
X+2394241Y-5127041D01*
X-3497759Y-5231340D02*
X-3497759Y-5117041D01*
X-3497759Y-5002742D02*
X-3497759Y-5117041D01*
X+3032542Y+1998259D02*
X+3172241Y+1998259D01*
X+3680241Y-3424640D02*
X+3680241Y-3284941D01*
X+3680241Y-2891242D02*
X+3680241Y-3030941D01*
X+7858542Y+3661959D02*
X+7998241Y+3661959D01*
X+8137940Y+3661959D02*
X+7998241Y+3661959D01*
X+3032542Y+2252259D02*
X+3172241Y+2252259D01*
X-2577458Y+1988259D02*
X-2437759Y+1988259D01*
X-1929759Y-3434640D02*
X-1929759Y-3294941D01*
X+2248542Y+3651959D02*
X+2388241Y+3651959D01*
X+2527940Y+3651959D02*
X+2388241Y+3651959D01*
X-2577458Y+2242259D02*
X-2437759Y+2242259D01*
X-7399759Y-3424640D02*
X-7399759Y-3284941D01*
X-3221458Y+3661959D02*
X-3081759Y+3661959D01*
X-2942060Y+3661959D02*
X-3081759Y+3661959D01*
X-3554000Y+5164299D02*
X-3554000Y+5050000D01*
X-3554000Y+4935701D02*
X-3554000Y+5050000D01*
X-3668299Y+5050000D02*
X-3554000Y+5050000D01*
X-3439701Y+5050000D02*
X-3554000Y+5050000D01*
D12*
X+3478241Y-5124141D03*
X+3478241Y-5378141D03*
X+3732241Y-5124141D03*
X+3732241Y-5378141D03*
X+3986241Y-5124141D03*
X+3986241Y-5378141D03*
X+4240241Y-5124141D03*
X+4240241Y-5378141D03*
X+4494241Y-5124141D03*
X+4494241Y-5378141D03*
X+4748241Y-5124141D03*
X+4748241Y-5378141D03*
X+5002241Y-5124141D03*
X+5002241Y-5378141D03*
X+5256241Y-5124141D03*
X+5256241Y-5378141D03*
X+5510241Y-5124141D03*
X+5510241Y-5378141D03*
X+5764241Y-5124141D03*
X+5764241Y-5378141D03*
X+6018241Y-5124141D03*
X+6018241Y-5378141D03*
X+6272241Y-5124141D03*
X+6272241Y-5378141D03*
X+6526241Y-5124141D03*
X+6526241Y-5378141D03*
X+6780241Y-5124141D03*
X+6780241Y-5378141D03*
X+7034241Y-5124141D03*
X+7034241Y-5378141D03*
X+7288241Y-5124141D03*
X+7288241Y-5378141D03*
X+7542241Y-5124141D03*
X+7542241Y-5378141D03*
X+7796241Y-5124141D03*
X+7796241Y-5378141D03*
X+8050241Y-5124141D03*
X+8050241Y-5378141D03*
X+8304241Y-5124141D03*
X+8304241Y-5378141D03*
X-2431759Y-5127041D03*
X-2431759Y-5381041D03*
X-2177759Y-5127041D03*
X-2177759Y-5381041D03*
X-1923759Y-5127041D03*
X-1923759Y-5381041D03*
X-1669759Y-5127041D03*
X-1669759Y-5381041D03*
X-1415759Y-5127041D03*
X-1415759Y-5381041D03*
X-1161759Y-5127041D03*
X-1161759Y-5381041D03*
X-907759Y-5127041D03*
X-907759Y-5381041D03*
X-653759Y-5127041D03*
X-653759Y-5381041D03*
X-399759Y-5127041D03*
X-399759Y-5381041D03*
X-145759Y-5127041D03*
X-145759Y-5381041D03*
X+108241Y-5127041D03*
X+108241Y-5381041D03*
X+362241Y-5127041D03*
X+362241Y-5381041D03*
X+616241Y-5127041D03*
X+616241Y-5381041D03*
X+870241Y-5127041D03*
X+870241Y-5381041D03*
X+1124241Y-5127041D03*
X+1124241Y-5381041D03*
X+1378241Y-5127041D03*
X+1378241Y-5381041D03*
X+1632241Y-5127041D03*
X+1632241Y-5381041D03*
X+1886241Y-5127041D03*
X+1886241Y-5381041D03*
X+2140241Y-5127041D03*
X+2140241Y-5381041D03*
X+2394241Y-5127041D03*
X+2394241Y-5381041D03*
X-8323759Y-5117041D03*
X-8323759Y-5371041D03*
X-8069759Y-5117041D03*
X-8069759Y-5371041D03*
X-7815759Y-5117041D03*
X-7815759Y-5371041D03*
X-7561759Y-5117041D03*
X-7561759Y-5371041D03*
X-7307759Y-5117041D03*
X-7307759Y-5371041D03*
X-7053759Y-5117041D03*
X-7053759Y-5371041D03*
X-6799759Y-5117041D03*
X-6799759Y-5371041D03*
X-6545759Y-5117041D03*
X-6545759Y-5371041D03*
X-6291759Y-5117041D03*
X-6291759Y-5371041D03*
X-6037759Y-5117041D03*
X-6037759Y-5371041D03*
X-5783759Y-5117041D03*
X-5783759Y-5371041D03*
X-5529759Y-5117041D03*
X-5529759Y-5371041D03*
X-5275759Y-5117041D03*
X-5275759Y-5371041D03*
X-5021759Y-5117041D03*
X-5021759Y-5371041D03*
X-4767759Y-5117041D03*
X-4767759Y-5371041D03*
X-4513759Y-5117041D03*
X-4513759Y-5371041D03*
X-4259759Y-5117041D03*
X-4259759Y-5371041D03*
X-4005759Y-5117041D03*
X-4005759Y-5371041D03*
X-3751759Y-5117041D03*
X-3751759Y-5371041D03*
X-3497759Y-5117041D03*
X-3497759Y-5371041D03*
D13*
X+7998241Y-21041D03*
X+7998241Y+232959D03*
X+7998241Y+486959D03*
X+7998241Y+740959D03*
X+3172241Y+2760259D03*
X+7998241Y+994959D03*
X+7998241Y+1248959D03*
X+7998241Y+1502959D03*
X+7998241Y+1756959D03*
X+7998241Y+2137959D03*
X+7998241Y+2391959D03*
X+7998241Y+2645959D03*
X+7998241Y+2899959D03*
X+7998241Y+3153959D03*
X+7998241Y+3407959D03*
X+7998241Y-541741D03*
X+7998241Y-795741D03*
X+7998241Y-1049741D03*
X+7998241Y-1303741D03*
X+7998241Y-1557741D03*
X+7998241Y-1811741D03*
X+7998241Y-2065741D03*
X+7998241Y-2319741D03*
X+7744241Y-3030941D03*
X+7744241Y-3284941D03*
X+7490241Y-3030941D03*
X+7490241Y-3284941D03*
X+7236241Y-3030941D03*
X+7236241Y-3284941D03*
X+6982241Y-3030941D03*
X+6982241Y-3284941D03*
X+6728241Y-3030941D03*
X+6728241Y-3284941D03*
X+6474241Y-3030941D03*
X+6474241Y-3284941D03*
X+6220241Y-3030941D03*
X+6220241Y-3284941D03*
X+5966241Y-3030941D03*
X+5966241Y-3284941D03*
X+5712241Y-3030941D03*
X+5712241Y-3284941D03*
X+5458241Y-3030941D03*
X+5458241Y-3284941D03*
X+5204241Y-3030941D03*
X+5204241Y-3284941D03*
X+4950241Y-3030941D03*
X+4950241Y-3284941D03*
X+4696241Y-3030941D03*
X+4696241Y-3284941D03*
X+4442241Y-3030941D03*
X+4442241Y-3284941D03*
X+4188241Y-3030941D03*
X+4188241Y-3284941D03*
X+3934241Y-3030941D03*
X+3934241Y-3284941D03*
X+3172241Y+3014259D03*
X+3172241Y+2506259D03*
X+7998241Y-3030941D03*
X+7998241Y-3284941D03*
X+3172241Y+1998259D03*
X+3680241Y-3284941D03*
X+3680241Y-3030941D03*
X+7998241Y+3661959D03*
X+3172241Y+2252259D03*
X+7998241Y+4436659D03*
X+3172241Y+3522259D03*
X+3172241Y+3268259D03*
X+7998241Y+4178959D03*
X+7998241Y+3915959D03*
X+3172241Y+1248959D03*
X+3172241Y+994959D03*
X+3172241Y+740959D03*
X+3172241Y+486959D03*
X+3172241Y+232959D03*
X+3172241Y-21041D03*
X+3172241Y-275041D03*
X+3172241Y-529041D03*
X+3172241Y-1049741D03*
X+3172241Y-1303741D03*
X+3172241Y-1557741D03*
X+3172241Y-1811741D03*
X+3172241Y-2065741D03*
X+3172241Y-2319741D03*
X+3172241Y-2573741D03*
X+3172241Y-2827741D03*
X+3172241Y+1744259D03*
X+2388241Y-31041D03*
X+2388241Y+222959D03*
X+2388241Y+476959D03*
X+2388241Y+730959D03*
X-2437759Y+2750259D03*
X+2388241Y+984959D03*
X+2388241Y+1238959D03*
X+2388241Y+1492959D03*
X+2388241Y+1746959D03*
X+2388241Y+2127959D03*
X+2388241Y+2381959D03*
X+2388241Y+2635959D03*
X+2388241Y+2889959D03*
X+2388241Y+3143959D03*
X+2388241Y+3397959D03*
X+2388241Y-551741D03*
X+2388241Y-805741D03*
X+2388241Y-1059741D03*
X+2388241Y-1313741D03*
X+2388241Y-1567741D03*
X+2388241Y-1821741D03*
X+2388241Y-2075741D03*
X+2388241Y-2329741D03*
X+2134241Y-3040941D03*
X+2134241Y-3294941D03*
X+1880241Y-3040941D03*
X+1880241Y-3294941D03*
X+1626241Y-3040941D03*
X+1626241Y-3294941D03*
X+1372241Y-3040941D03*
X+1372241Y-3294941D03*
X+1118241Y-3040941D03*
X+1118241Y-3294941D03*
X+864241Y-3040941D03*
X+864241Y-3294941D03*
X+610241Y-3040941D03*
X+610241Y-3294941D03*
X+356241Y-3040941D03*
X+356241Y-3294941D03*
X+102241Y-3040941D03*
X+102241Y-3294941D03*
X-151759Y-3040941D03*
X-151759Y-3294941D03*
X-405759Y-3040941D03*
X-405759Y-3294941D03*
X-659759Y-3040941D03*
X-659759Y-3294941D03*
X-913759Y-3040941D03*
X-913759Y-3294941D03*
X-1167759Y-3040941D03*
X-1167759Y-3294941D03*
X-1421759Y-3040941D03*
X-1421759Y-3294941D03*
X-1675759Y-3040941D03*
X-1675759Y-3294941D03*
X-2437759Y+3004259D03*
X-2437759Y+2496259D03*
X+2388241Y-3040941D03*
X+2388241Y-3294941D03*
X-2437759Y+1988259D03*
X-1929759Y-3294941D03*
X-1929759Y-3040941D03*
X+2388241Y+3651959D03*
X-2437759Y+2242259D03*
X+2388241Y+4426659D03*
X-2437759Y+3512259D03*
X-2437759Y+3258259D03*
X+2388241Y+4168959D03*
X+2388241Y+3905959D03*
X-2437759Y+1238959D03*
X-2437759Y+984959D03*
X-2437759Y+730959D03*
X-2437759Y+476959D03*
X-2437759Y+222959D03*
X-2437759Y-31041D03*
X-2437759Y-285041D03*
X-2437759Y-539041D03*
X-2437759Y-1059741D03*
X-2437759Y-1313741D03*
X-2437759Y-1567741D03*
X-2437759Y-1821741D03*
X-2437759Y-2075741D03*
X-2437759Y-2329741D03*
X-2437759Y-2583741D03*
X-2437759Y-2837741D03*
X-2437759Y+1734259D03*
X-3081759Y-21041D03*
X-3081759Y+232959D03*
X-3081759Y+486959D03*
X-3081759Y+740959D03*
X-7907759Y+2760259D03*
X-3081759Y+994959D03*
X-3081759Y+1248959D03*
X-3081759Y+1502959D03*
X-3081759Y+1756959D03*
X-3081759Y+2137959D03*
X-3081759Y+2391959D03*
X-3081759Y+2645959D03*
X-3081759Y+2899959D03*
X-3081759Y+3153959D03*
X-3081759Y+3407959D03*
X-3081759Y-541741D03*
X-3081759Y-795741D03*
X-3081759Y-1049741D03*
X-3081759Y-1303741D03*
X-3081759Y-1557741D03*
X-3081759Y-1811741D03*
X-3081759Y-2065741D03*
X-3081759Y-2319741D03*
X-3335759Y-3030941D03*
X-3335759Y-3284941D03*
X-3589759Y-3030941D03*
X-3589759Y-3284941D03*
X-3843759Y-3030941D03*
X-3843759Y-3284941D03*
X-4097759Y-3030941D03*
X-4097759Y-3284941D03*
X-4351759Y-3030941D03*
X-4351759Y-3284941D03*
X-4605759Y-3030941D03*
X-4605759Y-3284941D03*
X-4859759Y-3030941D03*
X-4859759Y-3284941D03*
X-5113759Y-3030941D03*
X-5113759Y-3284941D03*
X-5367759Y-3030941D03*
X-5367759Y-3284941D03*
X-5621759Y-3030941D03*
X-5621759Y-3284941D03*
X-5875759Y-3030941D03*
X-5875759Y-3284941D03*
X-6129759Y-3030941D03*
X-6129759Y-3284941D03*
X-6383759Y-3030941D03*
X-6383759Y-3284941D03*
X-6637759Y-3030941D03*
X-6637759Y-3284941D03*
X-6891759Y-3030941D03*
X-6891759Y-3284941D03*
X-7145759Y-3030941D03*
X-7145759Y-3284941D03*
X-7907759Y+3014259D03*
X-7907759Y+2506259D03*
X-3081759Y-3030941D03*
X-3081759Y-3284941D03*
X-7907759Y+1998259D03*
X-7399759Y-3284941D03*
X-7399759Y-3030941D03*
X-3081759Y+3661959D03*
X-7907759Y+2252259D03*
X-3081759Y+4436659D03*
X-7907759Y+3522259D03*
X-7907759Y+3268259D03*
X-3081759Y+4178959D03*
X-3081759Y+3915959D03*
X-7907759Y+1248959D03*
X-7907759Y+994959D03*
X-7907759Y+740959D03*
X-7907759Y+486959D03*
X-7907759Y+232959D03*
X-7907759Y-21041D03*
X-7907759Y-275041D03*
X-7907759Y-529041D03*
X-7907759Y-1049741D03*
X-7907759Y-1303741D03*
X-7907759Y-1557741D03*
X-7907759Y-1811741D03*
X-7907759Y-2065741D03*
X-7907759Y-2319741D03*
X-7907759Y-2573741D03*
X-7907759Y-2827741D03*
X-7907759Y+1744259D03*
D12*
X+3324000Y+5056000D03*
X+3324000Y+5310000D03*
X+3578000Y+5056000D03*
X+3578000Y+5310000D03*
X+3832000Y+5056000D03*
X+3832000Y+5310000D03*
X+4086000Y+5056000D03*
X+4086000Y+5310000D03*
X+4340000Y+5056000D03*
X+4340000Y+5310000D03*
X+4594000Y+5056000D03*
X+4594000Y+5310000D03*
X+4848000Y+5056000D03*
X+4848000Y+5310000D03*
X+5102000Y+5056000D03*
X+5102000Y+5310000D03*
X+5356000Y+5056000D03*
X+5356000Y+5310000D03*
X+5610000Y+5056000D03*
X+5610000Y+5310000D03*
X+5864000Y+5056000D03*
X+5864000Y+5310000D03*
X+6118000Y+5056000D03*
X+6118000Y+5310000D03*
X+6372000Y+5056000D03*
X+6372000Y+5310000D03*
X+6626000Y+5056000D03*
X+6626000Y+5310000D03*
X+6880000Y+5056000D03*
X+6880000Y+5310000D03*
X+7134000Y+5056000D03*
X+7134000Y+5310000D03*
X+7388000Y+5056000D03*
X+7388000Y+5310000D03*
X+7642000Y+5056000D03*
X+7642000Y+5310000D03*
X+7896000Y+5056000D03*
X+7896000Y+5310000D03*
X+8150000Y+5056000D03*
X+8150000Y+5310000D03*
X-8380000Y+5050000D03*
X-8380000Y+5304000D03*
X-8126000Y+5050000D03*
X-8126000Y+5304000D03*
X-7872000Y+5050000D03*
X-7872000Y+5304000D03*
X-7618000Y+5050000D03*
X-7618000Y+5304000D03*
X-7364000Y+5050000D03*
X-7364000Y+5304000D03*
X-7110000Y+5050000D03*
X-7110000Y+5304000D03*
X-6856000Y+5050000D03*
X-6856000Y+5304000D03*
X-6602000Y+5050000D03*
X-6602000Y+5304000D03*
X-6348000Y+5050000D03*
X-6348000Y+5304000D03*
X-6094000Y+5050000D03*
X-6094000Y+5304000D03*
X-5840000Y+5050000D03*
X-5840000Y+5304000D03*
X-5586000Y+5050000D03*
X-5586000Y+5304000D03*
X-5332000Y+5050000D03*
X-5332000Y+5304000D03*
X-5078000Y+5050000D03*
X-5078000Y+5304000D03*
X-4824000Y+5050000D03*
X-4824000Y+5304000D03*
X-4570000Y+5050000D03*
X-4570000Y+5304000D03*
X-4316000Y+5050000D03*
X-4316000Y+5304000D03*
X-4062000Y+5050000D03*
X-4062000Y+5304000D03*
X-3808000Y+5050000D03*
X-3808000Y+5304000D03*
X-3554000Y+5050000D03*
X-3554000Y+5304000D03*
D14*
X-9154259Y-6501741D02*
X+9135741Y-6501741D01*
X+9135741Y+6498259D01*
X-9154259Y+6498259D01*
X-9154259Y-6501741D01*
M02*
