G04 PROTEUS GERBER X2 FILE*
%TF.GenerationSoftware,Labcenter,Proteus,8.6-SP2-Build23525*%
%TF.CreationDate,2019-12-11T18:48:13+00:00*%
%TF.FileFunction,Copper,L1,Top*%
%TF.FilePolarity,Positive*%
%TF.Part,Single*%
%FSLAX45Y45*%
%MOMM*%
G01*
%TA.AperFunction,Conductor*%
%ADD10C,0.254000*%
%TA.AperFunction,ViaPad*%
%ADD11C,1.016000*%
%TA.AperFunction,WasherPad*%
%ADD12C,1.524000*%
%TA.AperFunction,ComponentPad*%
%ADD13C,2.032000*%
%TA.AperFunction,Profile*%
%ADD14C,0.203200*%
%TD.AperFunction*%
G36*
X-8337541Y+5418299D02*
X-8427344Y+5418299D01*
X-8494299Y+5351344D01*
X-8494299Y+5256656D01*
X-8465442Y+5227799D01*
X-8467577Y+5227799D01*
X-8472177Y+5232399D01*
X-8545823Y+5232399D01*
X-8597899Y+5180323D01*
X-8597899Y+5106677D01*
X-8545823Y+5054601D01*
X-8494299Y+5054601D01*
X-8494299Y+5002656D01*
X-8427344Y+4935701D01*
X-8332656Y+4935701D01*
X-8265701Y+5002656D01*
X-8265701Y+5097344D01*
X-8294558Y+5126201D01*
X-8211442Y+5126201D01*
X-8240299Y+5097344D01*
X-8240299Y+5002656D01*
X-8173344Y+4935701D01*
X-8080521Y+4935701D01*
X-8089899Y+4926323D01*
X-8089899Y+4852677D01*
X-8037823Y+4800601D01*
X-7964177Y+4800601D01*
X-7912101Y+4852677D01*
X-7912101Y+4926323D01*
X-7950201Y+4964423D01*
X-7950201Y+4966558D01*
X-7919344Y+4935701D01*
X-7824656Y+4935701D01*
X-7757701Y+5002656D01*
X-7757701Y+5097344D01*
X-7824656Y+5164299D01*
X-7919344Y+5164299D01*
X-7950201Y+5133442D01*
X-7950201Y+5198041D01*
X-7979959Y+5227799D01*
X-8040558Y+5227799D01*
X-8011701Y+5256656D01*
X-8011701Y+5351344D01*
X-8070559Y+5410202D01*
X-7927441Y+5410202D01*
X-7986299Y+5351344D01*
X-7986299Y+5256656D01*
X-7919344Y+5189701D01*
X-7824656Y+5189701D01*
X-7757701Y+5256656D01*
X-7757701Y+5351344D01*
X-7816559Y+5410202D01*
X-7673441Y+5410202D01*
X-7732299Y+5351344D01*
X-7732299Y+5256656D01*
X-7665344Y+5189701D01*
X-7570656Y+5189701D01*
X-7503701Y+5256656D01*
X-7503701Y+5351344D01*
X-7562559Y+5410202D01*
X-7419441Y+5410202D01*
X-7478299Y+5351344D01*
X-7478299Y+5261541D01*
X-7543799Y+5196041D01*
X-7543799Y+5137442D01*
X-7570656Y+5164299D01*
X-7665344Y+5164299D01*
X-7732299Y+5097344D01*
X-7732299Y+5002656D01*
X-7665344Y+4935701D01*
X-7570656Y+4935701D01*
X-7543799Y+4962558D01*
X-7543799Y+4402541D01*
X-7599221Y+4347119D01*
X-8229601Y+4347119D01*
X-8229601Y+4354823D01*
X-8281677Y+4406899D01*
X-8355323Y+4406899D01*
X-8407399Y+4354823D01*
X-8407399Y+4281177D01*
X-8355323Y+4229101D01*
X-8281677Y+4229101D01*
X-8265257Y+4245521D01*
X-7557139Y+4245521D01*
X-7442201Y+4360459D01*
X-7442201Y+4966558D01*
X-7411344Y+4935701D01*
X-7316656Y+4935701D01*
X-7249701Y+5002656D01*
X-7249701Y+5097344D01*
X-7316656Y+5164299D01*
X-7411344Y+5164299D01*
X-7442201Y+5133442D01*
X-7442201Y+5153959D01*
X-7406459Y+5189701D01*
X-7316656Y+5189701D01*
X-7249701Y+5256656D01*
X-7249701Y+5351344D01*
X-7308559Y+5410202D01*
X-7165441Y+5410202D01*
X-7224299Y+5351344D01*
X-7224299Y+5256656D01*
X-7157344Y+5189701D01*
X-7062656Y+5189701D01*
X-6995701Y+5256656D01*
X-6995701Y+5351344D01*
X-7054559Y+5410202D01*
X-6911441Y+5410202D01*
X-6970299Y+5351344D01*
X-6970299Y+5256656D01*
X-6903344Y+5189701D01*
X-6808656Y+5189701D01*
X-6741701Y+5256656D01*
X-6741701Y+5351344D01*
X-6800559Y+5410202D01*
X-6657441Y+5410202D01*
X-6716299Y+5351344D01*
X-6716299Y+5256656D01*
X-6649344Y+5189701D01*
X-6554656Y+5189701D01*
X-6487701Y+5256656D01*
X-6487701Y+5351344D01*
X-6546559Y+5410202D01*
X-6403441Y+5410202D01*
X-6462299Y+5351344D01*
X-6462299Y+5256656D01*
X-6395344Y+5189701D01*
X-6300656Y+5189701D01*
X-6233701Y+5256656D01*
X-6233701Y+5351344D01*
X-6292559Y+5410202D01*
X-6149441Y+5410202D01*
X-6208299Y+5351344D01*
X-6208299Y+5256656D01*
X-6141344Y+5189701D01*
X-6046656Y+5189701D01*
X-5979701Y+5256656D01*
X-5979701Y+5351344D01*
X-6038559Y+5410202D01*
X-5895441Y+5410202D01*
X-5954299Y+5351344D01*
X-5954299Y+5256656D01*
X-5887344Y+5189701D01*
X-5792656Y+5189701D01*
X-5725701Y+5256656D01*
X-5725701Y+5351344D01*
X-5784559Y+5410202D01*
X-5641441Y+5410202D01*
X-5700299Y+5351344D01*
X-5700299Y+5256656D01*
X-5633344Y+5189701D01*
X-5538656Y+5189701D01*
X-5471701Y+5256656D01*
X-5471701Y+5351344D01*
X-5530559Y+5410202D01*
X-5387441Y+5410202D01*
X-5446299Y+5351344D01*
X-5446299Y+5256656D01*
X-5379344Y+5189701D01*
X-5284656Y+5189701D01*
X-5217701Y+5256656D01*
X-5217701Y+5351344D01*
X-5276559Y+5410202D01*
X-5133441Y+5410202D01*
X-5192299Y+5351344D01*
X-5192299Y+5256656D01*
X-5125344Y+5189701D01*
X-5030656Y+5189701D01*
X-4963701Y+5256656D01*
X-4963701Y+5351344D01*
X-5022559Y+5410202D01*
X-4879441Y+5410202D01*
X-4938299Y+5351344D01*
X-4938299Y+5256656D01*
X-4871344Y+5189701D01*
X-4776656Y+5189701D01*
X-4709701Y+5256656D01*
X-4709701Y+5351344D01*
X-4768559Y+5410202D01*
X-4625441Y+5410202D01*
X-4684299Y+5351344D01*
X-4684299Y+5256656D01*
X-4617344Y+5189701D01*
X-4522656Y+5189701D01*
X-4455701Y+5256656D01*
X-4455701Y+5351344D01*
X-4514559Y+5410202D01*
X-4371441Y+5410202D01*
X-4430299Y+5351344D01*
X-4430299Y+5256656D01*
X-4363344Y+5189701D01*
X-4268656Y+5189701D01*
X-4201701Y+5256656D01*
X-4201701Y+5351344D01*
X-4260559Y+5410202D01*
X-4117441Y+5410202D01*
X-4176299Y+5351344D01*
X-4176299Y+5256656D01*
X-4109344Y+5189701D01*
X-4014656Y+5189701D01*
X-3947701Y+5256656D01*
X-3947701Y+5351344D01*
X-4006559Y+5410202D01*
X-3863441Y+5410202D01*
X-3922299Y+5351344D01*
X-3922299Y+5256656D01*
X-3855344Y+5189701D01*
X-3760656Y+5189701D01*
X-3693701Y+5256656D01*
X-3693701Y+5351344D01*
X-3752559Y+5410202D01*
X-3609441Y+5410202D01*
X-3668299Y+5351344D01*
X-3668299Y+5256656D01*
X-3601344Y+5189701D01*
X-3506656Y+5189701D01*
X-3439701Y+5256656D01*
X-3439701Y+5351344D01*
X-3498559Y+5410202D01*
X-1672042Y+5410202D01*
X-1551389Y+5289549D01*
X-1625601Y+5289549D01*
X-1625601Y+5307323D01*
X-1677677Y+5359399D01*
X-1751323Y+5359399D01*
X-1803399Y+5307323D01*
X-1803399Y+5233677D01*
X-1764021Y+5194299D01*
X-2147577Y+5194299D01*
X-2185677Y+5232399D01*
X-2259323Y+5232399D01*
X-2311399Y+5180323D01*
X-2311399Y+5106677D01*
X-2259323Y+5054601D01*
X-2185677Y+5054601D01*
X-2147577Y+5092701D01*
X-1637021Y+5092701D01*
X-1676399Y+5053323D01*
X-1676399Y+4979677D01*
X-1637021Y+4940299D01*
X-2020577Y+4940299D01*
X-2058677Y+4978399D01*
X-2132323Y+4978399D01*
X-2184399Y+4926323D01*
X-2184399Y+4852677D01*
X-2132323Y+4800601D01*
X-2058677Y+4800601D01*
X-2020577Y+4838701D01*
X-2018021Y+4838701D01*
X-2057399Y+4799323D01*
X-2057399Y+4725677D01*
X-2018021Y+4686299D01*
X-5386077Y+4686299D01*
X-5424177Y+4724399D01*
X-5497823Y+4724399D01*
X-5549899Y+4672323D01*
X-5549899Y+4598677D01*
X-5497823Y+4546601D01*
X-5424177Y+4546601D01*
X-5386077Y+4584701D01*
X-1312459Y+4584701D01*
X-1248959Y+4648201D01*
X+67861Y+4648201D01*
X-417556Y+4162784D01*
X-1752601Y+4162784D01*
X-1752601Y+4164323D01*
X-1804677Y+4216399D01*
X-1878323Y+4216399D01*
X-1930399Y+4164323D01*
X-1930399Y+4090677D01*
X-1878323Y+4038601D01*
X-1804677Y+4038601D01*
X-1782092Y+4061186D01*
X-375474Y+4061186D01*
X+148041Y+4584701D01*
X+893361Y+4584701D01*
X+232959Y+3924299D01*
X-2274577Y+3924299D01*
X-2312677Y+3962399D01*
X-2386323Y+3962399D01*
X-2438399Y+3910323D01*
X-2438399Y+3836677D01*
X-2386323Y+3784601D01*
X-2312677Y+3784601D01*
X-2274577Y+3822701D01*
X+275041Y+3822701D01*
X+973541Y+4521201D01*
X+2285219Y+4521201D01*
X+2248542Y+4484524D01*
X+2248542Y+4368794D01*
X+2319527Y+4297809D01*
X+2248542Y+4226824D01*
X+2248542Y+4111094D01*
X+2322177Y+4037459D01*
X+2248542Y+3963824D01*
X+2248542Y+3848094D01*
X+2317677Y+3778959D01*
X+2248542Y+3709824D01*
X+2248542Y+3594094D01*
X+2317677Y+3524959D01*
X+2248542Y+3455824D01*
X+2248542Y+3340094D01*
X+2317677Y+3270959D01*
X+2248542Y+3201824D01*
X+2248542Y+3086094D01*
X+2317677Y+3016959D01*
X+2248542Y+2947824D01*
X+2248542Y+2832094D01*
X+2317677Y+2762959D01*
X+2248542Y+2693824D01*
X+2248542Y+2578094D01*
X+2317677Y+2508959D01*
X+2248542Y+2439824D01*
X+2248542Y+2324094D01*
X+2317677Y+2254959D01*
X+2248542Y+2185824D01*
X+2248542Y+2070094D01*
X+2299337Y+2019299D01*
X+1989541Y+2019299D01*
X+1862541Y+2146299D01*
X-275041Y+2146299D01*
X-368299Y+2053041D01*
X-368299Y+1693459D01*
X-275041Y+1600201D01*
X+105959Y+1600201D01*
X+139701Y+1566459D01*
X+139701Y+53500D01*
X+105959Y+19758D01*
X-2298060Y+19758D01*
X-2298060Y+26824D01*
X-2367195Y+95959D01*
X-2298060Y+165094D01*
X-2298060Y+280824D01*
X-2367195Y+349959D01*
X-2298060Y+419094D01*
X-2298060Y+534824D01*
X-2367195Y+603959D01*
X-2298060Y+673094D01*
X-2298060Y+788824D01*
X-2367195Y+857959D01*
X-2298060Y+927094D01*
X-2298060Y+1042824D01*
X-2367195Y+1111959D01*
X-2298060Y+1181094D01*
X-2298060Y+1296824D01*
X-2347437Y+1346201D01*
X-582923Y+1346201D01*
X-544823Y+1308101D01*
X-471177Y+1308101D01*
X-419101Y+1360177D01*
X-419101Y+1433823D01*
X-471177Y+1485899D01*
X-544823Y+1485899D01*
X-582923Y+1447799D01*
X-2688041Y+1447799D01*
X-2836082Y+1299758D01*
X-2942060Y+1299758D01*
X-2942060Y+1306824D01*
X-3011195Y+1375959D01*
X-2942060Y+1445094D01*
X-2942060Y+1560824D01*
X-3011195Y+1629959D01*
X-2942060Y+1699094D01*
X-2942060Y+1814824D01*
X-3023894Y+1896658D01*
X-3139624Y+1896658D01*
X-3221458Y+1814824D01*
X-3221458Y+1699094D01*
X-3152323Y+1629959D01*
X-3221458Y+1560824D01*
X-3221458Y+1445094D01*
X-3152323Y+1375959D01*
X-3221458Y+1306824D01*
X-3221458Y+1191094D01*
X-3152323Y+1121959D01*
X-3221458Y+1052824D01*
X-3221458Y+937094D01*
X-3152323Y+867959D01*
X-3221458Y+798824D01*
X-3221458Y+791757D01*
X-3344083Y+791757D01*
X-3348441Y+787399D01*
X-3402323Y+787399D01*
X-3454399Y+735323D01*
X-3454399Y+661677D01*
X-3402323Y+609601D01*
X-3328677Y+609601D01*
X-3276601Y+661677D01*
X-3276601Y+690161D01*
X-3221458Y+690161D01*
X-3221458Y+683094D01*
X-3152323Y+613959D01*
X-3221458Y+544824D01*
X-3221458Y+429094D01*
X-3152323Y+359959D01*
X-3221458Y+290824D01*
X-3221458Y+175094D01*
X-3152323Y+105959D01*
X-3221458Y+36824D01*
X-3221458Y-78906D01*
X-3139624Y-160740D01*
X-3023894Y-160740D01*
X-2942060Y-78906D01*
X-2942060Y+36824D01*
X-3011195Y+105959D01*
X-2942060Y+175094D01*
X-2942060Y+275420D01*
X-2717799Y+51159D01*
X-2717799Y-2480861D01*
X-2772959Y-2425701D01*
X-2990155Y-2425701D01*
X-2942060Y-2377606D01*
X-2942060Y-2261876D01*
X-3011195Y-2192741D01*
X-2942060Y-2123606D01*
X-2942060Y-2007876D01*
X-3011195Y-1938741D01*
X-2942060Y-1869606D01*
X-2942060Y-1753876D01*
X-3011195Y-1684741D01*
X-2942060Y-1615606D01*
X-2942060Y-1499876D01*
X-3011195Y-1430741D01*
X-2942060Y-1361606D01*
X-2942060Y-1245876D01*
X-3011195Y-1176741D01*
X-2942060Y-1107606D01*
X-2942060Y-991876D01*
X-3011195Y-922741D01*
X-2942060Y-853606D01*
X-2942060Y-737876D01*
X-3011195Y-668741D01*
X-2942060Y-599606D01*
X-2942060Y-483876D01*
X-3023894Y-402042D01*
X-3139624Y-402042D01*
X-3221458Y-483876D01*
X-3221458Y-599606D01*
X-3152323Y-668741D01*
X-3221458Y-737876D01*
X-3221458Y-853606D01*
X-3152323Y-922741D01*
X-3221458Y-991876D01*
X-3221458Y-1107606D01*
X-3152323Y-1176741D01*
X-3221458Y-1245876D01*
X-3221458Y-1361606D01*
X-3152323Y-1430741D01*
X-3221458Y-1499876D01*
X-3221458Y-1615606D01*
X-3152323Y-1684741D01*
X-3221458Y-1753876D01*
X-3221458Y-1869606D01*
X-3152323Y-1938741D01*
X-3221458Y-2007876D01*
X-3221458Y-2123606D01*
X-3152323Y-2192741D01*
X-3221458Y-2261876D01*
X-3221458Y-2377606D01*
X-3173363Y-2425701D01*
X-4497077Y-2425701D01*
X-4535177Y-2387601D01*
X-4608823Y-2387601D01*
X-4660899Y-2439677D01*
X-4660899Y-2513323D01*
X-4621521Y-2552701D01*
X-4687577Y-2552701D01*
X-4725677Y-2514601D01*
X-4799323Y-2514601D01*
X-4808960Y-2524238D01*
X-4808960Y-2521682D01*
X-4800601Y-2513323D01*
X-4800601Y-2439677D01*
X-4852677Y-2387601D01*
X-4926323Y-2387601D01*
X-4978399Y-2439677D01*
X-4978399Y-2513323D01*
X-4926323Y-2565399D01*
X-4910558Y-2565399D01*
X-4910558Y-2891242D01*
X-4917624Y-2891242D01*
X-4986759Y-2960377D01*
X-5055894Y-2891242D01*
X-5062960Y-2891242D01*
X-5062960Y-613959D01*
X-5156218Y-520701D01*
X-7481577Y-520701D01*
X-7519677Y-482601D01*
X-7593323Y-482601D01*
X-7645399Y-534677D01*
X-7645399Y-608323D01*
X-7606021Y-647701D01*
X-7828855Y-647701D01*
X-7768060Y-586906D01*
X-7768060Y-471176D01*
X-7837195Y-402041D01*
X-7768060Y-332906D01*
X-7768060Y-217176D01*
X-7837195Y-148041D01*
X-7768060Y-78906D01*
X-7768060Y+36824D01*
X-7837195Y+105959D01*
X-7768060Y+175094D01*
X-7768060Y+290824D01*
X-7837195Y+359959D01*
X-7768060Y+429094D01*
X-7768060Y+544824D01*
X-7837195Y+613959D01*
X-7768060Y+683094D01*
X-7768060Y+798824D01*
X-7837195Y+867959D01*
X-7768060Y+937094D01*
X-7768060Y+1052824D01*
X-7837195Y+1121959D01*
X-7768060Y+1191094D01*
X-7768060Y+1306824D01*
X-7807437Y+1346201D01*
X-6551923Y+1346201D01*
X-6513823Y+1308101D01*
X-6440177Y+1308101D01*
X-6388101Y+1360177D01*
X-6388101Y+1433823D01*
X-6440177Y+1485899D01*
X-6513823Y+1485899D01*
X-6551923Y+1447799D01*
X-7887979Y+1447799D01*
X-7848601Y+1487177D01*
X-7848601Y+1560823D01*
X-7892338Y+1604560D01*
X-7849894Y+1604560D01*
X-7768060Y+1686394D01*
X-7768060Y+1802124D01*
X-7837195Y+1871259D01*
X-7768060Y+1940394D01*
X-7768060Y+2056124D01*
X-7837195Y+2125259D01*
X-7768060Y+2194394D01*
X-7768060Y+2310124D01*
X-7837195Y+2379259D01*
X-7768060Y+2448394D01*
X-7768060Y+2564124D01*
X-7837195Y+2633259D01*
X-7768060Y+2702394D01*
X-7768060Y+2818124D01*
X-7837195Y+2887259D01*
X-7768060Y+2956394D01*
X-7768060Y+3072124D01*
X-7837195Y+3141259D01*
X-7768060Y+3210394D01*
X-7768060Y+3326124D01*
X-7837195Y+3395259D01*
X-7768060Y+3464394D01*
X-7768060Y+3580124D01*
X-7849894Y+3661958D01*
X-7965624Y+3661958D01*
X-8047458Y+3580124D01*
X-8047458Y+3464394D01*
X-7978323Y+3395259D01*
X-8047458Y+3326124D01*
X-8047458Y+3210394D01*
X-7978323Y+3141259D01*
X-8047458Y+3072124D01*
X-8047458Y+2956394D01*
X-7978323Y+2887259D01*
X-8047458Y+2818124D01*
X-8047458Y+2702394D01*
X-7978323Y+2633259D01*
X-8047458Y+2564124D01*
X-8047458Y+2448394D01*
X-7978323Y+2379259D01*
X-8047458Y+2310124D01*
X-8047458Y+2194394D01*
X-7978323Y+2125259D01*
X-8047458Y+2056124D01*
X-8047458Y+1940394D01*
X-7978323Y+1871259D01*
X-8047458Y+1802124D01*
X-8047458Y+1705798D01*
X-8521701Y+2180041D01*
X-8521701Y+4614459D01*
X-8399059Y+4737101D01*
X-8345177Y+4737101D01*
X-8293101Y+4789177D01*
X-8293101Y+4862823D01*
X-8345177Y+4914899D01*
X-8418823Y+4914899D01*
X-8470899Y+4862823D01*
X-8470899Y+4808941D01*
X-8623299Y+4656541D01*
X-8623299Y+2137959D01*
X-8026399Y+1541059D01*
X-8026399Y+1487177D01*
X-7987021Y+1447799D01*
X-8657041Y+1447799D01*
X-8750299Y+1354541D01*
X-8750299Y-6180541D01*
X-8695139Y-6235701D01*
X-8741959Y-6235701D01*
X-8775701Y-6201959D01*
X-8775701Y+5439959D01*
X-8741959Y+5473701D01*
X-8282139Y+5473701D01*
X-8337541Y+5418299D01*
G37*
%LPC*%
G36*
X-2298060Y+3570124D02*
X-2298060Y+3454394D01*
X-2367195Y+3385259D01*
X-2298060Y+3316124D01*
X-2298060Y+3200394D01*
X-2367195Y+3131259D01*
X-2298060Y+3062124D01*
X-2298060Y+2946394D01*
X-2367195Y+2877259D01*
X-2298060Y+2808124D01*
X-2298060Y+2692394D01*
X-2367195Y+2623259D01*
X-2298060Y+2554124D01*
X-2298060Y+2438394D01*
X-2367195Y+2369259D01*
X-2298060Y+2300124D01*
X-2298060Y+2184394D01*
X-2367195Y+2115259D01*
X-2298060Y+2046124D01*
X-2298060Y+1930394D01*
X-2367195Y+1861259D01*
X-2298060Y+1792124D01*
X-2298060Y+1676394D01*
X-2379894Y+1594560D01*
X-2495624Y+1594560D01*
X-2577458Y+1676394D01*
X-2577458Y+1792124D01*
X-2508323Y+1861259D01*
X-2577458Y+1930394D01*
X-2577458Y+2046124D01*
X-2508323Y+2115259D01*
X-2577458Y+2184394D01*
X-2577458Y+2300124D01*
X-2508323Y+2369259D01*
X-2577458Y+2438394D01*
X-2577458Y+2554124D01*
X-2508323Y+2623259D01*
X-2577458Y+2692394D01*
X-2577458Y+2808124D01*
X-2508323Y+2877259D01*
X-2577458Y+2946394D01*
X-2577458Y+3062124D01*
X-2508323Y+3131259D01*
X-2577458Y+3200394D01*
X-2577458Y+3316124D01*
X-2508323Y+3385259D01*
X-2577458Y+3454394D01*
X-2577458Y+3570124D01*
X-2495624Y+3651958D01*
X-2379894Y+3651958D01*
X-2298060Y+3570124D01*
G37*
G36*
X-5979701Y+5097344D02*
X-5979701Y+5007541D01*
X-4430918Y+3458758D01*
X-3221458Y+3458758D01*
X-3221458Y+3465824D01*
X-3152323Y+3534959D01*
X-3221458Y+3604094D01*
X-3221458Y+3719824D01*
X-3152323Y+3788959D01*
X-3221458Y+3858094D01*
X-3221458Y+3973824D01*
X-3147823Y+4047459D01*
X-3221458Y+4121094D01*
X-3221458Y+4236824D01*
X-3150473Y+4307809D01*
X-3221458Y+4378794D01*
X-3221458Y+4494524D01*
X-3139624Y+4576358D01*
X-3023894Y+4576358D01*
X-2942060Y+4494524D01*
X-2942060Y+4378794D01*
X-3013045Y+4307809D01*
X-2942060Y+4236824D01*
X-2942060Y+4121094D01*
X-3015695Y+4047459D01*
X-2942060Y+3973824D01*
X-2942060Y+3858094D01*
X-3011195Y+3788959D01*
X-2942060Y+3719824D01*
X-2942060Y+3604094D01*
X-3011195Y+3534959D01*
X-2942060Y+3465824D01*
X-2942060Y+3350094D01*
X-3011195Y+3280959D01*
X-2942060Y+3211824D01*
X-2942060Y+3096094D01*
X-3011195Y+3026959D01*
X-2942060Y+2957824D01*
X-2942060Y+2842094D01*
X-3011195Y+2772959D01*
X-2942060Y+2703824D01*
X-2942060Y+2588094D01*
X-3011195Y+2518959D01*
X-2942060Y+2449824D01*
X-2942060Y+2334094D01*
X-3011195Y+2264959D01*
X-2942060Y+2195824D01*
X-2942060Y+2080094D01*
X-3023894Y+1998260D01*
X-3139624Y+1998260D01*
X-3221458Y+2080094D01*
X-3221458Y+2195824D01*
X-3152323Y+2264959D01*
X-3221458Y+2334094D01*
X-3221458Y+2449824D01*
X-3152323Y+2518959D01*
X-3221458Y+2588094D01*
X-3221458Y+2703824D01*
X-3152323Y+2772959D01*
X-3221458Y+2842094D01*
X-3221458Y+2849160D01*
X-4219001Y+2849161D01*
X-6305541Y+4935701D01*
X-6395344Y+4935701D01*
X-6462299Y+5002656D01*
X-6462299Y+5097344D01*
X-6395344Y+5164299D01*
X-6300656Y+5164299D01*
X-6233701Y+5097344D01*
X-6233701Y+5007541D01*
X-4176917Y+2950757D01*
X-3221458Y+2950758D01*
X-3221458Y+2957824D01*
X-3152323Y+3026959D01*
X-3221458Y+3096094D01*
X-3221458Y+3211824D01*
X-3152323Y+3280959D01*
X-3221458Y+3350094D01*
X-3221458Y+3357160D01*
X-4473000Y+3357160D01*
X-6051541Y+4935701D01*
X-6141344Y+4935701D01*
X-6208299Y+5002656D01*
X-6208299Y+5097344D01*
X-6141344Y+5164299D01*
X-6046656Y+5164299D01*
X-5979701Y+5097344D01*
G37*
G36*
X-7157344Y+5164299D02*
X-7062656Y+5164299D01*
X-6995701Y+5097344D01*
X-6995701Y+5002656D01*
X-7062656Y+4935701D01*
X-7157344Y+4935701D01*
X-7224299Y+5002656D01*
X-7224299Y+5097344D01*
X-7157344Y+5164299D01*
G37*
G36*
X-6903344Y+5164299D02*
X-6808656Y+5164299D01*
X-6741701Y+5097344D01*
X-6741701Y+5002656D01*
X-6808656Y+4935701D01*
X-6903344Y+4935701D01*
X-6970299Y+5002656D01*
X-6970299Y+5097344D01*
X-6903344Y+5164299D01*
G37*
G36*
X-6649344Y+5164299D02*
X-6554656Y+5164299D01*
X-6487701Y+5097344D01*
X-6487701Y+5002656D01*
X-6554656Y+4935701D01*
X-6649344Y+4935701D01*
X-6716299Y+5002656D01*
X-6716299Y+5097344D01*
X-6649344Y+5164299D01*
G37*
G36*
X-5887344Y+5164299D02*
X-5792656Y+5164299D01*
X-5725701Y+5097344D01*
X-5725701Y+5002656D01*
X-5792656Y+4935701D01*
X-5887344Y+4935701D01*
X-5954299Y+5002656D01*
X-5954299Y+5097344D01*
X-5887344Y+5164299D01*
G37*
G36*
X-5633344Y+5164299D02*
X-5538656Y+5164299D01*
X-5471701Y+5097344D01*
X-5471701Y+5002656D01*
X-5538656Y+4935701D01*
X-5633344Y+4935701D01*
X-5700299Y+5002656D01*
X-5700299Y+5097344D01*
X-5633344Y+5164299D01*
G37*
G36*
X-5379344Y+5164299D02*
X-5284656Y+5164299D01*
X-5217701Y+5097344D01*
X-5217701Y+5002656D01*
X-5284656Y+4935701D01*
X-5379344Y+4935701D01*
X-5446299Y+5002656D01*
X-5446299Y+5097344D01*
X-5379344Y+5164299D01*
G37*
G36*
X-5125344Y+5164299D02*
X-5030656Y+5164299D01*
X-4963701Y+5097344D01*
X-4963701Y+5002656D01*
X-5030656Y+4935701D01*
X-5125344Y+4935701D01*
X-5192299Y+5002656D01*
X-5192299Y+5097344D01*
X-5125344Y+5164299D01*
G37*
G36*
X-4871344Y+5164299D02*
X-4776656Y+5164299D01*
X-4709701Y+5097344D01*
X-4709701Y+5002656D01*
X-4776656Y+4935701D01*
X-4871344Y+4935701D01*
X-4938299Y+5002656D01*
X-4938299Y+5097344D01*
X-4871344Y+5164299D01*
G37*
G36*
X-4617344Y+5164299D02*
X-4522656Y+5164299D01*
X-4455701Y+5097344D01*
X-4455701Y+5002656D01*
X-4522656Y+4935701D01*
X-4617344Y+4935701D01*
X-4684299Y+5002656D01*
X-4684299Y+5097344D01*
X-4617344Y+5164299D01*
G37*
G36*
X-4363344Y+5164299D02*
X-4268656Y+5164299D01*
X-4201701Y+5097344D01*
X-4201701Y+5002656D01*
X-4268656Y+4935701D01*
X-4363344Y+4935701D01*
X-4430299Y+5002656D01*
X-4430299Y+5097344D01*
X-4363344Y+5164299D01*
G37*
G36*
X-4109344Y+5164299D02*
X-4014656Y+5164299D01*
X-3947701Y+5097344D01*
X-3947701Y+5002656D01*
X-4014656Y+4935701D01*
X-4109344Y+4935701D01*
X-4176299Y+5002656D01*
X-4176299Y+5097344D01*
X-4109344Y+5164299D01*
G37*
G36*
X-3855344Y+5164299D02*
X-3760656Y+5164299D01*
X-3693701Y+5097344D01*
X-3693701Y+5002656D01*
X-3760656Y+4935701D01*
X-3855344Y+4935701D01*
X-3922299Y+5002656D01*
X-3922299Y+5097344D01*
X-3855344Y+5164299D01*
G37*
G36*
X-3601344Y+5164299D02*
X-3506656Y+5164299D01*
X-3439701Y+5097344D01*
X-3439701Y+5002656D01*
X-3506656Y+4935701D01*
X-3601344Y+4935701D01*
X-3668299Y+5002656D01*
X-3668299Y+5097344D01*
X-3601344Y+5164299D01*
G37*
G36*
X+2184399Y+4227823D02*
X+2184399Y+4154177D01*
X+2132323Y+4102101D01*
X+2058677Y+4102101D01*
X+2020577Y+4140201D01*
X+1598923Y+4140201D01*
X+1560823Y+4102101D01*
X+1487177Y+4102101D01*
X+1435101Y+4154177D01*
X+1435101Y+4227823D01*
X+1487177Y+4279899D01*
X+1560823Y+4279899D01*
X+1598923Y+4241799D01*
X+2020577Y+4241799D01*
X+2058677Y+4279899D01*
X+2132323Y+4279899D01*
X+2184399Y+4227823D01*
G37*
G36*
X-31750Y+1510849D02*
X-31750Y+1537151D01*
X-13151Y+1555750D01*
X+13151Y+1555750D01*
X+31750Y+1537151D01*
X+31750Y+1510849D01*
X+13151Y+1492250D01*
X-13151Y+1492250D01*
X-31750Y+1510849D01*
G37*
G36*
X-6381750Y+1891849D02*
X-6381750Y+1918151D01*
X-6363151Y+1936750D01*
X-6336849Y+1936750D01*
X-6318250Y+1918151D01*
X-6318250Y+1891849D01*
X-6336849Y+1873250D01*
X-6363151Y+1873250D01*
X-6381750Y+1891849D01*
G37*
%LPD*%
G36*
X+8839201Y+4550959D02*
X+8839201Y+2027639D01*
X+8784041Y+2082799D01*
X+8360959Y+2082799D01*
X+8305799Y+2027639D01*
X+8305799Y+2084077D01*
X+8343899Y+2122177D01*
X+8343899Y+2195823D01*
X+8291823Y+2247899D01*
X+8218177Y+2247899D01*
X+8202819Y+2232541D01*
X+8202819Y+2264959D01*
X+8369299Y+2431439D01*
X+8369299Y+2655577D01*
X+8407399Y+2693677D01*
X+8407399Y+2767323D01*
X+8355323Y+2819399D01*
X+8281677Y+2819399D01*
X+8242299Y+2780021D01*
X+8242299Y+3481077D01*
X+8280399Y+3519177D01*
X+8280399Y+3592823D01*
X+8228323Y+3644899D01*
X+8154677Y+3644899D01*
X+8137940Y+3628162D01*
X+8137940Y+3719824D01*
X+8068805Y+3788959D01*
X+8137940Y+3858094D01*
X+8137940Y+3973824D01*
X+8064305Y+4047459D01*
X+8137940Y+4121094D01*
X+8137940Y+4236824D01*
X+8066955Y+4307809D01*
X+8137940Y+4378794D01*
X+8137940Y+4494524D01*
X+8056106Y+4576358D01*
X+7940376Y+4576358D01*
X+7858542Y+4494524D01*
X+7858542Y+4378794D01*
X+7929527Y+4307809D01*
X+7858542Y+4236824D01*
X+7858542Y+4121094D01*
X+7932177Y+4047459D01*
X+7858542Y+3973824D01*
X+7858542Y+3858094D01*
X+7927677Y+3788959D01*
X+7858542Y+3719824D01*
X+7858542Y+3604094D01*
X+7927677Y+3534959D01*
X+7858542Y+3465824D01*
X+7858542Y+3350094D01*
X+7927677Y+3280959D01*
X+7858542Y+3211824D01*
X+7858542Y+3096094D01*
X+7927677Y+3026959D01*
X+7858542Y+2957824D01*
X+7858542Y+2842094D01*
X+7927677Y+2772959D01*
X+7858542Y+2703824D01*
X+7858542Y+2696758D01*
X+5387168Y+2696758D01*
X+5251451Y+2561041D01*
X+5251451Y+1852209D01*
X+5376459Y+1727201D01*
X+6942541Y+1727201D01*
X+7069541Y+1854201D01*
X+7897919Y+1854201D01*
X+7858542Y+1814824D01*
X+7858542Y+1699094D01*
X+7927677Y+1629959D01*
X+7858542Y+1560824D01*
X+7858542Y+1445094D01*
X+7927677Y+1375959D01*
X+7858542Y+1306824D01*
X+7858542Y+1191094D01*
X+7927677Y+1121959D01*
X+7858542Y+1052824D01*
X+7858542Y+937094D01*
X+7927677Y+867959D01*
X+7858542Y+798824D01*
X+7858542Y+683094D01*
X+7927677Y+613959D01*
X+7858542Y+544824D01*
X+7858542Y+429094D01*
X+7927677Y+359959D01*
X+7858542Y+290824D01*
X+7858542Y+175094D01*
X+7927677Y+105959D01*
X+7858542Y+36824D01*
X+7858542Y-78906D01*
X+7940376Y-160740D01*
X+8056106Y-160740D01*
X+8137940Y-78906D01*
X+8137940Y+36824D01*
X+8068805Y+105959D01*
X+8137940Y+175094D01*
X+8137940Y+275420D01*
X+8204201Y+209159D01*
X+8204201Y-296459D01*
X+8170459Y-330201D01*
X+7669521Y-330201D01*
X+7708899Y-290823D01*
X+7708899Y-278121D01*
X+7710177Y-279399D01*
X+7783823Y-279399D01*
X+7835899Y-227323D01*
X+7835899Y-153677D01*
X+7797799Y-115577D01*
X+7797799Y+1545041D01*
X+7704541Y+1638299D01*
X+3263845Y+1638299D01*
X+3311940Y+1686394D01*
X+3311940Y+1802124D01*
X+3242805Y+1871259D01*
X+3311940Y+1940394D01*
X+3311940Y+2056124D01*
X+3242805Y+2125259D01*
X+3311940Y+2194394D01*
X+3311940Y+2310124D01*
X+3242805Y+2379259D01*
X+3311940Y+2448394D01*
X+3311940Y+2564124D01*
X+3242805Y+2633259D01*
X+3311940Y+2702394D01*
X+3311940Y+2818124D01*
X+3242805Y+2887259D01*
X+3311940Y+2956394D01*
X+3311940Y+3072124D01*
X+3242805Y+3141259D01*
X+3311940Y+3210394D01*
X+3311940Y+3326124D01*
X+3242805Y+3395259D01*
X+3311940Y+3464394D01*
X+3311940Y+3580124D01*
X+3259863Y+3632201D01*
X+7037077Y+3632201D01*
X+7075177Y+3594101D01*
X+7148823Y+3594101D01*
X+7200899Y+3646177D01*
X+7200899Y+3719823D01*
X+7161521Y+3759201D01*
X+7623258Y+3759201D01*
X+7716516Y+3852459D01*
X+7716516Y+4533176D01*
X+7768041Y+4584701D01*
X+8805459Y+4584701D01*
X+8839201Y+4550959D01*
G37*
%LPC*%
G36*
X+8724899Y+3021323D02*
X+8724899Y+2947677D01*
X+8686799Y+2909577D01*
X+8686799Y+2360923D01*
X+8724899Y+2322823D01*
X+8724899Y+2249177D01*
X+8672823Y+2197101D01*
X+8599177Y+2197101D01*
X+8547101Y+2249177D01*
X+8547101Y+2322823D01*
X+8585201Y+2360923D01*
X+8585201Y+2909577D01*
X+8547101Y+2947677D01*
X+8547101Y+3021323D01*
X+8599177Y+3073399D01*
X+8672823Y+3073399D01*
X+8724899Y+3021323D01*
G37*
G36*
X+5175250Y+1955349D02*
X+5175250Y+1981651D01*
X+5193849Y+2000250D01*
X+5220151Y+2000250D01*
X+5238750Y+1981651D01*
X+5238750Y+1955349D01*
X+5220151Y+1936750D01*
X+5193849Y+1936750D01*
X+5175250Y+1955349D01*
G37*
%LPD*%
G36*
X+7037077Y+3733799D02*
X+2963459Y+3733799D01*
X+2874559Y+3644899D01*
X+2820677Y+3644899D01*
X+2768601Y+3592823D01*
X+2768601Y+3519177D01*
X+2820677Y+3467101D01*
X+2894323Y+3467101D01*
X+2946399Y+3519177D01*
X+2946399Y+3573059D01*
X+3005541Y+3632201D01*
X+3084619Y+3632201D01*
X+3032542Y+3580124D01*
X+3032542Y+3464394D01*
X+3101677Y+3395259D01*
X+3032542Y+3326124D01*
X+3032542Y+3210394D01*
X+3101677Y+3141259D01*
X+3032542Y+3072124D01*
X+3032542Y+2956394D01*
X+3101677Y+2887259D01*
X+3032542Y+2818124D01*
X+3032542Y+2702394D01*
X+3101677Y+2633259D01*
X+3032542Y+2564124D01*
X+3032542Y+2448394D01*
X+3101677Y+2379259D01*
X+3032542Y+2310124D01*
X+3032542Y+2194394D01*
X+3101677Y+2125259D01*
X+3032542Y+2056124D01*
X+3032542Y+1940394D01*
X+3101677Y+1871259D01*
X+3032542Y+1802124D01*
X+3032542Y+1686394D01*
X+3080637Y+1638299D01*
X+3005541Y+1638299D01*
X+2971799Y+1672041D01*
X+2971799Y+3005541D01*
X+2819399Y+3157941D01*
X+2819399Y+3211823D01*
X+2767323Y+3263899D01*
X+2693677Y+3263899D01*
X+2641601Y+3211823D01*
X+2641601Y+3138177D01*
X+2693677Y+3086101D01*
X+2747559Y+3086101D01*
X+2870201Y+2963459D01*
X+2870201Y+2400479D01*
X+2868743Y+2400479D01*
X+2830823Y+2438399D01*
X+2757177Y+2438399D01*
X+2705101Y+2386323D01*
X+2705101Y+2312677D01*
X+2757177Y+2260601D01*
X+2806702Y+2260601D01*
X+2806702Y+1964138D01*
X+2688041Y+2082799D01*
X+2582459Y+2082799D01*
X+2518959Y+2019299D01*
X+2477145Y+2019299D01*
X+2527940Y+2070094D01*
X+2527940Y+2185824D01*
X+2458805Y+2254959D01*
X+2527940Y+2324094D01*
X+2527940Y+2439824D01*
X+2522943Y+2444821D01*
X+2590799Y+2512677D01*
X+2590799Y+3725459D01*
X+2624541Y+3759201D01*
X+7062479Y+3759201D01*
X+7037077Y+3733799D01*
G37*
G36*
X+7251701Y-1835315D02*
X+7217959Y-1869057D01*
X+4533344Y-1869057D01*
X+4391442Y-2010959D01*
X+4391442Y-2424220D01*
X+4354823Y-2387601D01*
X+4300941Y-2387601D01*
X+4148541Y-2235201D01*
X+3976700Y-2235201D01*
X+3883442Y-2328459D01*
X+3883442Y-2891242D01*
X+3876376Y-2891242D01*
X+3807241Y-2960377D01*
X+3738106Y-2891242D01*
X+3622376Y-2891242D01*
X+3543299Y-2970319D01*
X+3543299Y-1672041D01*
X+3577041Y-1638299D01*
X+7100577Y-1638299D01*
X+7138677Y-1676399D01*
X+7212323Y-1676399D01*
X+7251701Y-1637021D01*
X+7251701Y-1835315D01*
G37*
%LPC*%
G36*
X+5175250Y-1727651D02*
X+5175250Y-1701349D01*
X+5193849Y-1682750D01*
X+5220151Y-1682750D01*
X+5238750Y-1701349D01*
X+5238750Y-1727651D01*
X+5220151Y-1746250D01*
X+5193849Y-1746250D01*
X+5175250Y-1727651D01*
G37*
%LPD*%
G36*
X-6692899Y-2185677D02*
X-6692899Y-2259323D01*
X-6653521Y-2298701D01*
X-7103300Y-2298701D01*
X-7196558Y-2391959D01*
X-7196558Y-2891242D01*
X-7203624Y-2891242D01*
X-7272759Y-2960377D01*
X-7341894Y-2891242D01*
X-7457624Y-2891242D01*
X-7505701Y-2939319D01*
X-7505701Y-2180041D01*
X-7471959Y-2146299D01*
X-6653521Y-2146299D01*
X-6692899Y-2185677D01*
G37*
%LPC*%
G36*
X-7461250Y-2616651D02*
X-7461250Y-2590349D01*
X-7442651Y-2571750D01*
X-7416349Y-2571750D01*
X-7397750Y-2590349D01*
X-7397750Y-2616651D01*
X-7416349Y-2635250D01*
X-7442651Y-2635250D01*
X-7461250Y-2616651D01*
G37*
%LPD*%
G36*
X+165101Y-2840441D02*
X+165101Y-2894323D01*
X+217177Y-2946399D01*
X+253219Y-2946399D01*
X+229241Y-2970377D01*
X+160106Y-2901242D01*
X+44376Y-2901242D01*
X-24759Y-2970377D01*
X-93894Y-2901242D01*
X-209624Y-2901242D01*
X-278759Y-2970377D01*
X-347894Y-2901242D01*
X-463624Y-2901242D01*
X-532759Y-2970377D01*
X-601894Y-2901242D01*
X-717624Y-2901242D01*
X-786759Y-2970377D01*
X-855894Y-2901242D01*
X-971624Y-2901242D01*
X-1040759Y-2970377D01*
X-1109894Y-2901242D01*
X-1225624Y-2901242D01*
X-1294759Y-2970377D01*
X-1363894Y-2901242D01*
X-1479624Y-2901242D01*
X-1548759Y-2970377D01*
X-1617894Y-2901242D01*
X-1733624Y-2901242D01*
X-1802759Y-2970377D01*
X-1871894Y-2901242D01*
X-1987624Y-2901242D01*
X-2044701Y-2958319D01*
X-2044701Y-2815041D01*
X-2010959Y-2781299D01*
X+105959Y-2781299D01*
X+165101Y-2840441D01*
G37*
%LPC*%
G36*
X-31750Y-2870651D02*
X-31750Y-2844349D01*
X-13151Y-2825750D01*
X+13151Y-2825750D01*
X+31750Y-2844349D01*
X+31750Y-2870651D01*
X+13151Y-2889250D01*
X-13151Y-2889250D01*
X-31750Y-2870651D01*
G37*
%LPD*%
G36*
X-3647624Y-3424640D02*
X-3531894Y-3424640D01*
X-3526897Y-3419643D01*
X-3352799Y-3593741D01*
X-3352799Y-3852459D01*
X-3386541Y-3886201D01*
X-3760479Y-3886201D01*
X-3721101Y-3846823D01*
X-3721101Y-3773177D01*
X-3773177Y-3721101D01*
X-3846823Y-3721101D01*
X-3898899Y-3773177D01*
X-3898899Y-3822702D01*
X-5220980Y-3822702D01*
X-5181601Y-3783323D01*
X-5181601Y-3709677D01*
X-5233677Y-3657601D01*
X-5307323Y-3657601D01*
X-5345423Y-3695701D01*
X-6148077Y-3695701D01*
X-6186177Y-3657601D01*
X-6259823Y-3657601D01*
X-6311899Y-3709677D01*
X-6311899Y-3783323D01*
X-6272521Y-3822701D01*
X-6871979Y-3822701D01*
X-6832601Y-3783323D01*
X-6832601Y-3709677D01*
X-6884677Y-3657601D01*
X-6958323Y-3657601D01*
X-6996423Y-3695701D01*
X-7887979Y-3695701D01*
X-7862577Y-3670299D01*
X-7598959Y-3670299D01*
X-7505701Y-3577041D01*
X-7505701Y-3376563D01*
X-7457624Y-3424640D01*
X-7341894Y-3424640D01*
X-7272759Y-3355505D01*
X-7203624Y-3424640D01*
X-7087894Y-3424640D01*
X-7018759Y-3355505D01*
X-6949624Y-3424640D01*
X-6833894Y-3424640D01*
X-6828897Y-3419643D01*
X-6641741Y-3606799D01*
X-4900923Y-3606799D01*
X-4862823Y-3644899D01*
X-4789177Y-3644899D01*
X-4737101Y-3592823D01*
X-4737101Y-3519177D01*
X-4789177Y-3467101D01*
X-4862823Y-3467101D01*
X-4900923Y-3505201D01*
X-6599659Y-3505201D01*
X-6680220Y-3424640D01*
X-6579894Y-3424640D01*
X-6510759Y-3355505D01*
X-6441624Y-3424640D01*
X-6325894Y-3424640D01*
X-6256759Y-3355505D01*
X-6187624Y-3424640D01*
X-6071894Y-3424640D01*
X-6002759Y-3355505D01*
X-5933624Y-3424640D01*
X-5817894Y-3424640D01*
X-5748759Y-3355505D01*
X-5679624Y-3424640D01*
X-5563894Y-3424640D01*
X-5494759Y-3355505D01*
X-5425624Y-3424640D01*
X-5309894Y-3424640D01*
X-5240759Y-3355505D01*
X-5171624Y-3424640D01*
X-5055894Y-3424640D01*
X-4986759Y-3355505D01*
X-4917624Y-3424640D01*
X-4801894Y-3424640D01*
X-4732759Y-3355505D01*
X-4663624Y-3424640D01*
X-4547894Y-3424640D01*
X-4478759Y-3355505D01*
X-4409624Y-3424640D01*
X-4293894Y-3424640D01*
X-4224759Y-3355505D01*
X-4155624Y-3424640D01*
X-4039894Y-3424640D01*
X-3970759Y-3355505D01*
X-3901624Y-3424640D01*
X-3785894Y-3424640D01*
X-3716759Y-3355505D01*
X-3647624Y-3424640D01*
G37*
%LPC*%
G36*
X-3524250Y-3696151D02*
X-3524250Y-3669849D01*
X-3505651Y-3651250D01*
X-3479349Y-3651250D01*
X-3460750Y-3669849D01*
X-3460750Y-3696151D01*
X-3479349Y-3714750D01*
X-3505651Y-3714750D01*
X-3524250Y-3696151D01*
G37*
G36*
X-7461250Y-3632651D02*
X-7461250Y-3606349D01*
X-7442651Y-3587750D01*
X-7416349Y-3587750D01*
X-7397750Y-3606349D01*
X-7397750Y-3632651D01*
X-7416349Y-3651250D01*
X-7442651Y-3651250D01*
X-7461250Y-3632651D01*
G37*
%LPD*%
G36*
X-1225624Y-3434640D02*
X-1109894Y-3434640D01*
X-1104897Y-3429643D01*
X-1069782Y-3464758D01*
X-1987902Y-3464758D01*
X-2044701Y-3407959D01*
X-2044701Y-3377563D01*
X-1987624Y-3434640D01*
X-1871894Y-3434640D01*
X-1802759Y-3365505D01*
X-1733624Y-3434640D01*
X-1617894Y-3434640D01*
X-1548759Y-3365505D01*
X-1479624Y-3434640D01*
X-1363894Y-3434640D01*
X-1294759Y-3365505D01*
X-1225624Y-3434640D01*
G37*
G36*
X+3872948Y-3421212D02*
X+3771899Y-3522261D01*
X+3771899Y-3519177D01*
X+3719823Y-3467101D01*
X+3665941Y-3467101D01*
X+3623480Y-3424640D01*
X+3738106Y-3424640D01*
X+3807241Y-3355505D01*
X+3872948Y-3421212D01*
G37*
G36*
X-2703823Y-4406899D02*
X-2630177Y-4406899D01*
X-2620431Y-4397153D01*
X-2620431Y-4767652D01*
X-2688041Y-4835262D01*
X-3129102Y-4835262D01*
X-3225799Y-4931959D01*
X-3225799Y-5093979D01*
X-3265177Y-5054601D01*
X-3338823Y-5054601D01*
X-3383460Y-5099238D01*
X-3383460Y-5069697D01*
X-3450415Y-5002742D01*
X-3545103Y-5002742D01*
X-3612058Y-5069697D01*
X-3612058Y-5164385D01*
X-3583200Y-5193243D01*
X-3666318Y-5193243D01*
X-3637460Y-5164385D01*
X-3637460Y-5074582D01*
X-3439677Y-4876799D01*
X-3376923Y-4876799D01*
X-3338823Y-4914899D01*
X-3265177Y-4914899D01*
X-3213101Y-4862823D01*
X-3213101Y-4789177D01*
X-3252479Y-4749799D01*
X-2836459Y-4749799D01*
X-2743201Y-4656541D01*
X-2743201Y-4367521D01*
X-2703823Y-4406899D01*
G37*
G36*
X+3747778Y-4635500D02*
X+3721101Y-4662177D01*
X+3721101Y-4735823D01*
X+3760479Y-4775201D01*
X+2888848Y-4775201D01*
X+2795590Y-4868459D01*
X+2795590Y-5387570D01*
X+2709459Y-5473701D01*
X+2463224Y-5473701D01*
X+2508540Y-5428385D01*
X+2508540Y-5333697D01*
X+2479683Y-5304840D01*
X+2514000Y-5304840D01*
X+2522941Y-5295899D01*
X+2576823Y-5295899D01*
X+2628899Y-5243823D01*
X+2628899Y-5170177D01*
X+2576823Y-5118101D01*
X+2508540Y-5118101D01*
X+2508540Y-5079697D01*
X+2441585Y-5012742D01*
X+2346897Y-5012742D01*
X+2279942Y-5079697D01*
X+2279942Y-5174385D01*
X+2308799Y-5203242D01*
X+2225683Y-5203242D01*
X+2254540Y-5174385D01*
X+2254540Y-5079697D01*
X+2187585Y-5012742D01*
X+2092897Y-5012742D01*
X+2025942Y-5079697D01*
X+2025942Y-5174385D01*
X+2054799Y-5203242D01*
X+1971683Y-5203242D01*
X+2000540Y-5174385D01*
X+2000540Y-5079697D01*
X+1933585Y-5012742D01*
X+1838897Y-5012742D01*
X+1771942Y-5079697D01*
X+1771942Y-5174385D01*
X+1800799Y-5203242D01*
X+1717683Y-5203242D01*
X+1746540Y-5174385D01*
X+1746540Y-5079697D01*
X+1679585Y-5012742D01*
X+1584897Y-5012742D01*
X+1517942Y-5079697D01*
X+1517942Y-5174385D01*
X+1546799Y-5203242D01*
X+1463683Y-5203242D01*
X+1492540Y-5174385D01*
X+1492540Y-5079697D01*
X+1425585Y-5012742D01*
X+1335980Y-5012742D01*
X+1344923Y-5003799D01*
X+2497541Y-5003799D01*
X+2586441Y-4914899D01*
X+2640323Y-4914899D01*
X+2692399Y-4862823D01*
X+2692399Y-4789177D01*
X+2640323Y-4737101D01*
X+2566677Y-4737101D01*
X+2540000Y-4763778D01*
X+2513323Y-4737101D01*
X+2439677Y-4737101D01*
X+2401577Y-4775201D01*
X+2081521Y-4775201D01*
X+2120899Y-4735823D01*
X+2120899Y-4662177D01*
X+2081521Y-4622799D01*
X+3735077Y-4622799D01*
X+3747778Y-4635500D01*
G37*
%LPC*%
G36*
X+3397250Y-4712151D02*
X+3397250Y-4685849D01*
X+3415849Y-4667250D01*
X+3442151Y-4667250D01*
X+3460750Y-4685849D01*
X+3460750Y-4712151D01*
X+3442151Y-4730750D01*
X+3415849Y-4730750D01*
X+3397250Y-4712151D01*
G37*
G36*
X+2444750Y-4712151D02*
X+2444750Y-4685849D01*
X+2463349Y-4667250D01*
X+2489651Y-4667250D01*
X+2508250Y-4685849D01*
X+2508250Y-4712151D01*
X+2489651Y-4730750D01*
X+2463349Y-4730750D01*
X+2444750Y-4712151D01*
G37*
%LPD*%
D10*
X+5764241Y-5124141D02*
X+5764241Y-4826000D01*
X+5827741Y-4762500D01*
X+8445500Y-4762500D01*
X+8509000Y-4699000D01*
X+8509000Y+646320D01*
X+8139320Y+1016000D01*
X+8139320Y+1841500D01*
X+8075820Y+1905000D01*
X+7048500Y+1905000D01*
X+6921500Y+1778000D01*
X+5397500Y+1778000D01*
X+5302250Y+1873250D01*
X+5302250Y+2540000D01*
X+5408209Y+2645959D01*
X+7998241Y+2645959D01*
X+7366000Y+1460500D02*
X+2921000Y+1460500D01*
X+2857500Y+1524000D01*
X+2857500Y+2349681D01*
X+2844800Y+2349681D01*
X+2844619Y+2349500D01*
X+2794000Y+2349500D01*
X+7112000Y+3683000D02*
X+2984500Y+3683000D01*
X+2857500Y+3556000D01*
X-6348000Y+5050000D02*
X-4197959Y+2899959D01*
X-3081759Y+2899959D01*
X+8636000Y+2286000D02*
X+8636000Y+2984500D01*
X+2730500Y+3175000D02*
X+2921000Y+2984500D01*
X+2921000Y+1651000D01*
X+2984500Y+1587500D01*
X+7683500Y+1587500D01*
X+7747000Y+1524000D01*
X+7747000Y-190500D01*
X+4635500Y-5651500D02*
X+4699000Y-5588000D01*
X+6316382Y-5588000D01*
X+6526241Y-5378141D01*
X+6096000Y-698500D02*
X+3048000Y-698500D01*
X+2984500Y-635000D01*
X+2984500Y+571500D01*
X+2667000Y+889000D01*
X+2667000Y+1905000D01*
X+8064500Y-4318000D02*
X+8255000Y-4127500D01*
X+8255000Y-2794000D01*
X+8191500Y-2730500D01*
X+7112000Y-2730500D01*
X+7048500Y-2667000D01*
X+6096000Y-2667000D01*
X-6094000Y+5050000D02*
X-4451959Y+3407959D01*
X-3081759Y+3407959D01*
X+3683000Y-3556000D02*
X+3492500Y-3365500D01*
X+3492500Y-1651000D01*
X+3556000Y-1587500D01*
X+7175500Y-1587500D01*
X-8323759Y-5371041D02*
X-8170300Y-5524500D01*
X-8001000Y-5524500D01*
X-7937500Y-5461000D01*
X-7937500Y-4064000D01*
X-7874000Y-4000500D01*
X-2984500Y-4000500D01*
X-2921000Y-3937000D01*
X-2921000Y-2921000D01*
X-2984500Y-2857500D01*
X-3162318Y-2857500D01*
X-3335759Y-3030941D01*
X+7620000Y-4318000D02*
X+7493000Y-4445000D01*
X+4191000Y-4445000D01*
X+3937000Y-4699000D01*
X+3810000Y-4699000D01*
X+1016000Y+6286500D02*
X+7451500Y+6286500D01*
X+7515000Y+6223000D01*
X+7515000Y+5183000D01*
X+7388000Y+5056000D01*
X+1016000Y-2857500D02*
X+2476500Y-2857500D01*
X+2540000Y-2921000D01*
X+2540000Y-3429000D01*
X+2476500Y-3492500D01*
X+2331800Y-3492500D01*
X+2134241Y-3294941D01*
X-8318500Y-3873500D02*
X-3873500Y-3873500D01*
X-3810000Y-3810000D01*
X+5016500Y-2222500D02*
X+7112000Y-2222500D01*
X-5842000Y-1778000D02*
X-7683500Y-1778000D01*
X-7747000Y-1841500D01*
X-7747000Y-3175000D01*
X-7810500Y-3238500D01*
X-8191500Y-3238500D01*
X+7366000Y-3429000D02*
X+7302500Y-3492500D01*
X+4572000Y-3492500D01*
X+4445000Y-3619500D01*
X+2095500Y+4191000D02*
X+1524000Y+4191000D01*
X-3589759Y-3284941D02*
X-3302000Y-3572700D01*
X-3302000Y-3873500D01*
X-3365500Y-3937000D01*
X-8001000Y-3937000D01*
X-8069759Y-4005759D01*
X-8069759Y-5117041D01*
X+3048000Y-3556000D02*
X+3365500Y-3556000D01*
X+3429000Y-3492500D01*
X+3429000Y-1524000D01*
X+3492500Y-1460500D01*
X+6985000Y-1460500D01*
X+3810000Y-5715000D02*
X+3048000Y-5715000D01*
X+2984500Y-5778500D01*
X-6159500Y-2095500D02*
X-7493000Y-2095500D01*
X-7556500Y-2159000D01*
X-7556500Y-3556000D01*
X-7620000Y-3619500D01*
X-7937500Y-3619500D01*
X+4318000Y-3556000D02*
X+4318000Y-3543300D01*
X+4368800Y-3492500D01*
X+4381500Y-3492500D01*
X+4445000Y-3429000D01*
X+7092182Y-3429000D01*
X+7236241Y-3284941D01*
X+698500Y-2730500D02*
X+1206500Y-2730500D01*
X+1270000Y-2794000D01*
X+2540000Y-2794000D01*
X+2603500Y-2857500D01*
X+2603500Y-3492500D01*
X+2540000Y-3556000D01*
X+1887300Y-3556000D01*
X+1626241Y-3294941D01*
X+698500Y+6286500D02*
X+825500Y+6413500D01*
X+7705500Y+6413500D01*
X+7769000Y+6350000D01*
X+7769000Y+5183000D01*
X+7896000Y+5056000D01*
X-3937000Y-4127500D02*
X-7752259Y-4127500D01*
X-7815759Y-4191000D01*
X-7815759Y-5117041D01*
X+6858000Y-825500D02*
X+7620000Y-825500D01*
X+7683500Y-889000D01*
X+7683500Y-2476500D01*
X+7747000Y-2540000D01*
X+8382000Y-2540000D01*
X+8445500Y-2603500D01*
X+8445500Y-4635500D01*
X+8382000Y-4699000D01*
X+5446741Y-4699000D01*
X+5383241Y-4762500D01*
X+5383241Y-5524500D01*
X+4386600Y-5524500D01*
X+4240241Y-5378141D01*
X+7112000Y-4127500D02*
X+7747000Y-4127500D01*
X+7810500Y-4191000D01*
X+7810500Y-4445000D01*
X+7747000Y-4508500D01*
X+5080000Y-4508500D01*
X+4875241Y-4713259D01*
X+4875241Y-5251141D01*
X+4367240Y-5251141D01*
X+4240241Y-5124141D01*
X+4240241Y-5124142D01*
X+1397000Y-3937000D02*
X+1460500Y-3873500D01*
X+4953000Y-3873500D01*
X+5207000Y-3619500D01*
X+6731000Y-3619500D01*
X+6985000Y-3873500D01*
X+8128000Y-3873500D01*
X-7556500Y-4889500D02*
X-7556500Y-4318000D01*
X-7493000Y-4254500D01*
X-4127500Y-4254500D01*
X+5270500Y-4953000D02*
X+5270500Y-4699000D01*
X+5334000Y-4635500D01*
X+8318500Y-4635500D01*
X+8382000Y-4572000D01*
X+8382000Y-2667000D01*
X+8318500Y-2603500D01*
X+7683500Y-2603500D01*
X+7620000Y-2540000D01*
X+7620000Y-1079500D01*
X+7556500Y-1016000D01*
X+6794500Y-1016000D01*
X+6731000Y-952500D01*
X+6731000Y-444500D01*
X+6794500Y-381000D01*
X+8191500Y-381000D01*
X+8255000Y-317500D01*
X+8255000Y+230200D01*
X+7998241Y+486959D01*
X+2222500Y-6223000D02*
X+2159000Y-6159500D01*
X+1841500Y-6159500D01*
X+1778000Y-6223000D01*
X+1778000Y-6337917D01*
X+1841500Y-6401417D01*
X+6743083Y-6401417D01*
X+6858000Y-6286500D01*
X+6858000Y-5715000D01*
X+7034241Y-5538759D01*
X+7034241Y-5378141D01*
X-4259759Y-5371041D02*
X-4106300Y-5524500D01*
X-3238500Y-5524500D01*
X-3175000Y-5461000D01*
X-3175000Y-4953000D01*
X-3108061Y-4886061D01*
X-2667000Y-4886061D01*
X-2569632Y-4788693D01*
X-2569632Y-3716868D01*
X-2667000Y-3619500D01*
X-2667000Y+72200D01*
X-3081759Y+486959D01*
X+6731000Y-2794000D02*
X+8128000Y-2794000D01*
X+8191500Y-2857500D01*
X+8191500Y-3556000D01*
X+8128000Y-3619500D01*
X+7556500Y-3619500D01*
X+7493000Y-3556000D01*
X+4889500Y-3556000D01*
X+4826000Y-3619500D01*
X+1143000Y+5334000D02*
X-1524000Y+5334000D01*
X-1651000Y+5461000D01*
X-8223000Y+5461000D01*
X-8380000Y+5304000D01*
X-2413000Y-5588000D02*
X+2984500Y-5588000D01*
X+3048000Y-5524500D01*
X+3048000Y-4953000D01*
X+3111500Y-4889500D01*
X+4254500Y-4889500D01*
X+4572000Y-4572000D01*
X+4826000Y-4572000D01*
X+1143000Y-4889500D02*
X+806741Y-4889500D01*
X+743241Y-4953000D01*
X+743241Y-5254041D01*
X+235241Y-5254041D01*
X+108241Y-5381041D01*
X-7302500Y-4889500D02*
X-7302500Y-4635500D01*
X-7239000Y-4572000D01*
X-4445000Y-4572000D01*
X-4381500Y-4508500D01*
X-4381500Y-4381500D01*
X-2413000Y-4953000D02*
X-2540000Y-4953000D01*
X-2984500Y-5397500D01*
X-2984500Y-6223000D01*
X-3048000Y-6286500D01*
X-8763000Y-6286500D01*
X-8826500Y-6223000D01*
X-8826500Y+5461000D01*
X-8763000Y+5524500D01*
X-1968500Y+5524500D01*
X-1714500Y+5778500D01*
X+4064000Y+5778500D01*
X+0Y-3873500D02*
X-508000Y-3873500D01*
X-571500Y-3810000D01*
X-1905000Y-3810000D01*
X-2349500Y-4254500D01*
X-2446865Y-4254500D01*
X-2510365Y-4191000D01*
X-2510365Y-3111500D01*
X-2603500Y-3018365D01*
X-2603500Y-889000D01*
X-2540000Y-825500D01*
X-2286000Y-825500D01*
X-1905000Y-1206500D01*
X+889000Y-1206500D01*
X-4000500Y-2794000D02*
X-4368818Y-2794000D01*
X-4605759Y-3030941D01*
X-6604000Y-2222500D02*
X-6159500Y-2222500D01*
X+6477000Y-3746500D02*
X+5969000Y-3746500D01*
X+5715000Y-4000500D01*
X+2095500Y-4000500D01*
X+1841500Y-4254500D01*
X-1987259Y-4254500D01*
X-2050759Y-4318000D01*
X-2050759Y-5254041D01*
X-2177759Y-5381041D01*
X+444500Y-3873500D02*
X+889000Y-3873500D01*
X+7429500Y-6159500D02*
X+7136166Y-6452834D01*
X-1611666Y-6452834D01*
X-1778000Y-6286500D01*
X+6350000Y+4064000D02*
X+7175500Y+4064000D01*
X+7239000Y+4127500D01*
X+7239000Y+4699000D01*
X+7302500Y+4762500D01*
X+8953500Y+4762500D01*
X+9017000Y+4699000D01*
X+9017000Y-6096000D01*
X+8953500Y-6159500D01*
X+7683500Y-6159500D01*
X+254000Y-3556000D02*
X+213556Y-3515556D01*
X-2008944Y-3515556D01*
X-2095500Y-3429000D01*
X-2095500Y-2794000D01*
X-2032000Y-2730500D01*
X+127000Y-2730500D01*
X+254000Y-2857500D01*
X-7175500Y-4699000D02*
X-6921500Y-4953000D01*
X-6921500Y-5249300D01*
X-6799759Y-5371041D01*
X-4889500Y-2476500D02*
X-4859759Y-2506241D01*
X-4859759Y-3030941D01*
X+6223000Y-4064000D02*
X+2413000Y-4064000D01*
X+2159000Y-4318000D01*
X-1733259Y-4318000D01*
X-1796759Y-4381500D01*
X-1796759Y-5254041D01*
X-1923759Y-5381041D01*
X-4953000Y-4699000D02*
X-6736259Y-4699000D01*
X-6799759Y-4762500D01*
X-6799759Y-5117041D01*
X+5969000Y+4191000D02*
X+7048500Y+4191000D01*
X+7112000Y+4254500D01*
X+7112000Y+4826000D01*
X+7261000Y+4975000D01*
X+7261000Y+6074000D01*
X+7175500Y+6159500D01*
X-8763000Y+6159500D01*
X-317500Y-3746500D02*
X-2095500Y-3746500D01*
X-2159000Y-3683000D01*
X-2159000Y-2730500D01*
X-2095500Y-2667000D01*
X+292741Y-2667000D01*
X+356241Y-2730500D01*
X+356241Y-3040941D01*
X-127000Y-4889500D02*
X+378700Y-4889500D01*
X+616241Y-5127041D01*
X-7556500Y-571500D02*
X-5177259Y-571500D01*
X-5113759Y-635000D01*
X-5113759Y-3030941D01*
X-8382000Y-3048000D02*
X-8382000Y-889000D01*
X-8382000Y-3556000D02*
X-8445500Y-3619500D01*
X-8445500Y-5524500D01*
X-8382000Y-5588000D01*
X-6762718Y-5588000D01*
X-6545759Y-5371041D01*
X+3937000Y-5969000D02*
X+3873500Y-6032500D01*
X-1651000Y-6032500D01*
X+5969000Y-4191000D02*
X+6604000Y-4191000D01*
X+381000Y-3556000D02*
X+1016000Y-3556000D01*
X+3302000Y-4381500D02*
X+3238500Y-4445000D01*
X-1333500Y-4445000D01*
X-1397000Y-4508500D01*
X-1397000Y-4699000D01*
X+5715000Y-2603500D02*
X+4826000Y-2603500D01*
X+2540000Y-5207000D02*
X+2492959Y-5254041D01*
X+997241Y-5254041D01*
X+870241Y-5127041D01*
X-5461000Y-1397000D02*
X-5367759Y-1490241D01*
X-5367759Y-3030941D01*
X-6921500Y-5778500D02*
X-6699218Y-5778500D01*
X-6291759Y-5371041D01*
X+4254500Y-4762500D02*
X+4191000Y-4826000D01*
X+2909889Y-4826000D01*
X+2846389Y-4889500D01*
X+2846389Y-5408611D01*
X+2730500Y-5524500D01*
X-1272300Y-5524500D01*
X-1415759Y-5381041D01*
X+5715000Y-4191000D02*
X+4254500Y-4191000D01*
X-5461000Y-4953000D02*
X-6127718Y-4953000D01*
X-6291759Y-5117041D01*
X+7620000Y-254000D02*
X+6783077Y-254000D01*
X+6211577Y-825500D01*
X+2984500Y-825500D01*
X+2921000Y-889000D01*
X+6921500Y-4000500D02*
X+8128000Y-4000500D01*
X-3365500Y+698500D02*
X-3323041Y+740959D01*
X-3081759Y+740959D01*
X-3365500Y-2730500D02*
X-2921000Y-2730500D01*
X-2857500Y-2794000D01*
X-2857500Y-4508500D01*
X-2921000Y-4572000D01*
X-4196259Y-4572000D01*
X-4259759Y-4635500D01*
X-4259759Y-5117041D01*
X+5715000Y+4762500D02*
X+5651500Y+4699000D01*
X-1270000Y+4699000D01*
X-1333500Y+4635500D01*
X-5461000Y+4635500D01*
X+2730500Y+571500D02*
X+2540000Y+762000D01*
X+2540000Y+1841500D01*
X+2476500Y+1905000D01*
X-127000Y+1905000D01*
X+1270000Y-4953000D02*
X+2476500Y-4953000D01*
X+2603500Y-4826000D01*
X-5969000Y-5778500D02*
X-6037759Y-5709741D01*
X-6037759Y-5371041D01*
X-4762500Y-2603500D02*
X-2857500Y-2603500D01*
X-2794000Y-2667000D01*
X-2794000Y-4635500D01*
X-2857500Y-4699000D01*
X-4127500Y-4699000D01*
X-5461000Y-2603500D02*
X-5621759Y-2764259D01*
X-5621759Y-3030941D01*
X-1143000Y-4127500D02*
X+1651000Y-4127500D01*
X+1841500Y-3937000D01*
X+5270500Y-3937000D01*
X+5334000Y-3873500D01*
X-5651500Y-4381500D02*
X-6032500Y-4381500D01*
X+5143500Y-2730500D02*
X+5204241Y-2791241D01*
X+5204241Y-3030941D01*
X+7493000Y-2349500D02*
X+5143500Y-2349500D01*
X+7366000Y-3746500D02*
X+8128000Y-3746500D01*
X+7366000Y-4318000D02*
X+7302500Y-4381500D01*
X+3683000Y-4381500D01*
X+3556000Y-4508500D01*
X-1098259Y-4508500D01*
X-1161759Y-4572000D01*
X-1161759Y-5127041D01*
X-1161759Y-5127042D01*
X+2032000Y-4699000D02*
X+1778000Y-4699000D01*
X-381000Y-2540000D02*
X+2857500Y-2540000D01*
X+2921000Y-2603500D01*
X+2921000Y-2921000D01*
X+3175000Y-3175000D01*
X+3175000Y-3302000D01*
X+2857500Y-3619500D01*
X+1587500Y-3619500D01*
X+1524000Y-3556000D01*
X-6032500Y-1206500D02*
X-6477000Y-762000D01*
X-8509000Y-762000D01*
X-8572500Y-825500D01*
X-8572500Y-6032500D01*
X-8509000Y-6096000D01*
X-5847259Y-6096000D01*
X-5783759Y-6032500D01*
X-5783759Y-5371041D01*
X-5588000Y-1206500D02*
X-5588000Y-2286000D01*
X-5715000Y-2413000D01*
X-5715000Y-2794000D01*
X-5778500Y-2857500D01*
X-5875759Y-2857500D01*
X-5875759Y-3030941D01*
X-889000Y-5715000D02*
X-825500Y-5651500D01*
X+3156535Y-5651500D01*
X+3220035Y-5588000D01*
X+3220035Y-5034965D01*
X+3302000Y-4953000D01*
X+4445000Y-4953000D01*
X+4508500Y-4889500D01*
X+4508500Y-4762500D01*
X+5397500Y+1968500D02*
X+8088520Y+1968500D01*
X+8152020Y+2032000D01*
X+8152020Y+2286000D01*
X+8318500Y+2452480D01*
X+8318500Y+2730500D01*
X+2794000Y-6223000D02*
X+6589741Y-6223000D01*
X+6653241Y-6159500D01*
X+6653241Y-5065741D01*
X+6540500Y-4953000D01*
X+6443381Y-4953000D01*
X+6272241Y-5124141D01*
X+6272240Y-5124141D01*
X-635000Y-2349500D02*
X+1905000Y-2349500D01*
X+2032000Y-2476500D01*
X+2667000Y-2476500D01*
X+2921000Y-2222500D01*
X+6985000Y-6096000D02*
X+7149320Y-5931680D01*
X+7149320Y-5340821D01*
X+7239000Y-5251141D01*
X+8177241Y-5251141D01*
X+8304241Y-5124141D01*
X-2857500Y-5461000D02*
X-2857500Y-6096000D01*
X-2794000Y-6159500D01*
X+1333500Y-6159500D01*
X+1397000Y-6096000D01*
X+4000500Y-6096000D01*
X+4127500Y-5969000D01*
X+5143500Y-5969000D01*
X+5270500Y-6096000D01*
X+6540500Y-6096000D01*
X-4572000Y-2476500D02*
X-2794000Y-2476500D01*
X-2730500Y-2540000D01*
X-2730500Y-4254500D01*
X-2667000Y-4318000D01*
X-5842000Y-2730500D02*
X-6066259Y-2730500D01*
X-6129759Y-2794000D01*
X-6129759Y-3030941D01*
X+1968500Y-6286500D02*
X+2032000Y-6350000D01*
X+6716741Y-6350000D01*
X+6780241Y-6286500D01*
X+6780241Y-5378141D01*
X+4696241Y-3030941D02*
X+4696241Y-2540000D01*
X+4759741Y-2476500D01*
X+7298118Y-2476500D01*
X+7488618Y-2667000D01*
X+8255000Y-2667000D01*
X+8318500Y-2730500D01*
X+8318500Y-4508500D01*
X+8255000Y-4572000D01*
X+5207000Y-4572000D01*
X+5129241Y-4649759D01*
X+5129241Y-5251141D01*
X+5002241Y-5378141D01*
X+1460500Y-2222500D02*
X-254000Y-2222500D01*
X+3048000Y-3302000D02*
X+2794000Y-3048000D01*
X+2794000Y-2730500D01*
X+2730500Y-2667000D01*
X+1460500Y-2667000D01*
X+4635500Y-4699000D02*
X+4635500Y-4943321D01*
X+4572000Y-5006821D01*
X+4186420Y-5006821D01*
X+4113241Y-5080000D01*
X+4113241Y-5729259D01*
X+4000500Y-5842000D01*
X+3302000Y-5842000D01*
X-5275759Y-5371041D02*
X-5275759Y-6096000D01*
X-5339259Y-6159500D01*
X-8572500Y-6159500D01*
X-8636000Y-6096000D01*
X-8636000Y-762000D01*
X-8572500Y-698500D01*
X-5778500Y-698500D01*
X-5715000Y-762000D01*
X-5715000Y-2095500D01*
X-5842000Y-2222500D01*
X-5842000Y-2540000D01*
X-5905500Y-2603500D01*
X-6286500Y-2603500D01*
X-6383759Y-2700759D01*
X-6383759Y-3030941D01*
X+4699000Y-3746500D02*
X+4635500Y-3810000D01*
X+1206500Y-3810000D01*
X+1016000Y-4000500D01*
X-635000Y-4000500D01*
X-762000Y-3873500D01*
X-1524000Y-3873500D01*
X-1587500Y-3937000D01*
X-1587500Y-4064000D01*
X-1524000Y-4127500D01*
X-1270000Y-4127500D01*
X+1651000Y-4699000D02*
X-889000Y-4699000D01*
X-5270500Y-3746500D02*
X-6223000Y-3746500D01*
X+2476500Y-4191000D02*
X+2286000Y-4381500D01*
X-1479259Y-4381500D01*
X-1542759Y-4445000D01*
X-1542759Y-5171782D01*
X-1460500Y-5254041D01*
X-780759Y-5254041D01*
X-653759Y-5381041D01*
X+2603500Y-190500D02*
X+2667000Y-254000D01*
X+2667000Y-952500D01*
X+2730500Y-1016000D01*
X+2921000Y-1016000D01*
X+3048000Y-889000D01*
X+5270500Y-889000D01*
X+5524500Y-1143000D01*
X+7239000Y-1143000D01*
X+7302500Y-1206500D01*
X+7302500Y-1856356D01*
X+7239000Y-1919856D01*
X+4554385Y-1919856D01*
X+4442241Y-2032000D01*
X+4442241Y-3030941D01*
X-2667000Y-5842000D02*
X+1841500Y-5842000D01*
X+1905000Y-5778500D01*
X-5905500Y-1968500D02*
X-5905500Y-2476500D01*
X-5969000Y-2540000D01*
X-6574259Y-2540000D01*
X-6637759Y-2603500D01*
X-6637759Y-3030941D01*
X-6921500Y-3746500D02*
X-8001000Y-3746500D01*
X-8064500Y-3683000D01*
X-8064500Y-3556000D01*
X-8001000Y-3492500D01*
X-7683500Y-3492500D01*
X-7620000Y-3429000D01*
X-7620000Y-2032000D01*
X-7556500Y-1968500D01*
X-6159500Y-1968500D01*
X-635000Y-3619500D02*
X+0Y-3619500D01*
X+63500Y-3683000D01*
X+3683000Y-3683000D01*
X+3937000Y-3429000D01*
X+4329320Y-3429000D01*
X+4329320Y-3397862D01*
X+4442241Y-3284941D01*
X+1270000Y-3492500D02*
X+1227198Y-3449698D01*
X-1013002Y-3449698D01*
X-1167759Y-3294941D01*
X-5016500Y-4826000D02*
X-6540500Y-4826000D01*
X+8191500Y+2603500D02*
X+8191500Y+3556000D01*
X+2984500Y-1524000D02*
X+3021220Y-1487280D01*
X+3021220Y-1306720D01*
X+2921000Y-1206500D01*
X+2667000Y-1206500D01*
X+2603500Y-1143000D01*
X+2603500Y-381000D01*
X+2540000Y-317500D01*
X+2222500Y-317500D01*
X+2159000Y-254000D01*
X+2159000Y+755718D01*
X+2388241Y+984959D01*
X+5016500Y-6096000D02*
X+4191000Y-6096000D01*
X+7302500Y-6096000D02*
X+7288241Y-6081741D01*
X+7288241Y-5378141D01*
X-3746500Y-4191000D02*
X-3365500Y-4191000D01*
X+4064000Y-2476500D02*
X+4188241Y-2600741D01*
X+4188241Y-3030941D01*
X+2032000Y-5905500D02*
X+3111500Y-5905500D01*
X+3175000Y-5842000D01*
X-2540000Y-5715000D02*
X-1079500Y-5715000D01*
X-7810500Y-5778500D02*
X-7815137Y-5783137D01*
X-8440863Y-5783137D01*
X-8509000Y-5715000D01*
X-8509000Y-3492500D01*
X-8445500Y-3429000D01*
X-7747000Y-3429000D01*
X-7683500Y-3365500D01*
X-7683500Y-1905000D01*
X-7620000Y-1841500D01*
X-6096000Y-1841500D01*
X-6032500Y-1905000D01*
X-6032500Y-2413000D01*
X-6096000Y-2476500D01*
X-6828259Y-2476500D01*
X-6891759Y-2540000D01*
X-6891759Y-3030941D01*
X-4762500Y-6096000D02*
X-4767759Y-6090741D01*
X-4767759Y-5371041D01*
X+3810000Y-4572000D02*
X-952500Y-4572000D01*
X-1016000Y-4635500D01*
X-1016000Y-4889500D01*
X-952500Y-4953000D01*
X-573801Y-4953000D01*
X-399759Y-5127041D01*
X-399759Y-5127042D01*
X+1651000Y-4000500D02*
X+1587500Y-4064000D01*
X-825500Y-4064000D01*
X-889000Y-4000500D01*
X-1397000Y-4000500D01*
X-4826000Y-3556000D02*
X-6620700Y-3556000D01*
X-6891759Y-3284941D01*
X+4318000Y-2476500D02*
X+4127500Y-2286000D01*
X+3997741Y-2286000D01*
X+3934241Y-2349500D01*
X+3934241Y-3030941D01*
X+2476500Y-4826000D02*
X+1524000Y-4826000D01*
X+1460500Y-4762500D01*
X-209259Y-4762500D01*
X-272759Y-4826000D01*
X-272759Y-5254041D01*
X-145759Y-5381041D01*
X-6477000Y-2349500D02*
X-7082259Y-2349500D01*
X-7145759Y-2413000D01*
X-7145759Y-3030941D01*
X-6477000Y+1397000D02*
X-8636000Y+1397000D01*
X-8699500Y+1333500D01*
X-8699500Y-6159500D01*
X-8636000Y-6223000D01*
X-4577259Y-6223000D01*
X-4513759Y-6159500D01*
X-4513759Y-5371041D01*
X+3937000Y-3556000D02*
X+3937000Y-3683000D01*
X+3873500Y-3746500D01*
X-127000Y-3746500D01*
X-4508500Y-4445000D02*
X-4572000Y-4508500D01*
X-6667500Y-4508500D01*
X-6731000Y-4445000D01*
X+8699500Y-5842000D02*
X+8699500Y+1333500D01*
X+8636000Y+1397000D01*
X+8318500Y+1397000D01*
X+6604000Y-2794000D02*
X+6697070Y-2887070D01*
X+8139320Y-2887070D01*
X+8139320Y-3417680D01*
X+8064500Y-3492500D01*
X+7620000Y-3492500D01*
X+2857500Y+1270000D02*
X+2984500Y+1397000D01*
X+5651500Y+1397000D01*
X+6604000Y+444500D01*
X-508000Y+1397000D02*
X-2667000Y+1397000D01*
X-2815041Y+1248959D01*
X-3081759Y+1248959D01*
X-2413000Y-4127500D02*
X-2222500Y-3937000D01*
X-2222500Y-2667000D01*
X-2159000Y-2603500D01*
X-1333500Y-2603500D01*
X-1270000Y-2540000D01*
X-1270000Y-1968500D01*
X-3111500Y-5715000D02*
X-3111500Y-5143500D01*
X-3048000Y-5080000D01*
X-2921000Y-5080000D01*
X+8318500Y+1524000D02*
X+8318500Y+1968500D01*
X+8382000Y+2032000D01*
X+8763000Y+2032000D01*
X+8826500Y+1968500D01*
X+8826500Y-5905500D01*
X+8763000Y-5969000D01*
X+8636000Y-5969000D01*
X+8572500Y-5905500D01*
X+7366000Y+4889500D02*
X+9017000Y+4889500D01*
X+9080500Y+4826000D01*
X+9080500Y-6223000D01*
X+9017000Y-6286500D01*
X+7605741Y-6286500D01*
X+7542241Y-6223000D01*
X+7542241Y-5378141D01*
X+3810000Y-127000D02*
X+6731000Y-127000D01*
X+8445500Y+1270000D02*
X+8572500Y+1270000D01*
X+8636000Y+1206500D01*
X+8636000Y-4826000D01*
X+8572500Y-4889500D01*
X+6208740Y-4889500D01*
X+6145240Y-4953000D01*
X+6145240Y-5524500D01*
X+5910600Y-5524500D01*
X+5764241Y-5378141D01*
X+2603500Y-4318000D02*
X+2635250Y-4286250D01*
X+7016750Y-4286250D01*
X+7048500Y-4254500D01*
X-3302000Y-4826000D02*
X-3460718Y-4826000D01*
X-3751759Y-5117041D01*
X+8255000Y+2159000D02*
X+8255000Y+1905000D01*
X+8191500Y+1841500D01*
X+8191500Y+1333500D01*
X+8572500Y+952500D01*
X+8572500Y-4762500D01*
X+8509000Y-4826000D01*
X+5954740Y-4826000D01*
X+5891240Y-4889500D01*
X+5891240Y-5251141D01*
X+5637240Y-5251141D01*
X+5510241Y-5124141D01*
X+5510241Y-5124142D01*
X+3048000Y+3937000D02*
X+7366000Y+3937000D01*
X+7429500Y+4000500D01*
X+7429500Y+4635500D01*
X+7493000Y+4699000D01*
X+8890000Y+4699000D01*
X+8953500Y+4635500D01*
X+8953500Y-6032500D01*
X+8890000Y-6096000D01*
X+7859741Y-6096000D01*
X+7796241Y-6032500D01*
X+7796241Y-5378141D01*
X-3302000Y-5143500D02*
X-3402541Y-5244041D01*
X-5402759Y-5244041D01*
X-5529759Y-5371041D01*
X+7542241Y-5124141D02*
X+7713382Y-4953000D01*
X+8382000Y-4953000D01*
X+8445500Y-5016500D01*
X+8445500Y-5969000D01*
X+8509000Y-6032500D01*
X+8826500Y-6032500D01*
X+8890000Y-5969000D01*
X+8890000Y+4572000D01*
X+8826500Y+4635500D01*
X+7747000Y+4635500D01*
X+7665717Y+4554217D01*
X+7665717Y+3873500D01*
X+7602217Y+3810000D01*
X+2603500Y+3810000D01*
X+2540000Y+3746500D01*
X+2540000Y+2533718D01*
X+2388241Y+2381959D01*
X+2921000Y+4127500D02*
X+5207000Y+4127500D01*
X-2222500Y+5143500D02*
X+2921000Y+5143500D01*
X-8382000Y+4826000D02*
X-8572500Y+4635500D01*
X-8572500Y+2159000D01*
X-7937500Y+1524000D01*
X-825500Y+5905500D02*
X+3175000Y+5905500D01*
X+6604000Y+4889500D02*
X+6499000Y+4994500D01*
X+6499000Y+5097500D01*
X+6413500Y+5183000D01*
X+3238500Y+5183000D01*
X+3182750Y+5238750D01*
X-1682750Y+5238750D01*
X-1714500Y+5270500D01*
X-381000Y+5588000D02*
X-317500Y+5524500D01*
X+6665500Y+5524500D01*
X+6880000Y+5310000D01*
X+1968500Y-1397000D02*
X-1505018Y-1397000D01*
X-2437759Y-2329741D01*
X+2667000Y+4381500D02*
X+6816500Y+4381500D01*
X+6880000Y+4445000D01*
X+6880000Y+5056000D01*
X-254000Y-1651000D02*
X-1353259Y-1651000D01*
X-2286000Y-2583741D01*
X-2437759Y-2583741D01*
X-254000Y+6032500D02*
X+7070500Y+6032500D01*
X+7134000Y+5969000D01*
X+7134000Y+5310000D01*
X-6604000Y-889000D02*
X-8064500Y-889000D01*
X-8128000Y-952500D01*
X-8128000Y-2353500D01*
X-7907759Y-2573741D01*
X+5080000Y-1270000D02*
X+3429000Y-1270000D01*
X+3365500Y-1333500D01*
X+3365500Y-2634482D01*
X+3172241Y-2827741D01*
X+6985000Y+5905500D02*
X+6921500Y+5969000D01*
X+5207000Y+5969000D01*
X+4921250Y+5683250D01*
X-984250Y+5683250D01*
X-1016000Y+5651500D01*
X-2095500Y+4889500D02*
X+5189500Y+4889500D01*
X+5356000Y+5056000D01*
X-8509000Y+5143500D02*
X-8475500Y+5177000D01*
X-8001000Y+5177000D01*
X-8001000Y+4889500D01*
X-2349500Y+3873500D02*
X+254000Y+3873500D01*
X+952500Y+4572000D01*
X+2476500Y+4572000D01*
X+2540000Y+4508500D01*
X+2540000Y+4318000D01*
X+2603500Y+4254500D01*
X+5461000Y+4254500D01*
X+5588000Y+4889500D02*
X+5461000Y+4762500D01*
X-1968500Y+4762500D01*
X+3683000Y+444500D02*
X+3683000Y-18282D01*
X+3172241Y-529041D01*
X-1397000Y+5461000D02*
X+5713000Y+5461000D01*
X+5864000Y+5310000D01*
X+3492500Y+190500D02*
X+3492500Y+45218D01*
X+3172241Y-275041D01*
X-1587500Y+5016500D02*
X+3048000Y+5016500D01*
X+2857500Y+1143000D02*
X+2762250Y+1238250D01*
X+2762250Y+1936750D01*
X+2667000Y+2032000D01*
X+2603500Y+2032000D01*
X+2540000Y+1968500D01*
X+1968500Y+1968500D01*
X+1841500Y+2095500D01*
X-254000Y+2095500D01*
X-317500Y+2032000D01*
X-317500Y+1714500D01*
X-254000Y+1651000D01*
X+127000Y+1651000D01*
X+190500Y+1587500D01*
X+190500Y+32459D01*
X+127000Y-31041D01*
X-2437759Y-31041D01*
X+5842000Y-381000D02*
X+3937000Y-381000D01*
X+4064000Y+825500D02*
X+3764782Y+825500D01*
X+3172241Y+232959D01*
X+6096000Y+4635500D02*
X+127000Y+4635500D01*
X-396515Y+4111985D01*
X-1825985Y+4111985D01*
X-1841500Y+4127500D01*
X-8318500Y+4318000D02*
X-8296820Y+4296320D01*
X-7578180Y+4296320D01*
X-7493000Y+4381500D01*
X-7493000Y+5175000D01*
X-7364000Y+5304000D01*
X+2921000Y-1333500D02*
X+2603500Y-1333500D01*
X+2540000Y-1270000D01*
X+2540000Y-444500D01*
X+2476500Y-381000D01*
X-889000Y-381000D01*
X-1524000Y-1016000D01*
X+6096000Y+508000D02*
X+4064000Y+508000D01*
X+1841500Y-1270000D02*
X+1797759Y-1313741D01*
X-2437759Y-1313741D01*
X+2794000Y+4508500D02*
X+6308500Y+4508500D01*
X+6372000Y+4572000D01*
X+6372000Y+5056000D01*
X+5207000Y+1968500D02*
X+5207000Y+3315988D01*
X+5270500Y+3379488D01*
X+7715770Y+3379488D01*
X+7998241Y+3661959D01*
X+3172241Y+1998259D02*
X+4191000Y+1998259D01*
X+4220759Y+1968500D01*
X+5207000Y+1968500D01*
X+2388241Y+3651959D02*
X+2378241Y+3661959D01*
X-3081759Y+3661959D01*
X-2437759Y+1988259D02*
X-2286000Y+1836500D01*
X-2286000Y+1587500D01*
X-2921000Y+1905000D02*
X-2540000Y+1524000D01*
X-2349500Y+1524000D01*
X-2286000Y+1587500D01*
X-7429500Y-3619500D02*
X-5080000Y-3619500D01*
X-5016500Y-3683000D01*
X-3492500Y-3683000D01*
X+0Y+1524000D02*
X-2222500Y+1524000D01*
X-2286000Y+1587500D01*
X-1929759Y-3040941D02*
X-1746318Y-2857500D01*
X+0Y-2857500D01*
X-7907759Y+1998259D02*
X-6443259Y+1998259D01*
X-6350000Y+1905000D01*
X-2921000Y+1905000D02*
X-6350000Y+1905000D01*
X-7399759Y-3030941D02*
X-7399759Y-2633241D01*
X-7429500Y-2603500D01*
X+3680241Y-3030941D02*
X+3680241Y-1780759D01*
X+3746500Y-1714500D01*
X+5207000Y-1714500D01*
X+2476500Y-4699000D02*
X+2540000Y-4635500D01*
X+3365500Y-4635500D01*
X+3429000Y-4699000D01*
D11*
X+2794000Y+2349500D03*
X+7366000Y+1460500D03*
X+2857500Y+3556000D03*
X+7112000Y+3683000D03*
X+8636000Y+2984500D03*
X+8636000Y+2286000D03*
X+7747000Y-190500D03*
X+2730500Y+3175000D03*
X+4635500Y-5651500D03*
X+2667000Y+1905000D03*
X+6096000Y-698500D03*
X+6096000Y-2667000D03*
X+8064500Y-4318000D03*
X+7175500Y-1587500D03*
X+3683000Y-3556000D03*
X+3810000Y-4699000D03*
X+7620000Y-4318000D03*
X+1016000Y+6286500D03*
X+1016000Y-2857500D03*
X-3810000Y-3810000D03*
X-8318500Y-3873500D03*
X+7112000Y-2222500D03*
X+5016500Y-2222500D03*
X-8191500Y-3238500D03*
X-5842000Y-1778000D03*
X+4445000Y-3619500D03*
X+7366000Y-3429000D03*
X+1524000Y+4191000D03*
X+2095500Y+4191000D03*
X+6985000Y-1460500D03*
X+3048000Y-3556000D03*
X+2984500Y-5778500D03*
X+3810000Y-5715000D03*
X-7937500Y-3619500D03*
X-6159500Y-2095500D03*
X+4318000Y-3556000D03*
X+698500Y-2730500D03*
X+698500Y+6286500D03*
X-3937000Y-4127500D03*
X+6858000Y-825500D03*
X+7112000Y-4127500D03*
X+8128000Y-3873500D03*
X+1397000Y-3937000D03*
X-4127500Y-4254500D03*
X-7556500Y-4889500D03*
X+5270500Y-4953000D03*
X+2222500Y-6223000D03*
X+4826000Y-3619500D03*
X+6731000Y-2794000D03*
X+1143000Y+5334000D03*
X+4826000Y-4572000D03*
X-2413000Y-5588000D03*
X+1143000Y-4889500D03*
X-4381500Y-4381500D03*
X-7302500Y-4889500D03*
X+4064000Y+5778500D03*
X-2413000Y-4953000D03*
X+889000Y-1206500D03*
X+0Y-3873500D03*
X-4000500Y-2794000D03*
X-6159500Y-2222500D03*
X-6604000Y-2222500D03*
X+6477000Y-3746500D03*
X+889000Y-3873500D03*
X+444500Y-3873500D03*
X-1778000Y-6286500D03*
X+7429500Y-6159500D03*
X+7683500Y-6159500D03*
X+6350000Y+4064000D03*
X+254000Y-2857500D03*
X+254000Y-3556000D03*
X-7175500Y-4699000D03*
X-4889500Y-2476500D03*
X+6223000Y-4064000D03*
X-4953000Y-4699000D03*
X-8763000Y+6159500D03*
X+5969000Y+4191000D03*
X-317500Y-3746500D03*
X-127000Y-4889500D03*
X-7556500Y-571500D03*
X-8382000Y-889000D03*
X-8382000Y-3048000D03*
X-8382000Y-3556000D03*
X-1651000Y-6032500D03*
X+3937000Y-5969000D03*
X+6604000Y-4191000D03*
X+5969000Y-4191000D03*
X+1016000Y-3556000D03*
X+381000Y-3556000D03*
X-1397000Y-4699000D03*
X+3302000Y-4381500D03*
X+4826000Y-2603500D03*
X+5715000Y-2603500D03*
X+2540000Y-5207000D03*
X-5461000Y-1397000D03*
X-6921500Y-5778500D03*
X+4254500Y-4762500D03*
X+4254500Y-4191000D03*
X+5715000Y-4191000D03*
X-5461000Y-4953000D03*
X+2921000Y-889000D03*
X+7620000Y-254000D03*
X+8128000Y-4000500D03*
X+6921500Y-4000500D03*
X-3365500Y+698500D03*
X-3365500Y-2730500D03*
X-5461000Y+4635500D03*
X+5715000Y+4762500D03*
X-127000Y+1905000D03*
X+2730500Y+571500D03*
X+2603500Y-4826000D03*
X+1270000Y-4953000D03*
X-5969000Y-5778500D03*
X-4127500Y-4699000D03*
X-4762500Y-2603500D03*
X-5461000Y-2603500D03*
X+5334000Y-3873500D03*
X-1143000Y-4127500D03*
X-6032500Y-4381500D03*
X-5651500Y-4381500D03*
X+5143500Y-2730500D03*
X+5143500Y-2349500D03*
X+7493000Y-2349500D03*
X+8128000Y-3746500D03*
X+7366000Y-3746500D03*
X+7366000Y-4318000D03*
X+1778000Y-4699000D03*
X+2032000Y-4699000D03*
X+1524000Y-3556000D03*
X-381000Y-2540000D03*
X-6032500Y-1206500D03*
X-5588000Y-1206500D03*
X+4508500Y-4762500D03*
X-889000Y-5715000D03*
X+8318500Y+2730500D03*
X+5397500Y+1968500D03*
X+2794000Y-6223000D03*
X+2921000Y-2222500D03*
X-635000Y-2349500D03*
X+6985000Y-6096000D03*
X+6540500Y-6096000D03*
X-2857500Y-5461000D03*
X-2667000Y-4318000D03*
X-4572000Y-2476500D03*
X-5842000Y-2730500D03*
X+1968500Y-6286500D03*
X-254000Y-2222500D03*
X+1460500Y-2222500D03*
X+1460500Y-2667000D03*
X+3048000Y-3302000D03*
X+3302000Y-5842000D03*
X+4635500Y-4699000D03*
X-1270000Y-4127500D03*
X+4699000Y-3746500D03*
X-889000Y-4699000D03*
X+1651000Y-4699000D03*
X-6223000Y-3746500D03*
X-5270500Y-3746500D03*
X+2476500Y-4191000D03*
X+2603500Y-190500D03*
X+1905000Y-5778500D03*
X-2667000Y-5842000D03*
X-5905500Y-1968500D03*
X-6159500Y-1968500D03*
X-6921500Y-3746500D03*
X-635000Y-3619500D03*
X+1270000Y-3492500D03*
X-6540500Y-4826000D03*
X-5016500Y-4826000D03*
X+8191500Y+3556000D03*
X+8191500Y+2603500D03*
X+2984500Y-1524000D03*
X+4191000Y-6096000D03*
X+5016500Y-6096000D03*
X+7302500Y-6096000D03*
X-3365500Y-4191000D03*
X-3746500Y-4191000D03*
X+4064000Y-2476500D03*
X+3175000Y-5842000D03*
X+2032000Y-5905500D03*
X-1079500Y-5715000D03*
X-2540000Y-5715000D03*
X-7810500Y-5778500D03*
X-4762500Y-6096000D03*
X+3810000Y-4572000D03*
X-1397000Y-4000500D03*
X+1651000Y-4000500D03*
X-4826000Y-3556000D03*
X+4318000Y-2476500D03*
X+2476500Y-4826000D03*
X-6477000Y-2349500D03*
X-6477000Y+1397000D03*
X-127000Y-3746500D03*
X+3937000Y-3556000D03*
X-6731000Y-4445000D03*
X-4508500Y-4445000D03*
X+8318500Y+1397000D03*
X+8699500Y-5842000D03*
X+7620000Y-3492500D03*
X+6604000Y-2794000D03*
X+6604000Y+444500D03*
X+2857500Y+1270000D03*
X-508000Y+1397000D03*
X-1270000Y-1968500D03*
X-2413000Y-4127500D03*
X-2921000Y-5080000D03*
X-3111500Y-5715000D03*
X+8572500Y-5905500D03*
X+8318500Y+1524000D03*
X+7366000Y+4889500D03*
X+6731000Y-127000D03*
X+3810000Y-127000D03*
X+8445500Y+1270000D03*
X+7048500Y-4254500D03*
X+2603500Y-4318000D03*
X-3302000Y-4826000D03*
X+8255000Y+2159000D03*
X+3048000Y+3937000D03*
X-3302000Y-5143500D03*
X+5207000Y+4127500D03*
X+2921000Y+4127500D03*
X+2921000Y+5143500D03*
X-2222500Y+5143500D03*
X-7937500Y+1524000D03*
X-8382000Y+4826000D03*
X+3175000Y+5905500D03*
X-825500Y+5905500D03*
X-1714500Y+5270500D03*
X+6604000Y+4889500D03*
X-381000Y+5588000D03*
X+1968500Y-1397000D03*
X+2667000Y+4381500D03*
X-254000Y-1651000D03*
X-254000Y+6032500D03*
X-6604000Y-889000D03*
X+5080000Y-1270000D03*
X-1016000Y+5651500D03*
X+6985000Y+5905500D03*
X-2095500Y+4889500D03*
X-8001000Y+4889500D03*
X-8509000Y+5143500D03*
X+5461000Y+4254500D03*
X-2349500Y+3873500D03*
X-1968500Y+4762500D03*
X+5588000Y+4889500D03*
X+3683000Y+444500D03*
X-1397000Y+5461000D03*
X+3492500Y+190500D03*
X+3048000Y+5016500D03*
X-1587500Y+5016500D03*
X+2857500Y+1143000D03*
X+3937000Y-381000D03*
X+5842000Y-381000D03*
X+4064000Y+825500D03*
X-1841500Y+4127500D03*
X+6096000Y+4635500D03*
X-8318500Y+4318000D03*
X-1524000Y-1016000D03*
X+2921000Y-1333500D03*
X+4064000Y+508000D03*
X+6096000Y+508000D03*
X+1841500Y-1270000D03*
X+2794000Y+4508500D03*
X-3492500Y-3683000D03*
X-7429500Y-3619500D03*
X+0Y+1524000D03*
X+0Y-2857500D03*
X-6350000Y+1905000D03*
X-7429500Y-2603500D03*
X+5207000Y-1714500D03*
X+3429000Y-4699000D03*
X+2476500Y-4699000D03*
X+5207000Y+1968500D03*
D10*
X-8337541Y+5418299D02*
X-8427344Y+5418299D01*
X-8494299Y+5351344D01*
X-8494299Y+5256656D01*
X-8465442Y+5227799D01*
X-8467577Y+5227799D01*
X-8472177Y+5232399D01*
X-8545823Y+5232399D01*
X-8597899Y+5180323D01*
X-8597899Y+5106677D01*
X-8545823Y+5054601D01*
X-8494299Y+5054601D01*
X-8494299Y+5002656D01*
X-8427344Y+4935701D01*
X-8332656Y+4935701D01*
X-8265701Y+5002656D01*
X-8265701Y+5097344D01*
X-8294558Y+5126201D01*
X-8211442Y+5126201D01*
X-8240299Y+5097344D01*
X-8240299Y+5002656D01*
X-8173344Y+4935701D01*
X-8080521Y+4935701D01*
X-8089899Y+4926323D01*
X-8089899Y+4852677D01*
X-8037823Y+4800601D01*
X-7964177Y+4800601D01*
X-7912101Y+4852677D01*
X-7912101Y+4926323D01*
X-7950201Y+4964423D01*
X-7950201Y+4966558D01*
X-7919344Y+4935701D01*
X-7824656Y+4935701D01*
X-7757701Y+5002656D01*
X-7757701Y+5097344D01*
X-7824656Y+5164299D01*
X-7919344Y+5164299D01*
X-7950201Y+5133442D01*
X-7950201Y+5198041D01*
X-7979959Y+5227799D01*
X-8040558Y+5227799D01*
X-8011701Y+5256656D01*
X-8011701Y+5351344D01*
X-8070559Y+5410202D01*
X-7927441Y+5410202D01*
X-7986299Y+5351344D01*
X-7986299Y+5256656D01*
X-7919344Y+5189701D01*
X-7824656Y+5189701D01*
X-7757701Y+5256656D01*
X-7757701Y+5351344D01*
X-7816559Y+5410202D01*
X-7673441Y+5410202D01*
X-7732299Y+5351344D01*
X-7732299Y+5256656D01*
X-7665344Y+5189701D01*
X-7570656Y+5189701D01*
X-7503701Y+5256656D01*
X-7503701Y+5351344D01*
X-7562559Y+5410202D01*
X-7419441Y+5410202D01*
X-7478299Y+5351344D01*
X-7478299Y+5261541D01*
X-7543799Y+5196041D01*
X-7543799Y+5137442D01*
X-7570656Y+5164299D01*
X-7665344Y+5164299D01*
X-7732299Y+5097344D01*
X-7732299Y+5002656D01*
X-7665344Y+4935701D01*
X-7570656Y+4935701D01*
X-7543799Y+4962558D01*
X-7543799Y+4402541D01*
X-7599221Y+4347119D01*
X-8229601Y+4347119D01*
X-8229601Y+4354823D01*
X-8281677Y+4406899D01*
X-8355323Y+4406899D01*
X-8407399Y+4354823D01*
X-8407399Y+4281177D01*
X-8355323Y+4229101D01*
X-8281677Y+4229101D01*
X-8265257Y+4245521D01*
X-7557139Y+4245521D01*
X-7442201Y+4360459D01*
X-7442201Y+4966558D01*
X-7411344Y+4935701D01*
X-7316656Y+4935701D01*
X-7249701Y+5002656D01*
X-7249701Y+5097344D01*
X-7316656Y+5164299D01*
X-7411344Y+5164299D01*
X-7442201Y+5133442D01*
X-7442201Y+5153959D01*
X-7406459Y+5189701D01*
X-7316656Y+5189701D01*
X-7249701Y+5256656D01*
X-7249701Y+5351344D01*
X-7308559Y+5410202D01*
X-7165441Y+5410202D01*
X-7224299Y+5351344D01*
X-7224299Y+5256656D01*
X-7157344Y+5189701D01*
X-7062656Y+5189701D01*
X-6995701Y+5256656D01*
X-6995701Y+5351344D01*
X-7054559Y+5410202D01*
X-6911441Y+5410202D01*
X-6970299Y+5351344D01*
X-6970299Y+5256656D01*
X-6903344Y+5189701D01*
X-6808656Y+5189701D01*
X-6741701Y+5256656D01*
X-6741701Y+5351344D01*
X-6800559Y+5410202D01*
X-6657441Y+5410202D01*
X-6716299Y+5351344D01*
X-6716299Y+5256656D01*
X-6649344Y+5189701D01*
X-6554656Y+5189701D01*
X-6487701Y+5256656D01*
X-6487701Y+5351344D01*
X-6546559Y+5410202D01*
X-6403441Y+5410202D01*
X-6462299Y+5351344D01*
X-6462299Y+5256656D01*
X-6395344Y+5189701D01*
X-6300656Y+5189701D01*
X-6233701Y+5256656D01*
X-6233701Y+5351344D01*
X-6292559Y+5410202D01*
X-6149441Y+5410202D01*
X-6208299Y+5351344D01*
X-6208299Y+5256656D01*
X-6141344Y+5189701D01*
X-6046656Y+5189701D01*
X-5979701Y+5256656D01*
X-5979701Y+5351344D01*
X-6038559Y+5410202D01*
X-5895441Y+5410202D01*
X-5954299Y+5351344D01*
X-5954299Y+5256656D01*
X-5887344Y+5189701D01*
X-5792656Y+5189701D01*
X-5725701Y+5256656D01*
X-5725701Y+5351344D01*
X-5784559Y+5410202D01*
X-5641441Y+5410202D01*
X-5700299Y+5351344D01*
X-5700299Y+5256656D01*
X-5633344Y+5189701D01*
X-5538656Y+5189701D01*
X-5471701Y+5256656D01*
X-5471701Y+5351344D01*
X-5530559Y+5410202D01*
X-5387441Y+5410202D01*
X-5446299Y+5351344D01*
X-5446299Y+5256656D01*
X-5379344Y+5189701D01*
X-5284656Y+5189701D01*
X-5217701Y+5256656D01*
X-5217701Y+5351344D01*
X-5276559Y+5410202D01*
X-5133441Y+5410202D01*
X-5192299Y+5351344D01*
X-5192299Y+5256656D01*
X-5125344Y+5189701D01*
X-5030656Y+5189701D01*
X-4963701Y+5256656D01*
X-4963701Y+5351344D01*
X-5022559Y+5410202D01*
X-4879441Y+5410202D01*
X-4938299Y+5351344D01*
X-4938299Y+5256656D01*
X-4871344Y+5189701D01*
X-4776656Y+5189701D01*
X-4709701Y+5256656D01*
X-4709701Y+5351344D01*
X-4768559Y+5410202D01*
X-4625441Y+5410202D01*
X-4684299Y+5351344D01*
X-4684299Y+5256656D01*
X-4617344Y+5189701D01*
X-4522656Y+5189701D01*
X-4455701Y+5256656D01*
X-4455701Y+5351344D01*
X-4514559Y+5410202D01*
X-4371441Y+5410202D01*
X-4430299Y+5351344D01*
X-4430299Y+5256656D01*
X-4363344Y+5189701D01*
X-4268656Y+5189701D01*
X-4201701Y+5256656D01*
X-4201701Y+5351344D01*
X-4260559Y+5410202D01*
X-4117441Y+5410202D01*
X-4176299Y+5351344D01*
X-4176299Y+5256656D01*
X-4109344Y+5189701D01*
X-4014656Y+5189701D01*
X-3947701Y+5256656D01*
X-3947701Y+5351344D01*
X-4006559Y+5410202D01*
X-3863441Y+5410202D01*
X-3922299Y+5351344D01*
X-3922299Y+5256656D01*
X-3855344Y+5189701D01*
X-3760656Y+5189701D01*
X-3693701Y+5256656D01*
X-3693701Y+5351344D01*
X-3752559Y+5410202D01*
X-3609441Y+5410202D01*
X-3668299Y+5351344D01*
X-3668299Y+5256656D01*
X-3601344Y+5189701D01*
X-3506656Y+5189701D01*
X-3439701Y+5256656D01*
X-3439701Y+5351344D01*
X-3498559Y+5410202D01*
X-1672042Y+5410202D01*
X-1551389Y+5289549D01*
X-1625601Y+5289549D01*
X-1625601Y+5307323D01*
X-1677677Y+5359399D01*
X-1751323Y+5359399D01*
X-1803399Y+5307323D01*
X-1803399Y+5233677D01*
X-1764021Y+5194299D01*
X-2147577Y+5194299D01*
X-2185677Y+5232399D01*
X-2259323Y+5232399D01*
X-2311399Y+5180323D01*
X-2311399Y+5106677D01*
X-2259323Y+5054601D01*
X-2185677Y+5054601D01*
X-2147577Y+5092701D01*
X-1637021Y+5092701D01*
X-1676399Y+5053323D01*
X-1676399Y+4979677D01*
X-1637021Y+4940299D01*
X-2020577Y+4940299D01*
X-2058677Y+4978399D01*
X-2132323Y+4978399D01*
X-2184399Y+4926323D01*
X-2184399Y+4852677D01*
X-2132323Y+4800601D01*
X-2058677Y+4800601D01*
X-2020577Y+4838701D01*
X-2018021Y+4838701D01*
X-2057399Y+4799323D01*
X-2057399Y+4725677D01*
X-2018021Y+4686299D01*
X-5386077Y+4686299D01*
X-5424177Y+4724399D01*
X-5497823Y+4724399D01*
X-5549899Y+4672323D01*
X-5549899Y+4598677D01*
X-5497823Y+4546601D01*
X-5424177Y+4546601D01*
X-5386077Y+4584701D01*
X-1312459Y+4584701D01*
X-1248959Y+4648201D01*
X+67861Y+4648201D01*
X-417556Y+4162784D01*
X-1752601Y+4162784D01*
X-1752601Y+4164323D01*
X-1804677Y+4216399D01*
X-1878323Y+4216399D01*
X-1930399Y+4164323D01*
X-1930399Y+4090677D01*
X-1878323Y+4038601D01*
X-1804677Y+4038601D01*
X-1782092Y+4061186D01*
X-375474Y+4061186D01*
X+148041Y+4584701D01*
X+893361Y+4584701D01*
X+232959Y+3924299D01*
X-2274577Y+3924299D01*
X-2312677Y+3962399D01*
X-2386323Y+3962399D01*
X-2438399Y+3910323D01*
X-2438399Y+3836677D01*
X-2386323Y+3784601D01*
X-2312677Y+3784601D01*
X-2274577Y+3822701D01*
X+275041Y+3822701D01*
X+973541Y+4521201D01*
X+2285219Y+4521201D01*
X+2248542Y+4484524D01*
X+2248542Y+4368794D01*
X+2319527Y+4297809D01*
X+2248542Y+4226824D01*
X+2248542Y+4111094D01*
X+2322177Y+4037459D01*
X+2248542Y+3963824D01*
X+2248542Y+3848094D01*
X+2317677Y+3778959D01*
X+2248542Y+3709824D01*
X+2248542Y+3594094D01*
X+2317677Y+3524959D01*
X+2248542Y+3455824D01*
X+2248542Y+3340094D01*
X+2317677Y+3270959D01*
X+2248542Y+3201824D01*
X+2248542Y+3086094D01*
X+2317677Y+3016959D01*
X+2248542Y+2947824D01*
X+2248542Y+2832094D01*
X+2317677Y+2762959D01*
X+2248542Y+2693824D01*
X+2248542Y+2578094D01*
X+2317677Y+2508959D01*
X+2248542Y+2439824D01*
X+2248542Y+2324094D01*
X+2317677Y+2254959D01*
X+2248542Y+2185824D01*
X+2248542Y+2070094D01*
X+2299337Y+2019299D01*
X+1989541Y+2019299D01*
X+1862541Y+2146299D01*
X-275041Y+2146299D01*
X-368299Y+2053041D01*
X-368299Y+1693459D01*
X-275041Y+1600201D01*
X+105959Y+1600201D01*
X+139701Y+1566459D01*
X+139701Y+53500D01*
X+105959Y+19758D01*
X-2298060Y+19758D01*
X-2298060Y+26824D01*
X-2367195Y+95959D01*
X-2298060Y+165094D01*
X-2298060Y+280824D01*
X-2367195Y+349959D01*
X-2298060Y+419094D01*
X-2298060Y+534824D01*
X-2367195Y+603959D01*
X-2298060Y+673094D01*
X-2298060Y+788824D01*
X-2367195Y+857959D01*
X-2298060Y+927094D01*
X-2298060Y+1042824D01*
X-2367195Y+1111959D01*
X-2298060Y+1181094D01*
X-2298060Y+1296824D01*
X-2347437Y+1346201D01*
X-582923Y+1346201D01*
X-544823Y+1308101D01*
X-471177Y+1308101D01*
X-419101Y+1360177D01*
X-419101Y+1433823D01*
X-471177Y+1485899D01*
X-544823Y+1485899D01*
X-582923Y+1447799D01*
X-2688041Y+1447799D01*
X-2836082Y+1299758D01*
X-2942060Y+1299758D01*
X-2942060Y+1306824D01*
X-3011195Y+1375959D01*
X-2942060Y+1445094D01*
X-2942060Y+1560824D01*
X-3011195Y+1629959D01*
X-2942060Y+1699094D01*
X-2942060Y+1814824D01*
X-3023894Y+1896658D01*
X-3139624Y+1896658D01*
X-3221458Y+1814824D01*
X-3221458Y+1699094D01*
X-3152323Y+1629959D01*
X-3221458Y+1560824D01*
X-3221458Y+1445094D01*
X-3152323Y+1375959D01*
X-3221458Y+1306824D01*
X-3221458Y+1191094D01*
X-3152323Y+1121959D01*
X-3221458Y+1052824D01*
X-3221458Y+937094D01*
X-3152323Y+867959D01*
X-3221458Y+798824D01*
X-3221458Y+791757D01*
X-3344083Y+791757D01*
X-3348441Y+787399D01*
X-3402323Y+787399D01*
X-3454399Y+735323D01*
X-3454399Y+661677D01*
X-3402323Y+609601D01*
X-3328677Y+609601D01*
X-3276601Y+661677D01*
X-3276601Y+690161D01*
X-3221458Y+690161D01*
X-3221458Y+683094D01*
X-3152323Y+613959D01*
X-3221458Y+544824D01*
X-3221458Y+429094D01*
X-3152323Y+359959D01*
X-3221458Y+290824D01*
X-3221458Y+175094D01*
X-3152323Y+105959D01*
X-3221458Y+36824D01*
X-3221458Y-78906D01*
X-3139624Y-160740D01*
X-3023894Y-160740D01*
X-2942060Y-78906D01*
X-2942060Y+36824D01*
X-3011195Y+105959D01*
X-2942060Y+175094D01*
X-2942060Y+275420D01*
X-2717799Y+51159D01*
X-2717799Y-2480861D01*
X-2772959Y-2425701D01*
X-2990155Y-2425701D01*
X-2942060Y-2377606D01*
X-2942060Y-2261876D01*
X-3011195Y-2192741D01*
X-2942060Y-2123606D01*
X-2942060Y-2007876D01*
X-3011195Y-1938741D01*
X-2942060Y-1869606D01*
X-2942060Y-1753876D01*
X-3011195Y-1684741D01*
X-2942060Y-1615606D01*
X-2942060Y-1499876D01*
X-3011195Y-1430741D01*
X-2942060Y-1361606D01*
X-2942060Y-1245876D01*
X-3011195Y-1176741D01*
X-2942060Y-1107606D01*
X-2942060Y-991876D01*
X-3011195Y-922741D01*
X-2942060Y-853606D01*
X-2942060Y-737876D01*
X-3011195Y-668741D01*
X-2942060Y-599606D01*
X-2942060Y-483876D01*
X-3023894Y-402042D01*
X-3139624Y-402042D01*
X-3221458Y-483876D01*
X-3221458Y-599606D01*
X-3152323Y-668741D01*
X-3221458Y-737876D01*
X-3221458Y-853606D01*
X-3152323Y-922741D01*
X-3221458Y-991876D01*
X-3221458Y-1107606D01*
X-3152323Y-1176741D01*
X-3221458Y-1245876D01*
X-3221458Y-1361606D01*
X-3152323Y-1430741D01*
X-3221458Y-1499876D01*
X-3221458Y-1615606D01*
X-3152323Y-1684741D01*
X-3221458Y-1753876D01*
X-3221458Y-1869606D01*
X-3152323Y-1938741D01*
X-3221458Y-2007876D01*
X-3221458Y-2123606D01*
X-3152323Y-2192741D01*
X-3221458Y-2261876D01*
X-3221458Y-2377606D01*
X-3173363Y-2425701D01*
X-4497077Y-2425701D01*
X-4535177Y-2387601D01*
X-4608823Y-2387601D01*
X-4660899Y-2439677D01*
X-4660899Y-2513323D01*
X-4621521Y-2552701D01*
X-4687577Y-2552701D01*
X-4725677Y-2514601D01*
X-4799323Y-2514601D01*
X-4808960Y-2524238D01*
X-4808960Y-2521682D01*
X-4800601Y-2513323D01*
X-4800601Y-2439677D01*
X-4852677Y-2387601D01*
X-4926323Y-2387601D01*
X-4978399Y-2439677D01*
X-4978399Y-2513323D01*
X-4926323Y-2565399D01*
X-4910558Y-2565399D01*
X-4910558Y-2891242D01*
X-4917624Y-2891242D01*
X-4986759Y-2960377D01*
X-5055894Y-2891242D01*
X-5062960Y-2891242D01*
X-5062960Y-613959D01*
X-5156218Y-520701D01*
X-7481577Y-520701D01*
X-7519677Y-482601D01*
X-7593323Y-482601D01*
X-7645399Y-534677D01*
X-7645399Y-608323D01*
X-7606021Y-647701D01*
X-7828855Y-647701D01*
X-7768060Y-586906D01*
X-7768060Y-471176D01*
X-7837195Y-402041D01*
X-7768060Y-332906D01*
X-7768060Y-217176D01*
X-7837195Y-148041D01*
X-7768060Y-78906D01*
X-7768060Y+36824D01*
X-7837195Y+105959D01*
X-7768060Y+175094D01*
X-7768060Y+290824D01*
X-7837195Y+359959D01*
X-7768060Y+429094D01*
X-7768060Y+544824D01*
X-7837195Y+613959D01*
X-7768060Y+683094D01*
X-7768060Y+798824D01*
X-7837195Y+867959D01*
X-7768060Y+937094D01*
X-7768060Y+1052824D01*
X-7837195Y+1121959D01*
X-7768060Y+1191094D01*
X-7768060Y+1306824D01*
X-7807437Y+1346201D01*
X-6551923Y+1346201D01*
X-6513823Y+1308101D01*
X-6440177Y+1308101D01*
X-6388101Y+1360177D01*
X-6388101Y+1433823D01*
X-6440177Y+1485899D01*
X-6513823Y+1485899D01*
X-6551923Y+1447799D01*
X-7887979Y+1447799D01*
X-7848601Y+1487177D01*
X-7848601Y+1560823D01*
X-7892338Y+1604560D01*
X-7849894Y+1604560D01*
X-7768060Y+1686394D01*
X-7768060Y+1802124D01*
X-7837195Y+1871259D01*
X-7768060Y+1940394D01*
X-7768060Y+2056124D01*
X-7837195Y+2125259D01*
X-7768060Y+2194394D01*
X-7768060Y+2310124D01*
X-7837195Y+2379259D01*
X-7768060Y+2448394D01*
X-7768060Y+2564124D01*
X-7837195Y+2633259D01*
X-7768060Y+2702394D01*
X-7768060Y+2818124D01*
X-7837195Y+2887259D01*
X-7768060Y+2956394D01*
X-7768060Y+3072124D01*
X-7837195Y+3141259D01*
X-7768060Y+3210394D01*
X-7768060Y+3326124D01*
X-7837195Y+3395259D01*
X-7768060Y+3464394D01*
X-7768060Y+3580124D01*
X-7849894Y+3661958D01*
X-7965624Y+3661958D01*
X-8047458Y+3580124D01*
X-8047458Y+3464394D01*
X-7978323Y+3395259D01*
X-8047458Y+3326124D01*
X-8047458Y+3210394D01*
X-7978323Y+3141259D01*
X-8047458Y+3072124D01*
X-8047458Y+2956394D01*
X-7978323Y+2887259D01*
X-8047458Y+2818124D01*
X-8047458Y+2702394D01*
X-7978323Y+2633259D01*
X-8047458Y+2564124D01*
X-8047458Y+2448394D01*
X-7978323Y+2379259D01*
X-8047458Y+2310124D01*
X-8047458Y+2194394D01*
X-7978323Y+2125259D01*
X-8047458Y+2056124D01*
X-8047458Y+1940394D01*
X-7978323Y+1871259D01*
X-8047458Y+1802124D01*
X-8047458Y+1705798D01*
X-8521701Y+2180041D01*
X-8521701Y+4614459D01*
X-8399059Y+4737101D01*
X-8345177Y+4737101D01*
X-8293101Y+4789177D01*
X-8293101Y+4862823D01*
X-8345177Y+4914899D01*
X-8418823Y+4914899D01*
X-8470899Y+4862823D01*
X-8470899Y+4808941D01*
X-8623299Y+4656541D01*
X-8623299Y+2137959D01*
X-8026399Y+1541059D01*
X-8026399Y+1487177D01*
X-7987021Y+1447799D01*
X-8657041Y+1447799D01*
X-8750299Y+1354541D01*
X-8750299Y-6180541D01*
X-8695139Y-6235701D01*
X-8741959Y-6235701D01*
X-8775701Y-6201959D01*
X-8775701Y+5439959D01*
X-8741959Y+5473701D01*
X-8282139Y+5473701D01*
X-8337541Y+5418299D01*
X-2298060Y+3570124D02*
X-2298060Y+3454394D01*
X-2367195Y+3385259D01*
X-2298060Y+3316124D01*
X-2298060Y+3200394D01*
X-2367195Y+3131259D01*
X-2298060Y+3062124D01*
X-2298060Y+2946394D01*
X-2367195Y+2877259D01*
X-2298060Y+2808124D01*
X-2298060Y+2692394D01*
X-2367195Y+2623259D01*
X-2298060Y+2554124D01*
X-2298060Y+2438394D01*
X-2367195Y+2369259D01*
X-2298060Y+2300124D01*
X-2298060Y+2184394D01*
X-2367195Y+2115259D01*
X-2298060Y+2046124D01*
X-2298060Y+1930394D01*
X-2367195Y+1861259D01*
X-2298060Y+1792124D01*
X-2298060Y+1676394D01*
X-2379894Y+1594560D01*
X-2495624Y+1594560D01*
X-2577458Y+1676394D01*
X-2577458Y+1792124D01*
X-2508323Y+1861259D01*
X-2577458Y+1930394D01*
X-2577458Y+2046124D01*
X-2508323Y+2115259D01*
X-2577458Y+2184394D01*
X-2577458Y+2300124D01*
X-2508323Y+2369259D01*
X-2577458Y+2438394D01*
X-2577458Y+2554124D01*
X-2508323Y+2623259D01*
X-2577458Y+2692394D01*
X-2577458Y+2808124D01*
X-2508323Y+2877259D01*
X-2577458Y+2946394D01*
X-2577458Y+3062124D01*
X-2508323Y+3131259D01*
X-2577458Y+3200394D01*
X-2577458Y+3316124D01*
X-2508323Y+3385259D01*
X-2577458Y+3454394D01*
X-2577458Y+3570124D01*
X-2495624Y+3651958D01*
X-2379894Y+3651958D01*
X-2298060Y+3570124D01*
X-5979701Y+5097344D02*
X-5979701Y+5007541D01*
X-4430918Y+3458758D01*
X-3221458Y+3458758D01*
X-3221458Y+3465824D01*
X-3152323Y+3534959D01*
X-3221458Y+3604094D01*
X-3221458Y+3719824D01*
X-3152323Y+3788959D01*
X-3221458Y+3858094D01*
X-3221458Y+3973824D01*
X-3147823Y+4047459D01*
X-3221458Y+4121094D01*
X-3221458Y+4236824D01*
X-3150473Y+4307809D01*
X-3221458Y+4378794D01*
X-3221458Y+4494524D01*
X-3139624Y+4576358D01*
X-3023894Y+4576358D01*
X-2942060Y+4494524D01*
X-2942060Y+4378794D01*
X-3013045Y+4307809D01*
X-2942060Y+4236824D01*
X-2942060Y+4121094D01*
X-3015695Y+4047459D01*
X-2942060Y+3973824D01*
X-2942060Y+3858094D01*
X-3011195Y+3788959D01*
X-2942060Y+3719824D01*
X-2942060Y+3604094D01*
X-3011195Y+3534959D01*
X-2942060Y+3465824D01*
X-2942060Y+3350094D01*
X-3011195Y+3280959D01*
X-2942060Y+3211824D01*
X-2942060Y+3096094D01*
X-3011195Y+3026959D01*
X-2942060Y+2957824D01*
X-2942060Y+2842094D01*
X-3011195Y+2772959D01*
X-2942060Y+2703824D01*
X-2942060Y+2588094D01*
X-3011195Y+2518959D01*
X-2942060Y+2449824D01*
X-2942060Y+2334094D01*
X-3011195Y+2264959D01*
X-2942060Y+2195824D01*
X-2942060Y+2080094D01*
X-3023894Y+1998260D01*
X-3139624Y+1998260D01*
X-3221458Y+2080094D01*
X-3221458Y+2195824D01*
X-3152323Y+2264959D01*
X-3221458Y+2334094D01*
X-3221458Y+2449824D01*
X-3152323Y+2518959D01*
X-3221458Y+2588094D01*
X-3221458Y+2703824D01*
X-3152323Y+2772959D01*
X-3221458Y+2842094D01*
X-3221458Y+2849160D01*
X-4219001Y+2849161D01*
X-6305541Y+4935701D01*
X-6395344Y+4935701D01*
X-6462299Y+5002656D01*
X-6462299Y+5097344D01*
X-6395344Y+5164299D01*
X-6300656Y+5164299D01*
X-6233701Y+5097344D01*
X-6233701Y+5007541D01*
X-4176917Y+2950757D01*
X-3221458Y+2950758D01*
X-3221458Y+2957824D01*
X-3152323Y+3026959D01*
X-3221458Y+3096094D01*
X-3221458Y+3211824D01*
X-3152323Y+3280959D01*
X-3221458Y+3350094D01*
X-3221458Y+3357160D01*
X-4473000Y+3357160D01*
X-6051541Y+4935701D01*
X-6141344Y+4935701D01*
X-6208299Y+5002656D01*
X-6208299Y+5097344D01*
X-6141344Y+5164299D01*
X-6046656Y+5164299D01*
X-5979701Y+5097344D01*
X-7157344Y+5164299D02*
X-7062656Y+5164299D01*
X-6995701Y+5097344D01*
X-6995701Y+5002656D01*
X-7062656Y+4935701D01*
X-7157344Y+4935701D01*
X-7224299Y+5002656D01*
X-7224299Y+5097344D01*
X-7157344Y+5164299D01*
X-6903344Y+5164299D02*
X-6808656Y+5164299D01*
X-6741701Y+5097344D01*
X-6741701Y+5002656D01*
X-6808656Y+4935701D01*
X-6903344Y+4935701D01*
X-6970299Y+5002656D01*
X-6970299Y+5097344D01*
X-6903344Y+5164299D01*
X-6649344Y+5164299D02*
X-6554656Y+5164299D01*
X-6487701Y+5097344D01*
X-6487701Y+5002656D01*
X-6554656Y+4935701D01*
X-6649344Y+4935701D01*
X-6716299Y+5002656D01*
X-6716299Y+5097344D01*
X-6649344Y+5164299D01*
X-5887344Y+5164299D02*
X-5792656Y+5164299D01*
X-5725701Y+5097344D01*
X-5725701Y+5002656D01*
X-5792656Y+4935701D01*
X-5887344Y+4935701D01*
X-5954299Y+5002656D01*
X-5954299Y+5097344D01*
X-5887344Y+5164299D01*
X-5633344Y+5164299D02*
X-5538656Y+5164299D01*
X-5471701Y+5097344D01*
X-5471701Y+5002656D01*
X-5538656Y+4935701D01*
X-5633344Y+4935701D01*
X-5700299Y+5002656D01*
X-5700299Y+5097344D01*
X-5633344Y+5164299D01*
X-5379344Y+5164299D02*
X-5284656Y+5164299D01*
X-5217701Y+5097344D01*
X-5217701Y+5002656D01*
X-5284656Y+4935701D01*
X-5379344Y+4935701D01*
X-5446299Y+5002656D01*
X-5446299Y+5097344D01*
X-5379344Y+5164299D01*
X-5125344Y+5164299D02*
X-5030656Y+5164299D01*
X-4963701Y+5097344D01*
X-4963701Y+5002656D01*
X-5030656Y+4935701D01*
X-5125344Y+4935701D01*
X-5192299Y+5002656D01*
X-5192299Y+5097344D01*
X-5125344Y+5164299D01*
X-4871344Y+5164299D02*
X-4776656Y+5164299D01*
X-4709701Y+5097344D01*
X-4709701Y+5002656D01*
X-4776656Y+4935701D01*
X-4871344Y+4935701D01*
X-4938299Y+5002656D01*
X-4938299Y+5097344D01*
X-4871344Y+5164299D01*
X-4617344Y+5164299D02*
X-4522656Y+5164299D01*
X-4455701Y+5097344D01*
X-4455701Y+5002656D01*
X-4522656Y+4935701D01*
X-4617344Y+4935701D01*
X-4684299Y+5002656D01*
X-4684299Y+5097344D01*
X-4617344Y+5164299D01*
X-4363344Y+5164299D02*
X-4268656Y+5164299D01*
X-4201701Y+5097344D01*
X-4201701Y+5002656D01*
X-4268656Y+4935701D01*
X-4363344Y+4935701D01*
X-4430299Y+5002656D01*
X-4430299Y+5097344D01*
X-4363344Y+5164299D01*
X-4109344Y+5164299D02*
X-4014656Y+5164299D01*
X-3947701Y+5097344D01*
X-3947701Y+5002656D01*
X-4014656Y+4935701D01*
X-4109344Y+4935701D01*
X-4176299Y+5002656D01*
X-4176299Y+5097344D01*
X-4109344Y+5164299D01*
X-3855344Y+5164299D02*
X-3760656Y+5164299D01*
X-3693701Y+5097344D01*
X-3693701Y+5002656D01*
X-3760656Y+4935701D01*
X-3855344Y+4935701D01*
X-3922299Y+5002656D01*
X-3922299Y+5097344D01*
X-3855344Y+5164299D01*
X-3601344Y+5164299D02*
X-3506656Y+5164299D01*
X-3439701Y+5097344D01*
X-3439701Y+5002656D01*
X-3506656Y+4935701D01*
X-3601344Y+4935701D01*
X-3668299Y+5002656D01*
X-3668299Y+5097344D01*
X-3601344Y+5164299D01*
X+2184399Y+4227823D02*
X+2184399Y+4154177D01*
X+2132323Y+4102101D01*
X+2058677Y+4102101D01*
X+2020577Y+4140201D01*
X+1598923Y+4140201D01*
X+1560823Y+4102101D01*
X+1487177Y+4102101D01*
X+1435101Y+4154177D01*
X+1435101Y+4227823D01*
X+1487177Y+4279899D01*
X+1560823Y+4279899D01*
X+1598923Y+4241799D01*
X+2020577Y+4241799D01*
X+2058677Y+4279899D01*
X+2132323Y+4279899D01*
X+2184399Y+4227823D01*
X-31750Y+1510849D02*
X-31750Y+1537151D01*
X-13151Y+1555750D01*
X+13151Y+1555750D01*
X+31750Y+1537151D01*
X+31750Y+1510849D01*
X+13151Y+1492250D01*
X-13151Y+1492250D01*
X-31750Y+1510849D01*
X-6381750Y+1891849D02*
X-6381750Y+1918151D01*
X-6363151Y+1936750D01*
X-6336849Y+1936750D01*
X-6318250Y+1918151D01*
X-6318250Y+1891849D01*
X-6336849Y+1873250D01*
X-6363151Y+1873250D01*
X-6381750Y+1891849D01*
X+8839201Y+4550959D02*
X+8839201Y+2027639D01*
X+8784041Y+2082799D01*
X+8360959Y+2082799D01*
X+8305799Y+2027639D01*
X+8305799Y+2084077D01*
X+8343899Y+2122177D01*
X+8343899Y+2195823D01*
X+8291823Y+2247899D01*
X+8218177Y+2247899D01*
X+8202819Y+2232541D01*
X+8202819Y+2264959D01*
X+8369299Y+2431439D01*
X+8369299Y+2655577D01*
X+8407399Y+2693677D01*
X+8407399Y+2767323D01*
X+8355323Y+2819399D01*
X+8281677Y+2819399D01*
X+8242299Y+2780021D01*
X+8242299Y+3481077D01*
X+8280399Y+3519177D01*
X+8280399Y+3592823D01*
X+8228323Y+3644899D01*
X+8154677Y+3644899D01*
X+8137940Y+3628162D01*
X+8137940Y+3719824D01*
X+8068805Y+3788959D01*
X+8137940Y+3858094D01*
X+8137940Y+3973824D01*
X+8064305Y+4047459D01*
X+8137940Y+4121094D01*
X+8137940Y+4236824D01*
X+8066955Y+4307809D01*
X+8137940Y+4378794D01*
X+8137940Y+4494524D01*
X+8056106Y+4576358D01*
X+7940376Y+4576358D01*
X+7858542Y+4494524D01*
X+7858542Y+4378794D01*
X+7929527Y+4307809D01*
X+7858542Y+4236824D01*
X+7858542Y+4121094D01*
X+7932177Y+4047459D01*
X+7858542Y+3973824D01*
X+7858542Y+3858094D01*
X+7927677Y+3788959D01*
X+7858542Y+3719824D01*
X+7858542Y+3604094D01*
X+7927677Y+3534959D01*
X+7858542Y+3465824D01*
X+7858542Y+3350094D01*
X+7927677Y+3280959D01*
X+7858542Y+3211824D01*
X+7858542Y+3096094D01*
X+7927677Y+3026959D01*
X+7858542Y+2957824D01*
X+7858542Y+2842094D01*
X+7927677Y+2772959D01*
X+7858542Y+2703824D01*
X+7858542Y+2696758D01*
X+5387168Y+2696758D01*
X+5251451Y+2561041D01*
X+5251451Y+1852209D01*
X+5376459Y+1727201D01*
X+6942541Y+1727201D01*
X+7069541Y+1854201D01*
X+7897919Y+1854201D01*
X+7858542Y+1814824D01*
X+7858542Y+1699094D01*
X+7927677Y+1629959D01*
X+7858542Y+1560824D01*
X+7858542Y+1445094D01*
X+7927677Y+1375959D01*
X+7858542Y+1306824D01*
X+7858542Y+1191094D01*
X+7927677Y+1121959D01*
X+7858542Y+1052824D01*
X+7858542Y+937094D01*
X+7927677Y+867959D01*
X+7858542Y+798824D01*
X+7858542Y+683094D01*
X+7927677Y+613959D01*
X+7858542Y+544824D01*
X+7858542Y+429094D01*
X+7927677Y+359959D01*
X+7858542Y+290824D01*
X+7858542Y+175094D01*
X+7927677Y+105959D01*
X+7858542Y+36824D01*
X+7858542Y-78906D01*
X+7940376Y-160740D01*
X+8056106Y-160740D01*
X+8137940Y-78906D01*
X+8137940Y+36824D01*
X+8068805Y+105959D01*
X+8137940Y+175094D01*
X+8137940Y+275420D01*
X+8204201Y+209159D01*
X+8204201Y-296459D01*
X+8170459Y-330201D01*
X+7669521Y-330201D01*
X+7708899Y-290823D01*
X+7708899Y-278121D01*
X+7710177Y-279399D01*
X+7783823Y-279399D01*
X+7835899Y-227323D01*
X+7835899Y-153677D01*
X+7797799Y-115577D01*
X+7797799Y+1545041D01*
X+7704541Y+1638299D01*
X+3263845Y+1638299D01*
X+3311940Y+1686394D01*
X+3311940Y+1802124D01*
X+3242805Y+1871259D01*
X+3311940Y+1940394D01*
X+3311940Y+2056124D01*
X+3242805Y+2125259D01*
X+3311940Y+2194394D01*
X+3311940Y+2310124D01*
X+3242805Y+2379259D01*
X+3311940Y+2448394D01*
X+3311940Y+2564124D01*
X+3242805Y+2633259D01*
X+3311940Y+2702394D01*
X+3311940Y+2818124D01*
X+3242805Y+2887259D01*
X+3311940Y+2956394D01*
X+3311940Y+3072124D01*
X+3242805Y+3141259D01*
X+3311940Y+3210394D01*
X+3311940Y+3326124D01*
X+3242805Y+3395259D01*
X+3311940Y+3464394D01*
X+3311940Y+3580124D01*
X+3259863Y+3632201D01*
X+7037077Y+3632201D01*
X+7075177Y+3594101D01*
X+7148823Y+3594101D01*
X+7200899Y+3646177D01*
X+7200899Y+3719823D01*
X+7161521Y+3759201D01*
X+7623258Y+3759201D01*
X+7716516Y+3852459D01*
X+7716516Y+4533176D01*
X+7768041Y+4584701D01*
X+8805459Y+4584701D01*
X+8839201Y+4550959D01*
X+8724899Y+3021323D02*
X+8724899Y+2947677D01*
X+8686799Y+2909577D01*
X+8686799Y+2360923D01*
X+8724899Y+2322823D01*
X+8724899Y+2249177D01*
X+8672823Y+2197101D01*
X+8599177Y+2197101D01*
X+8547101Y+2249177D01*
X+8547101Y+2322823D01*
X+8585201Y+2360923D01*
X+8585201Y+2909577D01*
X+8547101Y+2947677D01*
X+8547101Y+3021323D01*
X+8599177Y+3073399D01*
X+8672823Y+3073399D01*
X+8724899Y+3021323D01*
X+5175250Y+1955349D02*
X+5175250Y+1981651D01*
X+5193849Y+2000250D01*
X+5220151Y+2000250D01*
X+5238750Y+1981651D01*
X+5238750Y+1955349D01*
X+5220151Y+1936750D01*
X+5193849Y+1936750D01*
X+5175250Y+1955349D01*
X+7037077Y+3733799D02*
X+2963459Y+3733799D01*
X+2874559Y+3644899D01*
X+2820677Y+3644899D01*
X+2768601Y+3592823D01*
X+2768601Y+3519177D01*
X+2820677Y+3467101D01*
X+2894323Y+3467101D01*
X+2946399Y+3519177D01*
X+2946399Y+3573059D01*
X+3005541Y+3632201D01*
X+3084619Y+3632201D01*
X+3032542Y+3580124D01*
X+3032542Y+3464394D01*
X+3101677Y+3395259D01*
X+3032542Y+3326124D01*
X+3032542Y+3210394D01*
X+3101677Y+3141259D01*
X+3032542Y+3072124D01*
X+3032542Y+2956394D01*
X+3101677Y+2887259D01*
X+3032542Y+2818124D01*
X+3032542Y+2702394D01*
X+3101677Y+2633259D01*
X+3032542Y+2564124D01*
X+3032542Y+2448394D01*
X+3101677Y+2379259D01*
X+3032542Y+2310124D01*
X+3032542Y+2194394D01*
X+3101677Y+2125259D01*
X+3032542Y+2056124D01*
X+3032542Y+1940394D01*
X+3101677Y+1871259D01*
X+3032542Y+1802124D01*
X+3032542Y+1686394D01*
X+3080637Y+1638299D01*
X+3005541Y+1638299D01*
X+2971799Y+1672041D01*
X+2971799Y+3005541D01*
X+2819399Y+3157941D01*
X+2819399Y+3211823D01*
X+2767323Y+3263899D01*
X+2693677Y+3263899D01*
X+2641601Y+3211823D01*
X+2641601Y+3138177D01*
X+2693677Y+3086101D01*
X+2747559Y+3086101D01*
X+2870201Y+2963459D01*
X+2870201Y+2400479D01*
X+2868743Y+2400479D01*
X+2830823Y+2438399D01*
X+2757177Y+2438399D01*
X+2705101Y+2386323D01*
X+2705101Y+2312677D01*
X+2757177Y+2260601D01*
X+2806702Y+2260601D01*
X+2806702Y+1964138D01*
X+2688041Y+2082799D01*
X+2582459Y+2082799D01*
X+2518959Y+2019299D01*
X+2477145Y+2019299D01*
X+2527940Y+2070094D01*
X+2527940Y+2185824D01*
X+2458805Y+2254959D01*
X+2527940Y+2324094D01*
X+2527940Y+2439824D01*
X+2522943Y+2444821D01*
X+2590799Y+2512677D01*
X+2590799Y+3725459D01*
X+2624541Y+3759201D01*
X+7062479Y+3759201D01*
X+7037077Y+3733799D01*
X+7251701Y-1835315D02*
X+7217959Y-1869057D01*
X+4533344Y-1869057D01*
X+4391442Y-2010959D01*
X+4391442Y-2424220D01*
X+4354823Y-2387601D01*
X+4300941Y-2387601D01*
X+4148541Y-2235201D01*
X+3976700Y-2235201D01*
X+3883442Y-2328459D01*
X+3883442Y-2891242D01*
X+3876376Y-2891242D01*
X+3807241Y-2960377D01*
X+3738106Y-2891242D01*
X+3622376Y-2891242D01*
X+3543299Y-2970319D01*
X+3543299Y-1672041D01*
X+3577041Y-1638299D01*
X+7100577Y-1638299D01*
X+7138677Y-1676399D01*
X+7212323Y-1676399D01*
X+7251701Y-1637021D01*
X+7251701Y-1835315D01*
X+5175250Y-1727651D02*
X+5175250Y-1701349D01*
X+5193849Y-1682750D01*
X+5220151Y-1682750D01*
X+5238750Y-1701349D01*
X+5238750Y-1727651D01*
X+5220151Y-1746250D01*
X+5193849Y-1746250D01*
X+5175250Y-1727651D01*
X-6692899Y-2185677D02*
X-6692899Y-2259323D01*
X-6653521Y-2298701D01*
X-7103300Y-2298701D01*
X-7196558Y-2391959D01*
X-7196558Y-2891242D01*
X-7203624Y-2891242D01*
X-7272759Y-2960377D01*
X-7341894Y-2891242D01*
X-7457624Y-2891242D01*
X-7505701Y-2939319D01*
X-7505701Y-2180041D01*
X-7471959Y-2146299D01*
X-6653521Y-2146299D01*
X-6692899Y-2185677D01*
X-7461250Y-2616651D02*
X-7461250Y-2590349D01*
X-7442651Y-2571750D01*
X-7416349Y-2571750D01*
X-7397750Y-2590349D01*
X-7397750Y-2616651D01*
X-7416349Y-2635250D01*
X-7442651Y-2635250D01*
X-7461250Y-2616651D01*
X+165101Y-2840441D02*
X+165101Y-2894323D01*
X+217177Y-2946399D01*
X+253219Y-2946399D01*
X+229241Y-2970377D01*
X+160106Y-2901242D01*
X+44376Y-2901242D01*
X-24759Y-2970377D01*
X-93894Y-2901242D01*
X-209624Y-2901242D01*
X-278759Y-2970377D01*
X-347894Y-2901242D01*
X-463624Y-2901242D01*
X-532759Y-2970377D01*
X-601894Y-2901242D01*
X-717624Y-2901242D01*
X-786759Y-2970377D01*
X-855894Y-2901242D01*
X-971624Y-2901242D01*
X-1040759Y-2970377D01*
X-1109894Y-2901242D01*
X-1225624Y-2901242D01*
X-1294759Y-2970377D01*
X-1363894Y-2901242D01*
X-1479624Y-2901242D01*
X-1548759Y-2970377D01*
X-1617894Y-2901242D01*
X-1733624Y-2901242D01*
X-1802759Y-2970377D01*
X-1871894Y-2901242D01*
X-1987624Y-2901242D01*
X-2044701Y-2958319D01*
X-2044701Y-2815041D01*
X-2010959Y-2781299D01*
X+105959Y-2781299D01*
X+165101Y-2840441D01*
X-31750Y-2870651D02*
X-31750Y-2844349D01*
X-13151Y-2825750D01*
X+13151Y-2825750D01*
X+31750Y-2844349D01*
X+31750Y-2870651D01*
X+13151Y-2889250D01*
X-13151Y-2889250D01*
X-31750Y-2870651D01*
X-3647624Y-3424640D02*
X-3531894Y-3424640D01*
X-3526897Y-3419643D01*
X-3352799Y-3593741D01*
X-3352799Y-3852459D01*
X-3386541Y-3886201D01*
X-3760479Y-3886201D01*
X-3721101Y-3846823D01*
X-3721101Y-3773177D01*
X-3773177Y-3721101D01*
X-3846823Y-3721101D01*
X-3898899Y-3773177D01*
X-3898899Y-3822702D01*
X-5220980Y-3822702D01*
X-5181601Y-3783323D01*
X-5181601Y-3709677D01*
X-5233677Y-3657601D01*
X-5307323Y-3657601D01*
X-5345423Y-3695701D01*
X-6148077Y-3695701D01*
X-6186177Y-3657601D01*
X-6259823Y-3657601D01*
X-6311899Y-3709677D01*
X-6311899Y-3783323D01*
X-6272521Y-3822701D01*
X-6871979Y-3822701D01*
X-6832601Y-3783323D01*
X-6832601Y-3709677D01*
X-6884677Y-3657601D01*
X-6958323Y-3657601D01*
X-6996423Y-3695701D01*
X-7887979Y-3695701D01*
X-7862577Y-3670299D01*
X-7598959Y-3670299D01*
X-7505701Y-3577041D01*
X-7505701Y-3376563D01*
X-7457624Y-3424640D01*
X-7341894Y-3424640D01*
X-7272759Y-3355505D01*
X-7203624Y-3424640D01*
X-7087894Y-3424640D01*
X-7018759Y-3355505D01*
X-6949624Y-3424640D01*
X-6833894Y-3424640D01*
X-6828897Y-3419643D01*
X-6641741Y-3606799D01*
X-4900923Y-3606799D01*
X-4862823Y-3644899D01*
X-4789177Y-3644899D01*
X-4737101Y-3592823D01*
X-4737101Y-3519177D01*
X-4789177Y-3467101D01*
X-4862823Y-3467101D01*
X-4900923Y-3505201D01*
X-6599659Y-3505201D01*
X-6680220Y-3424640D01*
X-6579894Y-3424640D01*
X-6510759Y-3355505D01*
X-6441624Y-3424640D01*
X-6325894Y-3424640D01*
X-6256759Y-3355505D01*
X-6187624Y-3424640D01*
X-6071894Y-3424640D01*
X-6002759Y-3355505D01*
X-5933624Y-3424640D01*
X-5817894Y-3424640D01*
X-5748759Y-3355505D01*
X-5679624Y-3424640D01*
X-5563894Y-3424640D01*
X-5494759Y-3355505D01*
X-5425624Y-3424640D01*
X-5309894Y-3424640D01*
X-5240759Y-3355505D01*
X-5171624Y-3424640D01*
X-5055894Y-3424640D01*
X-4986759Y-3355505D01*
X-4917624Y-3424640D01*
X-4801894Y-3424640D01*
X-4732759Y-3355505D01*
X-4663624Y-3424640D01*
X-4547894Y-3424640D01*
X-4478759Y-3355505D01*
X-4409624Y-3424640D01*
X-4293894Y-3424640D01*
X-4224759Y-3355505D01*
X-4155624Y-3424640D01*
X-4039894Y-3424640D01*
X-3970759Y-3355505D01*
X-3901624Y-3424640D01*
X-3785894Y-3424640D01*
X-3716759Y-3355505D01*
X-3647624Y-3424640D01*
X-3524250Y-3696151D02*
X-3524250Y-3669849D01*
X-3505651Y-3651250D01*
X-3479349Y-3651250D01*
X-3460750Y-3669849D01*
X-3460750Y-3696151D01*
X-3479349Y-3714750D01*
X-3505651Y-3714750D01*
X-3524250Y-3696151D01*
X-7461250Y-3632651D02*
X-7461250Y-3606349D01*
X-7442651Y-3587750D01*
X-7416349Y-3587750D01*
X-7397750Y-3606349D01*
X-7397750Y-3632651D01*
X-7416349Y-3651250D01*
X-7442651Y-3651250D01*
X-7461250Y-3632651D01*
X-1225624Y-3434640D02*
X-1109894Y-3434640D01*
X-1104897Y-3429643D01*
X-1069782Y-3464758D01*
X-1987902Y-3464758D01*
X-2044701Y-3407959D01*
X-2044701Y-3377563D01*
X-1987624Y-3434640D01*
X-1871894Y-3434640D01*
X-1802759Y-3365505D01*
X-1733624Y-3434640D01*
X-1617894Y-3434640D01*
X-1548759Y-3365505D01*
X-1479624Y-3434640D01*
X-1363894Y-3434640D01*
X-1294759Y-3365505D01*
X-1225624Y-3434640D01*
X+3872948Y-3421212D02*
X+3771899Y-3522261D01*
X+3771899Y-3519177D01*
X+3719823Y-3467101D01*
X+3665941Y-3467101D01*
X+3623480Y-3424640D01*
X+3738106Y-3424640D01*
X+3807241Y-3355505D01*
X+3872948Y-3421212D01*
X-2703823Y-4406899D02*
X-2630177Y-4406899D01*
X-2620431Y-4397153D01*
X-2620431Y-4767652D01*
X-2688041Y-4835262D01*
X-3129102Y-4835262D01*
X-3225799Y-4931959D01*
X-3225799Y-5093979D01*
X-3265177Y-5054601D01*
X-3338823Y-5054601D01*
X-3383460Y-5099238D01*
X-3383460Y-5069697D01*
X-3450415Y-5002742D01*
X-3545103Y-5002742D01*
X-3612058Y-5069697D01*
X-3612058Y-5164385D01*
X-3583200Y-5193243D01*
X-3666318Y-5193243D01*
X-3637460Y-5164385D01*
X-3637460Y-5074582D01*
X-3439677Y-4876799D01*
X-3376923Y-4876799D01*
X-3338823Y-4914899D01*
X-3265177Y-4914899D01*
X-3213101Y-4862823D01*
X-3213101Y-4789177D01*
X-3252479Y-4749799D01*
X-2836459Y-4749799D01*
X-2743201Y-4656541D01*
X-2743201Y-4367521D01*
X-2703823Y-4406899D01*
X+3747778Y-4635500D02*
X+3721101Y-4662177D01*
X+3721101Y-4735823D01*
X+3760479Y-4775201D01*
X+2888848Y-4775201D01*
X+2795590Y-4868459D01*
X+2795590Y-5387570D01*
X+2709459Y-5473701D01*
X+2463224Y-5473701D01*
X+2508540Y-5428385D01*
X+2508540Y-5333697D01*
X+2479683Y-5304840D01*
X+2514000Y-5304840D01*
X+2522941Y-5295899D01*
X+2576823Y-5295899D01*
X+2628899Y-5243823D01*
X+2628899Y-5170177D01*
X+2576823Y-5118101D01*
X+2508540Y-5118101D01*
X+2508540Y-5079697D01*
X+2441585Y-5012742D01*
X+2346897Y-5012742D01*
X+2279942Y-5079697D01*
X+2279942Y-5174385D01*
X+2308799Y-5203242D01*
X+2225683Y-5203242D01*
X+2254540Y-5174385D01*
X+2254540Y-5079697D01*
X+2187585Y-5012742D01*
X+2092897Y-5012742D01*
X+2025942Y-5079697D01*
X+2025942Y-5174385D01*
X+2054799Y-5203242D01*
X+1971683Y-5203242D01*
X+2000540Y-5174385D01*
X+2000540Y-5079697D01*
X+1933585Y-5012742D01*
X+1838897Y-5012742D01*
X+1771942Y-5079697D01*
X+1771942Y-5174385D01*
X+1800799Y-5203242D01*
X+1717683Y-5203242D01*
X+1746540Y-5174385D01*
X+1746540Y-5079697D01*
X+1679585Y-5012742D01*
X+1584897Y-5012742D01*
X+1517942Y-5079697D01*
X+1517942Y-5174385D01*
X+1546799Y-5203242D01*
X+1463683Y-5203242D01*
X+1492540Y-5174385D01*
X+1492540Y-5079697D01*
X+1425585Y-5012742D01*
X+1335980Y-5012742D01*
X+1344923Y-5003799D01*
X+2497541Y-5003799D01*
X+2586441Y-4914899D01*
X+2640323Y-4914899D01*
X+2692399Y-4862823D01*
X+2692399Y-4789177D01*
X+2640323Y-4737101D01*
X+2566677Y-4737101D01*
X+2540000Y-4763778D01*
X+2513323Y-4737101D01*
X+2439677Y-4737101D01*
X+2401577Y-4775201D01*
X+2081521Y-4775201D01*
X+2120899Y-4735823D01*
X+2120899Y-4662177D01*
X+2081521Y-4622799D01*
X+3735077Y-4622799D01*
X+3747778Y-4635500D01*
X+3397250Y-4712151D02*
X+3397250Y-4685849D01*
X+3415849Y-4667250D01*
X+3442151Y-4667250D01*
X+3460750Y-4685849D01*
X+3460750Y-4712151D01*
X+3442151Y-4730750D01*
X+3415849Y-4730750D01*
X+3397250Y-4712151D01*
X+2444750Y-4712151D02*
X+2444750Y-4685849D01*
X+2463349Y-4667250D01*
X+2489651Y-4667250D01*
X+2508250Y-4685849D01*
X+2508250Y-4712151D01*
X+2489651Y-4730750D01*
X+2463349Y-4730750D01*
X+2444750Y-4712151D01*
X+2394241Y-5012742D02*
X+2394241Y-5127041D01*
X+2279942Y-5127041D02*
X+2394241Y-5127041D01*
X-3497759Y-5002742D02*
X-3497759Y-5117041D01*
X-3612058Y-5117041D02*
X-3497759Y-5117041D01*
X+3032542Y+1998259D02*
X+3172241Y+1998259D01*
X+3311940Y+1998259D02*
X+3172241Y+1998259D01*
X+3680241Y-3424640D02*
X+3680241Y-3284941D01*
X+3680241Y-2891242D02*
X+3680241Y-3030941D01*
X+7858542Y+3661959D02*
X+7998241Y+3661959D01*
X+8137940Y+3661959D02*
X+7998241Y+3661959D01*
X+3032542Y+2252259D02*
X+3172241Y+2252259D01*
X+3311940Y+2252259D02*
X+3172241Y+2252259D01*
X-2577458Y+1988259D02*
X-2437759Y+1988259D01*
X-2298060Y+1988259D02*
X-2437759Y+1988259D01*
X-1929759Y-3434640D02*
X-1929759Y-3294941D01*
X-1929759Y-2901242D02*
X-1929759Y-3040941D01*
X+2248542Y+3651959D02*
X+2388241Y+3651959D01*
X-2577458Y+2242259D02*
X-2437759Y+2242259D01*
X-2298060Y+2242259D02*
X-2437759Y+2242259D01*
X-8047458Y+1998259D02*
X-7907759Y+1998259D01*
X-7768060Y+1998259D02*
X-7907759Y+1998259D01*
X-7399759Y-3424640D02*
X-7399759Y-3284941D01*
X-7399759Y-2891242D02*
X-7399759Y-3030941D01*
X-3221458Y+3661959D02*
X-3081759Y+3661959D01*
X-2942060Y+3661959D02*
X-3081759Y+3661959D01*
X-8047458Y+2252259D02*
X-7907759Y+2252259D01*
X-7768060Y+2252259D02*
X-7907759Y+2252259D01*
X-3554000Y+5164299D02*
X-3554000Y+5050000D01*
X-3554000Y+4935701D02*
X-3554000Y+5050000D01*
X-3668299Y+5050000D02*
X-3554000Y+5050000D01*
X-3439701Y+5050000D02*
X-3554000Y+5050000D01*
D12*
X+3478241Y-5124141D03*
X+3478241Y-5378141D03*
X+3732241Y-5124141D03*
X+3732241Y-5378141D03*
X+3986241Y-5124141D03*
X+3986241Y-5378141D03*
X+4240241Y-5124141D03*
X+4240241Y-5378141D03*
X+4494241Y-5124141D03*
X+4494241Y-5378141D03*
X+4748241Y-5124141D03*
X+4748241Y-5378141D03*
X+5002241Y-5124141D03*
X+5002241Y-5378141D03*
X+5256241Y-5124141D03*
X+5256241Y-5378141D03*
X+5510241Y-5124141D03*
X+5510241Y-5378141D03*
X+5764241Y-5124141D03*
X+5764241Y-5378141D03*
X+6018241Y-5124141D03*
X+6018241Y-5378141D03*
X+6272241Y-5124141D03*
X+6272241Y-5378141D03*
X+6526241Y-5124141D03*
X+6526241Y-5378141D03*
X+6780241Y-5124141D03*
X+6780241Y-5378141D03*
X+7034241Y-5124141D03*
X+7034241Y-5378141D03*
X+7288241Y-5124141D03*
X+7288241Y-5378141D03*
X+7542241Y-5124141D03*
X+7542241Y-5378141D03*
X+7796241Y-5124141D03*
X+7796241Y-5378141D03*
X+8050241Y-5124141D03*
X+8050241Y-5378141D03*
X+8304241Y-5124141D03*
X+8304241Y-5378141D03*
X-2431759Y-5127041D03*
X-2431759Y-5381041D03*
X-2177759Y-5127041D03*
X-2177759Y-5381041D03*
X-1923759Y-5127041D03*
X-1923759Y-5381041D03*
X-1669759Y-5127041D03*
X-1669759Y-5381041D03*
X-1415759Y-5127041D03*
X-1415759Y-5381041D03*
X-1161759Y-5127041D03*
X-1161759Y-5381041D03*
X-907759Y-5127041D03*
X-907759Y-5381041D03*
X-653759Y-5127041D03*
X-653759Y-5381041D03*
X-399759Y-5127041D03*
X-399759Y-5381041D03*
X-145759Y-5127041D03*
X-145759Y-5381041D03*
X+108241Y-5127041D03*
X+108241Y-5381041D03*
X+362241Y-5127041D03*
X+362241Y-5381041D03*
X+616241Y-5127041D03*
X+616241Y-5381041D03*
X+870241Y-5127041D03*
X+870241Y-5381041D03*
X+1124241Y-5127041D03*
X+1124241Y-5381041D03*
X+1378241Y-5127041D03*
X+1378241Y-5381041D03*
X+1632241Y-5127041D03*
X+1632241Y-5381041D03*
X+1886241Y-5127041D03*
X+1886241Y-5381041D03*
X+2140241Y-5127041D03*
X+2140241Y-5381041D03*
X+2394241Y-5127041D03*
X+2394241Y-5381041D03*
X-8323759Y-5117041D03*
X-8323759Y-5371041D03*
X-8069759Y-5117041D03*
X-8069759Y-5371041D03*
X-7815759Y-5117041D03*
X-7815759Y-5371041D03*
X-7561759Y-5117041D03*
X-7561759Y-5371041D03*
X-7307759Y-5117041D03*
X-7307759Y-5371041D03*
X-7053759Y-5117041D03*
X-7053759Y-5371041D03*
X-6799759Y-5117041D03*
X-6799759Y-5371041D03*
X-6545759Y-5117041D03*
X-6545759Y-5371041D03*
X-6291759Y-5117041D03*
X-6291759Y-5371041D03*
X-6037759Y-5117041D03*
X-6037759Y-5371041D03*
X-5783759Y-5117041D03*
X-5783759Y-5371041D03*
X-5529759Y-5117041D03*
X-5529759Y-5371041D03*
X-5275759Y-5117041D03*
X-5275759Y-5371041D03*
X-5021759Y-5117041D03*
X-5021759Y-5371041D03*
X-4767759Y-5117041D03*
X-4767759Y-5371041D03*
X-4513759Y-5117041D03*
X-4513759Y-5371041D03*
X-4259759Y-5117041D03*
X-4259759Y-5371041D03*
X-4005759Y-5117041D03*
X-4005759Y-5371041D03*
X-3751759Y-5117041D03*
X-3751759Y-5371041D03*
X-3497759Y-5117041D03*
X-3497759Y-5371041D03*
D13*
X+7998241Y-21041D03*
X+7998241Y+232959D03*
X+7998241Y+486959D03*
X+7998241Y+740959D03*
X+3172241Y+2760259D03*
X+7998241Y+994959D03*
X+7998241Y+1248959D03*
X+7998241Y+1502959D03*
X+7998241Y+1756959D03*
X+7998241Y+2137959D03*
X+7998241Y+2391959D03*
X+7998241Y+2645959D03*
X+7998241Y+2899959D03*
X+7998241Y+3153959D03*
X+7998241Y+3407959D03*
X+7998241Y-541741D03*
X+7998241Y-795741D03*
X+7998241Y-1049741D03*
X+7998241Y-1303741D03*
X+7998241Y-1557741D03*
X+7998241Y-1811741D03*
X+7998241Y-2065741D03*
X+7998241Y-2319741D03*
X+7744241Y-3030941D03*
X+7744241Y-3284941D03*
X+7490241Y-3030941D03*
X+7490241Y-3284941D03*
X+7236241Y-3030941D03*
X+7236241Y-3284941D03*
X+6982241Y-3030941D03*
X+6982241Y-3284941D03*
X+6728241Y-3030941D03*
X+6728241Y-3284941D03*
X+6474241Y-3030941D03*
X+6474241Y-3284941D03*
X+6220241Y-3030941D03*
X+6220241Y-3284941D03*
X+5966241Y-3030941D03*
X+5966241Y-3284941D03*
X+5712241Y-3030941D03*
X+5712241Y-3284941D03*
X+5458241Y-3030941D03*
X+5458241Y-3284941D03*
X+5204241Y-3030941D03*
X+5204241Y-3284941D03*
X+4950241Y-3030941D03*
X+4950241Y-3284941D03*
X+4696241Y-3030941D03*
X+4696241Y-3284941D03*
X+4442241Y-3030941D03*
X+4442241Y-3284941D03*
X+4188241Y-3030941D03*
X+4188241Y-3284941D03*
X+3934241Y-3030941D03*
X+3934241Y-3284941D03*
X+3172241Y+3014259D03*
X+3172241Y+2506259D03*
X+7998241Y-3030941D03*
X+7998241Y-3284941D03*
X+3172241Y+1998259D03*
X+3680241Y-3284941D03*
X+3680241Y-3030941D03*
X+7998241Y+3661959D03*
X+3172241Y+2252259D03*
X+7998241Y+4436659D03*
X+3172241Y+3522259D03*
X+3172241Y+3268259D03*
X+7998241Y+4178959D03*
X+7998241Y+3915959D03*
X+3172241Y+1248959D03*
X+3172241Y+994959D03*
X+3172241Y+740959D03*
X+3172241Y+486959D03*
X+3172241Y+232959D03*
X+3172241Y-21041D03*
X+3172241Y-275041D03*
X+3172241Y-529041D03*
X+3172241Y-1049741D03*
X+3172241Y-1303741D03*
X+3172241Y-1557741D03*
X+3172241Y-1811741D03*
X+3172241Y-2065741D03*
X+3172241Y-2319741D03*
X+3172241Y-2573741D03*
X+3172241Y-2827741D03*
X+3172241Y+1744259D03*
X+2388241Y-31041D03*
X+2388241Y+222959D03*
X+2388241Y+476959D03*
X+2388241Y+730959D03*
X-2437759Y+2750259D03*
X+2388241Y+984959D03*
X+2388241Y+1238959D03*
X+2388241Y+1492959D03*
X+2388241Y+1746959D03*
X+2388241Y+2127959D03*
X+2388241Y+2381959D03*
X+2388241Y+2635959D03*
X+2388241Y+2889959D03*
X+2388241Y+3143959D03*
X+2388241Y+3397959D03*
X+2388241Y-551741D03*
X+2388241Y-805741D03*
X+2388241Y-1059741D03*
X+2388241Y-1313741D03*
X+2388241Y-1567741D03*
X+2388241Y-1821741D03*
X+2388241Y-2075741D03*
X+2388241Y-2329741D03*
X+2134241Y-3040941D03*
X+2134241Y-3294941D03*
X+1880241Y-3040941D03*
X+1880241Y-3294941D03*
X+1626241Y-3040941D03*
X+1626241Y-3294941D03*
X+1372241Y-3040941D03*
X+1372241Y-3294941D03*
X+1118241Y-3040941D03*
X+1118241Y-3294941D03*
X+864241Y-3040941D03*
X+864241Y-3294941D03*
X+610241Y-3040941D03*
X+610241Y-3294941D03*
X+356241Y-3040941D03*
X+356241Y-3294941D03*
X+102241Y-3040941D03*
X+102241Y-3294941D03*
X-151759Y-3040941D03*
X-151759Y-3294941D03*
X-405759Y-3040941D03*
X-405759Y-3294941D03*
X-659759Y-3040941D03*
X-659759Y-3294941D03*
X-913759Y-3040941D03*
X-913759Y-3294941D03*
X-1167759Y-3040941D03*
X-1167759Y-3294941D03*
X-1421759Y-3040941D03*
X-1421759Y-3294941D03*
X-1675759Y-3040941D03*
X-1675759Y-3294941D03*
X-2437759Y+3004259D03*
X-2437759Y+2496259D03*
X+2388241Y-3040941D03*
X+2388241Y-3294941D03*
X-2437759Y+1988259D03*
X-1929759Y-3294941D03*
X-1929759Y-3040941D03*
X+2388241Y+3651959D03*
X-2437759Y+2242259D03*
X+2388241Y+4426659D03*
X-2437759Y+3512259D03*
X-2437759Y+3258259D03*
X+2388241Y+4168959D03*
X+2388241Y+3905959D03*
X-2437759Y+1238959D03*
X-2437759Y+984959D03*
X-2437759Y+730959D03*
X-2437759Y+476959D03*
X-2437759Y+222959D03*
X-2437759Y-31041D03*
X-2437759Y-285041D03*
X-2437759Y-539041D03*
X-2437759Y-1059741D03*
X-2437759Y-1313741D03*
X-2437759Y-1567741D03*
X-2437759Y-1821741D03*
X-2437759Y-2075741D03*
X-2437759Y-2329741D03*
X-2437759Y-2583741D03*
X-2437759Y-2837741D03*
X-2437759Y+1734259D03*
X-3081759Y-21041D03*
X-3081759Y+232959D03*
X-3081759Y+486959D03*
X-3081759Y+740959D03*
X-7907759Y+2760259D03*
X-3081759Y+994959D03*
X-3081759Y+1248959D03*
X-3081759Y+1502959D03*
X-3081759Y+1756959D03*
X-3081759Y+2137959D03*
X-3081759Y+2391959D03*
X-3081759Y+2645959D03*
X-3081759Y+2899959D03*
X-3081759Y+3153959D03*
X-3081759Y+3407959D03*
X-3081759Y-541741D03*
X-3081759Y-795741D03*
X-3081759Y-1049741D03*
X-3081759Y-1303741D03*
X-3081759Y-1557741D03*
X-3081759Y-1811741D03*
X-3081759Y-2065741D03*
X-3081759Y-2319741D03*
X-3335759Y-3030941D03*
X-3335759Y-3284941D03*
X-3589759Y-3030941D03*
X-3589759Y-3284941D03*
X-3843759Y-3030941D03*
X-3843759Y-3284941D03*
X-4097759Y-3030941D03*
X-4097759Y-3284941D03*
X-4351759Y-3030941D03*
X-4351759Y-3284941D03*
X-4605759Y-3030941D03*
X-4605759Y-3284941D03*
X-4859759Y-3030941D03*
X-4859759Y-3284941D03*
X-5113759Y-3030941D03*
X-5113759Y-3284941D03*
X-5367759Y-3030941D03*
X-5367759Y-3284941D03*
X-5621759Y-3030941D03*
X-5621759Y-3284941D03*
X-5875759Y-3030941D03*
X-5875759Y-3284941D03*
X-6129759Y-3030941D03*
X-6129759Y-3284941D03*
X-6383759Y-3030941D03*
X-6383759Y-3284941D03*
X-6637759Y-3030941D03*
X-6637759Y-3284941D03*
X-6891759Y-3030941D03*
X-6891759Y-3284941D03*
X-7145759Y-3030941D03*
X-7145759Y-3284941D03*
X-7907759Y+3014259D03*
X-7907759Y+2506259D03*
X-3081759Y-3030941D03*
X-3081759Y-3284941D03*
X-7907759Y+1998259D03*
X-7399759Y-3284941D03*
X-7399759Y-3030941D03*
X-3081759Y+3661959D03*
X-7907759Y+2252259D03*
X-3081759Y+4436659D03*
X-7907759Y+3522259D03*
X-7907759Y+3268259D03*
X-3081759Y+4178959D03*
X-3081759Y+3915959D03*
X-7907759Y+1248959D03*
X-7907759Y+994959D03*
X-7907759Y+740959D03*
X-7907759Y+486959D03*
X-7907759Y+232959D03*
X-7907759Y-21041D03*
X-7907759Y-275041D03*
X-7907759Y-529041D03*
X-7907759Y-1049741D03*
X-7907759Y-1303741D03*
X-7907759Y-1557741D03*
X-7907759Y-1811741D03*
X-7907759Y-2065741D03*
X-7907759Y-2319741D03*
X-7907759Y-2573741D03*
X-7907759Y-2827741D03*
X-7907759Y+1744259D03*
D12*
X+3324000Y+5056000D03*
X+3324000Y+5310000D03*
X+3578000Y+5056000D03*
X+3578000Y+5310000D03*
X+3832000Y+5056000D03*
X+3832000Y+5310000D03*
X+4086000Y+5056000D03*
X+4086000Y+5310000D03*
X+4340000Y+5056000D03*
X+4340000Y+5310000D03*
X+4594000Y+5056000D03*
X+4594000Y+5310000D03*
X+4848000Y+5056000D03*
X+4848000Y+5310000D03*
X+5102000Y+5056000D03*
X+5102000Y+5310000D03*
X+5356000Y+5056000D03*
X+5356000Y+5310000D03*
X+5610000Y+5056000D03*
X+5610000Y+5310000D03*
X+5864000Y+5056000D03*
X+5864000Y+5310000D03*
X+6118000Y+5056000D03*
X+6118000Y+5310000D03*
X+6372000Y+5056000D03*
X+6372000Y+5310000D03*
X+6626000Y+5056000D03*
X+6626000Y+5310000D03*
X+6880000Y+5056000D03*
X+6880000Y+5310000D03*
X+7134000Y+5056000D03*
X+7134000Y+5310000D03*
X+7388000Y+5056000D03*
X+7388000Y+5310000D03*
X+7642000Y+5056000D03*
X+7642000Y+5310000D03*
X+7896000Y+5056000D03*
X+7896000Y+5310000D03*
X+8150000Y+5056000D03*
X+8150000Y+5310000D03*
X-8380000Y+5050000D03*
X-8380000Y+5304000D03*
X-8126000Y+5050000D03*
X-8126000Y+5304000D03*
X-7872000Y+5050000D03*
X-7872000Y+5304000D03*
X-7618000Y+5050000D03*
X-7618000Y+5304000D03*
X-7364000Y+5050000D03*
X-7364000Y+5304000D03*
X-7110000Y+5050000D03*
X-7110000Y+5304000D03*
X-6856000Y+5050000D03*
X-6856000Y+5304000D03*
X-6602000Y+5050000D03*
X-6602000Y+5304000D03*
X-6348000Y+5050000D03*
X-6348000Y+5304000D03*
X-6094000Y+5050000D03*
X-6094000Y+5304000D03*
X-5840000Y+5050000D03*
X-5840000Y+5304000D03*
X-5586000Y+5050000D03*
X-5586000Y+5304000D03*
X-5332000Y+5050000D03*
X-5332000Y+5304000D03*
X-5078000Y+5050000D03*
X-5078000Y+5304000D03*
X-4824000Y+5050000D03*
X-4824000Y+5304000D03*
X-4570000Y+5050000D03*
X-4570000Y+5304000D03*
X-4316000Y+5050000D03*
X-4316000Y+5304000D03*
X-4062000Y+5050000D03*
X-4062000Y+5304000D03*
X-3808000Y+5050000D03*
X-3808000Y+5304000D03*
X-3554000Y+5050000D03*
X-3554000Y+5304000D03*
D14*
X-9154259Y-6501741D02*
X+9135741Y-6501741D01*
X+9135741Y+6498259D01*
X-9154259Y+6498259D01*
X-9154259Y-6501741D01*
M02*
