G04 PROTEUS GERBER X2 FILE*
%TF.GenerationSoftware,Labcenter,Proteus,8.6-SP2-Build23525*%
%TF.CreationDate,2019-12-11T18:44:10+00:00*%
%TF.FileFunction,Soldermask,Top*%
%TF.FilePolarity,Negative*%
%TF.Part,Single*%
%FSLAX45Y45*%
%MOMM*%
G01*
%TA.AperFunction,Material*%
%ADD32C,1.016000*%
%ADD33C,1.270000*%
%AMPPAD028*
4,1,8,
-0.509800,1.397000,
0.509800,1.397000,
0.889000,1.017800,
0.889000,-1.017800,
0.509800,-1.397000,
-0.509800,-1.397000,
-0.889000,-1.017800,
-0.889000,1.017800,
-0.509800,1.397000,
0*%
%TA.AperFunction,Material*%
%ADD34PPAD028*%
%AMPPAD029*
4,1,8,
-1.397000,-0.509800,
-1.397000,0.509800,
-1.017800,0.889000,
1.017800,0.889000,
1.397000,0.509800,
1.397000,-0.509800,
1.017800,-0.889000,
-1.017800,-0.889000,
-1.397000,-0.509800,
0*%
%TA.AperFunction,Material*%
%ADD35PPAD029*%
%TA.AperFunction,Material*%
%ADD36C,2.032000*%
%ADD37C,2.286000*%
%AMPPAD032*
4,1,36,
1.016000,-1.143000,
-1.016000,-1.143000,
-1.041970,-1.140470,
-1.065980,-1.133200,
-1.087580,-1.121650,
-1.106290,-1.106290,
-1.121650,-1.087570,
-1.133200,-1.065980,
-1.140470,-1.041970,
-1.143000,-1.016000,
-1.143000,1.016000,
-1.140470,1.041970,
-1.133200,1.065980,
-1.121650,1.087570,
-1.106290,1.106290,
-1.087580,1.121650,
-1.065980,1.133200,
-1.041970,1.140470,
-1.016000,1.143000,
1.016000,1.143000,
1.041970,1.140470,
1.065980,1.133200,
1.087580,1.121650,
1.106290,1.106290,
1.121650,1.087570,
1.133200,1.065980,
1.140470,1.041970,
1.143000,1.016000,
1.143000,-1.016000,
1.140470,-1.041970,
1.133200,-1.065980,
1.121650,-1.087570,
1.106290,-1.106290,
1.087580,-1.121650,
1.065980,-1.133200,
1.041970,-1.140470,
1.016000,-1.143000,
0*%
%ADD38PPAD032*%
%TA.AperFunction,Material*%
%ADD39C,2.794000*%
%ADD40C,4.064000*%
%AMPPAD035*
4,1,36,
0.203200,-1.016000,
-0.203200,-1.016000,
-0.265520,-1.009940,
-0.323160,-0.992490,
-0.374980,-0.964770,
-0.419890,-0.927890,
-0.456760,-0.882980,
-0.484480,-0.831160,
-0.501930,-0.773520,
-0.508000,-0.711200,
-0.508000,0.711200,
-0.501930,0.773520,
-0.484480,0.831160,
-0.456760,0.882980,
-0.419890,0.927890,
-0.374980,0.964770,
-0.323160,0.992490,
-0.265520,1.009940,
-0.203200,1.016000,
0.203200,1.016000,
0.265520,1.009940,
0.323160,0.992490,
0.374980,0.964770,
0.419890,0.927890,
0.456760,0.882980,
0.484480,0.831160,
0.501930,0.773520,
0.508000,0.711200,
0.508000,-0.711200,
0.501930,-0.773520,
0.484480,-0.831160,
0.456760,-0.882980,
0.419890,-0.927890,
0.374980,-0.964770,
0.323160,-0.992490,
0.265520,-1.009940,
0.203200,-1.016000,
0*%
%TA.AperFunction,Material*%
%ADD41PPAD035*%
%AMPPAD036*
4,1,36,
1.016000,0.203200,
1.016000,-0.203200,
1.009940,-0.265520,
0.992490,-0.323160,
0.964770,-0.374980,
0.927890,-0.419890,
0.882980,-0.456760,
0.831160,-0.484480,
0.773520,-0.501930,
0.711200,-0.508000,
-0.711200,-0.508000,
-0.773520,-0.501930,
-0.831160,-0.484480,
-0.882980,-0.456760,
-0.927890,-0.419890,
-0.964770,-0.374980,
-0.992490,-0.323160,
-1.009940,-0.265520,
-1.016000,-0.203200,
-1.016000,0.203200,
-1.009940,0.265520,
-0.992490,0.323160,
-0.964770,0.374980,
-0.927890,0.419890,
-0.882980,0.456760,
-0.831160,0.484480,
-0.773520,0.501930,
-0.711200,0.508000,
0.711200,0.508000,
0.773520,0.501930,
0.831160,0.484480,
0.882980,0.456760,
0.927890,0.419890,
0.964770,0.374980,
0.992490,0.323160,
1.009940,0.265520,
1.016000,0.203200,
0*%
%ADD42PPAD036*%
%ADD43C,3.810000*%
%ADD44C,1.524000*%
%TA.AperFunction,Material*%
%ADD45C,1.651000*%
%TA.AperFunction,Material*%
%ADD46C,3.048000*%
%ADD47C,2.540000*%
%TA.AperFunction,Material*%
%ADD48C,3.508000*%
%TA.AperFunction,Profile*%
%ADD29C,0.203200*%
%TD.AperFunction*%
D32*
X-5651500Y+10985500D03*
X-5969000Y+10985500D03*
X-5778500Y+11811000D03*
X-8001000Y+9271000D03*
X-6667500Y+11176000D03*
X-6667500Y+9017000D03*
X-6223000Y+9144000D03*
X+3111500Y+11176000D03*
X+3556000Y+10604500D03*
X+2794000Y+9715500D03*
X+5080000Y+7937500D03*
X+5588000Y+10985500D03*
X+6096000Y+9461500D03*
X+6159500Y+11239500D03*
X+7302500Y+10795000D03*
X-3556000Y+11176000D03*
X-3683000Y+9271000D03*
X-2413000Y+10795000D03*
X-2794000Y+10795000D03*
X-6223000Y-9080500D03*
X-7493000Y-9652000D03*
X-5715000Y-8191500D03*
X-5969000Y-9271000D03*
X-5969000Y-9779000D03*
X-6921500Y-9779000D03*
X-1778000Y-9779000D03*
X-2413000Y-9906000D03*
X+571500Y-10223500D03*
X+63500Y-9842500D03*
X-1397000Y-9842500D03*
X+317500Y-8318500D03*
X-1714500Y-8763000D03*
X-444500Y-8191500D03*
X+4127500Y-9398000D03*
X+2667000Y-10414000D03*
X+1968500Y-9906000D03*
X+1841500Y-8890000D03*
X+3111500Y-9715500D03*
X+3111500Y-8763000D03*
X+3429000Y-10287000D03*
X+2413000Y-10604500D03*
X+4000500Y-9906000D03*
X+3175000Y-8255000D03*
X+2159000Y-9588500D03*
X+1905000Y-9525000D03*
X+1778000Y-8001000D03*
X-3937000Y-8890000D03*
X-3302000Y-8763000D03*
X-2540000Y-8255000D03*
X-4254500Y-8255000D03*
X+6604000Y-9842500D03*
X+6096000Y-9842500D03*
X+4127500Y-10350500D03*
X+4127500Y-10795000D03*
X+5651500Y-10795000D03*
X+6413500Y-11366500D03*
X+6858000Y-11366500D03*
X+5905500Y-8318500D03*
X+6286500Y-8128000D03*
X+6794500Y-9842500D03*
X+5778500Y-9588500D03*
X+6667500Y-8128000D03*
X+6413500Y-8255000D03*
X+8001000Y-8255000D03*
X-6794500Y-1460500D03*
X-2159000Y-1460500D03*
X-2667000Y-1460500D03*
X-1778000Y-1460500D03*
X-5588000Y-2286000D03*
X-5969000Y-1333500D03*
X-2032000Y-1079500D03*
X-2794000Y-2095500D03*
X-5143500Y-3365500D03*
X-5143500Y-1968500D03*
X-2286000Y-1714500D03*
X-1714500Y-4318000D03*
X-2286000Y-4318000D03*
X-2286000Y-2095500D03*
X-1778000Y-1587500D03*
X-1206500Y-1714500D03*
X-571500Y-1714500D03*
X-1143000Y-5334000D03*
X-2476500Y-5334000D03*
X-2476500Y-4699000D03*
X-3048000Y-4699000D03*
X-4572000Y-1841500D03*
X-5270500Y-1841500D03*
X-952500Y-1968500D03*
X+762000Y-2603500D03*
X+381000Y-1143000D03*
X-4699000Y-3810000D03*
X-2413000Y-3810000D03*
X-3810000Y-3238500D03*
X-3810000Y-2603500D03*
X-7175500Y+5397500D03*
X-7937500Y+7048500D03*
X-5778500Y+7048500D03*
X-5905500Y+4000500D03*
X+3683000Y+5969000D03*
X+3048000Y+4127500D03*
X+2540000Y+4127500D03*
X+1778000Y+3302000D03*
X+1460500Y+3302000D03*
X-2730500Y+3238500D03*
X-1587500Y+3556000D03*
X+8064500Y+5651500D03*
X+6667500Y+6096000D03*
X+6159500Y+5969000D03*
X-3175000Y+6096000D03*
X-2603500Y+6096000D03*
X-3556000Y+7112000D03*
X-1587500Y+7112000D03*
X-1714500Y+4064000D03*
X-2921000Y+1968500D03*
X-2286000Y+1778000D03*
X-4762500Y+2286000D03*
X-635000Y+1968500D03*
X-2476500Y+1968500D03*
X-5778500Y+1841500D03*
X-2603500Y+1968500D03*
X-3175000Y+762000D03*
X-4826000Y+444500D03*
X-7556500Y+444500D03*
X-2413000Y+1524000D03*
X-2540000Y+1524000D03*
X-1333500Y+1333500D03*
X-1333500Y+1079500D03*
X-1016000Y+1079500D03*
X-4889500Y+2159000D03*
X-5905500Y+1016000D03*
X-2794000Y+889000D03*
X-1905000Y+508000D03*
X-1841500Y+1778000D03*
X+127000Y+1651000D03*
X-2794000Y+635000D03*
X-5334000Y+2794000D03*
X-1460500Y+2349500D03*
X-1460500Y+952500D03*
X-1016000Y+952500D03*
X-1333500Y+2603500D03*
X-1333500Y+1841500D03*
X-127000Y+1905000D03*
X-7239000Y-4254500D03*
X+1333500Y-4572000D03*
X-3175000Y-4762500D03*
X-1143000Y-4254500D03*
X-1460500Y-4254500D03*
X-2095500Y-4572000D03*
X-2349500Y-5524500D03*
X-2349500Y-4699000D03*
X-1143000Y-4445000D03*
X-1270000Y-5524500D03*
X+2476500Y-5080000D03*
X+1460500Y-5270500D03*
X+635000Y-5270500D03*
X-825500Y-5016500D03*
X+1460500Y-4191000D03*
X+1143000Y-5397500D03*
X+2794000Y-6032500D03*
X+5016500Y-5842000D03*
X-8001000Y-4000500D03*
X-8191500Y-4000500D03*
X-5207000Y-11239500D03*
X-1968500Y-10604500D03*
X+571500Y-10604500D03*
X+2032000Y-11366500D03*
X-1016000Y-9461500D03*
X-1016000Y-9715500D03*
X-1016000Y-14732000D03*
X-5461000Y-15049500D03*
X-5143500Y-7366000D03*
X-4572000Y-7366000D03*
X-4254500Y-12128500D03*
X-4826000Y-12509500D03*
X-4381500Y-5588000D03*
X+3683000Y-5080000D03*
X-4889500Y-4127500D03*
X-7112000Y-4064000D03*
X-6731000Y-14859000D03*
X-6731000Y-15621000D03*
X+8255000Y-13843000D03*
X+6477000Y-13843000D03*
X+825500Y-8763000D03*
X+1206500Y-8763000D03*
X+444500Y-10731500D03*
X+1524000Y-10985500D03*
X+2222500Y-14668500D03*
X-3175000Y-13589000D03*
X+2032000Y-13462000D03*
X+635000Y-14922500D03*
X-4572000Y-15049500D03*
X-1397000Y-11112500D03*
X-4953000Y-11112500D03*
X-4318000Y-12827000D03*
X+5715000Y-12001500D03*
X-4699000Y-13271500D03*
X-6032500Y-13271500D03*
X-6032500Y-12255500D03*
X-6858000Y-12255500D03*
X-6731000Y-254000D03*
X-8445500Y-3619500D03*
X-4318000Y+1206500D03*
X-6223000Y-9652000D03*
X+5715000Y-11112500D03*
X+4064000Y-11239500D03*
X+4064000Y-10985500D03*
X+3238500Y-11557000D03*
X-5016500Y-6350000D03*
X-6096000Y-6921500D03*
X-6159500Y-11493500D03*
X-7556500Y-11747500D03*
X-254000Y-6350000D03*
X-1397000Y-6350000D03*
X-8509000Y-6794500D03*
X-8318500Y-4445000D03*
X-8509000Y+11938000D03*
X-1206500Y+11938000D03*
X-1016000Y+1841500D03*
X+5905500Y+889000D03*
X+5715000Y-7302500D03*
X+3238500Y-10414000D03*
X+4762500Y-11874500D03*
X+5524500Y-11620500D03*
X+5207000Y+127000D03*
X+889000Y+1397000D03*
X+1143000Y+10287000D03*
X-2794000Y+10287000D03*
X+4889500Y+4953000D03*
X+5270500Y-12255500D03*
X+5016500Y-12001500D03*
X+2984500Y-15494000D03*
X+2984500Y-13970000D03*
X+2603500Y-13970000D03*
X+2794000Y-11811000D03*
X-2667000Y-11430000D03*
X+4508500Y-9779000D03*
X+4254500Y-8255000D03*
X+4254500Y-8001000D03*
X+5397500Y-7366000D03*
X+5270500Y+4254500D03*
X-1333500Y+5461000D03*
X+6286500Y-10668000D03*
X+8064500Y-4445000D03*
X+8064500Y-3746500D03*
X+8318500Y-3683000D03*
X+8318500Y-63500D03*
X+4762500Y-63500D03*
X+4762500Y+4064000D03*
X-1333500Y+4445000D03*
X+4699000Y-6604000D03*
X+4127500Y-6604000D03*
X+5016500Y+2667000D03*
X-5334000Y+127000D03*
X+1206500Y-9334500D03*
X+4381500Y-9144000D03*
X+6350000Y-9588500D03*
X+5842000Y-11112500D03*
X+4508500Y-11557000D03*
X-4381500Y-11239500D03*
X-1206500Y-11239500D03*
X-1206500Y-10350500D03*
X+4127500Y-9842500D03*
X+4127500Y-10223500D03*
X+5461000Y-8191500D03*
X-2222500Y-14541500D03*
X-5588000Y-14668500D03*
X-5461000Y-8826500D03*
X-6350000Y-8001000D03*
X-6350000Y-7366000D03*
X-3302000Y-6223000D03*
X-3429000Y-317500D03*
X-3175000Y-317500D03*
X-8509000Y+12763500D03*
X-5397500Y+12763500D03*
X-8001000Y+5397500D03*
X-8001000Y-127000D03*
X-7874000Y-4191000D03*
X-508000Y-14605000D03*
X-8255000Y-14160500D03*
X-8191500Y-4191000D03*
X-8890000Y+12827000D03*
X-3746500Y+12065000D03*
X-2095500Y-15113000D03*
X-2286000Y-9652000D03*
X-2794000Y-9652000D03*
X-2794000Y-8763000D03*
X-2286000Y-8318500D03*
X-2730500Y-698500D03*
X-698500Y-698500D03*
X-8318500Y-13843000D03*
X-8318500Y-12700000D03*
X-8445500Y-11430000D03*
X-8255000Y-4953000D03*
X-8445500Y-1333500D03*
X-8509000Y+6858000D03*
X-4762500Y+6858000D03*
X-4762500Y+12827000D03*
X-3619500Y+12827000D03*
X-6032500Y-14351000D03*
X-6032500Y-13525500D03*
X-8191500Y+6096000D03*
X-8064500Y-11049000D03*
X-8255000Y+5397500D03*
X+3238500Y-12509500D03*
X+3619500Y-12954000D03*
X-3175000Y-12954000D03*
X-7429500Y-12573000D03*
X+4254500Y-12954000D03*
X-1333500Y-13271500D03*
X+4572000Y-190500D03*
X-8509000Y+13970000D03*
X+7683500Y-2984500D03*
X-3302000Y-13017500D03*
X-4064000Y-13271500D03*
X+8001000Y-13462000D03*
X+8001000Y-12763500D03*
X+7874000Y-2222500D03*
X+1206500Y-12509500D03*
X+2349500Y-12509500D03*
X+6794500Y-7302500D03*
X+6159500Y-7302500D03*
X+1651000Y-10858500D03*
X+889000Y-13843000D03*
X+2984500Y-13843000D03*
X-4762500Y+6731000D03*
X-4762500Y+4127500D03*
X-1841500Y-6667500D03*
X-1587500Y-6667500D03*
X-1778000Y-8890000D03*
X-6667500Y-10350500D03*
X-4381500Y-6477000D03*
X-3302000Y-6350000D03*
X-2921000Y-8763000D03*
X-3492500Y-9271000D03*
D33*
X+2540000Y+9017000D03*
X-1016000Y-571500D03*
X-4254500Y-7429500D03*
X+127000Y-10033000D03*
X+6159500Y-7556500D03*
X-5651500Y-3111500D03*
X-5651500Y-3365500D03*
X+6223000Y+9144000D03*
X+5270500Y-12954000D03*
X+6477000Y-12319000D03*
X-4381500Y+3873500D03*
X+1079500Y-7556500D03*
X-7429500Y+5778500D03*
X-1143000Y-3048000D03*
X-2413000Y-12319000D03*
X+3302000Y+4318000D03*
X-7874000Y-12065000D03*
X-3238500Y+9144000D03*
X+4508500Y+2222500D03*
D32*
X-1778000Y-14859000D03*
X-8636000Y-13081000D03*
X-4191000Y-13081000D03*
X+8445500Y+7874000D03*
X+8318500Y+7556500D03*
X+3429000Y-13335000D03*
X+3746500Y+254000D03*
X-7747000Y-3302000D03*
X+3048000Y-2794000D03*
X+4445000Y-3365500D03*
X+4826000Y-3556000D03*
X+4445000Y-9525000D03*
X+3937000Y-9525000D03*
X+190500Y-1968500D03*
X+190500Y-1714500D03*
X+4318000Y-7302500D03*
X+4191000Y-7556500D03*
X-1206500Y-7239000D03*
X-1206500Y-6540500D03*
X-2667000Y-6350000D03*
X-2730500Y-12573000D03*
X-6921500Y-11366500D03*
X-317500Y-9969500D03*
X-762000Y-9969500D03*
X-381000Y-3683000D03*
X+3810000Y-3302000D03*
X+3556000Y+12827000D03*
X-8636000Y+12382500D03*
X+5524500Y-14795500D03*
X+6985000Y-14795500D03*
X+5715000Y-5080000D03*
X+6921500Y-10096500D03*
X+8699500Y+5334000D03*
X+6159500Y+5334000D03*
X+7874000Y-14732000D03*
X+7874000Y-15113000D03*
X+1016000Y-635000D03*
X-4064000Y-1778000D03*
X-3429000Y-12573000D03*
X-1841500Y-12001500D03*
X+635000Y+5969000D03*
X-7937500Y-14414500D03*
X-7937500Y-13462000D03*
X-190500Y-9715500D03*
X+190500Y-9715500D03*
X-635000Y+9017000D03*
X-889000Y-6096000D03*
X-254000Y-6540500D03*
X-317500Y-9461500D03*
X+698500Y-8763000D03*
X+5270500Y+5778500D03*
X-8064500Y+4000500D03*
X-1651000Y-12509500D03*
X-889000Y-12509500D03*
X-889000Y-9715500D03*
X+444500Y-8255000D03*
X+444500Y-7556500D03*
X+444500Y-7302500D03*
X-254000Y+6223000D03*
X+3302000Y-2857500D03*
X+3365500Y-6159500D03*
X+4381500Y-14668500D03*
X-190500Y-14668500D03*
X+1016000Y-12636500D03*
X+952500Y-15367000D03*
X-2921000Y-10223500D03*
X-8509000Y-6223000D03*
X-381000Y-14859000D03*
X+6286500Y-14922500D03*
X-3937000Y-13144500D03*
X+8064500Y-12065000D03*
X-2540000Y-14224000D03*
X-444500Y-2540000D03*
X+1397000Y-1841500D03*
X+1841500Y-14097000D03*
X+5715000Y-14097000D03*
X+5715000Y-12827000D03*
X+6286500Y-6223000D03*
X+3175000Y-10033000D03*
X+6413500Y-5969000D03*
X+6413500Y-4699000D03*
X+7048500Y-4699000D03*
X+1587500Y-13589000D03*
X+7937500Y-13589000D03*
X+8382000Y-14160500D03*
X+7683500Y-10223500D03*
X+6985000Y-14668500D03*
D33*
X-5207000Y+10795000D03*
X-7810500Y+4254500D03*
X+1524000Y-8255000D03*
X+2921000Y-8255000D03*
X-4127500Y-11620500D03*
X+2857500Y-10096500D03*
X+2540000Y+2349500D03*
X-5842000Y-9398000D03*
X-6985000Y-8890000D03*
X+762000Y+2032000D03*
X+6350000Y-8890000D03*
X+7302500Y-8890000D03*
X+8128000Y-10477500D03*
X+4064000Y-11366500D03*
X+5715000Y-11239500D03*
X+6413500Y-10541000D03*
X+7302500Y-10414000D03*
X+4318000Y+10795000D03*
X+3556000Y-11303000D03*
X-3619500Y-11366500D03*
D32*
X+8445500Y-14478000D03*
X-1270000Y-14224000D03*
X-1270000Y-14795500D03*
X-5080000Y-14795500D03*
X+5969000Y-13843000D03*
X+190500Y+190500D03*
X-4064000Y+127000D03*
X-2921000Y-14351000D03*
X-2603500Y-8001000D03*
X-2095500Y-8001000D03*
X-8001000Y+2222500D03*
X+508000Y+762000D03*
X+0Y+4762500D03*
X-1460500Y-8064500D03*
X-825500Y-7366000D03*
X-635000Y-6223000D03*
X+1778000Y-6731000D03*
X+254000Y-13716000D03*
X+1905000Y-13716000D03*
X+4191000Y-4762500D03*
X+3619500Y-5588000D03*
X+3619500Y-6540500D03*
X+254000Y-6286500D03*
X+1778000Y-6350000D03*
X+2413000Y-508000D03*
X+2413000Y+10096500D03*
X+508000Y+9652000D03*
X+444500Y+1905000D03*
X+5461000Y+1079500D03*
X+5016500Y-10604500D03*
X+1016000Y-11049000D03*
X+4318000Y-6858000D03*
X+127000Y+9461500D03*
X+317500Y+4635500D03*
X+5016500Y+4191000D03*
X+5016500Y-6731000D03*
X+1968500Y-6794500D03*
X+2349500Y-8128000D03*
X+2730500Y-8128000D03*
X+2730500Y-15113000D03*
X+4450000Y-14970000D03*
X+5397500Y-14970000D03*
X+4826000Y-6604000D03*
X+5334000Y-6350000D03*
X+5334000Y+635000D03*
X+254000Y+1651000D03*
X+0Y+9842500D03*
X+4953000Y-14732000D03*
X+6096000Y-15113000D03*
X+6159500Y+10287000D03*
X+5397500Y+10287000D03*
X+5397500Y+1333500D03*
X+6540500Y-13716000D03*
X+7874000Y+10223500D03*
X+7620000Y-15367000D03*
X+8128000Y-14605000D03*
X+8128000Y-14986000D03*
X+8445500Y-14732000D03*
X+8445500Y-15240000D03*
X+2857500Y-13462000D03*
X+2603500Y-14986000D03*
X+6159500Y-14986000D03*
X+6159500Y-14097000D03*
X+6159500Y+4445000D03*
X+8699500Y+4445000D03*
X-5715000Y-1778000D03*
D34*
X+837460Y-10125080D03*
X+1087460Y-10125080D03*
X+1337460Y-10125080D03*
X+1587460Y-10125080D03*
X+1837460Y-10125080D03*
X+2087460Y-10125080D03*
X+2337460Y-10125080D03*
X+2337460Y-9115080D03*
X+2087460Y-9115080D03*
X+1837460Y-9115080D03*
X+1587460Y-9115080D03*
X+1337460Y-9115080D03*
X+1087460Y-9115080D03*
X+837460Y-9115080D03*
X+5230000Y-10130000D03*
X+5480000Y-10130000D03*
X+5730000Y-10130000D03*
X+5980000Y-10130000D03*
X+6230000Y-10130000D03*
X+6480000Y-10130000D03*
X+6730000Y-10130000D03*
X+6730000Y-9120000D03*
X+6480000Y-9120000D03*
X+6230000Y-9120000D03*
X+5980000Y-9120000D03*
X+5730000Y-9120000D03*
X+5480000Y-9120000D03*
X+5230000Y-9120000D03*
X-2400000Y-10120000D03*
X-2150000Y-10120000D03*
X-1900000Y-10120000D03*
X-1650000Y-10120000D03*
X-1400000Y-10120000D03*
X-1150000Y-10120000D03*
X-1150000Y-9110000D03*
X-1400000Y-9110000D03*
X-1650000Y-9110000D03*
X-1900000Y-9110000D03*
X-2150000Y-9110000D03*
X-2400000Y-9110000D03*
X-7720000Y-10120000D03*
X-7470000Y-10120000D03*
X-7220000Y-10120000D03*
X-6970000Y-10120000D03*
X-6720000Y-10120000D03*
X-6470000Y-10120000D03*
X-6470000Y-9110000D03*
X-6720000Y-9110000D03*
X-6970000Y-9110000D03*
X-7220000Y-9110000D03*
X-7470000Y-9110000D03*
X-7720000Y-9110000D03*
X-5060000Y-10120000D03*
X-4810000Y-10120000D03*
X-4560000Y-10120000D03*
X-4310000Y-10120000D03*
X-4060000Y-10120000D03*
X-3810000Y-10120000D03*
X-3810000Y-9110000D03*
X-4060000Y-9110000D03*
X-4310000Y-9110000D03*
X-4560000Y-9110000D03*
X-4810000Y-9110000D03*
X-5060000Y-9110000D03*
D35*
X-3660266Y-13467490D03*
X-3660266Y-13717490D03*
X-3660266Y-13967490D03*
X-702690Y-13469350D03*
X-702690Y-13719350D03*
X-702690Y-13969350D03*
X+2267630Y-13469850D03*
X+2267630Y-13719850D03*
X+2267630Y-13969850D03*
X+5157470Y-13479850D03*
X+5157470Y-13729850D03*
X+5157470Y-13979850D03*
D34*
X-8193500Y+8800800D03*
X-7939500Y+8800800D03*
X-7685500Y+8800800D03*
X-7431500Y+8800800D03*
X-7177500Y+8800800D03*
X-6923500Y+8800800D03*
X-6669500Y+8800800D03*
X-6415500Y+8800800D03*
X-6161500Y+8800800D03*
X-5907500Y+8800800D03*
X-5653500Y+8800800D03*
X-5399500Y+8800800D03*
X-5399500Y+8038800D03*
X-5653500Y+8038800D03*
X-5907500Y+8038800D03*
X-6161500Y+8038800D03*
X-6415500Y+8038800D03*
X-6669500Y+8038800D03*
X-6923500Y+8038800D03*
X-7177500Y+8038800D03*
X-7431500Y+8038800D03*
X-7685500Y+8038800D03*
X-7939500Y+8038800D03*
X-8193500Y+8038800D03*
D35*
X-1259750Y+10110400D03*
X-1259750Y+9860400D03*
X-1259750Y+9610400D03*
X-2770150Y+10110650D03*
X-2770150Y+9860650D03*
X-2770150Y+9610650D03*
X+7657630Y+9610650D03*
X+7657630Y+9860650D03*
X+7657630Y+10110650D03*
X+6150330Y+10110150D03*
X+6150330Y+9860150D03*
X+6150330Y+9610150D03*
D34*
X-3963500Y+8810800D03*
X-3709500Y+8810800D03*
X-3455500Y+8810800D03*
X-3201500Y+8810800D03*
X-2947500Y+8810800D03*
X-2693500Y+8810800D03*
X-2439500Y+8810800D03*
X-2185500Y+8810800D03*
X-1931500Y+8810800D03*
X-1677500Y+8810800D03*
X-1423500Y+8810800D03*
X-1169500Y+8810800D03*
X-1169500Y+8048800D03*
X-1423500Y+8048800D03*
X-1677500Y+8048800D03*
X-1931500Y+8048800D03*
X-2185500Y+8048800D03*
X-2439500Y+8048800D03*
X-2693500Y+8048800D03*
X-2947500Y+8048800D03*
X-3201500Y+8048800D03*
X-3455500Y+8048800D03*
X-3709500Y+8048800D03*
X-3963500Y+8048800D03*
X+1409040Y+8777620D03*
X+1663040Y+8777620D03*
X+1917040Y+8777620D03*
X+2171040Y+8777620D03*
X+2425040Y+8777620D03*
X+2679040Y+8777620D03*
X+2933040Y+8777620D03*
X+3187040Y+8777620D03*
X+3441040Y+8777620D03*
X+3695040Y+8777620D03*
X+3949040Y+8777620D03*
X+4203040Y+8777620D03*
X+4203040Y+8015620D03*
X+3949040Y+8015620D03*
X+3695040Y+8015620D03*
X+3441040Y+8015620D03*
X+3187040Y+8015620D03*
X+2933040Y+8015620D03*
X+2679040Y+8015620D03*
X+2425040Y+8015620D03*
X+2171040Y+8015620D03*
X+1917040Y+8015620D03*
X+1663040Y+8015620D03*
X+1409040Y+8015620D03*
X+5466500Y+8812700D03*
X+5720500Y+8812700D03*
X+5974500Y+8812700D03*
X+6228500Y+8812700D03*
X+6482500Y+8812700D03*
X+6736500Y+8812700D03*
X+6990500Y+8812700D03*
X+7244500Y+8812700D03*
X+7498500Y+8812700D03*
X+7752500Y+8812700D03*
X+8006500Y+8812700D03*
X+8260500Y+8812700D03*
X+8260500Y+8050700D03*
X+8006500Y+8050700D03*
X+7752500Y+8050700D03*
X+7498500Y+8050700D03*
X+7244500Y+8050700D03*
X+6990500Y+8050700D03*
X+6736500Y+8050700D03*
X+6482500Y+8050700D03*
X+6228500Y+8050700D03*
X+5974500Y+8050700D03*
X+5720500Y+8050700D03*
X+5466500Y+8050700D03*
D36*
X-5756960Y+9224960D03*
X-5756960Y+10240960D03*
X+5105870Y+10855570D03*
X+6121870Y+10855570D03*
X+2572250Y+10865230D03*
X+3588250Y+10865230D03*
X-3309500Y+9398580D03*
X-3309500Y+10414580D03*
X-4940000Y+8277780D03*
X-4940000Y+8531780D03*
D37*
X-4427300Y+8531780D03*
X-4427300Y+8277780D03*
D36*
X-746960Y+8519880D03*
X-746960Y+8265880D03*
D37*
X-279500Y+8256800D03*
X-279500Y+8510800D03*
D36*
X+313040Y+8520040D03*
X+313040Y+8266040D03*
D37*
X+803040Y+8276960D03*
X+803040Y+8530960D03*
D36*
X+4569680Y+8553020D03*
X+4569680Y+8299020D03*
D37*
X+5015100Y+8278860D03*
X+5015100Y+8532860D03*
D35*
X-2819750Y+4640400D03*
X-2819750Y+4890400D03*
X-2819750Y+5140400D03*
X-1309750Y+4640400D03*
X-1309750Y+4890400D03*
X-1309750Y+5140400D03*
X+6164930Y+5148110D03*
X+6164930Y+4898110D03*
X+6164930Y+4648110D03*
X+7675570Y+4647610D03*
X+7675570Y+4897610D03*
X+7675570Y+5147610D03*
D34*
X+1636500Y-4564280D03*
X+1890500Y-4564280D03*
X+2144500Y-4564280D03*
X+2398500Y-4564280D03*
X+2652500Y-4564280D03*
X+2906500Y-4564280D03*
X+3160500Y-4564280D03*
X+3414500Y-4564280D03*
X+3668500Y-4564280D03*
X+3922500Y-4564280D03*
X+4176500Y-4564280D03*
X+4430500Y-4564280D03*
X+4430500Y-5326280D03*
X+4176500Y-5326280D03*
X+3922500Y-5326280D03*
X+3668500Y-5326280D03*
X+3414500Y-5326280D03*
X+3160500Y-5326280D03*
X+2906500Y-5326280D03*
X+2652500Y-5326280D03*
X+2398500Y-5326280D03*
X+2144500Y-5326280D03*
X+1890500Y-5326280D03*
X+1636500Y-5326280D03*
D36*
X-6665200Y+2609500D03*
X-5649200Y+2609500D03*
X+5650000Y+2520000D03*
X+4634000Y+2520000D03*
X+3190800Y+2299500D03*
X+2174800Y+2299500D03*
X-670000Y+2930000D03*
X+346000Y+2930000D03*
X-5020000Y+3270000D03*
X-5020000Y+3524000D03*
D37*
X-4440000Y+3524000D03*
X-4440000Y+3270000D03*
D36*
X-690000Y+3520000D03*
X-690000Y+3266000D03*
D37*
X-199500Y+3276800D03*
X-199500Y+3530800D03*
D36*
X+330500Y+3532100D03*
X+330500Y+3278100D03*
D37*
X+770500Y+3276800D03*
X+770500Y+3530800D03*
X+4610660Y+3262860D03*
X+4610660Y+3516860D03*
D36*
X+5090160Y+3522060D03*
X+5090160Y+3268060D03*
D38*
X+360500Y-10959200D03*
X+106500Y-10959200D03*
D36*
X-4416540Y+15079840D03*
X-5432540Y+15079840D03*
X-2594000Y+15080000D03*
X-3610000Y+15080000D03*
X-744000Y+15080000D03*
X-1760000Y+15080000D03*
X+1110920Y+15067140D03*
X+94920Y+15067140D03*
X+2946000Y+15066980D03*
X+1930000Y+15066980D03*
X+4818380Y+15086980D03*
X+3802380Y+15086980D03*
X+6636000Y+15080000D03*
X+5620000Y+15080000D03*
X+7910650Y+14080150D03*
X+7910650Y+15096150D03*
X-4959500Y-10879200D03*
X-5975500Y-10879200D03*
X-2844000Y-10960000D03*
X-3860000Y-10960000D03*
X-434000Y-10960000D03*
X-1450000Y-10960000D03*
X+1876000Y-10970000D03*
X+860000Y-10970000D03*
X-7680150Y+14594650D03*
X-7680150Y+15610650D03*
X+6300500Y-12635200D03*
X+6300500Y-11619200D03*
D34*
X-8244000Y-7790000D03*
X-7990000Y-7790000D03*
X-7736000Y-7790000D03*
X-7482000Y-7790000D03*
X-7228000Y-7790000D03*
X-6974000Y-7790000D03*
X-6720000Y-7790000D03*
X-6466000Y-7790000D03*
X-6212000Y-7790000D03*
X-5958000Y-7790000D03*
X-5704000Y-7790000D03*
X-5450000Y-7790000D03*
X-5450000Y-8552000D03*
X-5704000Y-8552000D03*
X-5958000Y-8552000D03*
X-6212000Y-8552000D03*
X-6466000Y-8552000D03*
X-6720000Y-8552000D03*
X-6974000Y-8552000D03*
X-7228000Y-8552000D03*
X-7482000Y-8552000D03*
X-7736000Y-8552000D03*
X-7990000Y-8552000D03*
X-8244000Y-8552000D03*
X-1721460Y-7790160D03*
X-1467460Y-7790160D03*
X-1213460Y-7790160D03*
X-959460Y-7790160D03*
X-705460Y-7790160D03*
X-451460Y-7790160D03*
X-197460Y-7790160D03*
X+56540Y-7790160D03*
X+310540Y-7790160D03*
X+564540Y-7790160D03*
X+818540Y-7790160D03*
X+1072540Y-7790160D03*
X+1072540Y-8552160D03*
X+818540Y-8552160D03*
X+564540Y-8552160D03*
X+310540Y-8552160D03*
X+56540Y-8552160D03*
X-197460Y-8552160D03*
X-451460Y-8552160D03*
X-705460Y-8552160D03*
X-959460Y-8552160D03*
X-1213460Y-8552160D03*
X-1467460Y-8552160D03*
X-1721460Y-8552160D03*
X+1626000Y-7790320D03*
X+1880000Y-7790320D03*
X+2134000Y-7790320D03*
X+2388000Y-7790320D03*
X+2642000Y-7790320D03*
X+2896000Y-7790320D03*
X+3150000Y-7790320D03*
X+3404000Y-7790320D03*
X+3658000Y-7790320D03*
X+3912000Y-7790320D03*
X+4166000Y-7790320D03*
X+4420000Y-7790320D03*
X+4420000Y-8552320D03*
X+4166000Y-8552320D03*
X+3912000Y-8552320D03*
X+3658000Y-8552320D03*
X+3404000Y-8552320D03*
X+3150000Y-8552320D03*
X+2896000Y-8552320D03*
X+2642000Y-8552320D03*
X+2388000Y-8552320D03*
X+2134000Y-8552320D03*
X+1880000Y-8552320D03*
X+1626000Y-8552320D03*
X-5034000Y-7790000D03*
X-4780000Y-7790000D03*
X-4526000Y-7790000D03*
X-4272000Y-7790000D03*
X-4018000Y-7790000D03*
X-3764000Y-7790000D03*
X-3510000Y-7790000D03*
X-3256000Y-7790000D03*
X-3002000Y-7790000D03*
X-2748000Y-7790000D03*
X-2494000Y-7790000D03*
X-2240000Y-7790000D03*
X-2240000Y-8552000D03*
X-2494000Y-8552000D03*
X-2748000Y-8552000D03*
X-3002000Y-8552000D03*
X-3256000Y-8552000D03*
X-3510000Y-8552000D03*
X-3764000Y-8552000D03*
X-4018000Y-8552000D03*
X-4272000Y-8552000D03*
X-4526000Y-8552000D03*
X-4780000Y-8552000D03*
X-5034000Y-8552000D03*
X+4888540Y-7790320D03*
X+5142540Y-7790320D03*
X+5396540Y-7790320D03*
X+5650540Y-7790320D03*
X+5904540Y-7790320D03*
X+6158540Y-7790320D03*
X+6412540Y-7790320D03*
X+6666540Y-7790320D03*
X+6920540Y-7790320D03*
X+7174540Y-7790320D03*
X+7428540Y-7790320D03*
X+7682540Y-7790320D03*
X+7682540Y-8552320D03*
X+7428540Y-8552320D03*
X+7174540Y-8552320D03*
X+6920540Y-8552320D03*
X+6666540Y-8552320D03*
X+6412540Y-8552320D03*
X+6158540Y-8552320D03*
X+5904540Y-8552320D03*
X+5650540Y-8552320D03*
X+5396540Y-8552320D03*
X+5142540Y-8552320D03*
X+4888540Y-8552320D03*
D36*
X-5784420Y-9125580D03*
X-5784420Y-10141580D03*
X+3584920Y-9123820D03*
X+3584920Y-10139820D03*
X-479500Y-9125580D03*
X-479500Y-10141580D03*
X+8127780Y-7663020D03*
X+8127780Y-8679020D03*
X-6430000Y-11910000D03*
X-6430000Y-11656000D03*
D37*
X-5860000Y-11666000D03*
X-5860000Y-11920000D03*
D36*
X-3600000Y-12094000D03*
X-3600000Y-11840000D03*
D37*
X-3180000Y-11841080D03*
X-3180000Y-12095080D03*
D36*
X-1222540Y-12093360D03*
X-1222540Y-11839360D03*
D37*
X-780000Y-11840280D03*
X-780000Y-12094280D03*
X+1594920Y-11841900D03*
X+1594920Y-12095900D03*
D36*
X+1172540Y-12095900D03*
X+1172540Y-11841900D03*
X+3600000Y-12094440D03*
X+3600000Y-11840440D03*
D37*
X+4020000Y-11839360D03*
X+4020000Y-12093360D03*
D34*
X-7380000Y-2170000D03*
X-7130000Y-2170000D03*
X-6880000Y-2170000D03*
X-6630000Y-2170000D03*
X-6380000Y-2170000D03*
X-6130000Y-2170000D03*
X-6130000Y-1160000D03*
X-6380000Y-1160000D03*
X-6630000Y-1160000D03*
X-6880000Y-1160000D03*
X-7130000Y-1160000D03*
X-7380000Y-1160000D03*
X-4960000Y-2410000D03*
X-4706000Y-2410000D03*
X-4452000Y-2410000D03*
X-4198000Y-2410000D03*
X-3944000Y-2410000D03*
X-3690000Y-2410000D03*
X-3436000Y-2410000D03*
X-3182000Y-2410000D03*
X-2928000Y-2410000D03*
X-2928000Y-886000D03*
X-3182000Y-886000D03*
X-3436000Y-886000D03*
X-3690000Y-886000D03*
X-3944000Y-886000D03*
X-4198000Y-886000D03*
X-4452000Y-886000D03*
X-4706000Y-886000D03*
X-4960000Y-886000D03*
X-1690000Y-2172540D03*
X-1440000Y-2172540D03*
X-1190000Y-2172540D03*
X-940000Y-2172540D03*
X-690000Y-2172540D03*
X-440000Y-2172540D03*
X-440000Y-1162540D03*
X-690000Y-1162540D03*
X-940000Y-1162540D03*
X-1190000Y-1162540D03*
X-1440000Y-1162540D03*
X-1690000Y-1162540D03*
X+750000Y-2412380D03*
X+1004000Y-2412380D03*
X+1258000Y-2412380D03*
X+1512000Y-2412380D03*
X+1766000Y-2412380D03*
X+2020000Y-2412380D03*
X+2274000Y-2412380D03*
X+2528000Y-2412380D03*
X+2782000Y-2412380D03*
X+2782000Y-888380D03*
X+2528000Y-888380D03*
X+2274000Y-888380D03*
X+2020000Y-888380D03*
X+1766000Y-888380D03*
X+1512000Y-888380D03*
X+1258000Y-888380D03*
X+1004000Y-888380D03*
X+750000Y-888380D03*
X-3944000Y-2837620D03*
X-3690000Y-2837620D03*
X-3436000Y-2837620D03*
X-3182000Y-2837620D03*
X-2928000Y-2837620D03*
X-2674000Y-2837620D03*
X-2420000Y-2837620D03*
X-2166000Y-2837620D03*
X-1912000Y-2837620D03*
X-1658000Y-2837620D03*
X-1404000Y-2837620D03*
X-1150000Y-2837620D03*
X-1150000Y-3599620D03*
X-1404000Y-3599620D03*
X-1658000Y-3599620D03*
X-1912000Y-3599620D03*
X-2166000Y-3599620D03*
X-2420000Y-3599620D03*
X-2674000Y-3599620D03*
X-2928000Y-3599620D03*
X-3182000Y-3599620D03*
X-3436000Y-3599620D03*
X-3690000Y-3599620D03*
X-3944000Y-3599620D03*
X-5129500Y-3601200D03*
X-5383500Y-3601200D03*
X-5637500Y-3601200D03*
X-5891500Y-3601200D03*
X-6145500Y-3601200D03*
X-6399500Y-3601200D03*
X-6653500Y-3601200D03*
X-6907500Y-3601200D03*
X-7161500Y-3601200D03*
X-7415500Y-3601200D03*
X-7669500Y-3601200D03*
X-7923500Y-3601200D03*
X-7923500Y-2839200D03*
X-7669500Y-2839200D03*
X-7415500Y-2839200D03*
X-7161500Y-2839200D03*
X-6907500Y-2839200D03*
X-6653500Y-2839200D03*
X-6399500Y-2839200D03*
X-6145500Y-2839200D03*
X-5891500Y-2839200D03*
X-5637500Y-2839200D03*
X-5383500Y-2839200D03*
X-5129500Y-2839200D03*
X+100000Y-2839740D03*
X+354000Y-2839740D03*
X+608000Y-2839740D03*
X+862000Y-2839740D03*
X+1116000Y-2839740D03*
X+1370000Y-2839740D03*
X+1624000Y-2839740D03*
X+1878000Y-2839740D03*
X+2132000Y-2839740D03*
X+2386000Y-2839740D03*
X+2640000Y-2839740D03*
X+2894000Y-2839740D03*
X+2894000Y-3601740D03*
X+2640000Y-3601740D03*
X+2386000Y-3601740D03*
X+2132000Y-3601740D03*
X+1878000Y-3601740D03*
X+1624000Y-3601740D03*
X+1370000Y-3601740D03*
X+1116000Y-3601740D03*
X+862000Y-3601740D03*
X+608000Y-3601740D03*
X+354000Y-3601740D03*
X+100000Y-3601740D03*
D36*
X-5279500Y-4239200D03*
X-5279500Y-5255200D03*
X-5860150Y-4409350D03*
X-6876150Y-4409350D03*
X+2373850Y-4139350D03*
X+3389850Y-4139350D03*
X-4760000Y-3080000D03*
X-4760000Y-3334000D03*
D37*
X-4410000Y-3340000D03*
X-4410000Y-3086000D03*
D36*
X-780000Y-3120000D03*
X-780000Y-3374000D03*
D37*
X-320000Y-3374000D03*
X-320000Y-3120000D03*
D36*
X+3370500Y-3169200D03*
X+3370500Y-3423200D03*
D37*
X+3950500Y-3433200D03*
X+3950500Y-3179200D03*
D35*
X+7700250Y+2030400D03*
X+7700250Y+1780400D03*
X+7700250Y+1530400D03*
X+6189850Y+2030650D03*
X+6189850Y+1780650D03*
X+6189850Y+1530650D03*
X+7710250Y-1409600D03*
X+7710250Y-1659600D03*
X+7710250Y-1909600D03*
X+6200250Y-1409600D03*
X+6200250Y-1659600D03*
X+6200250Y-1909600D03*
D39*
X+6660000Y-3890000D03*
X+7030000Y-3510000D03*
X+7535000Y-3383000D03*
X+8020000Y-3508000D03*
X+8401000Y-3891000D03*
X+8401000Y-4871000D03*
X+8020000Y-5250000D03*
X+7535000Y-5379000D03*
X+7030000Y-5252000D03*
X+6660000Y-4870000D03*
D40*
X+7660000Y-3910000D03*
X+7410000Y-4830000D03*
D41*
X+3910000Y-2560000D03*
X+4160000Y-2560000D03*
X+4410000Y-2560000D03*
D42*
X+4970000Y-1440000D03*
X+4970000Y-1690000D03*
X+4970000Y-1940000D03*
D36*
X-3086170Y-9126050D03*
X-3086170Y-10142050D03*
D38*
X-5709750Y+15080400D03*
X-5963750Y+15080400D03*
X+5350250Y+15080400D03*
X+5096250Y+15080400D03*
X-2059750Y+15080400D03*
X-2313750Y+15080400D03*
X-199750Y+15070400D03*
X-453750Y+15070400D03*
X+1650250Y+15070400D03*
X+1396250Y+15070400D03*
X+3500250Y+15070400D03*
X+3246250Y+15070400D03*
X+7140250Y+15090400D03*
X+6886250Y+15090400D03*
X-8649750Y+15070400D03*
X-8395750Y+15070400D03*
X-8639750Y+14300400D03*
X-8385750Y+14300400D03*
X-8639750Y+13550400D03*
X-8385750Y+13550400D03*
X-7599750Y-10969600D03*
X-7853750Y-10969600D03*
X-4439750Y-10959600D03*
X-4693750Y-10959600D03*
X-1989750Y-10959600D03*
X-2243750Y-10959600D03*
X+5140250Y-10959600D03*
X+4886250Y-10959600D03*
X+7520250Y-10959600D03*
X+7266250Y-10959600D03*
X+2780250Y-10949600D03*
X+2526250Y-10949600D03*
X-3879750Y+15090400D03*
X-4133750Y+15090400D03*
D36*
X-7969750Y+14590400D03*
X-7969750Y+15606400D03*
X-7369750Y+14590400D03*
X-7369750Y+15606400D03*
X+4390250Y-10949600D03*
X+3374250Y-10949600D03*
X+5980250Y-12629600D03*
X+5980250Y-11613600D03*
D34*
X-7262540Y+11447460D03*
X-7012540Y+11447460D03*
X-6762540Y+11447460D03*
X-6512540Y+11447460D03*
X-6262540Y+11447460D03*
X-6012540Y+11447460D03*
X-5762540Y+11447460D03*
X-5762540Y+12457460D03*
X-6012540Y+12457460D03*
X-6262540Y+12457460D03*
X-6512540Y+12457460D03*
X-6762540Y+12457460D03*
X-7012540Y+12457460D03*
X-7262540Y+12457460D03*
X-3079750Y+11450400D03*
X-2829750Y+11450400D03*
X-2579750Y+11450400D03*
X-2329750Y+11450400D03*
X-2079750Y+11450400D03*
X-1829750Y+11450400D03*
X-1579750Y+11450400D03*
X-1579750Y+12460400D03*
X-1829750Y+12460400D03*
X-2079750Y+12460400D03*
X-2329750Y+12460400D03*
X-2579750Y+12460400D03*
X-2829750Y+12460400D03*
X-3079750Y+12460400D03*
X+1610250Y+11450400D03*
X+1860250Y+11450400D03*
X+2110250Y+11450400D03*
X+2360250Y+11450400D03*
X+2610250Y+11450400D03*
X+2860250Y+11450400D03*
X+3110250Y+11450400D03*
X+3110250Y+12460400D03*
X+2860250Y+12460400D03*
X+2610250Y+12460400D03*
X+2360250Y+12460400D03*
X+2110250Y+12460400D03*
X+1860250Y+12460400D03*
X+1610250Y+12460400D03*
X+5810000Y+11440000D03*
X+6060000Y+11440000D03*
X+6310000Y+11440000D03*
X+6560000Y+11440000D03*
X+6810000Y+11440000D03*
X+7060000Y+11440000D03*
X+7310000Y+11440000D03*
X+7310000Y+12450000D03*
X+7060000Y+12450000D03*
X+6810000Y+12450000D03*
X+6560000Y+12450000D03*
X+6310000Y+12450000D03*
X+6060000Y+12450000D03*
X+5810000Y+12450000D03*
X-7260000Y+6450000D03*
X-7010000Y+6450000D03*
X-6760000Y+6450000D03*
X-6510000Y+6450000D03*
X-6260000Y+6450000D03*
X-6010000Y+6450000D03*
X-5760000Y+6450000D03*
X-5760000Y+7460000D03*
X-6010000Y+7460000D03*
X-6260000Y+7460000D03*
X-6510000Y+7460000D03*
X-6760000Y+7460000D03*
X-7010000Y+7460000D03*
X-7260000Y+7460000D03*
X-3072540Y+6449840D03*
X-2822540Y+6449840D03*
X-2572540Y+6449840D03*
X-2322540Y+6449840D03*
X-2072540Y+6449840D03*
X-1822540Y+6449840D03*
X-1572540Y+6449840D03*
X-1572540Y+7459840D03*
X-1822540Y+7459840D03*
X-2072540Y+7459840D03*
X-2322540Y+7459840D03*
X-2572540Y+7459840D03*
X-2822540Y+7459840D03*
X-3072540Y+7459840D03*
X+1620000Y+6442220D03*
X+1870000Y+6442220D03*
X+2120000Y+6442220D03*
X+2370000Y+6442220D03*
X+2620000Y+6442220D03*
X+2870000Y+6442220D03*
X+3120000Y+6442220D03*
X+3120000Y+7452220D03*
X+2870000Y+7452220D03*
X+2620000Y+7452220D03*
X+2370000Y+7452220D03*
X+2120000Y+7452220D03*
X+1870000Y+7452220D03*
X+1620000Y+7452220D03*
X+5810000Y+6442220D03*
X+6060000Y+6442220D03*
X+6310000Y+6442220D03*
X+6560000Y+6442220D03*
X+6810000Y+6442220D03*
X+7060000Y+6442220D03*
X+7310000Y+6442220D03*
X+7310000Y+7452220D03*
X+7060000Y+7452220D03*
X+6810000Y+7452220D03*
X+6560000Y+7452220D03*
X+6310000Y+7452220D03*
X+6060000Y+7452220D03*
X+5810000Y+7452220D03*
X-3930000Y+1410000D03*
X-3680000Y+1410000D03*
X-3430000Y+1410000D03*
X-3180000Y+1410000D03*
X-2930000Y+1410000D03*
X-2680000Y+1410000D03*
X-2680000Y+2420000D03*
X-2930000Y+2420000D03*
X-3180000Y+2420000D03*
X-3430000Y+2420000D03*
X-3680000Y+2420000D03*
X-3930000Y+2420000D03*
X-880000Y+1410000D03*
X-630000Y+1410000D03*
X-380000Y+1410000D03*
X-130000Y+1410000D03*
X+120000Y+1410000D03*
X+370000Y+1410000D03*
X+370000Y+2420000D03*
X+120000Y+2420000D03*
X-130000Y+2420000D03*
X-380000Y+2420000D03*
X-630000Y+2420000D03*
X-880000Y+2420000D03*
X-3916547Y-5406841D03*
X-3666547Y-5406841D03*
X-3416547Y-5406841D03*
X-3166547Y-5406841D03*
X-2916547Y-5406841D03*
X-2666547Y-5406841D03*
X-2666547Y-4396841D03*
X-2916547Y-4396841D03*
X-3166547Y-4396841D03*
X-3416547Y-4396841D03*
X-3666547Y-4396841D03*
X-3916547Y-4396841D03*
X-870000Y-5410000D03*
X-620000Y-5410000D03*
X-370000Y-5410000D03*
X-120000Y-5410000D03*
X+130000Y-5410000D03*
X+380000Y-5410000D03*
X+380000Y-4400000D03*
X+130000Y-4400000D03*
X-120000Y-4400000D03*
X-370000Y-4400000D03*
X-620000Y-4400000D03*
X-870000Y-4400000D03*
X-8189750Y+3802400D03*
X-7935750Y+3802400D03*
X-7681750Y+3802400D03*
X-7427750Y+3802400D03*
X-7173750Y+3802400D03*
X-6919750Y+3802400D03*
X-6665750Y+3802400D03*
X-6411750Y+3802400D03*
X-6157750Y+3802400D03*
X-5903750Y+3802400D03*
X-5649750Y+3802400D03*
X-5395750Y+3802400D03*
X-5395750Y+3040400D03*
X-5649750Y+3040400D03*
X-5903750Y+3040400D03*
X-6157750Y+3040400D03*
X-6411750Y+3040400D03*
X-6665750Y+3040400D03*
X-6919750Y+3040400D03*
X-7173750Y+3040400D03*
X-7427750Y+3040400D03*
X-7681750Y+3040400D03*
X-7935750Y+3040400D03*
X-8189750Y+3040400D03*
X+1286250Y+3770400D03*
X+1540250Y+3770400D03*
X+1794250Y+3770400D03*
X+2048250Y+3770400D03*
X+2302250Y+3770400D03*
X+2556250Y+3770400D03*
X+2810250Y+3770400D03*
X+3064250Y+3770400D03*
X+3318250Y+3770400D03*
X+3572250Y+3770400D03*
X+3826250Y+3770400D03*
X+4080250Y+3770400D03*
X+4080250Y+3008400D03*
X+3826250Y+3008400D03*
X+3572250Y+3008400D03*
X+3318250Y+3008400D03*
X+3064250Y+3008400D03*
X+2810250Y+3008400D03*
X+2556250Y+3008400D03*
X+2302250Y+3008400D03*
X+2048250Y+3008400D03*
X+1794250Y+3008400D03*
X+1540250Y+3008400D03*
X+1286250Y+3008400D03*
X+5516250Y+3760400D03*
X+5770250Y+3760400D03*
X+6024250Y+3760400D03*
X+6278250Y+3760400D03*
X+6532250Y+3760400D03*
X+6786250Y+3760400D03*
X+7040250Y+3760400D03*
X+7294250Y+3760400D03*
X+7548250Y+3760400D03*
X+7802250Y+3760400D03*
X+8056250Y+3760400D03*
X+8310250Y+3760400D03*
X+8310250Y+2998400D03*
X+8056250Y+2998400D03*
X+7802250Y+2998400D03*
X+7548250Y+2998400D03*
X+7294250Y+2998400D03*
X+7040250Y+2998400D03*
X+6786250Y+2998400D03*
X+6532250Y+2998400D03*
X+6278250Y+2998400D03*
X+6024250Y+2998400D03*
X+5770250Y+2998400D03*
X+5516250Y+2998400D03*
X-3859750Y+3782400D03*
X-3605750Y+3782400D03*
X-3351750Y+3782400D03*
X-3097750Y+3782400D03*
X-2843750Y+3782400D03*
X-2589750Y+3782400D03*
X-2335750Y+3782400D03*
X-2081750Y+3782400D03*
X-1827750Y+3782400D03*
X-1573750Y+3782400D03*
X-1319750Y+3782400D03*
X-1065750Y+3782400D03*
X-1065750Y+3020400D03*
X-1319750Y+3020400D03*
X-1573750Y+3020400D03*
X-1827750Y+3020400D03*
X-2081750Y+3020400D03*
X-2335750Y+3020400D03*
X-2589750Y+3020400D03*
X-2843750Y+3020400D03*
X-3097750Y+3020400D03*
X-3351750Y+3020400D03*
X-3605750Y+3020400D03*
X-3859750Y+3020400D03*
X-7823750Y+2220400D03*
X-7569750Y+2220400D03*
X-7315750Y+2220400D03*
X-7061750Y+2220400D03*
X-6807750Y+2220400D03*
X-6553750Y+2220400D03*
X-6299750Y+2220400D03*
X-6045750Y+2220400D03*
X-5791750Y+2220400D03*
X-5537750Y+2220400D03*
X-5283750Y+2220400D03*
X-5029750Y+2220400D03*
X-5029750Y+1458400D03*
X-5283750Y+1458400D03*
X-5537750Y+1458400D03*
X-5791750Y+1458400D03*
X-6045750Y+1458400D03*
X-6299750Y+1458400D03*
X-6553750Y+1458400D03*
X-6807750Y+1458400D03*
X-7061750Y+1458400D03*
X-7315750Y+1458400D03*
X-7569750Y+1458400D03*
X-7823750Y+1458400D03*
D36*
X+1590250Y+2300400D03*
X+1844250Y+2300400D03*
D37*
X+1874250Y+1640400D03*
X+1620250Y+1640400D03*
D36*
X-6339750Y-29600D03*
X-7355750Y-29600D03*
X+5190250Y-5829600D03*
X+4174250Y-5829600D03*
X-5699750Y-5189600D03*
X-5699750Y-4935600D03*
D37*
X-6239750Y-4915600D03*
X-6239750Y-5169600D03*
D36*
X+3404250Y-15229600D03*
X+3404250Y-15483600D03*
X+3658250Y-15229600D03*
X+3658250Y-15483600D03*
X+3912250Y-15229600D03*
X+3912250Y-15483600D03*
X+4166250Y-15229600D03*
X+4166250Y-15483600D03*
X+4420250Y-15229600D03*
X+4420250Y-15483600D03*
X+4674250Y-15229600D03*
X+4674250Y-15483600D03*
X+4928250Y-15229600D03*
X+4928250Y-15483600D03*
X+5182250Y-15229600D03*
X+5182250Y-15483600D03*
X+5436250Y-15229600D03*
X+5436250Y-15483600D03*
X+5690250Y-15229600D03*
X+5690250Y-15483600D03*
X+5944250Y-15229600D03*
X+5944250Y-15483600D03*
X+6198250Y-15229600D03*
X+6198250Y-15483600D03*
X+6452250Y-15229600D03*
X+6452250Y-15483600D03*
X+6706250Y-15229600D03*
X+6706250Y-15483600D03*
X+6960250Y-15229600D03*
X+6960250Y-15483600D03*
X+7214250Y-15229600D03*
X+7214250Y-15483600D03*
X+7468250Y-15229600D03*
X+7468250Y-15483600D03*
X+7722250Y-15229600D03*
X+7722250Y-15483600D03*
X+7976250Y-15229600D03*
X+7976250Y-15483600D03*
X+8230250Y-15229600D03*
X+8230250Y-15483600D03*
X-2449750Y-15235600D03*
X-2449750Y-15489600D03*
X-2195750Y-15235600D03*
X-2195750Y-15489600D03*
X-1941750Y-15235600D03*
X-1941750Y-15489600D03*
X-1687750Y-15235600D03*
X-1687750Y-15489600D03*
X-1433750Y-15235600D03*
X-1433750Y-15489600D03*
X-1179750Y-15235600D03*
X-1179750Y-15489600D03*
X-925750Y-15235600D03*
X-925750Y-15489600D03*
X-671750Y-15235600D03*
X-671750Y-15489600D03*
X-417750Y-15235600D03*
X-417750Y-15489600D03*
X-163750Y-15235600D03*
X-163750Y-15489600D03*
X+90250Y-15235600D03*
X+90250Y-15489600D03*
X+344250Y-15235600D03*
X+344250Y-15489600D03*
X+598250Y-15235600D03*
X+598250Y-15489600D03*
X+852250Y-15235600D03*
X+852250Y-15489600D03*
X+1106250Y-15235600D03*
X+1106250Y-15489600D03*
X+1360250Y-15235600D03*
X+1360250Y-15489600D03*
X+1614250Y-15235600D03*
X+1614250Y-15489600D03*
X+1868250Y-15235600D03*
X+1868250Y-15489600D03*
X+2122250Y-15235600D03*
X+2122250Y-15489600D03*
X+2376250Y-15235600D03*
X+2376250Y-15489600D03*
X-8379750Y-15235600D03*
X-8379750Y-15489600D03*
X-8125750Y-15235600D03*
X-8125750Y-15489600D03*
X-7871750Y-15235600D03*
X-7871750Y-15489600D03*
X-7617750Y-15235600D03*
X-7617750Y-15489600D03*
X-7363750Y-15235600D03*
X-7363750Y-15489600D03*
X-7109750Y-15235600D03*
X-7109750Y-15489600D03*
X-6855750Y-15235600D03*
X-6855750Y-15489600D03*
X-6601750Y-15235600D03*
X-6601750Y-15489600D03*
X-6347750Y-15235600D03*
X-6347750Y-15489600D03*
X-6093750Y-15235600D03*
X-6093750Y-15489600D03*
X-5839750Y-15235600D03*
X-5839750Y-15489600D03*
X-5585750Y-15235600D03*
X-5585750Y-15489600D03*
X-5331750Y-15235600D03*
X-5331750Y-15489600D03*
X-5077750Y-15235600D03*
X-5077750Y-15489600D03*
X-4823750Y-15235600D03*
X-4823750Y-15489600D03*
X-4569750Y-15235600D03*
X-4569750Y-15489600D03*
X-4315750Y-15235600D03*
X-4315750Y-15489600D03*
X-4061750Y-15235600D03*
X-4061750Y-15489600D03*
X-3807750Y-15235600D03*
X-3807750Y-15489600D03*
X-3553750Y-15235600D03*
X-3553750Y-15489600D03*
D43*
X-6919750Y-13319600D03*
X-7519750Y-13319600D03*
X-7199750Y-12849600D03*
D44*
X-6389750Y-14619600D03*
X-6389750Y-14369600D03*
X-6389750Y-14119600D03*
D43*
X-6919750Y-14359600D03*
X-7519750Y-14359600D03*
X-7199750Y-13889600D03*
D45*
X-6689750Y+15470400D03*
X-6489750Y+15470400D03*
D46*
X-6419750Y+13460400D03*
X-6419750Y+13960400D03*
X-5169750Y+13460400D03*
X-5169750Y+13960400D03*
D33*
X-5789750Y+14390400D03*
X-5789750Y+13040400D03*
D46*
X-4609750Y+13460400D03*
X-4609750Y+13960400D03*
X-3359750Y+13460400D03*
X-3359750Y+13960400D03*
D33*
X-3979750Y+14390400D03*
X-3979750Y+13040400D03*
D46*
X-2729750Y+13460400D03*
X-2729750Y+13960400D03*
X-1479750Y+13460400D03*
X-1479750Y+13960400D03*
D33*
X-2099750Y+14390400D03*
X-2099750Y+13040400D03*
D46*
X-909750Y+13460400D03*
X-909750Y+13960400D03*
X+340250Y+13460400D03*
X+340250Y+13960400D03*
D33*
X-279750Y+14390400D03*
X-279750Y+13040400D03*
D46*
X+930250Y+13470400D03*
X+930250Y+13970400D03*
X+2180250Y+13470400D03*
X+2180250Y+13970400D03*
D33*
X+1560250Y+14400400D03*
X+1560250Y+13050400D03*
D46*
X+2760250Y+13460400D03*
X+2760250Y+13960400D03*
X+4010250Y+13460400D03*
X+4010250Y+13960400D03*
D33*
X+3390250Y+14390400D03*
X+3390250Y+13040400D03*
D46*
X+4610250Y+13460400D03*
X+4610250Y+13960400D03*
X+5860250Y+13460400D03*
X+5860250Y+13960400D03*
D33*
X+5240250Y+14390400D03*
X+5240250Y+13040400D03*
D46*
X+6390250Y+13460400D03*
X+6390250Y+13960400D03*
X+7640250Y+13460400D03*
X+7640250Y+13960400D03*
D33*
X+7020250Y+14390400D03*
X+7020250Y+13040400D03*
D45*
X-6729750Y+14740400D03*
X-6729750Y+14940400D03*
X-6729750Y+15140400D03*
D46*
X-5019750Y+9740400D03*
X-5019750Y+10240400D03*
X-3769750Y+9740400D03*
X-3769750Y+10240400D03*
D33*
X-4389750Y+10670400D03*
X-4389750Y+9320400D03*
D46*
X+3840250Y+9730400D03*
X+3840250Y+10230400D03*
X+5090250Y+9730400D03*
X+5090250Y+10230400D03*
D33*
X+4470250Y+10660400D03*
X+4470250Y+9310400D03*
D46*
X-5099750Y+4770400D03*
X-5099750Y+5270400D03*
X-3849750Y+4770400D03*
X-3849750Y+5270400D03*
D33*
X-4469750Y+5700400D03*
X-4469750Y+4350400D03*
D46*
X+3880250Y+4720400D03*
X+3880250Y+5220400D03*
X+5130250Y+4720400D03*
X+5130250Y+5220400D03*
D33*
X+4510250Y+5650400D03*
X+4510250Y+4300400D03*
D46*
X-5817914Y-49000D03*
X-5817914Y+451000D03*
X-4567914Y-49000D03*
X-4567914Y+451000D03*
D33*
X-5187914Y+881000D03*
X-5187914Y-469000D03*
D46*
X-4229750Y-49600D03*
X-4229750Y+450400D03*
X-2979750Y-49600D03*
X-2979750Y+450400D03*
D33*
X-3599750Y+880400D03*
X-3599750Y-469600D03*
D46*
X-2629750Y-49600D03*
X-2629750Y+450400D03*
X-1379750Y-49600D03*
X-1379750Y+450400D03*
D33*
X-1999750Y+880400D03*
X-1999750Y-469600D03*
D46*
X-1029750Y-49600D03*
X-1029750Y+450400D03*
X+220250Y-49600D03*
X+220250Y+450400D03*
D33*
X-399750Y+880400D03*
X-399750Y-469600D03*
D46*
X+550250Y-49600D03*
X+550250Y+450400D03*
X+1800250Y-49600D03*
X+1800250Y+450400D03*
D33*
X+1180250Y+880400D03*
X+1180250Y-469600D03*
D37*
X-8419750Y-5269600D03*
X-8419750Y-4769600D03*
X-7169750Y-5269600D03*
X-7169750Y-4769600D03*
D33*
X-7789750Y-4339600D03*
X-7789750Y-5689600D03*
D46*
X-8439750Y-7059600D03*
X-8439750Y-6559600D03*
X-7189750Y-7059600D03*
X-7189750Y-6559600D03*
D33*
X-7809750Y-6129600D03*
X-7809750Y-7479600D03*
D46*
X-6879750Y-7059600D03*
X-6879750Y-6559600D03*
X-5629750Y-7059600D03*
X-5629750Y-6559600D03*
D33*
X-6249750Y-6129600D03*
X-6249750Y-7479600D03*
D46*
X-5319750Y-7059600D03*
X-5319750Y-6559600D03*
X-4069750Y-7059600D03*
X-4069750Y-6559600D03*
D33*
X-4689750Y-6129600D03*
X-4689750Y-7479600D03*
D46*
X-3749750Y-7059600D03*
X-3749750Y-6559600D03*
X-2499750Y-7059600D03*
X-2499750Y-6559600D03*
D33*
X-3119750Y-6129600D03*
X-3119750Y-7479600D03*
D46*
X-2169750Y-7059600D03*
X-2169750Y-6559600D03*
X-919750Y-7059600D03*
X-919750Y-6559600D03*
D33*
X-1539750Y-6129600D03*
X-1539750Y-7479600D03*
D46*
X-579750Y-7059600D03*
X-579750Y-6559600D03*
X+670250Y-7059600D03*
X+670250Y-6559600D03*
D33*
X+50250Y-6129600D03*
X+50250Y-7479600D03*
D46*
X+1000250Y-7069600D03*
X+1000250Y-6569600D03*
X+2250250Y-7069600D03*
X+2250250Y-6569600D03*
D33*
X+1630250Y-6139600D03*
X+1630250Y-7489600D03*
D46*
X+2570250Y-7069600D03*
X+2570250Y-6569600D03*
X+3820250Y-7069600D03*
X+3820250Y-6569600D03*
D33*
X+3200250Y-6139600D03*
X+3200250Y-7489600D03*
D46*
X+5250250Y-7079600D03*
X+5250250Y-6579600D03*
X+6500250Y-7079600D03*
X+6500250Y-6579600D03*
D33*
X+5880250Y-6149600D03*
X+5880250Y-7499600D03*
D46*
X+7040250Y-7079600D03*
X+7040250Y-6579600D03*
X+8290250Y-7079600D03*
X+8290250Y-6579600D03*
D33*
X+7670250Y-6149600D03*
X+7670250Y-7499600D03*
D47*
X-8299750Y-12299600D03*
X-8299750Y-11799600D03*
X-7049750Y-12299600D03*
X-7049750Y-11799600D03*
D33*
X-7669750Y-11369600D03*
X-7669750Y-12719600D03*
D46*
X-5169750Y-12309600D03*
X-5169750Y-11809600D03*
X-3919750Y-12309600D03*
X-3919750Y-11809600D03*
D33*
X-4539750Y-11379600D03*
X-4539750Y-12729600D03*
D46*
X-2749750Y-12309600D03*
X-2749750Y-11809600D03*
X-1499750Y-12309600D03*
X-1499750Y-11809600D03*
D33*
X-2119750Y-11379600D03*
X-2119750Y-12729600D03*
D46*
X-409750Y-12309600D03*
X-409750Y-11809600D03*
X+840250Y-12309600D03*
X+840250Y-11809600D03*
D33*
X+220250Y-11379600D03*
X+220250Y-12729600D03*
D46*
X+2030250Y-12309600D03*
X+2030250Y-11809600D03*
X+3280250Y-12309600D03*
X+3280250Y-11809600D03*
D33*
X+2660250Y-11379600D03*
X+2660250Y-12729600D03*
D46*
X+4460250Y-12309600D03*
X+4460250Y-11809600D03*
X+5710250Y-12309600D03*
X+5710250Y-11809600D03*
D33*
X+5090250Y-11379600D03*
X+5090250Y-12729600D03*
D46*
X+6810250Y-12309600D03*
X+6810250Y-11809600D03*
X+8060250Y-12309600D03*
X+8060250Y-11809600D03*
D33*
X+7440250Y-11379600D03*
X+7440250Y-12729600D03*
D48*
X+6910250Y+10510400D03*
X+6910250Y+9210400D03*
X-2009750Y+10510400D03*
X-2009750Y+9210400D03*
X-2079750Y+5560400D03*
X-2079750Y+4260400D03*
X+6920250Y+5550400D03*
X+6920250Y+4250400D03*
X+6910250Y+2430400D03*
X+6910250Y+1130400D03*
X+6960250Y-1019600D03*
X+6960250Y-2319600D03*
X-6949750Y+10320400D03*
D34*
X+3900250Y+1530400D03*
X+4150250Y+1530400D03*
X+4400250Y+1530400D03*
D35*
X+920250Y+9880400D03*
X+920250Y+9380400D03*
X+2440250Y+9880400D03*
X+2440250Y+9630400D03*
X+2440250Y+9380400D03*
D48*
X+1680250Y+9140400D03*
X+1680250Y+10130400D03*
D35*
X+920250Y+4900400D03*
X+920250Y+4400400D03*
X+2440250Y+4900400D03*
X+2440250Y+4650400D03*
X+2440250Y+4400400D03*
D48*
X+1680250Y+4160400D03*
X+1680250Y+5150400D03*
X-6979750Y+5550400D03*
D35*
X-6209750Y+9940400D03*
X-6209750Y+9690400D03*
X-6209750Y+9440400D03*
X-6218047Y+5162667D03*
X-6218047Y+4912667D03*
X-6218047Y+4662667D03*
D45*
X-7999750Y+10590400D03*
X-7999750Y+10790400D03*
X-8149750Y+5640400D03*
X-8149750Y+5840400D03*
D34*
X-7169750Y+12970400D03*
X-7419750Y+12970400D03*
X-7669750Y+12970400D03*
D36*
X-6186000Y+14670000D03*
X-5170000Y+14670000D03*
X-4576000Y+14640000D03*
X-3560000Y+14640000D03*
X-3126000Y+14650000D03*
X-2110000Y+14650000D03*
X-1300000Y+14650000D03*
X-284000Y+14650000D03*
X+540000Y+14650000D03*
X+1556000Y+14650000D03*
X+2370000Y+14640000D03*
X+3386000Y+14640000D03*
X+4220000Y+14650000D03*
X+5236000Y+14650000D03*
X+6000000Y+14650000D03*
X+7016000Y+14650000D03*
X-4420000Y+12500000D03*
X-4420000Y+11484000D03*
X+4450000Y+12440000D03*
X+4450000Y+11424000D03*
X-4420000Y+7450000D03*
X-4420000Y+6434000D03*
X+4470000Y+7490000D03*
X+4470000Y+6474000D03*
X-6500000Y+1100000D03*
X-5484000Y+1100000D03*
X-4930000Y+1060000D03*
X-3914000Y+1060000D03*
X-3320000Y+1060000D03*
X-2304000Y+1060000D03*
X-1700000Y+1060000D03*
X-684000Y+1060000D03*
X+150000Y+1050000D03*
X+1166000Y+1050000D03*
X-8460000Y-3950000D03*
X-7444000Y-3950000D03*
X-8326000Y-5960000D03*
X-7310000Y-5960000D03*
X-6830000Y-5860000D03*
X-5814000Y-5860000D03*
X-5250000Y-5900000D03*
X-4234000Y-5900000D03*
X-3680000Y-5920000D03*
X-2664000Y-5920000D03*
X-2076000Y-5950000D03*
X-1060000Y-5950000D03*
X-590000Y-5880000D03*
X+426000Y-5880000D03*
X+1060000Y-5850000D03*
X+2076000Y-5850000D03*
X+2390000Y-5870000D03*
X+3406000Y-5870000D03*
X+4640000Y-6240000D03*
X+4640000Y-7256000D03*
X+4750000Y-5290000D03*
X+5766000Y-5290000D03*
X-8500000Y-10230000D03*
X-8500000Y-11246000D03*
X-6200000Y-10520000D03*
X-5184000Y-10520000D03*
X-3810000Y-10580000D03*
X-2794000Y-10580000D03*
X-1420000Y-10570000D03*
X-404000Y-10570000D03*
X+872500Y-10552500D03*
X+1888500Y-10552500D03*
X+3430000Y-10580000D03*
X+4446000Y-10580000D03*
X+5700000Y-10590000D03*
X+6716000Y-10590000D03*
D29*
X-9000000Y-15750000D02*
X+9000000Y-15750000D01*
X+9000000Y+15750000D01*
X-9000000Y+15750000D01*
X-9000000Y-15750000D01*
M02*
