G04 PROTEUS GERBER X2 FILE*
%TF.GenerationSoftware,Labcenter,Proteus,8.6-SP2-Build23525*%
%TF.CreationDate,2019-12-11T18:44:10+00:00*%
%TF.FileFunction,AssemblyDrawing,Bot*%
%TF.FilePolarity,Positive*%
%TF.Part,Single*%
%FSLAX45Y45*%
%MOMM*%
G01*
%TA.AperFunction,Profile*%
%ADD29C,0.203200*%
%TA.AperFunction,Material*%
%ADD72C,0.203200*%
%ADD83C,0.236020*%
%ADD84C,0.106680*%
%ADD85C,0.164590*%
%ADD86C,0.050800*%
%ADD87C,0.191010*%
%ADD88C,0.191770*%
%ADD89C,0.143260*%
%ADD90C,0.132080*%
%ADD91C,0.383540*%
%ADD92C,0.438330*%
%ADD31C,0.152400*%
%ADD93C,0.374220*%
%ADD94C,0.510300*%
%ADD95C,0.330200*%
%ADD96C,0.140010*%
%ADD97C,0.108790*%
%ADD98C,0.154010*%
%ADD99C,0.033160*%
%ADD100C,0.095560*%
%ADD101C,0.062650*%
%TD.AperFunction*%
D29*
X-9000000Y-15750000D02*
X+9000000Y-15750000D01*
X+9000000Y+15750000D01*
X-9000000Y+15750000D01*
X-9000000Y-15750000D01*
D72*
X-8330660Y+7975300D02*
X-5262340Y+7975300D01*
X-5262340Y+8864300D01*
X-8330660Y+8864300D01*
X-8330660Y+7975300D01*
D83*
X-5663586Y+8348992D02*
X-5663586Y+8490607D01*
X-5734393Y+8419800D01*
X-5805200Y+8490607D01*
X-5805200Y+8348992D01*
X-5852405Y+8348992D02*
X-5852405Y+8443402D01*
X-5899609Y+8490607D01*
X-5946814Y+8490607D01*
X-5994019Y+8443402D01*
X-5994019Y+8348992D01*
X-5852405Y+8396197D02*
X-5994019Y+8396197D01*
X-6041224Y+8490607D02*
X-6182838Y+8348992D01*
X-6041224Y+8348992D02*
X-6182838Y+8490607D01*
X-6560476Y+8372595D02*
X-6536873Y+8348992D01*
X-6466066Y+8348992D01*
X-6418862Y+8396197D01*
X-6418862Y+8443402D01*
X-6466066Y+8490607D01*
X-6536873Y+8490607D01*
X-6560476Y+8467004D01*
X-6607681Y+8443402D02*
X-6654885Y+8490607D01*
X-6702090Y+8490607D01*
X-6749295Y+8443402D01*
X-6749295Y+8396197D01*
X-6702090Y+8348992D01*
X-6654885Y+8348992D01*
X-6607681Y+8396197D01*
X-6607681Y+8443402D01*
X-6796500Y+8348992D02*
X-6796500Y+8490607D01*
X-6867307Y+8419800D01*
X-6938114Y+8490607D01*
X-6938114Y+8348992D01*
X-7032523Y+8443402D02*
X-7079728Y+8490607D01*
X-7079728Y+8348992D01*
X-7362957Y+8348992D02*
X-7362957Y+8443402D01*
X-7410161Y+8490607D01*
X-7457366Y+8490607D01*
X-7504571Y+8443402D01*
X-7504571Y+8348992D01*
X-7362957Y+8396197D02*
X-7504571Y+8396197D01*
X-7693390Y+8372595D02*
X-7669787Y+8348992D01*
X-7598980Y+8348992D01*
X-7551776Y+8396197D01*
X-7551776Y+8443402D01*
X-7598980Y+8490607D01*
X-7669787Y+8490607D01*
X-7693390Y+8467004D01*
X-7740595Y+8490607D02*
X-7882209Y+8490607D01*
X-7811402Y+8490607D02*
X-7811402Y+8348992D01*
D72*
X-4100660Y+7985300D02*
X-1032340Y+7985300D01*
X-1032340Y+8874300D01*
X-4100660Y+8874300D01*
X-4100660Y+7985300D01*
D83*
X-1433586Y+8358992D02*
X-1433586Y+8500607D01*
X-1504393Y+8429800D01*
X-1575200Y+8500607D01*
X-1575200Y+8358992D01*
X-1622405Y+8358992D02*
X-1622405Y+8453402D01*
X-1669609Y+8500607D01*
X-1716814Y+8500607D01*
X-1764019Y+8453402D01*
X-1764019Y+8358992D01*
X-1622405Y+8406197D02*
X-1764019Y+8406197D01*
X-1811224Y+8500607D02*
X-1952838Y+8358992D01*
X-1811224Y+8358992D02*
X-1952838Y+8500607D01*
X-2330476Y+8382595D02*
X-2306873Y+8358992D01*
X-2236066Y+8358992D01*
X-2188862Y+8406197D01*
X-2188862Y+8453402D01*
X-2236066Y+8500607D01*
X-2306873Y+8500607D01*
X-2330476Y+8477004D01*
X-2377681Y+8453402D02*
X-2424885Y+8500607D01*
X-2472090Y+8500607D01*
X-2519295Y+8453402D01*
X-2519295Y+8406197D01*
X-2472090Y+8358992D01*
X-2424885Y+8358992D01*
X-2377681Y+8406197D01*
X-2377681Y+8453402D01*
X-2566500Y+8358992D02*
X-2566500Y+8500607D01*
X-2637307Y+8429800D01*
X-2708114Y+8500607D01*
X-2708114Y+8358992D01*
X-2802523Y+8453402D02*
X-2849728Y+8500607D01*
X-2849728Y+8358992D01*
X-3132957Y+8382595D02*
X-3156559Y+8358992D01*
X-3250968Y+8358992D01*
X-3274571Y+8382595D01*
X-3274571Y+8406197D01*
X-3250968Y+8429800D01*
X-3156559Y+8429800D01*
X-3132957Y+8453402D01*
X-3132957Y+8477004D01*
X-3156559Y+8500607D01*
X-3250968Y+8500607D01*
X-3274571Y+8477004D01*
X-3321776Y+8500607D02*
X-3463390Y+8500607D01*
X-3392583Y+8500607D02*
X-3392583Y+8358992D01*
X-3510595Y+8358992D02*
X-3510595Y+8500607D01*
X-3628606Y+8500607D01*
X-3652209Y+8477004D01*
X-3652209Y+8453402D01*
X-3628606Y+8429800D01*
X-3652209Y+8406197D01*
X-3652209Y+8382595D01*
X-3628606Y+8358992D01*
X-3510595Y+8358992D01*
X-3510595Y+8429800D02*
X-3628606Y+8429800D01*
D72*
X+1271880Y+7952120D02*
X+4340200Y+7952120D01*
X+4340200Y+8841120D01*
X+1271880Y+8841120D01*
X+1271880Y+7952120D01*
D83*
X+3938954Y+8325812D02*
X+3938954Y+8467427D01*
X+3868147Y+8396620D01*
X+3797340Y+8467427D01*
X+3797340Y+8325812D01*
X+3750135Y+8325812D02*
X+3750135Y+8420222D01*
X+3702931Y+8467427D01*
X+3655726Y+8467427D01*
X+3608521Y+8420222D01*
X+3608521Y+8325812D01*
X+3750135Y+8373017D02*
X+3608521Y+8373017D01*
X+3561316Y+8467427D02*
X+3419702Y+8325812D01*
X+3561316Y+8325812D02*
X+3419702Y+8467427D01*
X+3183678Y+8325812D02*
X+3183678Y+8467427D01*
X+3042064Y+8325812D01*
X+3042064Y+8467427D01*
X+2994859Y+8325812D02*
X+2994859Y+8420222D01*
X+2947655Y+8467427D01*
X+2900450Y+8467427D01*
X+2853245Y+8420222D01*
X+2853245Y+8325812D01*
X+2994859Y+8373017D02*
X+2853245Y+8373017D01*
X+2806040Y+8467427D02*
X+2806040Y+8396620D01*
X+2735233Y+8325812D01*
X+2664426Y+8396620D01*
X+2664426Y+8467427D01*
X+2570017Y+8420222D02*
X+2522812Y+8467427D01*
X+2522812Y+8325812D01*
X+2239583Y+8325812D02*
X+2239583Y+8420222D01*
X+2192379Y+8467427D01*
X+2145174Y+8467427D01*
X+2097969Y+8420222D01*
X+2097969Y+8325812D01*
X+2239583Y+8373017D02*
X+2097969Y+8373017D01*
X+1909150Y+8349415D02*
X+1932753Y+8325812D01*
X+2003560Y+8325812D01*
X+2050764Y+8373017D01*
X+2050764Y+8420222D01*
X+2003560Y+8467427D01*
X+1932753Y+8467427D01*
X+1909150Y+8443824D01*
X+1861945Y+8467427D02*
X+1720331Y+8467427D01*
X+1791138Y+8467427D02*
X+1791138Y+8325812D01*
D72*
X+5329340Y+7987200D02*
X+8397660Y+7987200D01*
X+8397660Y+8876200D01*
X+5329340Y+8876200D01*
X+5329340Y+7987200D01*
D83*
X+7996414Y+8360892D02*
X+7996414Y+8502507D01*
X+7925607Y+8431700D01*
X+7854800Y+8502507D01*
X+7854800Y+8360892D01*
X+7807595Y+8360892D02*
X+7807595Y+8455302D01*
X+7760391Y+8502507D01*
X+7713186Y+8502507D01*
X+7665981Y+8455302D01*
X+7665981Y+8360892D01*
X+7807595Y+8408097D02*
X+7665981Y+8408097D01*
X+7618776Y+8502507D02*
X+7477162Y+8360892D01*
X+7618776Y+8360892D02*
X+7477162Y+8502507D01*
X+7241138Y+8360892D02*
X+7241138Y+8502507D01*
X+7099524Y+8360892D01*
X+7099524Y+8502507D01*
X+7052319Y+8360892D02*
X+7052319Y+8455302D01*
X+7005115Y+8502507D01*
X+6957910Y+8502507D01*
X+6910705Y+8455302D01*
X+6910705Y+8360892D01*
X+7052319Y+8408097D02*
X+6910705Y+8408097D01*
X+6863500Y+8502507D02*
X+6863500Y+8431700D01*
X+6792693Y+8360892D01*
X+6721886Y+8431700D01*
X+6721886Y+8502507D01*
X+6627477Y+8455302D02*
X+6580272Y+8502507D01*
X+6580272Y+8360892D01*
X+6297043Y+8384495D02*
X+6273441Y+8360892D01*
X+6179032Y+8360892D01*
X+6155429Y+8384495D01*
X+6155429Y+8408097D01*
X+6179032Y+8431700D01*
X+6273441Y+8431700D01*
X+6297043Y+8455302D01*
X+6297043Y+8478904D01*
X+6273441Y+8502507D01*
X+6179032Y+8502507D01*
X+6155429Y+8478904D01*
X+6108224Y+8502507D02*
X+5966610Y+8502507D01*
X+6037417Y+8502507D02*
X+6037417Y+8360892D01*
X+5919405Y+8360892D02*
X+5919405Y+8502507D01*
X+5801394Y+8502507D01*
X+5777791Y+8478904D01*
X+5777791Y+8455302D01*
X+5801394Y+8431700D01*
X+5777791Y+8408097D01*
X+5777791Y+8384495D01*
X+5801394Y+8360892D01*
X+5919405Y+8360892D01*
X+5919405Y+8431700D02*
X+5801394Y+8431700D01*
D72*
X-5845860Y+9136060D02*
X-5668060Y+9136060D01*
X-5668060Y+10329860D01*
X-5845860Y+10329860D01*
X-5845860Y+9136060D01*
D84*
X-5724956Y+9988992D02*
X-5788964Y+9988992D01*
X-5788964Y+9935652D01*
X-5778296Y+9924984D01*
X-5767628Y+9924984D01*
X-5756960Y+9935652D01*
X-5756960Y+9988992D01*
X-5756960Y+9935652D02*
X-5746292Y+9924984D01*
X-5724956Y+9924984D01*
X-5767628Y+9882312D02*
X-5788964Y+9860976D01*
X-5724956Y+9860976D01*
X-5767628Y+9711624D02*
X-5788964Y+9690288D01*
X-5724956Y+9690288D01*
X-5735624Y+9647616D02*
X-5778296Y+9647616D01*
X-5788964Y+9636948D01*
X-5788964Y+9594276D01*
X-5778296Y+9583608D01*
X-5735624Y+9583608D01*
X-5724956Y+9594276D01*
X-5724956Y+9636948D01*
X-5735624Y+9647616D01*
X-5724956Y+9647616D02*
X-5788964Y+9583608D01*
X-5788964Y+9562272D02*
X-5724956Y+9562272D01*
X-5788964Y+9498264D02*
X-5756960Y+9530268D01*
X-5724956Y+9498264D01*
X-5756960Y+9562272D02*
X-5756960Y+9530268D01*
D72*
X+5016970Y+10766670D02*
X+6210770Y+10766670D01*
X+6210770Y+10944470D01*
X+5016970Y+10944470D01*
X+5016970Y+10766670D01*
D84*
X+5699214Y+10823566D02*
X+5699214Y+10887574D01*
X+5645874Y+10887574D01*
X+5635206Y+10876906D01*
X+5635206Y+10866238D01*
X+5645874Y+10855570D01*
X+5699214Y+10855570D01*
X+5645874Y+10855570D02*
X+5635206Y+10844902D01*
X+5635206Y+10823566D01*
X+5549862Y+10887574D02*
X+5603202Y+10887574D01*
X+5603202Y+10866238D01*
X+5560530Y+10866238D01*
X+5549862Y+10855570D01*
X+5549862Y+10834234D01*
X+5560530Y+10823566D01*
X+5592534Y+10823566D01*
X+5603202Y+10834234D01*
D72*
X+2483350Y+10776330D02*
X+3677150Y+10776330D01*
X+3677150Y+10954130D01*
X+2483350Y+10954130D01*
X+2483350Y+10776330D01*
D84*
X+3165594Y+10833226D02*
X+3165594Y+10897234D01*
X+3112254Y+10897234D01*
X+3101586Y+10886566D01*
X+3101586Y+10875898D01*
X+3112254Y+10865230D01*
X+3165594Y+10865230D01*
X+3112254Y+10865230D02*
X+3101586Y+10854562D01*
X+3101586Y+10833226D01*
X+3016242Y+10886566D02*
X+3026910Y+10897234D01*
X+3058914Y+10897234D01*
X+3069582Y+10886566D01*
X+3069582Y+10843894D01*
X+3058914Y+10833226D01*
X+3026910Y+10833226D01*
X+3016242Y+10843894D01*
X+3016242Y+10854562D01*
X+3026910Y+10865230D01*
X+3069582Y+10865230D01*
D72*
X-3398400Y+9309680D02*
X-3220600Y+9309680D01*
X-3220600Y+10503480D01*
X-3398400Y+10503480D01*
X-3398400Y+9309680D01*
D84*
X-3277496Y+9991924D02*
X-3341504Y+9991924D01*
X-3341504Y+9938584D01*
X-3330836Y+9927916D01*
X-3320168Y+9927916D01*
X-3309500Y+9938584D01*
X-3309500Y+9991924D01*
X-3309500Y+9938584D02*
X-3298832Y+9927916D01*
X-3277496Y+9927916D01*
X-3341504Y+9895912D02*
X-3341504Y+9842572D01*
X-3330836Y+9842572D01*
X-3277496Y+9895912D01*
D72*
X-5077160Y+8140620D02*
X-4802840Y+8140620D01*
X-4802840Y+8668940D01*
X-5077160Y+8668940D01*
X-5077160Y+8140620D01*
D85*
X-4907081Y+8437699D02*
X-4890622Y+8454158D01*
X-4890622Y+8503535D01*
X-4923540Y+8536453D01*
X-4956459Y+8536453D01*
X-4989377Y+8503535D01*
X-4989377Y+8454158D01*
X-4972918Y+8437699D01*
X-4956459Y+8371862D02*
X-4989377Y+8338944D01*
X-4890622Y+8338944D01*
D86*
X-4143320Y+8405700D02*
X-4144238Y+8428514D01*
X-4151691Y+8474143D01*
X-4167238Y+8519772D01*
X-4192480Y+8565401D01*
X-4231022Y+8610931D01*
X-4276651Y+8646427D01*
X-4322280Y+8669547D01*
X-4367909Y+8683400D01*
X-4413538Y+8689346D01*
X-4427300Y+8689680D01*
X-4711280Y+8405700D02*
X-4710362Y+8428514D01*
X-4702909Y+8474143D01*
X-4687362Y+8519772D01*
X-4662120Y+8565401D01*
X-4623578Y+8610931D01*
X-4577949Y+8646427D01*
X-4532320Y+8669547D01*
X-4486691Y+8683400D01*
X-4441062Y+8689346D01*
X-4427300Y+8689680D01*
X-4711280Y+8405700D02*
X-4710362Y+8382886D01*
X-4702909Y+8337257D01*
X-4687362Y+8291628D01*
X-4662120Y+8245999D01*
X-4623578Y+8200469D01*
X-4577949Y+8164973D01*
X-4532320Y+8141853D01*
X-4486691Y+8128000D01*
X-4441062Y+8122054D01*
X-4427300Y+8121720D01*
X-4143320Y+8405700D02*
X-4144238Y+8382886D01*
X-4151691Y+8337257D01*
X-4167238Y+8291628D01*
X-4192480Y+8245999D01*
X-4231022Y+8200469D01*
X-4276651Y+8164973D01*
X-4322280Y+8141853D01*
X-4367909Y+8128000D01*
X-4413538Y+8122054D01*
X-4427300Y+8121720D01*
D87*
X-4389097Y+8443903D02*
X-4369996Y+8463004D01*
X-4369996Y+8520308D01*
X-4408199Y+8558510D01*
X-4446401Y+8558510D01*
X-4484604Y+8520308D01*
X-4484604Y+8463004D01*
X-4465503Y+8443903D01*
X-4465503Y+8386599D02*
X-4484604Y+8367498D01*
X-4484604Y+8310194D01*
X-4465503Y+8291093D01*
X-4446401Y+8291093D01*
X-4427300Y+8310194D01*
X-4427300Y+8367498D01*
X-4408199Y+8386599D01*
X-4369996Y+8386599D01*
X-4369996Y+8291093D01*
D72*
X-884120Y+8128720D02*
X-609800Y+8128720D01*
X-609800Y+8657040D01*
X-884120Y+8657040D01*
X-884120Y+8128720D01*
D85*
X-714041Y+8425799D02*
X-697582Y+8442258D01*
X-697582Y+8491635D01*
X-730500Y+8524553D01*
X-763419Y+8524553D01*
X-796337Y+8491635D01*
X-796337Y+8442258D01*
X-779878Y+8425799D01*
X-779878Y+8376421D02*
X-796337Y+8359962D01*
X-796337Y+8310585D01*
X-779878Y+8294126D01*
X-763419Y+8294126D01*
X-746960Y+8310585D01*
X-730500Y+8294126D01*
X-714041Y+8294126D01*
X-697582Y+8310585D01*
X-697582Y+8359962D01*
X-714041Y+8376421D01*
X-746960Y+8343503D02*
X-746960Y+8310585D01*
D86*
X+4480Y+8382880D02*
X+3562Y+8405694D01*
X-3891Y+8451323D01*
X-19438Y+8496952D01*
X-44680Y+8542581D01*
X-83222Y+8588111D01*
X-128851Y+8623607D01*
X-174480Y+8646727D01*
X-220109Y+8660580D01*
X-265738Y+8666526D01*
X-279500Y+8666860D01*
X-563480Y+8382880D02*
X-562562Y+8405694D01*
X-555109Y+8451323D01*
X-539562Y+8496952D01*
X-514320Y+8542581D01*
X-475778Y+8588111D01*
X-430149Y+8623607D01*
X-384520Y+8646727D01*
X-338891Y+8660580D01*
X-293262Y+8666526D01*
X-279500Y+8666860D01*
X-563480Y+8382880D02*
X-562562Y+8360066D01*
X-555109Y+8314437D01*
X-539562Y+8268808D01*
X-514320Y+8223179D01*
X-475778Y+8177649D01*
X-430149Y+8142153D01*
X-384520Y+8119033D01*
X-338891Y+8105180D01*
X-293262Y+8099234D01*
X-279500Y+8098900D01*
X+4480Y+8382880D02*
X+3562Y+8360066D01*
X-3891Y+8314437D01*
X-19438Y+8268808D01*
X-44680Y+8223179D01*
X-83222Y+8177649D01*
X-128851Y+8142153D01*
X-174480Y+8119033D01*
X-220109Y+8105180D01*
X-265738Y+8099234D01*
X-279500Y+8098900D01*
D87*
X-241297Y+8421083D02*
X-222196Y+8440184D01*
X-222196Y+8497488D01*
X-260399Y+8535690D01*
X-298601Y+8535690D01*
X-336804Y+8497488D01*
X-336804Y+8440184D01*
X-317703Y+8421083D01*
X-260399Y+8268273D02*
X-260399Y+8382880D01*
X-336804Y+8306475D01*
X-222196Y+8306475D01*
D72*
X+175880Y+8128880D02*
X+450200Y+8128880D01*
X+450200Y+8657200D01*
X+175880Y+8657200D01*
X+175880Y+8128880D01*
D85*
X+345959Y+8425959D02*
X+362418Y+8442418D01*
X+362418Y+8491795D01*
X+329500Y+8524713D01*
X+296581Y+8524713D01*
X+263663Y+8491795D01*
X+263663Y+8442418D01*
X+280122Y+8425959D01*
X+263663Y+8294286D02*
X+263663Y+8376581D01*
X+296581Y+8376581D01*
X+296581Y+8310745D01*
X+313040Y+8294286D01*
X+345959Y+8294286D01*
X+362418Y+8310745D01*
X+362418Y+8360122D01*
X+345959Y+8376581D01*
D86*
X+1087020Y+8403040D02*
X+1086102Y+8425854D01*
X+1078649Y+8471483D01*
X+1063102Y+8517112D01*
X+1037860Y+8562741D01*
X+999318Y+8608271D01*
X+953689Y+8643767D01*
X+908060Y+8666887D01*
X+862431Y+8680740D01*
X+816802Y+8686686D01*
X+803040Y+8687020D01*
X+519060Y+8403040D02*
X+519978Y+8425854D01*
X+527431Y+8471483D01*
X+542978Y+8517112D01*
X+568220Y+8562741D01*
X+606762Y+8608271D01*
X+652391Y+8643767D01*
X+698020Y+8666887D01*
X+743649Y+8680740D01*
X+789278Y+8686686D01*
X+803040Y+8687020D01*
X+519060Y+8403040D02*
X+519978Y+8380226D01*
X+527431Y+8334597D01*
X+542978Y+8288968D01*
X+568220Y+8243339D01*
X+606762Y+8197809D01*
X+652391Y+8162313D01*
X+698020Y+8139193D01*
X+743649Y+8125340D01*
X+789278Y+8119394D01*
X+803040Y+8119060D01*
X+1087020Y+8403040D02*
X+1086102Y+8380226D01*
X+1078649Y+8334597D01*
X+1063102Y+8288968D01*
X+1037860Y+8243339D01*
X+999318Y+8197809D01*
X+953689Y+8162313D01*
X+908060Y+8139193D01*
X+862431Y+8125340D01*
X+816802Y+8119394D01*
X+803040Y+8119060D01*
D87*
X+841243Y+8441243D02*
X+860344Y+8460344D01*
X+860344Y+8517648D01*
X+822141Y+8555850D01*
X+783939Y+8555850D01*
X+745736Y+8517648D01*
X+745736Y+8460344D01*
X+764837Y+8441243D01*
X+764837Y+8288433D02*
X+745736Y+8307534D01*
X+745736Y+8364838D01*
X+764837Y+8383939D01*
X+841243Y+8383939D01*
X+860344Y+8364838D01*
X+860344Y+8307534D01*
X+841243Y+8288433D01*
X+822141Y+8288433D01*
X+803040Y+8307534D01*
X+803040Y+8383939D01*
D72*
X+4432520Y+8161860D02*
X+4706840Y+8161860D01*
X+4706840Y+8690180D01*
X+4432520Y+8690180D01*
X+4432520Y+8161860D01*
D85*
X+4602599Y+8458939D02*
X+4619058Y+8475398D01*
X+4619058Y+8524775D01*
X+4586140Y+8557693D01*
X+4553221Y+8557693D01*
X+4520303Y+8524775D01*
X+4520303Y+8475398D01*
X+4536762Y+8458939D01*
X+4520303Y+8409561D02*
X+4520303Y+8327266D01*
X+4536762Y+8327266D01*
X+4619058Y+8409561D01*
D86*
X+5299080Y+8404940D02*
X+5298162Y+8427754D01*
X+5290709Y+8473383D01*
X+5275162Y+8519012D01*
X+5249920Y+8564641D01*
X+5211378Y+8610171D01*
X+5165749Y+8645667D01*
X+5120120Y+8668787D01*
X+5074491Y+8682640D01*
X+5028862Y+8688586D01*
X+5015100Y+8688920D01*
X+4731120Y+8404940D02*
X+4732038Y+8427754D01*
X+4739491Y+8473383D01*
X+4755038Y+8519012D01*
X+4780280Y+8564641D01*
X+4818822Y+8610171D01*
X+4864451Y+8645667D01*
X+4910080Y+8668787D01*
X+4955709Y+8682640D01*
X+5001338Y+8688586D01*
X+5015100Y+8688920D01*
X+4731120Y+8404940D02*
X+4732038Y+8382126D01*
X+4739491Y+8336497D01*
X+4755038Y+8290868D01*
X+4780280Y+8245239D01*
X+4818822Y+8199709D01*
X+4864451Y+8164213D01*
X+4910080Y+8141093D01*
X+4955709Y+8127240D01*
X+5001338Y+8121294D01*
X+5015100Y+8120960D01*
X+5299080Y+8404940D02*
X+5298162Y+8382126D01*
X+5290709Y+8336497D01*
X+5275162Y+8290868D01*
X+5249920Y+8245239D01*
X+5211378Y+8199709D01*
X+5165749Y+8164213D01*
X+5120120Y+8141093D01*
X+5074491Y+8127240D01*
X+5028862Y+8121294D01*
X+5015100Y+8120960D01*
D87*
X+5053303Y+8443143D02*
X+5072404Y+8462244D01*
X+5072404Y+8519548D01*
X+5034201Y+8557750D01*
X+4995999Y+8557750D01*
X+4957796Y+8519548D01*
X+4957796Y+8462244D01*
X+4976897Y+8443143D01*
X+5015100Y+8366738D02*
X+4995999Y+8385839D01*
X+4976897Y+8385839D01*
X+4957796Y+8366738D01*
X+4957796Y+8309434D01*
X+4976897Y+8290333D01*
X+4995999Y+8290333D01*
X+5015100Y+8309434D01*
X+5015100Y+8366738D01*
X+5034201Y+8385839D01*
X+5053303Y+8385839D01*
X+5072404Y+8366738D01*
X+5072404Y+8309434D01*
X+5053303Y+8290333D01*
X+5034201Y+8290333D01*
X+5015100Y+8309434D01*
D72*
X+1499340Y-5389780D02*
X+4567660Y-5389780D01*
X+4567660Y-4500780D01*
X+1499340Y-4500780D01*
X+1499340Y-5389780D01*
D88*
X+4184120Y-5002811D02*
X+4184120Y-4887749D01*
X+4126589Y-4945280D01*
X+4069058Y-4887749D01*
X+4069058Y-5002811D01*
X+4030704Y-5002811D02*
X+4030704Y-4926103D01*
X+3992350Y-4887749D01*
X+3953996Y-4887749D01*
X+3915642Y-4926103D01*
X+3915642Y-5002811D01*
X+4030704Y-4964457D02*
X+3915642Y-4964457D01*
X+3877288Y-4887749D02*
X+3762226Y-5002811D01*
X+3877288Y-5002811D02*
X+3762226Y-4887749D01*
X+3570456Y-4887749D02*
X+3455394Y-4887749D01*
X+3512925Y-4887749D02*
X+3512925Y-5002811D01*
X+3417040Y-5002811D02*
X+3417040Y-4887749D01*
X+3321155Y-4887749D01*
X+3301978Y-4906926D01*
X+3301978Y-4926103D01*
X+3321155Y-4945280D01*
X+3417040Y-4945280D01*
X+3321155Y-4945280D02*
X+3301978Y-4964457D01*
X+3301978Y-5002811D01*
X+3263624Y-5002811D02*
X+3263624Y-4926103D01*
X+3225270Y-4887749D01*
X+3186916Y-4887749D01*
X+3148562Y-4926103D01*
X+3148562Y-5002811D01*
X+3263624Y-4964457D02*
X+3148562Y-4964457D01*
X+3110208Y-5002811D02*
X+3110208Y-4887749D01*
X+2995146Y-5002811D01*
X+2995146Y-4887749D01*
X+2956792Y-4983634D02*
X+2937615Y-5002811D01*
X+2860907Y-5002811D01*
X+2841730Y-4983634D01*
X+2841730Y-4964457D01*
X+2860907Y-4945280D01*
X+2937615Y-4945280D01*
X+2956792Y-4926103D01*
X+2956792Y-4906926D01*
X+2937615Y-4887749D01*
X+2860907Y-4887749D01*
X+2841730Y-4906926D01*
X+2803376Y-5002811D02*
X+2803376Y-4887749D01*
X+2707491Y-4887749D01*
X+2688314Y-4906926D01*
X+2688314Y-4926103D01*
X+2707491Y-4945280D01*
X+2803376Y-4945280D01*
X+2649960Y-4926103D02*
X+2611606Y-4887749D01*
X+2573252Y-4887749D01*
X+2534898Y-4926103D01*
X+2534898Y-4964457D01*
X+2573252Y-5002811D01*
X+2611606Y-5002811D01*
X+2649960Y-4964457D01*
X+2649960Y-4926103D01*
X+2496544Y-5002811D02*
X+2496544Y-4887749D01*
X+2381482Y-5002811D01*
X+2381482Y-4887749D01*
X+2343128Y-5002811D02*
X+2343128Y-4887749D01*
X+2266420Y-4887749D01*
X+2228066Y-4926103D01*
X+2228066Y-4964457D01*
X+2266420Y-5002811D01*
X+2343128Y-5002811D01*
X+2074650Y-5002811D02*
X+2189712Y-5002811D01*
X+2189712Y-4887749D01*
X+2074650Y-4887749D01*
X+2189712Y-4945280D02*
X+2113004Y-4945280D01*
X+2036296Y-5002811D02*
X+2036296Y-4887749D01*
X+1940411Y-4887749D01*
X+1921234Y-4906926D01*
X+1921234Y-4926103D01*
X+1940411Y-4945280D01*
X+2036296Y-4945280D01*
X+1940411Y-4945280D02*
X+1921234Y-4964457D01*
X+1921234Y-5002811D01*
D72*
X-6754100Y+2520600D02*
X-5560300Y+2520600D01*
X-5560300Y+2698400D01*
X-6754100Y+2698400D01*
X-6754100Y+2520600D01*
D84*
X-6071856Y+2577496D02*
X-6071856Y+2641504D01*
X-6125196Y+2641504D01*
X-6135864Y+2630836D01*
X-6135864Y+2620168D01*
X-6125196Y+2609500D01*
X-6071856Y+2609500D01*
X-6125196Y+2609500D02*
X-6135864Y+2598832D01*
X-6135864Y+2577496D01*
X-6178536Y+2609500D02*
X-6167868Y+2620168D01*
X-6167868Y+2630836D01*
X-6178536Y+2641504D01*
X-6210540Y+2641504D01*
X-6221208Y+2630836D01*
X-6221208Y+2620168D01*
X-6210540Y+2609500D01*
X-6178536Y+2609500D01*
X-6167868Y+2598832D01*
X-6167868Y+2588164D01*
X-6178536Y+2577496D01*
X-6210540Y+2577496D01*
X-6221208Y+2588164D01*
X-6221208Y+2598832D01*
X-6210540Y+2609500D01*
D72*
X+4545100Y+2431100D02*
X+5738900Y+2431100D01*
X+5738900Y+2608900D01*
X+4545100Y+2608900D01*
X+4545100Y+2431100D01*
D84*
X+5227344Y+2487996D02*
X+5227344Y+2552004D01*
X+5174004Y+2552004D01*
X+5163336Y+2541336D01*
X+5163336Y+2530668D01*
X+5174004Y+2520000D01*
X+5227344Y+2520000D01*
X+5174004Y+2520000D02*
X+5163336Y+2509332D01*
X+5163336Y+2487996D01*
X+5077992Y+2530668D02*
X+5088660Y+2520000D01*
X+5120664Y+2520000D01*
X+5131332Y+2530668D01*
X+5131332Y+2541336D01*
X+5120664Y+2552004D01*
X+5088660Y+2552004D01*
X+5077992Y+2541336D01*
X+5077992Y+2498664D01*
X+5088660Y+2487996D01*
X+5120664Y+2487996D01*
D72*
X+2085900Y+2210600D02*
X+3279700Y+2210600D01*
X+3279700Y+2388400D01*
X+2085900Y+2388400D01*
X+2085900Y+2210600D01*
D84*
X+2810816Y+2267496D02*
X+2810816Y+2331504D01*
X+2757476Y+2331504D01*
X+2746808Y+2320836D01*
X+2746808Y+2310168D01*
X+2757476Y+2299500D01*
X+2810816Y+2299500D01*
X+2757476Y+2299500D02*
X+2746808Y+2288832D01*
X+2746808Y+2267496D01*
X+2704136Y+2310168D02*
X+2682800Y+2331504D01*
X+2682800Y+2267496D01*
X+2640128Y+2278164D02*
X+2640128Y+2320836D01*
X+2629460Y+2331504D01*
X+2586788Y+2331504D01*
X+2576120Y+2320836D01*
X+2576120Y+2278164D01*
X+2586788Y+2267496D01*
X+2629460Y+2267496D01*
X+2640128Y+2278164D01*
X+2640128Y+2267496D02*
X+2576120Y+2331504D01*
D72*
X-758900Y+2841100D02*
X+434900Y+2841100D01*
X+434900Y+3018900D01*
X-758900Y+3018900D01*
X-758900Y+2841100D01*
D84*
X-33984Y+2897996D02*
X-33984Y+2962004D01*
X-87324Y+2962004D01*
X-97992Y+2951336D01*
X-97992Y+2940668D01*
X-87324Y+2930000D01*
X-33984Y+2930000D01*
X-87324Y+2930000D02*
X-97992Y+2919332D01*
X-97992Y+2897996D01*
X-140664Y+2940668D02*
X-162000Y+2962004D01*
X-162000Y+2897996D01*
X-226008Y+2940668D02*
X-247344Y+2962004D01*
X-247344Y+2897996D01*
D72*
X-5157160Y+3132840D02*
X-4882840Y+3132840D01*
X-4882840Y+3661160D01*
X-5157160Y+3661160D01*
X-5157160Y+3132840D01*
D85*
X-4987081Y+3429919D02*
X-4970622Y+3446378D01*
X-4970622Y+3495755D01*
X-5003540Y+3528673D01*
X-5036459Y+3528673D01*
X-5069377Y+3495755D01*
X-5069377Y+3446378D01*
X-5052918Y+3429919D01*
X-5036459Y+3298246D02*
X-5020000Y+3314705D01*
X-5020000Y+3364082D01*
X-5036459Y+3380541D01*
X-5052918Y+3380541D01*
X-5069377Y+3364082D01*
X-5069377Y+3314705D01*
X-5052918Y+3298246D01*
X-4987081Y+3298246D01*
X-4970622Y+3314705D01*
X-4970622Y+3364082D01*
D86*
X-4156020Y+3397920D02*
X-4156938Y+3420734D01*
X-4164391Y+3466363D01*
X-4179938Y+3511992D01*
X-4205180Y+3557621D01*
X-4243722Y+3603151D01*
X-4289351Y+3638647D01*
X-4334980Y+3661767D01*
X-4380609Y+3675620D01*
X-4426238Y+3681566D01*
X-4440000Y+3681900D01*
X-4723980Y+3397920D02*
X-4723062Y+3420734D01*
X-4715609Y+3466363D01*
X-4700062Y+3511992D01*
X-4674820Y+3557621D01*
X-4636278Y+3603151D01*
X-4590649Y+3638647D01*
X-4545020Y+3661767D01*
X-4499391Y+3675620D01*
X-4453762Y+3681566D01*
X-4440000Y+3681900D01*
X-4723980Y+3397920D02*
X-4723062Y+3375106D01*
X-4715609Y+3329477D01*
X-4700062Y+3283848D01*
X-4674820Y+3238219D01*
X-4636278Y+3192689D01*
X-4590649Y+3157193D01*
X-4545020Y+3134073D01*
X-4499391Y+3120220D01*
X-4453762Y+3114274D01*
X-4440000Y+3113940D01*
X-4156020Y+3397920D02*
X-4156938Y+3375106D01*
X-4164391Y+3329477D01*
X-4179938Y+3283848D01*
X-4205180Y+3238219D01*
X-4243722Y+3192689D01*
X-4289351Y+3157193D01*
X-4334980Y+3134073D01*
X-4380609Y+3120220D01*
X-4426238Y+3114274D01*
X-4440000Y+3113940D01*
D89*
X-4411348Y+3483876D02*
X-4397022Y+3498202D01*
X-4397022Y+3541180D01*
X-4425674Y+3569832D01*
X-4454326Y+3569832D01*
X-4482978Y+3541180D01*
X-4482978Y+3498202D01*
X-4468652Y+3483876D01*
X-4454326Y+3426572D02*
X-4482978Y+3397920D01*
X-4397022Y+3397920D01*
X-4411348Y+3340616D02*
X-4468652Y+3340616D01*
X-4482978Y+3326290D01*
X-4482978Y+3268986D01*
X-4468652Y+3254660D01*
X-4411348Y+3254660D01*
X-4397022Y+3268986D01*
X-4397022Y+3326290D01*
X-4411348Y+3340616D01*
X-4397022Y+3340616D02*
X-4482978Y+3254660D01*
D72*
X-827160Y+3128840D02*
X-552840Y+3128840D01*
X-552840Y+3657160D01*
X-827160Y+3657160D01*
X-827160Y+3128840D01*
D90*
X-663584Y+3472248D02*
X-650376Y+3485456D01*
X-650376Y+3525080D01*
X-676792Y+3551496D01*
X-703208Y+3551496D01*
X-729624Y+3525080D01*
X-729624Y+3485456D01*
X-716416Y+3472248D01*
X-703208Y+3419416D02*
X-729624Y+3393000D01*
X-650376Y+3393000D01*
X-703208Y+3313752D02*
X-729624Y+3287336D01*
X-650376Y+3287336D01*
D86*
X+84480Y+3402880D02*
X+83562Y+3425694D01*
X+76109Y+3471323D01*
X+60562Y+3516952D01*
X+35320Y+3562581D01*
X-3222Y+3608111D01*
X-48851Y+3643607D01*
X-94480Y+3666727D01*
X-140109Y+3680580D01*
X-185738Y+3686526D01*
X-199500Y+3686860D01*
X-483480Y+3402880D02*
X-482562Y+3425694D01*
X-475109Y+3471323D01*
X-459562Y+3516952D01*
X-434320Y+3562581D01*
X-395778Y+3608111D01*
X-350149Y+3643607D01*
X-304520Y+3666727D01*
X-258891Y+3680580D01*
X-213262Y+3686526D01*
X-199500Y+3686860D01*
X-483480Y+3402880D02*
X-482562Y+3380066D01*
X-475109Y+3334437D01*
X-459562Y+3288808D01*
X-434320Y+3243179D01*
X-395778Y+3197649D01*
X-350149Y+3162153D01*
X-304520Y+3139033D01*
X-258891Y+3125180D01*
X-213262Y+3119234D01*
X-199500Y+3118900D01*
X+84480Y+3402880D02*
X+83562Y+3380066D01*
X+76109Y+3334437D01*
X+60562Y+3288808D01*
X+35320Y+3243179D01*
X-3222Y+3197649D01*
X-48851Y+3162153D01*
X-94480Y+3139033D01*
X-140109Y+3125180D01*
X-185738Y+3119234D01*
X-199500Y+3118900D01*
D89*
X-170848Y+3488836D02*
X-156522Y+3503162D01*
X-156522Y+3546140D01*
X-185174Y+3574792D01*
X-213826Y+3574792D01*
X-242478Y+3546140D01*
X-242478Y+3503162D01*
X-228152Y+3488836D01*
X-213826Y+3431532D02*
X-242478Y+3402880D01*
X-156522Y+3402880D01*
X-228152Y+3331250D02*
X-242478Y+3316924D01*
X-242478Y+3273946D01*
X-228152Y+3259620D01*
X-213826Y+3259620D01*
X-199500Y+3273946D01*
X-199500Y+3316924D01*
X-185174Y+3331250D01*
X-156522Y+3331250D01*
X-156522Y+3259620D01*
D72*
X+193340Y+3140940D02*
X+467660Y+3140940D01*
X+467660Y+3669260D01*
X+193340Y+3669260D01*
X+193340Y+3140940D01*
D90*
X+356916Y+3484348D02*
X+370124Y+3497556D01*
X+370124Y+3537180D01*
X+343708Y+3563596D01*
X+317292Y+3563596D01*
X+290876Y+3537180D01*
X+290876Y+3497556D01*
X+304084Y+3484348D01*
X+317292Y+3431516D02*
X+290876Y+3405100D01*
X+370124Y+3405100D01*
X+304084Y+3339060D02*
X+290876Y+3325852D01*
X+290876Y+3286228D01*
X+304084Y+3273020D01*
X+317292Y+3273020D01*
X+330500Y+3286228D01*
X+343708Y+3273020D01*
X+356916Y+3273020D01*
X+370124Y+3286228D01*
X+370124Y+3325852D01*
X+356916Y+3339060D01*
X+330500Y+3312644D02*
X+330500Y+3286228D01*
D86*
X+1054480Y+3402880D02*
X+1053562Y+3425694D01*
X+1046109Y+3471323D01*
X+1030562Y+3516952D01*
X+1005320Y+3562581D01*
X+966778Y+3608111D01*
X+921149Y+3643607D01*
X+875520Y+3666727D01*
X+829891Y+3680580D01*
X+784262Y+3686526D01*
X+770500Y+3686860D01*
X+486520Y+3402880D02*
X+487438Y+3425694D01*
X+494891Y+3471323D01*
X+510438Y+3516952D01*
X+535680Y+3562581D01*
X+574222Y+3608111D01*
X+619851Y+3643607D01*
X+665480Y+3666727D01*
X+711109Y+3680580D01*
X+756738Y+3686526D01*
X+770500Y+3686860D01*
X+486520Y+3402880D02*
X+487438Y+3380066D01*
X+494891Y+3334437D01*
X+510438Y+3288808D01*
X+535680Y+3243179D01*
X+574222Y+3197649D01*
X+619851Y+3162153D01*
X+665480Y+3139033D01*
X+711109Y+3125180D01*
X+756738Y+3119234D01*
X+770500Y+3118900D01*
X+1054480Y+3402880D02*
X+1053562Y+3380066D01*
X+1046109Y+3334437D01*
X+1030562Y+3288808D01*
X+1005320Y+3243179D01*
X+966778Y+3197649D01*
X+921149Y+3162153D01*
X+875520Y+3139033D01*
X+829891Y+3125180D01*
X+784262Y+3119234D01*
X+770500Y+3118900D01*
D89*
X+799152Y+3488836D02*
X+813478Y+3503162D01*
X+813478Y+3546140D01*
X+784826Y+3574792D01*
X+756174Y+3574792D01*
X+727522Y+3546140D01*
X+727522Y+3503162D01*
X+741848Y+3488836D01*
X+756174Y+3431532D02*
X+727522Y+3402880D01*
X+813478Y+3402880D01*
X+784826Y+3259620D02*
X+784826Y+3345576D01*
X+727522Y+3288272D01*
X+813478Y+3288272D01*
D86*
X+4894640Y+3388940D02*
X+4893722Y+3411754D01*
X+4886269Y+3457383D01*
X+4870722Y+3503012D01*
X+4845480Y+3548641D01*
X+4806938Y+3594171D01*
X+4761309Y+3629667D01*
X+4715680Y+3652787D01*
X+4670051Y+3666640D01*
X+4624422Y+3672586D01*
X+4610660Y+3672920D01*
X+4326680Y+3388940D02*
X+4327598Y+3411754D01*
X+4335051Y+3457383D01*
X+4350598Y+3503012D01*
X+4375840Y+3548641D01*
X+4414382Y+3594171D01*
X+4460011Y+3629667D01*
X+4505640Y+3652787D01*
X+4551269Y+3666640D01*
X+4596898Y+3672586D01*
X+4610660Y+3672920D01*
X+4326680Y+3388940D02*
X+4327598Y+3366126D01*
X+4335051Y+3320497D01*
X+4350598Y+3274868D01*
X+4375840Y+3229239D01*
X+4414382Y+3183709D01*
X+4460011Y+3148213D01*
X+4505640Y+3125093D01*
X+4551269Y+3111240D01*
X+4596898Y+3105294D01*
X+4610660Y+3104960D01*
X+4894640Y+3388940D02*
X+4893722Y+3366126D01*
X+4886269Y+3320497D01*
X+4870722Y+3274868D01*
X+4845480Y+3229239D01*
X+4806938Y+3183709D01*
X+4761309Y+3148213D01*
X+4715680Y+3125093D01*
X+4670051Y+3111240D01*
X+4624422Y+3105294D01*
X+4610660Y+3104960D01*
D89*
X+4639312Y+3474896D02*
X+4653638Y+3489222D01*
X+4653638Y+3532200D01*
X+4624986Y+3560852D01*
X+4596334Y+3560852D01*
X+4567682Y+3532200D01*
X+4567682Y+3489222D01*
X+4582008Y+3474896D01*
X+4596334Y+3417592D02*
X+4567682Y+3388940D01*
X+4653638Y+3388940D01*
X+4567682Y+3245680D02*
X+4567682Y+3317310D01*
X+4596334Y+3317310D01*
X+4596334Y+3260006D01*
X+4610660Y+3245680D01*
X+4639312Y+3245680D01*
X+4653638Y+3260006D01*
X+4653638Y+3302984D01*
X+4639312Y+3317310D01*
D72*
X+4953000Y+3130900D02*
X+5227320Y+3130900D01*
X+5227320Y+3659220D01*
X+4953000Y+3659220D01*
X+4953000Y+3130900D01*
D90*
X+5116576Y+3474308D02*
X+5129784Y+3487516D01*
X+5129784Y+3527140D01*
X+5103368Y+3553556D01*
X+5076952Y+3553556D01*
X+5050536Y+3527140D01*
X+5050536Y+3487516D01*
X+5063744Y+3474308D01*
X+5076952Y+3421476D02*
X+5050536Y+3395060D01*
X+5129784Y+3395060D01*
X+5063744Y+3262980D02*
X+5050536Y+3276188D01*
X+5050536Y+3315812D01*
X+5063744Y+3329020D01*
X+5116576Y+3329020D01*
X+5129784Y+3315812D01*
X+5129784Y+3276188D01*
X+5116576Y+3262980D01*
X+5103368Y+3262980D01*
X+5090160Y+3276188D01*
X+5090160Y+3329020D01*
D72*
X-5521440Y+14990940D02*
X-4327640Y+14990940D01*
X-4327640Y+15168740D01*
X-5521440Y+15168740D01*
X-5521440Y+14990940D01*
D84*
X-4796524Y+15047836D02*
X-4796524Y+15111844D01*
X-4849864Y+15111844D01*
X-4860532Y+15101176D01*
X-4860532Y+15090508D01*
X-4849864Y+15079840D01*
X-4796524Y+15079840D01*
X-4849864Y+15079840D02*
X-4860532Y+15069172D01*
X-4860532Y+15047836D01*
X-4903204Y+15090508D02*
X-4924540Y+15111844D01*
X-4924540Y+15047836D01*
X-5031220Y+15101176D02*
X-5020552Y+15111844D01*
X-4988548Y+15111844D01*
X-4977880Y+15101176D01*
X-4977880Y+15058504D01*
X-4988548Y+15047836D01*
X-5020552Y+15047836D01*
X-5031220Y+15058504D01*
X-5031220Y+15069172D01*
X-5020552Y+15079840D01*
X-4977880Y+15079840D01*
D72*
X-3698900Y+14991100D02*
X-2505100Y+14991100D01*
X-2505100Y+15168900D01*
X-3698900Y+15168900D01*
X-3698900Y+14991100D01*
D84*
X-2973984Y+15047996D02*
X-2973984Y+15112004D01*
X-3027324Y+15112004D01*
X-3037992Y+15101336D01*
X-3037992Y+15090668D01*
X-3027324Y+15080000D01*
X-2973984Y+15080000D01*
X-3027324Y+15080000D02*
X-3037992Y+15069332D01*
X-3037992Y+15047996D01*
X-3080664Y+15090668D02*
X-3102000Y+15112004D01*
X-3102000Y+15047996D01*
X-3166008Y+15080000D02*
X-3155340Y+15090668D01*
X-3155340Y+15101336D01*
X-3166008Y+15112004D01*
X-3198012Y+15112004D01*
X-3208680Y+15101336D01*
X-3208680Y+15090668D01*
X-3198012Y+15080000D01*
X-3166008Y+15080000D01*
X-3155340Y+15069332D01*
X-3155340Y+15058664D01*
X-3166008Y+15047996D01*
X-3198012Y+15047996D01*
X-3208680Y+15058664D01*
X-3208680Y+15069332D01*
X-3198012Y+15080000D01*
D72*
X-1848900Y+14991100D02*
X-655100Y+14991100D01*
X-655100Y+15168900D01*
X-1848900Y+15168900D01*
X-1848900Y+14991100D01*
D84*
X-1123984Y+15047996D02*
X-1123984Y+15112004D01*
X-1177324Y+15112004D01*
X-1187992Y+15101336D01*
X-1187992Y+15090668D01*
X-1177324Y+15080000D01*
X-1123984Y+15080000D01*
X-1177324Y+15080000D02*
X-1187992Y+15069332D01*
X-1187992Y+15047996D01*
X-1230664Y+15090668D02*
X-1252000Y+15112004D01*
X-1252000Y+15047996D01*
X-1358680Y+15090668D02*
X-1348012Y+15080000D01*
X-1316008Y+15080000D01*
X-1305340Y+15090668D01*
X-1305340Y+15101336D01*
X-1316008Y+15112004D01*
X-1348012Y+15112004D01*
X-1358680Y+15101336D01*
X-1358680Y+15058664D01*
X-1348012Y+15047996D01*
X-1316008Y+15047996D01*
D72*
X+6020Y+14978240D02*
X+1199820Y+14978240D01*
X+1199820Y+15156040D01*
X+6020Y+15156040D01*
X+6020Y+14978240D01*
D84*
X+730936Y+15035136D02*
X+730936Y+15099144D01*
X+677596Y+15099144D01*
X+666928Y+15088476D01*
X+666928Y+15077808D01*
X+677596Y+15067140D01*
X+730936Y+15067140D01*
X+677596Y+15067140D02*
X+666928Y+15056472D01*
X+666928Y+15035136D01*
X+634924Y+15088476D02*
X+624256Y+15099144D01*
X+592252Y+15099144D01*
X+581584Y+15088476D01*
X+581584Y+15077808D01*
X+592252Y+15067140D01*
X+624256Y+15067140D01*
X+634924Y+15056472D01*
X+634924Y+15035136D01*
X+581584Y+15035136D01*
X+560248Y+15045804D02*
X+560248Y+15088476D01*
X+549580Y+15099144D01*
X+506908Y+15099144D01*
X+496240Y+15088476D01*
X+496240Y+15045804D01*
X+506908Y+15035136D01*
X+549580Y+15035136D01*
X+560248Y+15045804D01*
X+560248Y+15035136D02*
X+496240Y+15099144D01*
D72*
X+1841100Y+14978080D02*
X+3034900Y+14978080D01*
X+3034900Y+15155880D01*
X+1841100Y+15155880D01*
X+1841100Y+14978080D01*
D84*
X+2566016Y+15034976D02*
X+2566016Y+15098984D01*
X+2512676Y+15098984D01*
X+2502008Y+15088316D01*
X+2502008Y+15077648D01*
X+2512676Y+15066980D01*
X+2566016Y+15066980D01*
X+2512676Y+15066980D02*
X+2502008Y+15056312D01*
X+2502008Y+15034976D01*
X+2470004Y+15088316D02*
X+2459336Y+15098984D01*
X+2427332Y+15098984D01*
X+2416664Y+15088316D01*
X+2416664Y+15077648D01*
X+2427332Y+15066980D01*
X+2459336Y+15066980D01*
X+2470004Y+15056312D01*
X+2470004Y+15034976D01*
X+2416664Y+15034976D01*
X+2373992Y+15077648D02*
X+2352656Y+15098984D01*
X+2352656Y+15034976D01*
D72*
X+3713480Y+14998080D02*
X+4907280Y+14998080D01*
X+4907280Y+15175880D01*
X+3713480Y+15175880D01*
X+3713480Y+14998080D01*
D84*
X+4438396Y+15054976D02*
X+4438396Y+15118984D01*
X+4385056Y+15118984D01*
X+4374388Y+15108316D01*
X+4374388Y+15097648D01*
X+4385056Y+15086980D01*
X+4438396Y+15086980D01*
X+4385056Y+15086980D02*
X+4374388Y+15076312D01*
X+4374388Y+15054976D01*
X+4342384Y+15108316D02*
X+4331716Y+15118984D01*
X+4299712Y+15118984D01*
X+4289044Y+15108316D01*
X+4289044Y+15097648D01*
X+4299712Y+15086980D01*
X+4331716Y+15086980D01*
X+4342384Y+15076312D01*
X+4342384Y+15054976D01*
X+4289044Y+15054976D01*
X+4257040Y+15108316D02*
X+4246372Y+15118984D01*
X+4214368Y+15118984D01*
X+4203700Y+15108316D01*
X+4203700Y+15097648D01*
X+4214368Y+15086980D01*
X+4246372Y+15086980D01*
X+4257040Y+15076312D01*
X+4257040Y+15054976D01*
X+4203700Y+15054976D01*
D72*
X+5531100Y+14991100D02*
X+6724900Y+14991100D01*
X+6724900Y+15168900D01*
X+5531100Y+15168900D01*
X+5531100Y+14991100D01*
D84*
X+6256016Y+15047996D02*
X+6256016Y+15112004D01*
X+6202676Y+15112004D01*
X+6192008Y+15101336D01*
X+6192008Y+15090668D01*
X+6202676Y+15080000D01*
X+6256016Y+15080000D01*
X+6202676Y+15080000D02*
X+6192008Y+15069332D01*
X+6192008Y+15047996D01*
X+6160004Y+15101336D02*
X+6149336Y+15112004D01*
X+6117332Y+15112004D01*
X+6106664Y+15101336D01*
X+6106664Y+15090668D01*
X+6117332Y+15080000D01*
X+6149336Y+15080000D01*
X+6160004Y+15069332D01*
X+6160004Y+15047996D01*
X+6106664Y+15047996D01*
X+6074660Y+15101336D02*
X+6063992Y+15112004D01*
X+6031988Y+15112004D01*
X+6021320Y+15101336D01*
X+6021320Y+15090668D01*
X+6031988Y+15080000D01*
X+6021320Y+15069332D01*
X+6021320Y+15058664D01*
X+6031988Y+15047996D01*
X+6063992Y+15047996D01*
X+6074660Y+15058664D01*
X+6053324Y+15080000D02*
X+6031988Y+15080000D01*
D72*
X+7821750Y+13991250D02*
X+7999550Y+13991250D01*
X+7999550Y+15185050D01*
X+7821750Y+15185050D01*
X+7821750Y+13991250D01*
D84*
X+7942654Y+14716166D02*
X+7878646Y+14716166D01*
X+7878646Y+14662826D01*
X+7889314Y+14652158D01*
X+7899982Y+14652158D01*
X+7910650Y+14662826D01*
X+7910650Y+14716166D01*
X+7910650Y+14662826D02*
X+7921318Y+14652158D01*
X+7942654Y+14652158D01*
X+7889314Y+14620154D02*
X+7878646Y+14609486D01*
X+7878646Y+14577482D01*
X+7889314Y+14566814D01*
X+7899982Y+14566814D01*
X+7910650Y+14577482D01*
X+7910650Y+14609486D01*
X+7921318Y+14620154D01*
X+7942654Y+14620154D01*
X+7942654Y+14566814D01*
X+7921318Y+14481470D02*
X+7921318Y+14545478D01*
X+7878646Y+14502806D01*
X+7942654Y+14502806D01*
D72*
X-6064400Y-10968100D02*
X-4870600Y-10968100D01*
X-4870600Y-10790300D01*
X-6064400Y-10790300D01*
X-6064400Y-10968100D01*
D84*
X-5339484Y-10911204D02*
X-5339484Y-10847196D01*
X-5392824Y-10847196D01*
X-5403492Y-10857864D01*
X-5403492Y-10868532D01*
X-5392824Y-10879200D01*
X-5339484Y-10879200D01*
X-5392824Y-10879200D02*
X-5403492Y-10889868D01*
X-5403492Y-10911204D01*
X-5435496Y-10857864D02*
X-5446164Y-10847196D01*
X-5478168Y-10847196D01*
X-5488836Y-10857864D01*
X-5488836Y-10868532D01*
X-5478168Y-10879200D01*
X-5446164Y-10879200D01*
X-5435496Y-10889868D01*
X-5435496Y-10911204D01*
X-5488836Y-10911204D01*
X-5574180Y-10847196D02*
X-5520840Y-10847196D01*
X-5520840Y-10868532D01*
X-5563512Y-10868532D01*
X-5574180Y-10879200D01*
X-5574180Y-10900536D01*
X-5563512Y-10911204D01*
X-5531508Y-10911204D01*
X-5520840Y-10900536D01*
D72*
X-3948900Y-11048900D02*
X-2755100Y-11048900D01*
X-2755100Y-10871100D01*
X-3948900Y-10871100D01*
X-3948900Y-11048900D01*
D84*
X-3223984Y-10992004D02*
X-3223984Y-10927996D01*
X-3277324Y-10927996D01*
X-3287992Y-10938664D01*
X-3287992Y-10949332D01*
X-3277324Y-10960000D01*
X-3223984Y-10960000D01*
X-3277324Y-10960000D02*
X-3287992Y-10970668D01*
X-3287992Y-10992004D01*
X-3319996Y-10938664D02*
X-3330664Y-10927996D01*
X-3362668Y-10927996D01*
X-3373336Y-10938664D01*
X-3373336Y-10949332D01*
X-3362668Y-10960000D01*
X-3330664Y-10960000D01*
X-3319996Y-10970668D01*
X-3319996Y-10992004D01*
X-3373336Y-10992004D01*
X-3458680Y-10938664D02*
X-3448012Y-10927996D01*
X-3416008Y-10927996D01*
X-3405340Y-10938664D01*
X-3405340Y-10981336D01*
X-3416008Y-10992004D01*
X-3448012Y-10992004D01*
X-3458680Y-10981336D01*
X-3458680Y-10970668D01*
X-3448012Y-10960000D01*
X-3405340Y-10960000D01*
D72*
X-1538900Y-11048900D02*
X-345100Y-11048900D01*
X-345100Y-10871100D01*
X-1538900Y-10871100D01*
X-1538900Y-11048900D01*
D84*
X-813984Y-10992004D02*
X-813984Y-10927996D01*
X-867324Y-10927996D01*
X-877992Y-10938664D01*
X-877992Y-10949332D01*
X-867324Y-10960000D01*
X-813984Y-10960000D01*
X-867324Y-10960000D02*
X-877992Y-10970668D01*
X-877992Y-10992004D01*
X-909996Y-10938664D02*
X-920664Y-10927996D01*
X-952668Y-10927996D01*
X-963336Y-10938664D01*
X-963336Y-10949332D01*
X-952668Y-10960000D01*
X-920664Y-10960000D01*
X-909996Y-10970668D01*
X-909996Y-10992004D01*
X-963336Y-10992004D01*
X-995340Y-10927996D02*
X-1048680Y-10927996D01*
X-1048680Y-10938664D01*
X-995340Y-10992004D01*
D72*
X+771100Y-11058900D02*
X+1964900Y-11058900D01*
X+1964900Y-10881100D01*
X+771100Y-10881100D01*
X+771100Y-11058900D01*
D84*
X+1496016Y-11002004D02*
X+1496016Y-10937996D01*
X+1442676Y-10937996D01*
X+1432008Y-10948664D01*
X+1432008Y-10959332D01*
X+1442676Y-10970000D01*
X+1496016Y-10970000D01*
X+1442676Y-10970000D02*
X+1432008Y-10980668D01*
X+1432008Y-11002004D01*
X+1400004Y-10948664D02*
X+1389336Y-10937996D01*
X+1357332Y-10937996D01*
X+1346664Y-10948664D01*
X+1346664Y-10959332D01*
X+1357332Y-10970000D01*
X+1389336Y-10970000D01*
X+1400004Y-10980668D01*
X+1400004Y-11002004D01*
X+1346664Y-11002004D01*
X+1303992Y-10970000D02*
X+1314660Y-10959332D01*
X+1314660Y-10948664D01*
X+1303992Y-10937996D01*
X+1271988Y-10937996D01*
X+1261320Y-10948664D01*
X+1261320Y-10959332D01*
X+1271988Y-10970000D01*
X+1303992Y-10970000D01*
X+1314660Y-10980668D01*
X+1314660Y-10991336D01*
X+1303992Y-11002004D01*
X+1271988Y-11002004D01*
X+1261320Y-10991336D01*
X+1261320Y-10980668D01*
X+1271988Y-10970000D01*
D72*
X-7769050Y+14505750D02*
X-7591250Y+14505750D01*
X-7591250Y+15699550D01*
X-7769050Y+15699550D01*
X-7769050Y+14505750D01*
D84*
X-7648146Y+15230666D02*
X-7712154Y+15230666D01*
X-7712154Y+15177326D01*
X-7701486Y+15166658D01*
X-7690818Y+15166658D01*
X-7680150Y+15177326D01*
X-7680150Y+15230666D01*
X-7680150Y+15177326D02*
X-7669482Y+15166658D01*
X-7648146Y+15166658D01*
X-7701486Y+15134654D02*
X-7712154Y+15123986D01*
X-7712154Y+15091982D01*
X-7701486Y+15081314D01*
X-7690818Y+15081314D01*
X-7680150Y+15091982D01*
X-7680150Y+15123986D01*
X-7669482Y+15134654D01*
X-7648146Y+15134654D01*
X-7648146Y+15081314D01*
X-7690818Y+14995970D02*
X-7680150Y+15006638D01*
X-7680150Y+15038642D01*
X-7690818Y+15049310D01*
X-7701486Y+15049310D01*
X-7712154Y+15038642D01*
X-7712154Y+15006638D01*
X-7701486Y+14995970D01*
X-7658814Y+14995970D01*
X-7648146Y+15006638D01*
X-7648146Y+15038642D01*
D72*
X+6211600Y-12724100D02*
X+6389400Y-12724100D01*
X+6389400Y-11530300D01*
X+6211600Y-11530300D01*
X+6211600Y-12724100D01*
D84*
X+6332504Y-11999184D02*
X+6268496Y-11999184D01*
X+6268496Y-12052524D01*
X+6279164Y-12063192D01*
X+6289832Y-12063192D01*
X+6300500Y-12052524D01*
X+6300500Y-11999184D01*
X+6300500Y-12052524D02*
X+6311168Y-12063192D01*
X+6332504Y-12063192D01*
X+6279164Y-12095196D02*
X+6268496Y-12105864D01*
X+6268496Y-12137868D01*
X+6279164Y-12148536D01*
X+6289832Y-12148536D01*
X+6300500Y-12137868D01*
X+6311168Y-12148536D01*
X+6321836Y-12148536D01*
X+6332504Y-12137868D01*
X+6332504Y-12105864D01*
X+6321836Y-12095196D01*
X+6300500Y-12116532D02*
X+6300500Y-12137868D01*
X+6321836Y-12169872D02*
X+6279164Y-12169872D01*
X+6268496Y-12180540D01*
X+6268496Y-12223212D01*
X+6279164Y-12233880D01*
X+6321836Y-12233880D01*
X+6332504Y-12223212D01*
X+6332504Y-12180540D01*
X+6321836Y-12169872D01*
X+6332504Y-12169872D02*
X+6268496Y-12233880D01*
D72*
X-8381160Y-8615500D02*
X-5312840Y-8615500D01*
X-5312840Y-7726500D01*
X-8381160Y-7726500D01*
X-8381160Y-8615500D01*
D91*
X-5773088Y-8286062D02*
X-5773088Y-8055938D01*
X-5888150Y-8171000D01*
X-6003212Y-8055938D01*
X-6003212Y-8286062D01*
X-6079920Y-8286062D02*
X-6079920Y-8132646D01*
X-6156628Y-8055938D01*
X-6233336Y-8055938D01*
X-6310044Y-8132646D01*
X-6310044Y-8286062D01*
X-6079920Y-8209354D02*
X-6310044Y-8209354D01*
X-6386752Y-8055938D02*
X-6616876Y-8286062D01*
X-6386752Y-8286062D02*
X-6616876Y-8055938D01*
X-7230540Y-8247708D02*
X-7192186Y-8286062D01*
X-7077124Y-8286062D01*
X-7000416Y-8209354D01*
X-7000416Y-8132646D01*
X-7077124Y-8055938D01*
X-7192186Y-8055938D01*
X-7230540Y-8094292D01*
X-7307248Y-8286062D02*
X-7307248Y-8055938D01*
X-7499018Y-8055938D01*
X-7537372Y-8094292D01*
X-7537372Y-8132646D01*
X-7499018Y-8171000D01*
X-7307248Y-8171000D01*
X-7499018Y-8171000D02*
X-7537372Y-8209354D01*
X-7537372Y-8286062D01*
X-7614080Y-8247708D02*
X-7652434Y-8286062D01*
X-7805850Y-8286062D01*
X-7844204Y-8247708D01*
X-7844204Y-8209354D01*
X-7805850Y-8171000D01*
X-7652434Y-8171000D01*
X-7614080Y-8132646D01*
X-7614080Y-8094292D01*
X-7652434Y-8055938D01*
X-7805850Y-8055938D01*
X-7844204Y-8094292D01*
D72*
X-1858620Y-8615660D02*
X+1209700Y-8615660D01*
X+1209700Y-7726660D01*
X-1858620Y-7726660D01*
X-1858620Y-8615660D01*
D91*
X+749452Y-8286222D02*
X+749452Y-8056098D01*
X+634390Y-8171160D01*
X+519328Y-8056098D01*
X+519328Y-8286222D01*
X+442620Y-8286222D02*
X+442620Y-8132806D01*
X+365912Y-8056098D01*
X+289204Y-8056098D01*
X+212496Y-8132806D01*
X+212496Y-8286222D01*
X+442620Y-8209514D02*
X+212496Y-8209514D01*
X+135788Y-8056098D02*
X-94336Y-8286222D01*
X+135788Y-8286222D02*
X-94336Y-8056098D01*
X-477876Y-8286222D02*
X-477876Y-8056098D01*
X-708000Y-8056098D02*
X-708000Y-8286222D01*
X-477876Y-8171160D02*
X-708000Y-8171160D01*
X-784708Y-8286222D02*
X-784708Y-8056098D01*
X-938124Y-8056098D01*
X-1014832Y-8132806D01*
X-1014832Y-8209514D01*
X-938124Y-8286222D01*
X-784708Y-8286222D01*
X-1244956Y-8209514D02*
X-1321664Y-8209514D01*
X-1321664Y-8286222D01*
X-1168248Y-8286222D01*
X-1091540Y-8209514D01*
X-1091540Y-8132806D01*
X-1168248Y-8056098D01*
X-1283310Y-8056098D01*
X-1321664Y-8094452D01*
D72*
X+1488840Y-8615820D02*
X+4557160Y-8615820D01*
X+4557160Y-7726820D01*
X+1488840Y-7726820D01*
X+1488840Y-8615820D01*
D91*
X+4096912Y-8286382D02*
X+4096912Y-8056258D01*
X+3981850Y-8171320D01*
X+3866788Y-8056258D01*
X+3866788Y-8286382D01*
X+3790080Y-8286382D02*
X+3790080Y-8132966D01*
X+3713372Y-8056258D01*
X+3636664Y-8056258D01*
X+3559956Y-8132966D01*
X+3559956Y-8286382D01*
X+3790080Y-8209674D02*
X+3559956Y-8209674D01*
X+3483248Y-8056258D02*
X+3253124Y-8286382D01*
X+3483248Y-8286382D02*
X+3253124Y-8056258D01*
X+2869584Y-8286382D02*
X+2869584Y-8132966D01*
X+2792876Y-8056258D01*
X+2716168Y-8056258D01*
X+2639460Y-8132966D01*
X+2639460Y-8286382D01*
X+2869584Y-8209674D02*
X+2639460Y-8209674D01*
X+2562752Y-8056258D02*
X+2562752Y-8286382D01*
X+2332628Y-8286382D01*
X+2255920Y-8056258D02*
X+2025796Y-8056258D01*
X+2140858Y-8056258D02*
X+2140858Y-8286382D01*
D72*
X-5171160Y-8615500D02*
X-2102840Y-8615500D01*
X-2102840Y-7726500D01*
X-5171160Y-7726500D01*
X-5171160Y-8615500D01*
D91*
X-2563088Y-8286062D02*
X-2563088Y-8055938D01*
X-2678150Y-8171000D01*
X-2793212Y-8055938D01*
X-2793212Y-8286062D01*
X-2869920Y-8286062D02*
X-2869920Y-8132646D01*
X-2946628Y-8055938D01*
X-3023336Y-8055938D01*
X-3100044Y-8132646D01*
X-3100044Y-8286062D01*
X-2869920Y-8209354D02*
X-3100044Y-8209354D01*
X-3176752Y-8055938D02*
X-3406876Y-8286062D01*
X-3176752Y-8286062D02*
X-3406876Y-8055938D01*
X-3790416Y-8247708D02*
X-3828770Y-8286062D01*
X-3982186Y-8286062D01*
X-4020540Y-8247708D01*
X-4020540Y-8209354D01*
X-3982186Y-8171000D01*
X-3828770Y-8171000D01*
X-3790416Y-8132646D01*
X-3790416Y-8094292D01*
X-3828770Y-8055938D01*
X-3982186Y-8055938D01*
X-4020540Y-8094292D01*
X-4097248Y-8286062D02*
X-4097248Y-8055938D01*
X-4289018Y-8055938D01*
X-4327372Y-8094292D01*
X-4327372Y-8132646D01*
X-4289018Y-8171000D01*
X-4097248Y-8171000D01*
X-4404080Y-8286062D02*
X-4404080Y-8055938D01*
X-4557496Y-8055938D01*
X-4634204Y-8132646D01*
X-4634204Y-8209354D01*
X-4557496Y-8286062D01*
X-4404080Y-8286062D01*
D72*
X+4751380Y-8615820D02*
X+7819700Y-8615820D01*
X+7819700Y-7726820D01*
X+4751380Y-7726820D01*
X+4751380Y-8615820D01*
D91*
X+7359452Y-8286382D02*
X+7359452Y-8056258D01*
X+7244390Y-8171320D01*
X+7129328Y-8056258D01*
X+7129328Y-8286382D01*
X+7052620Y-8286382D02*
X+7052620Y-8132966D01*
X+6975912Y-8056258D01*
X+6899204Y-8056258D01*
X+6822496Y-8132966D01*
X+6822496Y-8286382D01*
X+7052620Y-8209674D02*
X+6822496Y-8209674D01*
X+6745788Y-8056258D02*
X+6515664Y-8286382D01*
X+6745788Y-8286382D02*
X+6515664Y-8056258D01*
X+6132124Y-8056258D02*
X+6132124Y-8171320D01*
X+6017062Y-8286382D01*
X+5902000Y-8171320D01*
X+5902000Y-8056258D01*
X+5595168Y-8056258D02*
X+5825292Y-8286382D01*
X+5518460Y-8248028D02*
X+5480106Y-8286382D01*
X+5326690Y-8286382D01*
X+5288336Y-8248028D01*
X+5288336Y-8209674D01*
X+5326690Y-8171320D01*
X+5480106Y-8171320D01*
X+5518460Y-8132966D01*
X+5518460Y-8094612D01*
X+5480106Y-8056258D01*
X+5326690Y-8056258D01*
X+5288336Y-8094612D01*
D72*
X-5873320Y-10230480D02*
X-5695520Y-10230480D01*
X-5695520Y-9036680D01*
X-5873320Y-9036680D01*
X-5873320Y-10230480D01*
D84*
X-5752416Y-9505564D02*
X-5816424Y-9505564D01*
X-5816424Y-9558904D01*
X-5805756Y-9569572D01*
X-5795088Y-9569572D01*
X-5784420Y-9558904D01*
X-5784420Y-9505564D01*
X-5784420Y-9558904D02*
X-5773752Y-9569572D01*
X-5752416Y-9569572D01*
X-5795088Y-9612244D02*
X-5816424Y-9633580D01*
X-5752416Y-9633580D01*
X-5805756Y-9686920D02*
X-5816424Y-9697588D01*
X-5816424Y-9729592D01*
X-5805756Y-9740260D01*
X-5795088Y-9740260D01*
X-5784420Y-9729592D01*
X-5784420Y-9697588D01*
X-5773752Y-9686920D01*
X-5752416Y-9686920D01*
X-5752416Y-9740260D01*
D72*
X+3496020Y-10228720D02*
X+3673820Y-10228720D01*
X+3673820Y-9034920D01*
X+3496020Y-9034920D01*
X+3496020Y-10228720D01*
D84*
X+3616924Y-9503804D02*
X+3552916Y-9503804D01*
X+3552916Y-9557144D01*
X+3563584Y-9567812D01*
X+3574252Y-9567812D01*
X+3584920Y-9557144D01*
X+3584920Y-9503804D01*
X+3584920Y-9557144D02*
X+3595588Y-9567812D01*
X+3616924Y-9567812D01*
X+3574252Y-9610484D02*
X+3552916Y-9631820D01*
X+3616924Y-9631820D01*
X+3563584Y-9685160D02*
X+3552916Y-9695828D01*
X+3552916Y-9727832D01*
X+3563584Y-9738500D01*
X+3574252Y-9738500D01*
X+3584920Y-9727832D01*
X+3595588Y-9738500D01*
X+3606256Y-9738500D01*
X+3616924Y-9727832D01*
X+3616924Y-9695828D01*
X+3606256Y-9685160D01*
X+3584920Y-9706496D02*
X+3584920Y-9727832D01*
D72*
X-568400Y-10230480D02*
X-390600Y-10230480D01*
X-390600Y-9036680D01*
X-568400Y-9036680D01*
X-568400Y-10230480D01*
D84*
X-447496Y-9505564D02*
X-511504Y-9505564D01*
X-511504Y-9558904D01*
X-500836Y-9569572D01*
X-490168Y-9569572D01*
X-479500Y-9558904D01*
X-479500Y-9505564D01*
X-479500Y-9558904D02*
X-468832Y-9569572D01*
X-447496Y-9569572D01*
X-490168Y-9612244D02*
X-511504Y-9633580D01*
X-447496Y-9633580D01*
X-468832Y-9740260D02*
X-468832Y-9676252D01*
X-511504Y-9718924D01*
X-447496Y-9718924D01*
D72*
X+8038880Y-8767920D02*
X+8216680Y-8767920D01*
X+8216680Y-7574120D01*
X+8038880Y-7574120D01*
X+8038880Y-8767920D01*
D84*
X+8159784Y-8043004D02*
X+8095776Y-8043004D01*
X+8095776Y-8096344D01*
X+8106444Y-8107012D01*
X+8117112Y-8107012D01*
X+8127780Y-8096344D01*
X+8127780Y-8043004D01*
X+8127780Y-8096344D02*
X+8138448Y-8107012D01*
X+8159784Y-8107012D01*
X+8117112Y-8149684D02*
X+8095776Y-8171020D01*
X+8159784Y-8171020D01*
X+8095776Y-8224360D02*
X+8095776Y-8277700D01*
X+8106444Y-8277700D01*
X+8159784Y-8224360D01*
D72*
X-6567160Y-12047160D02*
X-6292840Y-12047160D01*
X-6292840Y-11518840D01*
X-6567160Y-11518840D01*
X-6567160Y-12047160D01*
D90*
X-6403584Y-11703752D02*
X-6390376Y-11690544D01*
X-6390376Y-11650920D01*
X-6416792Y-11624504D01*
X-6443208Y-11624504D01*
X-6469624Y-11650920D01*
X-6469624Y-11690544D01*
X-6456416Y-11703752D01*
X-6443208Y-11756584D02*
X-6469624Y-11783000D01*
X-6390376Y-11783000D01*
X-6469624Y-11849040D02*
X-6469624Y-11915080D01*
X-6456416Y-11915080D01*
X-6390376Y-11849040D01*
D86*
X-5576020Y-11792080D02*
X-5576938Y-11769266D01*
X-5584391Y-11723637D01*
X-5599938Y-11678008D01*
X-5625180Y-11632379D01*
X-5663722Y-11586849D01*
X-5709351Y-11551353D01*
X-5754980Y-11528233D01*
X-5800609Y-11514380D01*
X-5846238Y-11508434D01*
X-5860000Y-11508100D01*
X-6143980Y-11792080D02*
X-6143062Y-11769266D01*
X-6135609Y-11723637D01*
X-6120062Y-11678008D01*
X-6094820Y-11632379D01*
X-6056278Y-11586849D01*
X-6010649Y-11551353D01*
X-5965020Y-11528233D01*
X-5919391Y-11514380D01*
X-5873762Y-11508434D01*
X-5860000Y-11508100D01*
X-6143980Y-11792080D02*
X-6143062Y-11814894D01*
X-6135609Y-11860523D01*
X-6120062Y-11906152D01*
X-6094820Y-11951781D01*
X-6056278Y-11997311D01*
X-6010649Y-12032807D01*
X-5965020Y-12055927D01*
X-5919391Y-12069780D01*
X-5873762Y-12075726D01*
X-5860000Y-12076060D01*
X-5576020Y-11792080D02*
X-5576938Y-11814894D01*
X-5584391Y-11860523D01*
X-5599938Y-11906152D01*
X-5625180Y-11951781D01*
X-5663722Y-11997311D01*
X-5709351Y-12032807D01*
X-5754980Y-12055927D01*
X-5800609Y-12069780D01*
X-5846238Y-12075726D01*
X-5860000Y-12076060D01*
D89*
X-5831348Y-11706124D02*
X-5817022Y-11691798D01*
X-5817022Y-11648820D01*
X-5845674Y-11620168D01*
X-5874326Y-11620168D01*
X-5902978Y-11648820D01*
X-5902978Y-11691798D01*
X-5888652Y-11706124D01*
X-5874326Y-11763428D02*
X-5902978Y-11792080D01*
X-5817022Y-11792080D01*
X-5860000Y-11878036D02*
X-5874326Y-11863710D01*
X-5888652Y-11863710D01*
X-5902978Y-11878036D01*
X-5902978Y-11921014D01*
X-5888652Y-11935340D01*
X-5874326Y-11935340D01*
X-5860000Y-11921014D01*
X-5860000Y-11878036D01*
X-5845674Y-11863710D01*
X-5831348Y-11863710D01*
X-5817022Y-11878036D01*
X-5817022Y-11921014D01*
X-5831348Y-11935340D01*
X-5845674Y-11935340D01*
X-5860000Y-11921014D01*
D72*
X-3737160Y-12231160D02*
X-3462840Y-12231160D01*
X-3462840Y-11702840D01*
X-3737160Y-11702840D01*
X-3737160Y-12231160D01*
D90*
X-3573584Y-11887752D02*
X-3560376Y-11874544D01*
X-3560376Y-11834920D01*
X-3586792Y-11808504D01*
X-3613208Y-11808504D01*
X-3639624Y-11834920D01*
X-3639624Y-11874544D01*
X-3626416Y-11887752D01*
X-3613208Y-11940584D02*
X-3639624Y-11967000D01*
X-3560376Y-11967000D01*
X-3613208Y-12099080D02*
X-3600000Y-12085872D01*
X-3600000Y-12046248D01*
X-3613208Y-12033040D01*
X-3626416Y-12033040D01*
X-3639624Y-12046248D01*
X-3639624Y-12085872D01*
X-3626416Y-12099080D01*
X-3573584Y-12099080D01*
X-3560376Y-12085872D01*
X-3560376Y-12046248D01*
D86*
X-2896020Y-11967160D02*
X-2896938Y-11944346D01*
X-2904391Y-11898717D01*
X-2919938Y-11853088D01*
X-2945180Y-11807459D01*
X-2983722Y-11761929D01*
X-3029351Y-11726433D01*
X-3074980Y-11703313D01*
X-3120609Y-11689460D01*
X-3166238Y-11683514D01*
X-3180000Y-11683180D01*
X-3463980Y-11967160D02*
X-3463062Y-11944346D01*
X-3455609Y-11898717D01*
X-3440062Y-11853088D01*
X-3414820Y-11807459D01*
X-3376278Y-11761929D01*
X-3330649Y-11726433D01*
X-3285020Y-11703313D01*
X-3239391Y-11689460D01*
X-3193762Y-11683514D01*
X-3180000Y-11683180D01*
X-3463980Y-11967160D02*
X-3463062Y-11989974D01*
X-3455609Y-12035603D01*
X-3440062Y-12081232D01*
X-3414820Y-12126861D01*
X-3376278Y-12172391D01*
X-3330649Y-12207887D01*
X-3285020Y-12231007D01*
X-3239391Y-12244860D01*
X-3193762Y-12250806D01*
X-3180000Y-12251140D01*
X-2896020Y-11967160D02*
X-2896938Y-11989974D01*
X-2904391Y-12035603D01*
X-2919938Y-12081232D01*
X-2945180Y-12126861D01*
X-2983722Y-12172391D01*
X-3029351Y-12207887D01*
X-3074980Y-12231007D01*
X-3120609Y-12244860D01*
X-3166238Y-12250806D01*
X-3180000Y-12251140D01*
D89*
X-3151348Y-11881204D02*
X-3137022Y-11866878D01*
X-3137022Y-11823900D01*
X-3165674Y-11795248D01*
X-3194326Y-11795248D01*
X-3222978Y-11823900D01*
X-3222978Y-11866878D01*
X-3208652Y-11881204D01*
X-3208652Y-11924182D02*
X-3222978Y-11938508D01*
X-3222978Y-11981486D01*
X-3208652Y-11995812D01*
X-3194326Y-11995812D01*
X-3180000Y-11981486D01*
X-3180000Y-11938508D01*
X-3165674Y-11924182D01*
X-3137022Y-11924182D01*
X-3137022Y-11995812D01*
X-3151348Y-12024464D02*
X-3208652Y-12024464D01*
X-3222978Y-12038790D01*
X-3222978Y-12096094D01*
X-3208652Y-12110420D01*
X-3151348Y-12110420D01*
X-3137022Y-12096094D01*
X-3137022Y-12038790D01*
X-3151348Y-12024464D01*
X-3137022Y-12024464D02*
X-3222978Y-12110420D01*
D72*
X-1359700Y-12230520D02*
X-1085380Y-12230520D01*
X-1085380Y-11702200D01*
X-1359700Y-11702200D01*
X-1359700Y-12230520D01*
D90*
X-1196124Y-11887112D02*
X-1182916Y-11873904D01*
X-1182916Y-11834280D01*
X-1209332Y-11807864D01*
X-1235748Y-11807864D01*
X-1262164Y-11834280D01*
X-1262164Y-11873904D01*
X-1248956Y-11887112D01*
X-1248956Y-11926736D02*
X-1262164Y-11939944D01*
X-1262164Y-11979568D01*
X-1248956Y-11992776D01*
X-1235748Y-11992776D01*
X-1222540Y-11979568D01*
X-1222540Y-11939944D01*
X-1209332Y-11926736D01*
X-1182916Y-11926736D01*
X-1182916Y-11992776D01*
X-1235748Y-12045608D02*
X-1262164Y-12072024D01*
X-1182916Y-12072024D01*
D86*
X-496020Y-11966360D02*
X-496938Y-11943546D01*
X-504391Y-11897917D01*
X-519938Y-11852288D01*
X-545180Y-11806659D01*
X-583722Y-11761129D01*
X-629351Y-11725633D01*
X-674980Y-11702513D01*
X-720609Y-11688660D01*
X-766238Y-11682714D01*
X-780000Y-11682380D01*
X-1063980Y-11966360D02*
X-1063062Y-11943546D01*
X-1055609Y-11897917D01*
X-1040062Y-11852288D01*
X-1014820Y-11806659D01*
X-976278Y-11761129D01*
X-930649Y-11725633D01*
X-885020Y-11702513D01*
X-839391Y-11688660D01*
X-793762Y-11682714D01*
X-780000Y-11682380D01*
X-1063980Y-11966360D02*
X-1063062Y-11989174D01*
X-1055609Y-12034803D01*
X-1040062Y-12080432D01*
X-1014820Y-12126061D01*
X-976278Y-12171591D01*
X-930649Y-12207087D01*
X-885020Y-12230207D01*
X-839391Y-12244060D01*
X-793762Y-12250006D01*
X-780000Y-12250340D01*
X-496020Y-11966360D02*
X-496938Y-11989174D01*
X-504391Y-12034803D01*
X-519938Y-12080432D01*
X-545180Y-12126061D01*
X-583722Y-12171591D01*
X-629351Y-12207087D01*
X-674980Y-12230207D01*
X-720609Y-12244060D01*
X-766238Y-12250006D01*
X-780000Y-12250340D01*
D89*
X-751348Y-11880404D02*
X-737022Y-11866078D01*
X-737022Y-11823100D01*
X-765674Y-11794448D01*
X-794326Y-11794448D01*
X-822978Y-11823100D01*
X-822978Y-11866078D01*
X-808652Y-11880404D01*
X-808652Y-11923382D02*
X-822978Y-11937708D01*
X-822978Y-11980686D01*
X-808652Y-11995012D01*
X-794326Y-11995012D01*
X-780000Y-11980686D01*
X-780000Y-11937708D01*
X-765674Y-11923382D01*
X-737022Y-11923382D01*
X-737022Y-11995012D01*
X-808652Y-12037990D02*
X-822978Y-12052316D01*
X-822978Y-12095294D01*
X-808652Y-12109620D01*
X-794326Y-12109620D01*
X-780000Y-12095294D01*
X-780000Y-12052316D01*
X-765674Y-12037990D01*
X-737022Y-12037990D01*
X-737022Y-12109620D01*
D86*
X+1878900Y-11967980D02*
X+1877982Y-11945166D01*
X+1870529Y-11899537D01*
X+1854982Y-11853908D01*
X+1829740Y-11808279D01*
X+1791198Y-11762749D01*
X+1745569Y-11727253D01*
X+1699940Y-11704133D01*
X+1654311Y-11690280D01*
X+1608682Y-11684334D01*
X+1594920Y-11684000D01*
X+1310940Y-11967980D02*
X+1311858Y-11945166D01*
X+1319311Y-11899537D01*
X+1334858Y-11853908D01*
X+1360100Y-11808279D01*
X+1398642Y-11762749D01*
X+1444271Y-11727253D01*
X+1489900Y-11704133D01*
X+1535529Y-11690280D01*
X+1581158Y-11684334D01*
X+1594920Y-11684000D01*
X+1310940Y-11967980D02*
X+1311858Y-11990794D01*
X+1319311Y-12036423D01*
X+1334858Y-12082052D01*
X+1360100Y-12127681D01*
X+1398642Y-12173211D01*
X+1444271Y-12208707D01*
X+1489900Y-12231827D01*
X+1535529Y-12245680D01*
X+1581158Y-12251626D01*
X+1594920Y-12251960D01*
X+1878900Y-11967980D02*
X+1877982Y-11990794D01*
X+1870529Y-12036423D01*
X+1854982Y-12082052D01*
X+1829740Y-12127681D01*
X+1791198Y-12173211D01*
X+1745569Y-12208707D01*
X+1699940Y-12231827D01*
X+1654311Y-12245680D01*
X+1608682Y-12251626D01*
X+1594920Y-12251960D01*
D89*
X+1623572Y-11882024D02*
X+1637898Y-11867698D01*
X+1637898Y-11824720D01*
X+1609246Y-11796068D01*
X+1580594Y-11796068D01*
X+1551942Y-11824720D01*
X+1551942Y-11867698D01*
X+1566268Y-11882024D01*
X+1566268Y-11925002D02*
X+1551942Y-11939328D01*
X+1551942Y-11982306D01*
X+1566268Y-11996632D01*
X+1580594Y-11996632D01*
X+1594920Y-11982306D01*
X+1594920Y-11939328D01*
X+1609246Y-11925002D01*
X+1637898Y-11925002D01*
X+1637898Y-11996632D01*
X+1566268Y-12039610D02*
X+1551942Y-12053936D01*
X+1551942Y-12096914D01*
X+1566268Y-12111240D01*
X+1580594Y-12111240D01*
X+1594920Y-12096914D01*
X+1609246Y-12111240D01*
X+1623572Y-12111240D01*
X+1637898Y-12096914D01*
X+1637898Y-12053936D01*
X+1623572Y-12039610D01*
X+1594920Y-12068262D02*
X+1594920Y-12096914D01*
D72*
X+1035380Y-12233060D02*
X+1309700Y-12233060D01*
X+1309700Y-11704740D01*
X+1035380Y-11704740D01*
X+1035380Y-12233060D01*
D90*
X+1198956Y-11889652D02*
X+1212164Y-11876444D01*
X+1212164Y-11836820D01*
X+1185748Y-11810404D01*
X+1159332Y-11810404D01*
X+1132916Y-11836820D01*
X+1132916Y-11876444D01*
X+1146124Y-11889652D01*
X+1146124Y-11929276D02*
X+1132916Y-11942484D01*
X+1132916Y-11982108D01*
X+1146124Y-11995316D01*
X+1159332Y-11995316D01*
X+1172540Y-11982108D01*
X+1172540Y-11942484D01*
X+1185748Y-11929276D01*
X+1212164Y-11929276D01*
X+1212164Y-11995316D01*
X+1185748Y-12100980D02*
X+1185748Y-12021732D01*
X+1132916Y-12074564D01*
X+1212164Y-12074564D01*
D72*
X+3462840Y-12231600D02*
X+3737160Y-12231600D01*
X+3737160Y-11703280D01*
X+3462840Y-11703280D01*
X+3462840Y-12231600D01*
D90*
X+3626416Y-11888192D02*
X+3639624Y-11874984D01*
X+3639624Y-11835360D01*
X+3613208Y-11808944D01*
X+3586792Y-11808944D01*
X+3560376Y-11835360D01*
X+3560376Y-11874984D01*
X+3573584Y-11888192D01*
X+3573584Y-11927816D02*
X+3560376Y-11941024D01*
X+3560376Y-11980648D01*
X+3573584Y-11993856D01*
X+3586792Y-11993856D01*
X+3600000Y-11980648D01*
X+3600000Y-11941024D01*
X+3613208Y-11927816D01*
X+3639624Y-11927816D01*
X+3639624Y-11993856D01*
X+3560376Y-12099520D02*
X+3560376Y-12033480D01*
X+3586792Y-12033480D01*
X+3586792Y-12086312D01*
X+3600000Y-12099520D01*
X+3626416Y-12099520D01*
X+3639624Y-12086312D01*
X+3639624Y-12046688D01*
X+3626416Y-12033480D01*
D86*
X+4303980Y-11965440D02*
X+4303062Y-11942626D01*
X+4295609Y-11896997D01*
X+4280062Y-11851368D01*
X+4254820Y-11805739D01*
X+4216278Y-11760209D01*
X+4170649Y-11724713D01*
X+4125020Y-11701593D01*
X+4079391Y-11687740D01*
X+4033762Y-11681794D01*
X+4020000Y-11681460D01*
X+3736020Y-11965440D02*
X+3736938Y-11942626D01*
X+3744391Y-11896997D01*
X+3759938Y-11851368D01*
X+3785180Y-11805739D01*
X+3823722Y-11760209D01*
X+3869351Y-11724713D01*
X+3914980Y-11701593D01*
X+3960609Y-11687740D01*
X+4006238Y-11681794D01*
X+4020000Y-11681460D01*
X+3736020Y-11965440D02*
X+3736938Y-11988254D01*
X+3744391Y-12033883D01*
X+3759938Y-12079512D01*
X+3785180Y-12125141D01*
X+3823722Y-12170671D01*
X+3869351Y-12206167D01*
X+3914980Y-12229287D01*
X+3960609Y-12243140D01*
X+4006238Y-12249086D01*
X+4020000Y-12249420D01*
X+4303980Y-11965440D02*
X+4303062Y-11988254D01*
X+4295609Y-12033883D01*
X+4280062Y-12079512D01*
X+4254820Y-12125141D01*
X+4216278Y-12170671D01*
X+4170649Y-12206167D01*
X+4125020Y-12229287D01*
X+4079391Y-12243140D01*
X+4033762Y-12249086D01*
X+4020000Y-12249420D01*
D89*
X+4048652Y-11879484D02*
X+4062978Y-11865158D01*
X+4062978Y-11822180D01*
X+4034326Y-11793528D01*
X+4005674Y-11793528D01*
X+3977022Y-11822180D01*
X+3977022Y-11865158D01*
X+3991348Y-11879484D01*
X+3991348Y-11922462D02*
X+3977022Y-11936788D01*
X+3977022Y-11979766D01*
X+3991348Y-11994092D01*
X+4005674Y-11994092D01*
X+4020000Y-11979766D01*
X+4020000Y-11936788D01*
X+4034326Y-11922462D01*
X+4062978Y-11922462D01*
X+4062978Y-11994092D01*
X+3991348Y-12108700D02*
X+3977022Y-12094374D01*
X+3977022Y-12051396D01*
X+3991348Y-12037070D01*
X+4048652Y-12037070D01*
X+4062978Y-12051396D01*
X+4062978Y-12094374D01*
X+4048652Y-12108700D01*
X+4034326Y-12108700D01*
X+4020000Y-12094374D01*
X+4020000Y-12037070D01*
D72*
X-4081160Y-3663120D02*
X-1012840Y-3663120D01*
X-1012840Y-2774120D01*
X-4081160Y-2774120D01*
X-4081160Y-3663120D01*
D91*
X-1473088Y-3333682D02*
X-1473088Y-3103558D01*
X-1588150Y-3218620D01*
X-1703212Y-3103558D01*
X-1703212Y-3333682D01*
X-1779920Y-3333682D02*
X-1779920Y-3180266D01*
X-1856628Y-3103558D01*
X-1933336Y-3103558D01*
X-2010044Y-3180266D01*
X-2010044Y-3333682D01*
X-1779920Y-3256974D02*
X-2010044Y-3256974D01*
X-2086752Y-3103558D02*
X-2316876Y-3333682D01*
X-2086752Y-3333682D02*
X-2316876Y-3103558D01*
X-2700416Y-3333682D02*
X-2700416Y-3103558D01*
X-2853832Y-3103558D01*
X-2930540Y-3180266D01*
X-2930540Y-3256974D01*
X-2853832Y-3333682D01*
X-2700416Y-3333682D01*
X-3007248Y-3333682D02*
X-3007248Y-3103558D01*
X-3122310Y-3218620D01*
X-3237372Y-3103558D01*
X-3237372Y-3333682D01*
X-3544204Y-3333682D02*
X-3314080Y-3333682D01*
X-3314080Y-3103558D01*
X-3544204Y-3103558D01*
X-3314080Y-3218620D02*
X-3467496Y-3218620D01*
D72*
X-8060660Y-3664700D02*
X-4992340Y-3664700D01*
X-4992340Y-2775700D01*
X-8060660Y-2775700D01*
X-8060660Y-3664700D01*
D92*
X-5474508Y-3351699D02*
X-5474508Y-3088701D01*
X-5606007Y-3220200D01*
X-5737506Y-3088701D01*
X-5737506Y-3351699D01*
X-5825172Y-3351699D02*
X-5825172Y-3176367D01*
X-5912838Y-3088701D01*
X-6000504Y-3088701D01*
X-6088170Y-3176367D01*
X-6088170Y-3351699D01*
X-5825172Y-3264033D02*
X-6088170Y-3264033D01*
X-6175836Y-3088701D02*
X-6438834Y-3351699D01*
X-6175836Y-3351699D02*
X-6438834Y-3088701D01*
X-6877164Y-3351699D02*
X-6877164Y-3088701D01*
X-7140162Y-3351699D01*
X-7140162Y-3088701D01*
X-7227828Y-3351699D02*
X-7227828Y-3088701D01*
X-7359327Y-3220200D01*
X-7490826Y-3088701D01*
X-7490826Y-3351699D01*
D72*
X-37160Y-3665240D02*
X+3031160Y-3665240D01*
X+3031160Y-2776240D01*
X-37160Y-2776240D01*
X-37160Y-3665240D01*
D92*
X+2548992Y-3352239D02*
X+2548992Y-3089241D01*
X+2417493Y-3220740D01*
X+2285994Y-3089241D01*
X+2285994Y-3352239D01*
X+2198328Y-3352239D02*
X+2198328Y-3176907D01*
X+2110662Y-3089241D01*
X+2022996Y-3089241D01*
X+1935330Y-3176907D01*
X+1935330Y-3352239D01*
X+2198328Y-3264573D02*
X+1935330Y-3264573D01*
X+1847664Y-3089241D02*
X+1584666Y-3352239D01*
X+1847664Y-3352239D02*
X+1584666Y-3089241D01*
X+1146336Y-3089241D02*
X+1146336Y-3352239D01*
X+883338Y-3089241D02*
X+1014837Y-3220740D01*
X+883338Y-3352239D01*
X+1146336Y-3220740D02*
X+1014837Y-3220740D01*
X+795672Y-3089241D02*
X+532674Y-3089241D01*
X+664173Y-3089241D02*
X+664173Y-3352239D01*
D72*
X-5368400Y-5344100D02*
X-5190600Y-5344100D01*
X-5190600Y-4150300D01*
X-5368400Y-4150300D01*
X-5368400Y-5344100D01*
D84*
X-5247496Y-4619184D02*
X-5311504Y-4619184D01*
X-5311504Y-4672524D01*
X-5300836Y-4683192D01*
X-5290168Y-4683192D01*
X-5279500Y-4672524D01*
X-5279500Y-4619184D01*
X-5279500Y-4672524D02*
X-5268832Y-4683192D01*
X-5247496Y-4683192D01*
X-5300836Y-4715196D02*
X-5311504Y-4725864D01*
X-5311504Y-4757868D01*
X-5300836Y-4768536D01*
X-5290168Y-4768536D01*
X-5279500Y-4757868D01*
X-5268832Y-4768536D01*
X-5258164Y-4768536D01*
X-5247496Y-4757868D01*
X-5247496Y-4725864D01*
X-5258164Y-4715196D01*
X-5279500Y-4736532D02*
X-5279500Y-4757868D01*
X-5300836Y-4800540D02*
X-5311504Y-4811208D01*
X-5311504Y-4843212D01*
X-5300836Y-4853880D01*
X-5290168Y-4853880D01*
X-5279500Y-4843212D01*
X-5279500Y-4811208D01*
X-5268832Y-4800540D01*
X-5247496Y-4800540D01*
X-5247496Y-4853880D01*
D72*
X-6965050Y-4498250D02*
X-5771250Y-4498250D01*
X-5771250Y-4320450D01*
X-6965050Y-4320450D01*
X-6965050Y-4498250D01*
D84*
X-6240134Y-4441354D02*
X-6240134Y-4377346D01*
X-6293474Y-4377346D01*
X-6304142Y-4388014D01*
X-6304142Y-4398682D01*
X-6293474Y-4409350D01*
X-6240134Y-4409350D01*
X-6293474Y-4409350D02*
X-6304142Y-4420018D01*
X-6304142Y-4441354D01*
X-6336146Y-4388014D02*
X-6346814Y-4377346D01*
X-6378818Y-4377346D01*
X-6389486Y-4388014D01*
X-6389486Y-4398682D01*
X-6378818Y-4409350D01*
X-6389486Y-4420018D01*
X-6389486Y-4430686D01*
X-6378818Y-4441354D01*
X-6346814Y-4441354D01*
X-6336146Y-4430686D01*
X-6357482Y-4409350D02*
X-6378818Y-4409350D01*
X-6421490Y-4388014D02*
X-6432158Y-4377346D01*
X-6464162Y-4377346D01*
X-6474830Y-4388014D01*
X-6474830Y-4398682D01*
X-6464162Y-4409350D01*
X-6474830Y-4420018D01*
X-6474830Y-4430686D01*
X-6464162Y-4441354D01*
X-6432158Y-4441354D01*
X-6421490Y-4430686D01*
X-6442826Y-4409350D02*
X-6464162Y-4409350D01*
D72*
X+2284950Y-4228250D02*
X+3478750Y-4228250D01*
X+3478750Y-4050450D01*
X+2284950Y-4050450D01*
X+2284950Y-4228250D01*
D84*
X+3009866Y-4171354D02*
X+3009866Y-4107346D01*
X+2956526Y-4107346D01*
X+2945858Y-4118014D01*
X+2945858Y-4128682D01*
X+2956526Y-4139350D01*
X+3009866Y-4139350D01*
X+2956526Y-4139350D02*
X+2945858Y-4150018D01*
X+2945858Y-4171354D01*
X+2913854Y-4118014D02*
X+2903186Y-4107346D01*
X+2871182Y-4107346D01*
X+2860514Y-4118014D01*
X+2860514Y-4128682D01*
X+2871182Y-4139350D01*
X+2860514Y-4150018D01*
X+2860514Y-4160686D01*
X+2871182Y-4171354D01*
X+2903186Y-4171354D01*
X+2913854Y-4160686D01*
X+2892518Y-4139350D02*
X+2871182Y-4139350D01*
X+2775170Y-4150018D02*
X+2839178Y-4150018D01*
X+2796506Y-4107346D01*
X+2796506Y-4171354D01*
D72*
X-4897160Y-3471160D02*
X-4622840Y-3471160D01*
X-4622840Y-2942840D01*
X-4897160Y-2942840D01*
X-4897160Y-3471160D01*
D90*
X-4733584Y-3127752D02*
X-4720376Y-3114544D01*
X-4720376Y-3074920D01*
X-4746792Y-3048504D01*
X-4773208Y-3048504D01*
X-4799624Y-3074920D01*
X-4799624Y-3114544D01*
X-4786416Y-3127752D01*
X-4786416Y-3167376D02*
X-4799624Y-3180584D01*
X-4799624Y-3220208D01*
X-4786416Y-3233416D01*
X-4773208Y-3233416D01*
X-4760000Y-3220208D01*
X-4760000Y-3180584D01*
X-4746792Y-3167376D01*
X-4720376Y-3167376D01*
X-4720376Y-3233416D01*
X-4799624Y-3273040D02*
X-4799624Y-3339080D01*
X-4786416Y-3339080D01*
X-4720376Y-3273040D01*
D86*
X-4126020Y-3213920D02*
X-4126938Y-3191106D01*
X-4134391Y-3145477D01*
X-4149938Y-3099848D01*
X-4175180Y-3054219D01*
X-4213722Y-3008689D01*
X-4259351Y-2973193D01*
X-4304980Y-2950073D01*
X-4350609Y-2936220D01*
X-4396238Y-2930274D01*
X-4410000Y-2929940D01*
X-4693980Y-3213920D02*
X-4693062Y-3191106D01*
X-4685609Y-3145477D01*
X-4670062Y-3099848D01*
X-4644820Y-3054219D01*
X-4606278Y-3008689D01*
X-4560649Y-2973193D01*
X-4515020Y-2950073D01*
X-4469391Y-2936220D01*
X-4423762Y-2930274D01*
X-4410000Y-2929940D01*
X-4693980Y-3213920D02*
X-4693062Y-3236734D01*
X-4685609Y-3282363D01*
X-4670062Y-3327992D01*
X-4644820Y-3373621D01*
X-4606278Y-3419151D01*
X-4560649Y-3454647D01*
X-4515020Y-3477767D01*
X-4469391Y-3491620D01*
X-4423762Y-3497566D01*
X-4410000Y-3497900D01*
X-4126020Y-3213920D02*
X-4126938Y-3236734D01*
X-4134391Y-3282363D01*
X-4149938Y-3327992D01*
X-4175180Y-3373621D01*
X-4213722Y-3419151D01*
X-4259351Y-3454647D01*
X-4304980Y-3477767D01*
X-4350609Y-3491620D01*
X-4396238Y-3497566D01*
X-4410000Y-3497900D01*
D89*
X-4381348Y-3127964D02*
X-4367022Y-3113638D01*
X-4367022Y-3070660D01*
X-4395674Y-3042008D01*
X-4424326Y-3042008D01*
X-4452978Y-3070660D01*
X-4452978Y-3113638D01*
X-4438652Y-3127964D01*
X-4438652Y-3170942D02*
X-4452978Y-3185268D01*
X-4452978Y-3228246D01*
X-4438652Y-3242572D01*
X-4424326Y-3242572D01*
X-4410000Y-3228246D01*
X-4410000Y-3185268D01*
X-4395674Y-3170942D01*
X-4367022Y-3170942D01*
X-4367022Y-3242572D01*
X-4410000Y-3299876D02*
X-4424326Y-3285550D01*
X-4438652Y-3285550D01*
X-4452978Y-3299876D01*
X-4452978Y-3342854D01*
X-4438652Y-3357180D01*
X-4424326Y-3357180D01*
X-4410000Y-3342854D01*
X-4410000Y-3299876D01*
X-4395674Y-3285550D01*
X-4381348Y-3285550D01*
X-4367022Y-3299876D01*
X-4367022Y-3342854D01*
X-4381348Y-3357180D01*
X-4395674Y-3357180D01*
X-4410000Y-3342854D01*
D72*
X-917160Y-3511160D02*
X-642840Y-3511160D01*
X-642840Y-2982840D01*
X-917160Y-2982840D01*
X-917160Y-3511160D01*
D90*
X-753584Y-3167752D02*
X-740376Y-3154544D01*
X-740376Y-3114920D01*
X-766792Y-3088504D01*
X-793208Y-3088504D01*
X-819624Y-3114920D01*
X-819624Y-3154544D01*
X-806416Y-3167752D01*
X-806416Y-3207376D02*
X-819624Y-3220584D01*
X-819624Y-3260208D01*
X-806416Y-3273416D01*
X-793208Y-3273416D01*
X-780000Y-3260208D01*
X-780000Y-3220584D01*
X-766792Y-3207376D01*
X-740376Y-3207376D01*
X-740376Y-3273416D01*
X-793208Y-3379080D02*
X-780000Y-3365872D01*
X-780000Y-3326248D01*
X-793208Y-3313040D01*
X-806416Y-3313040D01*
X-819624Y-3326248D01*
X-819624Y-3365872D01*
X-806416Y-3379080D01*
X-753584Y-3379080D01*
X-740376Y-3365872D01*
X-740376Y-3326248D01*
D86*
X-36020Y-3247920D02*
X-36938Y-3225106D01*
X-44391Y-3179477D01*
X-59938Y-3133848D01*
X-85180Y-3088219D01*
X-123722Y-3042689D01*
X-169351Y-3007193D01*
X-214980Y-2984073D01*
X-260609Y-2970220D01*
X-306238Y-2964274D01*
X-320000Y-2963940D01*
X-603980Y-3247920D02*
X-603062Y-3225106D01*
X-595609Y-3179477D01*
X-580062Y-3133848D01*
X-554820Y-3088219D01*
X-516278Y-3042689D01*
X-470649Y-3007193D01*
X-425020Y-2984073D01*
X-379391Y-2970220D01*
X-333762Y-2964274D01*
X-320000Y-2963940D01*
X-603980Y-3247920D02*
X-603062Y-3270734D01*
X-595609Y-3316363D01*
X-580062Y-3361992D01*
X-554820Y-3407621D01*
X-516278Y-3453151D01*
X-470649Y-3488647D01*
X-425020Y-3511767D01*
X-379391Y-3525620D01*
X-333762Y-3531566D01*
X-320000Y-3531900D01*
X-36020Y-3247920D02*
X-36938Y-3270734D01*
X-44391Y-3316363D01*
X-59938Y-3361992D01*
X-85180Y-3407621D01*
X-123722Y-3453151D01*
X-169351Y-3488647D01*
X-214980Y-3511767D01*
X-260609Y-3525620D01*
X-306238Y-3531566D01*
X-320000Y-3531900D01*
D89*
X-291348Y-3161964D02*
X-277022Y-3147638D01*
X-277022Y-3104660D01*
X-305674Y-3076008D01*
X-334326Y-3076008D01*
X-362978Y-3104660D01*
X-362978Y-3147638D01*
X-348652Y-3161964D01*
X-348652Y-3204942D02*
X-362978Y-3219268D01*
X-362978Y-3262246D01*
X-348652Y-3276572D01*
X-334326Y-3276572D01*
X-320000Y-3262246D01*
X-305674Y-3276572D01*
X-291348Y-3276572D01*
X-277022Y-3262246D01*
X-277022Y-3219268D01*
X-291348Y-3204942D01*
X-320000Y-3233594D02*
X-320000Y-3262246D01*
X-291348Y-3305224D02*
X-348652Y-3305224D01*
X-362978Y-3319550D01*
X-362978Y-3376854D01*
X-348652Y-3391180D01*
X-291348Y-3391180D01*
X-277022Y-3376854D01*
X-277022Y-3319550D01*
X-291348Y-3305224D01*
X-277022Y-3305224D02*
X-362978Y-3391180D01*
D72*
X+3233340Y-3560360D02*
X+3507660Y-3560360D01*
X+3507660Y-3032040D01*
X+3233340Y-3032040D01*
X+3233340Y-3560360D01*
D90*
X+3396916Y-3216952D02*
X+3410124Y-3203744D01*
X+3410124Y-3164120D01*
X+3383708Y-3137704D01*
X+3357292Y-3137704D01*
X+3330876Y-3164120D01*
X+3330876Y-3203744D01*
X+3344084Y-3216952D01*
X+3344084Y-3256576D02*
X+3330876Y-3269784D01*
X+3330876Y-3309408D01*
X+3344084Y-3322616D01*
X+3357292Y-3322616D01*
X+3370500Y-3309408D01*
X+3383708Y-3322616D01*
X+3396916Y-3322616D01*
X+3410124Y-3309408D01*
X+3410124Y-3269784D01*
X+3396916Y-3256576D01*
X+3370500Y-3282992D02*
X+3370500Y-3309408D01*
X+3357292Y-3375448D02*
X+3330876Y-3401864D01*
X+3410124Y-3401864D01*
D86*
X+4234480Y-3307120D02*
X+4233562Y-3284306D01*
X+4226109Y-3238677D01*
X+4210562Y-3193048D01*
X+4185320Y-3147419D01*
X+4146778Y-3101889D01*
X+4101149Y-3066393D01*
X+4055520Y-3043273D01*
X+4009891Y-3029420D01*
X+3964262Y-3023474D01*
X+3950500Y-3023140D01*
X+3666520Y-3307120D02*
X+3667438Y-3284306D01*
X+3674891Y-3238677D01*
X+3690438Y-3193048D01*
X+3715680Y-3147419D01*
X+3754222Y-3101889D01*
X+3799851Y-3066393D01*
X+3845480Y-3043273D01*
X+3891109Y-3029420D01*
X+3936738Y-3023474D01*
X+3950500Y-3023140D01*
X+3666520Y-3307120D02*
X+3667438Y-3329934D01*
X+3674891Y-3375563D01*
X+3690438Y-3421192D01*
X+3715680Y-3466821D01*
X+3754222Y-3512351D01*
X+3799851Y-3547847D01*
X+3845480Y-3570967D01*
X+3891109Y-3584820D01*
X+3936738Y-3590766D01*
X+3950500Y-3591100D01*
X+4234480Y-3307120D02*
X+4233562Y-3329934D01*
X+4226109Y-3375563D01*
X+4210562Y-3421192D01*
X+4185320Y-3466821D01*
X+4146778Y-3512351D01*
X+4101149Y-3547847D01*
X+4055520Y-3570967D01*
X+4009891Y-3584820D01*
X+3964262Y-3590766D01*
X+3950500Y-3591100D01*
D89*
X+3979152Y-3221164D02*
X+3993478Y-3206838D01*
X+3993478Y-3163860D01*
X+3964826Y-3135208D01*
X+3936174Y-3135208D01*
X+3907522Y-3163860D01*
X+3907522Y-3206838D01*
X+3921848Y-3221164D01*
X+3921848Y-3264142D02*
X+3907522Y-3278468D01*
X+3907522Y-3321446D01*
X+3921848Y-3335772D01*
X+3936174Y-3335772D01*
X+3950500Y-3321446D01*
X+3964826Y-3335772D01*
X+3979152Y-3335772D01*
X+3993478Y-3321446D01*
X+3993478Y-3278468D01*
X+3979152Y-3264142D01*
X+3950500Y-3292794D02*
X+3950500Y-3321446D01*
X+3921848Y-3378750D02*
X+3907522Y-3393076D01*
X+3907522Y-3436054D01*
X+3921848Y-3450380D01*
X+3936174Y-3450380D01*
X+3950500Y-3436054D01*
X+3950500Y-3393076D01*
X+3964826Y-3378750D01*
X+3993478Y-3378750D01*
X+3993478Y-3450380D01*
D72*
X-3175070Y-10230950D02*
X-2997270Y-10230950D01*
X-2997270Y-9037150D01*
X-3175070Y-9037150D01*
X-3175070Y-10230950D01*
D84*
X-3054166Y-9506034D02*
X-3118174Y-9506034D01*
X-3118174Y-9559374D01*
X-3107506Y-9570042D01*
X-3096838Y-9570042D01*
X-3086170Y-9559374D01*
X-3086170Y-9506034D01*
X-3086170Y-9559374D02*
X-3075502Y-9570042D01*
X-3054166Y-9570042D01*
X-3096838Y-9612714D02*
X-3118174Y-9634050D01*
X-3054166Y-9634050D01*
X-3118174Y-9740730D02*
X-3118174Y-9687390D01*
X-3096838Y-9687390D01*
X-3096838Y-9730062D01*
X-3086170Y-9740730D01*
X-3064834Y-9740730D01*
X-3054166Y-9730062D01*
X-3054166Y-9698058D01*
X-3064834Y-9687390D01*
D72*
X-8058650Y+14501500D02*
X-7880850Y+14501500D01*
X-7880850Y+15695300D01*
X-8058650Y+15695300D01*
X-8058650Y+14501500D01*
D84*
X-7937746Y+15183744D02*
X-8001754Y+15183744D01*
X-8001754Y+15130404D01*
X-7991086Y+15119736D01*
X-7980418Y+15119736D01*
X-7969750Y+15130404D01*
X-7969750Y+15183744D01*
X-7969750Y+15130404D02*
X-7959082Y+15119736D01*
X-7937746Y+15119736D01*
X-7991086Y+15087732D02*
X-8001754Y+15077064D01*
X-8001754Y+15045060D01*
X-7991086Y+15034392D01*
X-7980418Y+15034392D01*
X-7969750Y+15045060D01*
X-7959082Y+15034392D01*
X-7948414Y+15034392D01*
X-7937746Y+15045060D01*
X-7937746Y+15077064D01*
X-7948414Y+15087732D01*
X-7969750Y+15066396D02*
X-7969750Y+15045060D01*
D72*
X-7458650Y+14501500D02*
X-7280850Y+14501500D01*
X-7280850Y+15695300D01*
X-7458650Y+15695300D01*
X-7458650Y+14501500D01*
D84*
X-7337746Y+15183744D02*
X-7401754Y+15183744D01*
X-7401754Y+15130404D01*
X-7391086Y+15119736D01*
X-7380418Y+15119736D01*
X-7369750Y+15130404D01*
X-7369750Y+15183744D01*
X-7369750Y+15130404D02*
X-7359082Y+15119736D01*
X-7337746Y+15119736D01*
X-7359082Y+15034392D02*
X-7359082Y+15098400D01*
X-7401754Y+15055728D01*
X-7337746Y+15055728D01*
D72*
X+3285350Y-11038500D02*
X+4479150Y-11038500D01*
X+4479150Y-10860700D01*
X+3285350Y-10860700D01*
X+3285350Y-11038500D01*
D84*
X+3967594Y-10981604D02*
X+3967594Y-10917596D01*
X+3914254Y-10917596D01*
X+3903586Y-10928264D01*
X+3903586Y-10938932D01*
X+3914254Y-10949600D01*
X+3967594Y-10949600D01*
X+3914254Y-10949600D02*
X+3903586Y-10960268D01*
X+3903586Y-10981604D01*
X+3860914Y-10938932D02*
X+3839578Y-10917596D01*
X+3839578Y-10981604D01*
D72*
X+5891350Y-12718500D02*
X+6069150Y-12718500D01*
X+6069150Y-11524700D01*
X+5891350Y-11524700D01*
X+5891350Y-12718500D01*
D84*
X+6012254Y-12036256D02*
X+5948246Y-12036256D01*
X+5948246Y-12089596D01*
X+5958914Y-12100264D01*
X+5969582Y-12100264D01*
X+5980250Y-12089596D01*
X+5980250Y-12036256D01*
X+5980250Y-12089596D02*
X+5990918Y-12100264D01*
X+6012254Y-12100264D01*
X+5958914Y-12132268D02*
X+5948246Y-12142936D01*
X+5948246Y-12174940D01*
X+5958914Y-12185608D01*
X+5969582Y-12185608D01*
X+5980250Y-12174940D01*
X+5980250Y-12142936D01*
X+5990918Y-12132268D01*
X+6012254Y-12132268D01*
X+6012254Y-12185608D01*
D72*
X-8326910Y+2976900D02*
X-5258590Y+2976900D01*
X-5258590Y+3865900D01*
X-8326910Y+3865900D01*
X-8326910Y+2976900D01*
D83*
X-5659836Y+3350592D02*
X-5659836Y+3492207D01*
X-5730643Y+3421400D01*
X-5801450Y+3492207D01*
X-5801450Y+3350592D01*
X-5848655Y+3350592D02*
X-5848655Y+3445002D01*
X-5895859Y+3492207D01*
X-5943064Y+3492207D01*
X-5990269Y+3445002D01*
X-5990269Y+3350592D01*
X-5848655Y+3397797D02*
X-5990269Y+3397797D01*
X-6037474Y+3492207D02*
X-6179088Y+3350592D01*
X-6037474Y+3350592D02*
X-6179088Y+3492207D01*
X-6556726Y+3374195D02*
X-6533123Y+3350592D01*
X-6462316Y+3350592D01*
X-6415112Y+3397797D01*
X-6415112Y+3445002D01*
X-6462316Y+3492207D01*
X-6533123Y+3492207D01*
X-6556726Y+3468604D01*
X-6603931Y+3445002D02*
X-6651135Y+3492207D01*
X-6698340Y+3492207D01*
X-6745545Y+3445002D01*
X-6745545Y+3397797D01*
X-6698340Y+3350592D01*
X-6651135Y+3350592D01*
X-6603931Y+3397797D01*
X-6603931Y+3445002D01*
X-6792750Y+3350592D02*
X-6792750Y+3492207D01*
X-6863557Y+3421400D01*
X-6934364Y+3492207D01*
X-6934364Y+3350592D01*
X-7005171Y+3468604D02*
X-7028773Y+3492207D01*
X-7099580Y+3492207D01*
X-7123183Y+3468604D01*
X-7123183Y+3445002D01*
X-7099580Y+3421400D01*
X-7028773Y+3421400D01*
X-7005171Y+3397797D01*
X-7005171Y+3350592D01*
X-7123183Y+3350592D01*
X-7359207Y+3350592D02*
X-7359207Y+3445002D01*
X-7406411Y+3492207D01*
X-7453616Y+3492207D01*
X-7500821Y+3445002D01*
X-7500821Y+3350592D01*
X-7359207Y+3397797D02*
X-7500821Y+3397797D01*
X-7689640Y+3374195D02*
X-7666037Y+3350592D01*
X-7595230Y+3350592D01*
X-7548026Y+3397797D01*
X-7548026Y+3445002D01*
X-7595230Y+3492207D01*
X-7666037Y+3492207D01*
X-7689640Y+3468604D01*
X-7736845Y+3492207D02*
X-7878459Y+3492207D01*
X-7807652Y+3492207D02*
X-7807652Y+3350592D01*
D72*
X+1149090Y+2944900D02*
X+4217410Y+2944900D01*
X+4217410Y+3833900D01*
X+1149090Y+3833900D01*
X+1149090Y+2944900D01*
D83*
X+3816164Y+3318592D02*
X+3816164Y+3460207D01*
X+3745357Y+3389400D01*
X+3674550Y+3460207D01*
X+3674550Y+3318592D01*
X+3627345Y+3318592D02*
X+3627345Y+3413002D01*
X+3580141Y+3460207D01*
X+3532936Y+3460207D01*
X+3485731Y+3413002D01*
X+3485731Y+3318592D01*
X+3627345Y+3365797D02*
X+3485731Y+3365797D01*
X+3438526Y+3460207D02*
X+3296912Y+3318592D01*
X+3438526Y+3318592D02*
X+3296912Y+3460207D01*
X+3060888Y+3318592D02*
X+3060888Y+3460207D01*
X+2919274Y+3318592D01*
X+2919274Y+3460207D01*
X+2872069Y+3318592D02*
X+2872069Y+3413002D01*
X+2824865Y+3460207D01*
X+2777660Y+3460207D01*
X+2730455Y+3413002D01*
X+2730455Y+3318592D01*
X+2872069Y+3365797D02*
X+2730455Y+3365797D01*
X+2683250Y+3460207D02*
X+2683250Y+3389400D01*
X+2612443Y+3318592D01*
X+2541636Y+3389400D01*
X+2541636Y+3460207D01*
X+2470829Y+3436604D02*
X+2447227Y+3460207D01*
X+2376420Y+3460207D01*
X+2352817Y+3436604D01*
X+2352817Y+3413002D01*
X+2376420Y+3389400D01*
X+2447227Y+3389400D01*
X+2470829Y+3365797D01*
X+2470829Y+3318592D01*
X+2352817Y+3318592D01*
X+2116793Y+3318592D02*
X+2116793Y+3413002D01*
X+2069589Y+3460207D01*
X+2022384Y+3460207D01*
X+1975179Y+3413002D01*
X+1975179Y+3318592D01*
X+2116793Y+3365797D02*
X+1975179Y+3365797D01*
X+1786360Y+3342195D02*
X+1809963Y+3318592D01*
X+1880770Y+3318592D01*
X+1927974Y+3365797D01*
X+1927974Y+3413002D01*
X+1880770Y+3460207D01*
X+1809963Y+3460207D01*
X+1786360Y+3436604D01*
X+1739155Y+3460207D02*
X+1597541Y+3460207D01*
X+1668348Y+3460207D02*
X+1668348Y+3318592D01*
D72*
X+5379090Y+2934900D02*
X+8447410Y+2934900D01*
X+8447410Y+3823900D01*
X+5379090Y+3823900D01*
X+5379090Y+2934900D01*
D83*
X+8046164Y+3308592D02*
X+8046164Y+3450207D01*
X+7975357Y+3379400D01*
X+7904550Y+3450207D01*
X+7904550Y+3308592D01*
X+7857345Y+3308592D02*
X+7857345Y+3403002D01*
X+7810141Y+3450207D01*
X+7762936Y+3450207D01*
X+7715731Y+3403002D01*
X+7715731Y+3308592D01*
X+7857345Y+3355797D02*
X+7715731Y+3355797D01*
X+7668526Y+3450207D02*
X+7526912Y+3308592D01*
X+7668526Y+3308592D02*
X+7526912Y+3450207D01*
X+7290888Y+3308592D02*
X+7290888Y+3450207D01*
X+7149274Y+3308592D01*
X+7149274Y+3450207D01*
X+7102069Y+3308592D02*
X+7102069Y+3403002D01*
X+7054865Y+3450207D01*
X+7007660Y+3450207D01*
X+6960455Y+3403002D01*
X+6960455Y+3308592D01*
X+7102069Y+3355797D02*
X+6960455Y+3355797D01*
X+6913250Y+3450207D02*
X+6913250Y+3379400D01*
X+6842443Y+3308592D01*
X+6771636Y+3379400D01*
X+6771636Y+3450207D01*
X+6700829Y+3426604D02*
X+6677227Y+3450207D01*
X+6606420Y+3450207D01*
X+6582817Y+3426604D01*
X+6582817Y+3403002D01*
X+6606420Y+3379400D01*
X+6677227Y+3379400D01*
X+6700829Y+3355797D01*
X+6700829Y+3308592D01*
X+6582817Y+3308592D01*
X+6346793Y+3332195D02*
X+6323191Y+3308592D01*
X+6228782Y+3308592D01*
X+6205179Y+3332195D01*
X+6205179Y+3355797D01*
X+6228782Y+3379400D01*
X+6323191Y+3379400D01*
X+6346793Y+3403002D01*
X+6346793Y+3426604D01*
X+6323191Y+3450207D01*
X+6228782Y+3450207D01*
X+6205179Y+3426604D01*
X+6157974Y+3450207D02*
X+6016360Y+3450207D01*
X+6087167Y+3450207D02*
X+6087167Y+3308592D01*
X+5969155Y+3308592D02*
X+5969155Y+3450207D01*
X+5851144Y+3450207D01*
X+5827541Y+3426604D01*
X+5827541Y+3403002D01*
X+5851144Y+3379400D01*
X+5827541Y+3355797D01*
X+5827541Y+3332195D01*
X+5851144Y+3308592D01*
X+5969155Y+3308592D01*
X+5969155Y+3379400D02*
X+5851144Y+3379400D01*
D72*
X-3996910Y+2956900D02*
X-928590Y+2956900D01*
X-928590Y+3845900D01*
X-3996910Y+3845900D01*
X-3996910Y+2956900D01*
D83*
X-1329836Y+3330592D02*
X-1329836Y+3472207D01*
X-1400643Y+3401400D01*
X-1471450Y+3472207D01*
X-1471450Y+3330592D01*
X-1518655Y+3330592D02*
X-1518655Y+3425002D01*
X-1565859Y+3472207D01*
X-1613064Y+3472207D01*
X-1660269Y+3425002D01*
X-1660269Y+3330592D01*
X-1518655Y+3377797D02*
X-1660269Y+3377797D01*
X-1707474Y+3472207D02*
X-1849088Y+3330592D01*
X-1707474Y+3330592D02*
X-1849088Y+3472207D01*
X-2226726Y+3354195D02*
X-2203123Y+3330592D01*
X-2132316Y+3330592D01*
X-2085112Y+3377797D01*
X-2085112Y+3425002D01*
X-2132316Y+3472207D01*
X-2203123Y+3472207D01*
X-2226726Y+3448604D01*
X-2273931Y+3425002D02*
X-2321135Y+3472207D01*
X-2368340Y+3472207D01*
X-2415545Y+3425002D01*
X-2415545Y+3377797D01*
X-2368340Y+3330592D01*
X-2321135Y+3330592D01*
X-2273931Y+3377797D01*
X-2273931Y+3425002D01*
X-2462750Y+3330592D02*
X-2462750Y+3472207D01*
X-2533557Y+3401400D01*
X-2604364Y+3472207D01*
X-2604364Y+3330592D01*
X-2675171Y+3448604D02*
X-2698773Y+3472207D01*
X-2769580Y+3472207D01*
X-2793183Y+3448604D01*
X-2793183Y+3425002D01*
X-2769580Y+3401400D01*
X-2698773Y+3401400D01*
X-2675171Y+3377797D01*
X-2675171Y+3330592D01*
X-2793183Y+3330592D01*
X-3029207Y+3354195D02*
X-3052809Y+3330592D01*
X-3147218Y+3330592D01*
X-3170821Y+3354195D01*
X-3170821Y+3377797D01*
X-3147218Y+3401400D01*
X-3052809Y+3401400D01*
X-3029207Y+3425002D01*
X-3029207Y+3448604D01*
X-3052809Y+3472207D01*
X-3147218Y+3472207D01*
X-3170821Y+3448604D01*
X-3218026Y+3472207D02*
X-3359640Y+3472207D01*
X-3288833Y+3472207D02*
X-3288833Y+3330592D01*
X-3406845Y+3330592D02*
X-3406845Y+3472207D01*
X-3524856Y+3472207D01*
X-3548459Y+3448604D01*
X-3548459Y+3425002D01*
X-3524856Y+3401400D01*
X-3548459Y+3377797D01*
X-3548459Y+3354195D01*
X-3524856Y+3330592D01*
X-3406845Y+3330592D01*
X-3406845Y+3401400D02*
X-3524856Y+3401400D01*
D72*
X-7960910Y+1394900D02*
X-4892590Y+1394900D01*
X-4892590Y+2283900D01*
X-7960910Y+2283900D01*
X-7960910Y+1394900D01*
D91*
X-5352838Y+1724338D02*
X-5352838Y+1954462D01*
X-5467900Y+1839400D01*
X-5582962Y+1954462D01*
X-5582962Y+1724338D01*
X-5659670Y+1724338D02*
X-5659670Y+1877754D01*
X-5736378Y+1954462D01*
X-5813086Y+1954462D01*
X-5889794Y+1877754D01*
X-5889794Y+1724338D01*
X-5659670Y+1801046D02*
X-5889794Y+1801046D01*
X-5966502Y+1954462D02*
X-6196626Y+1724338D01*
X-5966502Y+1724338D02*
X-6196626Y+1954462D01*
X-6580166Y+1724338D02*
X-6580166Y+1877754D01*
X-6656874Y+1954462D01*
X-6733582Y+1954462D01*
X-6810290Y+1877754D01*
X-6810290Y+1724338D01*
X-6580166Y+1801046D02*
X-6810290Y+1801046D01*
X-6886998Y+1724338D02*
X-6886998Y+1954462D01*
X-7040414Y+1954462D01*
X-7117122Y+1877754D01*
X-7117122Y+1801046D01*
X-7040414Y+1724338D01*
X-6886998Y+1724338D01*
X-7193830Y+1724338D02*
X-7193830Y+1954462D01*
X-7423954Y+1954462D01*
X-7193830Y+1839400D02*
X-7347246Y+1839400D01*
D72*
X+1453090Y+2163240D02*
X+1981410Y+2163240D01*
X+1981410Y+2437560D01*
X+1453090Y+2437560D01*
X+1453090Y+2163240D01*
D90*
X+1796498Y+2273984D02*
X+1809706Y+2260776D01*
X+1849330Y+2260776D01*
X+1875746Y+2287192D01*
X+1875746Y+2313608D01*
X+1849330Y+2340024D01*
X+1809706Y+2340024D01*
X+1796498Y+2326816D01*
X+1756874Y+2326816D02*
X+1743666Y+2340024D01*
X+1704042Y+2340024D01*
X+1690834Y+2326816D01*
X+1690834Y+2313608D01*
X+1704042Y+2300400D01*
X+1690834Y+2287192D01*
X+1690834Y+2273984D01*
X+1704042Y+2260776D01*
X+1743666Y+2260776D01*
X+1756874Y+2273984D01*
X+1730458Y+2300400D02*
X+1704042Y+2300400D01*
X+1651210Y+2326816D02*
X+1638002Y+2340024D01*
X+1598378Y+2340024D01*
X+1585170Y+2326816D01*
X+1585170Y+2313608D01*
X+1598378Y+2300400D01*
X+1585170Y+2287192D01*
X+1585170Y+2273984D01*
X+1598378Y+2260776D01*
X+1638002Y+2260776D01*
X+1651210Y+2273984D01*
X+1624794Y+2300400D02*
X+1598378Y+2300400D01*
D86*
X+2032150Y+1640400D02*
X+2031232Y+1663214D01*
X+2023779Y+1708843D01*
X+2008232Y+1754472D01*
X+1982990Y+1800101D01*
X+1944448Y+1845631D01*
X+1898819Y+1881127D01*
X+1853190Y+1904247D01*
X+1807561Y+1918100D01*
X+1761932Y+1924046D01*
X+1748170Y+1924380D01*
X+1464190Y+1640400D02*
X+1465108Y+1663214D01*
X+1472561Y+1708843D01*
X+1488108Y+1754472D01*
X+1513350Y+1800101D01*
X+1551892Y+1845631D01*
X+1597521Y+1881127D01*
X+1643150Y+1904247D01*
X+1688779Y+1918100D01*
X+1734408Y+1924046D01*
X+1748170Y+1924380D01*
X+1464190Y+1640400D02*
X+1465108Y+1617586D01*
X+1472561Y+1571957D01*
X+1488108Y+1526328D01*
X+1513350Y+1480699D01*
X+1551892Y+1435169D01*
X+1597521Y+1399673D01*
X+1643150Y+1376553D01*
X+1688779Y+1362700D01*
X+1734408Y+1356754D01*
X+1748170Y+1356420D01*
X+2032150Y+1640400D02*
X+2031232Y+1617586D01*
X+2023779Y+1571957D01*
X+2008232Y+1526328D01*
X+1982990Y+1480699D01*
X+1944448Y+1435169D01*
X+1898819Y+1399673D01*
X+1853190Y+1376553D01*
X+1807561Y+1362700D01*
X+1761932Y+1356754D01*
X+1748170Y+1356420D01*
D89*
X+1834126Y+1611748D02*
X+1848452Y+1597422D01*
X+1891430Y+1597422D01*
X+1920082Y+1626074D01*
X+1920082Y+1654726D01*
X+1891430Y+1683378D01*
X+1848452Y+1683378D01*
X+1834126Y+1669052D01*
X+1791148Y+1669052D02*
X+1776822Y+1683378D01*
X+1733844Y+1683378D01*
X+1719518Y+1669052D01*
X+1719518Y+1654726D01*
X+1733844Y+1640400D01*
X+1719518Y+1626074D01*
X+1719518Y+1611748D01*
X+1733844Y+1597422D01*
X+1776822Y+1597422D01*
X+1791148Y+1611748D01*
X+1762496Y+1640400D02*
X+1733844Y+1640400D01*
X+1604910Y+1626074D02*
X+1690866Y+1626074D01*
X+1633562Y+1683378D01*
X+1633562Y+1597422D01*
D72*
X-7444650Y-118500D02*
X-6250850Y-118500D01*
X-6250850Y+59300D01*
X-7444650Y+59300D01*
X-7444650Y-118500D01*
D84*
X-6719734Y-61604D02*
X-6719734Y+2404D01*
X-6773074Y+2404D01*
X-6783742Y-8264D01*
X-6783742Y-18932D01*
X-6773074Y-29600D01*
X-6719734Y-29600D01*
X-6773074Y-29600D02*
X-6783742Y-40268D01*
X-6783742Y-61604D01*
X-6815746Y-8264D02*
X-6826414Y+2404D01*
X-6858418Y+2404D01*
X-6869086Y-8264D01*
X-6869086Y-18932D01*
X-6858418Y-29600D01*
X-6869086Y-40268D01*
X-6869086Y-50936D01*
X-6858418Y-61604D01*
X-6826414Y-61604D01*
X-6815746Y-50936D01*
X-6837082Y-29600D02*
X-6858418Y-29600D01*
X-6911758Y-18932D02*
X-6933094Y+2404D01*
X-6933094Y-61604D01*
D72*
X+4085350Y-5918500D02*
X+5279150Y-5918500D01*
X+5279150Y-5740700D01*
X+4085350Y-5740700D01*
X+4085350Y-5918500D01*
D84*
X+4810266Y-5861604D02*
X+4810266Y-5797596D01*
X+4756926Y-5797596D01*
X+4746258Y-5808264D01*
X+4746258Y-5818932D01*
X+4756926Y-5829600D01*
X+4810266Y-5829600D01*
X+4756926Y-5829600D02*
X+4746258Y-5840268D01*
X+4746258Y-5861604D01*
X+4714254Y-5808264D02*
X+4703586Y-5797596D01*
X+4671582Y-5797596D01*
X+4660914Y-5808264D01*
X+4660914Y-5818932D01*
X+4671582Y-5829600D01*
X+4660914Y-5840268D01*
X+4660914Y-5850936D01*
X+4671582Y-5861604D01*
X+4703586Y-5861604D01*
X+4714254Y-5850936D01*
X+4692918Y-5829600D02*
X+4671582Y-5829600D01*
X+4575570Y-5797596D02*
X+4628910Y-5797596D01*
X+4628910Y-5818932D01*
X+4586238Y-5818932D01*
X+4575570Y-5829600D01*
X+4575570Y-5850936D01*
X+4586238Y-5861604D01*
X+4618242Y-5861604D01*
X+4628910Y-5850936D01*
D72*
X-5836910Y-5326760D02*
X-5562590Y-5326760D01*
X-5562590Y-4798440D01*
X-5836910Y-4798440D01*
X-5836910Y-5326760D01*
D90*
X-5673334Y-4983352D02*
X-5660126Y-4970144D01*
X-5660126Y-4930520D01*
X-5686542Y-4904104D01*
X-5712958Y-4904104D01*
X-5739374Y-4930520D01*
X-5739374Y-4970144D01*
X-5726166Y-4983352D01*
X-5726166Y-5022976D02*
X-5739374Y-5036184D01*
X-5739374Y-5075808D01*
X-5726166Y-5089016D01*
X-5712958Y-5089016D01*
X-5699750Y-5075808D01*
X-5686542Y-5089016D01*
X-5673334Y-5089016D01*
X-5660126Y-5075808D01*
X-5660126Y-5036184D01*
X-5673334Y-5022976D01*
X-5699750Y-5049392D02*
X-5699750Y-5075808D01*
X-5739374Y-5194680D02*
X-5739374Y-5128640D01*
X-5712958Y-5128640D01*
X-5712958Y-5181472D01*
X-5699750Y-5194680D01*
X-5673334Y-5194680D01*
X-5660126Y-5181472D01*
X-5660126Y-5141848D01*
X-5673334Y-5128640D01*
D86*
X-5955770Y-5041680D02*
X-5956688Y-5018866D01*
X-5964141Y-4973237D01*
X-5979688Y-4927608D01*
X-6004930Y-4881979D01*
X-6043472Y-4836449D01*
X-6089101Y-4800953D01*
X-6134730Y-4777833D01*
X-6180359Y-4763980D01*
X-6225988Y-4758034D01*
X-6239750Y-4757700D01*
X-6523730Y-5041680D02*
X-6522812Y-5018866D01*
X-6515359Y-4973237D01*
X-6499812Y-4927608D01*
X-6474570Y-4881979D01*
X-6436028Y-4836449D01*
X-6390399Y-4800953D01*
X-6344770Y-4777833D01*
X-6299141Y-4763980D01*
X-6253512Y-4758034D01*
X-6239750Y-4757700D01*
X-6523730Y-5041680D02*
X-6522812Y-5064494D01*
X-6515359Y-5110123D01*
X-6499812Y-5155752D01*
X-6474570Y-5201381D01*
X-6436028Y-5246911D01*
X-6390399Y-5282407D01*
X-6344770Y-5305527D01*
X-6299141Y-5319380D01*
X-6253512Y-5325326D01*
X-6239750Y-5325660D01*
X-5955770Y-5041680D02*
X-5956688Y-5064494D01*
X-5964141Y-5110123D01*
X-5979688Y-5155752D01*
X-6004930Y-5201381D01*
X-6043472Y-5246911D01*
X-6089101Y-5282407D01*
X-6134730Y-5305527D01*
X-6180359Y-5319380D01*
X-6225988Y-5325326D01*
X-6239750Y-5325660D01*
D89*
X-6211098Y-4955724D02*
X-6196772Y-4941398D01*
X-6196772Y-4898420D01*
X-6225424Y-4869768D01*
X-6254076Y-4869768D01*
X-6282728Y-4898420D01*
X-6282728Y-4941398D01*
X-6268402Y-4955724D01*
X-6268402Y-4998702D02*
X-6282728Y-5013028D01*
X-6282728Y-5056006D01*
X-6268402Y-5070332D01*
X-6254076Y-5070332D01*
X-6239750Y-5056006D01*
X-6225424Y-5070332D01*
X-6211098Y-5070332D01*
X-6196772Y-5056006D01*
X-6196772Y-5013028D01*
X-6211098Y-4998702D01*
X-6239750Y-5027354D02*
X-6239750Y-5056006D01*
X-6268402Y-5184940D02*
X-6282728Y-5170614D01*
X-6282728Y-5127636D01*
X-6268402Y-5113310D01*
X-6211098Y-5113310D01*
X-6196772Y-5127636D01*
X-6196772Y-5170614D01*
X-6211098Y-5184940D01*
X-6225424Y-5184940D01*
X-6239750Y-5170614D01*
X-6239750Y-5113310D01*
D31*
X+3018170Y-16519920D02*
X+3018170Y-15536940D01*
X+8616330Y-15536940D01*
X+8616330Y-16519920D01*
X+3018170Y-16519920D01*
X+3018170Y-15536940D01*
X+8616330Y-15536940D01*
X+8616330Y-16519920D01*
X+3018170Y-16519920D01*
D93*
X+7688375Y-16140698D02*
X+7912910Y-16140698D01*
X+7912910Y-15916163D01*
X+7688375Y-15916163D01*
X+7912910Y-16028430D02*
X+7763220Y-16028430D01*
X+7613530Y-16140698D02*
X+7613530Y-15916163D01*
X+7388995Y-16140698D01*
X+7388995Y-15916163D01*
X+7089615Y-16103276D02*
X+7127038Y-16140698D01*
X+7239305Y-16140698D01*
X+7314150Y-16065853D01*
X+7314150Y-15991008D01*
X+7239305Y-15916163D01*
X+7127038Y-15916163D01*
X+7089615Y-15953585D01*
X+7014770Y-15991008D02*
X+6939925Y-15916163D01*
X+6865080Y-15916163D01*
X+6790235Y-15991008D01*
X+6790235Y-16065853D01*
X+6865080Y-16140698D01*
X+6939925Y-16140698D01*
X+7014770Y-16065853D01*
X+7014770Y-15991008D01*
X+6715390Y-16140698D02*
X+6715390Y-15916163D01*
X+6565700Y-15916163D01*
X+6490855Y-15991008D01*
X+6490855Y-16065853D01*
X+6565700Y-16140698D01*
X+6715390Y-16140698D01*
X+6191475Y-16140698D02*
X+6416010Y-16140698D01*
X+6416010Y-15916163D01*
X+6191475Y-15916163D01*
X+6416010Y-16028430D02*
X+6266320Y-16028430D01*
X+6116630Y-16140698D02*
X+6116630Y-15916163D01*
X+5929518Y-15916163D01*
X+5892095Y-15953585D01*
X+5892095Y-15991008D01*
X+5929518Y-16028430D01*
X+6116630Y-16028430D01*
X+5929518Y-16028430D02*
X+5892095Y-16065853D01*
X+5892095Y-16140698D01*
X+5817250Y-16103276D02*
X+5779828Y-16140698D01*
X+5630138Y-16140698D01*
X+5592715Y-16103276D01*
X+5592715Y-16065853D01*
X+5630138Y-16028430D01*
X+5779828Y-16028430D01*
X+5817250Y-15991008D01*
X+5817250Y-15953585D01*
X+5779828Y-15916163D01*
X+5630138Y-15916163D01*
X+5592715Y-15953585D01*
X+5218490Y-16140698D02*
X+5218490Y-15916163D01*
X+5031378Y-15916163D01*
X+4993955Y-15953585D01*
X+4993955Y-15991008D01*
X+5031378Y-16028430D01*
X+5218490Y-16028430D01*
X+5031378Y-16028430D02*
X+4993955Y-16065853D01*
X+4993955Y-16140698D01*
X+4919110Y-16140698D02*
X+4919110Y-15991008D01*
X+4844265Y-15916163D01*
X+4769420Y-15916163D01*
X+4694575Y-15991008D01*
X+4694575Y-16140698D01*
X+4919110Y-16065853D02*
X+4694575Y-16065853D01*
X+4619730Y-16140698D02*
X+4619730Y-15916163D01*
X+4470040Y-15916163D01*
X+4395195Y-15991008D01*
X+4395195Y-16065853D01*
X+4470040Y-16140698D01*
X+4619730Y-16140698D01*
X+4282928Y-15916163D02*
X+4133238Y-15916163D01*
X+4208083Y-15916163D02*
X+4208083Y-16140698D01*
X+4282928Y-16140698D02*
X+4133238Y-16140698D01*
X+4020970Y-15991008D02*
X+3946125Y-15916163D01*
X+3871280Y-15916163D01*
X+3796435Y-15991008D01*
X+3796435Y-16065853D01*
X+3871280Y-16140698D01*
X+3946125Y-16140698D01*
X+4020970Y-16065853D01*
X+4020970Y-15991008D01*
D31*
X-2835830Y-16525920D02*
X-2835830Y-15542940D01*
X+2762330Y-15542940D01*
X+2762330Y-16525920D01*
X-2835830Y-16525920D01*
X-2835830Y-15542940D01*
X+2762330Y-15542940D01*
X+2762330Y-16525920D01*
X-2835830Y-16525920D01*
D94*
X+2004485Y-15881337D02*
X+2004485Y-16187523D01*
X+1698300Y-16187523D01*
X+1290053Y-16187523D02*
X+1596238Y-16187523D01*
X+1596238Y-15881337D01*
X+1290053Y-15881337D01*
X+1596238Y-16034430D02*
X+1392115Y-16034430D01*
X+1187991Y-16187523D02*
X+1187991Y-15881337D01*
X+983868Y-15881337D01*
X+881806Y-15983399D01*
X+881806Y-16085461D01*
X+983868Y-16187523D01*
X+1187991Y-16187523D01*
X+779744Y-16136492D02*
X+728714Y-16187523D01*
X+524590Y-16187523D01*
X+473559Y-16136492D01*
X+473559Y-16085461D01*
X+524590Y-16034430D01*
X+728714Y-16034430D01*
X+779744Y-15983399D01*
X+779744Y-15932368D01*
X+728714Y-15881337D01*
X+524590Y-15881337D01*
X+473559Y-15932368D01*
X-36750Y-16187523D02*
X-36750Y-15881337D01*
X-291904Y-15881337D01*
X-342935Y-15932368D01*
X-342935Y-15983399D01*
X-291904Y-16034430D01*
X-36750Y-16034430D01*
X-291904Y-16034430D02*
X-342935Y-16085461D01*
X-342935Y-16187523D01*
X-444997Y-16187523D02*
X-444997Y-15983399D01*
X-547058Y-15881337D01*
X-649120Y-15881337D01*
X-751182Y-15983399D01*
X-751182Y-16187523D01*
X-444997Y-16085461D02*
X-751182Y-16085461D01*
X-853244Y-16187523D02*
X-853244Y-15881337D01*
X-1057367Y-15881337D01*
X-1159429Y-15983399D01*
X-1159429Y-16085461D01*
X-1057367Y-16187523D01*
X-853244Y-16187523D01*
X-1312521Y-15881337D02*
X-1516645Y-15881337D01*
X-1414583Y-15881337D02*
X-1414583Y-16187523D01*
X-1312521Y-16187523D02*
X-1516645Y-16187523D01*
X-1669738Y-15983399D02*
X-1771799Y-15881337D01*
X-1873861Y-15881337D01*
X-1975923Y-15983399D01*
X-1975923Y-16085461D01*
X-1873861Y-16187523D01*
X-1771799Y-16187523D01*
X-1669738Y-16085461D01*
X-1669738Y-15983399D01*
D31*
X-8765830Y-16525920D02*
X-8765830Y-15542940D01*
X-3167670Y-15542940D01*
X-3167670Y-16525920D01*
X-8765830Y-16525920D01*
X-8765830Y-15542940D01*
X-3167670Y-15542940D01*
X-3167670Y-16525920D01*
X-8765830Y-16525920D01*
D95*
X-3853470Y-16100470D02*
X-3886490Y-16133490D01*
X-4018570Y-16133490D01*
X-4051590Y-16100470D01*
X-4051590Y-16067450D01*
X-4018570Y-16034430D01*
X-3886490Y-16034430D01*
X-3853470Y-16001410D01*
X-3853470Y-15968390D01*
X-3886490Y-15935370D01*
X-4018570Y-15935370D01*
X-4051590Y-15968390D01*
X-4117630Y-15935370D02*
X-4117630Y-16133490D01*
X-4216690Y-16034430D01*
X-4315750Y-16133490D01*
X-4315750Y-15935370D01*
X-4414810Y-15935370D02*
X-4546890Y-15935370D01*
X-4480850Y-15935370D02*
X-4480850Y-16133490D01*
X-4414810Y-16133490D02*
X-4546890Y-16133490D01*
X-4645950Y-15935370D02*
X-4844070Y-15935370D01*
X-4745010Y-15935370D02*
X-4745010Y-16133490D01*
X-5108230Y-16100470D02*
X-5075210Y-16133490D01*
X-4976150Y-16133490D01*
X-4910110Y-16067450D01*
X-4910110Y-16001410D01*
X-4976150Y-15935370D01*
X-5075210Y-15935370D01*
X-5108230Y-15968390D01*
X-5174270Y-16133490D02*
X-5174270Y-15935370D01*
X-5372390Y-15935370D02*
X-5372390Y-16133490D01*
X-5174270Y-16034430D02*
X-5372390Y-16034430D01*
X-5636550Y-16133490D02*
X-5438430Y-16133490D01*
X-5438430Y-15935370D01*
X-5636550Y-15935370D01*
X-5438430Y-16034430D02*
X-5570510Y-16034430D01*
X-5702590Y-16100470D02*
X-5735610Y-16133490D01*
X-5867690Y-16133490D01*
X-5900710Y-16100470D01*
X-5900710Y-16067450D01*
X-5867690Y-16034430D01*
X-5735610Y-16034430D01*
X-5702590Y-16001410D01*
X-5702590Y-15968390D01*
X-5735610Y-15935370D01*
X-5867690Y-15935370D01*
X-5900710Y-15968390D01*
X-6230910Y-16133490D02*
X-6230910Y-16001410D01*
X-6296950Y-15935370D01*
X-6362990Y-15935370D01*
X-6429030Y-16001410D01*
X-6429030Y-16133490D01*
X-6230910Y-16067450D02*
X-6429030Y-16067450D01*
X-6495070Y-16133490D02*
X-6495070Y-15935370D01*
X-6660170Y-15935370D01*
X-6693190Y-15968390D01*
X-6693190Y-16001410D01*
X-6660170Y-16034430D01*
X-6495070Y-16034430D01*
X-6660170Y-16034430D02*
X-6693190Y-16067450D01*
X-6693190Y-16133490D01*
X-6759230Y-16133490D02*
X-6759230Y-15935370D01*
X-6891310Y-15935370D01*
X-6957350Y-16001410D01*
X-6957350Y-16067450D01*
X-6891310Y-16133490D01*
X-6759230Y-16133490D01*
X-7023390Y-15935370D02*
X-7023390Y-16100470D01*
X-7056410Y-16133490D01*
X-7188490Y-16133490D01*
X-7221510Y-16100470D01*
X-7221510Y-15935370D01*
X-7320570Y-15935370D02*
X-7452650Y-15935370D01*
X-7386610Y-15935370D02*
X-7386610Y-16133490D01*
X-7320570Y-16133490D02*
X-7452650Y-16133490D01*
X-7551710Y-16133490D02*
X-7551710Y-15935370D01*
X-7749830Y-16133490D01*
X-7749830Y-15935370D01*
X-7815870Y-16001410D02*
X-7881910Y-15935370D01*
X-7947950Y-15935370D01*
X-8013990Y-16001410D01*
X-8013990Y-16067450D01*
X-7947950Y-16133490D01*
X-7881910Y-16133490D01*
X-7815870Y-16067450D01*
X-7815870Y-16001410D01*
D72*
X-8309910Y-13749760D02*
X-6769750Y-13749760D01*
X-6769750Y-12699600D01*
X-8309910Y-12699600D01*
X-8309910Y-13749760D01*
D96*
X-6979775Y-13224680D02*
X-7063783Y-13224680D01*
X-7021779Y-13196678D02*
X-7021779Y-13252683D01*
X-7119788Y-13210679D02*
X-7147791Y-13182676D01*
X-7147791Y-13266685D01*
X-7217798Y-13196678D02*
X-7231799Y-13182676D01*
X-7273803Y-13182676D01*
X-7287805Y-13196678D01*
X-7287805Y-13210679D01*
X-7273803Y-13224680D01*
X-7231799Y-13224680D01*
X-7217798Y-13238682D01*
X-7217798Y-13266685D01*
X-7287805Y-13266685D01*
X-7315808Y-13182676D02*
X-7315808Y-13224680D01*
X-7357812Y-13266685D01*
X-7399816Y-13224680D01*
X-7399816Y-13182676D01*
X-7539830Y-13266685D02*
X-7539830Y-13182676D01*
X-7595835Y-13182676D01*
X-7623838Y-13210679D01*
X-7623838Y-13238682D01*
X-7595835Y-13266685D01*
X-7539830Y-13266685D01*
X-7735849Y-13252683D02*
X-7721847Y-13266685D01*
X-7679843Y-13266685D01*
X-7651841Y-13238682D01*
X-7651841Y-13210679D01*
X-7679843Y-13182676D01*
X-7721847Y-13182676D01*
X-7735849Y-13196678D01*
X-7889864Y-13182676D02*
X-7945869Y-13182676D01*
X-7917867Y-13182676D02*
X-7917867Y-13266685D01*
X-7889864Y-13266685D02*
X-7945869Y-13266685D01*
X-7987874Y-13266685D02*
X-7987874Y-13182676D01*
X-8071882Y-13266685D01*
X-8071882Y-13182676D01*
D72*
X-6569910Y-14809760D02*
X-6199590Y-14809760D01*
X-6199590Y-13939440D01*
X-6569910Y-13939440D01*
X-6569910Y-14809760D01*
D97*
X-6395629Y-14069988D02*
X-6417387Y-14091746D01*
X-6417387Y-14113504D01*
X-6395629Y-14135262D01*
X-6373871Y-14135262D01*
X-6352113Y-14113504D01*
X-6352113Y-14091746D01*
X-6373871Y-14069988D01*
X-6395629Y-14069988D01*
X-6352113Y-14157020D02*
X-6417387Y-14157020D01*
X-6417387Y-14222294D01*
X-6384750Y-14157020D02*
X-6384750Y-14200536D01*
X-6352113Y-14244052D02*
X-6417387Y-14244052D01*
X-6417387Y-14309326D01*
X-6384750Y-14244052D02*
X-6384750Y-14287568D01*
X-6395629Y-14505148D02*
X-6417387Y-14526906D01*
X-6417387Y-14548664D01*
X-6395629Y-14570422D01*
X-6373871Y-14570422D01*
X-6352113Y-14548664D01*
X-6352113Y-14526906D01*
X-6373871Y-14505148D01*
X-6395629Y-14505148D01*
X-6352113Y-14592180D02*
X-6417387Y-14592180D01*
X-6352113Y-14657454D01*
X-6417387Y-14657454D01*
D72*
X-8309910Y-14789760D02*
X-6769750Y-14789760D01*
X-6769750Y-13739600D01*
X-8309910Y-13739600D01*
X-8309910Y-14789760D01*
D98*
X-6985376Y-14264680D02*
X-7077785Y-14264680D01*
X-7031580Y-14233877D02*
X-7031580Y-14295484D01*
X-7200997Y-14218476D02*
X-7123989Y-14218476D01*
X-7123989Y-14249279D01*
X-7185595Y-14249279D01*
X-7200997Y-14264680D01*
X-7200997Y-14295484D01*
X-7185595Y-14310885D01*
X-7139391Y-14310885D01*
X-7123989Y-14295484D01*
X-7231800Y-14218476D02*
X-7231800Y-14264680D01*
X-7278004Y-14310885D01*
X-7324209Y-14264680D01*
X-7324209Y-14218476D01*
X-7478224Y-14310885D02*
X-7478224Y-14218476D01*
X-7539830Y-14218476D01*
X-7570633Y-14249279D01*
X-7570633Y-14280082D01*
X-7539830Y-14310885D01*
X-7478224Y-14310885D01*
X-7693845Y-14295484D02*
X-7678443Y-14310885D01*
X-7632239Y-14310885D01*
X-7601436Y-14280082D01*
X-7601436Y-14249279D01*
X-7632239Y-14218476D01*
X-7678443Y-14218476D01*
X-7693845Y-14233877D01*
X-7863261Y-14218476D02*
X-7924867Y-14218476D01*
X-7894064Y-14218476D02*
X-7894064Y-14310885D01*
X-7863261Y-14310885D02*
X-7924867Y-14310885D01*
X-7971072Y-14310885D02*
X-7971072Y-14218476D01*
X-8063481Y-14310885D01*
X-8063481Y-14218476D01*
D31*
X-6864070Y+15345000D02*
X-6864070Y+15596460D01*
X-6315430Y+15596460D01*
X-6315430Y+15345000D01*
X-6864070Y+15345000D01*
X-6864070Y+15596460D01*
X-6315430Y+15596460D01*
X-6315430Y+15345000D01*
X-6864070Y+15345000D01*
D99*
X-6377470Y+15460779D02*
X-6377470Y+15480681D01*
X-6394054Y+15480681D01*
X-6397371Y+15477364D01*
X-6397371Y+15474047D01*
X-6394054Y+15470730D01*
X-6397371Y+15467413D01*
X-6397371Y+15464096D01*
X-6394054Y+15460779D01*
X-6377470Y+15460779D01*
X-6377470Y+15470730D02*
X-6394054Y+15470730D01*
X-6404005Y+15460779D02*
X-6404005Y+15474047D01*
X-6410638Y+15480681D01*
X-6417272Y+15480681D01*
X-6423906Y+15474047D01*
X-6423906Y+15460779D01*
X-6404005Y+15467413D02*
X-6423906Y+15467413D01*
X-6450441Y+15464096D02*
X-6447124Y+15460779D01*
X-6437173Y+15460779D01*
X-6430540Y+15467413D01*
X-6430540Y+15474047D01*
X-6437173Y+15480681D01*
X-6447124Y+15480681D01*
X-6450441Y+15477364D01*
X-6457075Y+15480681D02*
X-6457075Y+15460779D01*
X-6476976Y+15480681D02*
X-6467025Y+15470730D01*
X-6476976Y+15460779D01*
X-6457075Y+15470730D02*
X-6467025Y+15470730D01*
X-6483610Y+15480681D02*
X-6483610Y+15460779D01*
X-6503511Y+15460779D01*
X-6513461Y+15480681D02*
X-6526729Y+15480681D01*
X-6520095Y+15480681D02*
X-6520095Y+15460779D01*
X-6513461Y+15460779D02*
X-6526729Y+15460779D01*
X-6549947Y+15467413D02*
X-6556581Y+15467413D01*
X-6556581Y+15460779D01*
X-6543313Y+15460779D01*
X-6536680Y+15467413D01*
X-6536680Y+15474047D01*
X-6543313Y+15480681D01*
X-6553264Y+15480681D01*
X-6556581Y+15477364D01*
X-6563215Y+15460779D02*
X-6563215Y+15480681D01*
X-6583116Y+15480681D02*
X-6583116Y+15460779D01*
X-6563215Y+15470730D02*
X-6583116Y+15470730D01*
X-6589750Y+15480681D02*
X-6609651Y+15480681D01*
X-6599700Y+15480681D02*
X-6599700Y+15460779D01*
X-6642820Y+15474047D02*
X-6649453Y+15480681D01*
X-6656087Y+15480681D01*
X-6662721Y+15474047D01*
X-6662721Y+15467413D01*
X-6656087Y+15460779D01*
X-6649453Y+15460779D01*
X-6642820Y+15467413D01*
X-6642820Y+15474047D01*
X-6669355Y+15460779D02*
X-6669355Y+15480681D01*
X-6689256Y+15460779D01*
X-6689256Y+15480681D01*
X-6715791Y+15480681D02*
X-6695890Y+15460779D01*
X-6722425Y+15474047D02*
X-6729058Y+15480681D01*
X-6735692Y+15480681D01*
X-6742326Y+15474047D01*
X-6742326Y+15467413D01*
X-6735692Y+15460779D01*
X-6729058Y+15460779D01*
X-6722425Y+15467413D01*
X-6722425Y+15474047D01*
X-6748960Y+15460779D02*
X-6748960Y+15480681D01*
X-6768861Y+15480681D01*
X-6748960Y+15470730D02*
X-6762227Y+15470730D01*
X-6775495Y+15460779D02*
X-6775495Y+15480681D01*
X-6795396Y+15480681D01*
X-6775495Y+15470730D02*
X-6788762Y+15470730D01*
D31*
X-6604350Y+14565750D02*
X-6855810Y+14565750D01*
X-6855810Y+15315050D01*
X-6604350Y+15315050D01*
X-6604350Y+14565750D01*
X-6855810Y+14565750D01*
X-6855810Y+15315050D01*
X-6604350Y+15315050D01*
X-6604350Y+14565750D01*
D100*
X-6701410Y+15207985D02*
X-6758750Y+15207985D01*
X-6758750Y+15160202D01*
X-6749193Y+15150646D01*
X-6739637Y+15150646D01*
X-6730080Y+15160202D01*
X-6730080Y+15207985D01*
X-6758750Y+15131532D02*
X-6701410Y+15131532D01*
X-6730080Y+15102863D01*
X-6701410Y+15074193D01*
X-6758750Y+15074193D01*
X-6701410Y+15055079D02*
X-6758750Y+15055079D01*
X-6758750Y+15007296D01*
X-6749193Y+14997740D01*
X-6739637Y+14997740D01*
X-6730080Y+15007296D01*
X-6730080Y+15055079D01*
X-6730080Y+15007296D02*
X-6720523Y+14997740D01*
X-6701410Y+14997740D01*
X-6701410Y+14844834D02*
X-6701410Y+14902173D01*
X-6758750Y+14902173D01*
X-6758750Y+14844834D01*
X-6730080Y+14902173D02*
X-6730080Y+14863947D01*
X-6758750Y+14825720D02*
X-6701410Y+14768381D01*
X-6701410Y+14825720D02*
X-6758750Y+14768381D01*
X-6758750Y+14749267D02*
X-6758750Y+14691928D01*
X-6758750Y+14720598D02*
X-6701410Y+14720598D01*
D31*
X-7874350Y+10416080D02*
X-8125810Y+10416080D01*
X-8125810Y+10964720D01*
X-7874350Y+10964720D01*
X-7874350Y+10416080D01*
X-8125810Y+10416080D01*
X-8125810Y+10964720D01*
X-7874350Y+10964720D01*
X-7874350Y+10416080D01*
D101*
X-7987549Y+10853297D02*
X-7981284Y+10859562D01*
X-7981284Y+10878358D01*
X-7993815Y+10890888D01*
X-8006345Y+10890888D01*
X-8018876Y+10878358D01*
X-8018876Y+10859562D01*
X-8012611Y+10853297D01*
X-8006345Y+10840766D02*
X-8018876Y+10828236D01*
X-8018876Y+10815705D01*
X-8006345Y+10803175D01*
X-7993815Y+10803175D01*
X-7981284Y+10815705D01*
X-7981284Y+10828236D01*
X-7993815Y+10840766D01*
X-8006345Y+10840766D01*
X-7981284Y+10790644D02*
X-8018876Y+10790644D01*
X-8000080Y+10771849D01*
X-8018876Y+10753053D01*
X-7981284Y+10753053D01*
X-8006345Y+10727992D02*
X-8018876Y+10715461D01*
X-7981284Y+10715461D01*
X-7981284Y+10602687D02*
X-7981284Y+10640278D01*
X-8018876Y+10640278D01*
X-8018876Y+10602687D01*
X-8000080Y+10640278D02*
X-8000080Y+10615217D01*
X-8018876Y+10590156D02*
X-7981284Y+10552565D01*
X-7981284Y+10590156D02*
X-8018876Y+10552565D01*
X-8018876Y+10540034D02*
X-8018876Y+10502443D01*
X-8018876Y+10521239D02*
X-7981284Y+10521239D01*
D31*
X-8024350Y+5466080D02*
X-8275810Y+5466080D01*
X-8275810Y+6014720D01*
X-8024350Y+6014720D01*
X-8024350Y+5466080D01*
X-8275810Y+5466080D01*
X-8275810Y+6014720D01*
X-8024350Y+6014720D01*
X-8024350Y+5466080D01*
D101*
X-8137549Y+5903297D02*
X-8131284Y+5909562D01*
X-8131284Y+5928358D01*
X-8143815Y+5940888D01*
X-8156345Y+5940888D01*
X-8168876Y+5928358D01*
X-8168876Y+5909562D01*
X-8162611Y+5903297D01*
X-8156345Y+5890766D02*
X-8168876Y+5878236D01*
X-8168876Y+5865705D01*
X-8156345Y+5853175D01*
X-8143815Y+5853175D01*
X-8131284Y+5865705D01*
X-8131284Y+5878236D01*
X-8143815Y+5890766D01*
X-8156345Y+5890766D01*
X-8131284Y+5840644D02*
X-8168876Y+5840644D01*
X-8150080Y+5821849D01*
X-8168876Y+5803053D01*
X-8131284Y+5803053D01*
X-8162611Y+5784257D02*
X-8168876Y+5777992D01*
X-8168876Y+5759196D01*
X-8162611Y+5752931D01*
X-8156345Y+5752931D01*
X-8150080Y+5759196D01*
X-8150080Y+5777992D01*
X-8143815Y+5784257D01*
X-8131284Y+5784257D01*
X-8131284Y+5752931D01*
X-8131284Y+5652687D02*
X-8131284Y+5690278D01*
X-8168876Y+5690278D01*
X-8168876Y+5652687D01*
X-8150080Y+5690278D02*
X-8150080Y+5665217D01*
X-8168876Y+5640156D02*
X-8131284Y+5602565D01*
X-8131284Y+5640156D02*
X-8168876Y+5602565D01*
X-8168876Y+5590034D02*
X-8168876Y+5552443D01*
X-8168876Y+5571239D02*
X-8131284Y+5571239D01*
D72*
X-6274900Y+14581100D02*
X-5081100Y+14581100D01*
X-5081100Y+14758900D01*
X-6274900Y+14758900D01*
X-6274900Y+14581100D01*
D84*
X-5549984Y+14637996D02*
X-5549984Y+14702004D01*
X-5603324Y+14702004D01*
X-5613992Y+14691336D01*
X-5613992Y+14680668D01*
X-5603324Y+14670000D01*
X-5549984Y+14670000D01*
X-5603324Y+14670000D02*
X-5613992Y+14659332D01*
X-5613992Y+14637996D01*
X-5645996Y+14691336D02*
X-5656664Y+14702004D01*
X-5688668Y+14702004D01*
X-5699336Y+14691336D01*
X-5699336Y+14680668D01*
X-5688668Y+14670000D01*
X-5699336Y+14659332D01*
X-5699336Y+14648664D01*
X-5688668Y+14637996D01*
X-5656664Y+14637996D01*
X-5645996Y+14648664D01*
X-5667332Y+14670000D02*
X-5688668Y+14670000D01*
X-5731340Y+14702004D02*
X-5784680Y+14702004D01*
X-5784680Y+14691336D01*
X-5731340Y+14637996D01*
D72*
X-4664900Y+14551100D02*
X-3471100Y+14551100D01*
X-3471100Y+14728900D01*
X-4664900Y+14728900D01*
X-4664900Y+14551100D01*
D84*
X-3939984Y+14607996D02*
X-3939984Y+14672004D01*
X-3993324Y+14672004D01*
X-4003992Y+14661336D01*
X-4003992Y+14650668D01*
X-3993324Y+14640000D01*
X-3939984Y+14640000D01*
X-3993324Y+14640000D02*
X-4003992Y+14629332D01*
X-4003992Y+14607996D01*
X-4035996Y+14661336D02*
X-4046664Y+14672004D01*
X-4078668Y+14672004D01*
X-4089336Y+14661336D01*
X-4089336Y+14650668D01*
X-4078668Y+14640000D01*
X-4089336Y+14629332D01*
X-4089336Y+14618664D01*
X-4078668Y+14607996D01*
X-4046664Y+14607996D01*
X-4035996Y+14618664D01*
X-4057332Y+14640000D02*
X-4078668Y+14640000D01*
X-4132008Y+14640000D02*
X-4121340Y+14650668D01*
X-4121340Y+14661336D01*
X-4132008Y+14672004D01*
X-4164012Y+14672004D01*
X-4174680Y+14661336D01*
X-4174680Y+14650668D01*
X-4164012Y+14640000D01*
X-4132008Y+14640000D01*
X-4121340Y+14629332D01*
X-4121340Y+14618664D01*
X-4132008Y+14607996D01*
X-4164012Y+14607996D01*
X-4174680Y+14618664D01*
X-4174680Y+14629332D01*
X-4164012Y+14640000D01*
D72*
X-3214900Y+14561100D02*
X-2021100Y+14561100D01*
X-2021100Y+14738900D01*
X-3214900Y+14738900D01*
X-3214900Y+14561100D01*
D84*
X-2489984Y+14617996D02*
X-2489984Y+14682004D01*
X-2543324Y+14682004D01*
X-2553992Y+14671336D01*
X-2553992Y+14660668D01*
X-2543324Y+14650000D01*
X-2489984Y+14650000D01*
X-2543324Y+14650000D02*
X-2553992Y+14639332D01*
X-2553992Y+14617996D01*
X-2585996Y+14671336D02*
X-2596664Y+14682004D01*
X-2628668Y+14682004D01*
X-2639336Y+14671336D01*
X-2639336Y+14660668D01*
X-2628668Y+14650000D01*
X-2639336Y+14639332D01*
X-2639336Y+14628664D01*
X-2628668Y+14617996D01*
X-2596664Y+14617996D01*
X-2585996Y+14628664D01*
X-2607332Y+14650000D02*
X-2628668Y+14650000D01*
X-2724680Y+14660668D02*
X-2714012Y+14650000D01*
X-2682008Y+14650000D01*
X-2671340Y+14660668D01*
X-2671340Y+14671336D01*
X-2682008Y+14682004D01*
X-2714012Y+14682004D01*
X-2724680Y+14671336D01*
X-2724680Y+14628664D01*
X-2714012Y+14617996D01*
X-2682008Y+14617996D01*
D72*
X-1388900Y+14561100D02*
X-195100Y+14561100D01*
X-195100Y+14738900D01*
X-1388900Y+14738900D01*
X-1388900Y+14561100D01*
D84*
X-663984Y+14617996D02*
X-663984Y+14682004D01*
X-717324Y+14682004D01*
X-727992Y+14671336D01*
X-727992Y+14660668D01*
X-717324Y+14650000D01*
X-663984Y+14650000D01*
X-717324Y+14650000D02*
X-727992Y+14639332D01*
X-727992Y+14617996D01*
X-813336Y+14639332D02*
X-749328Y+14639332D01*
X-792000Y+14682004D01*
X-792000Y+14617996D01*
X-834672Y+14628664D02*
X-834672Y+14671336D01*
X-845340Y+14682004D01*
X-888012Y+14682004D01*
X-898680Y+14671336D01*
X-898680Y+14628664D01*
X-888012Y+14617996D01*
X-845340Y+14617996D01*
X-834672Y+14628664D01*
X-834672Y+14617996D02*
X-898680Y+14682004D01*
D72*
X+451100Y+14561100D02*
X+1644900Y+14561100D01*
X+1644900Y+14738900D01*
X+451100Y+14738900D01*
X+451100Y+14561100D01*
D84*
X+1176016Y+14617996D02*
X+1176016Y+14682004D01*
X+1122676Y+14682004D01*
X+1112008Y+14671336D01*
X+1112008Y+14660668D01*
X+1122676Y+14650000D01*
X+1176016Y+14650000D01*
X+1122676Y+14650000D02*
X+1112008Y+14639332D01*
X+1112008Y+14617996D01*
X+1026664Y+14639332D02*
X+1090672Y+14639332D01*
X+1048000Y+14682004D01*
X+1048000Y+14617996D01*
X+983992Y+14660668D02*
X+962656Y+14682004D01*
X+962656Y+14617996D01*
D72*
X+2281100Y+14551100D02*
X+3474900Y+14551100D01*
X+3474900Y+14728900D01*
X+2281100Y+14728900D01*
X+2281100Y+14551100D01*
D84*
X+3006016Y+14607996D02*
X+3006016Y+14672004D01*
X+2952676Y+14672004D01*
X+2942008Y+14661336D01*
X+2942008Y+14650668D01*
X+2952676Y+14640000D01*
X+3006016Y+14640000D01*
X+2952676Y+14640000D02*
X+2942008Y+14629332D01*
X+2942008Y+14607996D01*
X+2856664Y+14629332D02*
X+2920672Y+14629332D01*
X+2878000Y+14672004D01*
X+2878000Y+14607996D01*
X+2824660Y+14661336D02*
X+2813992Y+14672004D01*
X+2781988Y+14672004D01*
X+2771320Y+14661336D01*
X+2771320Y+14650668D01*
X+2781988Y+14640000D01*
X+2813992Y+14640000D01*
X+2824660Y+14629332D01*
X+2824660Y+14607996D01*
X+2771320Y+14607996D01*
D72*
X+4131100Y+14561100D02*
X+5324900Y+14561100D01*
X+5324900Y+14738900D01*
X+4131100Y+14738900D01*
X+4131100Y+14561100D01*
D84*
X+4856016Y+14617996D02*
X+4856016Y+14682004D01*
X+4802676Y+14682004D01*
X+4792008Y+14671336D01*
X+4792008Y+14660668D01*
X+4802676Y+14650000D01*
X+4856016Y+14650000D01*
X+4802676Y+14650000D02*
X+4792008Y+14639332D01*
X+4792008Y+14617996D01*
X+4706664Y+14639332D02*
X+4770672Y+14639332D01*
X+4728000Y+14682004D01*
X+4728000Y+14617996D01*
X+4674660Y+14671336D02*
X+4663992Y+14682004D01*
X+4631988Y+14682004D01*
X+4621320Y+14671336D01*
X+4621320Y+14660668D01*
X+4631988Y+14650000D01*
X+4621320Y+14639332D01*
X+4621320Y+14628664D01*
X+4631988Y+14617996D01*
X+4663992Y+14617996D01*
X+4674660Y+14628664D01*
X+4653324Y+14650000D02*
X+4631988Y+14650000D01*
D72*
X+5911100Y+14561100D02*
X+7104900Y+14561100D01*
X+7104900Y+14738900D01*
X+5911100Y+14738900D01*
X+5911100Y+14561100D01*
D84*
X+6636016Y+14617996D02*
X+6636016Y+14682004D01*
X+6582676Y+14682004D01*
X+6572008Y+14671336D01*
X+6572008Y+14660668D01*
X+6582676Y+14650000D01*
X+6636016Y+14650000D01*
X+6582676Y+14650000D02*
X+6572008Y+14639332D01*
X+6572008Y+14617996D01*
X+6486664Y+14639332D02*
X+6550672Y+14639332D01*
X+6508000Y+14682004D01*
X+6508000Y+14617996D01*
X+6401320Y+14639332D02*
X+6465328Y+14639332D01*
X+6422656Y+14682004D01*
X+6422656Y+14617996D01*
D72*
X-4508900Y+11395100D02*
X-4331100Y+11395100D01*
X-4331100Y+12588900D01*
X-4508900Y+12588900D01*
X-4508900Y+11395100D01*
D84*
X-4387996Y+12120016D02*
X-4452004Y+12120016D01*
X-4452004Y+12066676D01*
X-4441336Y+12056008D01*
X-4430668Y+12056008D01*
X-4420000Y+12066676D01*
X-4420000Y+12120016D01*
X-4420000Y+12066676D02*
X-4409332Y+12056008D01*
X-4387996Y+12056008D01*
X-4409332Y+11970664D02*
X-4409332Y+12034672D01*
X-4452004Y+11992000D01*
X-4387996Y+11992000D01*
X-4452004Y+11885320D02*
X-4452004Y+11938660D01*
X-4430668Y+11938660D01*
X-4430668Y+11895988D01*
X-4420000Y+11885320D01*
X-4398664Y+11885320D01*
X-4387996Y+11895988D01*
X-4387996Y+11927992D01*
X-4398664Y+11938660D01*
D72*
X+4361100Y+11335100D02*
X+4538900Y+11335100D01*
X+4538900Y+12528900D01*
X+4361100Y+12528900D01*
X+4361100Y+11335100D01*
D84*
X+4482004Y+12060016D02*
X+4417996Y+12060016D01*
X+4417996Y+12006676D01*
X+4428664Y+11996008D01*
X+4439332Y+11996008D01*
X+4450000Y+12006676D01*
X+4450000Y+12060016D01*
X+4450000Y+12006676D02*
X+4460668Y+11996008D01*
X+4482004Y+11996008D01*
X+4460668Y+11910664D02*
X+4460668Y+11974672D01*
X+4417996Y+11932000D01*
X+4482004Y+11932000D01*
X+4428664Y+11825320D02*
X+4417996Y+11835988D01*
X+4417996Y+11867992D01*
X+4428664Y+11878660D01*
X+4471336Y+11878660D01*
X+4482004Y+11867992D01*
X+4482004Y+11835988D01*
X+4471336Y+11825320D01*
X+4460668Y+11825320D01*
X+4450000Y+11835988D01*
X+4450000Y+11878660D01*
D72*
X-4508900Y+6345100D02*
X-4331100Y+6345100D01*
X-4331100Y+7538900D01*
X-4508900Y+7538900D01*
X-4508900Y+6345100D01*
D84*
X-4387996Y+7070016D02*
X-4452004Y+7070016D01*
X-4452004Y+7016676D01*
X-4441336Y+7006008D01*
X-4430668Y+7006008D01*
X-4420000Y+7016676D01*
X-4420000Y+7070016D01*
X-4420000Y+7016676D02*
X-4409332Y+7006008D01*
X-4387996Y+7006008D01*
X-4409332Y+6920664D02*
X-4409332Y+6984672D01*
X-4452004Y+6942000D01*
X-4387996Y+6942000D01*
X-4452004Y+6888660D02*
X-4452004Y+6835320D01*
X-4441336Y+6835320D01*
X-4387996Y+6888660D01*
D72*
X+4381100Y+6385100D02*
X+4558900Y+6385100D01*
X+4558900Y+7578900D01*
X+4381100Y+7578900D01*
X+4381100Y+6385100D01*
D84*
X+4502004Y+7110016D02*
X+4437996Y+7110016D01*
X+4437996Y+7056676D01*
X+4448664Y+7046008D01*
X+4459332Y+7046008D01*
X+4470000Y+7056676D01*
X+4470000Y+7110016D01*
X+4470000Y+7056676D02*
X+4480668Y+7046008D01*
X+4502004Y+7046008D01*
X+4480668Y+6960664D02*
X+4480668Y+7024672D01*
X+4437996Y+6982000D01*
X+4502004Y+6982000D01*
X+4470000Y+6917992D02*
X+4459332Y+6928660D01*
X+4448664Y+6928660D01*
X+4437996Y+6917992D01*
X+4437996Y+6885988D01*
X+4448664Y+6875320D01*
X+4459332Y+6875320D01*
X+4470000Y+6885988D01*
X+4470000Y+6917992D01*
X+4480668Y+6928660D01*
X+4491336Y+6928660D01*
X+4502004Y+6917992D01*
X+4502004Y+6885988D01*
X+4491336Y+6875320D01*
X+4480668Y+6875320D01*
X+4470000Y+6885988D01*
D72*
X-6588900Y+1011100D02*
X-5395100Y+1011100D01*
X-5395100Y+1188900D01*
X-6588900Y+1188900D01*
X-6588900Y+1011100D01*
D84*
X-5863984Y+1067996D02*
X-5863984Y+1132004D01*
X-5917324Y+1132004D01*
X-5927992Y+1121336D01*
X-5927992Y+1110668D01*
X-5917324Y+1100000D01*
X-5863984Y+1100000D01*
X-5917324Y+1100000D02*
X-5927992Y+1089332D01*
X-5927992Y+1067996D01*
X-6013336Y+1089332D02*
X-5949328Y+1089332D01*
X-5992000Y+1132004D01*
X-5992000Y+1067996D01*
X-6098680Y+1110668D02*
X-6088012Y+1100000D01*
X-6056008Y+1100000D01*
X-6045340Y+1110668D01*
X-6045340Y+1121336D01*
X-6056008Y+1132004D01*
X-6088012Y+1132004D01*
X-6098680Y+1121336D01*
X-6098680Y+1078664D01*
X-6088012Y+1067996D01*
X-6056008Y+1067996D01*
D72*
X-5018900Y+971100D02*
X-3825100Y+971100D01*
X-3825100Y+1148900D01*
X-5018900Y+1148900D01*
X-5018900Y+971100D01*
D84*
X-4293984Y+1027996D02*
X-4293984Y+1092004D01*
X-4347324Y+1092004D01*
X-4357992Y+1081336D01*
X-4357992Y+1070668D01*
X-4347324Y+1060000D01*
X-4293984Y+1060000D01*
X-4347324Y+1060000D02*
X-4357992Y+1049332D01*
X-4357992Y+1027996D01*
X-4443336Y+1092004D02*
X-4389996Y+1092004D01*
X-4389996Y+1070668D01*
X-4432668Y+1070668D01*
X-4443336Y+1060000D01*
X-4443336Y+1038664D01*
X-4432668Y+1027996D01*
X-4400664Y+1027996D01*
X-4389996Y+1038664D01*
X-4464672Y+1038664D02*
X-4464672Y+1081336D01*
X-4475340Y+1092004D01*
X-4518012Y+1092004D01*
X-4528680Y+1081336D01*
X-4528680Y+1038664D01*
X-4518012Y+1027996D01*
X-4475340Y+1027996D01*
X-4464672Y+1038664D01*
X-4464672Y+1027996D02*
X-4528680Y+1092004D01*
D72*
X-3408900Y+971100D02*
X-2215100Y+971100D01*
X-2215100Y+1148900D01*
X-3408900Y+1148900D01*
X-3408900Y+971100D01*
D84*
X-2683984Y+1027996D02*
X-2683984Y+1092004D01*
X-2737324Y+1092004D01*
X-2747992Y+1081336D01*
X-2747992Y+1070668D01*
X-2737324Y+1060000D01*
X-2683984Y+1060000D01*
X-2737324Y+1060000D02*
X-2747992Y+1049332D01*
X-2747992Y+1027996D01*
X-2833336Y+1092004D02*
X-2779996Y+1092004D01*
X-2779996Y+1070668D01*
X-2822668Y+1070668D01*
X-2833336Y+1060000D01*
X-2833336Y+1038664D01*
X-2822668Y+1027996D01*
X-2790664Y+1027996D01*
X-2779996Y+1038664D01*
X-2876008Y+1070668D02*
X-2897344Y+1092004D01*
X-2897344Y+1027996D01*
D72*
X-1788900Y+971100D02*
X-595100Y+971100D01*
X-595100Y+1148900D01*
X-1788900Y+1148900D01*
X-1788900Y+971100D01*
D84*
X-1063984Y+1027996D02*
X-1063984Y+1092004D01*
X-1117324Y+1092004D01*
X-1127992Y+1081336D01*
X-1127992Y+1070668D01*
X-1117324Y+1060000D01*
X-1063984Y+1060000D01*
X-1117324Y+1060000D02*
X-1127992Y+1049332D01*
X-1127992Y+1027996D01*
X-1213336Y+1092004D02*
X-1159996Y+1092004D01*
X-1159996Y+1070668D01*
X-1202668Y+1070668D01*
X-1213336Y+1060000D01*
X-1213336Y+1038664D01*
X-1202668Y+1027996D01*
X-1170664Y+1027996D01*
X-1159996Y+1038664D01*
X-1245340Y+1081336D02*
X-1256008Y+1092004D01*
X-1288012Y+1092004D01*
X-1298680Y+1081336D01*
X-1298680Y+1070668D01*
X-1288012Y+1060000D01*
X-1256008Y+1060000D01*
X-1245340Y+1049332D01*
X-1245340Y+1027996D01*
X-1298680Y+1027996D01*
D72*
X+61100Y+961100D02*
X+1254900Y+961100D01*
X+1254900Y+1138900D01*
X+61100Y+1138900D01*
X+61100Y+961100D01*
D84*
X+786016Y+1017996D02*
X+786016Y+1082004D01*
X+732676Y+1082004D01*
X+722008Y+1071336D01*
X+722008Y+1060668D01*
X+732676Y+1050000D01*
X+786016Y+1050000D01*
X+732676Y+1050000D02*
X+722008Y+1039332D01*
X+722008Y+1017996D01*
X+636664Y+1082004D02*
X+690004Y+1082004D01*
X+690004Y+1060668D01*
X+647332Y+1060668D01*
X+636664Y+1050000D01*
X+636664Y+1028664D01*
X+647332Y+1017996D01*
X+679336Y+1017996D01*
X+690004Y+1028664D01*
X+604660Y+1071336D02*
X+593992Y+1082004D01*
X+561988Y+1082004D01*
X+551320Y+1071336D01*
X+551320Y+1060668D01*
X+561988Y+1050000D01*
X+551320Y+1039332D01*
X+551320Y+1028664D01*
X+561988Y+1017996D01*
X+593992Y+1017996D01*
X+604660Y+1028664D01*
X+583324Y+1050000D02*
X+561988Y+1050000D01*
D72*
X-8548900Y-4038900D02*
X-7355100Y-4038900D01*
X-7355100Y-3861100D01*
X-8548900Y-3861100D01*
X-8548900Y-4038900D01*
D84*
X-7823984Y-3982004D02*
X-7823984Y-3917996D01*
X-7877324Y-3917996D01*
X-7887992Y-3928664D01*
X-7887992Y-3939332D01*
X-7877324Y-3950000D01*
X-7823984Y-3950000D01*
X-7877324Y-3950000D02*
X-7887992Y-3960668D01*
X-7887992Y-3982004D01*
X-7973336Y-3917996D02*
X-7919996Y-3917996D01*
X-7919996Y-3939332D01*
X-7962668Y-3939332D01*
X-7973336Y-3950000D01*
X-7973336Y-3971336D01*
X-7962668Y-3982004D01*
X-7930664Y-3982004D01*
X-7919996Y-3971336D01*
X-8058680Y-3960668D02*
X-7994672Y-3960668D01*
X-8037344Y-3917996D01*
X-8037344Y-3982004D01*
D72*
X-8414900Y-6048900D02*
X-7221100Y-6048900D01*
X-7221100Y-5871100D01*
X-8414900Y-5871100D01*
X-8414900Y-6048900D01*
D84*
X-7689984Y-5992004D02*
X-7689984Y-5927996D01*
X-7743324Y-5927996D01*
X-7753992Y-5938664D01*
X-7753992Y-5949332D01*
X-7743324Y-5960000D01*
X-7689984Y-5960000D01*
X-7743324Y-5960000D02*
X-7753992Y-5970668D01*
X-7753992Y-5992004D01*
X-7839336Y-5927996D02*
X-7785996Y-5927996D01*
X-7785996Y-5949332D01*
X-7828668Y-5949332D01*
X-7839336Y-5960000D01*
X-7839336Y-5981336D01*
X-7828668Y-5992004D01*
X-7796664Y-5992004D01*
X-7785996Y-5981336D01*
X-7924680Y-5927996D02*
X-7871340Y-5927996D01*
X-7871340Y-5949332D01*
X-7914012Y-5949332D01*
X-7924680Y-5960000D01*
X-7924680Y-5981336D01*
X-7914012Y-5992004D01*
X-7882008Y-5992004D01*
X-7871340Y-5981336D01*
D72*
X-6918900Y-5948900D02*
X-5725100Y-5948900D01*
X-5725100Y-5771100D01*
X-6918900Y-5771100D01*
X-6918900Y-5948900D01*
D84*
X-6193984Y-5892004D02*
X-6193984Y-5827996D01*
X-6247324Y-5827996D01*
X-6257992Y-5838664D01*
X-6257992Y-5849332D01*
X-6247324Y-5860000D01*
X-6193984Y-5860000D01*
X-6247324Y-5860000D02*
X-6257992Y-5870668D01*
X-6257992Y-5892004D01*
X-6343336Y-5827996D02*
X-6289996Y-5827996D01*
X-6289996Y-5849332D01*
X-6332668Y-5849332D01*
X-6343336Y-5860000D01*
X-6343336Y-5881336D01*
X-6332668Y-5892004D01*
X-6300664Y-5892004D01*
X-6289996Y-5881336D01*
X-6428680Y-5838664D02*
X-6418012Y-5827996D01*
X-6386008Y-5827996D01*
X-6375340Y-5838664D01*
X-6375340Y-5881336D01*
X-6386008Y-5892004D01*
X-6418012Y-5892004D01*
X-6428680Y-5881336D01*
X-6428680Y-5870668D01*
X-6418012Y-5860000D01*
X-6375340Y-5860000D01*
D72*
X-5338900Y-5988900D02*
X-4145100Y-5988900D01*
X-4145100Y-5811100D01*
X-5338900Y-5811100D01*
X-5338900Y-5988900D01*
D84*
X-4613984Y-5932004D02*
X-4613984Y-5867996D01*
X-4667324Y-5867996D01*
X-4677992Y-5878664D01*
X-4677992Y-5889332D01*
X-4667324Y-5900000D01*
X-4613984Y-5900000D01*
X-4667324Y-5900000D02*
X-4677992Y-5910668D01*
X-4677992Y-5932004D01*
X-4763336Y-5867996D02*
X-4709996Y-5867996D01*
X-4709996Y-5889332D01*
X-4752668Y-5889332D01*
X-4763336Y-5900000D01*
X-4763336Y-5921336D01*
X-4752668Y-5932004D01*
X-4720664Y-5932004D01*
X-4709996Y-5921336D01*
X-4795340Y-5867996D02*
X-4848680Y-5867996D01*
X-4848680Y-5878664D01*
X-4795340Y-5932004D01*
D72*
X-3768900Y-6008900D02*
X-2575100Y-6008900D01*
X-2575100Y-5831100D01*
X-3768900Y-5831100D01*
X-3768900Y-6008900D01*
D84*
X-3043984Y-5952004D02*
X-3043984Y-5887996D01*
X-3097324Y-5887996D01*
X-3107992Y-5898664D01*
X-3107992Y-5909332D01*
X-3097324Y-5920000D01*
X-3043984Y-5920000D01*
X-3097324Y-5920000D02*
X-3107992Y-5930668D01*
X-3107992Y-5952004D01*
X-3193336Y-5887996D02*
X-3139996Y-5887996D01*
X-3139996Y-5909332D01*
X-3182668Y-5909332D01*
X-3193336Y-5920000D01*
X-3193336Y-5941336D01*
X-3182668Y-5952004D01*
X-3150664Y-5952004D01*
X-3139996Y-5941336D01*
X-3236008Y-5920000D02*
X-3225340Y-5909332D01*
X-3225340Y-5898664D01*
X-3236008Y-5887996D01*
X-3268012Y-5887996D01*
X-3278680Y-5898664D01*
X-3278680Y-5909332D01*
X-3268012Y-5920000D01*
X-3236008Y-5920000D01*
X-3225340Y-5930668D01*
X-3225340Y-5941336D01*
X-3236008Y-5952004D01*
X-3268012Y-5952004D01*
X-3278680Y-5941336D01*
X-3278680Y-5930668D01*
X-3268012Y-5920000D01*
D72*
X-2164900Y-6038900D02*
X-971100Y-6038900D01*
X-971100Y-5861100D01*
X-2164900Y-5861100D01*
X-2164900Y-6038900D01*
D84*
X-1439984Y-5982004D02*
X-1439984Y-5917996D01*
X-1493324Y-5917996D01*
X-1503992Y-5928664D01*
X-1503992Y-5939332D01*
X-1493324Y-5950000D01*
X-1439984Y-5950000D01*
X-1493324Y-5950000D02*
X-1503992Y-5960668D01*
X-1503992Y-5982004D01*
X-1589336Y-5917996D02*
X-1535996Y-5917996D01*
X-1535996Y-5939332D01*
X-1578668Y-5939332D01*
X-1589336Y-5950000D01*
X-1589336Y-5971336D01*
X-1578668Y-5982004D01*
X-1546664Y-5982004D01*
X-1535996Y-5971336D01*
X-1674680Y-5939332D02*
X-1664012Y-5950000D01*
X-1632008Y-5950000D01*
X-1621340Y-5939332D01*
X-1621340Y-5928664D01*
X-1632008Y-5917996D01*
X-1664012Y-5917996D01*
X-1674680Y-5928664D01*
X-1674680Y-5971336D01*
X-1664012Y-5982004D01*
X-1632008Y-5982004D01*
D72*
X-678900Y-5968900D02*
X+514900Y-5968900D01*
X+514900Y-5791100D01*
X-678900Y-5791100D01*
X-678900Y-5968900D01*
D84*
X+46016Y-5912004D02*
X+46016Y-5847996D01*
X-7324Y-5847996D01*
X-17992Y-5858664D01*
X-17992Y-5869332D01*
X-7324Y-5880000D01*
X+46016Y-5880000D01*
X-7324Y-5880000D02*
X-17992Y-5890668D01*
X-17992Y-5912004D01*
X-103336Y-5858664D02*
X-92668Y-5847996D01*
X-60664Y-5847996D01*
X-49996Y-5858664D01*
X-49996Y-5901336D01*
X-60664Y-5912004D01*
X-92668Y-5912004D01*
X-103336Y-5901336D01*
X-103336Y-5890668D01*
X-92668Y-5880000D01*
X-49996Y-5880000D01*
X-124672Y-5901336D02*
X-124672Y-5858664D01*
X-135340Y-5847996D01*
X-178012Y-5847996D01*
X-188680Y-5858664D01*
X-188680Y-5901336D01*
X-178012Y-5912004D01*
X-135340Y-5912004D01*
X-124672Y-5901336D01*
X-124672Y-5912004D02*
X-188680Y-5847996D01*
D72*
X+971100Y-5938900D02*
X+2164900Y-5938900D01*
X+2164900Y-5761100D01*
X+971100Y-5761100D01*
X+971100Y-5938900D01*
D84*
X+1696016Y-5882004D02*
X+1696016Y-5817996D01*
X+1642676Y-5817996D01*
X+1632008Y-5828664D01*
X+1632008Y-5839332D01*
X+1642676Y-5850000D01*
X+1696016Y-5850000D01*
X+1642676Y-5850000D02*
X+1632008Y-5860668D01*
X+1632008Y-5882004D01*
X+1546664Y-5828664D02*
X+1557332Y-5817996D01*
X+1589336Y-5817996D01*
X+1600004Y-5828664D01*
X+1600004Y-5871336D01*
X+1589336Y-5882004D01*
X+1557332Y-5882004D01*
X+1546664Y-5871336D01*
X+1546664Y-5860668D01*
X+1557332Y-5850000D01*
X+1600004Y-5850000D01*
X+1503992Y-5839332D02*
X+1482656Y-5817996D01*
X+1482656Y-5882004D01*
D72*
X+2301100Y-5958900D02*
X+3494900Y-5958900D01*
X+3494900Y-5781100D01*
X+2301100Y-5781100D01*
X+2301100Y-5958900D01*
D84*
X+3026016Y-5902004D02*
X+3026016Y-5837996D01*
X+2972676Y-5837996D01*
X+2962008Y-5848664D01*
X+2962008Y-5859332D01*
X+2972676Y-5870000D01*
X+3026016Y-5870000D01*
X+2972676Y-5870000D02*
X+2962008Y-5880668D01*
X+2962008Y-5902004D01*
X+2876664Y-5848664D02*
X+2887332Y-5837996D01*
X+2919336Y-5837996D01*
X+2930004Y-5848664D01*
X+2930004Y-5891336D01*
X+2919336Y-5902004D01*
X+2887332Y-5902004D01*
X+2876664Y-5891336D01*
X+2876664Y-5880668D01*
X+2887332Y-5870000D01*
X+2930004Y-5870000D01*
X+2844660Y-5848664D02*
X+2833992Y-5837996D01*
X+2801988Y-5837996D01*
X+2791320Y-5848664D01*
X+2791320Y-5859332D01*
X+2801988Y-5870000D01*
X+2833992Y-5870000D01*
X+2844660Y-5880668D01*
X+2844660Y-5902004D01*
X+2791320Y-5902004D01*
D72*
X+4551100Y-7344900D02*
X+4728900Y-7344900D01*
X+4728900Y-6151100D01*
X+4551100Y-6151100D01*
X+4551100Y-7344900D01*
D84*
X+4672004Y-6619984D02*
X+4607996Y-6619984D01*
X+4607996Y-6673324D01*
X+4618664Y-6683992D01*
X+4629332Y-6683992D01*
X+4640000Y-6673324D01*
X+4640000Y-6619984D01*
X+4640000Y-6673324D02*
X+4650668Y-6683992D01*
X+4672004Y-6683992D01*
X+4618664Y-6769336D02*
X+4607996Y-6758668D01*
X+4607996Y-6726664D01*
X+4618664Y-6715996D01*
X+4661336Y-6715996D01*
X+4672004Y-6726664D01*
X+4672004Y-6758668D01*
X+4661336Y-6769336D01*
X+4650668Y-6769336D01*
X+4640000Y-6758668D01*
X+4640000Y-6715996D01*
X+4618664Y-6801340D02*
X+4607996Y-6812008D01*
X+4607996Y-6844012D01*
X+4618664Y-6854680D01*
X+4629332Y-6854680D01*
X+4640000Y-6844012D01*
X+4650668Y-6854680D01*
X+4661336Y-6854680D01*
X+4672004Y-6844012D01*
X+4672004Y-6812008D01*
X+4661336Y-6801340D01*
X+4640000Y-6822676D02*
X+4640000Y-6844012D01*
D72*
X+4661100Y-5378900D02*
X+5854900Y-5378900D01*
X+5854900Y-5201100D01*
X+4661100Y-5201100D01*
X+4661100Y-5378900D01*
D84*
X+5386016Y-5322004D02*
X+5386016Y-5257996D01*
X+5332676Y-5257996D01*
X+5322008Y-5268664D01*
X+5322008Y-5279332D01*
X+5332676Y-5290000D01*
X+5386016Y-5290000D01*
X+5332676Y-5290000D02*
X+5322008Y-5300668D01*
X+5322008Y-5322004D01*
X+5236664Y-5268664D02*
X+5247332Y-5257996D01*
X+5279336Y-5257996D01*
X+5290004Y-5268664D01*
X+5290004Y-5311336D01*
X+5279336Y-5322004D01*
X+5247332Y-5322004D01*
X+5236664Y-5311336D01*
X+5236664Y-5300668D01*
X+5247332Y-5290000D01*
X+5290004Y-5290000D01*
X+5151320Y-5300668D02*
X+5215328Y-5300668D01*
X+5172656Y-5257996D01*
X+5172656Y-5322004D01*
D72*
X-8588900Y-11334900D02*
X-8411100Y-11334900D01*
X-8411100Y-10141100D01*
X-8588900Y-10141100D01*
X-8588900Y-11334900D01*
D84*
X-8467996Y-10609984D02*
X-8532004Y-10609984D01*
X-8532004Y-10663324D01*
X-8521336Y-10673992D01*
X-8510668Y-10673992D01*
X-8500000Y-10663324D01*
X-8500000Y-10609984D01*
X-8500000Y-10663324D02*
X-8489332Y-10673992D01*
X-8467996Y-10673992D01*
X-8521336Y-10759336D02*
X-8532004Y-10748668D01*
X-8532004Y-10716664D01*
X-8521336Y-10705996D01*
X-8478664Y-10705996D01*
X-8467996Y-10716664D01*
X-8467996Y-10748668D01*
X-8478664Y-10759336D01*
X-8489332Y-10759336D01*
X-8500000Y-10748668D01*
X-8500000Y-10705996D01*
X-8532004Y-10844680D02*
X-8532004Y-10791340D01*
X-8510668Y-10791340D01*
X-8510668Y-10834012D01*
X-8500000Y-10844680D01*
X-8478664Y-10844680D01*
X-8467996Y-10834012D01*
X-8467996Y-10802008D01*
X-8478664Y-10791340D01*
D72*
X-6288900Y-10608900D02*
X-5095100Y-10608900D01*
X-5095100Y-10431100D01*
X-6288900Y-10431100D01*
X-6288900Y-10608900D01*
D84*
X-5563984Y-10552004D02*
X-5563984Y-10487996D01*
X-5617324Y-10487996D01*
X-5627992Y-10498664D01*
X-5627992Y-10509332D01*
X-5617324Y-10520000D01*
X-5563984Y-10520000D01*
X-5617324Y-10520000D02*
X-5627992Y-10530668D01*
X-5627992Y-10552004D01*
X-5713336Y-10498664D02*
X-5702668Y-10487996D01*
X-5670664Y-10487996D01*
X-5659996Y-10498664D01*
X-5659996Y-10541336D01*
X-5670664Y-10552004D01*
X-5702668Y-10552004D01*
X-5713336Y-10541336D01*
X-5713336Y-10530668D01*
X-5702668Y-10520000D01*
X-5659996Y-10520000D01*
X-5798680Y-10498664D02*
X-5788012Y-10487996D01*
X-5756008Y-10487996D01*
X-5745340Y-10498664D01*
X-5745340Y-10541336D01*
X-5756008Y-10552004D01*
X-5788012Y-10552004D01*
X-5798680Y-10541336D01*
X-5798680Y-10530668D01*
X-5788012Y-10520000D01*
X-5745340Y-10520000D01*
D72*
X-3898900Y-10668900D02*
X-2705100Y-10668900D01*
X-2705100Y-10491100D01*
X-3898900Y-10491100D01*
X-3898900Y-10668900D01*
D84*
X-3173984Y-10612004D02*
X-3173984Y-10547996D01*
X-3227324Y-10547996D01*
X-3237992Y-10558664D01*
X-3237992Y-10569332D01*
X-3227324Y-10580000D01*
X-3173984Y-10580000D01*
X-3227324Y-10580000D02*
X-3237992Y-10590668D01*
X-3237992Y-10612004D01*
X-3323336Y-10558664D02*
X-3312668Y-10547996D01*
X-3280664Y-10547996D01*
X-3269996Y-10558664D01*
X-3269996Y-10601336D01*
X-3280664Y-10612004D01*
X-3312668Y-10612004D01*
X-3323336Y-10601336D01*
X-3323336Y-10590668D01*
X-3312668Y-10580000D01*
X-3269996Y-10580000D01*
X-3355340Y-10547996D02*
X-3408680Y-10547996D01*
X-3408680Y-10558664D01*
X-3355340Y-10612004D01*
D72*
X-1508900Y-10658900D02*
X-315100Y-10658900D01*
X-315100Y-10481100D01*
X-1508900Y-10481100D01*
X-1508900Y-10658900D01*
D84*
X-783984Y-10602004D02*
X-783984Y-10537996D01*
X-837324Y-10537996D01*
X-847992Y-10548664D01*
X-847992Y-10559332D01*
X-837324Y-10570000D01*
X-783984Y-10570000D01*
X-837324Y-10570000D02*
X-847992Y-10580668D01*
X-847992Y-10602004D01*
X-933336Y-10548664D02*
X-922668Y-10537996D01*
X-890664Y-10537996D01*
X-879996Y-10548664D01*
X-879996Y-10591336D01*
X-890664Y-10602004D01*
X-922668Y-10602004D01*
X-933336Y-10591336D01*
X-933336Y-10580668D01*
X-922668Y-10570000D01*
X-879996Y-10570000D01*
X-976008Y-10570000D02*
X-965340Y-10559332D01*
X-965340Y-10548664D01*
X-976008Y-10537996D01*
X-1008012Y-10537996D01*
X-1018680Y-10548664D01*
X-1018680Y-10559332D01*
X-1008012Y-10570000D01*
X-976008Y-10570000D01*
X-965340Y-10580668D01*
X-965340Y-10591336D01*
X-976008Y-10602004D01*
X-1008012Y-10602004D01*
X-1018680Y-10591336D01*
X-1018680Y-10580668D01*
X-1008012Y-10570000D01*
D72*
X+783600Y-10641400D02*
X+1977400Y-10641400D01*
X+1977400Y-10463600D01*
X+783600Y-10463600D01*
X+783600Y-10641400D01*
D84*
X+1508516Y-10584504D02*
X+1508516Y-10520496D01*
X+1455176Y-10520496D01*
X+1444508Y-10531164D01*
X+1444508Y-10541832D01*
X+1455176Y-10552500D01*
X+1508516Y-10552500D01*
X+1455176Y-10552500D02*
X+1444508Y-10563168D01*
X+1444508Y-10584504D01*
X+1359164Y-10531164D02*
X+1369832Y-10520496D01*
X+1401836Y-10520496D01*
X+1412504Y-10531164D01*
X+1412504Y-10573836D01*
X+1401836Y-10584504D01*
X+1369832Y-10584504D01*
X+1359164Y-10573836D01*
X+1359164Y-10563168D01*
X+1369832Y-10552500D01*
X+1412504Y-10552500D01*
X+1273820Y-10541832D02*
X+1284488Y-10552500D01*
X+1316492Y-10552500D01*
X+1327160Y-10541832D01*
X+1327160Y-10531164D01*
X+1316492Y-10520496D01*
X+1284488Y-10520496D01*
X+1273820Y-10531164D01*
X+1273820Y-10573836D01*
X+1284488Y-10584504D01*
X+1316492Y-10584504D01*
D72*
X+3341100Y-10668900D02*
X+4534900Y-10668900D01*
X+4534900Y-10491100D01*
X+3341100Y-10491100D01*
X+3341100Y-10668900D01*
D84*
X+4066016Y-10612004D02*
X+4066016Y-10547996D01*
X+4012676Y-10547996D01*
X+4002008Y-10558664D01*
X+4002008Y-10569332D01*
X+4012676Y-10580000D01*
X+4066016Y-10580000D01*
X+4012676Y-10580000D02*
X+4002008Y-10590668D01*
X+4002008Y-10612004D01*
X+3970004Y-10547996D02*
X+3916664Y-10547996D01*
X+3916664Y-10558664D01*
X+3970004Y-10612004D01*
X+3895328Y-10601336D02*
X+3895328Y-10558664D01*
X+3884660Y-10547996D01*
X+3841988Y-10547996D01*
X+3831320Y-10558664D01*
X+3831320Y-10601336D01*
X+3841988Y-10612004D01*
X+3884660Y-10612004D01*
X+3895328Y-10601336D01*
X+3895328Y-10612004D02*
X+3831320Y-10547996D01*
D72*
X+5611100Y-10678900D02*
X+6804900Y-10678900D01*
X+6804900Y-10501100D01*
X+5611100Y-10501100D01*
X+5611100Y-10678900D01*
D84*
X+6336016Y-10622004D02*
X+6336016Y-10557996D01*
X+6282676Y-10557996D01*
X+6272008Y-10568664D01*
X+6272008Y-10579332D01*
X+6282676Y-10590000D01*
X+6336016Y-10590000D01*
X+6282676Y-10590000D02*
X+6272008Y-10600668D01*
X+6272008Y-10622004D01*
X+6240004Y-10557996D02*
X+6186664Y-10557996D01*
X+6186664Y-10568664D01*
X+6240004Y-10622004D01*
X+6143992Y-10579332D02*
X+6122656Y-10557996D01*
X+6122656Y-10622004D01*
M02*
